<?xml version="1.0" encoding="utf-8"?>
<!-- Generator: Adobe Illustrator 27.7.0, SVG Export Plug-In . SVG Version: 6.00 Build 0)  -->
<svg version="1.1" id="Layer_2_00000009588815552339653940000017242271265232865714_"
	 xmlns="http://www.w3.org/2000/svg" xmlns:xlink="http://www.w3.org/1999/xlink" x="0px" y="0px" viewBox="0 0 13.1 25.4"
	 style="enable-background:new 0 0 13.1 25.4;" xml:space="preserve">
<style type="text/css">
	.st0{enable-background:new    ;}
</style>
<g id="Layer_1-2">
	<g class="st0">
		<path d="M10,2.1C9.9,2.2,9.8,2.2,9.8,2.3S9.7,2.4,9.7,2.4c0,0-0.1,0-0.1,0c0,0-0.1,0-0.2-0.1C9.2,2.2,9.1,2.2,8.9,2.1
			C8.8,2.1,8.7,2,8.5,2c-0.1,0-0.2,0-0.3-0.1c-0.1,0-0.2,0-0.3,0c0,0,0,0,0.1,0c0,0,0,0,0.1,0v0c-0.1,0-0.2-0.1-0.4-0.1
			S7.4,1.8,7.3,1.8c0.1,0,0.3,0,0.4,0.1C7.5,1.7,7.2,1.6,7,1.5C6.8,1.4,6.5,1.4,6.2,1.4c0,0,0.1,0,0.1,0.1c0,0,0.1,0,0.1,0.1
			C6.3,1.4,6.1,1.4,6,1.4c-0.2,0-0.3-0.1-0.5-0.1c0,0-0.1,0-0.1-0.1c-0.1,0-0.1,0-0.1,0c-0.1,0-0.1,0-0.2,0S4.9,1.1,4.8,1
			C4.8,1,4.7,1,4.6,1c-0.1,0-0.1,0-0.2-0.1c-0.1,0-0.1-0.1-0.1-0.1c0-0.1,0-0.1,0-0.2c0.1-0.2,0.3-0.3,0.5-0.3
			c0.3-0.1,0.6-0.1,0.9-0.1s0.6,0,0.8,0.1c0.3,0.1,0.6,0.1,0.9,0.2s0.6,0.2,0.8,0.4c0,0,0,0,0.1,0c0,0,0,0,0.1,0c0,0,0.1,0,0.1,0
			s0.1,0,0.1,0c0-0.1,0-0.2,0-0.2c0-0.1,0-0.2,0-0.2c0-0.1,0-0.2,0.1-0.2c0-0.1,0.1-0.1,0.2-0.2C8.9,0.1,9,0.2,9,0.3
			c0.1,0.1,0.1,0.2,0.2,0.3c0-0.1,0-0.1,0.1-0.1h0c0,0,0,0.1,0.1,0.1c0,0,0,0.1,0.1,0.2c0,0,0,0,0,0c0,0,0,0,0,0c0,0,0,0,0,0.1
			c0,0,0,0.1-0.1,0.1c0,0,0,0,0,0.1c0,0,0,0.1,0.1,0.1c0.1,0.2,0.1,0.3,0.2,0.4C9.8,1.8,9.9,2,10,2.1z"/>
	</g>
	<g class="st0">
		<path d="M10.1,13.4c-0.3,0.1-0.6,0.1-0.8,0.1c-0.3-0.1-0.5-0.1-0.8-0.3c-0.3-0.2-0.6-0.4-0.8-0.7c-0.2-0.3-0.5-0.6-0.6-0.9
			c-0.2-0.4-0.4-0.8-0.5-1.2C6.3,10,6.2,9.5,6.2,9.1c0-0.2,0-0.4,0-0.6c0-0.2,0.1-0.4,0.2-0.6c0-0.1,0.1-0.1,0.1-0.1
			c0,0,0-0.1,0.1-0.1C6.4,7.5,6.2,7.5,6.1,7.4c-0.3-0.1-0.7-0.2-1-0.3c-0.3-0.1-0.7-0.1-1-0.1H4c-0.3,0-0.4-0.2-0.2-0.4
			C4,6.6,4.1,6.5,4.2,6.5c0.2-0.1,0.4-0.1,0.6-0.1c0.2,0,0.4,0,0.7,0c0.3,0,0.5,0.1,0.8,0.2C6.5,6.6,6.8,6.7,7,6.7
			C7.4,6.8,7.7,6.9,8,7C8.3,7.2,8.6,7.3,9,7.4c0.2,0.1,0.3,0.2,0.5,0.2c0.2,0.1,0.3,0.2,0.5,0.2l0,0c0.2,0.1,0.2,0.2,0.3,0.3
			c0,0.1,0,0.2-0.1,0.3C10.1,8.7,10,8.8,9.9,8.8c-0.1,0.1-0.3,0.1-0.4,0c-0.1,0-0.1-0.1-0.2-0.1C9.2,8.7,9.1,8.6,9,8.6
			c0,0.1,0,0.2,0,0.3s0,0.2,0,0.3C9,9.1,9,9.1,8.9,9c0-0.1-0.1-0.2-0.1-0.2C8.7,8.6,8.6,8.6,8.6,8.5S8.4,8.4,8.3,8.3
			C8.1,8.2,8,8.1,7.8,8.1C7.7,8,7.5,7.9,7.4,7.9C7.2,7.8,7.1,7.8,7,7.8C6.9,7.9,6.9,8,6.9,8.2c0,0.2,0,0.5,0,0.7
			c0,0.2,0.1,0.5,0.1,0.7C7,9.6,7,9.7,7.1,9.7c0,0,0.1,0.1,0.1,0.1c0,0,0,0.1,0.1,0.1c0,0,0-0.1,0-0.1s0-0.1,0-0.1s0-0.1,0-0.1
			c0,0,0-0.1,0-0.1c0,0,0-0.1,0-0.1c0,0,0,0,0-0.1c0.1,0.3,0.2,0.5,0.3,0.7s0.2,0.5,0.4,0.7C8,11,8.1,11.1,8.2,11.2
			c0.1,0.1,0.3,0.3,0.4,0.3c0.1,0.1,0.2,0.1,0.3,0.2c0.1,0.1,0.2,0.2,0.3,0.2c0.4,0.2,0.8,0.3,1.2,0.3c0,0,0.1,0,0.1,0s0.1,0,0.1,0
			s0.1,0,0.1-0.1c0,0,0.1,0,0.1,0c0,0,0,0,0.1,0c0,0,0,0,0.1,0c0.1-0.1,0.2-0.2,0.2-0.3c0.1-0.1,0.1-0.2,0.2-0.3
			c0.1-0.2,0.1-0.5,0.1-0.7c0-0.2,0-0.5,0-0.7c0-0.3-0.1-0.6-0.2-0.8s-0.2-0.5-0.3-0.8C11,8.6,11,8.5,11,8.4c0-0.1-0.1-0.2-0.2-0.2
			c-0.1-0.1-0.2-0.2-0.4-0.4s-0.2-0.3-0.3-0.4C9.9,7.2,9.7,7,9.4,6.9C9.3,6.8,9.3,6.8,9.3,6.7c0-0.1,0.1-0.2,0.2-0.2
			c0.1,0,0.1-0.1,0.2-0.1s0.2-0.1,0.2-0.1c0,0,0.1,0,0.1,0c0,0,0.1,0,0.1,0.1c0.2,0.1,0.3,0.1,0.5,0.3s0.3,0.2,0.4,0.3
			c0.1,0.1,0.2,0.3,0.3,0.4c0.1,0.1,0.2,0.3,0.4,0.4c0,0,0.1,0.1,0.1,0.1c0,0,0.1,0.1,0.1,0.1C12,8,12,8.1,12,8.1s0.1,0.2,0.1,0.3
			c0.1,0.3,0.2,0.6,0.3,0.9c0.1,0.3,0.2,0.6,0.3,0.9c0,0.2,0.1,0.4,0.1,0.6c0,0,0,0.1,0,0.2c0-0.3,0-0.5-0.1-0.7
			c-0.1-0.2-0.2-0.4-0.3-0.7c0,0.1,0,0.1,0,0.2c0,0.1,0,0.1,0,0.2c0,0.1,0.1,0.2,0.1,0.3s0,0.2-0.2,0.3c0,0-0.1,0.1-0.1,0.1
			c0,0.1,0,0.1,0,0.2c-0.1,0.4-0.3,0.8-0.5,1.2c-0.2,0.4-0.5,0.7-0.9,0.9c-0.1,0.1-0.2,0.2-0.4,0.2S10.2,13.3,10.1,13.4z M7.7,11.1
			C7.7,11.1,7.7,11.1,7.7,11.1c0.1,0,0.1,0,0.1,0c0,0-0.1-0.1-0.1-0.2c0-0.1-0.1-0.1-0.1-0.1c0,0,0-0.1,0.1-0.1c0,0,0,0,0,0
			c-0.1-0.1-0.1-0.2-0.2-0.4c-0.1-0.1-0.1-0.2-0.2-0.4c0,0-0.1,0-0.2-0.1c0.1,0.2,0.2,0.4,0.3,0.7S7.5,11,7.7,11.1z M7.9,11.5
			C7.9,11.5,7.9,11.5,7.9,11.5C8,11.5,8,11.5,8,11.6c0,0,0,0,0,0s0,0,0,0C8,11.5,8,11.5,7.9,11.5C8,11.5,7.9,11.5,7.9,11.5L7.9,11.5
			C7.9,11.4,7.9,11.5,7.9,11.5z M8.6,12c0.1,0.1,0.2,0.2,0.2,0.2s0.2,0.1,0.4,0.1c-0.1-0.1-0.2-0.2-0.3-0.2C8.8,12.1,8.7,12,8.6,12z
			 M9.8,12.6c0.1,0,0.1,0.1,0.2,0.1c0.1,0,0.1,0,0.2-0.1c0,0-0.1,0-0.2,0C9.9,12.5,9.8,12.5,9.8,12.6z M11.3,7
			c-0.1-0.1-0.2-0.1-0.3-0.1c0,0,0,0,0-0.1c0,0,0,0,0-0.1c0.1,0,0.3,0.1,0.3,0.2c0.1,0.1,0.2,0.3,0.3,0.5c0,0-0.1-0.1-0.1-0.1
			c0,0,0,0,0-0.1c0,0,0,0-0.1-0.1C11.4,7.1,11.4,7.1,11.3,7z M12.6,9C12.6,9,12.6,8.9,12.6,9c0-0.1,0-0.1-0.1-0.2h0c0,0,0,0,0.1,0.1
			L12.6,9C12.6,9,12.6,9,12.6,9z"/>
	</g>
	<g class="st0">
		<path d="M6.7,16.1c0,0-0.1,0-0.2-0.1s-0.2-0.1-0.3-0.3c-0.1-0.1-0.1-0.1-0.2-0.2S6,15.5,5.9,15.5c0,0-0.1-0.1-0.2-0.1
			c-0.1,0-0.1-0.1-0.2-0.2c-0.3-0.2-0.5-0.5-0.6-0.8c-0.1-0.1-0.1-0.3-0.1-0.4c0-0.2,0-0.3,0-0.5c0,0,0-0.1,0-0.1c0,0,0-0.1,0-0.1
			C5,13.2,5,13.1,5.1,13c0.1-0.1,0.1-0.2,0.2-0.2c0,0,0.1-0.1,0.1-0.1c0,0,0.1,0,0.1,0c0.2,0,0.3,0,0.5,0c0.1,0,0.1,0,0.2,0
			c0.1,0,0.2,0,0.3,0c0.1,0,0.2,0.1,0.4,0.1C7,12.9,7.1,13,7.2,13.1C7.2,13.1,7.1,13,7,13c-0.1,0-0.1-0.1-0.2-0.1
			c-0.1,0-0.1,0-0.2-0.1c-0.1,0-0.1,0-0.2,0C6.6,12.9,6.7,13,6.9,13c0.1,0,0.3,0.1,0.4,0.2c0.1,0.1,0.2,0.2,0.3,0.2
			c0.1,0.1,0.2,0.2,0.3,0.2c0,0,0,0.1,0,0.1c0,0,0,0.1,0,0.1c0.1,0.1,0.2,0.3,0.2,0.4s0.1,0.3,0.1,0.5c0,0.2,0,0.3-0.1,0.5
			c0,0,0,0.1,0,0.1c0,0,0,0.1-0.1,0.1c0,0,0,0.1-0.1,0.1c0,0,0,0-0.1,0c-0.1,0.1-0.1,0.2-0.2,0.2s-0.2,0-0.2,0
			c-0.1,0-0.1-0.1-0.2-0.1c-0.1,0-0.1-0.1-0.2-0.1c-0.1-0.1-0.2-0.2-0.3-0.3c-0.1-0.1-0.2-0.2-0.2-0.3c-0.1-0.2-0.2-0.4-0.2-0.6
			c0-0.1,0-0.2,0-0.2c0-0.1,0-0.1,0-0.1c0,0-0.1-0.1-0.1-0.1c0,0-0.1,0-0.2-0.1c-0.1,0-0.2-0.1-0.3-0.1c-0.1,0-0.2-0.1-0.3-0.1
			c0,0-0.1,0-0.1,0s-0.1,0-0.1,0c0,0.1,0,0.2,0,0.2c0,0.1,0.1,0.1,0.1,0.2c0.1,0.1,0.1,0.2,0.2,0.4c0.1,0.1,0.1,0.2,0.2,0.4
			C6,15,6.1,15.2,6.2,15.3s0.3,0.3,0.4,0.5v0c0,0.1,0.1,0.1,0.1,0.1C6.7,16,6.7,16,6.7,16.1C6.8,16.1,6.8,16.1,6.7,16.1z M7.8,14.9
			c-0.2-0.3-0.5-0.5-0.8-0.6c0.1,0.1,0.2,0.3,0.2,0.4s0.2,0.2,0.3,0.3c0,0,0,0,0,0c0,0,0,0,0.1,0C7.7,15,7.8,14.9,7.8,14.9z"/>
		<path d="M6.7,19.3C6.7,19.3,6.7,19.4,6.7,19.3c-0.1,0.1-0.1,0.1-0.2,0.1c0,0-0.1-0.1-0.3-0.2C6,19,5.9,18.9,5.7,18.7
			c-0.2-0.2-0.4-0.4-0.6-0.5c-0.2-0.2-0.3-0.3-0.4-0.4c-0.1-0.1-0.2-0.2-0.2-0.3c-0.1-0.1-0.1-0.1-0.1-0.2c0-0.1-0.1-0.1-0.1-0.2
			c0,0,0-0.1,0-0.1c0,0,0-0.1,0-0.2c0-0.1,0-0.2,0-0.2s0.1-0.1,0.2-0.2c0.2-0.2,0.5-0.4,0.9-0.4c0.2,0,0.4,0,0.6,0s0.4,0.1,0.6,0.1
			c0.3,0.1,0.6,0.2,0.9,0.3c0,0,0.1,0,0.1,0s0.1,0,0.1,0h0c0,0,0-0.1,0-0.1c0,0-0.1,0-0.2-0.1c-0.1,0-0.2,0-0.2-0.1
			c-0.1,0-0.2-0.1-0.3-0.1c0,0,0,0,0,0c0,0,0,0,0.1,0c0,0,0,0,0.1,0s0.1,0,0.1,0c0,0,0,0,0,0c0.1,0,0.1,0,0.2,0c0,0,0.1,0,0.1,0.1h0
			c0,0,0.1,0,0.2,0.1s0.3,0.1,0.4,0.1c0.2,0,0.3,0.1,0.4,0.1c0.1,0,0.2,0.1,0.2,0.1s0,0-0.1,0s-0.2,0-0.2-0.1
			c-0.1,0-0.2-0.1-0.4-0.1c0,0,0,0,0,0c0.1,0,0.1,0.1,0.2,0.1c0.1,0,0.1,0.1,0.2,0.1c0.1,0,0.2,0.1,0.3,0.1c0.1,0,0.2,0.1,0.3,0.2
			c0,0,0,0,0.1,0c0,0,0,0,0.1,0c0,0,0,0,0-0.1c0,0,0,0,0,0c0,0,0,0,0,0c0,0,0,0,0-0.1C9,16.6,9,16.5,9,16.4c0-0.2,0.2-0.3,0.3-0.3
			c0.1,0.1,0.2,0.3,0.2,0.4c0.1,0.1,0.1,0.3,0.1,0.5c0,0.1,0.1,0.2,0.2,0.3c0,0,0,0-0.1,0c0,0,0,0-0.1,0.1c0,0,0,0,0,0.1
			c0,0.1,0.1,0.1,0.1,0.1c0,0,0,0,0.1,0c0,0,0.1,0,0.1,0c0,0,0,0,0,0.1c0,0,0,0,0.1,0.1c0,0,0,0,0.1,0c0,0,0,0-0.1,0
			c0,0-0.1,0-0.1,0c0,0-0.1,0-0.2-0.1c0,0,0,0,0.1,0c0,0,0.1,0,0.2,0c0.1,0,0.1,0,0.2,0c0.1,0,0.1,0,0.1,0c0,0,0.1,0,0.1,0h0
			c0,0,0,0,0,0c0,0,0,0,0.1,0.1c0.1,0,0.2,0.1,0.3,0.1c0.1,0.1,0.2,0.1,0.2,0.1s0.1,0.1,0.1,0.1c0,0,0,0-0.1,0c0,0-0.1,0-0.1-0.1
			c0,0-0.1,0-0.1-0.1c0,0-0.1,0-0.1,0c0,0-0.1,0-0.1,0c0,0,0,0-0.1,0c0,0,0,0-0.1,0c0,0,0,0,0-0.1c0,0-0.1,0-0.2,0c0,0,0,0-0.1,0
			c0,0,0,0.1,0,0.1c0,0,0.1,0,0.1,0c0.1,0.1,0.2,0.1,0.3,0.2c0.1,0.1,0.2,0.1,0.3,0.2c0.1,0.1,0.2,0.1,0.2,0.2c0,0.1,0,0.3,0,0.4
			c0,0.1-0.1,0.3-0.3,0.4c-0.1,0-0.2,0-0.3-0.1c-0.1,0-0.2-0.1-0.3-0.1c-0.1,0-0.2-0.1-0.3-0.2c-0.1-0.1-0.2-0.1-0.3-0.1
			c0,0.1-0.1,0.1,0,0.2c0,0.1,0,0.1,0,0.2c0,0,0,0.1,0,0.1c0,0,0,0.1,0,0.1c0,0,0,0.1-0.1,0.1c0,0-0.1,0-0.1,0c0,0,0,0-0.1,0
			c0,0,0,0,0-0.1c0-0.1-0.1-0.1-0.1-0.2c0-0.1,0-0.1-0.1-0.2c0-0.1-0.1-0.1-0.1-0.2c0-0.1,0-0.2-0.1-0.2c-0.2-0.1-0.4-0.2-0.5-0.2
			S8.4,18,8.2,17.9c-0.2-0.1-0.3-0.2-0.5-0.2c-0.2-0.1-0.4-0.1-0.5-0.2c-0.2-0.1-0.5-0.2-0.7-0.3C6.3,17.1,6,17,5.8,17
			c-0.1,0-0.2,0-0.3-0.1c-0.1,0-0.2,0-0.3,0H5c-0.1,0-0.1,0.1-0.2,0.1c0,0,0,0.1,0,0.1c0,0,0,0.1,0,0.1c0,0,0,0.1,0.1,0.1
			c0,0,0.1,0.1,0.2,0.2c0.1,0.1,0.2,0.2,0.3,0.3c0.1,0.1,0.3,0.3,0.4,0.4c0.1,0.1,0.3,0.3,0.4,0.4s0.2,0.2,0.3,0.3
			S6.7,19.2,6.7,19.3z"/>
		<path d="M6.7,22.4c0,0-0.1,0-0.2-0.1c-0.1-0.1-0.2-0.1-0.3-0.3C6.2,22,6.1,22,6.1,21.9c0-0.1-0.1-0.1-0.2-0.2c0,0-0.1-0.1-0.2-0.1
			c-0.1,0-0.1-0.1-0.2-0.2c-0.3-0.2-0.5-0.5-0.6-0.8c-0.1-0.1-0.1-0.3-0.1-0.4c0-0.2,0-0.3,0-0.5c0,0,0-0.1,0-0.1c0,0,0-0.1,0-0.1
			C5,19.5,5,19.4,5.1,19.3c0.1-0.1,0.1-0.2,0.2-0.2c0,0,0.1-0.1,0.1-0.1c0,0,0.1,0,0.1,0c0.2,0,0.3,0,0.5,0c0.1,0,0.1,0,0.2,0
			c0.1,0,0.2,0,0.3,0c0.1,0,0.2,0.1,0.4,0.1c0.1,0.1,0.2,0.1,0.3,0.2c-0.1,0-0.1-0.1-0.2-0.1c-0.1,0-0.1-0.1-0.2-0.1
			c-0.1,0-0.1,0-0.2-0.1c-0.1,0-0.1,0-0.2,0c0.2,0.1,0.3,0.2,0.4,0.2c0.1,0,0.3,0.1,0.4,0.2c0.1,0.1,0.2,0.2,0.3,0.2
			c0.1,0.1,0.2,0.2,0.3,0.2c0,0,0,0.1,0,0.1c0,0,0,0.1,0,0.1c0.1,0.1,0.2,0.3,0.2,0.4c0,0.2,0.1,0.3,0.1,0.5c0,0.2,0,0.3-0.1,0.5
			c0,0,0,0.1,0,0.1c0,0,0,0.1-0.1,0.1c0,0,0,0.1-0.1,0.1c0,0,0,0-0.1,0C7.9,22,7.9,22,7.8,22s-0.2,0-0.2,0c-0.1,0-0.1-0.1-0.2-0.1
			c-0.1,0-0.1-0.1-0.2-0.1c-0.1-0.1-0.2-0.2-0.3-0.3s-0.2-0.2-0.2-0.3c-0.1-0.2-0.2-0.4-0.2-0.6c0-0.1,0-0.2,0-0.2
			c0-0.1,0-0.1,0-0.1c0,0-0.1-0.1-0.1-0.1c0,0-0.1,0-0.2-0.1c-0.1,0-0.2-0.1-0.3-0.1C5.7,20,5.6,20,5.5,20c0,0-0.1,0-0.1,0
			s-0.1,0-0.1,0c0,0.1,0,0.2,0,0.2c0,0.1,0.1,0.1,0.1,0.2c0.1,0.1,0.1,0.2,0.2,0.4c0.1,0.1,0.1,0.2,0.2,0.4c0.1,0.2,0.2,0.3,0.4,0.5
			s0.3,0.3,0.4,0.5v0c0,0.1,0.1,0.1,0.1,0.1C6.7,22.3,6.7,22.3,6.7,22.4C6.8,22.4,6.8,22.4,6.7,22.4z M7.8,21.1
			c-0.2-0.3-0.5-0.5-0.8-0.6c0.1,0.1,0.2,0.3,0.2,0.4c0.1,0.1,0.2,0.2,0.3,0.3c0,0,0,0,0,0c0,0,0,0,0.1,0
			C7.7,21.2,7.8,21.2,7.8,21.1z"/>
		<path d="M7.7,25.2c0,0-0.1,0-0.1,0s-0.1,0-0.1-0.1c0,0,0-0.1,0-0.1c0,0,0-0.1,0-0.1c0,0,0-0.1,0-0.1c0,0,0-0.1,0-0.1
			c0-0.1,0-0.2-0.1-0.3c-0.1-0.1-0.1-0.2-0.2-0.3C7,24,7,23.9,6.9,23.9s-0.1-0.1-0.2-0.2c-0.2-0.2-0.4-0.3-0.7-0.4
			c-0.2,0-0.3-0.1-0.5-0.2C5.4,23.1,5.2,23.1,5,23c-0.1,0-0.1,0-0.2,0c-0.1,0-0.1,0-0.2-0.1c0,0-0.1,0-0.1-0.1
			c-0.1-0.1-0.1-0.3,0-0.3c0-0.1,0.1-0.2,0.2-0.3c0,0,0.1-0.1,0.2-0.1c0.1,0,0.1,0,0.2-0.1c0.1,0,0.1,0,0.2,0c0.2,0,0.3,0.1,0.5,0.1
			c0.2,0,0.3,0.1,0.5,0.1c0,0,0,0,0,0s0,0,0-0.1c0.2,0.1,0.3,0.1,0.5,0.1c0.1,0,0.3,0.1,0.4,0.2c0.1,0.1,0.3,0.1,0.4,0.2
			s0.3,0.1,0.4,0.2c0,0,0.1,0,0.1,0.1c0,0.1,0.1,0.1,0.1,0.1c0,0,0,0.1,0,0.1c0,0,0,0.1,0,0.1c0,0.1,0,0.1,0,0.2
			c0,0.1,0,0.1-0.1,0.2c0,0,0,0.1-0.1,0.1c-0.1,0-0.1,0-0.2,0.1l0,0c0,0,0,0,0,0c0,0,0,0.1,0,0.1c0,0,0,0.1,0,0.1
			c0,0.1,0.1,0.2,0.1,0.3c0,0.1,0,0.2,0,0.3c0,0.1,0,0.1-0.1,0.2C7.8,25,7.8,25.1,7.7,25.2C7.7,25.1,7.7,25.2,7.7,25.2
			C7.7,25.2,7.7,25.2,7.7,25.2z M5.7,22.1C5.7,22.1,5.7,22.1,5.7,22.1C5.7,22.1,5.7,22.1,5.7,22.1C5.8,22,5.9,22,6,22
			c0.1,0,0.2,0.1,0.4,0.1c-0.1,0-0.3,0-0.4,0C5.9,22.1,5.8,22.1,5.7,22.1z"/>
	</g>
</g>
</svg>
