<?xml version="1.0" encoding="utf-8"?>
<!-- Generator: Adobe Illustrator 27.7.0, SVG Export Plug-In . SVG Version: 6.00 Build 0)  -->
<svg version="1.1" id="Layer_2_00000082358078896890540520000015340368638019291785_"
	 xmlns="http://www.w3.org/2000/svg" xmlns:xlink="http://www.w3.org/1999/xlink" x="0px" y="0px" viewBox="0 0 13.1 43.6"
	 style="enable-background:new 0 0 13.1 43.6;" xml:space="preserve">
<style type="text/css">
	.st0{enable-background:new    ;}
</style>
<g id="Layer_1-2">
	<g class="st0">
		<path d="M4.9,3.9c0,0-0.1,0.1-0.1,0.1c0,0-0.1,0-0.1,0c0,0-0.1-0.1-0.1-0.1S4.5,3.8,4.5,3.8c0-0.2,0-0.4,0.1-0.6
			c0.1-0.3,0.1-0.6,0.1-0.9c0-0.3-0.1-0.6-0.1-0.8c0-0.1,0-0.2-0.1-0.4c0-0.1,0-0.2,0-0.4c0-0.2,0-0.3,0.1-0.4
			c0.1-0.1,0.2-0.2,0.3-0.2C5,0,5.1,0,5.2,0c0.1,0,0.2,0.1,0.3,0.1c0.1,0.1,0.2,0.1,0.3,0.2C6,0.4,6.1,0.5,6.2,0.6
			C6.4,0.8,6.6,1,6.8,1.2C7,1.5,7.2,1.7,7.4,1.9c0,0,0,0,0,0s0,0,0,0c0.2,0,0.3,0.1,0.4,0.2C7.9,2.3,8,2.4,8.1,2.5c0,0,0,0-0.1,0
			c0,0-0.1,0-0.1-0.1c0,0.1,0,0.1,0.1,0.1c0,0,0,0,0.1,0c0,0,0.1,0.1,0.1,0.1c0,0,0.1,0.1,0.2,0.1c0,0,0.1,0,0.1,0
			c0,0,0.1,0.1,0.1,0.1C8.6,3,8.7,3,8.7,3.1C8.8,3.2,8.9,3.2,9,3.3c0.1,0,0.2-0.1,0.2-0.1c0-0.1,0-0.2,0-0.3c0-0.1,0-0.2-0.1-0.2
			c0-0.1-0.1-0.1-0.1-0.2C9,2.3,9,2.2,8.9,2.1C8.9,2,8.8,1.9,8.8,1.7c0-0.1,0-0.2,0-0.3C8.9,1.3,9,1.2,9.1,1.2
			c0,0.1,0.1,0.1,0.1,0.2c0,0.1,0.1,0.1,0.1,0.2C9.5,1.8,9.6,2,9.7,2.2c0.1,0.2,0.2,0.5,0.2,0.7c0.1,0.4,0,0.8-0.3,1
			C9.4,4.1,9.3,4.2,9.1,4.2c-0.2,0-0.4,0-0.6-0.1C8.3,4,8.2,3.9,8.1,3.8C8,3.7,7.9,3.6,7.8,3.5C7.4,3.1,7,2.8,6.6,2.4
			c0,0-0.1-0.1-0.1-0.1c-0.1,0-0.1-0.1-0.1-0.1v0c0,0,0,0,0,0c0,0,0,0,0,0v0c0,0,0,0.1,0,0.1c0,0,0,0.1,0,0.1c0,0,0,0-0.1,0
			c0,0-0.1,0-0.1,0c0,0,0-0.1,0-0.1c0,0,0-0.1,0-0.1C6.3,2.1,6.2,2.1,6.1,2C6,2,5.9,1.9,5.9,1.9C5.9,1.9,5.9,2,6,2
			c0,0.1,0.1,0.1,0.1,0.1C6,2.2,6,2.1,5.9,2.1C5.8,2.1,5.8,2,5.8,1.9l0,0l0,0c-0.1,0-0.1,0-0.2-0.1s-0.2,0-0.2-0.1
			c0,0.1,0,0.2,0,0.3c0,0.1,0,0.2,0,0.2C5.3,2.5,5.2,2.8,5.2,3C5.1,3.3,5,3.5,5,3.8C5,3.8,5,3.8,4.9,3.9C5,3.8,4.9,3.9,4.9,3.9z
			 M7.3,3.4C7.1,3.2,7,3.1,6.9,3C6.8,2.9,6.6,2.8,6.5,2.6c0.1,0,0.3,0.1,0.4,0.2S7.1,3.1,7.3,3.4z M7.4,1.6C7.5,1.6,7.5,1.6,7.4,1.6
			L7.4,1.6C7.5,1.6,7.5,1.6,7.4,1.6C7.4,1.6,7.3,1.5,7.2,1.4C7.1,1.4,7.1,1.3,7.1,1.2c0.1,0.1,0.1,0.2,0.2,0.2
			C7.3,1.5,7.4,1.6,7.4,1.6z M7.7,1.9L7.7,1.9C7.8,1.9,7.7,1.9,7.7,1.9c-0.1,0-0.1-0.1-0.1-0.1c0,0-0.1-0.1-0.1-0.1
			c0,0,0.1,0.1,0.1,0.1S7.7,1.8,7.7,1.9z M7.5,3.6C7.6,3.6,7.6,3.6,7.5,3.6c0.1,0.1,0.1,0.2,0.1,0.2l0,0c0,0-0.1-0.1-0.1-0.1
			C7.5,3.7,7.5,3.6,7.5,3.6C7.5,3.6,7.5,3.6,7.5,3.6C7.5,3.6,7.5,3.6,7.5,3.6z M7.9,2C7.9,2,7.9,2,7.9,2C7.9,2,7.9,2,7.9,2L7.8,1.9
			c0,0,0,0,0.1,0C7.9,2,7.9,2,7.9,2z M9.4,3.2C9.3,3.3,9.3,3.3,9.2,3.3c0,0-0.1,0.1-0.1,0.1c0.1,0,0.1,0.1,0.1,0.1s0.1,0,0.2,0.1
			c0-0.1,0-0.1,0-0.2C9.4,3.4,9.4,3.3,9.4,3.2z"/>
		<path d="M11.2,14.3c0,0,0.1,0.1,0.1,0.1c0.1,0,0.1,0,0.2,0.1c0.1,0,0.1,0,0.1,0s0.1-0.1,0.1-0.1c0-0.3-0.1-0.5-0.3-0.8
			c0,0-0.1,0-0.1,0c0,0-0.1,0-0.1-0.1c0,0,0-0.1-0.1-0.1c0,0,0-0.1-0.1-0.1c-0.2-0.2-0.4-0.4-0.6-0.6c-0.2-0.2-0.4-0.4-0.7-0.6
			c-0.1-0.1-0.1-0.1-0.2-0.2c-0.1-0.1-0.1-0.1-0.2-0.2c-0.1-0.1-0.2-0.1-0.3-0.2c-0.1-0.1-0.2-0.1-0.3-0.2c0.2,0.1,0.4,0.2,0.6,0.3
			c0,0,0.1,0,0.1,0c0,0,0.1,0,0.2,0c0,0-0.1-0.1-0.1-0.1c0,0,0-0.1-0.1-0.1c-0.2-0.1-0.3-0.2-0.5-0.3S8.8,11.1,8.7,11
			c-0.1-0.1-0.2-0.1-0.3-0.2c-0.1-0.1-0.2-0.1-0.4-0.2c-0.4-0.2-0.8-0.4-1.3-0.6c-0.5-0.1-1-0.2-1.5-0.3c0.1,0,0.1-0.1,0.2-0.1
			c0,0,0.1-0.1,0.1-0.1c-0.2,0-0.3-0.1-0.5,0c-0.2,0-0.3,0-0.5,0c0,0,0.1-0.1,0.1-0.1c0,0,0.1,0,0.1,0s0.1,0,0.1,0c0,0,0.1,0,0.1,0
			c-0.1,0-0.1,0-0.2,0c0,0-0.1,0-0.1,0s-0.1,0-0.1,0s-0.1,0-0.2,0.1c0,0.1,0,0.3,0,0.4c0,0.1,0.1,0.2,0.1,0.4
			c0.1,0.3,0.2,0.5,0.4,0.7c0.1,0.2,0.3,0.5,0.4,0.7c0.2,0.2,0.3,0.5,0.5,0.7c0.2,0.2,0.3,0.4,0.5,0.7c0,0,0.1,0.1,0.1,0.1
			c0,0.1,0.1,0.1,0.1,0.1c0.1,0.1,0.1,0.2,0.2,0.2c0.1,0.1,0.1,0.2,0.2,0.2c0.1,0.2,0.3,0.3,0.4,0.5s0.3,0.3,0.4,0.5c0,0,0,0,0,0
			c0,0,0,0,0,0c-0.1,0-0.1,0-0.2,0s-0.1,0-0.1-0.1c-0.1,0-0.1-0.1-0.2-0.1c-0.1,0-0.1-0.1-0.2-0.1c0,0-0.1,0-0.1-0.1c0,0,0,0,0-0.1
			c0,0-0.1-0.1-0.1-0.1c0,0-0.1-0.1-0.1-0.1c-0.4-0.3-0.7-0.7-1-1C5.3,12.8,5,12.4,4.8,12c0-0.1-0.1-0.1-0.1-0.1s-0.1-0.1-0.1-0.1
			C4.3,11.5,4.2,11.2,4,11c-0.1-0.3-0.2-0.5-0.3-0.8c0-0.2,0-0.4,0-0.6S3.9,9.1,4.1,9c0.2-0.2,0.4-0.4,0.7-0.5s0.6-0.2,0.9-0.1
			c0.2,0.1,0.5,0.1,0.7,0.2c0.2,0.1,0.5,0.2,0.7,0.3C7.5,9.1,8,9.3,8.4,9.5s0.8,0.5,1.2,0.8c0.3,0.2,0.5,0.4,0.8,0.6
			c0.2,0.2,0.5,0.4,0.7,0.7c0.2,0.2,0.4,0.4,0.5,0.6s0.3,0.4,0.4,0.7c0.1,0.2,0.2,0.4,0.2,0.5c0,0.2,0.1,0.4,0.1,0.6
			c0,0,0,0.1,0,0.1c0,0,0,0.1-0.1,0.1c0,0.1-0.1,0.2-0.1,0.2c0,0.1-0.1,0.2-0.1,0.2c0,0.1-0.1,0.2-0.2,0.3c-0.1,0.1-0.2,0.1-0.3,0.2
			c-0.1,0-0.2,0-0.3,0c-0.1,0-0.2,0-0.3-0.1c-0.1-0.1-0.2-0.1-0.3-0.2c-0.1-0.1-0.2-0.1-0.2-0.2c-0.1-0.1-0.3-0.2-0.4-0.4
			S9.8,14,9.6,13.9c-0.1-0.1-0.1-0.2-0.2-0.2c-0.1-0.2-0.1-0.3-0.1-0.4c0-0.1,0.2-0.2,0.4-0.3c0.1,0.1,0.2,0.2,0.3,0.3
			c0.1,0.1,0.2,0.2,0.3,0.3c0.2,0.1,0.3,0.3,0.5,0.4S11.1,14.1,11.2,14.3z M6,10c0.1,0,0.2,0,0.4,0.1c0.2,0.1,0.4,0.1,0.6,0.2
			c0.2,0.1,0.4,0.2,0.6,0.3C7.9,10.7,8,10.9,8.2,11c-0.2-0.1-0.3-0.2-0.5-0.3c-0.2-0.1-0.3-0.2-0.5-0.3c-0.2-0.1-0.4-0.2-0.5-0.2
			C6.4,10.2,6.2,10.1,6,10z M8.5,11.1c0.1,0,0.1,0,0.2,0.1c0.1,0,0.1,0.1,0.1,0.1c-0.1,0-0.1-0.1-0.2-0.1
			C8.6,11.2,8.6,11.2,8.5,11.1C8.5,11.2,8.5,11.1,8.5,11.1z M8.9,11.3L8.9,11.3C8.9,11.3,8.9,11.3,8.9,11.3
			C8.9,11.4,8.9,11.4,8.9,11.3C8.9,11.3,8.9,11.3,8.9,11.3z"/>
		<path d="M5.9,15.7c-0.1,0-0.2,0-0.3-0.1c-0.1,0-0.2,0-0.3,0c-0.2,0-0.5-0.1-0.7-0.2c0,0,0-0.1,0-0.2c0-0.1,0.1-0.1,0.1-0.2
			s0.1-0.1,0.1-0.2c0-0.1,0.1-0.1,0.2-0.1c0.1,0,0.1,0,0.2,0c0.1,0,0.1,0,0.2,0c0.2,0,0.4,0.1,0.6,0.1c0.2,0,0.4,0.1,0.6,0.1
			c0.1,0,0.1,0,0.2,0c0.1,0,0.1,0,0.2,0c0.3,0.1,0.6,0.2,0.9,0.2c0.3,0.1,0.6,0.1,1,0.2c0,0,0.1,0,0.1,0c0.1,0,0.1,0,0.2,0
			c0.1,0,0.1,0,0.2,0.1c0.1,0,0.1,0,0.1,0.1l-0.4,0c0.1,0.1,0.2,0.1,0.3,0.1s0.2,0,0.3,0c0,0,0,0,0,0s0,0,0,0c0.1,0,0.2,0.1,0.3,0.1
			c0.1,0,0.2,0.1,0.3,0.1c0,0,0,0,0.1,0c0,0,0.1,0,0.1,0c0.4,0.1,0.7,0.2,1.1,0.3c0.1,0,0.1,0,0.2,0c0,0,0.1,0,0.2,0.1
			c-0.1,0-0.3,0-0.4-0.1s-0.3,0-0.4,0c0.1,0.1,0.1,0.1,0.2,0.1c0,0,0,0,0.1,0c0.2,0,0.4,0,0.5,0.1c0.1,0.1,0.3,0.2,0.5,0.2
			c0.1,0,0.1,0.1,0.1,0.2c0,0.1,0.1,0.2,0.1,0.3c0,0.1,0,0.2,0,0.4c0,0.1,0,0.2,0,0.3c0,0.1-0.1,0.2-0.2,0.1c0,0,0,0-0.1,0
			c0,0-0.1,0-0.1-0.1c-0.3-0.2-0.6-0.4-1-0.5S10.4,17.1,10,17c-0.4-0.1-0.7-0.2-1.1-0.3c-0.3-0.1-0.6-0.2-0.9-0.3c0,0.1,0,0.1,0,0.1
			c0.1,0.1,0.1,0.3,0.1,0.4c0,0.1,0,0.3,0,0.5c0,0,0,0.1,0,0.1s0,0.1,0,0.1c0,0.1-0.1,0.1-0.1,0.2S8,17.9,7.9,17.9c0,0-0.1,0-0.1,0
			s-0.1,0-0.1,0c0,0,0,0,0,0.1c0,0,0,0,0,0.1c-0.1,0-0.1,0-0.2,0s-0.1,0-0.1,0c-0.1,0-0.2-0.1-0.4-0.1c-0.1,0-0.2-0.1-0.4-0.1
			c-0.1,0-0.2-0.1-0.2-0.1c-0.1,0-0.2-0.1-0.2-0.1c-0.1,0-0.1,0-0.2-0.1c-0.1,0-0.1,0-0.2-0.1h0c-0.1,0-0.1,0-0.2-0.1
			c-0.1,0-0.1,0-0.2-0.1c0,0-0.1,0-0.1,0c0,0-0.1,0-0.1,0c0,0,0,0,0,0c0,0,0,0,0,0c0,0,0,0-0.1,0c0,0,0,0-0.1,0c0,0-0.1-0.1-0.1-0.1
			s-0.1,0-0.2,0v0c-0.1,0-0.1,0-0.2,0c0,0,0,0,0,0.1s0,0.1,0,0.2c0,0,0.1,0,0.2,0.1c0.1,0.1,0.2,0.2,0.4,0.3
			c0.1,0.1,0.3,0.2,0.5,0.3c0.2,0.1,0.3,0.2,0.5,0.3c0.1,0.1,0.3,0.2,0.5,0.3c0,0,0,0-0.1,0c-0.1,0-0.1-0.1-0.2-0.1
			c-0.1,0-0.2-0.1-0.3-0.2c0.1,0.1,0.1,0.1,0.2,0.1c0.1,0,0.1,0.1,0.2,0.1c0.1,0,0.1,0.1,0.1,0.1c0,0,0,0.1,0,0.1c0,0,0,0,0,0
			c0,0-0.1,0-0.2-0.1c-0.1-0.1-0.2-0.1-0.4-0.2c-0.2-0.1-0.3-0.2-0.5-0.3c-0.2-0.1-0.4-0.2-0.5-0.3c-0.2-0.1-0.3-0.2-0.4-0.3
			c-0.1-0.1-0.2-0.1-0.2-0.2c-0.1-0.1-0.1-0.2-0.1-0.3c0-0.1,0-0.1,0-0.2c0,0,0,0,0,0c0,0,0,0.1,0,0c0,0,0-0.1,0.1-0.4
			c0-0.1,0.1-0.1,0.1-0.2c0.1-0.1,0.1-0.1,0.2-0.2c0.1-0.1,0.1-0.1,0.2-0.1c0,0,0.1,0,0.1,0c0,0,0,0,0.1,0s0.1,0,0.2,0
			c0.1,0,0.1,0,0.2,0H5.1c0,0-0.1,0-0.1,0c0,0,0,0,0,0l0.3,0.1c0.1,0,0.2,0,0.2,0c0.1,0,0.1,0,0.1,0c0,0,0,0,0,0c0,0-0.1,0-0.1,0
			c0,0-0.1,0-0.1,0c0,0,0,0,0,0c0.1,0,0.1,0,0.2,0c0,0,0.1,0,0.1,0c0,0,0.1,0,0.1,0c0,0,0,0,0,0h0c0.2,0,0.3,0,0.5,0.1
			c0.2,0,0.3,0.1,0.5,0.1c0,0,0.1,0,0.1,0s0.1,0,0.1,0c-0.1-0.1-0.1-0.2-0.2-0.2c-0.1-0.1-0.1-0.1-0.2-0.2c-0.1,0-0.2-0.1-0.2-0.1
			c-0.1-0.1-0.1-0.1-0.2-0.2c-0.1-0.1-0.1-0.1-0.2-0.1S6,15.8,5.9,15.7z"/>
		<path d="M7.7,21.5c0,0-0.1,0-0.1,0s-0.1,0-0.1-0.1c0,0,0-0.1,0-0.1c0,0,0-0.1,0-0.1c0,0,0-0.1,0-0.1s0-0.1,0-0.1
			c0-0.1,0-0.2-0.1-0.3c-0.1-0.1-0.1-0.2-0.2-0.3C7,20.3,7,20.3,6.9,20.2S6.8,20.1,6.8,20c-0.2-0.2-0.4-0.3-0.7-0.4
			c-0.2,0-0.3-0.1-0.5-0.2c-0.2-0.1-0.4-0.1-0.6-0.1c-0.1,0-0.1,0-0.2,0c-0.1,0-0.1,0-0.2-0.1c0,0-0.1,0-0.1-0.1
			c-0.1-0.1-0.1-0.3,0-0.3c0-0.1,0.1-0.2,0.2-0.3c0,0,0.1-0.1,0.2-0.1c0.1,0,0.1,0,0.2-0.1c0.1,0,0.1,0,0.2,0c0.2,0,0.3,0.1,0.5,0.1
			c0.2,0,0.3,0.1,0.5,0.1c0,0,0,0,0,0s0,0,0-0.1c0.2,0.1,0.3,0.1,0.5,0.1c0.1,0,0.3,0.1,0.4,0.2C7.2,18.9,7.4,19,7.5,19
			c0.1,0.1,0.3,0.1,0.4,0.2c0,0,0.1,0,0.1,0.1c0,0.1,0.1,0.1,0.1,0.1c0,0,0,0.1,0,0.1c0,0,0,0.1,0,0.1c0,0.1,0,0.1,0,0.2
			c0,0.1,0,0.1-0.1,0.2c0,0,0,0.1-0.1,0.1c-0.1,0-0.1,0-0.2,0.1l0,0c0,0,0,0,0,0c0,0,0,0.1,0,0.1c0,0,0,0.1,0,0.1
			c0,0.1,0.1,0.2,0.1,0.3c0,0.1,0,0.2,0,0.3c0,0.1,0,0.1-0.1,0.2C7.8,21.3,7.8,21.4,7.7,21.5C7.7,21.5,7.7,21.5,7.7,21.5
			C7.7,21.5,7.7,21.5,7.7,21.5z M5.7,18.5C5.7,18.5,5.7,18.4,5.7,18.5C5.7,18.4,5.7,18.4,5.7,18.5c0-0.1,0.2-0.1,0.3-0.1
			c0.1,0,0.2,0.1,0.4,0.1c-0.1,0-0.3,0-0.4,0C5.9,18.5,5.8,18.5,5.7,18.5z"/>
		<path d="M6.6,25.1L6.6,25.1C6.6,25.2,6.6,25.2,6.6,25.1c-0.1,0.1-0.1,0-0.2-0.2c-0.1-0.1-0.1-0.3-0.1-0.5
			c-0.1-0.1-0.2-0.1-0.3-0.1c-0.2-0.1-0.3-0.2-0.5-0.4c-0.1-0.1-0.1-0.2-0.2-0.2c-0.1-0.1-0.1-0.2-0.2-0.2c-0.1-0.1-0.1-0.2-0.1-0.3
			C5,23.1,5,23,5,22.9c0,0,0-0.1,0-0.1c0,0,0-0.1,0-0.1c0,0,0-0.1,0.1-0.2c0-0.1,0-0.1,0.1-0.2c0,0,0.1-0.1,0.1-0.1
			c0,0,0.1-0.1,0.1-0.1c0-0.1,0.1-0.1,0.2-0.2c0.1-0.1,0.1-0.1,0.2-0.1c0,0,0.1,0,0.1,0s0.1,0,0.1-0.1c0.1-0.1,0.2-0.1,0.3-0.1
			s0.2,0,0.3,0s0.2,0,0.2,0c0.1,0,0.2,0.1,0.3,0.1s0.2,0,0.3,0.1c0.2,0,0.5,0.2,0.7,0.4l0,0c0,0,0,0,0,0c-0.1,0-0.2-0.1-0.3-0.1
			c-0.1-0.1-0.2-0.1-0.3-0.1h0c0,0,0.1,0,0.1,0.1c0.1,0,0.1,0.1,0.2,0.1c0.1,0,0.2,0.1,0.2,0.1s0.1,0.1,0.2,0.1c0,0,0.1,0.1,0.1,0.1
			c0,0,0,0,0,0c0,0-0.1,0-0.1,0s-0.1,0-0.1,0c0,0-0.1,0-0.1-0.1c-0.1,0-0.1,0-0.2,0c0,0,0,0,0,0l0,0c0,0,0.1,0.1,0.1,0.1
			c0.1,0,0.1,0.1,0.1,0.1c0,0-0.1,0-0.1,0s-0.1,0-0.1,0c0.1,0.1,0.2,0.1,0.3,0.2C8.1,23,8.3,23,8.4,23.1c0,0.1,0,0.2,0.1,0.3
			c0,0.1,0.1,0.2,0.1,0.3c0,0.1,0,0.2,0,0.2c0,0.1,0,0.1-0.1,0.2c0,0,0,0.1,0,0.1c-0.1,0.1-0.1,0.2-0.3,0.3
			c-0.1,0.1-0.2,0.1-0.3,0.1c-0.2,0-0.3,0-0.5,0c-0.2,0-0.3,0-0.5,0l-0.2-0.1C6.6,24.8,6.6,25,6.6,25.1z M6.2,23.9
			C6.2,23.9,6.3,23.9,6.2,23.9c0.1,0,0.1,0,0.1,0c0-0.1,0.1-0.1,0.1-0.2s0-0.1,0.1-0.2c0-0.1,0.1-0.1,0.1-0.2c0-0.1,0.1-0.1,0.1-0.2
			c-0.1-0.1-0.1-0.1-0.2-0.2c-0.1,0-0.2,0-0.2-0.1c-0.1,0-0.2-0.1-0.3-0.1c-0.1,0-0.2,0-0.4,0.1c0,0,0,0.1,0.1,0.1c0,0,0,0.1,0,0.1
			c0,0,0.1,0.1,0.1,0.1c0,0,0,0.1,0.1,0.1c0.1,0.1,0.1,0.2,0.2,0.3S6.1,23.8,6.2,23.9z M8.2,23.8c-0.2-0.3-0.4-0.4-0.7-0.5
			c-0.1,0-0.1,0-0.2,0c-0.1,0-0.1,0-0.2,0c-0.1,0-0.1,0-0.2,0c0,0-0.1,0.1-0.1,0.1c-0.1,0.1-0.1,0.2-0.2,0.2c0,0,0,0.1,0,0.1
			c0,0,0,0.1,0,0.1c0,0,0,0.1,0,0.1c0,0.1,0,0.2,0.1,0.2c0.1,0.1,0.3,0.1,0.4,0.1c0.1,0,0.3,0,0.4,0c0,0,0.1,0,0.1,0
			c0,0,0.1,0,0.1,0c0.1,0,0.3-0.1,0.3-0.2C8.3,24,8.3,23.9,8.2,23.8z"/>
		<path d="M8.3,29.1c-0.1,0.1-0.3,0.2-0.4,0.2c-0.1,0-0.3,0-0.5-0.1C7.2,29.1,7,29,6.8,29s-0.4-0.2-0.6-0.3
			c-0.2-0.1-0.3-0.1-0.5-0.2c-0.1,0-0.3-0.1-0.4-0.1c-0.1,0-0.2,0-0.3,0c-0.1,0-0.2,0-0.3-0.1c0,0,0,0-0.1-0.1c0,0,0,0-0.1-0.1
			c0-0.1,0.1-0.2,0.2-0.3c0.1-0.1,0.2-0.1,0.2-0.2c0.1-0.1,0.2-0.1,0.3-0.1c0.2,0,0.5,0,0.7,0s0.5,0.1,0.7,0.2
			c0.1,0,0.3,0.1,0.4,0.1C7.2,28,7.3,28,7.4,28c0-0.1-0.1-0.2-0.2-0.3c-0.1-0.1-0.2-0.2-0.3-0.2c-0.1-0.1-0.2-0.2-0.3-0.3
			s-0.2-0.2-0.3-0.3c0,0-0.1-0.1-0.1-0.1s-0.1-0.1-0.1-0.1c-0.1-0.1-0.2-0.2-0.3-0.3s-0.2-0.2-0.3-0.3c-0.1-0.1-0.1-0.1-0.2-0.2
			c-0.1-0.1-0.1-0.1-0.2-0.2c0,0-0.1-0.1-0.1-0.1c0,0,0-0.1-0.1-0.1c-0.1-0.1-0.1-0.1-0.1-0.2c0-0.1,0-0.2,0-0.2
			c0-0.1,0.1-0.2,0.2-0.2c0.1,0,0.2,0,0.3,0c0.1,0,0.2,0,0.3,0c0.1,0,0.1,0,0.2,0s0.1,0,0.2,0c0.1,0,0.1,0,0.2,0c0.1,0,0.1,0,0.2,0
			c0.1,0,0.1,0,0.2,0c0.1,0,0.1,0,0.1,0.1c0.2,0.1,0.4,0.1,0.6,0.2c0.2,0,0.4,0.1,0.6,0.1c0.1,0,0.2,0,0.3,0.1
			c0.1,0,0.2,0.1,0.3,0.1c-0.1,0-0.1,0-0.2,0s-0.1-0.1-0.2,0c0.1,0.1,0.1,0.1,0.2,0.2c0.1,0.1,0.1,0.1,0.2,0.1c0,0,0,0,0.1,0
			c0.1,0.1,0.2,0.2,0.2,0.3c0,0,0,0.1,0,0.1s0,0.1,0,0.1c0,0.1,0,0.2,0,0.3s-0.1,0.2-0.2,0.2c-0.1,0.1-0.1,0.1-0.3,0.1
			c-0.2-0.1-0.4-0.1-0.6-0.2c-0.2-0.1-0.4-0.2-0.6-0.2c0,0-0.1,0-0.1-0.1c0,0-0.1,0-0.1,0c0,0,0.1,0.1,0.1,0.1s0.1,0.1,0.1,0.1
			c0.1,0.1,0.2,0.1,0.2,0.2s0.1,0.1,0.2,0.2c0.2,0.1,0.3,0.3,0.4,0.5s0.2,0.3,0.4,0.5c0.1,0.2,0.2,0.3,0.2,0.5
			C8.4,28.8,8.4,29,8.3,29.1z M6.3,25c0.1,0,0.2,0.1,0.4,0.1c0.1,0.1,0.2,0.1,0.4,0.1c-0.1,0-0.3-0.1-0.4-0.2C6.5,25,6.4,25,6.3,25z
			 M8,27.5c-0.1-0.1-0.1-0.1-0.2-0.2s-0.1-0.1-0.1-0.2c0.1,0,0.1,0.1,0.2,0.2s0.2,0.2,0.2,0.3s0.1,0.2,0.2,0.4
			c0.1,0.1,0.1,0.2,0.1,0.4c0-0.1-0.1-0.1-0.1-0.2c0-0.1-0.1-0.1-0.1-0.2c0-0.1-0.1-0.1-0.1-0.2S8,27.6,8,27.5z M8,25.8
			c0.1,0,0.1,0,0.1,0s0.1,0,0.1,0c0,0,0,0,0,0s0,0,0,0c0,0-0.1,0-0.1,0S8.1,25.7,8,25.8L8,25.8z"/>
		<path d="M4.9,29.5c0-0.1,0.1-0.1,0.3-0.2s0.3-0.1,0.5-0.1c0,0,0.1,0,0.1,0c0,0,0.1,0,0.1,0c0.1,0,0.3,0.1,0.4,0.1
			c0.1,0,0.2,0.1,0.4,0.1c0.2,0.1,0.4,0.1,0.6,0.2c0.2,0.1,0.4,0.1,0.6,0.2c0,0,0,0,0.1,0c0,0,0,0,0.1,0c0,0.2,0,0.3,0,0.4
			c0,0.1-0.1,0.3-0.2,0.4c0,0-0.1,0-0.1,0s-0.1,0-0.1,0c-0.1,0-0.1,0-0.2,0c-0.1,0-0.1,0-0.2,0c0,0-0.1,0-0.1,0c0,0,0,0,0,0h0
			c0,0,0,0,0,0c0.1,0,0.2,0.1,0.3,0.1c0.1,0,0.1,0,0.2,0.1c0.1,0,0.1,0,0.1,0c0,0,0,0-0.1,0c-0.1,0-0.1,0-0.2-0.1
			c-0.1,0-0.2,0-0.2-0.1c-0.1,0-0.1,0-0.1,0s0,0,0,0c0,0,0.1,0,0.1,0c0,0,0.1,0,0.1,0.1c0,0,0,0,0,0c0,0-0.1,0-0.2-0.1
			s-0.3-0.1-0.4-0.2c-0.2-0.1-0.4-0.2-0.6-0.2c-0.1,0-0.2-0.1-0.3-0.1c-0.1,0-0.2,0-0.2,0s-0.1,0-0.1,0c0,0,0,0,0,0s0,0,0,0
			c0,0,0.1,0,0.1,0c0,0,0.1,0,0.1,0.1H5.4c0,0,0,0.1,0,0.1c0.2,0.3,0.5,0.6,0.8,0.8c0.1,0.1,0.2,0.1,0.2,0.2
			c0.1,0.1,0.1,0.1,0.2,0.2c0,0,0,0,0,0.1s0,0.1,0,0.1c0,0,0,0-0.1,0s-0.1,0-0.2-0.1c-0.1,0-0.1-0.1-0.2-0.1c-0.1,0-0.1,0-0.1-0.1
			c0,0-0.1-0.1-0.2-0.2c-0.1-0.1-0.2-0.2-0.3-0.3c-0.1-0.1-0.3-0.3-0.5-0.4L5,30.5c0-0.1-0.1-0.1-0.1-0.2c0-0.1-0.1-0.1-0.1-0.1
			c0-0.1,0-0.2,0-0.3C4.8,29.7,4.8,29.6,4.9,29.5z M8.8,30.1c0,0.1,0,0.1,0,0.2c0,0,0,0.1,0,0.1c0,0.2,0,0.3-0.1,0.4
			c-0.1,0.1-0.1,0.1-0.2,0.1c-0.1,0-0.2-0.1-0.3-0.2c-0.1-0.1-0.1-0.2,0-0.3c0-0.1,0-0.2,0.1-0.3c0-0.1,0-0.1,0.1-0.2s0.1,0,0.2,0
			C8.6,30,8.7,30,8.8,30.1z"/>
		<path d="M7.6,32.1C7.6,32.1,7.6,32.1,7.6,32.1c-0.1,0-0.2,0-0.2,0c0,0,0,0,0,0c0,0,0,0,0,0c0.2,0.1,0.4,0.3,0.5,0.5
			c0,0,0.1,0.1,0.1,0.1c0,0,0.1,0.1,0.1,0.1C8.3,32.9,8.3,33,8.3,33c0,0,0,0.1,0,0.1c0,0.2,0.1,0.3,0.1,0.5c0,0-0.1-0.1-0.1-0.1
			c0,0-0.1-0.1-0.1-0.1c-0.1,0-0.1,0.1,0,0.1c0,0,0,0.1,0,0.1c0,0,0,0.1,0,0.1c0,0,0,0.1-0.1,0c0,0,0,0,0,0.1c0,0,0,0,0,0.1
			c0,0.1,0,0.2-0.1,0.3C8,34.4,8,34.5,8,34.6c0,0.1-0.1,0.1-0.1,0.2s-0.1,0.1-0.2,0.1c0,0-0.1,0-0.1,0c-0.1,0-0.1-0.1-0.1-0.1
			c0-0.1-0.1-0.1-0.1-0.2c0-0.1,0-0.1,0.1-0.2c0-0.1,0.1-0.1,0.1-0.1c0,0,0.1-0.1,0.1-0.1c0-0.1,0-0.2-0.1-0.3
			c-0.1-0.1-0.1-0.2-0.2-0.3c-0.2-0.2-0.3-0.3-0.5-0.5c-0.2-0.2-0.4-0.3-0.6-0.4c-0.1-0.1-0.2-0.1-0.3-0.2c-0.1,0-0.2-0.1-0.3-0.1
			c0,0-0.1,0-0.1,0c-0.1,0-0.1,0-0.2,0c-0.1,0-0.1,0-0.2,0.1c0,0.1,0,0.1,0,0.2c0,0.1,0,0.1,0.1,0.2c0.1,0.2,0.2,0.3,0.3,0.5
			c0.1,0.2,0.3,0.4,0.4,0.6c0.1,0.2,0.3,0.4,0.4,0.6c0.1,0.1,0.2,0.2,0.2,0.4c0.1,0.1,0.2,0.2,0.2,0.4c0,0,0,0,0,0.1s0,0.1,0,0.1
			c0,0,0,0.1,0,0.1c0,0,0,0,0,0c0,0,0,0,0,0c0,0,0,0,0,0c-0.2-0.1-0.3-0.3-0.4-0.4C6.1,35,6,34.9,5.9,34.8c-0.1-0.1-0.3-0.2-0.4-0.4
			c-0.1-0.1-0.2-0.3-0.3-0.4C5,33.8,5,33.7,4.9,33.6c-0.1-0.1-0.1-0.2-0.2-0.3c0,0-0.1-0.1-0.1-0.1s0-0.1,0-0.1c0-0.2,0-0.3,0-0.5
			c0-0.1,0.1-0.3,0.2-0.4C4.8,32,4.9,32,5,31.9c0.1-0.1,0.2-0.1,0.3-0.2c0.2-0.1,0.4-0.1,0.6-0.1c0,0,0,0,0.1,0c0,0,0,0,0.1,0
			c0.2,0,0.3,0,0.5,0s0.3,0.1,0.5,0.2c0.1,0,0.2,0.1,0.3,0.1C7.4,31.9,7.5,32,7.6,32.1z"/>
		<path d="M12.4,38.8c-0.1,0.1-0.1,0.1-0.3,0c0,0-0.1,0-0.1,0c-0.2-0.1-0.3-0.2-0.5-0.3s-0.4-0.2-0.5-0.3c-0.1,0-0.1-0.1-0.2-0.1
			c-0.1,0-0.1-0.1-0.2-0.1c-0.5-0.2-1-0.5-1.5-0.7c-0.2-0.1-0.3-0.1-0.5-0.2C8.5,37.1,8.4,37,8.2,37c-0.2-0.1-0.4-0.2-0.6-0.2
			c-0.2-0.1-0.4-0.1-0.6-0.2c-0.1,0-0.1,0-0.2,0c0,0-0.1,0-0.1,0c0,0-0.1,0-0.1,0c-0.1,0-0.2-0.1-0.3-0.1c-0.1,0-0.2-0.1-0.3-0.1
			c-0.1,0-0.2-0.1-0.2-0.1c-0.1,0-0.1,0-0.2,0s-0.1,0-0.1,0c0,0,0,0.1,0.2,0.2c0.1,0.1,0.2,0.2,0.3,0.4c0.1,0.1,0.3,0.3,0.5,0.5
			c0,0,0,0.1,0.1,0.1c0,0,0.1,0.1,0.1,0.1c0,0,0,0-0.1,0c-0.1,0-0.1,0-0.1,0c0,0-0.1-0.1-0.3-0.2s-0.3-0.3-0.5-0.4
			c-0.2-0.1-0.4-0.3-0.6-0.4s-0.3-0.2-0.3-0.3c-0.1-0.2-0.2-0.3-0.3-0.5c0-0.1,0-0.2,0-0.3c0,0,0-0.1,0.1-0.1c0,0,0-0.1,0.1-0.1
			c0.1-0.1,0.2-0.2,0.3-0.2c0.1,0,0.1,0,0.1,0s0.1,0,0.1,0c0.2,0,0.3,0.1,0.5,0.1c0.2,0,0.3,0.1,0.5,0.1c0.1,0,0.1,0,0.2,0
			c0.1,0,0.1,0,0.2,0c0,0,0.1,0,0.1,0c0,0,0.1,0,0.2,0s0.1,0,0.2,0c0,0,0.1,0,0.2,0c0.1,0,0.2,0.1,0.3,0.1c0.1,0,0.2,0.1,0.3,0.1
			c0.1,0,0.2,0.1,0.2,0.1c0,0-0.1,0-0.2,0c-0.1,0-0.2,0-0.3-0.1c-0.1,0-0.2-0.1-0.3-0.1s-0.2,0-0.2,0c0,0,0,0.1,0,0.1c0,0,0,0,0.1,0
			c0.2,0.1,0.5,0.2,0.7,0.2c0.2,0.1,0.5,0.1,0.7,0.2c0.1,0,0.1,0,0.2,0c0.1,0,0.1,0,0.2,0c0,0,0,0,0,0s0,0,0,0c0.1,0,0.2,0,0.2,0
			c0.1,0,0.1,0.1,0.2,0.1c0.1,0,0.2,0.1,0.3,0.1c0.1,0,0.2,0.1,0.3,0.1c-0.1,0-0.3,0-0.4-0.1c-0.1-0.1-0.3-0.1-0.5-0.1
			c0.1,0.1,0.2,0.1,0.3,0.1c0.1,0,0.2,0.1,0.3,0.1c0.2,0.1,0.3,0.2,0.5,0.2c0.2,0.1,0.4,0.1,0.6,0.2c0.1,0,0.2,0.1,0.3,0.1
			c0.1,0,0.2,0.1,0.3,0.1c0.2,0.1,0.3,0.1,0.4,0.3c0,0,0.1,0,0.1,0.1c0,0,0.1,0,0.1,0.1c0.2,0.1,0.3,0.2,0.3,0.5c0,0.1,0,0.2,0,0.3
			c0,0.1,0,0.2,0,0.3C12.5,38.6,12.5,38.7,12.4,38.8z"/>
		<path d="M6.7,40.8c0,0-0.1,0-0.2-0.1c-0.1-0.1-0.2-0.1-0.3-0.3c-0.1-0.1-0.1-0.1-0.2-0.2c0-0.1-0.1-0.1-0.2-0.2
			c0,0-0.1-0.1-0.2-0.1c-0.1,0-0.1-0.1-0.2-0.1c-0.3-0.2-0.5-0.5-0.6-0.8c-0.1-0.1-0.1-0.3-0.1-0.4c0-0.2,0-0.3,0-0.5
			c0,0,0-0.1,0-0.1c0,0,0-0.1,0-0.1C5,37.9,5,37.8,5.1,37.7c0.1-0.1,0.1-0.2,0.2-0.2c0,0,0.1-0.1,0.1-0.1s0.1,0,0.1,0
			c0.2,0,0.3,0,0.5,0c0.1,0,0.1,0,0.2,0c0.1,0,0.2,0,0.3,0c0.1,0,0.2,0.1,0.4,0.1c0.1,0.1,0.2,0.1,0.3,0.2c-0.1,0-0.1-0.1-0.2-0.1
			c-0.1,0-0.1-0.1-0.2-0.1c-0.1,0-0.1,0-0.2-0.1c-0.1,0-0.1,0-0.2,0c0.2,0.1,0.3,0.2,0.4,0.2c0.1,0,0.3,0.1,0.4,0.2
			c0.1,0.1,0.2,0.2,0.3,0.2s0.2,0.2,0.3,0.2c0,0,0,0.1,0,0.1c0,0,0,0.1,0,0.1c0.1,0.1,0.2,0.3,0.2,0.4s0.1,0.3,0.1,0.5
			c0,0.2,0,0.3-0.1,0.5c0,0,0,0.1,0,0.1c0,0,0,0.1-0.1,0.1c0,0,0,0.1-0.1,0.1c0,0,0,0-0.1,0c-0.1,0.1-0.1,0.2-0.2,0.2s-0.2,0-0.2,0
			c-0.1,0-0.1-0.1-0.2-0.1c-0.1,0-0.1-0.1-0.2-0.1C7.1,40.1,7,40,6.9,39.9c-0.1-0.1-0.2-0.2-0.2-0.3c-0.1-0.2-0.2-0.4-0.2-0.6
			c0-0.1,0-0.2,0-0.2c0-0.1,0-0.1,0-0.1c0,0-0.1-0.1-0.1-0.1c0,0-0.1,0-0.2-0.1c-0.1,0-0.2-0.1-0.3-0.1c-0.1,0-0.2-0.1-0.3-0.1
			c0,0-0.1,0-0.1,0s-0.1,0-0.1,0c0,0.1,0,0.2,0,0.2c0,0.1,0.1,0.1,0.1,0.2c0.1,0.1,0.1,0.2,0.2,0.4c0.1,0.1,0.1,0.2,0.2,0.4
			C6,39.7,6.1,39.9,6.2,40s0.3,0.3,0.4,0.5v0c0,0.1,0.1,0.1,0.1,0.1C6.7,40.7,6.7,40.7,6.7,40.8C6.8,40.8,6.8,40.8,6.7,40.8z
			 M7.8,39.6C7.6,39.3,7.4,39.1,7,39c0.1,0.1,0.2,0.3,0.2,0.4c0.1,0.1,0.2,0.2,0.3,0.3c0,0,0,0,0,0c0,0,0,0,0.1,0
			C7.7,39.7,7.8,39.6,7.8,39.6z"/>
		<path d="M5.7,42.9c0,0.1,0,0.1,0,0.1c0,0,0,0.1-0.1,0c0,0-0.1,0-0.1,0c0,0,0,0-0.1,0c-0.1,0-0.2,0-0.3-0.1c0,0,0,0,0,0
			c0,0,0,0,0,0.1C5,43,4.9,42.9,4.7,42.8c-0.2-0.1-0.3-0.1-0.4-0.2c0,0-0.1,0-0.1-0.1c0,0,0-0.1-0.1-0.1c0,0,0-0.1,0-0.1
			c0,0,0,0,0-0.1c-0.1-0.1-0.2-0.1-0.2-0.2c0,0-0.1-0.1-0.1-0.2c0-0.1-0.1-0.1-0.1-0.2c0,0,0-0.1-0.1-0.1c0,0-0.1-0.1-0.1-0.1
			c0,0-0.1-0.1-0.1-0.1s0-0.1,0-0.2c0,0,0,0,0-0.1c0,0,0-0.1,0-0.1c0-0.1-0.1-0.2,0-0.2c0,0,0.1,0,0.1,0.1c0,0,0,0.1,0,0.1
			c0,0,0,0.1,0.1,0.1c0,0,0,0.1,0.1,0.1c0,0,0,0.1,0.1,0.1c0,0,0.1,0.1,0.1,0.1c0,0,0-0.1,0-0.1c0,0,0,0,0-0.1
			c-0.1-0.1-0.1-0.2-0.2-0.3c0-0.1-0.1-0.2-0.1-0.3c-0.1-0.2-0.1-0.4-0.1-0.6s0.1-0.3,0.2-0.5c0-0.1,0.1-0.1,0.2-0.2
			c0.1-0.1,0.1-0.1,0.2-0.2h0.1c0.2,0,0.3,0,0.5,0.1c0.1,0.1,0.3,0.2,0.4,0.3c0.2,0.2,0.4,0.4,0.6,0.6c0.2,0.2,0.3,0.5,0.5,0.7
			c0,0.1,0,0.1,0.1,0.2c0,0,0,0.1,0,0.1c0,0.1,0,0.1-0.1,0.1c-0.1,0-0.2,0-0.3,0c-0.1-0.1-0.2-0.1-0.2-0.2S5.1,41.1,5,41
			c-0.2-0.2-0.3-0.3-0.5-0.4S4.2,40.4,4,40.3c0,0-0.1,0-0.1,0c0,0-0.1,0-0.1,0c0,0.1,0.1,0.2,0.1,0.3c0,0.1,0.1,0.2,0.2,0.3
			c0,0,0,0,0.1,0.1c0,0,0,0.1,0.1,0.1c0.2,0.2,0.3,0.4,0.5,0.5c0.2,0.1,0.4,0.2,0.6,0.3c0.1,0,0.2,0.1,0.2,0.1c0.1,0,0.2,0,0.2,0
			c0,0,0.1,0,0.1,0c0,0,0.1,0,0.1,0c0.1-0.1,0.1-0.1,0.1-0.2c0,0,0-0.1,0-0.1s0-0.1,0-0.1c0-0.1,0-0.2,0.1-0.4
			c0-0.1,0.1-0.2,0.2-0.3c0.1-0.2,0.2-0.2,0.3-0.3c0.1,0,0.2,0,0.3,0c0.1,0,0.2,0.1,0.3,0.2s0.2,0.1,0.3,0.2c0,0,0,0,0,0
			c0,0-0.1,0-0.1,0c0,0,0,0-0.1,0c0,0,0.1,0.1,0.1,0.1c0,0,0.1,0.1,0.1,0.1c0.1,0.1,0.2,0.1,0.3,0.2c0.1,0.1,0.1,0.2,0.2,0.3
			c0.1,0.1,0.1,0.3,0.2,0.4c0,0,0,0.1,0,0.1s0,0.1,0,0.1c0.1,0.3,0,0.5-0.1,0.7c0,0,0,0,0,0s0,0,0,0c0,0-0.1,0-0.1,0.1
			c0,0-0.1,0-0.1,0.1c-0.2,0-0.3-0.1-0.5-0.2c-0.1-0.1-0.3-0.3-0.4-0.4C7.1,42.5,7,42.4,7,42.3c0-0.1,0-0.1,0-0.2c0,0,0-0.1,0.1-0.2
			c0,0,0.1,0,0.1,0s0,0,0.1,0.1c0,0.1,0.1,0.1,0.2,0.2c0.1,0.1,0.1,0.1,0.2,0.2c0.1,0.1,0.2,0.1,0.3,0.2c0,0,0,0,0.1,0s0,0,0.1,0
			c0,0,0-0.1,0-0.1c0-0.1-0.1-0.1-0.1-0.2c0,0,0-0.1-0.1-0.1c-0.1-0.2-0.3-0.3-0.4-0.4c-0.1-0.1-0.3-0.3-0.5-0.3c0,0-0.1,0-0.1,0
			s-0.1,0-0.1,0c0,0,0,0.1,0,0.2c0,0.1,0,0.1,0,0.2c0,0.4-0.2,0.7-0.3,0.9C6.1,42.8,5.9,42.9,5.7,42.9z"/>
	</g>
</g>
</svg>
