<?xml version="1.0" encoding="utf-8"?>
<!-- Generator: Adobe Illustrator 27.7.0, SVG Export Plug-In . SVG Version: 6.00 Build 0)  -->
<svg version="1.1" id="Layer_2_00000117671108585141107860000014324139286799169458_"
	 xmlns="http://www.w3.org/2000/svg" xmlns:xlink="http://www.w3.org/1999/xlink" x="0px" y="0px" viewBox="0 0 13.1 27.4"
	 style="enable-background:new 0 0 13.1 27.4;" xml:space="preserve">
<style type="text/css">
	.st0{enable-background:new    ;}
</style>
<g id="Layer_1-2">
	<g class="st0">
		<path d="M4.9,3.9c0,0-0.1,0.1-0.1,0.1c0,0-0.1,0-0.1,0c0,0-0.1-0.1-0.1-0.1S4.5,3.8,4.5,3.8c0-0.2,0-0.4,0.1-0.6
			c0.1-0.3,0.1-0.6,0.1-0.9c0-0.3-0.1-0.6-0.1-0.8c0-0.1,0-0.2-0.1-0.4c0-0.1,0-0.2,0-0.4c0-0.2,0-0.3,0.1-0.4
			c0.1-0.1,0.2-0.2,0.3-0.2C5,0,5.1,0,5.2,0c0.1,0,0.2,0.1,0.3,0.1c0.1,0.1,0.2,0.1,0.3,0.2C6,0.4,6.1,0.5,6.2,0.6
			C6.4,0.8,6.6,1,6.8,1.2C7,1.5,7.2,1.7,7.4,1.9c0,0,0,0,0,0s0,0,0,0c0.2,0,0.3,0.1,0.4,0.2C7.9,2.3,8,2.4,8.1,2.5c0,0,0,0-0.1,0
			c0,0-0.1,0-0.1-0.1c0,0.1,0,0.1,0.1,0.1c0,0,0,0,0.1,0c0,0,0.1,0.1,0.1,0.1c0,0,0.1,0.1,0.2,0.1c0,0,0.1,0,0.1,0
			c0,0,0.1,0.1,0.1,0.1C8.6,3,8.7,3,8.7,3.1C8.8,3.2,8.9,3.2,9,3.3c0.1,0,0.2-0.1,0.2-0.1c0-0.1,0-0.2,0-0.3c0-0.1,0-0.2-0.1-0.2
			c0-0.1-0.1-0.1-0.1-0.2C9,2.3,9,2.2,8.9,2.1C8.9,2,8.8,1.9,8.8,1.7c0-0.1,0-0.2,0-0.3C8.9,1.3,9,1.2,9.1,1.2
			c0,0.1,0.1,0.1,0.1,0.2c0,0.1,0.1,0.1,0.1,0.2C9.5,1.8,9.6,2,9.7,2.2c0.1,0.2,0.2,0.5,0.2,0.7c0.1,0.4,0,0.8-0.3,1
			C9.4,4.1,9.3,4.2,9.1,4.2c-0.2,0-0.4,0-0.6-0.1C8.3,4,8.2,3.9,8.1,3.8C8,3.7,7.9,3.6,7.8,3.5C7.4,3.1,7,2.8,6.6,2.4
			c0,0-0.1-0.1-0.1-0.1c-0.1,0-0.1-0.1-0.1-0.1v0c0,0,0,0,0,0c0,0,0,0,0,0v0c0,0,0,0.1,0,0.1c0,0,0,0.1,0,0.1c0,0,0,0-0.1,0
			c0,0-0.1,0-0.1,0c0,0,0-0.1,0-0.1c0,0,0-0.1,0-0.1C6.3,2.1,6.2,2.1,6.1,2C6,2,5.9,1.9,5.9,1.9C5.9,1.9,5.9,2,6,2
			c0,0.1,0.1,0.1,0.1,0.1C6,2.2,6,2.1,5.9,2.1C5.8,2.1,5.8,2,5.8,1.9l0,0l0,0c-0.1,0-0.1,0-0.2-0.1s-0.2,0-0.2-0.1
			c0,0.1,0,0.2,0,0.3c0,0.1,0,0.2,0,0.2C5.3,2.5,5.2,2.8,5.2,3C5.1,3.3,5,3.5,5,3.8C5,3.8,5,3.8,4.9,3.9C5,3.8,4.9,3.9,4.9,3.9z
			 M7.3,3.4C7.1,3.2,7,3.1,6.9,3C6.8,2.9,6.6,2.8,6.5,2.6c0.1,0,0.3,0.1,0.4,0.2S7.1,3.1,7.3,3.4z M7.4,1.6C7.5,1.6,7.5,1.6,7.4,1.6
			L7.4,1.6C7.5,1.6,7.5,1.6,7.4,1.6C7.4,1.6,7.3,1.5,7.2,1.4C7.1,1.4,7.1,1.3,7.1,1.2c0.1,0.1,0.1,0.2,0.2,0.2
			C7.3,1.5,7.4,1.6,7.4,1.6z M7.7,1.9L7.7,1.9C7.8,1.9,7.7,1.9,7.7,1.9c-0.1,0-0.1-0.1-0.1-0.1c0,0-0.1-0.1-0.1-0.1
			c0,0,0.1,0.1,0.1,0.1S7.7,1.8,7.7,1.9z M7.5,3.6C7.6,3.6,7.6,3.6,7.5,3.6c0.1,0.1,0.1,0.2,0.1,0.2l0,0c0,0-0.1-0.1-0.1-0.1
			C7.5,3.7,7.5,3.6,7.5,3.6C7.5,3.6,7.5,3.6,7.5,3.6C7.5,3.6,7.5,3.6,7.5,3.6z M7.9,2C7.9,2,7.9,2,7.9,2C7.9,2,7.9,2,7.9,2L7.8,1.9
			c0,0,0,0,0.1,0C7.9,2,7.9,2,7.9,2z M9.4,3.2C9.3,3.3,9.3,3.3,9.2,3.3c0,0-0.1,0.1-0.1,0.1c0.1,0,0.1,0.1,0.1,0.1s0.1,0,0.2,0.1
			c0-0.1,0-0.1,0-0.2C9.4,3.4,9.4,3.3,9.4,3.2z"/>
	</g>
	<g class="st0">
		<path d="M10.1,15.4c-0.3,0.1-0.6,0.1-0.8,0.1c-0.3-0.1-0.5-0.1-0.8-0.3c-0.3-0.2-0.6-0.4-0.8-0.7c-0.2-0.3-0.5-0.6-0.6-0.9
			c-0.2-0.4-0.4-0.8-0.5-1.2c-0.1-0.4-0.2-0.8-0.2-1.3c0-0.2,0-0.4,0-0.6c0-0.2,0.1-0.4,0.2-0.6c0-0.1,0.1-0.1,0.1-0.1
			c0,0,0-0.1,0.1-0.1C6.4,9.5,6.2,9.5,6.1,9.4c-0.3-0.1-0.7-0.2-1-0.3c-0.3-0.1-0.7-0.1-1-0.1H4C3.8,9,3.7,8.9,3.9,8.7
			C4,8.6,4.1,8.5,4.2,8.5c0.2-0.1,0.4-0.1,0.6-0.1c0.2,0,0.4,0,0.7,0c0.3,0,0.5,0.1,0.8,0.2C6.5,8.6,6.8,8.6,7,8.7
			C7.4,8.8,7.7,8.9,8,9C8.3,9.1,8.6,9.3,9,9.4c0.2,0.1,0.3,0.2,0.5,0.2c0.2,0.1,0.3,0.2,0.5,0.2l0,0c0.2,0.1,0.2,0.2,0.3,0.3
			c0,0.1,0,0.2-0.1,0.3c-0.1,0.1-0.2,0.2-0.3,0.3c-0.1,0.1-0.3,0.1-0.4,0c-0.1,0-0.1-0.1-0.2-0.1c-0.1,0-0.1-0.1-0.2-0.1
			c0,0.1,0,0.2,0,0.3s0,0.2,0,0.3C9,11.1,9,11,8.9,11c0-0.1-0.1-0.2-0.1-0.2c-0.1-0.1-0.1-0.2-0.2-0.3s-0.2-0.1-0.3-0.2
			c-0.1-0.1-0.3-0.2-0.4-0.2C7.7,10,7.5,9.9,7.4,9.8C7.2,9.8,7.1,9.8,7,9.8C6.9,9.9,6.9,10,6.9,10.2c0,0.2,0,0.5,0,0.7
			c0,0.2,0.1,0.5,0.1,0.7c0,0.1,0.1,0.1,0.1,0.2c0,0,0.1,0.1,0.1,0.1c0,0,0,0.1,0.1,0.1c0,0,0-0.1,0-0.1s0-0.1,0-0.1s0-0.1,0-0.1
			c0,0,0-0.1,0-0.1c0,0,0-0.1,0-0.1c0,0,0,0,0-0.1c0.1,0.3,0.2,0.5,0.3,0.7s0.2,0.5,0.4,0.7c0.1,0.1,0.2,0.3,0.3,0.4
			c0.1,0.1,0.3,0.3,0.4,0.3c0.1,0.1,0.2,0.1,0.3,0.2c0.1,0.1,0.2,0.2,0.3,0.2c0.4,0.2,0.8,0.3,1.2,0.3c0,0,0.1,0,0.1,0s0.1,0,0.1,0
			s0.1,0,0.1-0.1c0,0,0.1,0,0.1,0c0,0,0,0,0.1,0c0,0,0,0,0.1,0c0.1-0.1,0.2-0.2,0.2-0.3c0.1-0.1,0.1-0.2,0.2-0.3
			c0.1-0.2,0.1-0.5,0.1-0.7c0-0.2,0-0.5,0-0.7c0-0.3-0.1-0.6-0.2-0.8s-0.2-0.5-0.3-0.8c0-0.1-0.1-0.2-0.1-0.2c0-0.1-0.1-0.2-0.2-0.2
			c-0.1-0.1-0.2-0.2-0.4-0.4s-0.2-0.3-0.3-0.4C9.9,9.2,9.7,9,9.4,8.9C9.3,8.8,9.3,8.8,9.3,8.7c0-0.1,0.1-0.2,0.2-0.2
			c0.1,0,0.1-0.1,0.2-0.1s0.2-0.1,0.2-0.1c0,0,0.1,0,0.1,0c0,0,0.1,0,0.1,0.1c0.2,0.1,0.3,0.1,0.5,0.3s0.3,0.2,0.4,0.3
			c0.1,0.1,0.2,0.3,0.3,0.4c0.1,0.1,0.2,0.3,0.4,0.4c0,0,0.1,0.1,0.1,0.1c0,0,0.1,0.1,0.1,0.1C12,10,12,10,12,10.1s0.1,0.2,0.1,0.3
			c0.1,0.3,0.2,0.6,0.3,0.9c0.1,0.3,0.2,0.6,0.3,0.9c0,0.2,0.1,0.4,0.1,0.6c0,0,0,0.1,0,0.2c0-0.3,0-0.5-0.1-0.7
			c-0.1-0.2-0.2-0.4-0.3-0.7c0,0.1,0,0.1,0,0.2c0,0.1,0,0.1,0,0.2c0,0.1,0.1,0.2,0.1,0.3s0,0.2-0.2,0.3c0,0-0.1,0.1-0.1,0.1
			c0,0.1,0,0.1,0,0.2c-0.1,0.4-0.3,0.8-0.5,1.2c-0.2,0.4-0.5,0.7-0.9,0.9c-0.1,0.1-0.2,0.2-0.4,0.2S10.2,15.3,10.1,15.4z M7.7,13.1
			C7.7,13.1,7.7,13.1,7.7,13.1c0.1,0,0.1,0,0.1,0c0,0-0.1-0.1-0.1-0.2c0-0.1-0.1-0.1-0.1-0.1c0,0,0-0.1,0.1-0.1c0,0,0,0,0,0
			c-0.1-0.1-0.1-0.2-0.2-0.4c-0.1-0.1-0.1-0.2-0.2-0.4c0,0-0.1,0-0.2-0.1c0.1,0.2,0.2,0.4,0.3,0.7S7.5,12.9,7.7,13.1z M7.9,13.4
			C7.9,13.5,7.9,13.5,7.9,13.4C8,13.5,8,13.5,8,13.6c0,0,0,0,0,0s0,0,0,0C8,13.5,8,13.5,7.9,13.4C8,13.5,7.9,13.4,7.9,13.4L7.9,13.4
			C7.9,13.4,7.9,13.4,7.9,13.4z M8.6,14c0.1,0.1,0.2,0.2,0.2,0.2s0.2,0.1,0.4,0.1c-0.1-0.1-0.2-0.2-0.3-0.2C8.8,14,8.7,14,8.6,14z
			 M9.8,14.6c0.1,0,0.1,0.1,0.2,0.1c0.1,0,0.1,0,0.2-0.1c0,0-0.1,0-0.2,0C9.9,14.5,9.8,14.5,9.8,14.6z M11.3,9
			c-0.1-0.1-0.2-0.1-0.3-0.1c0,0,0,0,0-0.1c0,0,0,0,0-0.1c0.1,0,0.3,0.1,0.3,0.2c0.1,0.1,0.2,0.3,0.3,0.5c0,0-0.1-0.1-0.1-0.1
			c0,0,0,0,0-0.1c0,0,0,0-0.1-0.1C11.4,9.1,11.4,9,11.3,9z M12.6,11C12.6,11,12.6,10.9,12.6,11c0-0.1,0-0.1-0.1-0.2h0
			c0,0,0,0,0.1,0.1L12.6,11C12.6,11,12.6,11,12.6,11z"/>
	</g>
	<g class="st0">
		<path d="M6.7,18.1c0,0-0.1,0-0.2-0.1c-0.1-0.1-0.2-0.1-0.3-0.3c-0.1-0.1-0.1-0.1-0.2-0.2c0-0.1-0.1-0.1-0.2-0.2
			c0,0-0.1-0.1-0.2-0.1c-0.1,0-0.1-0.1-0.2-0.1c-0.3-0.2-0.5-0.5-0.6-0.8c-0.1-0.1-0.1-0.3-0.1-0.4c0-0.2,0-0.3,0-0.5
			c0,0,0-0.1,0-0.1c0,0,0-0.1,0-0.1C5,15.2,5,15.1,5.1,15c0.1-0.1,0.1-0.2,0.2-0.2c0,0,0.1-0.1,0.1-0.1c0,0,0.1,0,0.1,0
			c0.2,0,0.3,0,0.5,0c0.1,0,0.1,0,0.2,0c0.1,0,0.2,0,0.3,0c0.1,0,0.2,0.1,0.4,0.1s0.2,0.1,0.3,0.2C7.2,15,7.1,15,7,15
			c-0.1,0-0.1-0.1-0.2-0.1c-0.1,0-0.1,0-0.2-0.1c-0.1,0-0.1,0-0.2,0C6.6,14.9,6.7,15,6.9,15s0.3,0.1,0.4,0.2
			c0.1,0.1,0.2,0.2,0.3,0.2s0.2,0.2,0.3,0.2c0,0,0,0.1,0,0.1c0,0,0,0.1,0,0.1c0.1,0.1,0.2,0.3,0.2,0.4s0.1,0.3,0.1,0.5
			c0,0.2,0,0.3-0.1,0.5c0,0,0,0.1,0,0.1c0,0,0,0.1-0.1,0.1c0,0,0,0.1-0.1,0.1s0,0-0.1,0c-0.1,0.1-0.1,0.2-0.2,0.2s-0.2,0-0.2,0
			c-0.1,0-0.1-0.1-0.2-0.1c-0.1,0-0.1-0.1-0.2-0.1c-0.1-0.1-0.2-0.2-0.3-0.3S6.7,17,6.7,16.9c-0.1-0.2-0.2-0.4-0.2-0.6
			c0-0.1,0-0.2,0-0.2c0-0.1,0-0.1,0-0.1c0,0-0.1-0.1-0.1-0.1s-0.1,0-0.2-0.1c-0.1,0-0.2-0.1-0.3-0.1c-0.1,0-0.2-0.1-0.3-0.1
			c0,0-0.1,0-0.1,0s-0.1,0-0.1,0c0,0.1,0,0.2,0,0.2c0,0.1,0.1,0.1,0.1,0.2c0.1,0.1,0.1,0.2,0.2,0.4c0.1,0.1,0.1,0.2,0.2,0.4
			C6,17,6.1,17.1,6.2,17.3s0.3,0.3,0.4,0.5v0c0,0.1,0.1,0.1,0.1,0.1C6.7,18,6.7,18,6.7,18.1C6.8,18.1,6.8,18.1,6.7,18.1z M7.8,16.8
			c-0.2-0.3-0.5-0.5-0.8-0.6c0.1,0.1,0.2,0.3,0.2,0.4c0.1,0.1,0.2,0.2,0.3,0.3c0,0,0,0,0,0c0,0,0,0,0.1,0
			C7.7,16.9,7.8,16.9,7.8,16.8z"/>
		<path d="M6.7,21.2C6.7,21.3,6.7,21.3,6.7,21.2c-0.1,0.1-0.1,0.1-0.2,0.1c0,0-0.1-0.1-0.3-0.2C6,21,5.9,20.8,5.7,20.7
			c-0.2-0.2-0.4-0.4-0.6-0.5c-0.2-0.2-0.3-0.3-0.4-0.4c-0.1-0.1-0.2-0.2-0.2-0.3c-0.1-0.1-0.1-0.1-0.1-0.2c0-0.1-0.1-0.1-0.1-0.2
			c0,0,0-0.1,0-0.1c0,0,0-0.1,0-0.2c0-0.1,0-0.2,0-0.2c0-0.1,0.1-0.1,0.2-0.2c0.2-0.2,0.5-0.4,0.9-0.4c0.2,0,0.4,0,0.6,0
			s0.4,0.1,0.6,0.1c0.3,0.1,0.6,0.2,0.9,0.3c0,0,0.1,0,0.1,0c0,0,0.1,0,0.1,0h0c0,0,0-0.1,0-0.1c0,0-0.1,0-0.2-0.1s-0.2,0-0.2-0.1
			c-0.1,0-0.2-0.1-0.3-0.1c0,0,0,0,0,0c0,0,0,0,0.1,0c0,0,0,0,0.1,0s0.1,0,0.1,0c0,0,0,0,0,0c0.1,0,0.1,0,0.2,0c0,0,0.1,0,0.1,0.1h0
			c0,0,0.1,0,0.2,0.1c0.1,0,0.3,0.1,0.4,0.1c0.2,0,0.3,0.1,0.4,0.1s0.2,0.1,0.2,0.1s0,0-0.1,0c-0.1,0-0.2,0-0.2-0.1S8,18.4,7.8,18.4
			c0,0,0,0,0,0c0.1,0,0.1,0,0.2,0.1c0.1,0,0.1,0,0.2,0.1c0.1,0,0.2,0.1,0.3,0.1c0.1,0,0.2,0.1,0.3,0.2c0,0,0,0,0.1,0c0,0,0,0,0.1,0
			c0,0,0,0,0-0.1s0,0,0,0c0,0,0,0,0,0c0,0,0,0,0-0.1C9,18.6,9,18.5,9,18.3c0-0.2,0.2-0.3,0.3-0.3c0.1,0.1,0.2,0.3,0.2,0.4
			c0.1,0.1,0.1,0.3,0.1,0.5c0,0.1,0.1,0.2,0.2,0.3c0,0,0,0-0.1,0c0,0,0,0-0.1,0.1c0,0,0,0,0,0.1c0,0.1,0.1,0.1,0.1,0.1
			c0,0,0,0,0.1,0c0,0,0.1,0,0.1,0c0,0,0,0,0,0.1c0,0,0,0,0.1,0.1c0,0,0,0,0.1,0c0,0,0,0-0.1,0s-0.1,0-0.1,0c0,0-0.1,0-0.2-0.1
			c0,0,0,0,0.1,0c0,0,0.1,0,0.2,0s0.1,0,0.2,0s0.1,0,0.1,0c0,0,0.1,0,0.1,0h0c0,0,0,0,0,0c0,0,0,0,0.1,0.1s0.2,0.1,0.3,0.1
			c0.1,0.1,0.2,0.1,0.2,0.1c0.1,0,0.1,0.1,0.1,0.1c0,0,0,0-0.1,0s-0.1,0-0.1-0.1s-0.1,0-0.1-0.1c0,0-0.1,0-0.1,0c0,0-0.1,0-0.1,0
			c0,0,0,0-0.1,0c0,0,0,0-0.1,0c0,0,0,0,0-0.1c0,0-0.1,0-0.2,0c0,0,0,0-0.1,0c0,0,0,0.1,0,0.1c0,0,0.1,0,0.1,0
			c0.1,0.1,0.2,0.1,0.3,0.2c0.1,0.1,0.2,0.1,0.3,0.2c0.1,0.1,0.2,0.1,0.2,0.2c0,0.1,0,0.3,0,0.4c0,0.1-0.1,0.3-0.3,0.4
			c-0.1,0-0.2,0-0.3-0.1s-0.2-0.1-0.3-0.1c-0.1,0-0.2-0.1-0.3-0.2c-0.1-0.1-0.2-0.1-0.3-0.1c0,0.1-0.1,0.1,0,0.2c0,0.1,0,0.1,0,0.2
			c0,0,0,0.1,0,0.1c0,0,0,0.1,0,0.1c0,0,0,0.1-0.1,0.1s-0.1,0-0.1,0c0,0,0,0-0.1,0c0,0,0,0,0-0.1c0-0.1-0.1-0.1-0.1-0.2
			c0-0.1,0-0.1-0.1-0.2c0-0.1-0.1-0.1-0.1-0.2c0-0.1,0-0.2-0.1-0.2c-0.2-0.1-0.4-0.2-0.5-0.2S8.4,20,8.2,19.9
			c-0.2-0.1-0.3-0.2-0.5-0.2c-0.2-0.1-0.4-0.1-0.5-0.2c-0.2-0.1-0.5-0.2-0.7-0.3C6.3,19.1,6,19,5.8,19c-0.1,0-0.2,0-0.3-0.1
			c-0.1,0-0.2,0-0.3,0H5c-0.1,0-0.1,0.1-0.2,0.1c0,0,0,0.1,0,0.1c0,0,0,0.1,0,0.1c0,0,0,0.1,0.1,0.1c0,0,0.1,0.1,0.2,0.2
			c0.1,0.1,0.2,0.2,0.3,0.3c0.1,0.1,0.3,0.3,0.4,0.4c0.1,0.1,0.3,0.3,0.4,0.4c0.1,0.1,0.2,0.2,0.3,0.3S6.7,21.2,6.7,21.2z"/>
		<path d="M6.7,24.4c0,0-0.1,0-0.2-0.1s-0.2-0.1-0.3-0.3C6.2,24,6.1,24,6.1,23.9S6,23.8,5.9,23.7c0,0-0.1-0.1-0.2-0.1
			c-0.1,0-0.1-0.1-0.2-0.2c-0.3-0.2-0.5-0.5-0.6-0.8c-0.1-0.1-0.1-0.3-0.1-0.4s0-0.3,0-0.5c0,0,0-0.1,0-0.1c0,0,0-0.1,0-0.1
			C5,21.4,5,21.4,5.1,21.3c0.1-0.1,0.1-0.2,0.2-0.2c0,0,0.1-0.1,0.1-0.1s0.1,0,0.1,0c0.2,0,0.3,0,0.5,0c0.1,0,0.1,0,0.2,0
			c0.1,0,0.2,0,0.3,0c0.1,0,0.2,0.1,0.4,0.1c0.1,0.1,0.2,0.1,0.3,0.2c-0.1,0-0.1,0-0.2-0.1c-0.1,0-0.1-0.1-0.2-0.1
			c-0.1,0-0.1,0-0.2-0.1c-0.1,0-0.1,0-0.2,0c0.2,0.1,0.3,0.2,0.4,0.2c0.1,0,0.3,0.1,0.4,0.2c0.1,0.1,0.2,0.2,0.3,0.2
			s0.2,0.2,0.3,0.2c0,0,0,0.1,0,0.1c0,0,0,0.1,0,0.1c0.1,0.1,0.2,0.3,0.2,0.4s0.1,0.3,0.1,0.5c0,0.2,0,0.3-0.1,0.5c0,0,0,0.1,0,0.1
			c0,0,0,0.1-0.1,0.1c0,0,0,0.1-0.1,0.1c0,0,0,0-0.1,0C7.9,24,7.9,24,7.8,24s-0.2,0-0.2,0c-0.1,0-0.1-0.1-0.2-0.1
			c-0.1,0-0.1-0.1-0.2-0.1c-0.1-0.1-0.2-0.2-0.3-0.3c-0.1-0.1-0.2-0.2-0.2-0.3c-0.1-0.2-0.2-0.4-0.2-0.6c0-0.1,0-0.2,0-0.2
			c0-0.1,0-0.1,0-0.1c0,0-0.1-0.1-0.1-0.1c0,0-0.1,0-0.2-0.1C6,22.1,5.9,22,5.8,22c-0.1,0-0.2-0.1-0.3-0.1c0,0-0.1,0-0.1,0
			s-0.1,0-0.1,0c0,0.1,0,0.2,0,0.2c0,0.1,0.1,0.1,0.1,0.2c0.1,0.1,0.1,0.2,0.2,0.4c0.1,0.1,0.1,0.2,0.2,0.4c0.1,0.2,0.2,0.3,0.4,0.5
			s0.3,0.3,0.4,0.5v0c0,0.1,0.1,0.1,0.1,0.1C6.7,24.3,6.7,24.3,6.7,24.4C6.8,24.4,6.8,24.4,6.7,24.4z M7.8,23.1
			c-0.2-0.3-0.5-0.5-0.8-0.6c0.1,0.1,0.2,0.3,0.2,0.4s0.2,0.2,0.3,0.3c0,0,0,0,0,0c0,0,0,0,0.1,0C7.7,23.2,7.8,23.2,7.8,23.1z"/>
		<path d="M7.7,27.2c0,0-0.1,0-0.1,0c0,0-0.1,0-0.1-0.1c0,0,0-0.1,0-0.1c0,0,0-0.1,0-0.1c0,0,0-0.1,0-0.1s0-0.1,0-0.1
			c0-0.1,0-0.2-0.1-0.3c-0.1-0.1-0.1-0.2-0.2-0.3C7,26,7,25.9,6.9,25.9c-0.1-0.1-0.1-0.1-0.2-0.2c-0.2-0.2-0.4-0.3-0.7-0.4
			c-0.2,0-0.3-0.1-0.5-0.2C5.4,25.1,5.2,25.1,5,25c-0.1,0-0.1,0-0.2,0c-0.1,0-0.1,0-0.2-0.1c0,0-0.1,0-0.1-0.1
			c-0.1-0.1-0.1-0.3,0-0.3c0-0.1,0.1-0.2,0.2-0.3c0,0,0.1-0.1,0.2-0.1c0.1,0,0.1,0,0.2-0.1c0.1,0,0.1,0,0.2,0c0.2,0,0.3,0.1,0.5,0.1
			c0.2,0,0.3,0.1,0.5,0.1c0,0,0,0,0,0c0,0,0,0,0-0.1c0.2,0.1,0.3,0.1,0.5,0.1c0.1,0,0.3,0.1,0.4,0.2c0.1,0.1,0.3,0.1,0.4,0.2
			c0.1,0.1,0.3,0.1,0.4,0.2C8,24.9,8,25,8.1,25s0.1,0.1,0.1,0.1c0,0,0,0.1,0,0.1c0,0,0,0.1,0,0.1c0,0.1,0,0.1,0,0.2
			c0,0.1,0,0.1-0.1,0.2c0,0,0,0.1-0.1,0.1c-0.1,0-0.1,0-0.2,0.1l0,0c0,0,0,0,0,0c0,0,0,0.1,0,0.1c0,0,0,0.1,0,0.1
			c0,0.1,0.1,0.2,0.1,0.3c0,0.1,0,0.2,0,0.3c0,0.1,0,0.1-0.1,0.2C7.8,27,7.8,27.1,7.7,27.2C7.7,27.1,7.7,27.1,7.7,27.2
			C7.7,27.2,7.7,27.2,7.7,27.2z M5.7,24.1C5.7,24.1,5.7,24.1,5.7,24.1C5.7,24.1,5.7,24,5.7,24.1C5.8,24,5.9,24,6,24
			c0.1,0,0.2,0.1,0.4,0.1c-0.1,0-0.3,0-0.4,0C5.9,24.1,5.8,24.1,5.7,24.1z"/>
	</g>
</g>
</svg>
