<?xml version="1.0" encoding="utf-8"?>
<!-- Generator: Adobe Illustrator 27.7.0, SVG Export Plug-In . SVG Version: 6.00 Build 0)  -->
<svg version="1.1" id="Layer_2_00000067942826956261215510000009364037722324735374_"
	 xmlns="http://www.w3.org/2000/svg" xmlns:xlink="http://www.w3.org/1999/xlink" x="0px" y="0px" viewBox="0 0 13.1 26"
	 style="enable-background:new 0 0 13.1 26;" xml:space="preserve">
<style type="text/css">
	.st0{enable-background:new    ;}
</style>
<g id="Layer_1-2">
	<g class="st0">
		<path d="M7.2,4.1C7.1,4.3,6.9,4.4,6.7,4.5C6.5,4.5,6.3,4.5,6,4.4C5.8,4.2,5.7,4.1,5.5,3.9C5.4,3.7,5.3,3.5,5.1,3.3
			C5,3.1,4.9,2.8,4.8,2.6C4.7,2.4,4.6,2.1,4.6,1.9c0-0.2-0.1-0.3-0.1-0.5c0-0.2,0-0.3,0-0.5c0-0.2,0.1-0.3,0.1-0.5
			C4.7,0.2,4.8,0.1,5,0C5,0.1,5.1,0.2,5.1,0.3c0,0.1,0,0.2,0,0.3c0,0.3,0.1,0.6,0.2,0.9S5.5,2,5.6,2.3C5.8,2.5,5.9,2.8,6.1,3
			c0.2,0.2,0.4,0.4,0.7,0.6c0,0,0.1,0.1,0.1,0.1c0.2-0.2,0.3-0.5,0.2-0.8c0-0.1,0-0.2,0-0.3c0-0.1,0-0.2-0.1-0.3
			c0-0.2,0-0.4,0.1-0.5c0.1-0.1,0.2-0.2,0.4-0.2C7.7,1.8,7.9,2,8.1,2.3c0.2,0.2,0.4,0.4,0.5,0.7C8.7,3,8.7,3,8.8,3.1
			c0.1,0,0.1,0.1,0.2,0.2C9,3.2,9,3.1,9,3c0-0.2-0.1-0.3-0.1-0.5C8.8,2.4,8.8,2.3,8.7,2.1C8.7,2,8.6,1.9,8.6,1.9
			C8.4,1.4,8.5,1.2,9,1c0.1,0.1,0.2,0.2,0.2,0.4c0.1,0.1,0.1,0.3,0.2,0.4c0,0.1,0.1,0.3,0.1,0.4c0,0.2,0.1,0.3,0.2,0.5
			c0-0.2,0.1-0.3,0-0.5c0-0.1-0.1-0.3-0.1-0.4c0-0.1-0.1-0.1-0.1-0.2c0-0.1,0-0.1,0-0.2c0.1,0.2,0.2,0.4,0.3,0.6s0.2,0.4,0.2,0.6
			c0,0,0,0,0,0c0,0,0,0-0.1,0c0,0.1-0.1,0.1-0.1,0.2c0,0.1,0,0.2-0.1,0.2c0,0.3-0.1,0.5-0.3,0.7C9.3,3.9,9.2,4,9.1,4S8.9,4,8.8,4
			C8.7,3.9,8.5,3.9,8.4,3.8C8.3,3.7,8.2,3.6,8.1,3.5C8.1,3.4,8,3.3,8,3.2C7.9,3.1,7.8,3,7.8,2.9c0,0.1,0,0.1,0,0.2c0,0,0,0.1,0,0.1
			c0,0.2-0.1,0.3-0.2,0.5C7.4,3.8,7.3,3.9,7.2,4.1z M5.5,1.7c0-0.1,0-0.1,0-0.2s0-0.1,0-0.2c0,0,0,0,0,0c0,0,0,0,0,0
			c0,0.1,0,0.1,0,0.2C5.5,1.6,5.6,1.6,5.5,1.7C5.6,1.7,5.5,1.7,5.5,1.7z"/>
		<path d="M6.4,13.9C6.4,13.9,6.4,13.8,6.4,13.9C6.4,13.8,6.4,13.8,6.4,13.9c-0.2-0.1-0.3-0.2-0.5-0.3c-0.1-0.1-0.3-0.2-0.4-0.3
			c-0.1-0.1-0.3-0.2-0.4-0.3c-0.1-0.1-0.2-0.2-0.3-0.3c0,0,0,0,0.1,0.1c0.1,0.1,0.2,0.1,0.2,0.2S5.3,13,5.4,13c0.1,0,0.1,0,0-0.2
			c0,0,0,0,0-0.1c0,0,0,0,0-0.1c-0.3-0.2-0.5-0.4-0.7-0.6s-0.3-0.5-0.5-0.7c0-0.1-0.1-0.2-0.2-0.3c-0.1-0.1-0.1-0.2-0.1-0.3
			c0-0.1,0-0.2,0-0.3c0-0.2,0-0.3,0-0.5c0-0.2,0-0.3,0-0.5c0-0.2,0.1-0.4,0.2-0.5C4,9,4.1,8.8,4.2,8.7c0.1-0.1,0.3-0.2,0.4-0.2
			s0.3,0,0.5,0c0.2,0.1,0.5,0.2,0.7,0.3s0.4,0.3,0.6,0.4C6.7,9.4,6.8,9.6,7,9.7c0.1,0.1,0.2,0.3,0.3,0.4c0.1,0.1,0.1,0.2,0.2,0.3
			c0,0.1,0.1,0.1,0.1,0.2c0,0,0,0.1,0,0.1l0,0l0-0.2c0,0,0-0.1,0-0.1c0,0,0-0.1,0-0.1c0,0,0,0,0,0s0,0,0,0c0,0,0,0,0,0.1
			c0.1,0.2,0.1,0.3,0.2,0.5c0,0.2,0.1,0.3,0.1,0.5c0,0.1,0,0.3,0,0.3s0,0.1,0,0.1c0,0,0,0,0,0s0,0,0,0c0,0,0,0,0,0
			c0-0.1-0.1-0.1-0.1-0.2s-0.1-0.1-0.1-0.2l0,0c0-0.1-0.1-0.1-0.1-0.2C6.9,11.1,6.9,11,6.8,11c-0.2-0.2-0.4-0.5-0.7-0.7
			c-0.2-0.2-0.5-0.4-0.7-0.6C5.3,9.6,5.1,9.6,5,9.5C4.9,9.4,4.7,9.4,4.5,9.4c-0.1,0-0.2,0-0.2,0c0,0-0.1,0.1,0,0.2
			c0,0.2,0.1,0.3,0.1,0.5s0.1,0.3,0.2,0.4c0,0.1,0.1,0.1,0.1,0.2s0.1,0.2,0.2,0.3c0,0.1,0.1,0.1,0.1,0.2c0,0.1,0.1,0.1,0.1,0.2
			c0.1,0.1,0.3,0.2,0.4,0.3c0.1,0.1,0.3,0.2,0.4,0.3c0.1,0.1,0.3,0.2,0.4,0.3c0.1,0.1,0.3,0.2,0.4,0.2c0.2,0.1,0.4,0.2,0.6,0.3
			c0.2,0.1,0.4,0.2,0.7,0.2c0,0,0.1,0.1,0.1,0.1c0,0,0.1,0,0.1,0c0,0,0,0-0.1-0.1c0,0,0,0-0.1-0.1c-0.1,0-0.1,0-0.2,0
			c0,0-0.1,0-0.2,0c-0.1,0-0.2-0.1-0.4-0.1s-0.3-0.1-0.4-0.2c0.1,0,0.3,0.1,0.4,0.1s0.3,0.1,0.5,0.1h0c0.1,0,0.1,0,0.2,0
			c0.1,0,0.1,0,0.2,0h0.1c0.2,0,0.4,0,0.5,0.1s0.3,0,0.4,0.1c0,0,0,0,0,0c0,0,0,0,0,0c0.4,0,0.8,0.1,1.2,0.1c0.4,0,0.8-0.1,1.1-0.3
			c0,0,0,0,0.1,0c0,0,0,0,0.1,0c0-0.1,0-0.2-0.1-0.3c0-0.1-0.1-0.2-0.2-0.3c-0.2-0.3-0.4-0.6-0.6-0.8s-0.4-0.5-0.7-0.7
			c-0.1-0.1-0.1-0.1-0.2-0.2s-0.1-0.1-0.1-0.2c0-0.1,0-0.2,0-0.3s0.1-0.1,0.2,0c0.1,0,0.2,0.1,0.3,0.2c0.1,0.1,0.2,0.1,0.3,0.2
			c0.2,0.2,0.4,0.3,0.6,0.6c0.2,0.2,0.3,0.4,0.5,0.7c0.1,0.2,0.2,0.4,0.2,0.6c0,0.2,0,0.4,0,0.7c0,0.2-0.1,0.4-0.2,0.6
			S12,13.8,11.8,14c0,0-0.1,0.1-0.1,0.1c0,0-0.1,0.1-0.1,0.1c0,0-0.1,0-0.1,0.1c0,0-0.1,0.1-0.1,0.1c-0.1,0-0.2,0.1-0.5,0.1
			c-0.2,0.1-0.5,0.1-0.9,0.1s-0.9,0-1.4-0.1c-0.6-0.1-1.2-0.3-2-0.5C6.5,13.9,6.5,13.9,6.4,13.9C6.5,13.9,6.5,13.9,6.4,13.9z
			 M5.4,12.9c0,0.1,0.1,0.1,0.1,0.2c0,0,0.1,0.1,0.1,0.1s0.1,0,0.1,0s0.1,0,0.1,0c-0.1-0.1-0.2-0.1-0.2-0.2
			C5.5,13,5.5,12.9,5.4,12.9z M6.7,10.6c-0.1-0.2-0.3-0.3-0.4-0.4S6,10,5.9,9.9c0,0,0,0,0,0c0.1,0.1,0.3,0.2,0.4,0.3
			S6.5,10.5,6.7,10.6C6.6,10.6,6.6,10.6,6.7,10.6C6.6,10.6,6.7,10.6,6.7,10.6z M6.8,12.5c0.1,0,0.1-0.1,0.1,0c0,0,0.1,0,0.1,0.1
			c0,0-0.1,0-0.1,0S6.9,12.5,6.8,12.5z M7.1,12.6L7.1,12.6L7.1,12.6C7.1,12.6,7.1,12.6,7.1,12.6C7.1,12.6,7.1,12.6,7.1,12.6
			L7.1,12.6L7.1,12.6z M8.4,13.1c0,0,0.1,0.1,0.1,0.1c0,0,0,0,0.1,0.1c0-0.1,0-0.1,0-0.1C8.6,13.1,8.5,13.1,8.4,13.1z M9.5,13.2
			c0,0.1,0,0.1,0.1,0.2c0,0,0.1,0,0.1,0c0.2,0,0.5,0,0.8,0c0.3,0,0.5-0.1,0.8-0.1c-0.3,0-0.5,0-0.8,0S9.8,13.1,9.5,13.2z"/>
		<path d="M6.6,18L6.6,18C6.6,18.1,6.6,18.1,6.6,18c-0.1,0.1-0.1,0-0.2-0.1c-0.1-0.1-0.1-0.3-0.1-0.5c-0.1-0.1-0.2-0.1-0.3-0.1
			c-0.2-0.1-0.3-0.2-0.5-0.4c-0.1-0.1-0.1-0.2-0.2-0.2c-0.1-0.1-0.1-0.2-0.2-0.2c-0.1-0.1-0.1-0.2-0.1-0.3S5,15.9,5,15.8
			c0,0,0-0.1,0-0.1s0-0.1,0-0.1c0,0,0-0.1,0.1-0.2c0-0.1,0-0.1,0.1-0.2c0,0,0.1-0.1,0.1-0.1c0,0,0.1-0.1,0.1-0.1
			c0-0.1,0.1-0.1,0.2-0.2c0.1-0.1,0.1-0.1,0.2-0.1c0,0,0.1,0,0.1,0c0,0,0.1,0,0.1-0.1c0.1-0.1,0.2-0.1,0.3-0.1c0.1,0,0.2,0,0.3,0
			s0.2,0,0.2,0c0.1,0,0.2,0.1,0.3,0.1c0.1,0,0.2,0,0.3,0.1c0.2,0,0.5,0.2,0.7,0.4l0,0c0,0,0,0,0,0c-0.1,0-0.2-0.1-0.3-0.1
			C7.6,15.1,7.5,15,7.4,15h0c0,0,0.1,0,0.1,0.1c0.1,0,0.1,0.1,0.2,0.1c0.1,0,0.2,0.1,0.2,0.1s0.1,0.1,0.2,0.1s0.1,0,0.1,0.1
			c0,0,0,0,0,0c0,0-0.1,0-0.1,0c0,0-0.1,0-0.1,0c0,0-0.1,0-0.1-0.1c-0.1,0-0.1,0-0.2,0c0,0,0,0,0,0l0,0c0,0,0.1,0.1,0.1,0.1
			c0.1,0,0.1,0.1,0.1,0.1c0,0-0.1,0-0.1,0s-0.1,0-0.1,0c0.1,0.1,0.2,0.1,0.3,0.2S8.3,16,8.4,16c0,0.1,0,0.2,0.1,0.3
			c0,0.1,0.1,0.2,0.1,0.3c0,0.1,0,0.2,0,0.2c0,0.1,0,0.1-0.1,0.2c0,0,0,0.1,0,0.1c-0.1,0.1-0.1,0.2-0.3,0.3
			c-0.1,0.1-0.2,0.1-0.3,0.1c-0.2,0-0.3,0-0.5,0c-0.2,0-0.3,0-0.5,0l-0.2-0.1C6.6,17.7,6.6,17.9,6.6,18z M6.2,16.8
			C6.2,16.8,6.3,16.8,6.2,16.8c0.1,0,0.1,0,0.1,0c0-0.1,0.1-0.1,0.1-0.2c0-0.1,0-0.1,0.1-0.2c0-0.1,0.1-0.2,0.1-0.2
			c0-0.1,0.1-0.1,0.1-0.2c-0.1-0.1-0.1-0.1-0.2-0.2c-0.1,0-0.2,0-0.2-0.1c-0.1,0-0.2-0.1-0.3-0.1c-0.1,0-0.2,0-0.4,0.1
			c0,0,0,0.1,0.1,0.1s0,0.1,0,0.1c0,0,0.1,0.1,0.1,0.1c0,0,0,0.1,0.1,0.1c0.1,0.1,0.1,0.2,0.2,0.3C6,16.6,6.1,16.7,6.2,16.8z
			 M8.2,16.7c-0.2-0.3-0.4-0.4-0.7-0.5c-0.1,0-0.1,0-0.2,0c-0.1,0-0.1,0-0.2,0c-0.1,0-0.1,0-0.2,0c0,0-0.1,0.1-0.1,0.1
			c-0.1,0.1-0.1,0.2-0.2,0.2c0,0,0,0.1,0,0.1c0,0,0,0.1,0,0.1s0,0.1,0,0.1c0,0.1,0,0.2,0.1,0.2c0.1,0.1,0.3,0.1,0.4,0.1s0.3,0,0.4,0
			c0,0,0.1,0,0.1,0s0.1,0,0.1,0c0.1,0,0.3-0.1,0.3-0.2C8.3,16.9,8.3,16.8,8.2,16.7z"/>
		<path d="M5.9,18.7c-0.1,0-0.2,0-0.3-0.1s-0.2,0-0.3,0c-0.2,0-0.5-0.1-0.7-0.2c0,0,0-0.1,0-0.2c0-0.1,0.1-0.1,0.1-0.2
			c0-0.1,0.1-0.1,0.1-0.2c0-0.1,0.1-0.1,0.2-0.1c0.1,0,0.1,0,0.2,0c0.1,0,0.1,0,0.2,0c0.2,0,0.4,0.1,0.6,0.1S6.5,18,6.7,18
			c0.1,0,0.1,0,0.2,0s0.1,0,0.2,0c0.3,0.1,0.6,0.2,0.9,0.2c0.3,0.1,0.6,0.1,1,0.2c0,0,0.1,0,0.1,0c0.1,0,0.1,0,0.2,0
			c0.1,0,0.1,0,0.2,0.1c0.1,0,0.1,0,0.1,0.1l-0.4,0c0.1,0.1,0.2,0.1,0.3,0.1s0.2,0,0.3,0c0,0,0,0,0,0c0,0,0,0,0,0
			c0.1,0,0.2,0.1,0.3,0.1c0.1,0,0.2,0.1,0.3,0.1c0,0,0,0,0.1,0c0,0,0.1,0,0.1,0c0.4,0.1,0.7,0.2,1.1,0.3c0.1,0,0.1,0,0.2,0
			c0,0,0.1,0,0.2,0.1c-0.1,0-0.3,0-0.4-0.1s-0.3,0-0.4,0c0.1,0.1,0.1,0.1,0.2,0.1c0,0,0,0,0.1,0c0.2,0,0.4,0,0.5,0.1
			c0.1,0.1,0.3,0.2,0.5,0.2c0.1,0,0.1,0.1,0.1,0.2c0,0.1,0.1,0.2,0.1,0.3c0,0.1,0,0.2,0,0.4c0,0.1,0,0.2,0,0.3
			c0,0.1-0.1,0.2-0.2,0.1c0,0,0,0-0.1,0c0,0-0.1,0-0.1-0.1c-0.3-0.2-0.6-0.4-1-0.5S10.4,20.1,10,20c-0.4-0.1-0.7-0.2-1.1-0.3
			c-0.3-0.1-0.6-0.2-0.9-0.3c0,0.1,0,0.1,0,0.1c0.1,0.1,0.1,0.3,0.1,0.4c0,0.1,0,0.3,0,0.5c0,0,0,0.1,0,0.1c0,0,0,0.1,0,0.1
			c0,0.1-0.1,0.1-0.1,0.2c0,0.1-0.1,0.1-0.2,0.1c0,0-0.1,0-0.1,0s-0.1,0-0.1,0c0,0,0,0,0,0.1s0,0,0,0.1c-0.1,0-0.1,0-0.2,0
			c0,0-0.1,0-0.1,0c-0.1,0-0.2-0.1-0.4-0.1s-0.2-0.1-0.4-0.1c-0.1,0-0.2-0.1-0.2-0.1c-0.1,0-0.2-0.1-0.2-0.1c-0.1,0-0.1,0-0.2-0.1
			c-0.1,0-0.1,0-0.2-0.1h0c-0.1,0-0.1,0-0.2-0.1c-0.1,0-0.1,0-0.2-0.1c0,0-0.1,0-0.1,0c0,0-0.1,0-0.1,0c0,0,0,0,0,0c0,0,0,0,0,0
			c0,0,0,0-0.1,0c0,0,0,0-0.1,0c0,0-0.1,0-0.1-0.1s-0.1,0-0.2,0v0c-0.1,0-0.1,0-0.2,0c0,0,0,0,0,0.1c0,0.1,0,0.1,0,0.2
			c0,0,0.1,0,0.2,0.1c0.1,0.1,0.2,0.2,0.4,0.3c0.1,0.1,0.3,0.2,0.5,0.3c0.2,0.1,0.3,0.2,0.5,0.3c0.1,0.1,0.3,0.2,0.5,0.3
			c0,0,0,0-0.1,0c-0.1,0-0.1-0.1-0.2-0.1c-0.1,0-0.2-0.1-0.3-0.2c0.1,0.1,0.1,0.1,0.2,0.1c0.1,0,0.1,0.1,0.2,0.1
			c0.1,0,0.1,0.1,0.1,0.1c0,0,0,0.1,0,0.1c0,0,0,0,0,0c0,0-0.1,0-0.2-0.1c-0.1-0.1-0.2-0.1-0.4-0.2c-0.2-0.1-0.3-0.2-0.5-0.3
			c-0.2-0.1-0.4-0.2-0.5-0.3c-0.2-0.1-0.3-0.2-0.4-0.3c-0.1-0.1-0.2-0.1-0.2-0.2c-0.1-0.1-0.1-0.2-0.1-0.3c0-0.1,0-0.1,0-0.2
			c0,0,0,0,0,0c0,0,0,0.1,0,0c0,0,0-0.1,0.1-0.4c0-0.1,0.1-0.1,0.1-0.2c0.1-0.1,0.1-0.1,0.2-0.2c0.1-0.1,0.1-0.1,0.2-0.1
			s0.1,0,0.1,0c0,0,0,0,0.1,0s0.1,0,0.2,0c0.1,0,0.1,0,0.2,0H5.1c0,0-0.1,0-0.1,0c0,0,0,0,0,0l0.3,0.1c0.1,0,0.2,0,0.2,0
			c0.1,0,0.1,0,0.1,0c0,0,0,0,0,0c0,0-0.1,0-0.1,0c0,0-0.1,0-0.1,0c0,0,0,0,0,0c0.1,0,0.1,0,0.2,0s0.1,0,0.1,0c0,0,0.1,0,0.1,0
			c0,0,0,0,0,0h0c0.2,0,0.3,0,0.5,0.1c0.2,0,0.3,0.1,0.5,0.1c0,0,0.1,0,0.1,0s0.1,0,0.1,0c-0.1-0.1-0.1-0.2-0.2-0.2
			c-0.1-0.1-0.1-0.1-0.2-0.2c-0.1,0-0.2-0.1-0.2-0.1C6.5,19.1,6.4,19,6.4,19c-0.1-0.1-0.1-0.1-0.2-0.1S6,18.8,5.9,18.7z"/>
		<path d="M8.3,25.7c-0.1,0.1-0.3,0.2-0.4,0.2c-0.1,0-0.3,0-0.5-0.1c-0.2-0.1-0.4-0.2-0.6-0.3c-0.2-0.1-0.4-0.2-0.6-0.3
			c-0.2-0.1-0.3-0.1-0.5-0.2c-0.1,0-0.3-0.1-0.4-0.1c-0.1,0-0.2,0-0.3,0c-0.1,0-0.2,0-0.3-0.1c0,0,0,0-0.1-0.1c0,0,0,0-0.1-0.1
			c0-0.1,0.1-0.2,0.2-0.3c0.1-0.1,0.2-0.1,0.2-0.2c0.1-0.1,0.2-0.1,0.3-0.1c0.2,0,0.5,0,0.7,0c0.2,0,0.5,0.1,0.7,0.2
			c0.1,0,0.3,0.1,0.4,0.1s0.3,0.1,0.4,0.1c0-0.1-0.1-0.2-0.2-0.3S7.1,24.2,7,24.1c-0.1-0.1-0.2-0.2-0.3-0.3s-0.2-0.2-0.3-0.3
			c0,0-0.1-0.1-0.1-0.1s-0.1-0.1-0.1-0.2C6,23.1,5.9,23,5.9,22.9s-0.2-0.2-0.3-0.3c-0.1-0.1-0.1-0.1-0.2-0.2
			c-0.1-0.1-0.1-0.1-0.2-0.2c0,0-0.1-0.1-0.1-0.1c0,0,0-0.1-0.1-0.1c-0.1-0.1-0.1-0.1-0.1-0.2c0-0.1,0-0.2,0-0.2
			c0-0.1,0.1-0.2,0.2-0.2c0.1,0,0.2,0,0.3,0c0.1,0,0.2,0,0.3,0c0.1,0,0.1,0,0.2,0c0,0,0.1,0,0.2,0c0.1,0,0.1,0,0.2,0
			c0.1,0,0.1,0,0.2,0c0.1,0,0.1,0,0.2,0c0.1,0,0.1,0,0.1,0.1c0.2,0.1,0.4,0.1,0.6,0.2c0.2,0,0.4,0.1,0.6,0.1c0.1,0,0.2,0,0.3,0.1
			c0.1,0,0.2,0.1,0.3,0.1c-0.1,0-0.1,0-0.2,0S8,22,7.9,22C8,22,8.1,22.1,8.1,22.1c0.1,0.1,0.1,0.1,0.2,0.1c0,0,0,0,0.1,0
			c0.1,0.1,0.2,0.2,0.2,0.3c0,0,0,0.1,0,0.1c0,0,0,0.1,0,0.1c0,0.1,0,0.2,0,0.3s-0.1,0.2-0.2,0.2c-0.1,0.1-0.1,0.1-0.3,0.1
			c-0.2-0.1-0.4-0.1-0.6-0.2C7.3,23.2,7.2,23.1,7,23c0,0-0.1,0-0.1-0.1c0,0-0.1,0-0.1,0c0,0,0.1,0.1,0.1,0.1s0.1,0.1,0.1,0.1
			c0.1,0.1,0.2,0.1,0.2,0.2c0.1,0.1,0.1,0.1,0.2,0.2c0.2,0.1,0.3,0.3,0.4,0.5c0.1,0.2,0.2,0.3,0.4,0.5c0.1,0.2,0.2,0.3,0.2,0.5
			C8.4,25.3,8.4,25.5,8.3,25.7z M6.3,21.6c0.1,0,0.2,0.1,0.4,0.1c0.1,0.1,0.2,0.1,0.4,0.1c-0.1,0-0.3-0.1-0.4-0.1
			C6.5,21.5,6.4,21.5,6.3,21.6z M8,24.1c-0.1-0.1-0.1-0.1-0.2-0.2c0-0.1-0.1-0.1-0.1-0.2c0.1,0,0.1,0.1,0.2,0.2s0.2,0.2,0.2,0.3
			c0.1,0.1,0.1,0.2,0.2,0.4c0.1,0.1,0.1,0.2,0.1,0.4c0-0.1-0.1-0.1-0.1-0.2c0-0.1-0.1-0.1-0.1-0.2c0-0.1-0.1-0.1-0.1-0.2
			S8,24.1,8,24.1z M8,22.3c0.1,0,0.1,0,0.1,0c0,0,0.1,0,0.1,0c0,0,0,0,0,0s0,0,0,0c0,0-0.1,0-0.1,0S8.1,22.3,8,22.3L8,22.3z"/>
	</g>
</g>
</svg>
