<?xml version="1.0" encoding="utf-8"?>
<!-- Generator: Adobe Illustrator 27.7.0, SVG Export Plug-In . SVG Version: 6.00 Build 0)  -->
<svg version="1.1" id="Layer_2_00000179633777402100920930000002872380545050983823_"
	 xmlns="http://www.w3.org/2000/svg" xmlns:xlink="http://www.w3.org/1999/xlink" x="0px" y="0px" viewBox="0 0 13.1 22.7"
	 style="enable-background:new 0 0 13.1 22.7;" xml:space="preserve">
<style type="text/css">
	.st0{enable-background:new    ;}
</style>
<g id="Layer_1-2">
	<g class="st0">
		<path d="M12.2,7.4c-0.1,0-0.1,0-0.2,0c0,0-0.1-0.1-0.1-0.1c-0.2-0.2-0.2-0.4-0.3-0.7c0-0.2-0.1-0.5-0.1-0.7c0-0.2-0.1-0.5-0.1-0.7
			c0-0.1,0-0.3,0-0.4c0-0.1,0-0.3,0-0.4c0-0.2-0.1-0.3-0.2-0.4c-0.2-0.1-0.5-0.3-0.7-0.4c-0.2-0.1-0.5-0.2-0.7-0.3c0,0-0.1,0-0.1,0
			s-0.1,0-0.1,0c0,0.4,0.1,0.7,0.1,1s0.1,0.7,0.2,1c0,0-0.1,0-0.1,0c0,0-0.1,0-0.1,0C9.4,5.1,9.4,4.9,9.3,4.8
			C9.2,4.7,9.1,4.6,9.1,4.4C9,4.3,9,4.2,8.9,4.1c0-0.1,0-0.2-0.1-0.3c0-0.2-0.1-0.3-0.1-0.5c0-0.2-0.1-0.3-0.1-0.5
			c0,0,0-0.1-0.1-0.1S8.5,2.7,8.4,2.6c0,0,0,0,0,0c0,0,0,0,0.1-0.1C8.4,2.5,8.3,2.4,8.1,2.3C8,2.3,7.8,2.2,7.7,2.2
			C7.6,2.1,7.4,2.1,7.3,2.1h0h0h0c-0.1,0-0.1,0-0.2,0c-0.1,0-0.1,0-0.2,0C6.6,2,6.4,2,6.2,1.9C6,1.8,5.8,1.8,5.5,1.7c0,0,0,0-0.1,0
			c0,0-0.1,0-0.1,0c0,0,0,0-0.1,0c0,0,0-0.1,0-0.1c0,0,0,0,0,0c0,0,0,0-0.1,0c-0.1,0-0.2,0-0.2,0s-0.2,0-0.2,0
			c-0.2,0-0.2,0.1-0.2,0.3c0,0.2,0.1,0.3,0.1,0.5c0.1,0.2,0.1,0.3,0.2,0.4c0.2,0.5,0.5,0.9,0.8,1.3c0.3,0.4,0.6,0.8,0.9,1.2
			c0,0,0.1,0.1,0.1,0.1c0,0,0,0.1,0,0.1c-0.2,0-0.3-0.1-0.4-0.2C6,5.3,6,5.2,5.9,5.2C5.8,5.1,5.7,5.1,5.6,5c0,0,0,0-0.1,0
			s0,0-0.1-0.1C5.3,4.6,5,4.3,4.8,4C4.5,3.8,4.3,3.4,4.2,3.1C4,2.8,3.9,2.4,3.9,2c0-0.1,0-0.3,0.1-0.4C4,1.4,4.1,1.3,4.2,1.2
			C4.3,1,4.4,0.9,4.5,0.8c0.1-0.1,0.3-0.2,0.4-0.2c0.2-0.1,0.3-0.1,0.5-0.1c0.2,0,0.3,0,0.5,0c0.2,0,0.5,0.1,0.7,0.2
			C6.8,0.7,7,0.8,7.3,0.9C7.4,0.9,7.6,1,7.8,1s0.3,0.1,0.5,0.2c0,0,0-0.1,0-0.1c0,0,0,0,0,0c0,0,0,0-0.1,0c0,0,0,0,0-0.1
			c0,0,0,0,0.1,0c0,0,0.1,0,0.1,0c0-0.2,0-0.4,0.1-0.6S8.6,0.1,8.8,0c0,0.1,0,0.1,0,0.2c0,0,0,0.1,0,0.1c0,0.2,0.1,0.3,0.1,0.5
			C9,0.9,9,1,9,1.2c0,0.1,0.1,0.2,0.2,0.2c0.2,0.1,0.5,0.3,0.7,0.4c0.2,0.1,0.5,0.2,0.7,0.4c0.1,0.1,0.2,0.1,0.4,0.2
			s0.3,0.1,0.4,0.2c0,0,0.1-0.1,0.1-0.1s0.1-0.1,0.1-0.1c0,0.1,0.1,0.1,0.1,0.2c0,0.1,0,0.1,0.1,0.2c0,0,0.1,0.1,0.1,0.1
			c0.1,0,0.1,0.1,0.2,0.1h-0.4c0.1,0,0.1,0.1,0.1,0.1c0,0,0,0,0.1,0c0.1,0,0.1,0.1,0.2,0.1s0.1,0.1,0.2,0.1c0.2,0.1,0.2,0.3,0.1,0.5
			c0,0.1-0.1,0.1-0.2,0.2c-0.1,0-0.1,0.1-0.2,0.1c0,0-0.1,0.1-0.2,0.1c0,0.3,0,0.5,0,0.8c0,0.3,0,0.5,0.1,0.8c0,0.3,0,0.5,0,0.8
			C12.2,6.9,12.2,7.1,12.2,7.4z M6,1.7c0.3,0.1,0.6,0.2,0.9,0.3C6.8,1.8,6.6,1.8,6.4,1.7C6.3,1.7,6.1,1.6,6,1.7z M6.4,0.5
			c0.1-0.1,0.4-0.1,0.9,0.1c0.1,0,0.3,0.1,0.4,0.2C7.8,0.8,8,0.9,8.1,1c0,0-0.1,0-0.1,0c0,0-0.1,0-0.1,0C7.7,0.8,7.5,0.7,7.2,0.7
			C7,0.6,6.8,0.5,6.5,0.5C6.5,0.5,6.5,0.5,6.4,0.5C6.4,0.5,6.4,0.5,6.4,0.5z M7.7,2.2c0.1,0,0.1,0.1,0.2,0.1C8,2.4,8,2.4,8.1,2.4
			c0,0,0.1,0,0.1,0.1c0.1,0,0.1,0.1,0.2,0.1c-0.1,0-0.1,0-0.2-0.1c-0.1,0-0.1,0-0.2-0.1c-0.1,0-0.2-0.1-0.4-0.2S7.4,2.2,7.3,2.1
			C7.4,2.2,7.6,2.2,7.7,2.2L7.7,2.2L7.7,2.2z M8.1,1L8.1,1L8.1,1C8.1,1,8.1,1,8.1,1z M8.4,2.6C8.4,2.6,8.4,2.6,8.4,2.6L8.4,2.6
			L8.4,2.6z M9.7,1.8c-0.1,0-0.2-0.1-0.2-0.1c-0.1,0-0.1-0.1-0.2-0.1c0.1,0,0.1,0.1,0.1,0.1c0,0,0.1,0,0.1,0.1c0,0,0.1,0,0.1,0
			C9.6,1.8,9.6,1.8,9.7,1.8z M10.1,2c0.1,0.1,0.1,0.1,0.1,0.1c0,0,0.1,0,0.2,0c-0.1,0-0.1,0-0.2-0.1C10.2,2.1,10.2,2,10.1,2z"/>
		<path d="M5.3,8c0,0-0.1,0.1-0.1,0.1c0,0-0.1,0-0.1,0.1C5,8.1,5,8,5,7.9c0-0.1,0-0.2,0-0.3s0-0.2,0-0.3c0-0.1,0-0.2,0.1-0.2
			C5.2,7,5.3,6.9,5.4,6.8c0.1-0.1,0.2-0.1,0.3-0.2c0,0,0,0,0,0s0,0,0,0c0,0-0.1,0-0.1,0c-0.1,0-0.1,0-0.2,0.1c0-0.1,0.1-0.1,0.1-0.1
			c0,0,0.1-0.1,0.1-0.1C5.5,6.3,5.4,6.2,5.3,6.1C5.2,6.1,5.1,6,5,5.9C5,5.8,4.9,5.7,4.8,5.6C4.7,5.5,4.7,5.4,4.6,5.3
			c0.1,0,0.1,0,0.2,0s0.1,0.1,0.1,0.1c0.2,0.1,0.4,0.3,0.6,0.4C5.7,5.9,5.9,6,6,6.2c0.1,0.1,0.2,0.1,0.2,0.2c0.1,0,0.1,0,0.2,0
			c0.3-0.1,0.6-0.2,0.9-0.1c0,0.1,0.1,0.1,0.2,0.1c0.1,0,0.1,0,0.2,0c0.1,0,0.1,0,0.2,0c0.1,0,0.1,0,0.2,0c0.2,0,0.3,0.2,0.3,0.5
			c0,0,0,0.1,0,0.1c0,0.1,0,0.1,0,0.2c0,0.2-0.1,0.3-0.3,0.3c-0.1,0-0.3,0-0.4,0c-0.2,0-0.3-0.1-0.5-0.1c0.1,0.1,0.2,0.2,0.2,0.2
			c0.1,0.1,0.1,0.1,0.2,0.2c0.1,0,0.1,0.1,0.2,0.1C8,7.9,8.1,7.9,8.1,8c0.1,0.1,0.1,0.1,0.2,0.2s0.1,0.1,0.1,0.2
			c0.1,0.2,0.1,0.4-0.1,0.4C8.2,8.7,8.1,8.6,8,8.6C8,8.5,7.9,8.4,7.8,8.4C7.8,8.3,7.7,8.3,7.6,8.2S7.4,8,7.3,8
			C7.1,7.8,6.9,7.7,6.7,7.6S6.3,7.4,6.1,7.5C5.9,7.5,5.8,7.6,5.6,7.6C5.5,7.7,5.4,7.8,5.3,8z M6.7,6.1c0.1,0,0.2,0,0.3,0
			c0.1,0,0.2,0,0.3,0.1c-0.1,0-0.2,0-0.3,0S6.8,6.1,6.7,6.1z M7.7,6.3c0,0-0.1,0-0.1,0c0,0-0.1,0-0.1,0c0,0,0,0,0.1,0
			S7.6,6.2,7.7,6.3L7.6,6.2c0,0-0.1,0-0.1,0s-0.1,0-0.1,0c0,0,0,0,0,0v0c0.1,0,0.2,0,0.4,0s0.3,0,0.4,0.1c-0.1,0-0.1,0-0.2,0
			C7.8,6.2,7.8,6.3,7.7,6.3z"/>
		<path d="M6.6,11.9L6.6,11.9C6.6,12,6.6,12,6.6,11.9c-0.1,0.1-0.1,0-0.2-0.1c-0.1-0.1-0.1-0.3-0.1-0.5c-0.1-0.1-0.2-0.1-0.3-0.1
			c-0.2-0.1-0.3-0.2-0.5-0.4c-0.1-0.1-0.1-0.2-0.2-0.2c-0.1-0.1-0.1-0.2-0.2-0.2c-0.1-0.1-0.1-0.2-0.1-0.3C5,9.9,5,9.8,5,9.7
			c0,0,0-0.1,0-0.1c0,0,0-0.1,0-0.1c0,0,0-0.1,0.1-0.2c0-0.1,0-0.1,0.1-0.2c0,0,0.1-0.1,0.1-0.1C5.2,9,5.3,9,5.3,9
			c0-0.1,0.1-0.1,0.2-0.2c0.1-0.1,0.1-0.1,0.2-0.1c0,0,0.1,0,0.1,0s0.1,0,0.1-0.1C6,8.5,6.1,8.5,6.1,8.5s0.2,0,0.3,0s0.2,0,0.2,0
			c0.1,0,0.2,0.1,0.3,0.1s0.2,0,0.3,0.1c0.2,0,0.5,0.2,0.7,0.4l0,0c0,0,0,0,0,0C7.8,9.1,7.7,9.1,7.7,9C7.6,8.9,7.5,8.9,7.4,8.9h0
			c0,0,0.1,0,0.1,0.1C7.6,9,7.7,9,7.7,9.1c0.1,0,0.2,0.1,0.2,0.1s0.1,0.1,0.2,0.1c0,0,0.1,0.1,0.1,0.1c0,0,0,0,0,0c0,0-0.1,0-0.1,0
			S8,9.3,8,9.3c0,0-0.1,0-0.1-0.1c-0.1,0-0.1,0-0.2,0c0,0,0,0,0,0l0,0c0,0,0.1,0.1,0.1,0.1c0.1,0,0.1,0.1,0.1,0.1c0,0-0.1,0-0.1,0
			s-0.1,0-0.1,0C7.9,9.6,8,9.7,8.1,9.7c0.1,0.1,0.2,0.1,0.3,0.2c0,0.1,0,0.2,0.1,0.3s0.1,0.2,0.1,0.3c0,0.1,0,0.2,0,0.2
			c0,0.1,0,0.1-0.1,0.2c0,0,0,0.1,0,0.1c-0.1,0.1-0.1,0.2-0.3,0.3c-0.1,0.1-0.2,0.1-0.3,0.1c-0.2,0-0.3,0-0.5,0c-0.2,0-0.3,0-0.5,0
			l-0.2-0.1C6.6,11.6,6.6,11.8,6.6,11.9z M6.2,10.7C6.2,10.7,6.3,10.7,6.2,10.7c0.1,0,0.1,0,0.1,0c0-0.1,0.1-0.1,0.1-0.2
			c0-0.1,0-0.1,0.1-0.2c0-0.1,0.1-0.1,0.1-0.2s0.1-0.1,0.1-0.2C6.6,9.8,6.5,9.7,6.4,9.7s-0.2,0-0.2-0.1c-0.1,0-0.2-0.1-0.3-0.1
			c-0.1,0-0.2,0-0.4,0.1c0,0,0,0.1,0.1,0.1c0,0,0,0.1,0,0.1c0,0,0.1,0.1,0.1,0.1c0,0,0,0.1,0.1,0.1c0.1,0.1,0.1,0.2,0.2,0.3
			C6,10.5,6.1,10.6,6.2,10.7z M8.2,10.5c-0.2-0.3-0.4-0.4-0.7-0.5c-0.1,0-0.1,0-0.2,0c-0.1,0-0.1,0-0.2,0c-0.1,0-0.1,0-0.2,0
			S7,10.2,6.9,10.2c-0.1,0.1-0.1,0.2-0.2,0.2c0,0,0,0.1,0,0.1c0,0,0,0.1,0,0.1c0,0,0,0.1,0,0.1c0,0.1,0,0.2,0.1,0.2
			C7,11,7.1,11.1,7.2,11.1c0.1,0,0.3,0,0.4,0c0,0,0.1,0,0.1,0c0,0,0.1,0,0.1,0C8,11,8.1,11,8.2,10.8C8.3,10.8,8.3,10.7,8.2,10.5z"/>
		<path d="M13,17.2c0,0.1-0.1,0.2-0.2,0.2s-0.1,0-0.2-0.1c-0.1-0.1-0.3-0.1-0.4-0.2S12,17,11.8,16.9c-0.2-0.1-0.3-0.2-0.5-0.2
			s-0.3-0.2-0.5-0.2c-0.1-0.1-0.3-0.1-0.4-0.2s-0.3-0.1-0.4-0.2C10,16,9.9,16,9.7,15.9c-0.2-0.1-0.5-0.1-0.7-0.2
			c-0.2-0.1-0.5-0.1-0.7-0.2c-0.2,0-0.4-0.1-0.6-0.1c-0.2,0-0.4-0.1-0.6-0.1c-0.2,0-0.3-0.1-0.5-0.1s-0.4-0.1-0.5-0.1
			c-0.2,0-0.3,0-0.5,0c-0.2,0-0.3,0-0.5,0.1c-0.1,0-0.1,0.1-0.2,0.1c-0.1,0-0.1,0-0.2,0c-0.1,0-0.2,0-0.2-0.1
			c-0.1-0.1-0.1-0.2,0-0.3c0-0.1,0.1-0.2,0.2-0.2c0.2-0.1,0.3-0.2,0.5-0.3s0.3-0.1,0.5-0.2c0.1,0,0.1,0,0.1,0c0,0,0.1,0,0.1,0
			c0,0-0.1-0.1-0.1-0.1c0,0-0.1-0.1-0.1-0.1c-0.1,0-0.1-0.1-0.2-0.1c-0.1,0-0.1-0.1-0.2-0.1c-0.1-0.1-0.2-0.1-0.2-0.2
			c-0.1-0.1-0.2-0.2-0.2-0.2l-0.1-0.1c-0.1-0.1-0.2-0.2-0.2-0.4c0-0.1,0-0.3,0-0.4c0,0,0,0,0-0.1c0,0,0,0,0-0.1
			c0.1-0.1,0.1-0.1,0.2-0.2C5,11.9,5,11.9,5.1,11.8c0.1-0.1,0.2-0.1,0.3-0.1c0.1,0,0.2,0,0.3,0c0.1,0,0.2,0,0.3,0
			c0.5,0.1,0.9,0.2,1.3,0.4c0,0,0,0,0.1,0c0,0,0,0,0,0c0,0.1,0.1,0.2,0.2,0.2c0.1,0,0.1,0.1,0.2,0.2c0,0,0.1,0.1,0.1,0.1
			c0,0,0,0.1,0,0.1c0,0,0,0.1,0,0.1c0,0,0,0.1,0,0.1C8,13,8,13.1,8,13.2c0,0.1,0,0.2,0.1,0.3c0.1,0.2,0,0.4-0.1,0.6
			c0,0-0.1,0.1-0.1,0.2c0,0,0.1,0,0.1,0c0,0,0.1,0,0.1,0c0.3,0.1,0.6,0.2,0.9,0.2c0.3,0.1,0.6,0.2,0.9,0.3c0.1,0,0.1,0,0.2,0
			c0.1,0,0.1,0,0.2,0.1c0,0,0,0,0,0c0,0,0,0,0,0.1c0.1,0,0.1,0.1,0.2,0.1c0.1,0,0.1,0,0.2,0.1h0c-0.2-0.1-0.3-0.1-0.4-0.2
			c0.1-0.1,0.2-0.1,0.4,0c0.1,0,0.2,0.1,0.3,0.1c0.1,0,0.2,0.1,0.3,0.1c0,0,0-0.1,0-0.1c0,0,0.1,0,0.1,0c0,0,0.1,0,0.1,0
			c0.3,0.1,0.6,0.2,0.8,0.2c0.1,0,0.3,0,0.4,0.1c0,0,0,0-0.1,0c-0.1,0-0.2,0-0.3-0.1c-0.1,0-0.2,0-0.3,0c-0.1,0-0.2,0-0.2,0
			c0.2,0.1,0.3,0.1,0.4,0.1c0.1,0,0.2,0.1,0.3,0.1c0.1,0,0.2,0,0.2,0.1c0.1,0.1,0.2,0.2,0.3,0.3c0.1,0.1,0.1,0.2,0.1,0.4
			c0,0.2,0,0.4,0,0.6C13.1,17.1,13.1,17.1,13,17.2C13,17.1,13,17.2,13,17.2z M6.5,13.6c0.1,0.1,0.2,0.1,0.2,0.2
			c0.1,0.1,0.2,0.1,0.3,0.1c0.1,0,0.3-0.1,0.4-0.2s0.2-0.2,0.3-0.3c0-0.1-0.1-0.2-0.2-0.3c-0.1-0.1-0.2-0.1-0.3-0.2
			c-0.4-0.2-0.9-0.4-1.3-0.5c-0.1,0-0.2,0-0.3,0c0,0,0,0-0.1,0s-0.1,0-0.1,0c0.2,0.2,0.3,0.4,0.5,0.6S6.3,13.4,6.5,13.6z M8.9,14.5
			C8.9,14.5,8.9,14.5,8.9,14.5C8.9,14.5,8.9,14.4,8.9,14.5c0-0.1,0.1,0,0.1,0s0.1,0,0.1,0c0,0,0.1,0,0.1,0c0.1,0,0.1,0,0.2,0.1
			c0.1,0,0.1,0,0.2,0.1c0.1,0,0.1,0,0.1,0c0,0-0.1,0.1-0.1,0c0,0-0.1,0-0.1,0c0,0-0.1,0-0.1,0c-0.1,0-0.1,0-0.2-0.1
			c-0.1,0-0.1,0-0.2-0.1C9,14.5,9,14.5,8.9,14.5z M11.1,15.3c0,0.1,0.1,0.1,0.1,0.1c0,0,0.1,0,0.2,0l0,0h0c0,0-0.1,0-0.1,0
			S11.1,15.3,11.1,15.3z"/>
		<path d="M6.7,19.9C6.8,20,6.7,20,6.7,19.9C6.6,20,6.4,20,6.3,20c0,0-0.1-0.1-0.3-0.2c-0.1-0.1-0.2-0.2-0.4-0.3
			c-0.1-0.1-0.2-0.2-0.3-0.3C5.3,19.1,5.2,19,5.2,19c0,0,0,0,0.1,0.1c0,0.1,0.1,0.1,0.2,0.2s0.1,0.1,0.2,0.2c0,0.1,0.1,0.1,0,0.1
			c0,0-0.1,0-0.2-0.1c-0.1-0.1-0.3-0.2-0.4-0.3c-0.1-0.1-0.3-0.2-0.4-0.4c-0.1-0.1-0.2-0.2-0.2-0.2c-0.1-0.1-0.1-0.2-0.1-0.4
			c0-0.1,0.1-0.2,0.1-0.2c0-0.1,0.1-0.1,0.1-0.2c0-0.1,0.1-0.1,0.1-0.1c0.1-0.1,0.2-0.2,0.3-0.2c0.1,0,0.2-0.1,0.4-0.1
			c0.1,0,0.2,0,0.3,0s0.2,0,0.2,0H6c0,0,0,0,0-0.1c0,0,0,0,0-0.1c0,0-0.1-0.1-0.1-0.1c0,0-0.1-0.1-0.1-0.1c-0.1-0.1-0.1-0.3-0.1-0.4
			s0-0.3,0-0.4c0-0.1,0.1-0.1,0.1-0.2c0-0.1,0.1-0.1,0.1-0.1c0,0,0.1,0,0.1,0c0,0,0,0,0.1,0c0.1,0,0.3,0,0.4,0.1s0.3,0.1,0.4,0.1
			c0,0,0,0,0,0s0,0,0,0c0,0,0.1,0,0.1,0s0.1,0,0.1,0c0,0,0-0.1,0-0.1c0,0-0.1,0-0.1,0c-0.1,0-0.1,0-0.2-0.1c-0.1,0-0.1,0-0.2,0
			c0,0,0,0-0.1,0c0,0,0,0,0,0c0,0,0,0,0,0c0,0,0,0,0,0s0,0,0,0c0.1,0,0.3,0,0.4,0c0.1,0,0.3,0.1,0.4,0.1c0.1,0,0.2,0.1,0.3,0.2
			C7.8,16,7.9,16,8.1,16c0,0.1-0.1,0.1-0.1,0.1c-0.1,0-0.1,0-0.2,0c0,0,0,0-0.1,0c0,0,0,0,0,0.1c0.1,0,0.2,0.1,0.2,0.1
			c0.1,0,0.1,0.1,0.2,0.1c0,0,0,0.1,0,0.1c0,0.4-0.1,0.5-0.5,0.4c-0.1,0-0.1,0-0.2-0.1c-0.1,0-0.1-0.1-0.2-0.1
			c-0.1-0.1-0.3-0.1-0.4-0.2c-0.1,0-0.3-0.1-0.4-0.1c0,0,0,0,0,0s0,0,0,0v0c0,0,0.1,0.1,0.1,0.1c0,0,0.1,0.1,0.1,0.1
			c0.1,0.1,0.3,0.2,0.4,0.3c0.1,0.1,0.2,0.2,0.4,0.3c0.1,0.1,0.3,0.2,0.4,0.3s0.2,0.2,0.4,0.3c0,0,0,0,0.1,0.1c0,0,0.1,0,0.1,0.1
			c0,0,0,0.1,0,0.1c0,0.1,0,0.1,0,0.1c0,0.1,0,0.3,0,0.4c0,0.1-0.1,0.2-0.1,0.3c0,0,0,0,0,0c0,0,0,0-0.1,0c0,0-0.1,0-0.1,0
			s-0.1,0-0.1,0c-0.2,0-0.4-0.1-0.5-0.2c-0.2-0.1-0.4-0.1-0.5-0.2c-0.1,0-0.2-0.1-0.3-0.1c-0.1,0-0.2,0-0.3-0.1c0,0-0.1,0-0.1,0
			c0,0-0.1,0-0.1,0.1c-0.1,0-0.2,0-0.3-0.1c-0.1,0-0.2,0-0.2-0.1c-0.1,0-0.2,0-0.3-0.1c0,0,0,0-0.1,0c0,0-0.1,0-0.1,0
			c0,0.1,0.1,0.1,0.1,0.1l0.7,0.7c0.2,0.2,0.3,0.3,0.5,0.5C6.5,19.8,6.6,19.9,6.7,19.9z M6.1,18.5L6.1,18.5L6.1,18.5
			c0.1,0,0.1,0,0.2,0c0.1,0,0.1,0,0.2,0.1C6.3,18.6,6.2,18.6,6.1,18.5z M6.5,18.7C6.5,18.7,6.5,18.7,6.5,18.7
			C6.5,18.6,6.5,18.6,6.5,18.7c0.1,0,0.3,0,0.4,0.1s0.2,0.1,0.4,0.2H7.2c-0.1,0-0.2-0.1-0.3-0.1C6.8,18.8,6.7,18.8,6.5,18.7
			C6.6,18.7,6.5,18.7,6.5,18.7z"/>
		<path d="M5.7,22c0,0.1,0,0.1,0,0.1c0,0,0,0.1-0.1,0c0,0-0.1,0-0.1,0c0,0,0,0-0.1,0c-0.1,0-0.2,0-0.3-0.1c0,0,0,0,0,0
			c0,0,0,0,0,0.1C5,22.1,4.9,22,4.7,22c-0.2-0.1-0.3-0.1-0.4-0.2c0,0-0.1,0-0.1-0.1c0,0,0-0.1-0.1-0.1c0,0,0-0.1,0-0.1
			c0,0,0,0,0-0.1c-0.1-0.1-0.2-0.1-0.2-0.2c0,0-0.1-0.1-0.1-0.2c0-0.1-0.1-0.1-0.1-0.2c0,0,0-0.1-0.1-0.1s-0.1-0.1-0.1-0.1
			c0,0-0.1-0.1-0.1-0.1c0,0,0-0.1,0-0.2c0,0,0,0,0-0.1c0,0,0-0.1,0-0.1c0-0.1-0.1-0.2,0-0.2c0,0,0.1,0,0.1,0.1s0,0.1,0,0.1
			c0,0,0,0.1,0.1,0.1c0,0,0,0.1,0.1,0.1c0,0,0,0.1,0.1,0.1c0,0,0.1,0.1,0.1,0.1c0,0,0-0.1,0-0.1c0,0,0,0,0-0.1
			c-0.1-0.1-0.1-0.2-0.2-0.3c0-0.1-0.1-0.2-0.1-0.3c-0.1-0.2-0.1-0.4-0.1-0.6s0.1-0.3,0.2-0.5c0-0.1,0.1-0.1,0.2-0.2
			c0.1-0.1,0.1-0.1,0.2-0.1h0.1c0.2,0,0.3,0,0.5,0.1c0.1,0.1,0.3,0.2,0.4,0.3C5,19,5.1,19.2,5.3,19.4c0.2,0.2,0.3,0.5,0.5,0.7
			c0,0.1,0,0.1,0.1,0.2c0,0,0,0.1,0,0.2c0,0.1,0,0.1-0.1,0.1c-0.1,0-0.2,0-0.3,0c-0.1-0.1-0.2-0.1-0.2-0.2c-0.1-0.1-0.2-0.1-0.2-0.2
			c-0.2-0.2-0.3-0.3-0.5-0.4S4.2,19.5,4,19.4c0,0-0.1,0-0.1,0c0,0-0.1,0-0.1,0c0,0.1,0.1,0.2,0.1,0.3c0,0.1,0.1,0.2,0.2,0.3
			c0,0,0,0,0.1,0.1c0,0,0,0.1,0.1,0.1c0.2,0.2,0.3,0.4,0.5,0.5C5,20.8,5.2,20.9,5.4,21c0.1,0,0.2,0.1,0.2,0.1c0.1,0,0.2,0,0.2,0
			c0,0,0.1,0,0.1,0c0,0,0.1,0,0.1,0c0.1-0.1,0.1-0.1,0.1-0.2c0,0,0-0.1,0-0.1c0,0,0-0.1,0-0.1c0-0.1,0-0.2,0.1-0.4
			c0-0.1,0.1-0.2,0.2-0.3c0.1-0.2,0.2-0.2,0.3-0.3c0.1,0,0.2,0,0.3,0c0.1,0,0.2,0.1,0.3,0.2c0.1,0.1,0.2,0.1,0.3,0.2c0,0,0,0,0,0
			c0,0-0.1,0-0.1,0c0,0,0,0-0.1,0c0,0,0.1,0.1,0.1,0.1c0,0,0.1,0.1,0.1,0.1c0.1,0.1,0.2,0.1,0.3,0.2c0.1,0.1,0.1,0.2,0.2,0.3
			c0.1,0.1,0.1,0.3,0.2,0.4c0,0,0,0.1,0,0.1c0,0,0,0.1,0,0.1c0.1,0.3,0,0.5-0.1,0.7c0,0,0,0,0,0c0,0,0,0,0,0c0,0-0.1,0-0.1,0.1
			c0,0-0.1,0-0.1,0.1c-0.2,0-0.3-0.1-0.5-0.2c-0.1-0.1-0.3-0.3-0.4-0.4C7.1,21.7,7,21.6,7,21.4c0-0.1,0-0.1,0-0.2c0,0,0-0.1,0.1-0.2
			c0,0,0.1,0,0.1,0c0,0,0,0,0.1,0.1c0,0.1,0.1,0.1,0.2,0.2s0.1,0.1,0.2,0.2c0.1,0.1,0.2,0.1,0.3,0.2c0,0,0,0,0.1,0s0,0,0.1,0
			c0,0,0-0.1,0-0.1c0-0.1-0.1-0.1-0.1-0.1c0,0,0-0.1-0.1-0.1c-0.1-0.2-0.3-0.3-0.4-0.5c-0.1-0.1-0.3-0.3-0.5-0.3c0,0-0.1,0-0.1,0
			s-0.1,0-0.1,0c0,0,0,0.1,0,0.2c0,0.1,0,0.1,0,0.2c0,0.4-0.2,0.7-0.3,0.9C6.1,21.9,5.9,22,5.7,22z"/>
	</g>
</g>
</svg>
