<?xml version="1.0" encoding="utf-8"?>
<!-- Generator: Adobe Illustrator 27.7.0, SVG Export Plug-In . SVG Version: 6.00 Build 0)  -->
<svg version="1.1" id="Layer_2_00000123433049734067182310000001022512722131566240_"
	 xmlns="http://www.w3.org/2000/svg" xmlns:xlink="http://www.w3.org/1999/xlink" x="0px" y="0px" viewBox="0 0 13.1 25.8"
	 style="enable-background:new 0 0 13.1 25.8;" xml:space="preserve">
<style type="text/css">
	.st0{enable-background:new    ;}
</style>
<g id="Layer_1-2">
	<g class="st0">
		<path d="M12.2,7.4c-0.1,0-0.1,0-0.2,0c0,0-0.1-0.1-0.1-0.1c-0.2-0.2-0.2-0.4-0.3-0.7c0-0.2-0.1-0.5-0.1-0.7c0-0.2-0.1-0.5-0.1-0.7
			c0-0.1,0-0.3,0-0.4c0-0.1,0-0.3,0-0.4c0-0.2-0.1-0.3-0.2-0.4c-0.2-0.1-0.5-0.3-0.7-0.4c-0.2-0.1-0.5-0.2-0.7-0.3c0,0-0.1,0-0.1,0
			s-0.1,0-0.1,0c0,0.4,0.1,0.7,0.1,1s0.1,0.7,0.2,1c0,0-0.1,0-0.1,0c0,0-0.1,0-0.1,0C9.4,5.1,9.4,4.9,9.3,4.8
			C9.2,4.7,9.1,4.6,9.1,4.4C9,4.3,9,4.2,8.9,4.1c0-0.1,0-0.2-0.1-0.3c0-0.2-0.1-0.3-0.1-0.5c0-0.2-0.1-0.3-0.1-0.5
			c0,0,0-0.1-0.1-0.1S8.5,2.7,8.4,2.6c0,0,0,0,0,0c0,0,0,0,0.1-0.1C8.4,2.5,8.3,2.4,8.1,2.3C8,2.3,7.8,2.2,7.7,2.2
			C7.6,2.1,7.4,2.1,7.3,2.1h0h0h0c-0.1,0-0.1,0-0.2,0c-0.1,0-0.1,0-0.2,0C6.6,2,6.4,2,6.2,1.9C6,1.8,5.8,1.8,5.5,1.7c0,0,0,0-0.1,0
			c0,0-0.1,0-0.1,0c0,0,0,0-0.1,0c0,0,0-0.1,0-0.1c0,0,0,0,0,0c0,0,0,0-0.1,0c-0.1,0-0.2,0-0.2,0s-0.2,0-0.2,0
			c-0.2,0-0.2,0.1-0.2,0.3c0,0.2,0.1,0.3,0.1,0.5c0.1,0.2,0.1,0.3,0.2,0.4c0.2,0.5,0.5,0.9,0.8,1.3c0.3,0.4,0.6,0.8,0.9,1.2
			c0,0,0.1,0.1,0.1,0.1c0,0,0,0.1,0,0.1c-0.2,0-0.3-0.1-0.4-0.2C6,5.3,6,5.2,5.9,5.2C5.8,5.1,5.7,5.1,5.6,5c0,0,0,0-0.1,0
			s0,0-0.1-0.1C5.3,4.6,5,4.3,4.8,4C4.5,3.8,4.3,3.4,4.2,3.1C4,2.8,3.9,2.4,3.9,2c0-0.1,0-0.3,0.1-0.4C4,1.4,4.1,1.3,4.2,1.2
			C4.3,1,4.4,0.9,4.5,0.8c0.1-0.1,0.3-0.2,0.4-0.2c0.2-0.1,0.3-0.1,0.5-0.1c0.2,0,0.3,0,0.5,0c0.2,0,0.5,0.1,0.7,0.2
			C6.8,0.7,7,0.8,7.3,0.9C7.4,0.9,7.6,1,7.8,1s0.3,0.1,0.5,0.2c0,0,0-0.1,0-0.1c0,0,0,0,0,0c0,0,0,0-0.1,0c0,0,0,0,0-0.1
			c0,0,0,0,0.1,0c0,0,0.1,0,0.1,0c0-0.2,0-0.4,0.1-0.6S8.6,0.1,8.8,0c0,0.1,0,0.1,0,0.2c0,0,0,0.1,0,0.1c0,0.2,0.1,0.3,0.1,0.5
			C9,0.9,9,1,9,1.2c0,0.1,0.1,0.2,0.2,0.2c0.2,0.1,0.5,0.3,0.7,0.4c0.2,0.1,0.5,0.2,0.7,0.4c0.1,0.1,0.2,0.1,0.4,0.2
			s0.3,0.1,0.4,0.2c0,0,0.1-0.1,0.1-0.1s0.1-0.1,0.1-0.1c0,0.1,0.1,0.1,0.1,0.2c0,0.1,0,0.1,0.1,0.2c0,0,0.1,0.1,0.1,0.1
			c0.1,0,0.1,0.1,0.2,0.1h-0.4c0.1,0,0.1,0.1,0.1,0.1c0,0,0,0,0.1,0c0.1,0,0.1,0.1,0.2,0.1s0.1,0.1,0.2,0.1c0.2,0.1,0.2,0.3,0.1,0.5
			c0,0.1-0.1,0.1-0.2,0.2c-0.1,0-0.1,0.1-0.2,0.1c0,0-0.1,0.1-0.2,0.1c0,0.3,0,0.5,0,0.8c0,0.3,0,0.5,0.1,0.8c0,0.3,0,0.5,0,0.8
			C12.2,6.9,12.2,7.1,12.2,7.4z M6,1.7c0.3,0.1,0.6,0.2,0.9,0.3C6.8,1.8,6.6,1.8,6.4,1.7C6.3,1.7,6.1,1.6,6,1.7z M6.4,0.5
			c0.1-0.1,0.4-0.1,0.9,0.1c0.1,0,0.3,0.1,0.4,0.2C7.8,0.8,8,0.9,8.1,1c0,0-0.1,0-0.1,0c0,0-0.1,0-0.1,0C7.7,0.8,7.5,0.7,7.2,0.7
			C7,0.6,6.8,0.5,6.5,0.5C6.5,0.5,6.5,0.5,6.4,0.5C6.4,0.5,6.4,0.5,6.4,0.5z M7.7,2.2c0.1,0,0.1,0.1,0.2,0.1C8,2.4,8,2.4,8.1,2.4
			c0,0,0.1,0,0.1,0.1c0.1,0,0.1,0.1,0.2,0.1c-0.1,0-0.1,0-0.2-0.1c-0.1,0-0.1,0-0.2-0.1c-0.1,0-0.2-0.1-0.4-0.2S7.4,2.2,7.3,2.1
			C7.4,2.2,7.6,2.2,7.7,2.2L7.7,2.2L7.7,2.2z M8.1,1L8.1,1L8.1,1C8.1,1,8.1,1,8.1,1z M8.4,2.6C8.4,2.6,8.4,2.6,8.4,2.6L8.4,2.6
			L8.4,2.6z M9.7,1.8c-0.1,0-0.2-0.1-0.2-0.1c-0.1,0-0.1-0.1-0.2-0.1c0.1,0,0.1,0.1,0.1,0.1c0,0,0.1,0,0.1,0.1c0,0,0.1,0,0.1,0
			C9.6,1.8,9.6,1.8,9.7,1.8z M10.1,2c0.1,0.1,0.1,0.1,0.1,0.1c0,0,0.1,0,0.2,0c-0.1,0-0.1,0-0.2-0.1C10.2,2.1,10.2,2,10.1,2z"/>
		<path d="M6.6,8.6C6.5,8.5,6.4,8.3,6.3,8.2C6.1,8,6,7.9,5.9,7.7c0,0-0.1,0-0.1,0c0,0-0.1,0-0.1-0.1c0,0.1,0,0.2,0,0.2
			c0,0.1,0,0.1,0,0.2c0,0.2,0,0.3,0,0.5c0,0.2,0,0.3-0.1,0.5c0,0.1-0.1,0.2-0.2,0.3C5.3,9.3,5.2,9.4,5.1,9.3c0,0,0-0.1,0-0.1
			c0,0,0-0.1,0-0.1V8.3c0-0.2,0-0.4,0-0.6c0-0.2-0.1-0.4-0.2-0.6c0-0.1,0-0.1,0-0.2c0-0.1,0-0.1,0-0.2c-0.1-0.3,0-0.5,0.3-0.6
			c0.1,0,0.1,0,0.2,0s0.1,0,0.2,0.1c0.2,0.1,0.3,0.2,0.4,0.3C6,6.5,6.2,6.7,6.3,6.8c0,0,0,0,0,0c0,0,0,0,0,0.1c0,0-0.1,0-0.1,0
			c0,0,0,0,0.1,0C6.4,7,6.5,7.1,6.6,7.2c0.1,0.1,0.2,0.1,0.2,0.2c0.1,0,0.1,0.1,0.2,0.1s0.1,0.1,0.1,0.1c0,0,0.1,0.1,0.1,0.1
			s0,0.1,0,0.1v0c0,0,0,0,0,0C7.3,8,7.4,8.2,7.5,8.3c0.1,0.1,0.2,0.3,0.4,0.4c0-0.1,0-0.1,0-0.1c0,0,0-0.1,0-0.1c0-0.2,0-0.4,0-0.7
			s0-0.5,0-0.7c0-0.1,0-0.2,0-0.3c0-0.1,0.1-0.2,0.2-0.2c0,0,0.1,0.1,0.1,0.1c0,0,0,0.1,0,0.1c0.1,0.4,0.2,0.8,0.3,1.1
			s0,0.8-0.1,1.2c0,0.1-0.1,0.2-0.1,0.3c0,0.1-0.1,0.2-0.2,0.3C7.8,9.8,7.7,9.8,7.5,9.6C7.4,9.4,7.2,9.3,7.1,9.1
			C6.9,8.9,6.8,8.8,6.6,8.6z M6.6,7L6.6,7C6.6,7,6.6,7,6.6,7C6.5,7,6.5,7,6.6,7c-0.1,0-0.1,0-0.2-0.1C6.4,6.9,6.4,6.9,6.6,7
			C6.5,6.9,6.5,7,6.6,7z"/>
		<path d="M6.7,13.2c0,0-0.1,0-0.2-0.1c-0.1-0.1-0.2-0.1-0.3-0.3c-0.1-0.1-0.1-0.1-0.2-0.2c0-0.1-0.1-0.1-0.2-0.2
			c0,0-0.1-0.1-0.2-0.1c-0.1,0-0.1-0.1-0.2-0.1c-0.3-0.2-0.5-0.5-0.6-0.8c-0.1-0.1-0.1-0.3-0.1-0.4s0-0.3,0-0.5c0,0,0-0.1,0-0.1
			c0,0,0-0.1,0-0.1C5,10.3,5,10.2,5.1,10.1C5.2,10,5.2,10,5.3,9.9c0,0,0.1-0.1,0.1-0.1c0,0,0.1,0,0.1,0c0.2,0,0.3,0,0.5,0
			c0.1,0,0.1,0,0.2,0c0.1,0,0.2,0,0.3,0c0.1,0,0.2,0.1,0.4,0.1C7,10,7.1,10.1,7.2,10.2c-0.1,0-0.1-0.1-0.2-0.1
			c-0.1,0-0.1-0.1-0.2-0.1c-0.1,0-0.1,0-0.2-0.1c-0.1,0-0.1,0-0.2,0c0.2,0.1,0.3,0.2,0.4,0.2c0.1,0,0.3,0.1,0.4,0.2
			c0.1,0.1,0.2,0.2,0.3,0.2c0.1,0.1,0.2,0.2,0.3,0.2c0,0,0,0.1,0,0.1c0,0,0,0.1,0,0.1c0.1,0.1,0.2,0.3,0.2,0.4
			c0,0.2,0.1,0.3,0.1,0.5c0,0.2,0,0.3-0.1,0.5c0,0,0,0.1,0,0.1c0,0,0,0.1-0.1,0.1c0,0,0,0.1-0.1,0.1c0,0,0,0-0.1,0
			c-0.1,0.1-0.1,0.2-0.2,0.2s-0.2,0-0.2,0c-0.1,0-0.1-0.1-0.2-0.1c-0.1,0-0.1-0.1-0.2-0.1c-0.1-0.1-0.2-0.2-0.3-0.3S6.7,12.1,6.7,12
			c-0.1-0.2-0.2-0.4-0.2-0.6c0-0.1,0-0.2,0-0.2c0-0.1,0-0.1,0-0.1c0,0-0.1-0.1-0.1-0.1c0,0-0.1,0-0.2-0.1c-0.1,0-0.2-0.1-0.3-0.1
			c-0.1,0-0.2-0.1-0.3-0.1c0,0-0.1,0-0.1,0s-0.1,0-0.1,0c0,0.1,0,0.2,0,0.2c0,0.1,0.1,0.1,0.1,0.2c0.1,0.1,0.1,0.2,0.2,0.4
			c0.1,0.1,0.1,0.2,0.2,0.4c0.1,0.2,0.2,0.3,0.4,0.5s0.3,0.3,0.4,0.5v0c0,0.1,0.1,0.1,0.1,0.1C6.7,13.1,6.7,13.2,6.7,13.2
			C6.8,13.2,6.8,13.2,6.7,13.2z M7.8,12c-0.2-0.3-0.5-0.5-0.8-0.6c0.1,0.1,0.2,0.3,0.2,0.4s0.2,0.2,0.3,0.3c0,0,0,0,0,0
			c0,0,0,0,0.1,0C7.7,12.1,7.8,12,7.8,12z"/>
		<path d="M6.7,17.1C6.7,17.1,6.7,17.1,6.7,17.1c-0.1,0.1-0.1,0-0.2,0c-0.1,0-0.2-0.1-0.3-0.1c-0.1-0.1-0.2-0.1-0.4-0.2
			c-0.1-0.1-0.2-0.1-0.3-0.2c0,0-0.1-0.1-0.1-0.1c0,0-0.1,0-0.1-0.1c-0.2-0.1-0.3-0.3-0.4-0.5c0-0.1,0-0.2,0-0.3
			c0-0.1,0.1-0.2,0.1-0.3C5,15.2,5.1,15.1,5.2,15c0.1-0.1,0.1-0.1,0.2-0.2c0.1-0.1,0.2-0.1,0.2-0.2c0.1-0.1,0.3-0.1,0.4-0.2
			c0.1-0.1,0.2-0.1,0.4-0.2c0.1,0,0.1-0.1,0.2-0.1c0.1,0,0.1-0.1,0.2-0.1c0,0-0.1,0-0.1,0c0,0-0.1,0-0.1,0c-0.1,0-0.2,0-0.3,0
			c-0.1,0-0.2,0-0.3,0c-0.1,0-0.1,0-0.2,0c-0.1,0-0.2,0-0.4,0c-0.1,0-0.2,0-0.4-0.1c-0.1-0.1-0.1-0.3,0-0.4c0.1-0.2,0.2-0.3,0.3-0.3
			c0.1,0,0.2,0,0.2,0c0.1,0,0.2,0,0.2,0c0.1,0,0.2,0,0.3,0c0.1,0,0.2,0,0.3,0c0.1,0,0.1,0,0.2,0c0.1,0,0.2,0,0.2,0
			c0.1,0,0.2,0,0.3,0c0.1,0,0.2,0,0.3,0v0c0,0-0.1,0-0.1,0c0,0-0.1,0-0.2,0c0.2,0,0.3,0.1,0.4,0.1c0.1,0,0.3,0.1,0.4,0.1
			c0,0,0,0,0,0c0,0-0.1,0-0.1,0c-0.1,0-0.1,0-0.2,0c-0.1,0-0.1,0-0.2,0s-0.1,0-0.1,0v0v0c0,0,0,0,0,0c0,0,0.1,0,0.2,0
			c0.1,0,0.2,0.1,0.3,0.1c0.1,0,0.3,0.1,0.4,0.1c0.1,0,0.3,0.1,0.4,0.1C9,13.6,9,13.6,9,13.6s0,0-0.1,0c-0.1,0-0.1,0-0.2,0
			c-0.1,0-0.1,0-0.2,0c-0.1,0-0.1,0-0.1,0c0,0,0,0,0,0c0,0,0.1,0.1,0.1,0.1c0.1,0,0.2,0.1,0.3,0.1c0.1,0,0.2,0.1,0.4,0.1
			c0.4,0.1,0.8,0.2,1.3,0.4c0.1,0,0.1,0,0.2,0.1c0.1,0,0.2,0,0.2,0.1c0,0,0,0,0,0s0,0,0,0.1c0.1,0,0.2,0,0.3,0.1c0,0-0.1,0-0.1,0
			s-0.1,0-0.1,0c0,0,0.1,0,0.1,0s0.1,0,0.1,0c0.2,0.1,0.4,0.2,0.5,0.2c0.1,0,0.2,0,0.3,0.1c0.1,0,0.2,0.1,0.3,0.1
			c0.1,0.1,0.1,0.2,0.1,0.3v0.6c0,0,0,0.1,0,0.1c0,0,0,0.1,0,0.1c0,0.1-0.1,0.2-0.1,0.2c0,0-0.1,0-0.2,0c0,0-0.1,0-0.1,0
			c-0.1,0-0.1,0-0.2-0.1c-0.3-0.2-0.6-0.3-0.8-0.5c-0.3-0.1-0.6-0.3-0.9-0.4c-0.1-0.1-0.2-0.1-0.3-0.1c-0.1,0-0.2-0.1-0.3-0.1
			c0,0,0,0.1,0,0.1c0,0,0,0,0,0.1c0,0,0,0.1,0,0.1c0,0,0,0.1,0.1,0.2c0,0-0.1-0.1-0.1-0.1c0,0-0.1-0.1-0.1-0.1c0,0,0,0-0.1,0
			c0,0,0,0.1,0,0.1c0,0,0,0.1,0,0.1c0,0,0,0.1,0,0.1s0,0.1,0,0.1c0,0,0,0.1,0,0.1c0,0,0,0.1,0,0.1c0,0.1,0,0.2,0,0.3
			c0,0.2-0.1,0.4-0.3,0.6c-0.1,0.1-0.2,0.1-0.3,0c-0.1,0-0.2-0.1-0.3-0.1c-0.2-0.1-0.4-0.3-0.6-0.4c-0.2-0.2-0.3-0.4-0.5-0.6
			c0,0-0.1-0.1-0.1-0.1c-0.1-0.1-0.1-0.2-0.2-0.3c0-0.1-0.1-0.2-0.1-0.3c0,0,0-0.1,0-0.1c0,0,0,0,0-0.1c-0.1,0-0.2,0-0.3,0.1
			c-0.4,0.2-0.8,0.4-1.1,0.6c-0.2,0.1-0.3,0.2-0.4,0.4c0,0,0,0,0,0c0,0,0,0.1,0,0.1c0,0,0.1,0.1,0.2,0.2c0.1,0.1,0.3,0.2,0.4,0.3
			c0.2,0.1,0.3,0.2,0.4,0.3S6.7,17.1,6.7,17.1z M7.6,14.6C7.6,14.7,7.6,14.7,7.6,14.6c0,0.1,0,0.1,0,0.1c0.1,0.2,0.2,0.3,0.2,0.4
			s0.2,0.2,0.3,0.4c0,0,0.1,0.1,0.1,0.1c0,0,0.1,0.1,0.1,0.1c0,0.1,0.1,0.1,0.1,0.1c0.1,0,0.1,0,0.1,0c0,0,0,0,0.1,0c0,0,0,0,0.1,0
			c0,0,0.1,0,0.1,0.1c0,0,0.1,0,0.1,0.1c0,0,0,0,0,0c0,0,0,0,0,0C9,16,9,15.9,8.8,15.7s-0.3-0.3-0.4-0.4C8.3,15.2,8.2,15,8,14.9
			C7.9,14.8,7.7,14.7,7.6,14.6z M9.3,13.7C9.3,13.7,9.3,13.7,9.3,13.7c-0.1,0-0.1-0.1-0.2-0.1C9.2,13.6,9.2,13.6,9.3,13.7
			C9.3,13.6,9.3,13.6,9.3,13.7C9.4,13.7,9.4,13.7,9.3,13.7L9.3,13.7L9.3,13.7C9.3,13.7,9.3,13.7,9.3,13.7z M9.9,13.9L9.9,13.9
			C9.9,13.8,9.9,13.8,9.9,13.9c0.1,0,0.1,0,0.2,0c0.1,0,0.1,0,0.2,0.1c0,0,0,0-0.1,0c0,0-0.1,0-0.1,0C10,13.9,9.9,13.9,9.9,13.9z"/>
		<path d="M4.9,17.1C4.9,17,5,17,5.1,16.9s0.3-0.1,0.5-0.1c0,0,0.1,0,0.1,0c0,0,0.1,0,0.1,0c0.1,0,0.3,0.1,0.4,0.1
			c0.1,0,0.2,0.1,0.4,0.1c0.2,0.1,0.4,0.1,0.6,0.2c0.2,0.1,0.4,0.1,0.6,0.2c0,0,0,0,0.1,0c0,0,0,0,0.1,0c0,0.2,0,0.3,0,0.4
			c0,0.1-0.1,0.3-0.2,0.4c0,0-0.1,0-0.1,0s-0.1,0-0.1,0c-0.1,0-0.1,0-0.2,0c-0.1,0-0.1,0-0.2,0c0,0-0.1,0-0.1,0c0,0,0,0,0,0h0
			c0,0,0,0,0,0c0.1,0,0.2,0.1,0.3,0.1c0.1,0,0.1,0,0.2,0.1c0.1,0,0.1,0,0.1,0c0,0,0,0-0.1,0c-0.1,0-0.1,0-0.2-0.1
			c-0.1,0-0.2,0-0.2-0.1c-0.1,0-0.1,0-0.1,0s0,0,0,0c0,0,0.1,0,0.1,0c0,0,0.1,0,0.1,0.1c0,0,0,0,0,0c0,0-0.1,0-0.2-0.1
			s-0.3-0.1-0.4-0.2C6.4,18,6.2,18,6,17.9c-0.1,0-0.2-0.1-0.3-0.1c-0.1,0-0.2,0-0.2,0s-0.1,0-0.1,0c0,0,0,0,0,0s0,0,0,0
			c0,0,0.1,0,0.1,0c0,0,0.1,0,0.1,0.1H5.4c0,0,0,0.1,0,0.1c0.2,0.3,0.5,0.6,0.8,0.8c0.1,0.1,0.2,0.1,0.2,0.2
			c0.1,0.1,0.1,0.1,0.2,0.2c0,0,0,0,0,0.1s0,0.1,0,0.1c0,0,0,0-0.1,0s-0.1,0-0.2-0.1c-0.1,0-0.1-0.1-0.2-0.1c-0.1,0-0.1,0-0.1-0.1
			c0,0-0.1-0.1-0.2-0.2c-0.1-0.1-0.2-0.2-0.3-0.3c-0.1-0.1-0.3-0.3-0.5-0.4L5,18c0-0.1-0.1-0.1-0.1-0.2c0-0.1-0.1-0.1-0.1-0.1
			c0-0.1,0-0.2,0-0.3C4.8,17.3,4.8,17.2,4.9,17.1z M8.8,17.6c0,0.1,0,0.1,0,0.2c0,0,0,0.1,0,0.1c0,0.2,0,0.3-0.1,0.4
			c-0.1,0.1-0.1,0.1-0.2,0.1c-0.1,0-0.2-0.1-0.3-0.2c-0.1-0.1-0.1-0.2,0-0.3c0-0.1,0-0.2,0.1-0.3c0-0.1,0-0.1,0.1-0.2s0.1,0,0.2,0
			C8.6,17.5,8.7,17.6,8.8,17.6z"/>
		<path d="M6.7,22.4c0,0-0.1,0-0.2-0.1s-0.2-0.1-0.3-0.3C6.2,22.1,6.1,22,6.1,22S6,21.8,5.9,21.8c0,0-0.1-0.1-0.2-0.1
			c-0.1,0-0.1-0.1-0.2-0.2c-0.3-0.2-0.5-0.5-0.6-0.8c-0.1-0.1-0.1-0.3-0.1-0.4c0-0.2,0-0.3,0-0.5c0,0,0-0.1,0-0.1c0,0,0-0.1,0-0.1
			C5,19.5,5,19.4,5.1,19.3c0.1-0.1,0.1-0.2,0.2-0.2c0,0,0.1-0.1,0.1-0.1c0,0,0.1,0,0.1,0c0.2,0,0.3,0,0.5,0c0.1,0,0.1,0,0.2,0
			c0.1,0,0.2,0,0.3,0c0.1,0,0.2,0.1,0.4,0.1s0.2,0.1,0.3,0.2c-0.1,0-0.1,0-0.2-0.1c-0.1,0-0.1-0.1-0.2-0.1c-0.1,0-0.1,0-0.2-0.1
			c-0.1,0-0.1,0-0.2,0c0.2,0.1,0.3,0.2,0.4,0.2s0.3,0.1,0.4,0.2c0.1,0.1,0.2,0.2,0.3,0.2c0.1,0.1,0.2,0.2,0.3,0.2c0,0,0,0.1,0,0.1
			c0,0,0,0.1,0,0.1c0.1,0.1,0.2,0.3,0.2,0.4c0,0.2,0.1,0.3,0.1,0.5c0,0.2,0,0.3-0.1,0.5c0,0,0,0.1,0,0.1c0,0,0,0.1-0.1,0.1
			c0,0,0,0.1-0.1,0.1s0,0-0.1,0c-0.1,0.1-0.1,0.2-0.2,0.2s-0.2,0-0.2,0c-0.1,0-0.1-0.1-0.2-0.1c-0.1,0-0.1-0.1-0.2-0.1
			c-0.1-0.1-0.2-0.2-0.3-0.3c-0.1-0.1-0.2-0.2-0.2-0.3c-0.1-0.2-0.2-0.4-0.2-0.6c0-0.1,0-0.2,0-0.2c0-0.1,0-0.1,0-0.1
			c0,0-0.1-0.1-0.1-0.1s-0.1,0-0.2-0.1c-0.1,0-0.2-0.1-0.3-0.1C5.7,20,5.6,20,5.5,20c0,0-0.1,0-0.1,0s-0.1,0-0.1,0
			c0,0.1,0,0.2,0,0.2c0,0.1,0.1,0.1,0.1,0.2c0.1,0.1,0.1,0.2,0.2,0.4c0.1,0.1,0.1,0.2,0.2,0.4c0.1,0.2,0.2,0.3,0.4,0.5
			s0.3,0.3,0.4,0.5v0c0,0.1,0.1,0.1,0.1,0.1C6.7,22.3,6.7,22.3,6.7,22.4C6.8,22.4,6.8,22.4,6.7,22.4z M7.8,21.2
			c-0.2-0.3-0.5-0.5-0.8-0.6c0.1,0.1,0.2,0.3,0.2,0.4c0.1,0.1,0.2,0.2,0.3,0.3c0,0,0,0,0,0c0,0,0,0,0.1,0
			C7.7,21.3,7.8,21.2,7.8,21.2z"/>
		<path d="M12.4,25.7c-0.1,0.1-0.1,0.1-0.3,0c0,0-0.1,0-0.1,0c-0.2-0.1-0.3-0.2-0.5-0.3s-0.4-0.2-0.5-0.3c-0.1,0-0.1-0.1-0.2-0.1
			c-0.1,0-0.1-0.1-0.2-0.1c-0.5-0.2-1-0.5-1.5-0.7c-0.2-0.1-0.3-0.1-0.5-0.2c-0.2-0.1-0.3-0.1-0.4-0.2c-0.2-0.1-0.4-0.2-0.6-0.2
			c-0.2-0.1-0.4-0.2-0.6-0.2c-0.1,0-0.1,0-0.2,0c0,0-0.1,0-0.1,0s-0.1,0-0.1,0c-0.1,0-0.2-0.1-0.3-0.1c-0.1,0-0.2-0.1-0.3-0.1
			c-0.1,0-0.2-0.1-0.2-0.1c-0.1,0-0.1,0-0.2,0s-0.1,0-0.1,0c0,0,0,0.1,0.2,0.2c0.1,0.1,0.2,0.2,0.3,0.4c0.1,0.1,0.3,0.3,0.5,0.5
			c0,0,0,0.1,0.1,0.1c0,0,0.1,0.1,0.1,0.1c0,0,0,0-0.1,0c-0.1,0-0.1,0-0.1,0c0,0-0.1-0.1-0.3-0.2S5.9,24.2,5.7,24
			c-0.2-0.1-0.4-0.3-0.6-0.4c-0.2-0.1-0.3-0.2-0.3-0.3c-0.1-0.2-0.2-0.3-0.3-0.5c0-0.1,0-0.2,0-0.3c0,0,0-0.1,0.1-0.1
			c0,0,0-0.1,0.1-0.1c0.1-0.1,0.2-0.2,0.3-0.2c0.1,0,0.1,0,0.1,0c0,0,0.1,0,0.1,0c0.2,0,0.3,0.1,0.5,0.1c0.2,0,0.3,0.1,0.5,0.1
			c0.1,0,0.1,0,0.2,0c0.1,0,0.1,0,0.2,0c0,0,0.1,0,0.1,0c0,0,0.1,0,0.2,0s0.1,0,0.2,0c0,0,0.1,0,0.2,0s0.2,0.1,0.3,0.1
			c0.1,0,0.2,0.1,0.3,0.1c0.1,0,0.2,0.1,0.2,0.1c0,0-0.1,0-0.2,0c-0.1,0-0.2,0-0.3-0.1c-0.1,0-0.2-0.1-0.3-0.1c-0.1,0-0.2,0-0.2,0
			c0,0,0,0.1,0,0.1c0,0,0,0,0.1,0c0.2,0.1,0.5,0.2,0.7,0.2c0.2,0.1,0.5,0.1,0.7,0.2c0.1,0,0.1,0,0.2,0c0.1,0,0.1,0,0.2,0
			c0,0,0,0,0,0s0,0,0,0c0.1,0,0.2,0,0.2,0c0.1,0,0.1,0.1,0.2,0.1c0.1,0,0.2,0.1,0.3,0.1c0.1,0,0.2,0.1,0.3,0.1c-0.1,0-0.3,0-0.4-0.1
			c-0.1-0.1-0.3-0.1-0.5-0.1c0.1,0.1,0.2,0.1,0.3,0.1c0.1,0,0.2,0.1,0.3,0.1c0.2,0.1,0.3,0.2,0.5,0.2c0.2,0.1,0.4,0.1,0.6,0.2
			c0.1,0,0.2,0.1,0.3,0.1c0.1,0,0.2,0.1,0.3,0.1c0.2,0.1,0.3,0.1,0.4,0.3c0,0,0.1,0,0.1,0.1s0.1,0,0.1,0.1c0.2,0.1,0.3,0.2,0.3,0.5
			c0,0.1,0,0.2,0,0.3s0,0.2,0,0.3C12.5,25.6,12.5,25.6,12.4,25.7z"/>
	</g>
</g>
</svg>
