<?xml version="1.0" encoding="utf-8"?>
<!-- Generator: Adobe Illustrator 27.7.0, SVG Export Plug-In . SVG Version: 6.00 Build 0)  -->
<svg version="1.1" id="Layer_2_00000178201126000998319090000007560595901624667046_"
	 xmlns="http://www.w3.org/2000/svg" xmlns:xlink="http://www.w3.org/1999/xlink" x="0px" y="0px" viewBox="0 0 13.1 36.1"
	 style="enable-background:new 0 0 13.1 36.1;" xml:space="preserve">
<style type="text/css">
	.st0{enable-background:new    ;}
</style>
<g id="Layer_1-2">
	<g class="st0">
		<path d="M12.1,6.7c0,0.1,0,0.2,0,0.3s0,0.3,0,0.4c0,0.1,0,0.2-0.1,0.3c0,0.1-0.1,0.1-0.2,0.1c-0.3-0.1-0.5-0.2-0.8-0.3
			s-0.5-0.2-0.8-0.2C10,7.2,9.7,7.1,9.5,7.1S9,6.9,8.7,6.9C8.1,6.7,7.5,6.5,6.9,6.4C6.3,6.2,5.7,6,5.1,5.9C5,5.9,4.8,5.8,4.7,5.8
			S4.3,5.7,4.2,5.7c-0.2,0-0.3,0-0.5,0c-0.2,0-0.3,0.1-0.3,0.2C3.3,5.8,3.2,5.6,3.2,5.5c0-0.1,0-0.3,0.1-0.4C3.4,5,3.4,5,3.5,4.9
			c0.1-0.1,0.2-0.1,0.3-0.1c0.2,0,0.5,0,0.7,0c0.2,0,0.5,0.1,0.7,0.1c0.1,0,0.2,0,0.3,0.1c0.1,0,0.2,0,0.3-0.1c0,0,0,0,0.1,0
			c0,0,0.1,0,0.1,0C6.3,4.9,6.6,4.9,6.8,5C7,5,7.3,5.1,7.5,5.1c0.1,0,0.2,0,0.3,0c0,0,0-0.1,0-0.1c0,0,0-0.1,0-0.1
			c0-0.4-0.1-0.7-0.1-1s-0.1-0.7-0.2-1c0-0.1,0-0.2-0.1-0.3S7.4,2.4,7.4,2.3c0-0.1-0.1-0.2-0.3-0.3C7.1,2,7,2,6.9,2
			c-0.1,0-0.2,0-0.3-0.1C6.3,1.8,6,1.7,5.6,1.6C5.3,1.5,5,1.4,4.6,1.3c0,0-0.1,0-0.1,0c-0.1,0-0.1,0-0.2,0S4.3,1.2,4.3,1.1
			c0-0.1,0-0.1,0-0.2s0.1-0.1,0.1-0.1c0.1-0.1,0.3-0.2,0.5-0.2s0.3-0.1,0.5,0c0.1,0,0.3,0,0.4,0.1s0.3,0.1,0.4,0.1
			c0.1,0,0.2,0,0.2,0.1c0.1,0,0.2,0,0.3,0.1C6.7,0.7,6.7,0.6,6.7,0.4c0-0.1,0.1-0.2,0.3-0.3C7.2,0,7.3,0,7.5,0.2
			c0.1,0.1,0.1,0.2,0.2,0.3s0.1,0.2,0.2,0.3C7.9,1,8,1,8.1,1.1c0.4,0.1,0.8,0.2,1.1,0.3s0.8,0.2,1.1,0.3c0.1,0,0.1,0,0.2,0.1
			c0.1,0,0.1,0.1,0.2,0.1c0.2,0,0.3,0,0.5,0s0.3,0.1,0.5,0.2c-0.1,0-0.2,0-0.2,0c-0.1,0-0.2,0-0.2,0c0.1,0.1,0.2,0.1,0.3,0.2
			c0.1,0.1,0.2,0.1,0.3,0.1c0.1,0,0.2,0,0.2,0.1c0.1,0,0.1,0.1,0.2,0.1c0.1,0,0.1,0.1,0.1,0.3c0,0.2,0,0.3,0,0.5s0,0.3-0.1,0.4
			s-0.1,0.2-0.2,0.2c-0.1-0.1-0.3-0.1-0.6-0.2c-0.2-0.1-0.5-0.2-0.7-0.3s-0.5-0.2-0.7-0.3C9.9,3,9.7,2.9,9.6,2.9
			C9.4,2.8,9.2,2.8,9,2.7C8.9,2.6,8.7,2.6,8.5,2.5c0,0.2,0.1,0.3,0.1,0.5c0,0.2,0.1,0.3,0.1,0.5v0c0,0,0,0.1,0,0.1c0,0,0,0.1,0,0.1
			c0,0.2,0,0.3,0,0.5c0,0.2,0,0.3,0,0.5c0,0.1,0,0.3-0.1,0.4c-0.1,0.1-0.1,0.2,0,0.3s0.1,0.1,0.3,0.1c0.2,0,0.3,0.1,0.5,0.1
			c0.2,0,0.3,0.1,0.5,0.1c0,0,0.1,0,0.1,0c0,0,0.1,0,0.2,0.1c-0.2,0-0.5-0.1-0.7-0.1c-0.2,0-0.5-0.1-0.7-0.1l0,0.1c0,0,0.1,0,0.1,0
			c0,0,0.1,0,0.1,0c0.1,0,0.3,0.1,0.4,0.1c0.1,0,0.3,0.1,0.4,0.1c0.3,0.1,0.6,0.1,0.9,0.2s0.6,0.2,0.9,0.2c0.1,0,0.1,0,0.2,0
			c0.1,0,0.1,0,0.2,0C12,6.4,12.1,6.5,12.1,6.7z M6.3,5c0.2,0.1,0.5,0.1,0.7,0.2s0.5,0.1,0.8,0.2C7.8,5.3,7.7,5.2,7.6,5.2
			c-0.1,0-0.2,0-0.3-0.1c-0.1,0-0.2-0.1-0.3-0.1c-0.1,0-0.2,0-0.3,0c-0.1,0-0.2,0-0.2,0S6.4,5,6.3,5z M8.7,3.5
			c0,0.1,0.1,0.3,0.1,0.4c0,0.1,0.1,0.3,0.1,0.4C8.8,4.2,8.8,4,8.8,3.9S8.7,3.6,8.7,3.5z M8.9,4.4C8.9,4.4,8.9,4.4,8.9,4.4
			C8.9,4.4,8.9,4.3,8.9,4.4C8.9,4.3,8.9,4.3,8.9,4.4C8.9,4.3,8.9,4.3,8.9,4.4C8.9,4.3,8.9,4.3,8.9,4.4C8.9,4.3,8.9,4.4,8.9,4.4z
			 M9.1,5.2L9.1,5.2C9,5.1,9,5,9,4.8c0-0.1,0-0.3,0-0.4C8.9,4.5,9,4.6,9,4.8C9,4.9,9.1,5,9.1,5.2z M9.5,1.7c0.1,0,0.2,0.1,0.3,0.1
			s0.2,0.1,0.3,0.1c0,0,0-0.1,0-0.1c-0.1,0-0.2-0.1-0.3-0.1S9.7,1.7,9.5,1.7C9.5,1.6,9.5,1.7,9.5,1.7z"/>
		<path d="M6.7,11.8c0,0,0,0.1-0.1,0.1c-0.1,0-0.1,0-0.2,0c0,0-0.1-0.1-0.3-0.2c-0.1-0.1-0.3-0.2-0.5-0.4c-0.2-0.1-0.3-0.3-0.5-0.4
			C5.1,10.8,5,10.7,5,10.6c0-0.1-0.1-0.2-0.1-0.3c0-0.1,0-0.2,0-0.3c0-0.1,0-0.2,0.1-0.2C4.9,9.7,5,9.7,5,9.6c0.1,0,0.1-0.1,0.2-0.1
			c0.1,0,0.2,0,0.3-0.1c0.1,0,0.2,0,0.3,0L5.6,9.1c0,0,0-0.1,0-0.1c0,0,0-0.1,0-0.1C5.4,8.8,5.3,8.7,5.3,8.6c0-0.1-0.1-0.2-0.1-0.3
			c0-0.1,0-0.2,0-0.4c0-0.1,0.1-0.2,0.2-0.3c0.1-0.1,0.1-0.2,0.2-0.3c0.1-0.1,0.2-0.1,0.3-0.1c0.2,0,0.3,0,0.5,0s0.3,0,0.5,0
			c0.3,0.1,0.5,0.2,0.7,0.4c0,0,0.1,0.1,0.1,0.1c0,0,0,0,0.1,0.1s0,0,0.1,0.1c0,0,0,0,0,0c0,0,0,0,0,0c0,0-0.1,0-0.1-0.1
			c0,0,0,0,0,0.1c0,0,0,0,0,0c0,0,0.1,0.1,0.1,0.1C7.8,8,7.9,8,7.9,8c0,0,0,0.1,0,0.1c0,0,0,0-0.1,0c0,0,0-0.1-0.1-0.1c0,0,0,0,0,0
			v0c0,0,0.1,0.1,0.1,0.1c0,0,0.1,0,0.1,0C8,8.1,8,8,8,7.9C8,8,8.1,8,8.1,8.1c0,0.1,0,0.2,0,0.3s0,0.2,0,0.3c0,0,0,0.1,0,0.1
			c0,0,0,0,0,0.1c0,0,0,0,0,0c0,0,0,0,0,0c0,0,0-0.1,0-0.1s0-0.1,0-0.1s0-0.1,0-0.1c0,0,0,0,0,0c0,0,0,0,0,0v0.1c0,0,0,0.1,0,0.2
			c0,0.1,0,0.2-0.1,0.3c0,0.1-0.1,0.2-0.1,0.3c0,0.1-0.1,0.2-0.2,0.2c0,0.1,0,0.1,0.1,0.1c0,0,0.1,0.1,0.2,0.1c0,0,0.1,0,0.1,0.1
			S8,10,8.1,10c0,0,0,0,0,0c0,0,0,0,0,0c0,0.1,0.1,0.2,0,0.3c0,0.1-0.1,0.2-0.2,0.3c0,0-0.1,0.1-0.1,0.1c0.1,0,0.1,0.1,0.2,0.1
			c0.1,0,0.1,0,0.2,0.1c0,0,0,0,0,0c0,0,0,0,0,0c-0.1,0-0.3-0.1-0.4-0.1c-0.1,0-0.2-0.1-0.4-0.1c-0.2-0.1-0.3-0.1-0.5-0.2
			c-0.2-0.1-0.3-0.1-0.5-0.2c-0.1,0-0.2-0.1-0.3-0.1c-0.1,0-0.2,0-0.3-0.1s-0.2,0-0.2,0c-0.1,0-0.1,0-0.1,0c0.1,0,0.1,0,0.2,0.1
			c0.1,0,0.1,0,0.2,0.1c0,0,0.1,0,0.1,0c0,0,0.1,0,0.1,0c0,0,0,0,0,0c0,0,0,0,0,0h0l0.1,0.1c0.1,0,0.1,0.1,0.1,0.1c0,0,0,0-0.1,0
			s-0.1-0.1-0.2-0.1c0,0,0,0-0.1,0c0,0,0,0-0.1,0c-0.1,0-0.1,0-0.2,0s-0.1,0-0.1,0c-0.1,0-0.1,0,0,0.1C5.7,10.7,5.8,10.8,6,11
			c0.1,0.1,0.2,0.3,0.4,0.4s0.2,0.2,0.3,0.3S6.7,11.8,6.7,11.8z M7.1,9.3c0,0,0.1,0.1,0.1,0.1s0.1,0.1,0.1,0.1c0,0,0.1-0.1,0.1-0.1
			c0.1-0.1,0.1-0.3,0-0.4C7.3,8.9,7.2,8.9,7.1,8.8C7.1,8.7,7,8.6,6.9,8.6C6.7,8.2,6.4,8,6,8c0,0-0.1,0-0.1,0c0,0.1,0.1,0.2,0.2,0.3
			C6.3,8.7,6.7,9,7.1,9.3z"/>
		<path d="M10.4,14.4c-0.1,0-0.1,0-0.2,0s-0.1,0-0.1-0.1c-0.3-0.2-0.6-0.3-0.9-0.5c-0.3-0.1-0.6-0.3-0.9-0.4c-0.1,0-0.1-0.1-0.2-0.1
			c-0.1,0-0.1,0-0.2,0c0,0,0,0,0,0.1c0,0,0,0,0,0c0,0,0,0.1,0.1,0.1c0,0,0,0.1,0.1,0.1c0.1,0.1,0.1,0.2,0.1,0.3c0,0.1,0,0.2,0,0.3
			c0,0.2-0.1,0.3-0.1,0.4S7.9,15,7.7,15c0,0-0.1,0-0.1,0c0,0-0.1,0-0.1,0c0,0.1,0.1,0.1,0.2,0.1s0.1,0,0.2,0
			c-0.1,0.1-0.2,0.2-0.3,0.1c-0.1,0-0.1,0-0.2,0c-0.1,0-0.1,0-0.2,0c-0.2,0-0.3-0.1-0.5-0.1s-0.3,0-0.5-0.1c0,0-0.1,0-0.1,0
			c0,0,0,0-0.1-0.1c0,0,0,0-0.1,0s-0.1,0-0.1,0C5.9,15,5.8,15,5.7,15c-0.1,0-0.2-0.1-0.3-0.1c0,0,0,0,0,0c0,0,0,0,0,0
			c0-0.1-0.1-0.1-0.2-0.1c-0.1,0-0.1-0.1-0.1-0.1C5.1,14.4,5,14.3,5,14.1c0-0.2,0-0.3,0-0.4c0-0.2,0.1-0.3,0.2-0.5s0.2-0.3,0.3-0.4
			c0,0,0,0,0,0c0,0,0,0,0,0v0c-0.1,0-0.2,0-0.3-0.1c-0.1,0-0.2,0-0.4,0c-0.2,0-0.3-0.1-0.3-0.2c0.1-0.1,0.1-0.2,0.2-0.3
			c0.1-0.1,0.2-0.2,0.3-0.2c0.2-0.1,0.3-0.1,0.4-0.1c0.1,0,0.3,0,0.5,0c0.1,0,0.2,0,0.3,0c0.1,0,0.2,0,0.3,0c0,0,0,0,0.1,0
			c0.2,0,0.4,0,0.6,0c0.2,0.1,0.4,0.1,0.6,0.1c0.4,0.1,0.7,0.2,1,0.3c0.3,0.1,0.7,0.2,1,0.3c0.3,0.1,0.5,0.2,0.8,0.2
			c0.3,0.1,0.5,0.1,0.8,0.2c0.1,0,0.2,0.1,0.3,0.1c0.1,0,0.2,0.1,0.3,0.1c0,0,0.1,0,0.1,0.1c0,0,0.1,0,0.1,0.1c0,0.1,0,0.1,0,0.2
			c0,0,0.1,0.1,0.1,0.1c-0.1,0-0.1,0-0.2,0c-0.1,0-0.1,0-0.2,0c0,0,0-0.1,0-0.1c0,0-0.1-0.1-0.2-0.1c-0.1,0-0.2,0-0.3,0
			c0.1,0.1,0.3,0.2,0.4,0.2c0,0,0,0.1,0.1,0.1c0,0,0,0,0.1,0c0.1,0,0.1,0.1,0.2,0.1c0.1,0,0.1,0.1,0.2,0.1c0.1,0.1,0.2,0.1,0.2,0.2
			c0,0.3-0.1,0.6-0.2,0.8c0,0,0,0.1,0,0.1c0,0,0,0.1,0,0.1c0,0,0,0.1-0.1,0.1s0,0-0.1,0.1c-0.1,0-0.1-0.1-0.2-0.1
			c-0.1,0-0.1-0.1-0.2-0.1c-0.1-0.1-0.3-0.2-0.5-0.3s-0.3-0.2-0.5-0.2c0,0-0.1-0.1-0.1-0.1c-0.1,0-0.1,0-0.2-0.1
			C10.6,14.4,10.5,14.4,10.4,14.4C10.4,14.4,10.4,14.4,10.4,14.4z M7.5,14.1C7.5,14.1,7.5,14,7.5,14.1c-0.2-0.3-0.4-0.5-0.6-0.6
			S6.5,13.2,6.3,13c0,0,0,0-0.1,0c0,0-0.1,0-0.1,0c-0.1,0-0.1,0-0.2,0.1c-0.1,0-0.1,0.1-0.2,0.1c-0.2,0.1-0.2,0.2-0.2,0.3
			c0,0.1,0,0.2,0.1,0.3c0,0,0,0,0.1,0.1c0.1,0,0.2,0.1,0.2,0.1C6,14,6,14,6.1,14c0,0,0.1,0,0.1,0s0.1,0,0.1,0
			c0.1,0.1,0.1,0.1,0.2,0.1c0,0,0.1,0.1,0.1,0.1s0.1,0,0.1,0c0.1,0,0.2,0,0.3,0c0.1,0,0.2,0,0.3,0C7.4,14.2,7.5,14.2,7.5,14.1z
			 M11.5,13.2c0-0.1-0.1-0.1-0.2-0.1c-0.1,0-0.1-0.1-0.2-0.1c-0.1,0-0.2-0.1-0.3-0.1c-0.1,0-0.2-0.1-0.3-0.1
			c-0.2-0.1-0.3-0.1-0.5-0.1c-0.2,0-0.3-0.1-0.5-0.1c0,0-0.1,0-0.1,0c0,0,0,0-0.1,0c0.1,0,0.2,0.1,0.4,0.2c0.2,0.1,0.4,0.1,0.6,0.2
			c0.2,0.1,0.4,0.1,0.6,0.2C11.2,13.2,11.4,13.2,11.5,13.2z"/>
		<path d="M6.7,20.4c0,0,0,0.1-0.1,0.1c-0.1,0-0.1,0-0.2,0c0,0-0.1-0.1-0.3-0.2C6,20.2,5.9,20,5.7,19.9s-0.3-0.3-0.5-0.4
			C5.1,19.3,5,19.2,5,19.1S4.9,19,4.9,18.9c0-0.1,0-0.2,0-0.3c0-0.1,0-0.2,0.1-0.2c0-0.1,0.1-0.1,0.1-0.2c0.1,0,0.1-0.1,0.2-0.1
			c0.1,0,0.2,0,0.3-0.1c0.1,0,0.2,0,0.3,0l-0.3-0.4c0,0,0-0.1,0-0.1c0,0,0-0.1,0-0.1c-0.1-0.1-0.1-0.2-0.2-0.3
			c0-0.1-0.1-0.2-0.1-0.3c0-0.1,0-0.2,0-0.4c0-0.1,0.1-0.2,0.2-0.3c0.1-0.1,0.1-0.2,0.2-0.3c0.1-0.1,0.2-0.1,0.3-0.1
			c0.2,0,0.3,0,0.5,0s0.3,0,0.5,0c0.3,0.1,0.5,0.2,0.7,0.4c0,0,0.1,0.1,0.1,0.1c0,0,0,0,0.1,0.1s0,0,0.1,0.1c0,0,0,0,0,0
			c0,0,0,0,0,0c0,0-0.1,0-0.1-0.1c0,0,0,0,0,0.1c0,0,0,0,0,0c0,0,0.1,0.1,0.1,0.1c0,0,0.1,0.1,0.1,0.1c0,0,0,0.1,0,0.1
			c0,0,0,0-0.1,0c0,0,0-0.1-0.1-0.1c0,0,0,0,0,0v0c0,0,0.1,0.1,0.1,0.1c0,0,0.1,0,0.1,0c0-0.1,0-0.2,0-0.3c0.1,0,0.1,0.1,0.1,0.2
			c0,0.1,0,0.2,0,0.3s0,0.2,0,0.3c0,0,0,0.1,0,0.1c0,0,0,0,0,0.1c0,0,0,0,0,0c0,0,0,0,0,0c0,0,0-0.1,0-0.1s0-0.1,0-0.1s0-0.1,0-0.1
			c0,0,0,0,0,0c0,0,0,0,0,0v0.1c0,0,0,0.1,0,0.2c0,0.1,0,0.2-0.1,0.3c0,0.1-0.1,0.2-0.1,0.3c0,0.1-0.1,0.2-0.2,0.2
			c0,0.1,0,0.1,0.1,0.1c0,0,0.1,0.1,0.2,0.1c0,0,0.1,0,0.1,0.1s0.1,0,0.1,0.1c0,0,0,0,0,0c0,0,0,0,0,0c0,0.1,0.1,0.2,0,0.3
			S8,19.2,7.9,19.2c0,0-0.1,0.1-0.1,0.1c0.1,0,0.1,0.1,0.2,0.1c0.1,0,0.1,0,0.2,0.1c0,0,0,0,0,0s0,0,0,0c-0.1,0-0.3-0.1-0.4-0.1
			s-0.2-0.1-0.4-0.1c-0.2-0.1-0.3-0.1-0.5-0.2c-0.2-0.1-0.3-0.1-0.5-0.2c-0.1,0-0.2-0.1-0.3-0.1c-0.1,0-0.2,0-0.3-0.1
			c-0.1,0-0.2,0-0.2,0c-0.1,0-0.1,0-0.1,0c0.1,0,0.1,0,0.2,0.1c0.1,0,0.1,0,0.2,0.1c0,0,0.1,0,0.1,0c0,0,0.1,0,0.1,0c0,0,0,0,0,0
			c0,0,0,0,0,0h0l0.1,0.1c0.1,0,0.1,0.1,0.1,0.1c0,0,0,0-0.1,0s-0.1-0.1-0.2-0.1c0,0,0,0-0.1,0c0,0,0,0-0.1,0c-0.1,0-0.1,0-0.2,0
			c-0.1,0-0.1,0-0.1,0c-0.1,0-0.1,0,0,0.1c0.1,0.1,0.2,0.2,0.3,0.4c0.1,0.1,0.2,0.3,0.4,0.4s0.2,0.2,0.3,0.3S6.7,20.4,6.7,20.4z
			 M7.1,17.9c0,0,0.1,0.1,0.1,0.1s0.1,0.1,0.1,0.1c0,0,0.1-0.1,0.1-0.1c0.1-0.1,0.1-0.3,0-0.4c-0.1-0.1-0.1-0.2-0.2-0.2
			c-0.1-0.1-0.1-0.1-0.2-0.2c-0.3-0.3-0.6-0.5-1-0.6c0,0-0.1,0-0.1,0c0,0.1,0.1,0.2,0.2,0.3C6.3,17.2,6.7,17.6,7.1,17.9z"/>
		<path d="M6.7,24.3C6.7,24.3,6.7,24.3,6.7,24.3c-0.1,0.1-0.1,0-0.2,0c-0.1,0-0.2-0.1-0.3-0.1C6.1,24.1,6,24,5.8,23.9
			c-0.1-0.1-0.2-0.1-0.3-0.2c0,0-0.1-0.1-0.1-0.1c0,0-0.1,0-0.1-0.1c-0.2-0.1-0.3-0.3-0.4-0.5c0-0.1,0-0.2,0-0.3
			c0-0.1,0.1-0.2,0.1-0.3c0.1-0.1,0.1-0.2,0.2-0.3c0.1-0.1,0.1-0.1,0.2-0.2c0.1-0.1,0.2-0.1,0.2-0.2c0.1-0.1,0.3-0.1,0.4-0.2
			c0.1-0.1,0.2-0.1,0.4-0.2c0.1,0,0.1-0.1,0.2-0.1c0.1,0,0.1-0.1,0.2-0.1c0,0-0.1,0-0.1,0c0,0-0.1,0-0.1,0c-0.1,0-0.2,0-0.3,0
			c-0.1,0-0.2,0-0.3,0c-0.1,0-0.1,0-0.2,0c-0.1,0-0.2,0-0.4,0c-0.1,0-0.2,0-0.4-0.1c-0.1-0.1-0.1-0.3,0-0.4c0.1-0.2,0.2-0.3,0.3-0.3
			c0.1,0,0.2,0,0.2,0s0.2,0,0.2,0c0.1,0,0.2,0,0.3,0c0.1,0,0.2,0,0.3,0c0.1,0,0.1,0,0.2,0c0.1,0,0.2,0,0.2,0c0.1,0,0.2,0,0.3,0
			c0.1,0,0.2,0,0.3,0v0c0,0-0.1,0-0.1,0c0,0-0.1,0-0.2,0c0.2,0,0.3,0.1,0.4,0.1c0.1,0,0.3,0.1,0.4,0.1c0,0,0,0,0,0c0,0-0.1,0-0.1,0
			s-0.1,0-0.2,0c-0.1,0-0.1,0-0.2,0s-0.1,0-0.1,0v0v0c0,0,0,0,0,0c0,0,0.1,0,0.2,0c0.1,0,0.2,0.1,0.3,0.1s0.3,0.1,0.4,0.1
			c0.1,0,0.3,0.1,0.4,0.1C9,20.8,9,20.8,9,20.8s0,0-0.1,0c-0.1,0-0.1,0-0.2,0c-0.1,0-0.1,0-0.2,0c-0.1,0-0.1,0-0.1,0c0,0,0,0,0,0
			s0.1,0.1,0.1,0.1c0.1,0,0.2,0.1,0.3,0.1c0.1,0,0.2,0.1,0.4,0.1c0.4,0.1,0.8,0.2,1.3,0.4c0.1,0,0.1,0,0.2,0.1c0.1,0,0.2,0,0.2,0.1
			c0,0,0,0,0,0s0,0,0,0.1c0.1,0,0.2,0,0.3,0.1c0,0-0.1,0-0.1,0s-0.1,0-0.1,0c0,0,0.1,0,0.1,0c0,0,0.1,0,0.1,0
			c0.2,0.1,0.4,0.2,0.5,0.2c0.1,0,0.2,0,0.3,0.1s0.2,0.1,0.3,0.1c0.1,0.1,0.1,0.2,0.1,0.3V23c0,0,0,0.1,0,0.1c0,0,0,0.1,0,0.1
			c0,0.1-0.1,0.2-0.1,0.2s-0.1,0-0.2,0c0,0-0.1,0-0.1,0c-0.1,0-0.1,0-0.2-0.1c-0.3-0.2-0.6-0.3-0.8-0.4c-0.3-0.1-0.6-0.3-0.9-0.4
			c-0.1-0.1-0.2-0.1-0.3-0.1c-0.1,0-0.2-0.1-0.3-0.1c0,0,0,0.1,0,0.1c0,0,0,0,0,0.1c0,0,0,0.1,0,0.1c0,0,0,0.1,0.1,0.2
			c0,0-0.1-0.1-0.1-0.1s-0.1-0.1-0.1-0.1c0,0,0,0-0.1,0c0,0,0,0.1,0,0.1c0,0,0,0.1,0,0.1c0,0,0,0.1,0,0.1s0,0.1,0,0.1
			c0,0,0,0.1,0,0.1c0,0,0,0.1,0,0.1c0,0.1,0,0.2,0,0.3c0,0.2-0.1,0.4-0.3,0.6C9.1,24,9,24,8.9,24c-0.1,0-0.2-0.1-0.3-0.1
			c-0.2-0.1-0.4-0.3-0.6-0.4c-0.2-0.2-0.3-0.4-0.5-0.6c0,0-0.1-0.1-0.1-0.1c-0.1-0.1-0.1-0.2-0.2-0.3s-0.1-0.2-0.1-0.3
			c0,0,0-0.1,0-0.1c0,0,0,0,0-0.1c-0.1,0-0.2,0-0.3,0.1c-0.4,0.2-0.8,0.4-1.1,0.6c-0.2,0.1-0.3,0.2-0.4,0.4c0,0,0,0,0,0s0,0.1,0,0.1
			c0,0,0.1,0.1,0.2,0.2c0.1,0.1,0.3,0.2,0.4,0.3s0.3,0.2,0.4,0.3C6.6,24.2,6.7,24.3,6.7,24.3z M7.6,21.8C7.6,21.8,7.6,21.9,7.6,21.8
			c0,0.1,0,0.1,0,0.1c0.1,0.2,0.2,0.3,0.2,0.4s0.2,0.2,0.3,0.4c0,0,0.1,0.1,0.1,0.1c0,0,0.1,0.1,0.1,0.1C8.4,23,8.5,23,8.5,23
			c0.1,0,0.1,0,0.1,0c0,0,0,0,0.1,0c0,0,0,0,0.1,0c0,0,0.1,0,0.1,0.1c0,0,0.1,0,0.1,0.1c0,0,0,0,0,0c0,0,0,0,0,0
			c0-0.1-0.1-0.2-0.2-0.3c-0.1-0.1-0.3-0.3-0.4-0.4c-0.1-0.1-0.3-0.3-0.4-0.4C7.9,21.9,7.7,21.9,7.6,21.8z M9.3,20.9
			C9.3,20.9,9.3,20.9,9.3,20.9c-0.1,0-0.1-0.1-0.2-0.1C9.2,20.8,9.2,20.8,9.3,20.9C9.3,20.8,9.3,20.8,9.3,20.9
			C9.4,20.8,9.4,20.8,9.3,20.9L9.3,20.9L9.3,20.9C9.3,20.9,9.3,20.9,9.3,20.9z M9.9,21L9.9,21C9.9,21,9.9,21,9.9,21
			c0.1,0,0.1,0,0.2,0c0.1,0,0.1,0,0.2,0.1c0,0,0,0-0.1,0c0,0-0.1,0-0.1,0C10,21.1,9.9,21,9.9,21z"/>
		<path d="M6.7,28.1C6.7,28.2,6.7,28.2,6.7,28.1c-0.1,0.1-0.1,0-0.2,0c-0.1,0-0.2-0.1-0.3-0.1c-0.1-0.1-0.2-0.1-0.4-0.2
			c-0.1-0.1-0.2-0.1-0.3-0.2c0,0-0.1-0.1-0.1-0.1c0,0-0.1,0-0.1-0.1c-0.2-0.1-0.3-0.3-0.4-0.5c0-0.1,0-0.2,0-0.3
			c0-0.1,0.1-0.2,0.1-0.3c0.1-0.1,0.1-0.2,0.2-0.3c0.1-0.1,0.1-0.1,0.2-0.2c0.1-0.1,0.2-0.1,0.2-0.2c0.1-0.1,0.3-0.1,0.4-0.2
			c0.1-0.1,0.2-0.1,0.4-0.2c0.1,0,0.1-0.1,0.2-0.1c0.1,0,0.1-0.1,0.2-0.1c0,0-0.1,0-0.1,0c0,0-0.1,0-0.1,0c-0.1,0-0.2,0-0.3,0
			c-0.1,0-0.2,0-0.3,0c-0.1,0-0.1,0-0.2,0c-0.1,0-0.2,0-0.4,0c-0.1,0-0.2,0-0.4-0.1c-0.1-0.1-0.1-0.3,0-0.4c0.1-0.2,0.2-0.3,0.3-0.3
			c0.1,0,0.2,0,0.2,0c0.1,0,0.2,0,0.2,0c0.1,0,0.2,0,0.3,0c0.1,0,0.2,0,0.3,0c0.1,0,0.1,0,0.2,0c0.1,0,0.2,0,0.2,0
			c0.1,0,0.2,0,0.3,0c0.1,0,0.2,0,0.3,0v0c0,0-0.1,0-0.1,0s-0.1,0-0.2,0c0.2,0,0.3,0.1,0.4,0.1c0.1,0,0.3,0.1,0.4,0.1c0,0,0,0,0,0
			c0,0-0.1,0-0.1,0c-0.1,0-0.1,0-0.2,0c-0.1,0-0.1,0-0.2,0s-0.1,0-0.1,0v0v0c0,0,0,0,0,0c0,0,0.1,0,0.2,0c0.1,0,0.2,0.1,0.3,0.1
			c0.1,0,0.3,0.1,0.4,0.1c0.1,0,0.3,0.1,0.4,0.1C9,24.6,9,24.7,9,24.7s0,0-0.1,0s-0.1,0-0.2,0c-0.1,0-0.1,0-0.2,0
			c-0.1,0-0.1,0-0.1,0c0,0,0,0,0,0c0,0,0.1,0.1,0.1,0.1c0.1,0,0.2,0.1,0.3,0.1c0.1,0,0.2,0.1,0.4,0.1c0.4,0.1,0.8,0.2,1.3,0.4
			c0.1,0,0.1,0,0.2,0.1c0.1,0,0.2,0,0.2,0.1c0,0,0,0,0,0s0,0,0,0.1c0.1,0,0.2,0,0.3,0.1c0,0-0.1,0-0.1,0s-0.1,0-0.1,0
			c0,0,0.1,0,0.1,0s0.1,0,0.1,0c0.2,0.1,0.4,0.2,0.5,0.2c0.1,0,0.2,0,0.3,0.1c0.1,0,0.2,0.1,0.3,0.1c0.1,0.1,0.1,0.2,0.1,0.3v0.6
			c0,0,0,0.1,0,0.1c0,0,0,0.1,0,0.1c0,0.1-0.1,0.2-0.1,0.2c0,0-0.1,0-0.2,0c0,0-0.1,0-0.1,0c-0.1,0-0.1,0-0.2-0.1
			c-0.3-0.2-0.6-0.3-0.8-0.5c-0.3-0.1-0.6-0.3-0.9-0.4c-0.1-0.1-0.2-0.1-0.3-0.1c-0.1,0-0.2-0.1-0.3-0.1c0,0,0,0.1,0,0.1
			c0,0,0,0,0,0.1c0,0,0,0.1,0,0.1c0,0,0,0.1,0.1,0.2c0,0-0.1-0.1-0.1-0.1c0,0-0.1-0.1-0.1-0.1c0,0,0,0-0.1,0c0,0,0,0.1,0,0.1
			c0,0,0,0.1,0,0.1c0,0,0,0.1,0,0.1s0,0.1,0,0.1c0,0,0,0.1,0,0.1c0,0,0,0.1,0,0.1c0,0.1,0,0.2,0,0.3c0,0.2-0.1,0.4-0.3,0.6
			c-0.1,0.1-0.2,0.1-0.3,0c-0.1,0-0.2-0.1-0.3-0.1c-0.2-0.1-0.4-0.3-0.6-0.4c-0.2-0.2-0.3-0.4-0.5-0.6c0,0-0.1-0.1-0.1-0.1
			c-0.1-0.1-0.1-0.2-0.2-0.3c0-0.1-0.1-0.2-0.1-0.3c0,0,0-0.1,0-0.1c0,0,0,0,0-0.1c-0.1,0-0.2,0-0.3,0.1c-0.4,0.2-0.8,0.4-1.1,0.6
			c-0.2,0.1-0.3,0.2-0.4,0.4c0,0,0,0,0,0c0,0,0,0.1,0,0.1c0,0,0.1,0.1,0.2,0.2c0.1,0.1,0.3,0.2,0.4,0.3c0.2,0.1,0.3,0.2,0.4,0.3
			S6.7,28.1,6.7,28.1z M7.6,25.7C7.6,25.7,7.6,25.7,7.6,25.7c0,0.1,0,0.1,0,0.1c0.1,0.2,0.2,0.3,0.2,0.4s0.2,0.2,0.3,0.4
			c0,0,0.1,0.1,0.1,0.1c0,0,0.1,0.1,0.1,0.1c0,0.1,0.1,0.1,0.1,0.1c0.1,0,0.1,0,0.1,0c0,0,0,0,0.1,0c0,0,0,0,0.1,0
			c0,0,0.1,0,0.1,0.1s0.1,0,0.1,0.1c0,0,0,0,0,0c0,0,0,0,0,0C9,27,9,26.9,8.8,26.8s-0.3-0.3-0.4-0.4c-0.1-0.1-0.3-0.3-0.4-0.4
			C7.9,25.8,7.7,25.7,7.6,25.7z M9.3,24.8C9.3,24.7,9.3,24.7,9.3,24.8c-0.1,0-0.1-0.1-0.2-0.1C9.2,24.7,9.2,24.6,9.3,24.8
			C9.3,24.7,9.3,24.7,9.3,24.8C9.4,24.7,9.4,24.7,9.3,24.8L9.3,24.8L9.3,24.8C9.3,24.7,9.3,24.7,9.3,24.8z M9.9,24.9L9.9,24.9
			C9.9,24.9,9.9,24.9,9.9,24.9c0.1,0,0.1,0,0.2,0c0.1,0,0.1,0,0.2,0.1c0,0,0,0-0.1,0c0,0-0.1,0-0.1,0C10,24.9,9.9,24.9,9.9,24.9z"/>
		<path d="M6.7,32.2C6.8,32.2,6.7,32.2,6.7,32.2c-0.1,0.1-0.2,0.1-0.3,0.1c0,0-0.1-0.1-0.3-0.2C6,32,5.8,31.9,5.7,31.7
			s-0.2-0.2-0.3-0.3c-0.1-0.1-0.2-0.2-0.2-0.2c0,0,0,0,0.1,0.1s0.1,0.1,0.2,0.2c0.1,0.1,0.1,0.1,0.2,0.2c0,0.1,0.1,0.1,0,0.1
			c0,0-0.1,0-0.2-0.1c-0.1-0.1-0.3-0.2-0.4-0.3c-0.1-0.1-0.3-0.2-0.4-0.4c-0.1-0.1-0.2-0.2-0.2-0.2c-0.1-0.1-0.1-0.2-0.1-0.4
			c0-0.1,0.1-0.2,0.1-0.2c0-0.1,0.1-0.1,0.1-0.2c0-0.1,0.1-0.1,0.1-0.1c0.1-0.1,0.2-0.2,0.3-0.2c0.1,0,0.2-0.1,0.4-0.1
			c0.1,0,0.2,0,0.3,0s0.2,0,0.2,0H6c0,0,0,0,0-0.1c0,0,0,0,0-0.1c0,0-0.1-0.1-0.1-0.1c0,0-0.1-0.1-0.1-0.1c-0.1-0.1-0.1-0.3-0.1-0.4
			s0-0.3,0-0.4c0-0.1,0.1-0.1,0.1-0.2c0-0.1,0.1-0.1,0.1-0.1c0,0,0.1,0,0.1,0c0,0,0,0,0.1,0c0.1,0,0.3,0,0.4,0.1s0.3,0.1,0.4,0.1
			c0,0,0,0,0,0s0,0,0,0c0,0,0.1,0,0.1,0c0,0,0.1,0,0.1,0c0,0,0-0.1,0-0.1c0,0-0.1,0-0.1,0c-0.1,0-0.1,0-0.2-0.1c-0.1,0-0.1,0-0.2,0
			c0,0,0,0-0.1,0c0,0,0,0,0,0c0,0,0,0,0,0c0,0,0,0,0,0c0,0,0,0,0,0c0.1,0,0.3,0,0.4,0c0.1,0,0.3,0.1,0.4,0.1c0.1,0,0.2,0.1,0.3,0.2
			c0.1,0.1,0.2,0.1,0.3,0.1c0,0.1-0.1,0.1-0.1,0.1c-0.1,0-0.1,0-0.2,0c0,0,0,0-0.1,0c0,0,0,0,0,0.1c0.1,0,0.2,0.1,0.2,0.1
			c0.1,0,0.1,0.1,0.2,0.1c0,0,0,0.1,0,0.1c0,0.4-0.1,0.5-0.5,0.4c-0.1,0-0.1,0-0.2-0.1C7.4,29,7.3,29,7.2,29
			c-0.1-0.1-0.3-0.1-0.4-0.2c-0.1,0-0.3-0.1-0.4-0.1c0,0,0,0,0,0s0,0,0,0v0c0,0,0.1,0.1,0.1,0.1c0,0,0.1,0.1,0.1,0.1
			c0.1,0.1,0.3,0.2,0.4,0.3c0.1,0.1,0.2,0.2,0.4,0.3c0.1,0.1,0.3,0.2,0.4,0.3s0.2,0.2,0.4,0.3c0,0,0,0,0.1,0.1s0.1,0,0.1,0.1
			c0,0,0,0.1,0,0.2s0,0.1,0,0.1c0,0.1,0,0.3,0,0.4S8.2,31,8.1,31.1c0,0,0,0,0,0c0,0,0,0-0.1,0c0,0-0.1,0-0.1,0s-0.1,0-0.1,0
			c-0.2,0-0.4-0.1-0.5-0.2c-0.2-0.1-0.4-0.1-0.5-0.2c-0.1,0-0.2-0.1-0.3-0.1c-0.1,0-0.2,0-0.3-0.1c0,0-0.1,0-0.1,0
			c0,0-0.1,0-0.1,0.1c-0.1,0-0.2,0-0.3-0.1c-0.1,0-0.2,0-0.2-0.1c-0.1,0-0.2,0-0.3-0.1c0,0,0,0-0.1,0c0,0-0.1,0-0.1,0
			c0,0.1,0.1,0.1,0.1,0.1l0.7,0.7c0.2,0.2,0.3,0.3,0.5,0.5C6.5,32,6.6,32.1,6.7,32.2z M6.1,30.8L6.1,30.8L6.1,30.8
			c0.1,0,0.1,0,0.2,0c0.1,0,0.1,0,0.2,0.1C6.3,30.9,6.2,30.9,6.1,30.8z M6.5,30.9C6.5,30.9,6.5,30.9,6.5,30.9
			C6.5,30.9,6.5,30.9,6.5,30.9c0.1,0,0.3,0,0.4,0.1s0.2,0.1,0.4,0.1H7.2c-0.1,0-0.2-0.1-0.3-0.1C6.8,31.1,6.7,31,6.5,30.9
			C6.6,31,6.5,31,6.5,30.9z"/>
		<path d="M6.7,36C6.7,36.1,6.7,36.1,6.7,36c-0.1,0.1-0.1,0-0.2,0c-0.1,0-0.2-0.1-0.3-0.1c-0.1-0.1-0.2-0.1-0.4-0.2
			c-0.1-0.1-0.2-0.1-0.3-0.2c0,0-0.1-0.1-0.1-0.1c0,0-0.1,0-0.1-0.1c-0.2-0.1-0.3-0.3-0.4-0.5c0-0.1,0-0.2,0-0.3
			c0-0.1,0.1-0.2,0.1-0.3C5,34.1,5.1,34,5.2,34c0.1-0.1,0.1-0.1,0.2-0.2c0.1-0.1,0.2-0.1,0.2-0.2c0.1-0.1,0.3-0.1,0.4-0.2
			c0.1-0.1,0.2-0.1,0.4-0.2c0.1,0,0.1-0.1,0.2-0.1c0.1,0,0.1-0.1,0.2-0.1c0,0-0.1,0-0.1,0c0,0-0.1,0-0.1,0c-0.1,0-0.2,0-0.3,0
			c-0.1,0-0.2,0-0.3,0c-0.1,0-0.1,0-0.2,0c-0.1,0-0.2,0-0.4,0c-0.1,0-0.2,0-0.4-0.1c-0.1-0.1-0.1-0.3,0-0.4c0.1-0.2,0.2-0.3,0.3-0.3
			c0.1,0,0.2,0,0.2,0s0.2,0,0.2,0c0.1,0,0.2,0,0.3,0c0.1,0,0.2,0,0.3,0c0.1,0,0.1,0,0.2,0c0.1,0,0.2,0,0.2,0c0.1,0,0.2,0,0.3,0
			c0.1,0,0.2,0,0.3,0v0c0,0-0.1,0-0.1,0c0,0-0.1,0-0.2,0c0.2,0,0.3,0.1,0.4,0.1c0.1,0,0.3,0.1,0.4,0.1c0,0,0,0,0,0c0,0-0.1,0-0.1,0
			s-0.1,0-0.2,0c-0.1,0-0.1,0-0.2,0s-0.1,0-0.1,0v0v0c0,0,0,0,0,0c0,0,0.1,0,0.2,0c0.1,0,0.2,0.1,0.3,0.1s0.3,0.1,0.4,0.1
			c0.1,0,0.3,0.1,0.4,0.1C9,32.5,9,32.6,9,32.6s0,0-0.1,0c-0.1,0-0.1,0-0.2,0c-0.1,0-0.1,0-0.2,0c-0.1,0-0.1,0-0.1,0c0,0,0,0,0,0
			s0.1,0.1,0.1,0.1c0.1,0,0.2,0.1,0.3,0.1c0.1,0,0.2,0.1,0.4,0.1c0.4,0.1,0.8,0.2,1.3,0.4c0.1,0,0.1,0,0.2,0.1c0.1,0,0.2,0,0.2,0.1
			c0,0,0,0,0,0s0,0,0,0.1c0.1,0,0.2,0,0.3,0.1c0,0-0.1,0-0.1,0s-0.1,0-0.1,0c0,0,0.1,0,0.1,0c0,0,0.1,0,0.1,0
			c0.2,0.1,0.4,0.2,0.5,0.2c0.1,0,0.2,0,0.3,0.1s0.2,0.1,0.3,0.1c0.1,0.1,0.1,0.2,0.1,0.3v0.6c0,0,0,0.1,0,0.1c0,0,0,0.1,0,0.1
			c0,0.1-0.1,0.2-0.1,0.2s-0.1,0-0.2,0c0,0-0.1,0-0.1,0c-0.1,0-0.1,0-0.2-0.1c-0.3-0.2-0.6-0.3-0.8-0.4c-0.3-0.1-0.6-0.3-0.9-0.4
			c-0.1-0.1-0.2-0.1-0.3-0.1c-0.1,0-0.2-0.1-0.3-0.1c0,0,0,0.1,0,0.1c0,0,0,0,0,0.1c0,0,0,0.1,0,0.1c0,0,0,0.1,0.1,0.2
			c0,0-0.1-0.1-0.1-0.1s-0.1-0.1-0.1-0.1c0,0,0,0-0.1,0c0,0,0,0.1,0,0.1c0,0,0,0.1,0,0.1c0,0,0,0.1,0,0.1s0,0.1,0,0.1
			c0,0,0,0.1,0,0.1c0,0,0,0.1,0,0.1c0,0.1,0,0.2,0,0.3c0,0.2-0.1,0.4-0.3,0.6c-0.1,0.1-0.2,0.1-0.3,0c-0.1,0-0.2-0.1-0.3-0.1
			c-0.2-0.1-0.4-0.3-0.6-0.4c-0.2-0.2-0.3-0.4-0.5-0.6c0,0-0.1-0.1-0.1-0.1c-0.1-0.1-0.1-0.2-0.2-0.3S7.3,34,7.2,33.9
			c0,0,0-0.1,0-0.1c0,0,0,0,0-0.1c-0.1,0-0.2,0-0.3,0.1c-0.4,0.2-0.8,0.4-1.1,0.6c-0.2,0.1-0.3,0.2-0.4,0.4c0,0,0,0,0,0s0,0.1,0,0.1
			c0,0,0.1,0.1,0.2,0.2c0.1,0.1,0.3,0.2,0.4,0.3s0.3,0.2,0.4,0.3C6.6,36,6.7,36,6.7,36z M7.6,33.6C7.6,33.6,7.6,33.6,7.6,33.6
			c0,0.1,0,0.1,0,0.1c0.1,0.2,0.2,0.3,0.2,0.4s0.2,0.2,0.3,0.4c0,0,0.1,0.1,0.1,0.1c0,0,0.1,0.1,0.1,0.1c0,0.1,0.1,0.1,0.1,0.1
			c0.1,0,0.1,0,0.1,0c0,0,0,0,0.1,0c0,0,0,0,0.1,0c0,0,0.1,0,0.1,0.1C8.9,35,9,35,9,35c0,0,0,0,0,0c0,0,0,0,0,0
			c0-0.1-0.1-0.2-0.2-0.3c-0.1-0.1-0.3-0.3-0.4-0.4C8.3,34.1,8.2,34,8,33.8C7.9,33.7,7.7,33.6,7.6,33.6z M9.3,32.7
			C9.3,32.6,9.3,32.6,9.3,32.7c-0.1,0-0.1-0.1-0.2-0.1C9.2,32.6,9.2,32.6,9.3,32.7C9.3,32.6,9.3,32.6,9.3,32.7
			C9.4,32.6,9.4,32.6,9.3,32.7L9.3,32.7L9.3,32.7C9.3,32.6,9.3,32.6,9.3,32.7z M9.9,32.8L9.9,32.8C9.9,32.8,9.9,32.8,9.9,32.8
			c0.1,0,0.1,0,0.2,0c0.1,0,0.1,0,0.2,0.1c0,0,0,0-0.1,0c0,0-0.1,0-0.1,0C10,32.8,9.9,32.8,9.9,32.8z"/>
	</g>
</g>
</svg>
