<?xml version="1.0" encoding="utf-8"?>
<!-- Generator: Adobe Illustrator 27.7.0, SVG Export Plug-In . SVG Version: 6.00 Build 0)  -->
<svg version="1.1" id="Layer_2_00000178914132772032454170000003607004401548948396_"
	 xmlns="http://www.w3.org/2000/svg" xmlns:xlink="http://www.w3.org/1999/xlink" x="0px" y="0px" viewBox="0 0 13.1 24.5"
	 style="enable-background:new 0 0 13.1 24.5;" xml:space="preserve">
<style type="text/css">
	.st0{enable-background:new    ;}
</style>
<g id="Layer_1-2">
	<g class="st0">
		<path d="M6.4,5.4C6.4,5.4,6.4,5.3,6.4,5.4C6.4,5.3,6.4,5.3,6.4,5.4C6.3,5.3,6.1,5.2,6,5.1C5.8,5,5.7,4.9,5.5,4.8
			C5.4,4.7,5.3,4.6,5.1,4.5C5,4.3,4.9,4.2,4.8,4.2c0,0,0,0,0.1,0.1C5,4.3,5.1,4.4,5.2,4.4s0.2,0.1,0.2,0.1c0.1,0,0.1,0,0-0.2
			c0,0,0,0,0-0.1c0,0,0,0,0-0.1C5,4.1,4.8,3.9,4.6,3.7S4.3,3.2,4.1,2.9C4.1,2.8,4,2.7,4,2.6C3.9,2.5,3.9,2.4,3.8,2.3
			c0-0.1,0-0.2,0-0.3c0-0.2,0-0.3,0-0.5c0-0.2,0-0.3,0-0.5c0-0.2,0.1-0.4,0.2-0.5C4,0.5,4.1,0.3,4.2,0.2C4.4,0.1,4.5,0,4.7,0
			s0.3,0,0.5,0c0.2,0.1,0.5,0.2,0.7,0.3s0.4,0.3,0.6,0.4C6.7,0.9,6.8,1.1,7,1.2c0.1,0.1,0.2,0.3,0.3,0.4c0.1,0.1,0.1,0.2,0.2,0.3
			C7.4,2,7.4,2,7.4,2.1c0,0,0,0.1,0,0.1l0,0l0-0.2c0,0,0-0.1,0-0.1c0,0,0-0.1,0-0.1c0,0,0,0,0,0s0,0,0,0c0,0,0,0,0,0.1
			C7.3,2,7.4,2.2,7.4,2.4c0,0.2,0.1,0.3,0.1,0.5c0,0.1,0,0.3,0,0.3s0,0.1,0,0.1c0,0,0,0,0,0s0,0,0,0c0,0,0,0,0,0
			c0-0.1-0.1-0.1-0.1-0.2S7.2,2.9,7.2,2.9l0,0C7.1,2.8,7,2.7,7,2.7C6.9,2.6,6.9,2.5,6.8,2.5C6.6,2.2,6.4,2,6.2,1.8
			C5.9,1.6,5.7,1.4,5.4,1.2C5.3,1.1,5.1,1.1,5,1C4.9,0.9,4.7,0.9,4.5,0.9c-0.1,0-0.2,0-0.2,0c0,0-0.1,0.1,0,0.2
			c0,0.2,0.1,0.3,0.1,0.5S4.5,1.9,4.6,2c0,0.1,0.1,0.1,0.1,0.2s0.1,0.2,0.2,0.3C4.9,2.6,5,2.7,5,2.7c0,0.1,0.1,0.1,0.1,0.2
			C5.3,3,5.4,3.1,5.6,3.2C5.7,3.3,5.8,3.4,6,3.6c0.1,0.1,0.3,0.2,0.4,0.3C6.5,4,6.6,4,6.8,4.1C7,4.2,7.2,4.3,7.4,4.3
			c0.2,0.1,0.4,0.2,0.7,0.2c0,0,0.1,0.1,0.1,0.1c0,0,0.1,0,0.1,0c0,0,0,0-0.1-0.1c0,0,0,0-0.1-0.1c-0.1,0-0.1,0-0.2,0
			c0,0-0.1,0-0.2,0c-0.1,0-0.2-0.1-0.4-0.1S7.3,4.2,7.1,4.1c0.1,0,0.3,0.1,0.4,0.1S7.8,4.3,8,4.3h0c0.1,0,0.1,0,0.2,0
			c0.1,0,0.1,0,0.2,0h0.1c0.2,0,0.4,0,0.5,0.1s0.3,0,0.4,0.1c0,0,0,0,0,0c0,0,0,0,0,0c0.4,0,0.8,0.1,1.2,0.1c0.4,0,0.8-0.1,1.1-0.3
			c0,0,0,0,0.1,0c0,0,0,0,0.1,0c0-0.1,0-0.2-0.1-0.3c0-0.1-0.1-0.2-0.2-0.3c-0.2-0.3-0.4-0.6-0.6-0.8s-0.4-0.5-0.7-0.7
			c-0.1-0.1-0.1-0.1-0.2-0.2c0-0.1-0.1-0.1-0.1-0.2c0-0.1,0-0.2,0-0.3s0.1-0.1,0.2,0c0.1,0,0.2,0.1,0.3,0.2c0.1,0.1,0.2,0.1,0.3,0.2
			c0.2,0.2,0.4,0.3,0.6,0.6c0.2,0.2,0.3,0.4,0.5,0.7c0.1,0.2,0.2,0.4,0.2,0.6c0,0.2,0,0.4,0,0.7c0,0.2-0.1,0.4-0.2,0.6
			S12,5.3,11.8,5.5c0,0-0.1,0.1-0.1,0.1c0,0-0.1,0.1-0.1,0.1c0,0-0.1,0-0.1,0.1c0,0-0.1,0.1-0.1,0.1c-0.1,0-0.2,0.1-0.5,0.1
			S10.3,6,9.9,6S9.1,6,8.5,5.9C8,5.8,7.3,5.6,6.6,5.4C6.5,5.4,6.5,5.4,6.4,5.4C6.5,5.4,6.5,5.4,6.4,5.4z M5.4,4.4
			c0,0.1,0.1,0.1,0.1,0.2c0,0,0.1,0.1,0.1,0.1s0.1,0,0.1,0s0.1,0,0.1,0C5.7,4.6,5.7,4.6,5.6,4.5C5.5,4.5,5.5,4.4,5.4,4.4z M6.7,2.1
			C6.6,1.9,6.4,1.8,6.3,1.7S6,1.5,5.9,1.4c0,0,0,0,0,0C6,1.6,6.1,1.7,6.3,1.8S6.5,2,6.7,2.1C6.6,2.1,6.6,2.1,6.7,2.1
			C6.6,2.1,6.7,2.1,6.7,2.1z M6.8,4C6.9,4,6.9,4,7,4C7,4,7,4,7.1,4.1c0,0-0.1,0-0.1,0S6.9,4,6.8,4z M7.1,4.1L7.1,4.1L7.1,4.1
			C7.1,4.1,7.1,4.1,7.1,4.1C7.1,4.1,7.1,4.1,7.1,4.1L7.1,4.1L7.1,4.1z M8.4,4.6c0,0,0.1,0.1,0.1,0.1c0,0,0,0,0.1,0.1
			c0-0.1,0-0.1,0-0.1C8.6,4.6,8.5,4.6,8.4,4.6z M9.5,4.7c0,0.1,0,0.1,0.1,0.2c0,0,0.1,0,0.1,0c0.2,0,0.5,0,0.8,0
			c0.3,0,0.5-0.1,0.8-0.1c-0.3,0-0.5,0-0.8,0S9.8,4.6,9.5,4.7z"/>
		<path d="M6.7,10.3C6.8,10.4,6.7,10.4,6.7,10.3c-0.1,0.1-0.2,0.1-0.3,0.1c0,0-0.1-0.1-0.3-0.2S5.8,10,5.7,9.9
			C5.6,9.8,5.5,9.7,5.4,9.6C5.3,9.5,5.2,9.4,5.2,9.4c0,0,0,0,0.1,0.1c0,0.1,0.1,0.1,0.2,0.2c0.1,0.1,0.1,0.1,0.2,0.2s0.1,0.1,0,0.1
			c0,0-0.1,0-0.2-0.1C5.3,9.7,5.2,9.6,5,9.5C4.9,9.3,4.7,9.2,4.6,9.1C4.5,9,4.4,8.9,4.4,8.9C4.4,8.7,4.3,8.6,4.3,8.5
			c0-0.1,0.1-0.2,0.1-0.2c0-0.1,0.1-0.1,0.1-0.2s0.1-0.1,0.1-0.1c0.1-0.1,0.2-0.2,0.3-0.2c0.1,0,0.2-0.1,0.4-0.1c0.1,0,0.2,0,0.3,0
			s0.2,0,0.2,0H6c0,0,0,0,0-0.1s0,0,0-0.1c0,0-0.1-0.1-0.1-0.1c0,0-0.1-0.1-0.1-0.1C5.6,7.1,5.6,7,5.6,6.9s0-0.3,0-0.4
			c0-0.1,0.1-0.1,0.1-0.2s0.1-0.1,0.1-0.1c0,0,0.1,0,0.1,0c0,0,0,0,0.1,0c0.1,0,0.3,0,0.4,0.1s0.3,0.1,0.4,0.1c0,0,0,0,0,0s0,0,0,0
			c0,0,0.1,0,0.1,0c0,0,0.1,0,0.1,0c0,0,0-0.1,0-0.1c0,0-0.1,0-0.1,0c-0.1,0-0.1,0-0.2-0.1c-0.1,0-0.1,0-0.2,0c0,0,0,0-0.1,0
			c0,0,0,0,0,0c0,0,0,0,0,0c0,0,0,0,0,0c0,0,0,0,0,0C6.7,6,6.8,6,7,6c0.1,0,0.3,0.1,0.4,0.1c0.1,0,0.2,0.1,0.3,0.2
			c0.1,0.1,0.2,0.1,0.3,0.1C8,6.5,8,6.6,7.9,6.6c-0.1,0-0.1,0-0.2,0c0,0,0,0-0.1,0s0,0,0,0.1c0.1,0,0.2,0.1,0.2,0.1
			c0.1,0,0.1,0.1,0.2,0.1c0,0,0,0.1,0,0.1c0,0.4-0.1,0.5-0.5,0.4c-0.1,0-0.1,0-0.2-0.1c-0.1,0-0.1-0.1-0.2-0.1C7.1,7.1,7,7,6.8,7
			c-0.1,0-0.3-0.1-0.4-0.1c0,0,0,0,0,0s0,0,0,0v0c0,0,0.1,0.1,0.1,0.1c0,0,0.1,0.1,0.1,0.1c0.1,0.1,0.3,0.2,0.4,0.3
			c0.1,0.1,0.2,0.2,0.4,0.3c0.1,0.1,0.3,0.2,0.4,0.3S8,8.1,8.1,8.2c0,0,0,0,0.1,0.1c0,0,0.1,0,0.1,0.1c0,0,0,0.1,0,0.1
			c0,0.1,0,0.1,0,0.1c0,0.1,0,0.3,0,0.4c0,0.1-0.1,0.2-0.1,0.3c0,0,0,0,0,0c0,0,0,0-0.1,0c0,0-0.1,0-0.1,0s-0.1,0-0.1,0
			c-0.2,0-0.4-0.1-0.5-0.2C7.1,9.1,6.9,9.1,6.7,9C6.6,9,6.5,8.9,6.5,8.9c-0.1,0-0.2,0-0.3-0.1c0,0-0.1,0-0.1,0c0,0-0.1,0-0.1,0.1
			c-0.1,0-0.2,0-0.3-0.1c-0.1,0-0.2,0-0.2-0.1s-0.2,0-0.3-0.1c0,0,0,0-0.1,0c0,0-0.1,0-0.1,0c0,0.1,0.1,0.1,0.1,0.1l0.7,0.7
			C6,9.7,6.2,9.9,6.3,10C6.5,10.2,6.6,10.3,6.7,10.3z M6.1,8.9L6.1,8.9L6.1,8.9c0.1,0,0.1,0,0.2,0C6.3,9,6.4,9,6.4,9
			C6.3,9.1,6.2,9,6.1,8.9z M6.5,9.1C6.5,9.1,6.5,9.1,6.5,9.1C6.5,9,6.5,9,6.5,9.1c0.1,0,0.3,0,0.4,0.1s0.2,0.1,0.4,0.1H7.2
			C7,9.3,6.9,9.3,6.9,9.2S6.7,9.2,6.5,9.1C6.6,9.1,6.5,9.1,6.5,9.1z"/>
		<path d="M13,15.6c0,0.1-0.1,0.2-0.2,0.2s-0.1,0-0.2-0.1c-0.1-0.1-0.3-0.1-0.4-0.2s-0.3-0.2-0.4-0.2c-0.2-0.1-0.3-0.2-0.5-0.2
			s-0.3-0.2-0.5-0.2c-0.1-0.1-0.3-0.1-0.4-0.2s-0.3-0.1-0.4-0.2c-0.1,0-0.2-0.1-0.3-0.1c-0.2-0.1-0.5-0.1-0.7-0.2
			c-0.2-0.1-0.5-0.1-0.7-0.2c-0.2,0-0.4-0.1-0.6-0.1c-0.2,0-0.4-0.1-0.6-0.1c-0.2,0-0.3-0.1-0.5-0.1s-0.4-0.1-0.5-0.1
			c-0.2,0-0.3,0-0.5,0c-0.2,0-0.3,0-0.5,0.1c-0.1,0-0.1,0.1-0.2,0.1c-0.1,0-0.1,0-0.2,0c-0.1,0-0.2,0-0.2-0.1
			c-0.1-0.1-0.1-0.2,0-0.3c0-0.1,0.1-0.2,0.2-0.2c0.2-0.1,0.3-0.2,0.5-0.3s0.3-0.1,0.5-0.2c0.1,0,0.1,0,0.1,0s0.1,0,0.1,0
			c0,0-0.1-0.1-0.1-0.1c0,0-0.1-0.1-0.1-0.1c-0.1,0-0.1-0.1-0.2-0.1c-0.1,0-0.1-0.1-0.2-0.1c-0.1-0.1-0.2-0.1-0.2-0.2
			c-0.1-0.1-0.2-0.2-0.2-0.2l-0.1-0.1c-0.1-0.1-0.2-0.2-0.2-0.4c0-0.1,0-0.3,0-0.4c0,0,0,0,0-0.1s0,0,0-0.1c0.1-0.1,0.1-0.1,0.2-0.2
			C5,10.3,5,10.3,5.1,10.2c0.1-0.1,0.2-0.1,0.3-0.1c0.1,0,0.2,0,0.3,0c0.1,0,0.2,0,0.3,0c0.5,0.1,0.9,0.2,1.3,0.4c0,0,0,0,0.1,0
			c0,0,0,0,0,0c0,0.1,0.1,0.2,0.2,0.2c0.1,0,0.1,0.1,0.2,0.2c0,0,0.1,0.1,0.1,0.1c0,0,0,0.1,0,0.1c0,0,0,0.1,0,0.1c0,0,0,0.1,0,0.1
			C8,11.4,8,11.5,8,11.6c0,0.1,0,0.2,0.1,0.3c0.1,0.2,0,0.4-0.1,0.6c0,0-0.1,0.1-0.1,0.2c0,0,0.1,0,0.1,0c0,0,0.1,0,0.1,0
			C8.4,12.8,8.7,12.9,9,13c0.3,0.1,0.6,0.2,0.9,0.3c0.1,0,0.1,0,0.2,0c0.1,0,0.1,0,0.2,0.1c0,0,0,0,0,0c0,0,0,0,0,0.1
			c0.1,0,0.1,0.1,0.2,0.1c0.1,0,0.1,0,0.2,0.1h0c-0.2-0.1-0.3-0.1-0.4-0.2c0.1-0.1,0.2-0.1,0.4,0c0.1,0,0.2,0.1,0.3,0.1
			c0.1,0,0.2,0.1,0.3,0.1c0,0,0-0.1,0-0.1c0,0,0.1,0,0.1,0c0,0,0.1,0,0.1,0c0.3,0.1,0.6,0.2,0.8,0.2c0.1,0,0.3,0,0.4,0.1
			c0,0,0,0-0.1,0c-0.1,0-0.2,0-0.3-0.1c-0.1,0-0.2,0-0.3,0c-0.1,0-0.2,0-0.2,0c0.2,0.1,0.3,0.1,0.4,0.1c0.1,0,0.2,0.1,0.3,0.1
			c0.1,0,0.2,0,0.2,0.1c0.1,0.1,0.2,0.2,0.3,0.3c0.1,0.1,0.1,0.2,0.1,0.4c0,0.2,0,0.4,0,0.6C13.1,15.4,13.1,15.5,13,15.6
			C13,15.5,13,15.5,13,15.6z M6.5,12c0.1,0.1,0.2,0.1,0.2,0.2s0.2,0.1,0.3,0.1c0.1,0,0.3-0.1,0.4-0.2s0.2-0.2,0.3-0.3
			c0-0.1-0.1-0.2-0.2-0.3c-0.1-0.1-0.2-0.1-0.3-0.2c-0.4-0.2-0.9-0.4-1.3-0.5c-0.1,0-0.2,0-0.3,0c0,0,0,0-0.1,0c0,0-0.1,0-0.1,0
			c0.2,0.2,0.3,0.4,0.5,0.6S6.3,11.8,6.5,12z M8.9,12.9C8.9,12.9,8.9,12.9,8.9,12.9C8.9,12.8,8.9,12.8,8.9,12.9c0-0.1,0.1,0,0.1,0
			s0.1,0,0.1,0c0,0,0.1,0,0.1,0c0.1,0,0.1,0,0.2,0.1c0.1,0,0.1,0,0.2,0.1c0.1,0,0.1,0,0.1,0c0,0-0.1,0.1-0.1,0c0,0-0.1,0-0.1,0
			c0,0-0.1,0-0.1,0c-0.1,0-0.1,0-0.2-0.1c-0.1,0-0.1,0-0.2-0.1C9,12.9,9,12.9,8.9,12.9z M11.1,13.7c0,0.1,0.1,0.1,0.1,0.1
			c0,0,0.1,0,0.2,0l0,0h0c0,0-0.1,0-0.1,0S11.1,13.7,11.1,13.7z"/>
		<path d="M6.6,18.9c0,0,0,0-0.1-0.1c0-0.1-0.1-0.1-0.1-0.1c0,0-0.1,0-0.1,0c0,0,0,0-0.1,0c0,0,0,0-0.1-0.1c0,0,0-0.1-0.1-0.1
			c0,0,0-0.1-0.1-0.1c0-0.1-0.1-0.1-0.1-0.1c0,0,0,0-0.1-0.1c0,0,0-0.1-0.1-0.1c0,0,0-0.1-0.1-0.1c0,0,0,0,0,0s0,0,0,0.1
			c0,0,0.1,0.1,0.1,0.2c0,0.1,0.1,0.1,0.1,0.1c0,0,0,0.1,0,0.1c0,0-0.1-0.1-0.2-0.2c-0.1-0.1-0.2-0.2-0.3-0.4
			c-0.1-0.1-0.2-0.3-0.3-0.4c-0.1-0.1-0.2-0.2-0.3-0.2c-0.1,0-0.3-0.1-0.4-0.1C4.3,17,4.2,17,4.1,17c-0.2,0-0.4-0.1-0.6-0.2
			c-0.2-0.1-0.4-0.1-0.6-0.2c-0.1,0-0.1,0-0.2-0.1c-0.1,0-0.2-0.1-0.3-0.1h0.2c0.1,0,0.1,0,0.2,0.1c0.1,0,0.1,0,0.2,0
			c0,0,0-0.1-0.1-0.1c0,0-0.1,0-0.1,0c-0.2-0.1-0.3-0.1-0.5-0.2S2,16.1,1.8,16c-0.1-0.1-0.3-0.1-0.4-0.2c-0.1-0.1-0.3-0.1-0.4-0.3
			c0,0,0,0,0-0.1c0,0,0,0,0-0.1c-0.1-0.1-0.1-0.1-0.2-0.2c-0.1-0.1-0.1-0.1-0.2-0.2c-0.1-0.1-0.2-0.2-0.3-0.3
			c-0.1-0.1-0.2-0.2-0.2-0.3c0-0.1-0.1-0.2-0.1-0.2s0-0.2,0-0.3c0,0,0-0.1,0-0.1c0,0,0,0,0,0s0,0,0,0c0.1-0.2,0.2-0.3,0.3-0.4
			s0.2-0.2,0.4-0.2c0.2-0.1,0.3-0.1,0.5,0c0.1,0,0.2,0.1,0.3,0.1c0.1,0,0.2,0,0.2,0c0.1,0,0.1,0.1,0.2,0.1c0.3,0.2,0.6,0.4,0.9,0.6
			c0.3,0.2,0.6,0.5,0.8,0.8c0.1,0.1,0.1,0.1,0.2,0.2C3.9,15.1,4,15.1,4,15.2c0.1,0.1,0.2,0.2,0.2,0.3c0.1,0.1,0.2,0.2,0.2,0.3
			c0.1,0.1,0.2,0.2,0.3,0.3C4.9,16,5,16,5.2,16.1c0.1,0,0.2,0.1,0.4,0.1c0,0,0,0,0.1,0s0,0,0.1,0c0,0,0-0.1,0-0.1c0,0,0,0-0.1,0
			c0,0,0,0,0-0.1c0,0,0,0,0-0.1c0,0-0.1-0.1-0.1-0.1c-0.1-0.1-0.2-0.3-0.3-0.4C5,15.3,5,15.1,5,14.9c0-0.2,0-0.3,0.1-0.4
			c0.1-0.1,0.2-0.2,0.3-0.3c0,0,0.1,0,0.1-0.1c0,0,0.1,0,0.1-0.1c0.1,0,0.1,0,0.2,0c0.1,0,0.1,0,0.2,0s0.1,0,0.2,0c0,0,0,0,0,0
			c0,0,0,0,0,0c0,0,0.1,0,0.2,0.1s0.3,0.1,0.4,0.1s0.2,0.1,0.3,0.1s0.1,0.1,0.1,0.1c0,0-0.1,0-0.1,0c-0.1,0-0.2,0-0.3,0
			s-0.2,0-0.3,0s-0.1,0-0.2,0c0,0,0,0,0.1,0c0.1,0,0.1,0,0.2,0c0.1,0,0.1,0,0.2,0c0,0,0.1,0,0.1,0c0.2,0.1,0.4,0.2,0.5,0.3
			c0.1,0.1,0.2,0.3,0.3,0.4c0,0,0.1,0.1,0.1,0.1c0,0.1,0.1,0.1,0.1,0.2c0,0.1,0.1,0.1,0.1,0.2c0,0.1,0,0.1,0,0.1s0,0-0.1-0.1
			c0-0.1-0.1-0.2-0.2-0.3c0,0,0,0,0,0c0,0,0,0.1,0,0.1c0.1,0.3,0.1,0.6,0,0.9c0,0.1-0.1,0.2-0.1,0.3c0,0.1,0,0.2,0.1,0.3
			c0,0,0,0.1,0,0.1c0,0,0,0,0,0.1c-0.1,0.1-0.1,0.2-0.3,0.2c-0.2,0-0.4,0-0.6,0c-0.2,0-0.4,0-0.6,0c-0.1,0-0.3,0-0.4-0.1
			c-0.1,0-0.3,0-0.4-0.1c0,0,0,0-0.1,0s-0.1,0-0.1,0c0.1,0.1,0.1,0.1,0.2,0.1c0.1,0,0.1,0,0.2,0.1c0.1,0,0.1,0,0.2,0
			c0.1,0,0.1,0,0.2,0.1c-0.1,0-0.2,0-0.3,0c-0.1,0-0.2,0-0.2,0c0.1,0.1,0.2,0.2,0.3,0.4c0.1,0.1,0.2,0.3,0.3,0.4
			c0.1,0.1,0.2,0.3,0.3,0.4c0.1,0.1,0.1,0.2,0.1,0.2L6.6,18.9C6.6,18.9,6.6,18.9,6.6,18.9z M3.3,15.5c0.1,0,0.1,0.1,0.2,0.1
			c0.1,0,0.2,0.1,0.2,0.1c0,0,0,0,0.1,0c0,0,0,0,0.1,0c0-0.1,0-0.1-0.1-0.1c0,0-0.1-0.1-0.1-0.1c-0.2-0.2-0.4-0.4-0.6-0.6
			c-0.2-0.2-0.5-0.4-0.7-0.6c-0.3-0.3-0.7-0.4-1.1-0.5c-0.1,0-0.2,0-0.3,0c-0.1,0-0.2,0.1-0.3,0.1c0,0,0.1,0.1,0.1,0.1
			c0,0,0.1,0.1,0.1,0.1c0.2,0.1,0.3,0.2,0.5,0.3c0.1,0.1,0.3,0.2,0.5,0.3c0.2,0.1,0.5,0.3,0.7,0.4C2.8,15.2,3,15.3,3.3,15.5z
			 M1.3,15.6c0,0.1,0.1,0.1,0.1,0.1c0,0,0.1,0,0.2,0c-0.1,0-0.1-0.1-0.1-0.1C1.4,15.6,1.3,15.6,1.3,15.6z M4.3,17
			C4.3,17,4.3,17,4.3,17c0.1,0,0.1,0,0.1-0.1c-0.2-0.1-0.4-0.1-0.6-0.2c-0.2-0.1-0.4-0.1-0.6-0.2c0,0,0,0,0,0s0,0,0,0
			c0,0,0,0.1,0.1,0.1c0.1,0,0.2,0.1,0.3,0.1s0.2,0.1,0.3,0.1c0.1,0,0.2,0,0.3,0.1C4.1,16.9,4.2,17,4.3,17z M6.9,16.3
			c0.1,0.1,0.2,0.1,0.3,0.1c0.1,0,0.1,0,0.2-0.1c0-0.1,0-0.1-0.1-0.2c0-0.1,0-0.1-0.1-0.2c0-0.1-0.1-0.2-0.1-0.2
			c-0.2-0.2-0.4-0.5-0.7-0.6S6,14.9,5.7,14.8c0,0,0,0,0,0c0,0,0,0,0,0c0,0.1,0,0.2,0.1,0.3c0,0.1,0.1,0.2,0.2,0.3
			c0.2,0.2,0.3,0.3,0.5,0.5C6.6,16,6.8,16.2,6.9,16.3z"/>
		<path d="M6.7,21.8c0,0-0.1,0-0.2-0.1s-0.2-0.1-0.3-0.3c-0.1-0.1-0.1-0.1-0.2-0.2S6,21.2,5.9,21.1c0,0-0.1-0.1-0.2-0.1
			c-0.1,0-0.1-0.1-0.2-0.2c-0.3-0.2-0.5-0.5-0.6-0.8c-0.1-0.1-0.1-0.3-0.1-0.4c0-0.2,0-0.3,0-0.5c0,0,0-0.1,0-0.1c0,0,0-0.1,0-0.1
			C5,18.8,5,18.8,5.1,18.7c0.1-0.1,0.1-0.2,0.2-0.2c0,0,0.1-0.1,0.1-0.1c0,0,0.1,0,0.1,0c0.2,0,0.3,0,0.5,0c0.1,0,0.1,0,0.2,0
			c0.1,0,0.2,0,0.3,0c0.1,0,0.2,0.1,0.4,0.1s0.2,0.1,0.3,0.2c-0.1,0-0.1,0-0.2-0.1c-0.1,0-0.1-0.1-0.2-0.1c-0.1,0-0.1,0-0.2-0.1
			c-0.1,0-0.1,0-0.2,0c0.2,0.1,0.3,0.2,0.4,0.2s0.3,0.1,0.4,0.2C7.4,19,7.5,19,7.6,19.1c0.1,0.1,0.2,0.2,0.3,0.2c0,0,0,0.1,0,0.1
			c0,0,0,0.1,0,0.1c0.1,0.1,0.2,0.3,0.2,0.4c0,0.2,0.1,0.3,0.1,0.5c0,0.2,0,0.3-0.1,0.5c0,0,0,0.1,0,0.1c0,0,0,0.1-0.1,0.1
			c0,0,0,0.1-0.1,0.1s0,0-0.1,0c-0.1,0.1-0.1,0.2-0.2,0.2s-0.2,0-0.2,0c-0.1,0-0.1-0.1-0.2-0.1c-0.1,0-0.1-0.1-0.2-0.1
			C7.1,21.1,7,21,6.9,20.9c-0.1-0.1-0.2-0.2-0.2-0.3c-0.1-0.2-0.2-0.4-0.2-0.6c0-0.1,0-0.2,0-0.2c0-0.1,0-0.1,0-0.1
			c0,0-0.1-0.1-0.1-0.1s-0.1,0-0.2-0.1c-0.1,0-0.2-0.1-0.3-0.1c-0.1,0-0.2-0.1-0.3-0.1c0,0-0.1,0-0.1,0s-0.1,0-0.1,0
			c0,0.1,0,0.2,0,0.2c0,0.1,0.1,0.1,0.1,0.2c0.1,0.1,0.1,0.2,0.2,0.4c0.1,0.1,0.1,0.2,0.2,0.4C6,20.7,6.1,20.8,6.2,21
			s0.3,0.3,0.4,0.5v0c0,0.1,0.1,0.1,0.1,0.1C6.7,21.7,6.7,21.7,6.7,21.8C6.8,21.8,6.8,21.8,6.7,21.8z M7.8,20.5
			C7.6,20.2,7.4,20,7,19.9c0.1,0.1,0.2,0.3,0.2,0.4c0.1,0.1,0.2,0.2,0.3,0.3c0,0,0,0,0,0c0,0,0,0,0.1,0C7.7,20.6,7.8,20.6,7.8,20.5z
			"/>
		<path d="M5.7,23.8c0,0.1,0,0.1,0,0.1c0,0,0,0.1-0.1,0c0,0-0.1,0-0.1,0c0,0,0,0-0.1,0c-0.1,0-0.2,0-0.3-0.1c0,0,0,0,0,0
			c0,0,0,0,0,0.1c-0.2-0.1-0.3-0.2-0.5-0.2c-0.2-0.1-0.3-0.1-0.4-0.2c0,0-0.1,0-0.1-0.1c0,0,0-0.1-0.1-0.1c0,0,0-0.1,0-0.1
			c0,0,0,0,0-0.1C4,23.2,3.9,23.1,3.8,23c0,0-0.1-0.1-0.1-0.2c0-0.1-0.1-0.1-0.1-0.2c0,0,0-0.1-0.1-0.1s-0.1-0.1-0.1-0.1
			c0,0-0.1-0.1-0.1-0.1c0,0,0-0.1,0-0.2c0,0,0,0,0-0.1c0,0,0-0.1,0-0.1c0-0.1-0.1-0.2,0-0.2c0,0,0.1,0,0.1,0.1s0,0.1,0,0.1
			c0,0,0,0.1,0.1,0.1c0,0,0,0.1,0.1,0.1c0,0,0,0.1,0.1,0.1c0,0,0.1,0.1,0.1,0.1c0,0,0-0.1,0-0.1c0,0,0,0,0-0.1
			c-0.1-0.1-0.1-0.2-0.2-0.3c0-0.1-0.1-0.2-0.1-0.3c-0.1-0.2-0.1-0.4-0.1-0.6s0.1-0.3,0.2-0.5c0-0.1,0.1-0.1,0.2-0.2
			c0.1-0.1,0.1-0.1,0.2-0.1h0.1c0.2,0,0.3,0,0.5,0.1c0.1,0.1,0.3,0.2,0.4,0.3C5,20.8,5.1,21,5.3,21.3c0.2,0.2,0.3,0.5,0.5,0.7
			c0,0.1,0,0.1,0.1,0.2c0,0,0,0.1,0,0.2c0,0.1,0,0.1-0.1,0.1c-0.1,0-0.2,0-0.3,0c-0.1-0.1-0.2-0.1-0.2-0.2C5.1,22.1,5.1,22.1,5,22
			c-0.2-0.2-0.3-0.3-0.5-0.4S4.2,21.3,4,21.3c0,0-0.1,0-0.1,0c0,0-0.1,0-0.1,0c0,0.1,0.1,0.2,0.1,0.3c0,0.1,0.1,0.2,0.2,0.3
			c0,0,0,0,0.1,0.1c0,0,0,0.1,0.1,0.1c0.2,0.2,0.3,0.4,0.5,0.5c0.2,0.1,0.4,0.2,0.6,0.3c0.1,0,0.2,0.1,0.2,0.1c0.1,0,0.2,0,0.2,0
			c0,0,0.1,0,0.1,0c0,0,0.1,0,0.1,0c0.1-0.1,0.1-0.1,0.1-0.2c0,0,0-0.1,0-0.1c0,0,0-0.1,0-0.1c0-0.1,0-0.2,0.1-0.4
			c0-0.1,0.1-0.2,0.2-0.3c0.1-0.2,0.2-0.2,0.3-0.3c0.1,0,0.2,0,0.3,0c0.1,0,0.2,0.1,0.3,0.2c0.1,0.1,0.2,0.1,0.3,0.2c0,0,0,0,0,0
			c0,0-0.1,0-0.1,0c0,0,0,0-0.1,0c0,0,0.1,0.1,0.1,0.1c0,0,0.1,0.1,0.1,0.1c0.1,0.1,0.2,0.1,0.3,0.2c0.1,0.1,0.1,0.2,0.2,0.3
			c0.1,0.1,0.1,0.3,0.2,0.4c0,0,0,0.1,0,0.1c0,0,0,0.1,0,0.1c0.1,0.3,0,0.5-0.1,0.7c0,0,0,0,0,0c0,0,0,0,0,0c0,0-0.1,0-0.1,0.1
			c0,0-0.1,0-0.1,0.1c-0.2,0-0.3-0.1-0.5-0.2c-0.1-0.1-0.3-0.3-0.4-0.4C7.1,23.5,7,23.4,7,23.3c0-0.1,0-0.1,0-0.2c0,0,0-0.1,0.1-0.2
			c0,0,0.1,0,0.1,0c0,0,0,0,0.1,0.1c0,0.1,0.1,0.1,0.2,0.2s0.1,0.1,0.2,0.2c0.1,0.1,0.2,0.1,0.3,0.2c0,0,0,0,0.1,0s0,0,0.1,0
			c0,0,0-0.1,0-0.1c0-0.1-0.1-0.1-0.1-0.1c0,0,0-0.1-0.1-0.1c-0.1-0.2-0.3-0.3-0.4-0.5c-0.1-0.1-0.3-0.3-0.5-0.3c0,0-0.1,0-0.1,0
			s-0.1,0-0.1,0c0,0,0,0.1,0,0.2c0,0.1,0,0.1,0,0.2c0,0.4-0.2,0.7-0.3,0.9C6.1,23.7,5.9,23.8,5.7,23.8z"/>
	</g>
</g>
</svg>
