<?xml version="1.0" encoding="utf-8"?>
<!-- Generator: Adobe Illustrator 27.7.0, SVG Export Plug-In . SVG Version: 6.00 Build 0)  -->
<svg version="1.1" id="Layer_2_00000170987238066974684520000006113623473864791197_"
	 xmlns="http://www.w3.org/2000/svg" xmlns:xlink="http://www.w3.org/1999/xlink" x="0px" y="0px" viewBox="0 0 13.1 30.9"
	 style="enable-background:new 0 0 13.1 30.9;" xml:space="preserve">
<style type="text/css">
	.st0{enable-background:new    ;}
</style>
<g id="Layer_1-2">
	<g class="st0">
		<path d="M4.8,5.9c0-0.1,0-0.2,0-0.2s0-0.1,0.1-0.2c-0.1,0-0.1,0-0.1,0c0,0-0.1,0-0.1,0c0-0.1,0-0.2,0-0.3s0-0.2,0-0.3
			c0.1,0,0.1,0,0.1,0.1s0,0.1,0,0.2C5,4.9,5,4.7,5,4.5C5,4.3,5,4.1,4.9,4c0,0.1,0,0.2,0,0.2c0,0.1,0,0.1-0.1,0.2c0-0.1,0-0.3,0-0.4
			c0-0.1,0-0.3,0-0.4c0,0,0-0.1,0-0.1c0-0.1,0-0.1,0-0.1L4.6,3.8c0-0.1,0-0.2,0-0.3c0-0.1,0-0.2,0-0.3c0-0.4,0-0.7-0.1-1.1
			c-0.1-0.3-0.2-0.7-0.4-1C4.1,1,4,0.8,4.1,0.7c0-0.1,0-0.2,0.1-0.3c0.1-0.1,0.2-0.2,0.3-0.2c0.1-0.1,0.2-0.1,0.3-0.1
			C4.9,0,5,0,5.1,0c0.2,0,0.3,0.1,0.5,0.1s0.3,0.1,0.5,0.2c0.2,0.1,0.4,0.2,0.6,0.3c0.2,0.1,0.4,0.2,0.7,0.3c0,0,0,0,0-0.1
			c0,0,0-0.1,0-0.1c0,0,0.1,0,0.1,0c0,0,0,0,0.1,0c0.2,0.1,0.3,0.1,0.4,0.2C8.2,1,8.4,1.1,8.5,1.2c-0.1,0-0.1,0-0.2,0
			c-0.1,0-0.1,0-0.2,0c0.2,0.1,0.3,0.2,0.5,0.2c0-0.1-0.1-0.1-0.1-0.1c0.1,0,0.1-0.1,0.2-0.1c0.1,0,0.1,0,0.2,0
			c0.2,0.1,0.4,0.1,0.6,0.2c0.2,0.1,0.4,0.1,0.6,0.2l0.1,0.1c-0.1,0-0.2-0.1-0.4-0.1c-0.1,0-0.3-0.1-0.4-0.1c0,0.1,0.1,0.1,0.1,0.1
			c0,0-0.1,0-0.1,0c0,0-0.1,0-0.1,0c0.2,0.1,0.4,0.2,0.6,0.2c0.2,0.1,0.4,0.2,0.6,0.3c0,0,0.1,0,0.1,0c0,0,0.1,0,0.1,0
			c0.2,0.1,0.4,0.2,0.6,0.3c0,0,0.1,0,0.1,0c0.1,0,0.1,0,0.2,0c0,0,0.1,0.1,0.1,0.1c0,0,0.1,0,0.1,0.1c0,0,0.1,0,0.2,0.1
			s0.1,0.1,0.2,0.1c0,0,0.1,0.1,0.1,0.1c0.1,0,0.1,0.1,0.2,0.1s0.1,0.1,0.1,0.1c0.1,0.1,0.1,0.2-0.1,0.4c-0.1,0.1-0.1,0.1-0.2,0.2
			S12,3.7,11.9,3.7c-0.1,0.1-0.3,0.2-0.4,0.3c-0.1,0-0.3,0-0.4-0.1c-0.3-0.1-0.5-0.3-0.7-0.4S9.9,3.2,9.6,3.1
			C9.2,2.9,8.8,2.7,8.3,2.5C7.9,2.3,7.5,2.1,7,1.9C6.9,1.8,6.8,1.8,6.7,1.7c-0.1,0-0.3-0.1-0.4-0.1c-0.1,0-0.1,0-0.2-0.1
			C6.1,1.5,6,1.5,6,1.5L4.8,1.1C4.9,1.2,4.9,1.4,5,1.6C5.1,1.8,5.2,2,5.3,2.2S5.4,2.7,5.5,3c0.1,0.3,0.2,0.6,0.2,0.8
			c0.1,0.3,0.1,0.5,0.2,0.7S6,5,6,5.1c0,0.3-0.1,0.5-0.2,0.6S5.5,6,5.3,6.1C5.2,6.1,5,6.1,4.9,6.1c-0.1,0-0.2,0-0.2,0
			c0,0,0-0.1,0-0.1C4.7,6,4.7,6,4.8,5.9C4.8,5.9,4.8,5.9,4.8,5.9z M4.6,4.5c0,0.1,0,0.2,0,0.3C4.6,4.9,4.5,5,4.5,5.1
			c0-0.1,0-0.2,0.1-0.3C4.6,4.7,4.6,4.6,4.6,4.5L4.6,4.5L4.6,4.5L4.6,4.5z M10.2,2.3L10.2,2.3L10.2,2.3L10.2,2.3L10.2,2.3z
			 M10.7,2.4c-0.1,0-0.1,0-0.2,0s-0.2,0-0.2-0.1C10.3,2.4,10.5,2.4,10.7,2.4z M10.7,2.8c0.1,0,0.1,0,0.2,0c-0.1-0.1-0.2-0.1-0.3-0.1
			c-0.1,0-0.2-0.1-0.3-0.1c0,0,0.1,0.1,0.1,0.1c0,0,0.1,0.1,0.1,0.1C10.6,2.7,10.7,2.8,10.7,2.8z M11.3,2.7c0.1,0,0.1,0.1,0.2,0.1
			c0.1,0,0.1,0,0.2,0.1c0,0-0.1-0.1-0.1-0.1C11.5,2.7,11.4,2.7,11.3,2.7L11.3,2.7z M11.7,2.9L11.7,2.9L11.7,2.9L11.7,2.9L11.7,2.9
			C11.7,2.9,11.7,2.9,11.7,2.9z M12,3c0,0-0.1,0-0.1,0c0,0-0.1,0-0.1,0c0,0,0.1,0,0.1,0.1C11.9,3,11.9,3,12,3L12,3z"/>
		<path d="M6.7,9.6c0,0-0.1,0-0.2-0.1C6.4,9.5,6.3,9.4,6.2,9.3C6.2,9.3,6.1,9.2,6.1,9.1C6,9.1,6,9,5.9,9c0,0-0.1-0.1-0.2-0.1
			c-0.1,0-0.1-0.1-0.2-0.1C5.3,8.5,5.1,8.2,4.9,7.8C4.9,7.7,4.8,7.6,4.8,7.4s0-0.3,0-0.5c0,0,0-0.1,0-0.1c0,0,0-0.1,0-0.1
			C5,6.7,5,6.6,5.1,6.5c0.1-0.1,0.1-0.2,0.2-0.2c0,0,0.1-0.1,0.1-0.1c0,0,0.1,0,0.1,0c0.2,0,0.3,0,0.5,0c0.1,0,0.1,0,0.2,0
			c0.1,0,0.2,0,0.3,0c0.1,0,0.2,0.1,0.4,0.1C7,6.4,7.1,6.5,7.2,6.6C7.2,6.5,7.1,6.5,7,6.5C7,6.5,6.9,6.4,6.8,6.4
			c-0.1,0-0.1,0-0.2-0.1c-0.1,0-0.1,0-0.2,0c0.2,0.1,0.3,0.2,0.4,0.2c0.1,0,0.3,0.1,0.4,0.2C7.4,6.8,7.5,6.9,7.6,7
			C7.7,7,7.8,7.1,7.9,7.2c0,0,0,0.1,0,0.1c0,0,0,0.1,0,0.1c0.1,0.1,0.2,0.3,0.2,0.4c0,0.2,0.1,0.3,0.1,0.5c0,0.2,0,0.3-0.1,0.5
			c0,0,0,0.1,0,0.1c0,0,0,0.1-0.1,0.1c0,0,0,0.1-0.1,0.1c0,0,0,0-0.1,0C7.9,9.2,7.9,9.3,7.8,9.3s-0.2,0-0.2,0
			c-0.1,0-0.1-0.1-0.2-0.1C7.3,9.1,7.2,9.1,7.2,9C7.1,8.9,7,8.8,6.9,8.7S6.7,8.5,6.7,8.4C6.6,8.2,6.5,8,6.5,7.8c0-0.1,0-0.2,0-0.2
			c0-0.1,0-0.1,0-0.1c0,0-0.1-0.1-0.1-0.1c0,0-0.1,0-0.2-0.1C6,7.3,5.9,7.3,5.8,7.2c-0.1,0-0.2-0.1-0.3-0.1c0,0-0.1,0-0.1,0
			s-0.1,0-0.1,0c0,0.1,0,0.2,0,0.2c0,0.1,0.1,0.1,0.1,0.2c0.1,0.1,0.1,0.2,0.2,0.4c0.1,0.1,0.1,0.2,0.2,0.4C6,8.5,6.1,8.7,6.2,8.8
			s0.3,0.3,0.4,0.5v0c0,0.1,0.1,0.1,0.1,0.1C6.7,9.5,6.7,9.5,6.7,9.6C6.8,9.6,6.8,9.6,6.7,9.6z M7.8,8.4C7.6,8.1,7.4,7.9,7,7.8
			C7.1,7.9,7.1,8,7.2,8.1s0.2,0.2,0.3,0.3c0,0,0,0,0,0c0,0,0,0,0.1,0C7.7,8.5,7.8,8.4,7.8,8.4z"/>
		<path d="M7.9,12.4c-0.3,0.1-0.7,0.1-1,0C6.6,12.3,6.3,12.2,6,12s-0.6-0.4-0.9-0.6c0,0-0.1-0.1-0.1-0.1c0,0-0.1-0.1-0.1-0.1
			c-0.1-0.1-0.2-0.2-0.2-0.4c-0.1-0.1-0.1-0.3,0-0.5c0-0.1,0-0.1,0-0.2s0-0.1,0-0.2c0-0.2,0.1-0.3,0.3-0.4c0.2-0.1,0.5-0.1,0.7-0.2
			c0.2,0,0.5,0,0.8,0c-0.1,0-0.2,0-0.2,0c0,0-0.1,0-0.2,0c0,0,0,0,0,0c0,0,0,0,0,0c0.1,0,0.3,0,0.4,0.1c0.1,0,0.3,0,0.4,0.1
			c0.2,0,0.4,0.1,0.6,0.2C7.8,9.8,8,9.9,8.2,10c0.1,0,0.1,0.1,0.1,0.2c0,0.1,0,0.2,0.1,0.2c0,0.1,0,0.2-0.1,0.3c0,0-0.1,0-0.1,0
			s-0.1,0-0.2,0c-0.5-0.3-0.9-0.4-1.4-0.5c-0.5-0.1-1-0.1-1.4-0.1c0,0,0,0,0,0c0,0,0,0,0,0v0l0,0c0.1,0.1,0.2,0.2,0.3,0.3
			c0.1,0.1,0.2,0.1,0.3,0.2c0.1,0,0.2,0.1,0.4,0.1s0.3,0.1,0.4,0.2c-0.1,0-0.1,0-0.2,0s-0.1,0-0.1,0c0,0,0,0,0,0.1
			c0.4,0.2,0.8,0.3,1.1,0.5c0.4,0.1,0.8,0.3,1.2,0.3c0.1,0.1,0.1,0.2-0.1,0.3c-0.1,0-0.2,0.1-0.3,0.1C8.1,12.4,8,12.4,7.9,12.4z
			 M7,9.5c-0.1,0-0.2,0-0.2,0c-0.1,0-0.1,0-0.2,0c0,0,0-0.1,0-0.1c0.1,0,0.1,0.1,0.2,0.1C6.8,9.4,6.9,9.5,7,9.5L7,9.5z"/>
		<path d="M4.9,12.8c0-0.1,0.1-0.1,0.3-0.2s0.3-0.1,0.5-0.1c0,0,0.1,0,0.1,0c0,0,0.1,0,0.1,0c0.1,0,0.3,0.1,0.4,0.1
			c0.1,0,0.2,0.1,0.4,0.1c0.2,0.1,0.4,0.1,0.6,0.2C7.4,12.9,7.5,13,7.7,13c0,0,0,0,0.1,0c0,0,0,0,0.1,0c0,0.2,0,0.3,0,0.4
			c0,0.1-0.1,0.3-0.2,0.4c0,0-0.1,0-0.1,0s-0.1,0-0.1,0c-0.1,0-0.1,0-0.2,0c-0.1,0-0.1,0-0.2,0c0,0-0.1,0-0.1,0c0,0,0,0,0,0h0
			c0,0,0,0,0,0c0.1,0,0.2,0.1,0.3,0.1c0.1,0,0.1,0,0.2,0.1c0.1,0,0.1,0,0.1,0c0,0,0,0-0.1,0c-0.1,0-0.1,0-0.2-0.1s-0.2,0-0.2-0.1
			c-0.1,0-0.1,0-0.1,0s0,0,0,0c0,0,0.1,0,0.1,0s0.1,0,0.1,0.1c0,0,0,0,0,0c0,0-0.1,0-0.2-0.1s-0.3-0.1-0.4-0.2
			c-0.2-0.1-0.4-0.2-0.6-0.2c-0.1,0-0.2-0.1-0.3-0.1c-0.1,0-0.2,0-0.2,0c-0.1,0-0.1,0-0.1,0c0,0,0,0,0,0c0,0,0,0,0,0
			c0,0,0.1,0,0.1,0s0.1,0,0.1,0.1H5.4c0,0,0,0.1,0,0.1c0.2,0.3,0.5,0.6,0.8,0.8c0.1,0.1,0.2,0.1,0.2,0.2c0.1,0.1,0.1,0.1,0.2,0.2
			c0,0,0,0,0,0.1s0,0.1,0,0.1c0,0,0,0-0.1,0c0,0-0.1,0-0.2-0.1c-0.1,0-0.1-0.1-0.2-0.1c-0.1,0-0.1,0-0.1-0.1c0,0-0.1-0.1-0.2-0.2
			c-0.1-0.1-0.2-0.2-0.3-0.3c-0.1-0.1-0.3-0.3-0.5-0.4L5,13.8c0-0.1-0.1-0.1-0.1-0.2c0-0.1-0.1-0.1-0.1-0.1c0-0.1,0-0.2,0-0.3
			C4.8,13,4.8,12.9,4.9,12.8z M8.8,13.3c0,0.1,0,0.1,0,0.2c0,0,0,0.1,0,0.1c0,0.2,0,0.3-0.1,0.4c-0.1,0.1-0.1,0.1-0.2,0.1
			c-0.1,0-0.2-0.1-0.3-0.2s-0.1-0.2,0-0.3c0-0.1,0-0.2,0.1-0.3c0-0.1,0-0.1,0.1-0.2s0.1,0,0.2,0C8.6,13.3,8.7,13.3,8.8,13.3z"/>
		<path d="M6.7,18.1C6.7,18.2,6.7,18.2,6.7,18.1c-0.1,0.1-0.1,0.1-0.2,0.1c0,0-0.1-0.1-0.3-0.2s-0.3-0.3-0.5-0.5
			c-0.2-0.2-0.4-0.4-0.6-0.5c-0.2-0.2-0.3-0.3-0.4-0.4c-0.1-0.1-0.2-0.2-0.2-0.3c-0.1-0.1-0.1-0.1-0.1-0.2c0-0.1-0.1-0.1-0.1-0.2
			c0,0,0-0.1,0-0.1c0,0,0-0.1,0-0.2c0-0.1,0-0.2,0-0.2c0-0.1,0.1-0.1,0.2-0.2c0.2-0.2,0.5-0.4,0.9-0.4c0.2,0,0.4,0,0.6,0
			c0.2,0,0.4,0.1,0.6,0.1C6.7,14.9,7,15,7.3,15.2c0,0,0.1,0,0.1,0s0.1,0,0.1,0h0c0,0,0-0.1,0-0.1c0,0-0.1,0-0.2-0.1S7.2,15,7.1,15
			C7,15,6.9,15,6.8,14.9c0,0,0,0,0,0c0,0,0,0,0.1,0c0,0,0,0,0.1,0s0.1,0,0.1,0c0,0,0,0,0,0c0.1,0,0.1,0,0.2,0c0,0,0.1,0,0.1,0.1h0
			c0,0,0.1,0,0.2,0.1s0.3,0.1,0.4,0.1c0.2,0,0.3,0.1,0.4,0.1s0.2,0.1,0.2,0.1c0,0,0,0-0.1,0s-0.2,0-0.2-0.1S8,15.3,7.8,15.2
			c0,0,0,0,0,0c0.1,0,0.1,0,0.2,0.1c0.1,0,0.1,0,0.2,0.1c0.1,0,0.2,0.1,0.3,0.1c0.1,0,0.2,0.1,0.3,0.2c0,0,0,0,0.1,0c0,0,0,0,0.1,0
			c0,0,0,0,0-0.1s0,0,0,0c0,0,0,0,0,0c0,0,0,0,0-0.1C9,15.5,9,15.4,9,15.2c0-0.2,0.2-0.3,0.3-0.3c0.1,0.1,0.2,0.3,0.2,0.4
			c0.1,0.1,0.1,0.3,0.1,0.5c0,0.1,0.1,0.2,0.2,0.3c0,0,0,0-0.1,0c0,0,0,0-0.1,0.1c0,0,0,0,0,0.1c0,0.1,0.1,0.1,0.1,0.1
			c0,0,0,0,0.1,0c0,0,0.1,0,0.1,0c0,0,0,0,0,0.1c0,0,0,0,0.1,0.1c0,0,0,0,0.1,0c0,0,0,0-0.1,0s-0.1,0-0.1,0c0,0-0.1,0-0.2-0.1
			c0,0,0,0,0.1,0c0,0,0.1,0,0.2,0s0.1,0,0.2,0c0.1,0,0.1,0,0.1,0c0,0,0.1,0,0.1,0h0c0,0,0,0,0,0c0,0,0,0,0.1,0.1s0.2,0.1,0.3,0.1
			c0.1,0.1,0.2,0.1,0.2,0.1s0.1,0.1,0.1,0.1c0,0,0,0-0.1,0c0,0-0.1,0-0.1-0.1s-0.1,0-0.1-0.1c0,0-0.1,0-0.1,0c0,0-0.1,0-0.1,0
			c0,0,0,0-0.1,0c0,0,0,0-0.1,0c0,0,0,0,0-0.1c0,0-0.1,0-0.2,0c0,0,0,0-0.1,0c0,0,0,0.1,0,0.1c0,0,0.1,0,0.1,0
			c0.1,0.1,0.2,0.1,0.3,0.2c0.1,0.1,0.2,0.1,0.3,0.2c0.1,0.1,0.2,0.1,0.2,0.2c0,0.1,0,0.3,0,0.4s-0.1,0.3-0.3,0.4
			c-0.1,0-0.2,0-0.3-0.1c-0.1,0-0.2-0.1-0.3-0.1c-0.1,0-0.2-0.1-0.3-0.2c-0.1-0.1-0.2-0.1-0.3-0.1c0,0.1-0.1,0.1,0,0.2
			c0,0.1,0,0.1,0,0.2c0,0,0,0.1,0,0.1c0,0,0,0.1,0,0.1c0,0,0,0.1-0.1,0.1c0,0-0.1,0-0.1,0c0,0,0,0-0.1,0c0,0,0,0,0-0.1
			c0-0.1-0.1-0.1-0.1-0.2c0-0.1,0-0.1-0.1-0.2c0-0.1-0.1-0.1-0.1-0.2c0-0.1,0-0.2-0.1-0.2c-0.2-0.1-0.4-0.2-0.5-0.2
			s-0.3-0.2-0.5-0.2c-0.2-0.1-0.3-0.2-0.5-0.2c-0.2-0.1-0.4-0.1-0.5-0.2C7,16.2,6.7,16.1,6.5,16C6.3,16,6,15.9,5.8,15.9
			c-0.1,0-0.2,0-0.3-0.1c-0.1,0-0.2,0-0.3,0H5c-0.1,0-0.1,0.1-0.2,0.1c0,0,0,0.1,0,0.1c0,0,0,0.1,0,0.1c0,0,0,0.1,0.1,0.1
			c0,0,0.1,0.1,0.2,0.2c0.1,0.1,0.2,0.2,0.3,0.3s0.3,0.3,0.4,0.4c0.1,0.1,0.3,0.3,0.4,0.4s0.2,0.2,0.3,0.3S6.7,18.1,6.7,18.1z"/>
		<path d="M4.9,18.1c0-0.1,0.1-0.1,0.3-0.2s0.3-0.1,0.5-0.1c0,0,0.1,0,0.1,0c0,0,0.1,0,0.1,0c0.1,0,0.3,0.1,0.4,0.1
			C6.4,18,6.5,18,6.6,18c0.2,0.1,0.4,0.1,0.6,0.2c0.2,0.1,0.4,0.1,0.6,0.2c0,0,0,0,0.1,0c0,0,0,0,0.1,0c0,0.2,0,0.3,0,0.4
			c0,0.1-0.1,0.3-0.2,0.4c0,0-0.1,0-0.1,0s-0.1,0-0.1,0c-0.1,0-0.1,0-0.2,0c-0.1,0-0.1,0-0.2,0c0,0-0.1,0-0.1,0c0,0,0,0,0,0h0
			c0,0,0,0,0,0c0.1,0,0.2,0.1,0.3,0.1c0.1,0,0.1,0,0.2,0.1c0.1,0,0.1,0,0.1,0c0,0,0,0-0.1,0c-0.1,0-0.1,0-0.2-0.1
			c-0.1,0-0.2,0-0.2-0.1c-0.1,0-0.1,0-0.1,0s0,0,0,0c0,0,0.1,0,0.1,0c0,0,0.1,0,0.1,0.1c0,0,0,0,0,0c0,0-0.1,0-0.2-0.1
			s-0.3-0.1-0.4-0.2C6.4,19.1,6.2,19,6,18.9c-0.1,0-0.2-0.1-0.3-0.1c-0.1,0-0.2,0-0.2,0s-0.1,0-0.1,0c0,0,0,0,0,0s0,0,0,0
			c0,0,0.1,0,0.1,0c0,0,0.1,0,0.1,0.1H5.4c0,0,0,0.1,0,0.1c0.2,0.3,0.5,0.6,0.8,0.8C6.2,19.9,6.3,20,6.4,20c0.1,0.1,0.1,0.1,0.2,0.2
			c0,0,0,0,0,0.1s0,0.1,0,0.1c0,0,0,0-0.1,0s-0.1,0-0.2-0.1c-0.1,0-0.1-0.1-0.2-0.1c-0.1,0-0.1,0-0.1-0.1c0,0-0.1-0.1-0.2-0.2
			c-0.1-0.1-0.2-0.2-0.3-0.3c-0.1-0.1-0.3-0.3-0.5-0.4L5,19.1C5,19,4.9,19,4.9,18.9c0-0.1-0.1-0.1-0.1-0.1c0-0.1,0-0.2,0-0.3
			C4.8,18.3,4.8,18.2,4.9,18.1z M8.8,18.7c0,0.1,0,0.1,0,0.2c0,0,0,0.1,0,0.1c0,0.2,0,0.3-0.1,0.4c-0.1,0.1-0.1,0.1-0.2,0.1
			c-0.1,0-0.2-0.1-0.3-0.2c-0.1-0.1-0.1-0.2,0-0.3c0-0.1,0-0.2,0.1-0.3c0-0.1,0-0.1,0.1-0.2s0.1,0,0.2,0C8.6,18.6,8.7,18.6,8.8,18.7
			z"/>
		<path d="M7.6,20.7C7.6,20.7,7.6,20.7,7.6,20.7c-0.1,0-0.2,0-0.2,0c0,0,0,0,0,0c0,0,0,0,0,0C7.7,20.9,7.9,21,8,21.3
			c0,0,0.1,0.1,0.1,0.1c0,0,0.1,0.1,0.1,0.1c0.1,0.1,0.1,0.1,0.1,0.2c0,0,0,0.1,0,0.1c0,0.2,0.1,0.3,0.1,0.5c0,0-0.1-0.1-0.1-0.1
			c0,0-0.1-0.1-0.1-0.1c-0.1,0-0.1,0.1,0,0.1c0,0,0,0.1,0,0.1s0,0.1,0,0.1c0,0,0,0.1-0.1,0c0,0,0,0,0,0.1c0,0,0,0,0,0.1
			c0,0.1,0,0.2-0.1,0.3S8,23.1,8,23.2c0,0.1-0.1,0.1-0.1,0.2c-0.1,0-0.1,0.1-0.2,0.1c0,0-0.1,0-0.1,0c-0.1,0-0.1-0.1-0.1-0.1
			c0-0.1-0.1-0.1-0.1-0.2c0-0.1,0-0.1,0.1-0.2c0-0.1,0.1-0.1,0.1-0.1c0,0,0.1-0.1,0.1-0.1c0-0.1,0-0.2-0.1-0.3
			c-0.1-0.1-0.1-0.2-0.2-0.3c-0.2-0.2-0.3-0.3-0.5-0.5c-0.2-0.2-0.4-0.3-0.6-0.4c-0.1-0.1-0.2-0.1-0.3-0.1c-0.1,0-0.2-0.1-0.3-0.1
			c0,0-0.1,0-0.1,0c-0.1,0-0.1,0-0.2,0c-0.1,0-0.1,0-0.2,0.1c0,0.1,0,0.1,0,0.2c0,0.1,0,0.1,0.1,0.2c0.1,0.2,0.2,0.3,0.3,0.5
			c0.1,0.2,0.3,0.4,0.4,0.6C6,22.8,6.2,23,6.3,23.2c0.1,0.1,0.2,0.2,0.2,0.4c0.1,0.1,0.2,0.2,0.2,0.4c0,0,0,0,0,0.1c0,0,0,0.1,0,0.1
			c0,0,0,0.1,0,0.1c0,0,0,0,0,0s0,0,0,0c0,0,0,0,0,0c-0.2-0.1-0.3-0.3-0.4-0.4c-0.1-0.1-0.3-0.3-0.4-0.4c-0.1-0.1-0.3-0.2-0.4-0.4
			s-0.2-0.3-0.3-0.4C5,22.4,5,22.3,4.9,22.2c-0.1-0.1-0.1-0.2-0.2-0.3c0,0-0.1-0.1-0.1-0.1s0-0.1,0-0.1c0-0.2,0-0.3,0-0.5
			c0-0.1,0.1-0.3,0.2-0.4c0.1-0.1,0.2-0.2,0.2-0.2s0.2-0.1,0.3-0.2c0.2-0.1,0.4-0.1,0.6-0.1c0,0,0,0,0.1,0c0,0,0,0,0.1,0
			c0.2,0,0.3,0,0.5,0s0.3,0.1,0.5,0.2c0.1,0,0.2,0.1,0.3,0.1C7.4,20.5,7.5,20.6,7.6,20.7z"/>
		<path d="M6.7,28.1C6.8,28.1,6.7,28.2,6.7,28.1c-0.1,0.1-0.2,0.1-0.3,0.1c0,0-0.1-0.1-0.3-0.2c-0.1-0.1-0.2-0.2-0.4-0.3
			s-0.2-0.2-0.3-0.3c-0.1-0.1-0.2-0.2-0.2-0.2c0,0,0,0,0.1,0.1s0.1,0.1,0.2,0.2c0.1,0.1,0.1,0.1,0.2,0.2c0,0.1,0.1,0.1,0,0.1
			c0,0-0.1,0-0.2-0.1c-0.1-0.1-0.3-0.2-0.4-0.3c-0.1-0.1-0.3-0.2-0.4-0.4c-0.1-0.1-0.2-0.2-0.2-0.2c-0.1-0.1-0.1-0.2-0.1-0.4
			c0-0.1,0.1-0.2,0.1-0.2c0-0.1,0.1-0.1,0.1-0.2c0-0.1,0.1-0.1,0.1-0.1c0.1-0.1,0.2-0.2,0.3-0.2c0.1,0,0.2-0.1,0.4-0.1
			c0.1,0,0.2,0,0.3,0s0.2,0,0.2,0H6c0,0,0,0,0-0.1c0,0,0,0,0-0.1c0,0-0.1-0.1-0.1-0.1c0,0-0.1-0.1-0.1-0.1c-0.1-0.1-0.1-0.3-0.1-0.4
			s0-0.3,0-0.4c0-0.1,0.1-0.1,0.1-0.2C5.8,24,5.8,24,5.9,24c0,0,0.1,0,0.1,0c0,0,0,0,0.1,0c0.1,0,0.3,0,0.4,0.1s0.3,0.1,0.4,0.1
			c0,0,0,0,0,0s0,0,0,0c0,0,0.1,0,0.1,0c0,0,0.1,0,0.1,0c0,0,0-0.1,0-0.1c0,0-0.1,0-0.1,0c-0.1,0-0.1,0-0.2-0.1c-0.1,0-0.1,0-0.2,0
			c0,0,0,0-0.1,0c0,0,0,0,0,0c0,0,0,0,0,0c0,0,0,0,0,0c0,0,0,0,0,0c0.1,0,0.3,0,0.4,0c0.1,0,0.3,0.1,0.4,0.1c0.1,0,0.2,0.1,0.3,0.2
			c0.1,0.1,0.2,0.1,0.3,0.1c0,0.1-0.1,0.1-0.1,0.1c-0.1,0-0.1,0-0.2,0c0,0,0,0-0.1,0c0,0,0,0,0,0.1c0.1,0,0.2,0.1,0.2,0.1
			c0.1,0,0.1,0.1,0.2,0.1c0,0,0,0.1,0,0.1c0,0.4-0.1,0.5-0.5,0.4c-0.1,0-0.1,0-0.2-0.1c-0.1,0-0.1-0.1-0.2-0.1
			c-0.1-0.1-0.3-0.1-0.4-0.2c-0.1,0-0.3-0.1-0.4-0.1c0,0,0,0,0,0s0,0,0,0v0c0,0,0.1,0.1,0.1,0.1c0,0,0.1,0.1,0.1,0.1
			c0.1,0.1,0.3,0.2,0.4,0.3c0.1,0.1,0.2,0.2,0.4,0.3c0.1,0.1,0.3,0.2,0.4,0.3S8,25.9,8.1,26c0,0,0,0,0.1,0.1s0.1,0,0.1,0.1
			c0,0,0,0.1,0,0.2s0,0.1,0,0.1c0,0.1,0,0.3,0,0.4S8.2,27,8.1,27.1c0,0,0,0,0,0c0,0,0,0-0.1,0c0,0-0.1,0-0.1,0s-0.1,0-0.1,0
			c-0.2,0-0.4-0.1-0.5-0.2c-0.2-0.1-0.4-0.1-0.5-0.2c-0.1,0-0.2-0.1-0.3-0.1c-0.1,0-0.2,0-0.3-0.1c0,0-0.1,0-0.1,0
			c0,0-0.1,0-0.1,0.1c-0.1,0-0.2,0-0.3-0.1c-0.1,0-0.2,0-0.2-0.1c-0.1,0-0.2,0-0.3-0.1c0,0,0,0-0.1,0c0,0-0.1,0-0.1,0
			c0,0.1,0.1,0.1,0.1,0.1l0.7,0.7c0.2,0.2,0.3,0.3,0.5,0.5S6.6,28.1,6.7,28.1z M6.1,26.7L6.1,26.7L6.1,26.7c0.1,0,0.1,0,0.2,0
			c0.1,0,0.1,0,0.2,0.1C6.3,26.8,6.2,26.8,6.1,26.7z M6.5,26.9C6.5,26.9,6.5,26.8,6.5,26.9C6.5,26.8,6.5,26.8,6.5,26.9
			c0.1,0,0.3,0,0.4,0.1s0.2,0.1,0.4,0.1H7.2C7,27.1,6.9,27,6.9,27C6.8,27,6.7,27,6.5,26.9C6.6,26.9,6.5,26.9,6.5,26.9z"/>
		<path d="M5.7,30.2c0,0.1,0,0.1,0,0.1c0,0,0,0.1-0.1,0c0,0-0.1,0-0.1,0c0,0,0,0-0.1,0c-0.1,0-0.2,0-0.3-0.1c0,0,0,0,0,0
			c0,0,0,0,0,0.1c-0.2-0.1-0.3-0.2-0.5-0.2c-0.2-0.1-0.3-0.1-0.4-0.2c0,0-0.1,0-0.1-0.1c0,0,0-0.1-0.1-0.1c0,0,0-0.1,0-0.1
			c0,0,0,0,0-0.1c-0.1-0.1-0.2-0.1-0.2-0.2c0,0-0.1-0.1-0.1-0.2c0-0.1-0.1-0.1-0.1-0.2c0,0,0-0.1-0.1-0.1c0,0-0.1-0.1-0.1-0.1
			c0,0-0.1-0.1-0.1-0.1s0-0.1,0-0.2c0,0,0,0,0-0.1c0,0,0-0.1,0-0.1c0-0.1-0.1-0.2,0-0.2c0,0,0.1,0,0.1,0.1c0,0,0,0.1,0,0.1
			c0,0,0,0.1,0.1,0.1c0,0,0,0.1,0.1,0.1c0,0,0,0.1,0.1,0.1c0,0,0.1,0.1,0.1,0.1c0,0,0-0.1,0-0.1c0,0,0,0,0-0.1
			c-0.1-0.1-0.1-0.2-0.2-0.3c0-0.1-0.1-0.2-0.1-0.3c-0.1-0.2-0.1-0.4-0.1-0.6s0.1-0.3,0.2-0.5c0-0.1,0.1-0.1,0.2-0.2
			c0.1-0.1,0.1-0.1,0.2-0.2h0.1c0.2,0,0.3,0,0.5,0.1c0.1,0.1,0.3,0.2,0.4,0.3c0.2,0.2,0.4,0.4,0.6,0.6c0.2,0.2,0.3,0.5,0.5,0.7
			c0,0.1,0,0.1,0.1,0.2c0,0,0,0.1,0,0.1c0,0.1,0,0.1-0.1,0.1c-0.1,0-0.2,0-0.3,0c-0.1-0.1-0.2-0.1-0.2-0.2S5.1,28.4,5,28.3
			c-0.2-0.2-0.3-0.3-0.5-0.4S4.2,27.7,4,27.6c0,0-0.1,0-0.1,0c0,0-0.1,0-0.1,0c0,0.1,0.1,0.2,0.1,0.3c0,0.1,0.1,0.2,0.2,0.3
			c0,0,0,0,0.1,0.1c0,0,0,0.1,0.1,0.1c0.2,0.2,0.3,0.4,0.5,0.5C5,29,5.2,29.1,5.4,29.2c0.1,0,0.2,0.1,0.2,0.1c0.1,0,0.2,0,0.2,0
			c0,0,0.1,0,0.1,0c0,0,0.1,0,0.1,0c0.1-0.1,0.1-0.1,0.1-0.2c0,0,0-0.1,0-0.1s0-0.1,0-0.1c0-0.1,0-0.2,0.1-0.4
			c0-0.1,0.1-0.2,0.2-0.3c0.1-0.2,0.2-0.2,0.3-0.3c0.1,0,0.2,0,0.3,0c0.1,0,0.2,0.1,0.3,0.2s0.2,0.1,0.3,0.2c0,0,0,0,0,0
			c0,0-0.1,0-0.1,0c0,0,0,0-0.1,0c0,0,0.1,0.1,0.1,0.1c0,0,0.1,0.1,0.1,0.1c0.1,0.1,0.2,0.1,0.3,0.2C8,28.8,8.1,28.9,8.2,29
			c0.1,0.1,0.1,0.3,0.2,0.4c0,0,0,0.1,0,0.1s0,0.1,0,0.1c0.1,0.3,0,0.5-0.1,0.7c0,0,0,0,0,0s0,0,0,0c0,0-0.1,0-0.1,0.1
			c0,0-0.1,0-0.1,0.1c-0.2,0-0.3-0.1-0.5-0.2c-0.1-0.1-0.3-0.3-0.4-0.4C7.1,29.9,7,29.8,7,29.6c0-0.1,0-0.1,0-0.2c0,0,0-0.1,0.1-0.2
			c0,0,0.1,0,0.1,0s0,0,0.1,0.1c0,0.1,0.1,0.1,0.2,0.2c0.1,0.1,0.1,0.1,0.2,0.2c0.1,0.1,0.2,0.1,0.3,0.2c0,0,0,0,0.1,0s0,0,0.1,0
			c0,0,0-0.1,0-0.1c0-0.1-0.1-0.1-0.1-0.2c0,0,0-0.1-0.1-0.1c-0.1-0.2-0.3-0.3-0.4-0.4c-0.1-0.1-0.3-0.3-0.5-0.3c0,0-0.1,0-0.1,0
			s-0.1,0-0.1,0c0,0,0,0.1,0,0.2c0,0.1,0,0.1,0,0.2c0,0.4-0.2,0.7-0.3,0.9C6.1,30.1,5.9,30.2,5.7,30.2z"/>
	</g>
</g>
</svg>
