<?xml version="1.0" encoding="utf-8"?>
<!-- Generator: Adobe Illustrator 27.7.0, SVG Export Plug-In . SVG Version: 6.00 Build 0)  -->
<svg version="1.1" id="Layer_2_00000042003750948375715780000005507868279139449754_"
	 xmlns="http://www.w3.org/2000/svg" xmlns:xlink="http://www.w3.org/1999/xlink" x="0px" y="0px" viewBox="0 0 13.1 20.1"
	 style="enable-background:new 0 0 13.1 20.1;" xml:space="preserve">
<style type="text/css">
	.st0{enable-background:new    ;}
</style>
<g id="Layer_1-2">
	<g class="st0">
		<path d="M11.8,8.6c-0.1,0-0.3,0-0.4,0c-0.6,0-1.2-0.1-1.8-0.3C9.1,8.2,8.5,8.1,8,7.9C7.5,7.8,7.1,7.7,6.7,7.6S5.8,7.3,5.4,7.2
			C5.1,7.1,4.9,7.1,4.6,7S4,6.8,3.8,6.7c-0.1,0-0.2,0-0.2,0c-0.1,0-0.2,0-0.3,0c-0.1,0-0.2,0-0.3-0.1c-0.1,0-0.2-0.1-0.3-0.1
			c0,0,0,0-0.1,0c0,0,0,0-0.1,0c0,0,0,0,0,0v0C2.6,6.2,2.7,6.1,2.9,6C3,5.9,3.1,5.9,3.3,5.9c0.3,0,0.6,0,0.9,0c0.3,0,0.6,0,0.9,0
			C5.3,5.9,5.6,6,5.9,6c0.3,0,0.6,0.1,0.9,0.2c0.3,0.1,0.5,0.1,0.8,0.2c0.3,0.1,0.5,0.2,0.8,0.3C8.8,6.8,9.2,6.9,9.6,7
			s0.8,0.2,1.2,0.3c0.1,0,0.2,0,0.3,0s0.2,0,0.3,0.1c-0.2-0.2-0.4-0.4-0.6-0.5c-0.2-0.1-0.4-0.3-0.6-0.4C9.7,6.3,9.4,6,9,5.8
			S8.2,5.4,7.8,5.1C7.4,4.9,7,4.6,6.6,4.2C6.5,4.1,6.4,4,6.4,3.8C6.3,3.7,6.3,3.6,6.3,3.4c0-0.2,0.1-0.4,0.2-0.5
			c0.1-0.1,0.3-0.2,0.5-0.1c0.1,0,0.1,0,0.2,0c0.1,0,0.1,0,0.2,0C7.3,2.7,7.2,2.6,7,2.5C6.9,2.4,6.8,2.3,6.6,2.2
			C6.3,2.1,6,1.9,5.7,1.8c-0.3-0.1-0.6-0.3-1-0.5c0,0-0.1,0-0.1-0.1s-0.1,0-0.1-0.1C4.4,1.1,4.4,1.1,4.4,1c0,0-0.1-0.1-0.1-0.1
			c0,0,0-0.1,0-0.1c0,0,0-0.1,0-0.2c0-0.1,0.1-0.2,0.2-0.3c0.1-0.1,0.2-0.1,0.3-0.1c0.2,0,0.4,0,0.7,0c0.2,0,0.5,0.1,0.7,0.1
			c0.2,0,0.5,0.1,0.7,0.1c0.1,0,0.1,0,0.2,0s0.1,0,0.1,0c0.1,0,0.2,0,0.2,0c0,0,0.1,0,0.1-0.1c0.1,0,0.1,0,0.1,0
			c0.2,0,0.3,0,0.5,0.1c0.2,0,0.3,0.1,0.5,0.1c0,0,0,0,0.1,0c0,0,0,0,0.1,0.1c-0.1,0-0.3,0-0.4-0.1S8.1,0.4,8,0.4c0,0,0,0,0,0
			s0,0,0,0c0.1,0,0.2,0.1,0.3,0.1s0.2,0.1,0.3,0.1C8.7,0.8,9,0.8,9.3,0.9C9.5,1,9.8,1,10.1,1.1c0,0,0,0,0.1,0c0,0,0.1,0,0.1,0
			c0,0,0,0,0.1,0c0,0,0,0,0.1,0c0.1,0.1,0.2,0.2,0.4,0.2c0.1,0,0.3,0.1,0.4,0.1c0.1,0.1,0.1,0.1,0,0.2c0,0-0.1,0-0.1,0
			c0,0-0.1,0-0.1,0v0.1c0.1,0,0.2,0.1,0.3,0.1c0.1,0,0.2,0.1,0.2,0.1c0.1,0,0.1,0,0.2,0.1c0.1,0,0.1,0,0.2,0.1
			c0.2,0.1,0.3,0.2,0.3,0.3c0,0.1,0,0.3-0.1,0.5c0,0,0,0.1,0,0.1c-0.1,0.2-0.2,0.3-0.3,0.3s-0.2,0-0.4,0c-0.4-0.1-0.7-0.3-1-0.5
			s-0.7-0.3-1-0.5C8.9,2.1,8.6,1.9,8.2,1.8S7.5,1.5,7.1,1.4C6.9,1.3,6.6,1.2,6.4,1.2C6.2,1.1,6,1,5.8,1c0,0-0.1,0-0.3,0
			C5.7,1.1,5.8,1.2,6,1.2s0.3,0.2,0.4,0.2c0.4,0.2,0.9,0.4,1.3,0.6c0.4,0.2,0.8,0.5,1.2,0.7C9,2.8,9.1,2.9,9.2,3
			c0.1,0.1,0.2,0.2,0.4,0.3c0.1,0.1,0.2,0.2,0.2,0.4c0,0.3-0.1,0.6-0.2,0.9C9.2,4.5,9,4.4,8.7,4.4C8.5,4.3,8.2,4.3,7.9,4.2
			C8,4.3,8,4.3,8.1,4.4s0.1,0.1,0.2,0.1c0.1,0,0.2,0.1,0.3,0.1c0.1,0,0.2,0.1,0.2,0.1c0.1,0.1,0.2,0.2,0.3,0.2s0.2,0,0.4,0
			c-0.1,0-0.1-0.1-0.2-0.1S9.1,4.8,9,4.8c0,0,0,0,0.1,0c0,0,0,0,0,0C9.3,4.8,9.5,4.8,9.7,5C10,5,10.2,5.2,10.4,5.3c0,0,0,0,0,0.1
			c0,0,0,0,0,0.1C10.2,5.2,10,5.1,9.8,5.1c0,0-0.1,0-0.2,0S9.5,5,9.5,5c0,0,0,0,0,0c0,0,0,0,0.1,0c0.2,0.1,0.4,0.2,0.6,0.3
			c0.2,0.1,0.4,0.2,0.6,0.3c0.1,0.1,0.2,0.1,0.3,0.2s0.2,0.1,0.3,0.2c0.1,0,0.2,0.1,0.3,0.1c0.1,0.1,0.1,0.1,0.2,0.2
			c-0.1-0.1-0.3-0.2-0.4-0.4C11.2,6.1,11.1,6,11,6c-0.1-0.1-0.2-0.1-0.3-0.2h0c0,0,0,0,0,0c0,0,0.1,0.1,0.1,0.1
			c0.2,0.2,0.4,0.4,0.7,0.6c0.2,0.2,0.4,0.4,0.7,0.6c0.3,0.2,0.4,0.5,0.3,0.9C12.3,8.4,12.1,8.6,11.8,8.6z M7.4,0.2
			c-0.1,0-0.2,0.1-0.3,0.1s-0.2,0-0.3,0c-0.1,0-0.2-0.1-0.3-0.1c-0.1,0-0.2-0.1-0.3-0.1c0.2,0,0.4,0,0.5,0C7,0.1,7.2,0.1,7.4,0.2z
			 M8.8,0.6L8.8,0.6C8.8,0.5,8.8,0.5,8.8,0.6C8.8,0.5,8.8,0.5,8.8,0.6z M9.1,0.6L9.1,0.6c0,0-0.1,0-0.2,0s-0.1,0-0.1,0
			c0,0,0.1,0,0.1,0S9,0.6,9.1,0.6z M9.5,5.2c0.1,0.1,0.3,0.1,0.4,0.2s0.3,0.1,0.4,0.2v0c0,0,0,0,0,0c-0.1-0.1-0.3-0.1-0.4-0.2
			C9.8,5.3,9.7,5.2,9.5,5.2C9.5,5.2,9.5,5.2,9.5,5.2C9.5,5.2,9.5,5.2,9.5,5.2z M10.7,1.5c-0.2-0.1-0.4-0.1-0.5-0.2
			c-0.2-0.1-0.3-0.1-0.5-0.1c0.1,0.1,0.3,0.1,0.5,0.2C10.3,1.4,10.5,1.5,10.7,1.5C10.7,1.5,10.7,1.5,10.7,1.5
			C10.7,1.5,10.7,1.5,10.7,1.5L10.7,1.5z M11.8,6.3c0,0-0.1-0.1-0.1-0.1c0,0-0.1-0.1-0.1-0.1c0.1,0,0.2,0.1,0.2,0.1
			C11.9,6.2,12,6.3,12,6.4c0,0,0,0,0,0.1c0,0,0,0,0,0.1c0.1,0.1,0.1,0.1,0.2,0.2c0,0,0.1,0.1,0.2,0.2c0,0,0,0,0.1,0.1
			c0,0,0,0.1,0,0.1c-0.1-0.1-0.2-0.2-0.3-0.3c-0.1-0.1-0.2-0.2-0.3-0.3H12c0,0-0.1-0.1-0.1-0.1C11.9,6.4,11.8,6.3,11.8,6.3z"/>
		<path d="M6.7,13.1c0,0,0,0.1-0.1,0.1c-0.1,0-0.1,0-0.2,0c0,0-0.1-0.1-0.3-0.2c-0.1-0.1-0.3-0.2-0.5-0.4c-0.2-0.1-0.3-0.3-0.5-0.4
			C5.1,12,5,11.9,5,11.8c0-0.1-0.1-0.2-0.1-0.3c0-0.1,0-0.2,0-0.3c0-0.1,0-0.2,0.1-0.2c0-0.1,0.1-0.1,0.1-0.2c0.1,0,0.1-0.1,0.2-0.1
			c0.1,0,0.2,0,0.3-0.1c0.1,0,0.2,0,0.3,0l-0.3-0.4c0,0,0-0.1,0-0.1c0,0,0-0.1,0-0.1C5.4,10,5.3,9.9,5.3,9.8c0-0.1-0.1-0.2-0.1-0.3
			c0-0.1,0-0.2,0-0.4c0-0.1,0.1-0.2,0.2-0.3c0.1-0.1,0.1-0.2,0.2-0.3c0.1-0.1,0.2-0.1,0.3-0.1c0.2,0,0.3,0,0.5,0s0.3,0,0.5,0
			c0.3,0.1,0.5,0.2,0.7,0.4c0,0,0.1,0.1,0.1,0.1c0,0,0,0,0.1,0.1s0,0,0.1,0.1c0,0,0,0,0,0c0,0,0,0,0,0c0,0-0.1,0-0.1-0.1
			c0,0,0,0,0,0.1c0,0,0,0,0,0c0,0,0.1,0.1,0.1,0.1c0,0,0.1,0.1,0.1,0.1c0,0,0,0.1,0,0.1c0,0,0,0-0.1,0c0,0,0-0.1-0.1-0.1
			c0,0,0,0,0,0v0c0,0,0.1,0.1,0.1,0.1c0,0,0.1,0,0.1,0c0-0.1,0-0.2,0-0.3c0.1,0,0.1,0.1,0.1,0.2c0,0.1,0,0.2,0,0.3S8,9.9,8,10
			c0,0,0,0.1,0,0.1c0,0,0,0,0,0.1c0,0,0,0,0,0c0,0,0,0,0,0c0,0,0-0.1,0-0.1s0-0.1,0-0.1s0-0.1,0-0.1c0,0,0,0,0,0c0,0,0,0,0,0V10
			c0,0,0,0.1,0,0.2c0,0.1,0,0.2-0.1,0.3c0,0.1-0.1,0.2-0.1,0.3c0,0.1-0.1,0.2-0.2,0.2c0,0.1,0,0.1,0.1,0.1c0,0,0.1,0.1,0.2,0.1
			c0,0,0.1,0,0.1,0.1c0.1,0,0.1,0,0.1,0.1c0,0,0,0,0,0s0,0,0,0c0,0.1,0.1,0.2,0,0.3c0,0.1-0.1,0.2-0.2,0.3c0,0-0.1,0.1-0.1,0.1
			c0.1,0,0.1,0.1,0.2,0.1s0.1,0,0.2,0.1c0,0,0,0,0,0c0,0,0,0,0,0c-0.1,0-0.3-0.1-0.4-0.1c-0.1,0-0.2-0.1-0.4-0.1
			c-0.2-0.1-0.3-0.1-0.5-0.2s-0.3-0.1-0.5-0.2c-0.1,0-0.2,0-0.3-0.1s-0.2,0-0.3-0.1c-0.1,0-0.2,0-0.2,0c-0.1,0-0.1,0-0.1,0
			c0.1,0,0.1,0,0.2,0.1c0.1,0,0.1,0,0.2,0.1c0,0,0.1,0,0.1,0c0,0,0.1,0,0.1,0c0,0,0,0,0,0c0,0,0,0,0,0h0l0.1,0.1
			c0.1,0,0.1,0.1,0.1,0.1c0,0,0,0-0.1,0s-0.1-0.1-0.2-0.1c0,0,0,0-0.1,0c0,0,0,0-0.1,0c-0.1,0-0.1,0-0.2,0c-0.1,0-0.1,0-0.1,0
			c-0.1,0-0.1,0,0,0.1c0.1,0.1,0.2,0.2,0.3,0.4c0.1,0.1,0.2,0.3,0.4,0.4s0.2,0.2,0.3,0.3S6.7,13,6.7,13.1z M7.1,10.6
			c0,0,0.1,0.1,0.1,0.1s0.1,0.1,0.1,0.1c0,0,0.1-0.1,0.1-0.1c0.1-0.1,0.1-0.3,0-0.4c-0.1-0.1-0.1-0.2-0.2-0.2C7.1,9.9,7,9.9,6.9,9.8
			C6.7,9.5,6.4,9.3,6,9.2c0,0-0.1,0-0.1,0c0,0.1,0.1,0.2,0.2,0.3C6.3,9.9,6.7,10.3,7.1,10.6z"/>
		<path d="M7.7,15.9c0,0-0.1,0-0.1,0c0,0-0.1,0-0.1-0.1c0,0,0-0.1,0-0.1c0,0,0-0.1,0-0.1c0,0,0-0.1,0-0.1s0-0.1,0-0.1
			c0-0.1,0-0.2-0.1-0.3s-0.1-0.2-0.2-0.3C7,14.7,7,14.6,6.9,14.6c-0.1-0.1-0.1-0.1-0.2-0.2c-0.2-0.2-0.4-0.3-0.7-0.4
			c-0.2,0-0.3-0.1-0.5-0.2c-0.2-0.1-0.4-0.1-0.6-0.1c-0.1,0-0.1,0-0.2,0c-0.1,0-0.1,0-0.2-0.1c0,0-0.1,0-0.1-0.1
			c-0.1-0.1-0.1-0.3,0-0.3c0-0.1,0.1-0.2,0.2-0.3c0,0,0.1-0.1,0.2-0.1c0.1,0,0.1,0,0.2-0.1c0.1,0,0.1,0,0.2,0c0.2,0,0.3,0.1,0.5,0.1
			C5.8,12.9,6,13,6.1,13c0,0,0,0,0,0c0,0,0,0,0-0.1C6.4,12.9,6.5,13,6.7,13c0.1,0,0.3,0.1,0.4,0.2c0.1,0.1,0.3,0.1,0.4,0.2
			c0.1,0.1,0.3,0.1,0.4,0.2c0,0,0.1,0,0.1,0.1s0.1,0.1,0.1,0.1c0,0,0,0.1,0,0.1c0,0,0,0.1,0,0.1c0,0.1,0,0.1,0,0.2
			c0,0.1,0,0.1-0.1,0.2c0,0,0,0.1-0.1,0.1c-0.1,0-0.1,0-0.2,0.1l0,0c0,0,0,0,0,0c0,0,0,0.1,0,0.1c0,0,0,0.1,0,0.1
			c0,0.1,0.1,0.2,0.1,0.3c0,0.1,0,0.2,0,0.3c0,0.1,0,0.1-0.1,0.2C7.8,15.7,7.8,15.8,7.7,15.9C7.7,15.8,7.7,15.8,7.7,15.9
			C7.7,15.9,7.7,15.9,7.7,15.9z M5.7,12.8C5.7,12.8,5.7,12.8,5.7,12.8C5.7,12.8,5.7,12.7,5.7,12.8c0-0.1,0.2-0.1,0.3-0.1
			c0.1,0,0.2,0.1,0.4,0.1c-0.1,0-0.3,0-0.4,0C5.9,12.8,5.8,12.8,5.7,12.8z"/>
		<path d="M6.7,20.1C6.7,20.1,6.7,20.1,6.7,20.1c-0.1,0.1-0.1,0-0.2,0c-0.1,0-0.2-0.1-0.3-0.1c-0.1-0.1-0.2-0.1-0.4-0.2
			c-0.1-0.1-0.2-0.1-0.3-0.2c0,0-0.1-0.1-0.1-0.1c0,0-0.1,0-0.1-0.1c-0.2-0.1-0.3-0.3-0.4-0.5c0-0.1,0-0.2,0-0.3
			c0-0.1,0.1-0.2,0.1-0.3C5,18.2,5.1,18.1,5.2,18c0.1-0.1,0.1-0.1,0.2-0.2c0.1-0.1,0.2-0.1,0.2-0.2c0.1-0.1,0.3-0.1,0.4-0.2
			c0.1-0.1,0.2-0.1,0.4-0.2c0.1,0,0.1-0.1,0.2-0.1c0.1,0,0.1-0.1,0.2-0.1c0,0-0.1,0-0.1,0c0,0-0.1,0-0.1,0c-0.1,0-0.2,0-0.3,0
			c-0.1,0-0.2,0-0.3,0c-0.1,0-0.1,0-0.2,0c-0.1,0-0.2,0-0.4,0c-0.1,0-0.2,0-0.4-0.1c-0.1-0.1-0.1-0.3,0-0.4c0.1-0.2,0.2-0.3,0.3-0.3
			c0.1,0,0.2,0,0.2,0s0.2,0,0.2,0c0.1,0,0.2,0,0.3,0c0.1,0,0.2,0,0.3,0c0.1,0,0.1,0,0.2,0c0.1,0,0.2,0,0.2,0c0.1,0,0.2,0,0.3,0
			c0.1,0,0.2,0,0.3,0v0c0,0-0.1,0-0.1,0c0,0-0.1,0-0.2,0c0.2,0,0.3,0.1,0.4,0.1c0.1,0,0.3,0.1,0.4,0.1c0,0,0,0,0,0c0,0-0.1,0-0.1,0
			s-0.1,0-0.2,0c-0.1,0-0.1,0-0.2,0s-0.1,0-0.1,0v0v0c0,0,0,0,0,0c0,0,0.1,0,0.2,0c0.1,0,0.2,0.1,0.3,0.1s0.3,0.1,0.4,0.1
			c0.1,0,0.3,0.1,0.4,0.1C9,16.6,9,16.6,9,16.6s0,0-0.1,0c-0.1,0-0.1,0-0.2,0c-0.1,0-0.1,0-0.2,0c-0.1,0-0.1,0-0.1,0c0,0,0,0,0,0
			s0.1,0.1,0.1,0.1c0.1,0,0.2,0.1,0.3,0.1c0.1,0,0.2,0.1,0.4,0.1c0.4,0.1,0.8,0.2,1.3,0.4c0.1,0,0.1,0,0.2,0.1c0.1,0,0.2,0,0.2,0.1
			c0,0,0,0,0,0s0,0,0,0.1c0.1,0,0.2,0,0.3,0.1c0,0-0.1,0-0.1,0s-0.1,0-0.1,0c0,0,0.1,0,0.1,0c0,0,0.1,0,0.1,0
			c0.2,0.1,0.4,0.2,0.5,0.2c0.1,0,0.2,0,0.3,0.1s0.2,0.1,0.3,0.1c0.1,0.1,0.1,0.2,0.1,0.3v0.6c0,0,0,0.1,0,0.1c0,0,0,0.1,0,0.1
			c0,0.1-0.1,0.2-0.1,0.2s-0.1,0-0.2,0c0,0-0.1,0-0.1,0c-0.1,0-0.1,0-0.2-0.1c-0.3-0.2-0.6-0.3-0.8-0.4c-0.3-0.1-0.6-0.3-0.9-0.4
			c-0.1-0.1-0.2-0.1-0.3-0.1c-0.1,0-0.2-0.1-0.3-0.1c0,0,0,0.1,0,0.1c0,0,0,0,0,0.1c0,0,0,0.1,0,0.1c0,0,0,0.1,0.1,0.2
			c0,0-0.1-0.1-0.1-0.1s-0.1-0.1-0.1-0.1c0,0,0,0-0.1,0c0,0,0,0.1,0,0.1c0,0,0,0.1,0,0.1c0,0,0,0.1,0,0.1s0,0.1,0,0.1
			c0,0,0,0.1,0,0.1c0,0,0,0.1,0,0.1c0,0.1,0,0.2,0,0.3c0,0.2-0.1,0.4-0.3,0.6c-0.1,0.1-0.2,0.1-0.3,0c-0.1,0-0.2-0.1-0.3-0.1
			c-0.2-0.1-0.4-0.3-0.6-0.4c-0.2-0.2-0.3-0.4-0.5-0.6c0,0-0.1-0.1-0.1-0.1c-0.1-0.1-0.1-0.2-0.2-0.3s-0.1-0.2-0.1-0.3
			c0,0,0-0.1,0-0.1c0,0,0,0,0-0.1c-0.1,0-0.2,0-0.3,0.1c-0.4,0.2-0.8,0.4-1.1,0.6c-0.2,0.1-0.3,0.2-0.4,0.4c0,0,0,0,0,0s0,0.1,0,0.1
			c0,0,0.1,0.1,0.2,0.2c0.1,0.1,0.3,0.2,0.4,0.3s0.3,0.2,0.4,0.3C6.6,20,6.7,20.1,6.7,20.1z M7.6,17.6C7.6,17.7,7.6,17.7,7.6,17.6
			c0,0.1,0,0.1,0,0.1c0.1,0.2,0.2,0.3,0.2,0.4s0.2,0.2,0.3,0.4c0,0,0.1,0.1,0.1,0.1c0,0,0.1,0.1,0.1,0.1c0,0.1,0.1,0.1,0.1,0.1
			c0.1,0,0.1,0,0.1,0c0,0,0,0,0.1,0c0,0,0,0,0.1,0c0,0,0.1,0,0.1,0.1c0,0,0.1,0,0.1,0.1c0,0,0,0,0,0c0,0,0,0,0,0
			C9,19,9,18.9,8.8,18.7c-0.1-0.1-0.3-0.3-0.4-0.4C8.3,18.2,8.2,18,8,17.9C7.9,17.8,7.7,17.7,7.6,17.6z M9.3,16.7
			C9.3,16.7,9.3,16.7,9.3,16.7c-0.1,0-0.1-0.1-0.2-0.1C9.2,16.6,9.2,16.6,9.3,16.7C9.3,16.6,9.3,16.6,9.3,16.7
			C9.4,16.7,9.4,16.7,9.3,16.7L9.3,16.7L9.3,16.7C9.3,16.7,9.3,16.7,9.3,16.7z M9.9,16.9L9.9,16.9C9.9,16.8,9.9,16.8,9.9,16.9
			c0.1,0,0.1,0,0.2,0c0.1,0,0.1,0,0.2,0.1c0,0,0,0-0.1,0c0,0-0.1,0-0.1,0C10,16.9,9.9,16.9,9.9,16.9z"/>
	</g>
</g>
</svg>
