<?xml version="1.0" encoding="utf-8"?>
<!-- Generator: Adobe Illustrator 27.7.0, SVG Export Plug-In . SVG Version: 6.00 Build 0)  -->
<svg version="1.1" id="Layer_2_00000139269025613626095090000001482017959328128936_"
	 xmlns="http://www.w3.org/2000/svg" xmlns:xlink="http://www.w3.org/1999/xlink" x="0px" y="0px" viewBox="0 0 13.1 27.6"
	 style="enable-background:new 0 0 13.1 27.6;" xml:space="preserve">
<style type="text/css">
	.st0{enable-background:new    ;}
</style>
<g id="Layer_1-2">
	<g class="st0">
		<path d="M5.2,6C5.1,5.9,5,5.8,4.9,5.6S4.7,5.3,4.7,5.1C4.6,5,4.6,4.8,4.5,4.7c0-0.1-0.1-0.2-0.1-0.3c0-0.1,0-0.2,0-0.3
			c0-0.1,0-0.2,0-0.3c0-0.1,0-0.1,0-0.2s0-0.1,0-0.2c0.1-0.3,0.2-0.5,0.3-0.8C4.9,2.5,5,2.2,5.2,2C5.3,2,5.3,1.9,5.4,1.8
			c0.1-0.1,0.1-0.2,0.2-0.2C5.4,1.5,5.3,1.5,5.2,1.5s-0.3,0-0.4-0.1C4.5,1.3,4.3,1.2,4,1.2C4,1,4,0.9,4,0.8c0-0.1,0.1-0.2,0.1-0.3
			c0.1-0.1,0.1-0.1,0.2-0.2c0.1,0,0.2-0.1,0.3-0.1c0.2,0,0.4,0,0.6,0.1s0.4,0.1,0.6,0.1c0.2,0.1,0.5,0.1,0.7,0.2
			C6.8,0.7,7,0.7,7.3,0.8C7.5,0.9,7.7,0.9,8,1s0.5,0.1,0.7,0.2c0,0,0.1,0,0.1,0c0,0,0.1,0,0.1-0.1c0.1,0,0.1,0,0.2,0
			c0.1,0,0.1,0,0.2,0.1c0,0.1,0.1,0.1,0.1,0.2s0.1,0,0.2,0.1c0.1,0,0.3,0.1,0.4,0.1s0.3,0.1,0.5,0.1c0.1,0,0.2,0.1,0.2,0.1
			s0.1,0.1,0.2,0.2c0,0,0,0,0,0s0,0,0,0c-0.1-0.2-0.2-0.4-0.3-0.6c-0.1-0.2-0.3-0.4-0.4-0.5c-0.1-0.1-0.1-0.1-0.2-0.2
			C10,0.6,9.9,0.6,9.8,0.5C9.8,0.4,9.8,0.4,9.8,0.3s0-0.1,0-0.2C9.9,0,10,0,10.1,0c0.1,0,0.2,0,0.4,0.1c0.1,0,0.2,0.1,0.3,0.1
			s0.2,0.1,0.3,0.1c0,0.1,0.1,0.2,0.2,0.3c0.1,0.1,0.1,0.2,0.2,0.3c0.1,0.1,0.1,0.2,0.2,0.3c0.1,0.1,0.1,0.2,0.1,0.3
			c0,0.1,0,0.1,0.1,0.2c0,0,0.1,0.1,0.1,0.1S12.1,2,12.1,2c0,0,0.1,0.1,0.1,0.2c0-0.2-0.1-0.4-0.1-0.6c0.1,0.1,0.1,0.3,0.2,0.4
			c0,0.2,0,0.3,0.1,0.5c0,0.2,0,0.4,0,0.6c0,0.2,0,0.4,0,0.5c0,0,0,0,0,0.1c0,0,0,0.1,0,0.1c0-0.2,0-0.3,0.1-0.4c0-0.1,0-0.2,0-0.3
			c0-0.1,0-0.2,0-0.3s0-0.2,0-0.3c0,0,0.1,0.1,0.1,0.1c0,0.2,0,0.3,0.1,0.4c0,0.1,0,0.3,0.1,0.4c0,0.2,0,0.3,0,0.4
			c-0.1,0.1-0.1,0.2-0.1,0.4c-0.1,0-0.2,0-0.2,0.1s-0.1,0.1-0.1,0.3c-0.1,0.4-0.2,0.7-0.4,0.9s-0.4,0.5-0.6,0.6
			c-0.1,0.1-0.2,0.2-0.4,0.2c-0.1,0.1-0.3,0.2-0.4,0.2c-0.1,0-0.2,0.1-0.3,0.1c-0.1,0-0.2,0-0.2,0.1c-0.1,0-0.2,0-0.2,0
			c-0.1,0-0.1,0-0.2-0.1C9.3,6.6,9.1,6.6,9,6.5S8.8,6.3,8.6,6.2C8.2,5.8,7.8,5.4,7.4,4.9C7.3,4.8,7.2,4.7,7.2,4.6
			C7.1,4.5,7.1,4.5,7,4.4C7,4.3,7,4.2,7,4.2c0-0.1,0-0.1,0-0.2c0-0.1,0-0.1,0-0.2c0-0.1,0-0.1-0.1-0.1C6.7,3.5,6.7,3.3,6.6,3.1
			c0-0.2-0.1-0.4-0.1-0.6c0,0,0-0.1,0-0.1c0,0,0-0.1,0-0.1C6.2,2.4,6,2.6,5.8,2.9C5.7,3,5.6,3.1,5.5,3.2C5.5,3.3,5.4,3.4,5.3,3.5
			C5.2,3.6,5.2,3.7,5.1,3.8S5,4,5,4.2C5,4.3,5,4.4,5,4.5s0,0.2,0.1,0.3c0.1,0.2,0.2,0.4,0.3,0.6c0.1,0.2,0.2,0.3,0.3,0.5v0
			c0,0,0.1,0.1,0.2,0.2c0,0,0,0,0,0.1C6,6.2,6,6.3,6.1,6.4c0.1,0.1,0.2,0.2,0.2,0.3c0.1,0.1,0.1,0.2,0.2,0.2C6.6,6.9,6.6,7,6.6,7
			c0.1,0.1,0.1,0.1,0.1,0.1c0,0-0.1,0-0.2-0.1C6.4,6.9,6.3,6.8,6.1,6.7S5.8,6.5,5.6,6.4S5.3,6.1,5.2,6z M5.8,0.2c0.1,0,0.1,0,0.2,0
			c0.1,0,0.1,0,0.2,0.1c-0.1,0-0.1,0-0.2,0C5.9,0.2,5.8,0.2,5.8,0.2z M6.2,0.4L6.2,0.4c-0.1,0-0.1,0-0.2,0c-0.1,0-0.1,0-0.2,0
			c0,0,0,0,0,0v0c0.1,0,0.1,0,0.2,0C6,0.4,6.1,0.4,6.2,0.4z M6.1,0.2C6.1,0.2,6.1,0.2,6.1,0.2L6.1,0.2L6.1,0.2L6.1,0.2z M6.4,0.2
			L6.4,0.2c0,0-0.1,0-0.1,0c0,0-0.1,0-0.1,0H6.4z M6.6,3.6L6.6,3.6L6.6,3.6C6.5,3.5,6.4,3.3,6.4,3c0.1,0.1,0.1,0.2,0.1,0.3
			C6.6,3.4,6.6,3.5,6.6,3.6z M6.8,3.8c-0.1,0-0.1-0.1-0.2-0.2c0,0,0.1,0.1,0.1,0.1C6.8,3.8,6.8,3.8,6.8,3.8z M7.1,4.7
			C7.2,4.9,7.3,5,7.4,5.1c0.1,0.1,0.2,0.2,0.3,0.3c0,0,0,0,0,0.1s0,0,0,0.1C7.6,5.5,7.4,5.3,7.3,5.2C7.2,5.1,7.1,4.9,7,4.7
			C7,4.7,7,4.7,7.1,4.7C7.1,4.7,7.1,4.7,7.1,4.7C7.1,4.7,7.1,4.7,7.1,4.7z M10.7,3c0,0.1-0.1,0.2-0.1,0.2c0,0-0.1,0-0.2,0
			c0,0-0.1,0-0.1,0c0,0-0.1,0-0.1,0C10.1,3.1,10,3,9.8,3S9.6,2.9,9.5,2.8C9.1,2.6,8.6,2.5,8.2,2.3C8.1,2.3,8,2.2,7.8,2.2
			c-0.1,0-0.3-0.1-0.4-0.1c0.1,0.2,0.1,0.3,0.2,0.4c0,0.1,0.1,0.3,0.2,0.4c0,0-0.1-0.1-0.1-0.1S7.5,2.7,7.5,2.6v0.1
			c0,0.1,0.1,0.3,0.2,0.4s0.1,0.3,0.2,0.4c0,0.1,0.1,0.1,0.1,0.2C8,3.8,8,3.9,8.1,3.9c0,0,0,0,0,0v0c0.1,0.3,0.2,0.4,0.5,0.6
			C8.4,4.4,8.4,4.3,8.3,4.2S8.2,4,8.1,3.9c0,0,0,0,0.1-0.1c0,0,0,0,0.1,0c0.2,0.3,0.4,0.6,0.6,0.8C9.1,4.9,9.4,5,9.7,5.1
			c0,0.1,0,0.2,0,0.2s0.1,0,0.2,0.1c0,0,0.1,0,0.1,0c0,0,0.1,0,0.1,0.1c-0.2,0-0.3-0.1-0.5-0.2C9.5,5.2,9.3,5.2,9.1,5.1
			c0,0.1,0,0.1,0,0.1c0.2,0.1,0.3,0.2,0.5,0.3s0.3,0.2,0.5,0.2c0.1,0,0.3,0,0.4,0c0.1,0,0.2-0.1,0.4-0.1c0,0,0,0,0.1-0.1
			c0,0,0-0.1,0.1-0.1c0-0.1,0.1-0.2,0.1-0.3c0-0.1,0.1-0.2,0.1-0.2c0.1-0.3,0.2-0.6,0.2-0.8c0-0.3,0-0.6-0.1-0.8
			c0-0.2-0.1-0.4-0.1-0.6c-0.1-0.2-0.1-0.4-0.2-0.6c0,0.2-0.1,0.3-0.1,0.5C10.9,2.7,10.8,2.9,10.7,3z M7.8,0.5L7.8,0.5l-0.1,0v0H7.8
			z M7.9,5.7C7.9,5.7,7.8,5.7,7.9,5.7C7.8,5.6,7.8,5.6,7.7,5.6c0,0,0.1,0,0.1,0C7.9,5.6,7.9,5.7,7.9,5.7C7.9,5.7,7.9,5.7,7.9,5.7z
			 M8.6,0.8c0.1,0,0.2,0,0.3,0C8.9,0.8,9,0.8,9,0.9C9,0.9,8.9,0.9,8.8,0.8S8.6,0.8,8.6,0.8z M9.7,6.6c0,0-0.1,0-0.2,0
			c-0.1,0-0.1,0-0.2,0v0c0.1,0,0.1,0,0.2,0C9.6,6.7,9.7,6.7,9.7,6.6L9.7,6.6z M11.7,0.7C11.6,0.7,11.6,0.7,11.7,0.7
			c-0.1-0.1-0.1-0.1-0.1-0.1c0,0,0,0,0,0c0,0,0,0,0,0C11.6,0.6,11.7,0.7,11.7,0.7C11.7,0.7,11.7,0.7,11.7,0.7z M11.8,1.1
			c0.1,0.2,0.2,0.4,0.3,0.6C12,1.5,12,1.4,12,1.3C11.9,1.2,11.9,1.1,11.8,1.1z M12,1c0.1,0,0.1,0.1,0.2,0.2c0.1,0.1,0.1,0.2,0.2,0.4
			s0.1,0.3,0.1,0.4c0,0.2,0,0.3,0.1,0.4c0-0.1-0.1-0.3-0.1-0.4c0-0.1-0.1-0.3-0.1-0.4c0-0.1-0.1-0.2-0.1-0.3c0-0.1-0.1-0.2-0.1-0.3
			V1z"/>
		<path d="M6.6,10.1L6.6,10.1C6.6,10.2,6.6,10.3,6.6,10.1c-0.1,0.1-0.1,0-0.2-0.1C6.3,9.9,6.3,9.7,6.3,9.5C6.2,9.5,6.1,9.4,6,9.4
			C5.8,9.3,5.7,9.2,5.5,9C5.5,8.9,5.4,8.9,5.4,8.8C5.3,8.7,5.2,8.6,5.2,8.5C5.1,8.4,5.1,8.3,5.1,8.2C5,8.1,5,8,5,8c0,0,0-0.1,0-0.1
			c0,0,0-0.1,0-0.1c0,0,0-0.1,0.1-0.2c0-0.1,0-0.1,0.1-0.2c0,0,0.1-0.1,0.1-0.1c0,0,0.1-0.1,0.1-0.1c0-0.1,0.1-0.1,0.2-0.2
			C5.5,7,5.6,7,5.7,6.9c0,0,0.1,0,0.1,0s0.1,0,0.1-0.1C6,6.7,6.1,6.7,6.1,6.7s0.2,0,0.3,0s0.2,0,0.2,0c0.1,0,0.2,0.1,0.3,0.1
			s0.2,0,0.3,0.1c0.2,0,0.5,0.2,0.7,0.4l0,0c0,0,0,0,0,0c-0.1,0-0.2-0.1-0.3-0.1C7.6,7.2,7.5,7.2,7.4,7.1h0c0,0,0.1,0,0.1,0.1
			c0.1,0,0.1,0.1,0.2,0.1c0.1,0,0.2,0.1,0.2,0.1s0.1,0.1,0.2,0.1c0,0,0.1,0.1,0.1,0.1c0,0,0,0,0,0c0,0-0.1,0-0.1,0S8,7.6,8,7.5
			c0,0-0.1,0-0.1-0.1c-0.1,0-0.1,0-0.2,0c0,0,0,0,0,0l0,0c0,0,0.1,0.1,0.1,0.1c0.1,0,0.1,0.1,0.1,0.1c0,0-0.1,0-0.1,0s-0.1,0-0.1,0
			C7.9,7.8,8,7.9,8.1,8C8.1,8,8.3,8.1,8.4,8.1c0,0.1,0,0.2,0.1,0.3s0.1,0.2,0.1,0.3c0,0.1,0,0.2,0,0.2c0,0.1,0,0.1-0.1,0.2
			c0,0,0,0.1,0,0.1C8.4,9.5,8.3,9.6,8.2,9.6C8.1,9.7,8,9.7,7.8,9.8c-0.2,0-0.3,0-0.5,0c-0.2,0-0.3,0-0.5,0L6.6,9.7
			C6.6,9.8,6.6,10,6.6,10.1z M6.2,8.9C6.2,8.9,6.3,8.9,6.2,8.9c0.1,0,0.1,0,0.1,0c0-0.1,0.1-0.1,0.1-0.2c0-0.1,0-0.1,0.1-0.2
			c0-0.1,0.1-0.1,0.1-0.2s0.1-0.1,0.1-0.2C6.6,8,6.5,8,6.4,7.9s-0.2,0-0.2-0.1c-0.1,0-0.2-0.1-0.3-0.1c-0.1,0-0.2,0-0.4,0.1
			c0,0,0,0.1,0.1,0.1c0,0,0,0.1,0,0.1c0,0,0.1,0.1,0.1,0.1c0,0,0,0.1,0.1,0.1c0.1,0.1,0.1,0.2,0.2,0.3C6,8.8,6.1,8.8,6.2,8.9z
			 M8.2,8.8C8.1,8.5,7.8,8.4,7.5,8.3c-0.1,0-0.1,0-0.2,0c-0.1,0-0.1,0-0.2,0c-0.1,0-0.1,0-0.2,0S7,8.4,6.9,8.5
			C6.8,8.6,6.8,8.6,6.8,8.7c0,0,0,0.1,0,0.1c0,0,0,0.1,0,0.1c0,0,0,0.1,0,0.1c0,0.1,0,0.2,0.1,0.2C7,9.3,7.1,9.3,7.2,9.3
			c0.1,0,0.3,0,0.4,0c0,0,0.1,0,0.1,0c0,0,0.1,0,0.1,0c0.1,0,0.3-0.1,0.3-0.2C8.3,9,8.3,8.9,8.2,8.8z"/>
		<path d="M6.8,16C6.8,16,6.8,16,6.8,16C6.8,16.1,6.7,16.1,6.8,16c-0.1,0.1-0.1,0.1-0.2,0.1s-0.1,0-0.1,0c0,0-0.1-0.1-0.2-0.1
			c-0.1,0-0.1-0.1-0.2-0.1c0,0-0.1,0-0.1,0c0,0-0.1,0-0.1,0c0,0-0.1-0.1-0.1-0.1c0,0-0.1,0-0.1-0.1c0,0-0.1-0.1-0.1-0.1
			c0,0-0.1-0.1-0.1-0.1c-0.1-0.1-0.3-0.2-0.4-0.3C5,15.2,4.8,15.1,4.7,15c-0.1-0.1-0.2-0.1-0.2-0.2c-0.1-0.1-0.1-0.1-0.2-0.2
			s-0.1-0.2,0-0.3c0-0.1,0-0.2,0.1-0.3c0.1-0.1,0.1-0.2,0.2-0.2c0.1-0.1,0.3-0.1,0.5,0c0.5,0.1,1,0.2,1.4,0.4s0.9,0.3,1.4,0.5
			c0-0.2-0.1-0.4-0.3-0.6c-0.2-0.1-0.3-0.3-0.5-0.4c-0.2-0.1-0.3-0.2-0.5-0.3c-0.1,0-0.1-0.1-0.2-0.1s-0.1-0.1-0.2-0.1
			c-0.1,0-0.2-0.1-0.2-0.3c0-0.1,0-0.2,0-0.4c0.1-0.2,0.2-0.3,0.5-0.3c0.1,0,0.2,0,0.3,0c0.1,0,0.2,0,0.3,0.1c0.1,0,0.2,0,0.1,0
			c-0.1-0.1-0.1-0.2-0.3-0.3s-0.3-0.2-0.4-0.3c-0.1-0.1-0.2-0.2-0.3-0.2c-0.1-0.1-0.2-0.1-0.3-0.2c-0.1-0.1-0.2-0.1-0.3-0.2
			c-0.1-0.1-0.3-0.1-0.4-0.2c-0.1-0.1-0.3-0.2-0.4-0.2c0,0,0-0.1,0-0.1c0-0.2,0-0.3,0.1-0.4C5,10,5.2,10,5.4,9.9c0.1,0,0.2,0,0.3,0
			c0.1,0,0.2,0,0.3,0c0,0,0,0,0,0l0,0c0-0.1,0.1-0.1,0.2-0.1c0.1,0,0.3,0.1,0.4,0.1C6.7,10,6.8,10,6.9,10c0.2,0,0.3,0.1,0.5,0.1
			s0.3,0.1,0.5,0.1c0.1,0,0.2,0.1,0.3,0.1c0.1,0,0.2,0.1,0.3,0.1c0,0,0,0,0.1,0c0,0,0.1,0,0.1,0.1c0,0-0.1,0-0.1,0
			c-0.2,0-0.3-0.1-0.5-0.1c-0.2-0.1-0.3-0.1-0.5-0.2c-0.1,0-0.3-0.1-0.4,0c0,0,0,0,0,0c0,0,0,0,0,0c0.2,0.1,0.4,0.1,0.6,0.2
			c0.2,0.1,0.4,0.2,0.6,0.3c0.1,0.1,0.2,0.2,0.3,0.3s0.1,0.3,0.1,0.5c0,0.1-0.1,0.2-0.3,0.3c-0.4-0.2-0.8-0.3-1.2-0.4c0,0,0,0,0,0.1
			s0,0,0,0.1C7.6,11.8,7.8,12,8,12.1s0.3,0.4,0.3,0.7c0,0.1,0,0.1,0,0.2c0,0.1,0,0.1-0.1,0.2c-0.1,0.1-0.1,0.1-0.2,0.1
			c-0.1,0-0.2,0-0.4-0.1c0,0,0,0,0,0s0,0,0,0c0,0,0,0,0,0.1c0.2,0.1,0.3,0.3,0.4,0.5c0.1,0.2,0.2,0.4,0.3,0.6c0,0.1,0.1,0.2,0.1,0.3
			c0,0.1,0,0.2,0,0.3c0,0.1,0,0.1-0.1,0.2s-0.1,0.1-0.1,0.1c-0.1,0.1-0.1,0.1-0.3,0.1s-0.2,0-0.3,0c-0.2-0.1-0.4-0.1-0.6-0.2
			S6.6,15,6.4,14.9c-0.2-0.1-0.4-0.2-0.6-0.2s-0.4-0.1-0.7-0.1c0.1,0.1,0.3,0.2,0.4,0.4s0.3,0.3,0.5,0.5s0.3,0.3,0.5,0.4
			C6.6,16,6.7,16,6.8,16z M6.5,10.1c0.1,0,0.2,0,0.4,0c0.1,0,0.1,0,0.2,0c0.1,0,0.1,0,0.2,0v0h0c-0.2-0.1-0.3-0.1-0.5-0.1
			c-0.2,0-0.3,0-0.5-0.1c0,0,0,0,0,0c0,0,0,0-0.1,0c0.1,0,0.1,0,0.2,0.1C6.4,10.1,6.4,10.1,6.5,10.1z"/>
		<path d="M6.7,20.5c0,0,0,0.1-0.1,0.1c-0.1,0-0.1,0-0.2,0c0,0-0.1-0.1-0.3-0.2C6,20.2,5.9,20.1,5.7,20s-0.3-0.3-0.5-0.4
			C5.1,19.4,5,19.3,5,19.2S4.9,19.1,4.9,19c0-0.1,0-0.2,0-0.3s0-0.2,0.1-0.2c0-0.1,0.1-0.1,0.1-0.2c0.1,0,0.1-0.1,0.2-0.1
			c0.1,0,0.2,0,0.3-0.1c0.1,0,0.2,0,0.3,0l-0.3-0.4c0,0,0-0.1,0-0.1c0,0,0-0.1,0-0.1c-0.1-0.1-0.1-0.2-0.2-0.3
			c0-0.1-0.1-0.2-0.1-0.3c0-0.1,0-0.2,0-0.4c0-0.1,0.1-0.2,0.2-0.3s0.1-0.2,0.2-0.3c0.1-0.1,0.2-0.1,0.3-0.1c0.2,0,0.3,0,0.5,0
			s0.3,0,0.5,0c0.3,0.1,0.5,0.2,0.7,0.4c0,0,0.1,0.1,0.1,0.1c0,0,0,0,0.1,0.1c0,0,0,0,0.1,0.1c0,0,0,0,0,0c0,0,0,0,0,0
			c0,0-0.1,0-0.1-0.1c0,0,0,0,0,0.1c0,0,0,0,0,0c0,0,0.1,0.1,0.1,0.1c0,0,0.1,0.1,0.1,0.1c0,0,0,0.1,0,0.1c0,0,0,0-0.1,0
			s0-0.1-0.1-0.1c0,0,0,0,0,0v0c0,0,0.1,0.1,0.1,0.1c0,0,0.1,0,0.1,0c0-0.1,0-0.2,0-0.3c0.1,0,0.1,0.1,0.1,0.2c0,0.1,0,0.2,0,0.3
			c0,0.1,0,0.2,0,0.3c0,0,0,0.1,0,0.1c0,0,0,0,0,0.1s0,0,0,0c0,0,0,0,0,0c0,0,0-0.1,0-0.1s0-0.1,0-0.1s0-0.1,0-0.1c0,0,0,0,0,0
			c0,0,0,0,0,0v0.1c0,0,0,0.1,0,0.2c0,0.1,0,0.2-0.1,0.3c0,0.1-0.1,0.2-0.1,0.3s-0.1,0.2-0.2,0.2c0,0.1,0,0.1,0.1,0.1
			s0.1,0.1,0.2,0.1c0,0,0.1,0,0.1,0.1c0.1,0,0.1,0,0.1,0.1c0,0,0,0,0,0c0,0,0,0,0,0c0,0.1,0.1,0.2,0,0.3S8,19.2,7.9,19.3
			c0,0-0.1,0.1-0.1,0.1c0.1,0,0.1,0.1,0.2,0.1c0.1,0,0.1,0,0.2,0.1c0,0,0,0,0,0s0,0,0,0c-0.1,0-0.3-0.1-0.4-0.1s-0.2-0.1-0.4-0.1
			c-0.2-0.1-0.3-0.1-0.5-0.2c-0.2-0.1-0.3-0.1-0.5-0.2c-0.1,0-0.2-0.1-0.3-0.1C6,19,6,19,5.9,18.9c-0.1,0-0.2,0-0.2,0
			c-0.1,0-0.1,0-0.1,0c0.1,0,0.1,0,0.2,0.1c0.1,0,0.1,0,0.2,0.1c0,0,0.1,0,0.1,0c0,0,0.1,0,0.1,0c0,0,0,0,0,0c0,0,0,0,0,0h0l0.1,0.1
			c0.1,0,0.1,0.1,0.1,0.1c0,0,0,0-0.1,0s-0.1-0.1-0.2-0.1c0,0,0,0-0.1,0c0,0,0,0-0.1,0c-0.1,0-0.1,0-0.2,0c-0.1,0-0.1,0-0.1,0
			c-0.1,0-0.1,0,0,0.1c0.1,0.1,0.2,0.2,0.3,0.4c0.1,0.1,0.2,0.3,0.4,0.4s0.2,0.2,0.3,0.3S6.7,20.5,6.7,20.5z M7.1,18
			c0,0,0.1,0.1,0.1,0.1c0,0,0.1,0.1,0.1,0.1c0,0,0.1-0.1,0.1-0.1c0.1-0.1,0.1-0.3,0-0.4c-0.1-0.1-0.1-0.2-0.2-0.2
			c-0.1-0.1-0.1-0.1-0.2-0.2c-0.3-0.3-0.6-0.5-1-0.6c0,0-0.1,0-0.1,0c0,0.1,0.1,0.2,0.2,0.3C6.3,17.3,6.7,17.7,7.1,18z"/>
		<path d="M8.3,24.5c-0.1,0.1-0.3,0.2-0.4,0.2c-0.1,0-0.3,0-0.5-0.1c-0.2-0.1-0.4-0.2-0.6-0.3c-0.2-0.1-0.4-0.2-0.6-0.3
			c-0.2-0.1-0.3-0.1-0.5-0.2c-0.1,0-0.3-0.1-0.4-0.1c-0.1,0-0.2,0-0.3,0c-0.1,0-0.2,0-0.3-0.1c0,0,0,0-0.1-0.1c0,0,0,0-0.1-0.1
			c0-0.1,0.1-0.2,0.2-0.3C4.8,23.1,4.9,23,5,23c0.1-0.1,0.2-0.1,0.3-0.1c0.2,0,0.5,0,0.7,0c0.2,0,0.5,0.1,0.7,0.2
			c0.1,0,0.3,0.1,0.4,0.1s0.3,0.1,0.4,0.1c0-0.1-0.1-0.2-0.2-0.3S7.1,22.9,7,22.9c-0.1-0.1-0.2-0.2-0.3-0.3s-0.2-0.2-0.3-0.3
			c0,0-0.1-0.1-0.1-0.1S6.2,22,6.1,22c-0.1-0.1-0.2-0.2-0.3-0.3s-0.2-0.2-0.3-0.3c-0.1-0.1-0.1-0.1-0.2-0.2
			c-0.1-0.1-0.1-0.1-0.2-0.2c0,0-0.1-0.1-0.1-0.1c0,0,0-0.1-0.1-0.1c-0.1-0.1-0.1-0.1-0.1-0.2c0-0.1,0-0.2,0-0.2
			c0-0.1,0.1-0.2,0.2-0.2c0.1,0,0.2,0,0.3,0c0.1,0,0.2,0,0.3,0c0.1,0,0.1,0,0.2,0c0,0,0.1,0,0.2,0c0.1,0,0.1,0,0.2,0
			c0.1,0,0.1,0,0.2,0c0.1,0,0.1,0,0.2,0c0.1,0,0.1,0,0.1,0.1c0.2,0.1,0.4,0.1,0.6,0.2c0.2,0,0.4,0.1,0.6,0.1c0.1,0,0.2,0,0.3,0.1
			c0.1,0,0.2,0.1,0.3,0.1c-0.1,0-0.1,0-0.2,0s-0.1-0.1-0.2,0c0.1,0.1,0.1,0.1,0.2,0.2C8.2,21,8.2,21,8.3,21.1c0,0,0,0,0.1,0
			c0.1,0.1,0.2,0.2,0.2,0.3c0,0,0,0.1,0,0.1c0,0,0,0.1,0,0.1c0,0.1,0,0.2,0,0.3s-0.1,0.2-0.2,0.2c-0.1,0.1-0.1,0.1-0.3,0.1
			c-0.2-0.1-0.4-0.1-0.6-0.2C7.3,22,7.2,21.9,7,21.8c0,0-0.1,0-0.1-0.1c0,0-0.1,0-0.1,0c0,0,0.1,0.1,0.1,0.1S6.9,22,7,22
			c0.1,0.1,0.2,0.1,0.2,0.2c0.1,0.1,0.1,0.1,0.2,0.2c0.2,0.1,0.3,0.3,0.4,0.5c0.1,0.2,0.2,0.3,0.4,0.5c0.1,0.2,0.2,0.3,0.2,0.5
			C8.4,24.1,8.4,24.3,8.3,24.5z M6.3,20.3c0.1,0,0.2,0.1,0.4,0.1c0.1,0.1,0.2,0.1,0.4,0.1c-0.1,0-0.3-0.1-0.4-0.1
			C6.5,20.3,6.4,20.3,6.3,20.3z M8,22.8c-0.1-0.1-0.1-0.1-0.2-0.2c0-0.1-0.1-0.1-0.1-0.2c0.1,0,0.1,0.1,0.2,0.2s0.2,0.2,0.2,0.3
			c0.1,0.1,0.1,0.2,0.2,0.4c0.1,0.1,0.1,0.2,0.1,0.4c0-0.1-0.1-0.1-0.1-0.2c0-0.1-0.1-0.1-0.1-0.2c0-0.1-0.1-0.1-0.1-0.2
			S8,22.9,8,22.8z M8,21.1c0.1,0,0.1,0,0.1,0c0,0,0.1,0,0.1,0c0,0,0,0,0,0s0,0,0,0c0,0-0.1,0-0.1,0S8.1,21,8,21.1L8,21.1z"/>
		<path d="M5.7,26.9c0,0.1,0,0.1,0,0.1c0,0,0,0.1-0.1,0c0,0-0.1,0-0.1,0c0,0,0,0-0.1,0c-0.1,0-0.2,0-0.3-0.1c0,0,0,0,0,0
			c0,0,0,0,0,0.1C5,27,4.9,26.9,4.7,26.9c-0.2-0.1-0.3-0.1-0.4-0.2c0,0-0.1,0-0.1-0.1c0,0,0-0.1-0.1-0.1c0,0,0-0.1,0-0.1
			c0,0,0,0,0-0.1c-0.1-0.1-0.2-0.1-0.2-0.2c0,0-0.1-0.1-0.1-0.2c0-0.1-0.1-0.1-0.1-0.2c0,0,0-0.1-0.1-0.1c0,0-0.1-0.1-0.1-0.1
			c0,0-0.1-0.1-0.1-0.1s0-0.1,0-0.2c0,0,0,0,0-0.1c0,0,0-0.1,0-0.1c0-0.1-0.1-0.2,0-0.2c0,0,0.1,0,0.1,0.1c0,0,0,0.1,0,0.1
			c0,0,0,0.1,0.1,0.1c0,0,0,0.1,0.1,0.1c0,0,0,0.1,0.1,0.1c0,0,0.1,0.1,0.1,0.1c0,0,0-0.1,0-0.1c0,0,0,0,0-0.1
			c-0.1-0.1-0.1-0.2-0.2-0.3c0-0.1-0.1-0.2-0.1-0.3c-0.1-0.2-0.1-0.4-0.1-0.6s0.1-0.3,0.2-0.5c0-0.1,0.1-0.1,0.2-0.2
			c0.1-0.1,0.1-0.1,0.2-0.2h0.1c0.2,0,0.3,0,0.5,0.1c0.1,0.1,0.3,0.2,0.4,0.3c0.2,0.2,0.4,0.4,0.6,0.6c0.2,0.2,0.3,0.5,0.5,0.7
			c0,0.1,0,0.1,0.1,0.2c0,0,0,0.1,0,0.1c0,0.1,0,0.1-0.1,0.1c-0.1,0-0.2,0-0.3,0c-0.1-0.1-0.2-0.1-0.2-0.2S5.1,25.2,5,25.1
			c-0.2-0.2-0.3-0.3-0.5-0.4S4.2,24.4,4,24.3c0,0-0.1,0-0.1,0c0,0-0.1,0-0.1,0c0,0.1,0.1,0.2,0.1,0.3c0,0.1,0.1,0.2,0.2,0.3
			c0,0,0,0,0.1,0.1c0,0,0,0.1,0.1,0.1c0.2,0.2,0.3,0.4,0.5,0.5c0.2,0.1,0.4,0.2,0.6,0.3c0.1,0,0.2,0.1,0.2,0.1c0.1,0,0.2,0,0.2,0
			c0,0,0.1,0,0.1,0C6,26,6,26,6,26c0.1-0.1,0.1-0.1,0.1-0.2c0,0,0-0.1,0-0.1s0-0.1,0-0.1c0-0.1,0-0.2,0.1-0.4c0-0.1,0.1-0.2,0.2-0.3
			c0.1-0.2,0.2-0.2,0.3-0.3c0.1,0,0.2,0,0.3,0c0.1,0,0.2,0.1,0.3,0.2s0.2,0.1,0.3,0.2c0,0,0,0,0,0c0,0-0.1,0-0.1,0c0,0,0,0-0.1,0
			c0,0,0.1,0.1,0.1,0.1c0,0,0.1,0.1,0.1,0.1c0.1,0.1,0.2,0.1,0.3,0.2c0.1,0.1,0.1,0.2,0.2,0.3c0.1,0.1,0.1,0.3,0.2,0.4
			c0,0,0,0.1,0,0.1s0,0.1,0,0.1c0.1,0.3,0,0.5-0.1,0.7c0,0,0,0,0,0s0,0,0,0c0,0-0.1,0-0.1,0.1c0,0-0.1,0-0.1,0.1
			c-0.2,0-0.3-0.1-0.5-0.2c-0.1-0.1-0.3-0.3-0.4-0.4C7.1,26.6,7,26.5,7,26.3c0-0.1,0-0.1,0-0.2c0,0,0-0.1,0.1-0.2c0,0,0.1,0,0.1,0
			s0,0,0.1,0.1c0,0.1,0.1,0.1,0.2,0.2c0.1,0.1,0.1,0.1,0.2,0.2c0.1,0.1,0.2,0.1,0.3,0.2c0,0,0,0,0.1,0s0,0,0.1,0c0,0,0-0.1,0-0.1
			c0-0.1-0.1-0.1-0.1-0.2c0,0,0-0.1-0.1-0.1c-0.1-0.2-0.3-0.3-0.4-0.4c-0.1-0.1-0.3-0.3-0.5-0.3c0,0-0.1,0-0.1,0s-0.1,0-0.1,0
			c0,0,0,0.1,0,0.2c0,0.1,0,0.1,0,0.2c0,0.4-0.2,0.7-0.3,0.9C6.1,26.8,5.9,26.9,5.7,26.9z"/>
	</g>
</g>
</svg>
