<?xml version="1.0" encoding="utf-8"?>
<!-- Generator: Adobe Illustrator 27.7.0, SVG Export Plug-In . SVG Version: 6.00 Build 0)  -->
<svg version="1.1" id="Layer_2_00000093881893799785483490000004002273752611921034_"
	 xmlns="http://www.w3.org/2000/svg" xmlns:xlink="http://www.w3.org/1999/xlink" x="0px" y="0px" viewBox="0 0 13.1 17.9"
	 style="enable-background:new 0 0 13.1 17.9;" xml:space="preserve">
<style type="text/css">
	.st0{enable-background:new    ;}
</style>
<g id="Layer_1-2">
	<g class="st0">
		<path d="M5.2,6C5.1,5.9,5,5.8,4.9,5.6S4.7,5.3,4.7,5.1C4.6,5,4.6,4.8,4.5,4.7c0-0.1-0.1-0.2-0.1-0.3c0-0.1,0-0.2,0-0.3
			c0-0.1,0-0.2,0-0.3c0-0.1,0-0.1,0-0.2s0-0.1,0-0.2c0.1-0.3,0.2-0.5,0.3-0.8C4.9,2.5,5,2.2,5.2,2C5.3,2,5.3,1.9,5.4,1.8
			c0.1-0.1,0.1-0.2,0.2-0.2C5.4,1.5,5.3,1.5,5.2,1.5s-0.3,0-0.4-0.1C4.5,1.3,4.3,1.2,4,1.2C4,1,4,0.9,4,0.8c0-0.1,0.1-0.2,0.1-0.3
			c0.1-0.1,0.1-0.1,0.2-0.2c0.1,0,0.2-0.1,0.3-0.1c0.2,0,0.4,0,0.6,0.1s0.4,0.1,0.6,0.1c0.2,0.1,0.5,0.1,0.7,0.2
			C6.8,0.7,7,0.7,7.3,0.8C7.5,0.9,7.7,0.9,8,1s0.5,0.1,0.7,0.2c0,0,0.1,0,0.1,0c0,0,0.1,0,0.1-0.1c0.1,0,0.1,0,0.2,0
			c0.1,0,0.1,0,0.2,0.1c0,0.1,0.1,0.1,0.1,0.2s0.1,0,0.2,0.1c0.1,0,0.3,0.1,0.4,0.1s0.3,0.1,0.5,0.1c0.1,0,0.2,0.1,0.2,0.1
			s0.1,0.1,0.2,0.2c0,0,0,0,0,0s0,0,0,0c-0.1-0.2-0.2-0.4-0.3-0.6c-0.1-0.2-0.3-0.4-0.4-0.5c-0.1-0.1-0.1-0.1-0.2-0.2
			C10,0.6,9.9,0.6,9.8,0.5C9.8,0.4,9.8,0.4,9.8,0.3s0-0.1,0-0.2C9.9,0,10,0,10.1,0c0.1,0,0.2,0,0.4,0.1c0.1,0,0.2,0.1,0.3,0.1
			s0.2,0.1,0.3,0.1c0,0.1,0.1,0.2,0.2,0.3c0.1,0.1,0.1,0.2,0.2,0.3c0.1,0.1,0.1,0.2,0.2,0.3c0.1,0.1,0.1,0.2,0.1,0.3
			c0,0.1,0,0.1,0.1,0.2c0,0,0.1,0.1,0.1,0.1S12.1,2,12.1,2c0,0,0.1,0.1,0.1,0.2c0-0.2-0.1-0.4-0.1-0.6c0.1,0.1,0.1,0.3,0.2,0.4
			c0,0.2,0,0.3,0.1,0.5c0,0.2,0,0.4,0,0.6c0,0.2,0,0.4,0,0.5c0,0,0,0,0,0.1c0,0,0,0.1,0,0.1c0-0.2,0-0.3,0.1-0.4c0-0.1,0-0.2,0-0.3
			c0-0.1,0-0.2,0-0.3s0-0.2,0-0.3c0,0,0.1,0.1,0.1,0.1c0,0.2,0,0.3,0.1,0.4c0,0.1,0,0.3,0.1,0.4c0,0.2,0,0.3,0,0.4
			c-0.1,0.1-0.1,0.2-0.1,0.4c-0.1,0-0.2,0-0.2,0.1s-0.1,0.1-0.1,0.3c-0.1,0.4-0.2,0.7-0.4,0.9s-0.4,0.5-0.6,0.6
			c-0.1,0.1-0.2,0.2-0.4,0.2c-0.1,0.1-0.3,0.2-0.4,0.2c-0.1,0-0.2,0.1-0.3,0.1c-0.1,0-0.2,0-0.2,0.1c-0.1,0-0.2,0-0.2,0
			c-0.1,0-0.1,0-0.2-0.1C9.3,6.6,9.1,6.6,9,6.5S8.8,6.3,8.6,6.2C8.2,5.8,7.8,5.4,7.4,4.9C7.3,4.8,7.2,4.7,7.2,4.6
			C7.1,4.5,7.1,4.5,7,4.4C7,4.3,7,4.2,7,4.2c0-0.1,0-0.1,0-0.2c0-0.1,0-0.1,0-0.2c0-0.1,0-0.1-0.1-0.1C6.7,3.5,6.7,3.3,6.6,3.1
			c0-0.2-0.1-0.4-0.1-0.6c0,0,0-0.1,0-0.1c0,0,0-0.1,0-0.1C6.2,2.4,6,2.6,5.8,2.9C5.7,3,5.6,3.1,5.5,3.2C5.5,3.3,5.4,3.4,5.3,3.5
			C5.2,3.6,5.2,3.7,5.1,3.8S5,4,5,4.2C5,4.3,5,4.4,5,4.5s0,0.2,0.1,0.3c0.1,0.2,0.2,0.4,0.3,0.6c0.1,0.2,0.2,0.3,0.3,0.5v0
			c0,0,0.1,0.1,0.2,0.2c0,0,0,0,0,0.1C6,6.2,6,6.3,6.1,6.4c0.1,0.1,0.2,0.2,0.2,0.3c0.1,0.1,0.1,0.2,0.2,0.2C6.6,6.9,6.6,7,6.6,7
			c0.1,0.1,0.1,0.1,0.1,0.1c0,0-0.1,0-0.2-0.1C6.4,6.9,6.3,6.8,6.1,6.7S5.8,6.5,5.6,6.4S5.3,6.1,5.2,6z M5.8,0.2c0.1,0,0.1,0,0.2,0
			c0.1,0,0.1,0,0.2,0.1c-0.1,0-0.1,0-0.2,0C5.9,0.2,5.8,0.2,5.8,0.2z M6.2,0.4L6.2,0.4c-0.1,0-0.1,0-0.2,0c-0.1,0-0.1,0-0.2,0
			c0,0,0,0,0,0v0c0.1,0,0.1,0,0.2,0C6,0.4,6.1,0.4,6.2,0.4z M6.1,0.2C6.1,0.2,6.1,0.2,6.1,0.2L6.1,0.2L6.1,0.2L6.1,0.2z M6.4,0.2
			L6.4,0.2c0,0-0.1,0-0.1,0c0,0-0.1,0-0.1,0H6.4z M6.6,3.6L6.6,3.6L6.6,3.6C6.5,3.5,6.4,3.3,6.4,3c0.1,0.1,0.1,0.2,0.1,0.3
			C6.6,3.4,6.6,3.5,6.6,3.6z M6.8,3.8c-0.1,0-0.1-0.1-0.2-0.2c0,0,0.1,0.1,0.1,0.1C6.8,3.8,6.8,3.8,6.8,3.8z M7.1,4.7
			C7.2,4.9,7.3,5,7.4,5.1c0.1,0.1,0.2,0.2,0.3,0.3c0,0,0,0,0,0.1s0,0,0,0.1C7.6,5.5,7.4,5.3,7.3,5.2C7.2,5.1,7.1,4.9,7,4.7
			C7,4.7,7,4.7,7.1,4.7C7.1,4.7,7.1,4.7,7.1,4.7C7.1,4.7,7.1,4.7,7.1,4.7z M10.7,3c0,0.1-0.1,0.2-0.1,0.2c0,0-0.1,0-0.2,0
			c0,0-0.1,0-0.1,0c0,0-0.1,0-0.1,0C10.1,3.1,10,3,9.8,3S9.6,2.9,9.5,2.8C9.1,2.6,8.6,2.5,8.2,2.3C8.1,2.3,8,2.2,7.8,2.2
			c-0.1,0-0.3-0.1-0.4-0.1c0.1,0.2,0.1,0.3,0.2,0.4c0,0.1,0.1,0.3,0.2,0.4c0,0-0.1-0.1-0.1-0.1S7.5,2.7,7.5,2.6v0.1
			c0,0.1,0.1,0.3,0.2,0.4s0.1,0.3,0.2,0.4c0,0.1,0.1,0.1,0.1,0.2C8,3.8,8,3.9,8.1,3.9c0,0,0,0,0,0v0c0.1,0.3,0.2,0.4,0.5,0.6
			C8.4,4.4,8.4,4.3,8.3,4.2S8.2,4,8.1,3.9c0,0,0,0,0.1-0.1c0,0,0,0,0.1,0c0.2,0.3,0.4,0.6,0.6,0.8C9.1,4.9,9.4,5,9.7,5.1
			c0,0.1,0,0.2,0,0.2s0.1,0,0.2,0.1c0,0,0.1,0,0.1,0c0,0,0.1,0,0.1,0.1c-0.2,0-0.3-0.1-0.5-0.2C9.5,5.2,9.3,5.2,9.1,5.1
			c0,0.1,0,0.1,0,0.1c0.2,0.1,0.3,0.2,0.5,0.3s0.3,0.2,0.5,0.2c0.1,0,0.3,0,0.4,0c0.1,0,0.2-0.1,0.4-0.1c0,0,0,0,0.1-0.1
			c0,0,0-0.1,0.1-0.1c0-0.1,0.1-0.2,0.1-0.3c0-0.1,0.1-0.2,0.1-0.2c0.1-0.3,0.2-0.6,0.2-0.8c0-0.3,0-0.6-0.1-0.8
			c0-0.2-0.1-0.4-0.1-0.6c-0.1-0.2-0.1-0.4-0.2-0.6c0,0.2-0.1,0.3-0.1,0.5C10.9,2.7,10.8,2.9,10.7,3z M7.8,0.5L7.8,0.5l-0.1,0v0H7.8
			z M7.9,5.7C7.9,5.7,7.8,5.7,7.9,5.7C7.8,5.6,7.8,5.6,7.7,5.6c0,0,0.1,0,0.1,0C7.9,5.6,7.9,5.7,7.9,5.7C7.9,5.7,7.9,5.7,7.9,5.7z
			 M8.6,0.8c0.1,0,0.2,0,0.3,0C8.9,0.8,9,0.8,9,0.9C9,0.9,8.9,0.9,8.8,0.8S8.6,0.8,8.6,0.8z M9.7,6.6c0,0-0.1,0-0.2,0
			c-0.1,0-0.1,0-0.2,0v0c0.1,0,0.1,0,0.2,0C9.6,6.7,9.7,6.7,9.7,6.6L9.7,6.6z M11.7,0.7C11.6,0.7,11.6,0.7,11.7,0.7
			c-0.1-0.1-0.1-0.1-0.1-0.1c0,0,0,0,0,0c0,0,0,0,0,0C11.6,0.6,11.7,0.7,11.7,0.7C11.7,0.7,11.7,0.7,11.7,0.7z M11.8,1.1
			c0.1,0.2,0.2,0.4,0.3,0.6C12,1.5,12,1.4,12,1.3C11.9,1.2,11.9,1.1,11.8,1.1z M12,1c0.1,0,0.1,0.1,0.2,0.2c0.1,0.1,0.1,0.2,0.2,0.4
			s0.1,0.3,0.1,0.4c0,0.2,0,0.3,0.1,0.4c0-0.1-0.1-0.3-0.1-0.4c0-0.1-0.1-0.3-0.1-0.4c0-0.1-0.1-0.2-0.1-0.3c0-0.1-0.1-0.2-0.1-0.3
			V1z"/>
		<path d="M6.7,10.9C6.8,11,6.7,11,6.7,10.9c-0.1,0.1-0.2,0.1-0.3,0.1c0,0-0.1-0.1-0.3-0.2c-0.1-0.1-0.2-0.2-0.4-0.3
			c-0.1-0.1-0.2-0.2-0.3-0.3C5.3,10.1,5.2,10,5.2,10c0,0,0,0,0.1,0.1c0,0.1,0.1,0.1,0.2,0.2s0.1,0.1,0.2,0.2c0,0.1,0.1,0.1,0,0.1
			c0,0-0.1,0-0.2-0.1c-0.1-0.1-0.3-0.2-0.4-0.3C4.9,10,4.7,9.8,4.6,9.7C4.5,9.6,4.4,9.5,4.4,9.5C4.4,9.4,4.3,9.2,4.3,9.1
			c0-0.1,0.1-0.2,0.1-0.2c0-0.1,0.1-0.1,0.1-0.2s0.1-0.1,0.1-0.1c0.1-0.1,0.2-0.2,0.3-0.2c0.1,0,0.2-0.1,0.4-0.1c0.1,0,0.2,0,0.3,0
			s0.2,0,0.2,0H6c0,0,0,0,0-0.1s0,0,0-0.1c0,0-0.1-0.1-0.1-0.1c0,0-0.1-0.1-0.1-0.1C5.6,7.7,5.6,7.6,5.6,7.5s0-0.3,0-0.4
			C5.7,7,5.7,7,5.7,6.9s0.1-0.1,0.1-0.1c0,0,0.1,0,0.1,0c0,0,0,0,0.1,0c0.1,0,0.3,0,0.4,0.1s0.3,0.1,0.4,0.1c0,0,0,0,0,0s0,0,0,0
			C7,7,7,7,7.1,7c0,0,0.1,0,0.1,0c0,0,0-0.1,0-0.1c0,0-0.1,0-0.1,0c-0.1,0-0.1,0-0.2-0.1c-0.1,0-0.1,0-0.2,0c0,0,0,0-0.1,0
			c0,0,0,0,0,0c0,0,0,0,0,0c0,0,0,0,0,0c0,0,0,0,0,0c0.1,0,0.3,0,0.4,0c0.1,0,0.3,0.1,0.4,0.1c0.1,0,0.2,0.1,0.3,0.2
			C7.8,7,7.9,7,8.1,7.1C8,7.2,8,7.2,7.9,7.2c-0.1,0-0.1,0-0.2,0c0,0,0,0-0.1,0s0,0,0,0.1c0.1,0,0.2,0.1,0.2,0.1
			c0.1,0,0.1,0.1,0.2,0.1c0,0,0,0.1,0,0.1C8.1,7.8,8,8,7.6,7.9c-0.1,0-0.1,0-0.2-0.1c-0.1,0-0.1-0.1-0.2-0.1C7.1,7.7,7,7.6,6.8,7.6
			c-0.1,0-0.3-0.1-0.4-0.1c0,0,0,0,0,0s0,0,0,0v0c0,0,0.1,0.1,0.1,0.1c0,0,0.1,0.1,0.1,0.1C6.7,7.8,6.8,7.9,6.9,8
			c0.1,0.1,0.2,0.2,0.4,0.3c0.1,0.1,0.3,0.2,0.4,0.3S8,8.7,8.1,8.8c0,0,0,0,0.1,0.1c0,0,0.1,0,0.1,0.1c0,0,0,0.1,0,0.1
			c0,0.1,0,0.1,0,0.1c0,0.1,0,0.3,0,0.4c0,0.1-0.1,0.2-0.1,0.3c0,0,0,0,0,0c0,0,0,0-0.1,0c0,0-0.1,0-0.1,0s-0.1,0-0.1,0
			c-0.2,0-0.4-0.1-0.5-0.2C7.1,9.7,6.9,9.7,6.7,9.6c-0.1,0-0.2-0.1-0.3-0.1c-0.1,0-0.2,0-0.3-0.1c0,0-0.1,0-0.1,0c0,0-0.1,0-0.1,0.1
			c-0.1,0-0.2,0-0.3-0.1c-0.1,0-0.2,0-0.2-0.1s-0.2,0-0.3-0.1c0,0,0,0-0.1,0c0,0-0.1,0-0.1,0c0,0.1,0.1,0.1,0.1,0.1l0.7,0.7
			c0.2,0.2,0.3,0.3,0.5,0.5C6.5,10.8,6.6,10.9,6.7,10.9z M6.1,9.5L6.1,9.5L6.1,9.5c0.1,0,0.1,0,0.2,0c0.1,0,0.1,0,0.2,0.1
			C6.3,9.7,6.2,9.6,6.1,9.5z M6.5,9.7C6.5,9.7,6.5,9.7,6.5,9.7C6.5,9.6,6.5,9.7,6.5,9.7c0.1,0,0.3,0,0.4,0.1S7.1,9.9,7.2,10H7.2
			C7,9.9,6.9,9.9,6.9,9.9C6.8,9.8,6.7,9.8,6.5,9.7C6.6,9.7,6.5,9.7,6.5,9.7z"/>
		<path d="M6.7,14.1C6.7,14.2,6.7,14.2,6.7,14.1c-0.1,0.1-0.1,0.1-0.2,0.1c0,0-0.1-0.1-0.3-0.2c-0.2-0.1-0.3-0.3-0.5-0.5
			c-0.2-0.2-0.4-0.4-0.6-0.5c-0.2-0.2-0.3-0.3-0.4-0.4c-0.1-0.1-0.2-0.2-0.2-0.3c-0.1-0.1-0.1-0.1-0.1-0.2c0-0.1-0.1-0.1-0.1-0.2
			c0,0,0-0.1,0-0.1c0,0,0-0.1,0-0.2c0-0.1,0-0.2,0-0.2s0.1-0.1,0.2-0.2c0.2-0.2,0.5-0.4,0.9-0.4c0.2,0,0.4,0,0.6,0
			c0.2,0,0.4,0.1,0.6,0.1C6.7,10.9,7,11,7.3,11.1c0,0,0.1,0,0.1,0c0,0,0.1,0,0.1,0h0c0,0,0-0.1,0-0.1c0,0-0.1,0-0.2-0.1
			c-0.1,0-0.2,0-0.2-0.1c-0.1,0-0.2-0.1-0.3-0.1c0,0,0,0,0,0c0,0,0,0,0.1,0c0,0,0,0,0.1,0s0.1,0,0.1,0c0,0,0,0,0,0
			c0.1,0,0.1,0,0.2,0c0,0,0.1,0,0.1,0.1h0c0,0,0.1,0,0.2,0.1s0.3,0.1,0.4,0.1c0.2,0,0.3,0.1,0.4,0.1s0.2,0.1,0.2,0.1c0,0,0,0-0.1,0
			c-0.1,0-0.2,0-0.2-0.1c-0.1,0-0.2-0.1-0.4-0.1c0,0,0,0,0,0c0.1,0,0.1,0,0.2,0.1c0.1,0,0.1,0,0.2,0.1c0.1,0,0.2,0.1,0.3,0.1
			c0.1,0,0.2,0.1,0.3,0.2c0,0,0,0,0.1,0c0,0,0,0,0.1,0c0,0,0,0,0-0.1c0,0,0,0,0,0c0,0,0,0,0,0c0,0,0,0,0-0.1C9,11.4,9,11.3,9,11.2
			c0-0.2,0.2-0.3,0.3-0.3c0.1,0.1,0.2,0.3,0.2,0.4c0.1,0.1,0.1,0.3,0.1,0.5c0,0.1,0.1,0.2,0.2,0.3c0,0,0,0-0.1,0c0,0,0,0-0.1,0.1
			c0,0,0,0,0,0.1c0,0.1,0.1,0.1,0.1,0.1c0,0,0,0,0.1,0c0,0,0.1,0,0.1,0c0,0,0,0,0,0.1c0,0,0,0,0.1,0.1c0,0,0,0,0.1,0c0,0,0,0-0.1,0
			c0,0-0.1,0-0.1,0c0,0-0.1,0-0.2-0.1c0,0,0,0,0.1,0c0,0,0.1,0,0.2,0c0.1,0,0.1,0,0.2,0s0.1,0,0.1,0c0,0,0.1,0,0.1,0h0c0,0,0,0,0,0
			c0,0,0,0,0.1,0.1s0.2,0.1,0.3,0.1s0.2,0.1,0.2,0.1s0.1,0.1,0.1,0.1c0,0,0,0-0.1,0s-0.1,0-0.1-0.1c0,0-0.1,0-0.1-0.1
			c0,0-0.1,0-0.1,0c0,0-0.1,0-0.1,0c0,0,0,0-0.1,0c0,0,0,0-0.1,0c0,0,0,0,0-0.1c0,0-0.1,0-0.2,0c0,0,0,0-0.1,0c0,0,0,0.1,0,0.1
			c0,0,0.1,0,0.1,0c0.1,0.1,0.2,0.1,0.3,0.2s0.2,0.1,0.3,0.2c0.1,0.1,0.2,0.1,0.2,0.2c0,0.1,0,0.3,0,0.4c0,0.1-0.1,0.3-0.3,0.4
			c-0.1,0-0.2,0-0.3-0.1c-0.1,0-0.2-0.1-0.3-0.1c-0.1,0-0.2-0.1-0.3-0.1c-0.1-0.1-0.2-0.1-0.3-0.1c0,0.1-0.1,0.1,0,0.2s0,0.1,0,0.2
			c0,0,0,0.1,0,0.1c0,0,0,0.1,0,0.1c0,0,0,0.1-0.1,0.1s-0.1,0-0.1,0c0,0,0,0-0.1,0c0,0,0,0,0-0.1c0-0.1-0.1-0.1-0.1-0.2
			c0-0.1,0-0.1-0.1-0.2c0-0.1-0.1-0.1-0.1-0.2c0-0.1,0-0.2-0.1-0.2c-0.2-0.1-0.4-0.2-0.5-0.2s-0.3-0.2-0.5-0.2
			c-0.2-0.1-0.3-0.2-0.5-0.2c-0.2-0.1-0.4-0.1-0.5-0.2C7,12.2,6.7,12.1,6.5,12c-0.2-0.1-0.5-0.1-0.7-0.2c-0.1,0-0.2,0-0.3-0.1
			c-0.1,0-0.2,0-0.3,0H5c-0.1,0-0.1,0.1-0.2,0.1c0,0,0,0.1,0,0.1c0,0,0,0.1,0,0.1c0,0,0,0.1,0.1,0.1c0,0,0.1,0.1,0.2,0.2
			c0.1,0.1,0.2,0.2,0.3,0.3s0.3,0.3,0.4,0.4c0.1,0.1,0.3,0.3,0.4,0.4s0.2,0.2,0.3,0.3C6.6,14,6.7,14.1,6.7,14.1z"/>
		<path d="M5.9,14.8c-0.1,0-0.2,0-0.3-0.1c-0.1,0-0.2,0-0.3,0c-0.2,0-0.5-0.1-0.7-0.2c0,0,0-0.1,0-0.2s0.1-0.1,0.1-0.2
			c0-0.1,0.1-0.1,0.1-0.2c0-0.1,0.1-0.1,0.2-0.1c0.1,0,0.1,0,0.2,0c0.1,0,0.1,0,0.2,0c0.2,0,0.4,0.1,0.6,0.1c0.2,0,0.4,0.1,0.6,0.1
			c0.1,0,0.1,0,0.2,0c0.1,0,0.1,0,0.2,0c0.3,0.1,0.6,0.2,0.9,0.2c0.3,0.1,0.6,0.1,1,0.2c0,0,0.1,0,0.1,0c0.1,0,0.1,0,0.2,0
			c0.1,0,0.1,0,0.2,0.1c0.1,0,0.1,0,0.1,0.1l-0.4,0c0.1,0.1,0.2,0.1,0.3,0.1s0.2,0,0.3,0c0,0,0,0,0,0c0,0,0,0,0,0
			c0.1,0,0.2,0.1,0.3,0.1c0.1,0,0.2,0.1,0.3,0.1c0,0,0,0,0.1,0c0,0,0.1,0,0.1,0c0.4,0.1,0.7,0.2,1.1,0.3c0.1,0,0.1,0,0.2,0
			c0,0,0.1,0,0.2,0.1c-0.1,0-0.3,0-0.4-0.1s-0.3,0-0.4,0c0.1,0.1,0.1,0.1,0.2,0.1c0,0,0,0,0.1,0c0.2,0,0.4,0,0.5,0.1
			c0.1,0.1,0.3,0.2,0.5,0.2c0.1,0,0.1,0.1,0.1,0.2c0,0.1,0.1,0.2,0.1,0.3c0,0.1,0,0.2,0,0.4c0,0.1,0,0.2,0,0.3
			c0,0.1-0.1,0.2-0.2,0.1c0,0,0,0-0.1,0c0,0-0.1,0-0.1-0.1c-0.3-0.2-0.6-0.4-1-0.5S10.4,16.2,10,16c-0.4-0.1-0.7-0.2-1.1-0.3
			c-0.3-0.1-0.6-0.2-0.9-0.3c0,0.1,0,0.1,0,0.1c0.1,0.1,0.1,0.3,0.1,0.4c0,0.1,0,0.3,0,0.5c0,0,0,0.1,0,0.1c0,0,0,0.1,0,0.1
			c0,0.1-0.1,0.1-0.1,0.2c0,0.1-0.1,0.1-0.2,0.1c0,0-0.1,0-0.1,0s-0.1,0-0.1,0c0,0,0,0,0,0.1c0,0,0,0,0,0.1c-0.1,0-0.1,0-0.2,0
			c0,0-0.1,0-0.1,0c-0.1,0-0.2-0.1-0.4-0.1c-0.1,0-0.2-0.1-0.4-0.1c-0.1,0-0.2-0.1-0.2-0.1s-0.2-0.1-0.2-0.1c-0.1,0-0.1,0-0.2-0.1
			c-0.1,0-0.1,0-0.2-0.1h0c-0.1,0-0.1,0-0.2-0.1c-0.1,0-0.1,0-0.2-0.1c0,0-0.1,0-0.1,0c0,0-0.1,0-0.1,0c0,0,0,0,0,0s0,0,0,0
			c0,0,0,0-0.1,0c0,0,0,0-0.1,0c0,0-0.1-0.1-0.1-0.1s-0.1,0-0.2,0v0c-0.1,0-0.1,0-0.2,0c0,0,0,0,0,0.1c0,0.1,0,0.1,0,0.2
			c0,0,0.1,0,0.2,0.1c0.1,0.1,0.2,0.2,0.4,0.3c0.1,0.1,0.3,0.2,0.5,0.3c0.2,0.1,0.3,0.2,0.5,0.3c0.1,0.1,0.3,0.2,0.5,0.3
			c0,0,0,0-0.1,0c-0.1,0-0.1-0.1-0.2-0.1c-0.1,0-0.2-0.1-0.3-0.2c0.1,0.1,0.1,0.1,0.2,0.1c0.1,0,0.1,0.1,0.2,0.1
			c0.1,0,0.1,0.1,0.1,0.1c0,0,0,0.1,0,0.1c0,0,0,0,0,0c0,0-0.1,0-0.2-0.1c-0.1-0.1-0.2-0.1-0.4-0.2c-0.2-0.1-0.3-0.2-0.5-0.3
			c-0.2-0.1-0.4-0.2-0.5-0.3c-0.2-0.1-0.3-0.2-0.4-0.3c-0.1-0.1-0.2-0.1-0.2-0.2c-0.1-0.1-0.1-0.2-0.1-0.3s0-0.1,0-0.2c0,0,0,0,0,0
			c0,0,0,0.1,0,0c0,0,0-0.1,0.1-0.4c0-0.1,0.1-0.1,0.1-0.2c0.1-0.1,0.1-0.1,0.2-0.2c0.1-0.1,0.1-0.1,0.2-0.1c0,0,0.1,0,0.1,0
			c0,0,0,0,0.1,0s0.1,0,0.2,0c0.1,0,0.1,0,0.2,0H5.1c0,0-0.1,0-0.1,0c0,0,0,0,0,0l0.3,0.1c0.1,0,0.2,0,0.2,0c0.1,0,0.1,0,0.1,0
			c0,0,0,0,0,0c0,0-0.1,0-0.1,0s-0.1,0-0.1,0c0,0,0,0,0,0c0.1,0,0.1,0,0.2,0c0,0,0.1,0,0.1,0s0.1,0,0.1,0c0,0,0,0,0,0h0
			c0.2,0,0.3,0,0.5,0.1s0.3,0.1,0.5,0.1c0,0,0.1,0,0.1,0s0.1,0,0.1,0c-0.1-0.1-0.1-0.2-0.2-0.2c-0.1-0.1-0.1-0.1-0.2-0.2
			c-0.1,0-0.2-0.1-0.2-0.2c-0.1-0.1-0.1-0.1-0.2-0.2c-0.1-0.1-0.1-0.1-0.2-0.2S6,14.8,5.9,14.8z"/>
	</g>
</g>
</svg>
