<?xml version="1.0" encoding="utf-8"?>
<!-- Generator: Adobe Illustrator 27.7.0, SVG Export Plug-In . SVG Version: 6.00 Build 0)  -->
<svg version="1.1" id="Layer_2_00000140730668244858528980000005899875251685870467_"
	 xmlns="http://www.w3.org/2000/svg" xmlns:xlink="http://www.w3.org/1999/xlink" x="0px" y="0px" viewBox="0 0 55.5 46.2"
	 style="enable-background:new 0 0 55.5 46.2;" xml:space="preserve">
<style type="text/css">
	.st0{enable-background:new    ;}
</style>
<g id="Layer_1-2">
	<g class="st0">
		<path d="M10.5,0.8c0.3,0,0.4,0.1,0.4,0.2c0,0.2-0.1,0.3-0.4,0.3c-0.2,0-0.3,0-0.5,0c-0.2,0-0.3,0-0.5,0c-0.3,0-0.7,0-1,0
			s-0.6,0-1,0.1h0.6c-0.3,0.1-0.7,0.1-1,0.1c-0.3,0-0.7,0.1-1,0.2c0.2,0.1,0.3,0.1,0.4,0c0.1,0,0.3,0,0.4,0c0.2,0,0.3,0,0.4,0
			s0.3,0,0.4,0.1c-0.1,0-0.1,0-0.2,0c-0.1,0-0.1,0-0.2,0c-0.2,0-0.4,0-0.6,0s-0.4,0-0.6,0C6.1,2,6.1,2,6.1,2C6,2,6,2.1,6,2.2
			C5.9,2.5,5.8,2.9,5.6,3.2C5.5,3.6,5.4,3.9,5.3,4.3c0,0.1-0.1,0.2-0.1,0.3S5.1,4.8,5.1,5C5,5.4,4.8,5.8,4.7,6.2
			C4.5,6.7,4.4,7.1,4.3,7.5C4.2,7.8,4.2,8,4.1,8.2C4.1,8.4,4,8.6,4,8.8C3.9,9,3.9,9,3.8,9.1c-0.1,0-0.2,0-0.3-0.1
			C3.4,8.9,3.3,8.8,3.2,8.7S3.1,8.4,3.1,8.2c0-0.3,0-0.5,0-0.7S3.3,7,3.3,6.8c0.2-0.4,0.3-0.9,0.4-1.3C3.9,5,4,4.6,4.1,4.1
			c0,0,0-0.1,0-0.1s0-0.1,0-0.1C4.1,4,4.1,4.1,4,4.2C4,4.2,4,4.3,3.9,4.4c0,0.1,0,0.1-0.1,0.2s0,0.1-0.1,0.2c0-0.1,0-0.2,0-0.3
			s0-0.2,0-0.3C3.9,4,4,3.7,4,3.5C4.1,3.2,4.2,3,4.2,2.8c0,0,0-0.1,0.1-0.1s0.1-0.1,0.1-0.1c0,0.1,0,0.2,0,0.3C4.3,2.9,4.3,3,4.3,3
			c0,0.1,0,0.1,0,0.2s0,0.1,0,0.2c0.1-0.2,0.1-0.4,0.2-0.6c0.1-0.2,0.2-0.4,0.2-0.6c-0.3,0-0.7,0.1-1,0.3S3.2,2.8,2.9,2.9
			C3,2.8,3,2.7,3.1,2.7c0.1-0.1,0.1-0.1,0.2-0.1c0.2-0.1,0.4-0.1,0.6-0.2c0.2-0.1,0.4-0.1,0.6-0.2c0.1,0,0.1,0,0.2-0.1
			c0.1,0,0.1-0.1,0.2-0.2C4.8,2,4.7,2,4.7,2S4.6,2,4.6,2C4.3,2.1,3.9,2.2,3.6,2.3C3.3,2.4,3,2.5,2.7,2.6c-0.1,0-0.2,0.1-0.2,0.1
			c-0.1,0-0.1,0-0.2,0.1c-0.2,0.1-0.4,0.1-0.5,0S1.4,2.6,1.3,2.4c0-0.1,0-0.2-0.1-0.3c0-0.1,0-0.2-0.1-0.3c0.3-0.1,0.6-0.2,0.9-0.3
			S2.7,1.3,3,1.2C3.4,1.2,3.7,1.1,4,1c0.3-0.1,0.6-0.1,1-0.1c0.1,0,0.2,0,0.2-0.1c0,0,0-0.1,0.1-0.2c0-0.1,0-0.1,0-0.2
			c0,0,0-0.1,0-0.2c0,0,0-0.1,0-0.1s0-0.1,0-0.2c0.2,0,0.3,0,0.4,0.1S5.9,0.3,6,0.4C6,0.4,6.1,0.5,6.1,0.6c0,0.1,0.1,0.2,0.2,0.2
			c0.1,0,0.1,0,0.2,0c0.5,0,1,0,1.5,0c0.5,0,1,0,1.5,0c0.2,0,0.3,0,0.5,0C10.1,0.7,10.3,0.7,10.5,0.8z M3.3,6.3c0,0.1,0,0.2,0,0.3
			c0,0.1-0.1,0.2-0.2,0.4c0-0.1,0.1-0.2,0.1-0.4C3.2,6.5,3.2,6.4,3.3,6.3z M3.7,5.1c0-0.1,0-0.2,0-0.3c0,0.1,0,0.1,0,0.2
			C3.7,5,3.7,5,3.7,5.1z M3.8,4.8L3.8,4.8C3.8,4.8,3.8,4.8,3.8,4.8C3.8,4.7,3.8,4.7,3.8,4.8L3.8,4.8L3.8,4.8L3.8,4.8z M7.1,1.6
			L7.1,1.6L7,1.5v0H7.1z"/>
		<path d="M6.1,7.2c0,0.1,0,0.2-0.1,0.3c0,0.1,0,0.2,0,0.3c0,0.2-0.1,0.5-0.2,0.7c0,0-0.1,0-0.2,0c-0.1,0-0.1-0.1-0.2-0.1
			S5.3,8.3,5.2,8.3c-0.1,0-0.1-0.1-0.1-0.2c0-0.1,0-0.1,0-0.2c0-0.1,0-0.1,0-0.2c0-0.2,0.1-0.4,0.1-0.6c0-0.2,0.1-0.4,0.1-0.6
			c0-0.1,0-0.1,0-0.2c0-0.1,0-0.1,0-0.2c0.1-0.3,0.2-0.6,0.2-0.9c0.1-0.3,0.1-0.6,0.2-1c0,0,0-0.1,0-0.1C6,4,6,3.9,6,3.8
			C6,3.8,6,3.7,6,3.7c0-0.1,0-0.1,0.1-0.1l0,0.4c0.1-0.1,0.1-0.2,0.1-0.3s0-0.2,0-0.3c0,0,0,0,0,0s0,0,0,0c0-0.1,0.1-0.2,0.1-0.3
			c0-0.1,0.1-0.2,0.1-0.3c0,0,0,0,0-0.1c0,0,0-0.1,0-0.1c0.1-0.4,0.2-0.7,0.3-1.1c0-0.1,0-0.1,0-0.2c0,0,0-0.1,0.1-0.2
			c0,0.1,0,0.3-0.1,0.4s0,0.3,0,0.4c0.1-0.1,0.1-0.1,0.1-0.2c0,0,0,0,0-0.1c0-0.2,0-0.4,0.1-0.5C7,1.1,7,0.9,7.1,0.7
			c0-0.1,0.1-0.1,0.2-0.1c0.1,0,0.2-0.1,0.3-0.1c0.1,0,0.2,0,0.4,0c0.1,0,0.2,0,0.3,0c0.1,0,0.2,0.1,0.1,0.2c0,0,0,0,0,0.1
			c0,0,0,0.1-0.1,0.1C8.2,1.2,8,1.6,7.8,2S7.5,2.7,7.4,3.1C7.3,3.5,7.1,3.8,7,4.2C6.9,4.5,6.9,4.8,6.8,5c0.1,0,0.1,0,0.1,0
			C7,4.9,7.2,4.9,7.3,4.9c0.1,0,0.3,0,0.5,0c0,0,0.1,0,0.1,0s0.1,0,0.1,0C8,4.9,8.1,5,8.1,5s0.1,0.1,0.1,0.2c0,0,0,0.1,0,0.1
			s0,0.1,0,0.1c0,0,0,0,0.1,0c0,0,0,0,0.1,0c0,0.1,0,0.1,0,0.2s0,0.1,0,0.1c0,0.1-0.1,0.2-0.1,0.4c0,0.1-0.1,0.2-0.1,0.4
			C8.1,6.4,8,6.5,8,6.6C8,6.7,8,6.7,7.9,6.8c0,0.1,0,0.1-0.1,0.2c0,0.1,0,0.1-0.1,0.2v0c0,0.1,0,0.1-0.1,0.2c0,0.1,0,0.1-0.1,0.2
			c0,0,0,0.1,0,0.1c0,0,0,0.1,0,0.1c0,0,0,0,0,0c0,0,0,0,0,0c0,0,0,0,0,0.1c0,0,0,0,0,0.1c0,0-0.1,0.1-0.1,0.1s0,0.1,0,0.2h0
			c0,0.1,0,0.1,0,0.2c0,0,0,0,0.1,0s0.1,0,0.2,0c0,0,0-0.1,0.1-0.2C7.9,8.1,8,8,8.1,7.9c0.1-0.1,0.2-0.3,0.3-0.5
			C8.5,7.3,8.7,7.1,8.8,7C8.9,6.8,9,6.7,9.1,6.5c0,0,0,0,0,0.1C9,6.6,9,6.7,9,6.7c0,0.1-0.1,0.2-0.2,0.3C8.9,7,8.9,6.9,9,6.8
			C9,6.8,9,6.7,9.1,6.7c0-0.1,0.1-0.1,0.1-0.1c0,0,0.1,0,0.1,0c0,0,0,0,0,0c0,0,0,0.1-0.1,0.2C9.1,6.9,9,7,9,7.2
			C8.9,7.3,8.8,7.5,8.7,7.7C8.6,7.9,8.5,8.1,8.4,8.2C8.3,8.4,8.2,8.5,8.1,8.6C8,8.7,8,8.8,7.9,8.8C7.8,8.9,7.8,8.9,7.7,8.9
			c-0.1,0-0.1,0-0.2,0c0,0,0,0,0,0c0,0,0.1,0,0,0c0,0-0.1,0-0.4-0.1C7.1,8.8,7.1,8.8,7,8.7C7,8.7,6.9,8.6,6.8,8.5
			C6.8,8.5,6.7,8.4,6.7,8.4c0,0,0-0.1,0-0.1c0,0,0,0,0-0.1s0-0.1,0-0.2c0-0.1,0-0.1,0-0.2V8c0,0,0,0.1,0,0.1c0,0,0,0,0,0l0.1-0.3
			c0-0.1,0-0.2,0-0.2c0-0.1,0-0.1,0-0.1c0,0,0,0,0,0c0,0,0,0.1,0,0.1c0,0,0,0.1,0,0.1c0,0,0,0,0,0c0-0.1,0-0.1,0-0.2
			c0,0,0-0.1,0-0.1c0,0,0-0.1,0-0.1c0,0,0,0,0,0v0c0-0.2,0-0.3,0.1-0.5c0-0.2,0.1-0.3,0.1-0.5c0,0,0-0.1,0-0.1s0-0.1,0-0.1
			C7,6,6.9,6.1,6.8,6.1C6.8,6.2,6.7,6.3,6.7,6.3c0,0.1-0.1,0.2-0.1,0.2C6.5,6.6,6.4,6.7,6.3,6.8C6.3,6.8,6.2,6.9,6.2,7
			S6.1,7.1,6.1,7.2z"/>
		<path d="M12.2,6.4c0,0,0,0.1-0.1,0.2c-0.1,0.1-0.1,0.2-0.3,0.3C11.9,7,11.8,7,11.8,7.1c-0.1,0-0.1,0.1-0.2,0.2
			c0,0-0.1,0.1-0.1,0.2c0,0.1-0.1,0.1-0.1,0.2c-0.2,0.3-0.5,0.5-0.8,0.6c-0.1,0.1-0.3,0.1-0.4,0.1s-0.3,0-0.5,0c0,0-0.1,0-0.1,0
			c0,0-0.1,0-0.1,0C9.3,8.2,9.2,8.1,9.1,8C9,8,8.9,7.9,8.9,7.8c0,0-0.1-0.1-0.1-0.1c0,0,0-0.1,0-0.1c0-0.2,0-0.3,0-0.5
			c0-0.1,0-0.1,0-0.2c0-0.1,0-0.2,0-0.3c0-0.1,0.1-0.2,0.1-0.4C9,6.1,9.1,6,9.2,5.9C9.1,6,9.1,6,9.1,6.1C9.1,6.1,9,6.2,9,6.3
			c0,0.1,0,0.1-0.1,0.2c0,0.1,0,0.1,0,0.2C9,6.6,9.1,6.4,9.1,6.3c0-0.1,0.1-0.3,0.2-0.4c0.1-0.1,0.2-0.2,0.2-0.3
			c0.1-0.1,0.2-0.2,0.2-0.3c0,0,0.1,0,0.1,0c0,0,0.1,0,0.1,0C10.2,5.1,10.3,5,10.5,5c0.2,0,0.3-0.1,0.5-0.1c0.2,0,0.3,0,0.5,0.1
			c0,0,0.1,0,0.1,0c0,0,0.1,0,0.1,0.1c0,0,0.1,0,0.1,0.1c0,0,0,0,0,0.1c0.1,0.1,0.2,0.1,0.2,0.2s0,0.2,0,0.2c0,0.1-0.1,0.1-0.1,0.2
			c0,0.1-0.1,0.1-0.1,0.2c-0.1,0.1-0.2,0.2-0.3,0.3S11.1,6.4,11,6.5c-0.2,0.1-0.4,0.2-0.6,0.2c-0.1,0-0.2,0-0.2,0
			c-0.1,0-0.1,0-0.1,0c0,0-0.1,0.1-0.1,0.1c0,0,0,0.1-0.1,0.2c0,0.1-0.1,0.2-0.1,0.3c0,0.1-0.1,0.2-0.1,0.3c0,0,0,0.1,0,0.1
			s0,0.1,0,0.1c0.1,0,0.2,0,0.2,0c0.1,0,0.1-0.1,0.2-0.1c0.1-0.1,0.2-0.1,0.4-0.2c0.1-0.1,0.2-0.1,0.4-0.2c0.2-0.1,0.3-0.2,0.5-0.4
			s0.3-0.3,0.5-0.4h0c0.1,0,0.1-0.1,0.1-0.1C12.1,6.4,12.1,6.4,12.2,6.4C12.2,6.4,12.2,6.4,12.2,6.4z M11,5.3
			c-0.3,0.2-0.5,0.5-0.6,0.8c0.1-0.1,0.3-0.2,0.4-0.2s0.2-0.2,0.3-0.3c0,0,0,0,0,0c0,0,0,0,0-0.1C11.1,5.4,11,5.3,11,5.3z"/>
	</g>
	<g>
		<g class="st0">
			<path d="M21.3,3.7c0,0.2,0,0.4,0,0.6s0,0.4-0.1,0.6c0,0.5-0.1,0.9-0.3,1.3c-0.2,0.4-0.4,0.8-0.6,1.1c-0.1,0.2-0.3,0.4-0.4,0.6
				c-0.1,0.2-0.3,0.4-0.4,0.5c-0.1,0.1-0.3,0.2-0.4,0.3c-0.1,0.1-0.2,0.1-0.3,0.2c-0.1,0.1-0.2,0.1-0.3,0.1c-0.1,0-0.3,0.1-0.4,0.1
				c-0.1,0-0.3,0-0.4,0.1c-0.3,0-0.7,0-1-0.1c-0.5-0.2-0.9-0.5-1.3-1.1C15.2,7.7,15,7.4,15,7.1s-0.2-0.6-0.2-0.9
				c0-0.2-0.1-0.4-0.1-0.6c0-0.2,0-0.4-0.1-0.6c0-0.1,0-0.2,0-0.3c0-0.1,0-0.2,0-0.3c0.1-0.4,0.2-0.8,0.4-1.1
				c0.2-0.3,0.3-0.6,0.5-0.9c0,0,0,0,0.1,0c0,0,0,0.1,0,0.1c0,0,0,0.1,0,0.1c0.1,0,0.1-0.1,0.2-0.1c0-0.1,0.1-0.1,0.1-0.2
				c0,0,0,0-0.1,0s0,0-0.1,0.1V2.3C15.7,2.2,15.9,2,16,1.8c0.1-0.2,0.3-0.3,0.5-0.5c0,0,0.1,0,0.1,0c0,0,0,0.1-0.1,0.1
				c0,0-0.1,0.1-0.1,0.1c-0.1,0-0.1,0.1-0.2,0.1s-0.1,0.1-0.1,0.2c0.1,0,0.2-0.1,0.2-0.2s0.1-0.1,0.2-0.1c0,0,0,0,0,0s0,0,0,0
				c0,0-0.1,0.1-0.1,0.1c0,0-0.1,0.1-0.1,0.1c0,0-0.1,0.1-0.1,0.1c0,0-0.1,0.1-0.1,0.1c0,0,0.1,0,0.1,0s0,0,0,0c0,0,0,0,0,0
				c0,0,0,0,0.1,0C16.4,2,16.4,2,16.5,2c0.1,0,0.1-0.1,0.2-0.1c0.1-0.1,0.1-0.1,0.1-0.2c0-0.1,0.1-0.1,0.1-0.2
				c0.2-0.2,0.3-0.3,0.6-0.4c0.2-0.1,0.4-0.2,0.7-0.3c0.1,0,0.1,0,0.2,0c0,0,0.1,0,0.1,0c0.2-0.1,0.4-0.1,0.7,0
				c0.2,0.1,0.5,0.1,0.7,0.3c0,0,0.1,0,0.1,0.1c0,0,0,0,0.1,0c0.3,0.3,0.5,0.5,0.7,0.8c0.2,0.3,0.3,0.6,0.4,1c0,0.1,0,0.2,0.1,0.3
				C21.2,3.4,21.2,3.5,21.3,3.7z M15.1,3.4c0.1-0.1,0.1-0.1,0.2-0.2s0.1-0.1,0.1-0.3c-0.1,0-0.1,0.1-0.2,0.2S15.2,3.3,15.1,3.4z
				 M15.5,2.7C15.5,2.7,15.4,2.7,15.5,2.7c-0.1,0.1-0.1,0.2-0.1,0.3C15.5,2.8,15.5,2.8,15.5,2.7z M20.6,3.9c0-0.2,0-0.3,0-0.5
				c0-0.2,0-0.3,0-0.4c0-0.2,0-0.4-0.1-0.6c0-0.2-0.1-0.4-0.2-0.6c-0.2-0.3-0.4-0.5-0.7-0.6c-0.1,0-0.3,0-0.4-0.1
				c-0.1,0-0.2,0-0.4,0c-0.2,0-0.4,0.1-0.6,0.2c-0.2,0.1-0.3,0.2-0.5,0.3c-0.1,0.1-0.3,0.3-0.4,0.5c0.1,0.1,0.1,0.1,0.2,0.2
				c0,0.1,0.1,0.1,0.1,0.2c0,0-0.1,0.1-0.1,0.1c0,0,0,0-0.1,0c-0.1,0-0.2,0-0.3,0.1S17.3,2.9,17.3,3c0,0.3,0,0.5,0,0.8
				c0,0.3,0.1,0.6,0.1,0.9c0,0.2,0.1,0.4,0.1,0.6c0.1,0.2,0.2,0.4,0.3,0.6C17.9,6,18,6.1,18.1,6.2c0.1,0.1,0.2,0.2,0.4,0.3
				c0,0,0.1,0.1,0.1,0.1c0,0,0.1,0.1,0.1,0.1c0,0-0.1,0.1-0.1,0.1s-0.1,0-0.2,0c-0.2-0.1-0.4-0.2-0.6-0.4s-0.3-0.4-0.5-0.6
				c-0.2-0.3-0.4-0.6-0.5-1c-0.1-0.3-0.2-0.6-0.2-1c0,0,0-0.1,0-0.2c0-0.1,0-0.1,0-0.2c0,0-0.1,0.1-0.1,0.1
				c-0.1,0.1-0.1,0.1-0.2,0.2c-0.1,0.1-0.1,0.1-0.1,0.2c0,0.1-0.1,0.1-0.1,0.2c0,0.2-0.1,0.3-0.1,0.5c0,0.2-0.1,0.3-0.1,0.4
				c-0.1,0.5-0.2,1-0.2,1.5c0,0.2,0,0.3,0,0.5c0,0.2,0.1,0.4,0.1,0.5c0,0.1,0.1,0.1,0.1,0.2S15.9,8,16,8.1c0.2,0.3,0.4,0.5,0.6,0.5
				c0.2,0,0.5,0,0.7,0c0.2,0,0.4-0.1,0.6-0.2c0.3-0.2,0.5-0.4,0.7-0.6S19,7.2,19.2,7c0.3-0.3,0.5-0.7,0.6-1.1c0-0.1,0.1-0.1,0.1-0.2
				s0-0.1,0.1-0.2c0,0,0,0.1,0,0.1c0,0,0,0,0,0.1c0.2-0.3,0.3-0.7,0.2-1.1c0,0.1,0,0.1,0,0.2c0,0,0,0.1,0,0.2c0,0.1-0.1,0.2-0.1,0.3
				S20,5.4,20,5.5c0-0.1,0-0.3,0-0.4s0-0.3,0.1-0.4c0-0.1,0-0.1,0.1-0.2s0-0.2,0-0.2c0-0.2,0-0.3,0-0.5c0-0.2,0-0.3,0-0.5
				c0-0.2,0-0.4-0.1-0.6c0-0.2-0.1-0.4-0.2-0.6c0.1,0.1,0.2,0.2,0.2,0.3c0,0.1,0.1,0.2,0.1,0.3c0,0,0-0.1,0-0.1c0,0,0,0,0-0.1
				c0,0.3,0.1,0.5,0.1,0.7C20.5,3.4,20.5,3.7,20.6,3.9z M20.3,4.5c0.1-0.1,0.1-0.1,0.1-0.2c0,0,0.1-0.1,0.1-0.1c0-0.1,0-0.1,0-0.2
				c0-0.1,0-0.2-0.1-0.3c0,0.1,0,0.3-0.1,0.4S20.3,4.3,20.3,4.5z"/>
			<path d="M25.8,4.9c0.1,0.1,0.2,0.3,0.2,0.4c0,0.1,0,0.3-0.1,0.5c-0.1,0.2-0.2,0.4-0.3,0.6c-0.1,0.2-0.2,0.4-0.3,0.6
				c-0.1,0.2-0.1,0.3-0.2,0.5c0,0.1-0.1,0.3-0.1,0.4c0,0.1,0,0.2,0,0.3s0,0.2-0.1,0.3c0,0,0,0-0.1,0.1s0,0-0.1,0.1
				c-0.1,0-0.2-0.1-0.3-0.2s-0.1-0.2-0.2-0.2C24.2,8,24.2,8,24.2,7.9c0-0.2,0-0.5,0-0.7c0-0.2,0.1-0.5,0.2-0.7
				c0-0.1,0.1-0.3,0.1-0.4c0-0.1,0.1-0.3,0.1-0.4c-0.1,0-0.2,0.1-0.3,0.2c-0.1,0.1-0.2,0.2-0.2,0.3c-0.1,0.1-0.2,0.2-0.3,0.3
				s-0.2,0.2-0.3,0.3c0,0-0.1,0.1-0.1,0.1S23.3,7,23.3,7c-0.1,0.1-0.2,0.2-0.3,0.3s-0.2,0.2-0.3,0.3c-0.1,0.1-0.1,0.1-0.2,0.2
				S22.4,7.9,22.3,8c0,0-0.1,0.1-0.1,0.1c0,0-0.1,0-0.1,0.1c-0.1,0.1-0.1,0.1-0.2,0.1c-0.1,0-0.2,0-0.2,0c-0.1,0-0.2-0.1-0.2-0.2
				c0-0.1,0-0.2,0-0.3s0-0.2,0-0.3c0-0.1,0-0.1,0-0.2c0,0,0-0.1,0-0.2c0-0.1,0-0.1,0-0.2c0-0.1,0-0.1,0-0.2c0-0.1,0-0.1,0-0.2
				c0-0.1,0-0.1,0.1-0.1c0.1-0.2,0.1-0.4,0.2-0.6c0-0.2,0.1-0.4,0.1-0.6c0-0.1,0-0.2,0.1-0.3c0-0.1,0.1-0.2,0.1-0.3
				c0,0.1,0,0.1,0,0.2s-0.1,0.1,0,0.2c0.1-0.1,0.1-0.1,0.2-0.2c0.1-0.1,0.1-0.1,0.1-0.2c0,0,0,0,0-0.1c0.1-0.1,0.2-0.2,0.3-0.2
				c0,0,0.1,0,0.1,0c0,0,0.1,0,0.1,0c0.1,0,0.2,0,0.3,0s0.2,0.1,0.2,0.2c0.1,0.1,0.1,0.1,0.1,0.3c-0.1,0.2-0.1,0.4-0.2,0.6
				c-0.1,0.2-0.2,0.4-0.2,0.6c0,0,0,0.1-0.1,0.1s0,0.1,0,0.1c0,0,0.1-0.1,0.1-0.1s0.1-0.1,0.1-0.1c0.1-0.1,0.1-0.2,0.2-0.2
				c0.1-0.1,0.1-0.1,0.2-0.2c0.1-0.2,0.3-0.3,0.5-0.4c0.2-0.1,0.3-0.2,0.5-0.4c0.2-0.1,0.3-0.2,0.5-0.2C25.4,4.7,25.6,4.8,25.8,4.9z
				 M21.6,6.9c0-0.1,0.1-0.2,0.1-0.4s0.1-0.2,0.1-0.4c0,0.1-0.1,0.3-0.1,0.4S21.6,6.7,21.6,6.9z M22.4,5.1c0-0.1,0-0.1,0-0.1
				c0,0,0-0.1,0-0.1c0,0,0,0,0,0s0,0,0,0c0,0,0,0.1,0,0.1S22.3,5,22.4,5.1L22.4,5.1z M24.1,5.2C24.1,5.2,24,5.3,24,5.3
				c-0.1,0-0.1,0.1-0.2,0.1c0-0.1,0.1-0.1,0.2-0.2s0.2-0.2,0.3-0.2c0.1-0.1,0.2-0.1,0.4-0.2c0.1-0.1,0.2-0.1,0.4-0.1
				c-0.1,0-0.1,0.1-0.2,0.1c-0.1,0-0.1,0.1-0.2,0.1c-0.1,0-0.1,0.1-0.2,0.1S24.2,5.1,24.1,5.2z"/>
			<path d="M29.3,6.4c0,0,0,0.1-0.1,0.2c-0.1,0.1-0.1,0.2-0.3,0.3C28.9,7,28.9,7,28.8,7.1c-0.1,0-0.1,0.1-0.2,0.2
				c0,0-0.1,0.1-0.1,0.2c0,0.1-0.1,0.1-0.1,0.2c-0.2,0.3-0.5,0.5-0.8,0.6c-0.1,0.1-0.3,0.1-0.4,0.1s-0.3,0-0.5,0c0,0-0.1,0-0.1,0
				c0,0-0.1,0-0.1,0c-0.1-0.1-0.2-0.1-0.3-0.2C26.1,8,26,7.9,25.9,7.8c0,0-0.1-0.1-0.1-0.1c0,0,0-0.1,0-0.1c0-0.2,0-0.3,0-0.5
				c0-0.1,0-0.1,0-0.2c0-0.1,0-0.2,0-0.3c0-0.1,0.1-0.2,0.1-0.4c0.1-0.1,0.1-0.2,0.2-0.3c0,0.1-0.1,0.1-0.1,0.2
				c0,0.1-0.1,0.1-0.1,0.2c0,0.1,0,0.1-0.1,0.2c0,0.1,0,0.1,0,0.2c0.1-0.2,0.2-0.3,0.2-0.4c0-0.1,0.1-0.3,0.2-0.4
				c0.1-0.1,0.2-0.2,0.2-0.3c0.1-0.1,0.2-0.2,0.2-0.3c0,0,0.1,0,0.1,0c0,0,0.1,0,0.1,0C27.2,5.1,27.4,5,27.5,5
				c0.2,0,0.3-0.1,0.5-0.1c0.2,0,0.3,0,0.5,0.1c0,0,0.1,0,0.1,0c0,0,0.1,0,0.1,0.1c0,0,0.1,0,0.1,0.1c0,0,0,0,0,0.1
				c0.1,0.1,0.2,0.1,0.2,0.2s0,0.2,0,0.2c0,0.1-0.1,0.1-0.1,0.2c0,0.1-0.1,0.1-0.1,0.2c-0.1,0.1-0.2,0.2-0.3,0.3s-0.2,0.2-0.3,0.2
				c-0.2,0.1-0.4,0.2-0.6,0.2c-0.1,0-0.2,0-0.2,0c-0.1,0-0.1,0-0.1,0c0,0-0.1,0.1-0.1,0.1c0,0,0,0.1-0.1,0.2c0,0.1-0.1,0.2-0.1,0.3
				c0,0.1-0.1,0.2-0.1,0.3c0,0,0,0.1,0,0.1s0,0.1,0,0.1c0.1,0,0.2,0,0.2,0c0.1,0,0.1-0.1,0.2-0.1c0.1-0.1,0.2-0.1,0.4-0.2
				c0.1-0.1,0.2-0.1,0.4-0.2c0.2-0.1,0.3-0.2,0.5-0.4s0.3-0.3,0.5-0.4h0c0.1,0,0.1-0.1,0.1-0.1C29.2,6.4,29.2,6.4,29.3,6.4
				C29.3,6.4,29.3,6.4,29.3,6.4z M28,5.3c-0.3,0.2-0.5,0.5-0.6,0.8c0.1-0.1,0.3-0.2,0.4-0.2s0.2-0.2,0.3-0.3c0,0,0,0,0,0
				c0,0,0,0,0-0.1C28.1,5.4,28.1,5.3,28,5.3z"/>
		</g>
		<g class="st0">
			<path d="M37.7,3.1c0.1,0.3,0.1,0.6,0.1,0.8c-0.1,0.3-0.2,0.5-0.3,0.8C37.3,5,37,5.3,36.8,5.5c-0.3,0.2-0.6,0.5-0.9,0.6
				c-0.4,0.2-0.8,0.4-1.2,0.5c-0.4,0.1-0.8,0.2-1.3,0.2c-0.2,0-0.4,0-0.6,0c-0.2,0-0.4-0.1-0.6-0.2c-0.1,0-0.1-0.1-0.1-0.1
				c0,0-0.1,0-0.1-0.1c-0.1,0.2-0.1,0.3-0.2,0.4c-0.1,0.3-0.2,0.7-0.3,1s-0.1,0.7-0.1,1v0.1c0,0.3-0.2,0.4-0.4,0.2
				c-0.1-0.1-0.2-0.2-0.2-0.3c-0.1-0.2-0.1-0.4-0.1-0.6c0-0.2,0-0.4,0-0.7c0-0.3,0.1-0.5,0.2-0.8c0.1-0.3,0.1-0.5,0.2-0.8
				c0.1-0.3,0.2-0.7,0.3-1c0.1-0.3,0.2-0.6,0.4-0.9C31.8,4,31.9,3.9,32,3.7s0.2-0.3,0.2-0.5l0,0C32.3,3,32.4,3,32.5,2.9
				c0.1,0,0.2,0,0.3,0.1C33,3,33.1,3.1,33.1,3.3s0.1,0.3,0,0.4c0,0.1-0.1,0.1-0.1,0.2C33,3.9,33,4,32.9,4.1c0.1,0,0.2,0,0.3,0
				c0.1,0,0.2,0,0.3,0c-0.1,0.1-0.2,0.1-0.3,0.2s-0.2,0.1-0.2,0.1c-0.1,0.1-0.2,0.1-0.3,0.2c-0.1,0.1-0.1,0.2-0.2,0.3
				c-0.1,0.1-0.2,0.3-0.2,0.4c-0.1,0.1-0.1,0.3-0.2,0.5c-0.1,0.1-0.1,0.3,0,0.4c0.1,0.1,0.2,0.2,0.3,0.2c0.2,0,0.5,0,0.7,0
				c0.2,0,0.5-0.1,0.7-0.1c0.1,0,0.1-0.1,0.2-0.1c0,0,0.1-0.1,0.1-0.1c0,0,0.1,0,0.1-0.1c0,0-0.1,0-0.1,0s-0.1,0-0.1,0s-0.1,0-0.1,0
				c0,0-0.1,0-0.1,0c0,0-0.1,0-0.1,0c0,0,0,0-0.1,0c0.3-0.1,0.5-0.2,0.7-0.3c0.2-0.1,0.5-0.2,0.7-0.4c0.1-0.1,0.3-0.2,0.4-0.3
				c0.1-0.1,0.3-0.3,0.3-0.4c0.1-0.1,0.1-0.2,0.2-0.3c0.1-0.1,0.2-0.2,0.2-0.3c0.2-0.4,0.3-0.8,0.3-1.2c0,0,0-0.1,0-0.1s0-0.1,0-0.1
				c0,0,0-0.1-0.1-0.1s0-0.1,0-0.1c0,0,0,0,0-0.1c0,0,0,0,0-0.1C36.5,2,36.4,2,36.3,1.9c-0.1-0.1-0.2-0.1-0.3-0.2
				c-0.2-0.1-0.5-0.1-0.7-0.1c-0.2,0-0.5,0-0.7,0c-0.3,0-0.6,0.1-0.8,0.2S33.2,2,33,2c-0.1,0-0.2,0.1-0.2,0.1s-0.2,0.1-0.2,0.2
				c-0.1,0.1-0.2,0.2-0.4,0.4C32,2.8,31.8,2.9,31.7,3c-0.2,0.2-0.4,0.4-0.5,0.6c-0.1,0.1-0.1,0.2-0.2,0.2s-0.2-0.1-0.2-0.2
				c0-0.1-0.1-0.1-0.1-0.2s-0.1-0.2-0.1-0.2c0,0,0-0.1,0-0.1c0,0,0-0.1,0.1-0.1c0.1-0.2,0.1-0.3,0.3-0.5c0.1-0.1,0.2-0.3,0.3-0.4
				c0.1-0.1,0.3-0.2,0.4-0.3c0.1-0.1,0.3-0.2,0.4-0.4c0,0,0.1-0.1,0.1-0.1s0.1-0.1,0.2-0.1c0.1,0,0.2-0.1,0.3-0.1S32.6,1,32.7,1
				c0.3-0.1,0.6-0.2,0.9-0.3c0.3-0.1,0.6-0.2,0.9-0.3c0.2,0,0.4-0.1,0.6-0.1c0,0,0.1,0,0.2,0c-0.3,0-0.5,0-0.7,0.1
				c-0.2,0.1-0.4,0.2-0.7,0.3c0.1,0,0.1,0,0.2,0c0.1,0,0.1,0,0.2,0c0.1,0,0.2-0.1,0.3-0.1s0.2,0,0.3,0.2c0,0,0.1,0.1,0.1,0.1
				c0.1,0,0.1,0,0.2,0C35.6,1,36,1.2,36.4,1.4C36.7,1.7,37,2,37.3,2.3c0.1,0.1,0.2,0.2,0.2,0.4S37.6,2.9,37.7,3.1z M31.3,1.9
				c-0.1,0.1-0.1,0.2-0.1,0.3c0,0,0,0-0.1,0s0,0-0.1,0c0-0.1,0.1-0.3,0.2-0.3c0.1-0.1,0.3-0.2,0.5-0.3c0,0-0.1,0.1-0.1,0.1
				c0,0,0,0-0.1,0s0,0-0.1,0.1C31.4,1.7,31.4,1.8,31.3,1.9z M33.3,0.5C33.3,0.6,33.3,0.6,33.3,0.5c-0.1,0-0.1,0-0.2,0.1v0
				c0,0,0,0,0.1-0.1L33.3,0.5C33.3,0.5,33.3,0.5,33.3,0.5z M35.4,5.5C35.4,5.5,35.4,5.5,35.4,5.5c0-0.1,0-0.1,0-0.1
				c0,0-0.1,0.1-0.2,0.1c-0.1,0-0.1,0.1-0.1,0.1c0,0-0.1,0-0.1-0.1c0,0,0,0,0,0c-0.1,0.1-0.2,0.1-0.4,0.2c-0.1,0.1-0.2,0.1-0.4,0.2
				c0,0,0,0.1-0.1,0.2c0.2-0.1,0.5-0.2,0.7-0.3S35.3,5.6,35.4,5.5z M35.8,5.2C35.8,5.2,35.8,5.2,35.8,5.2c0.1-0.1,0.1-0.1,0.1-0.1
				c0,0,0,0,0,0s0,0,0,0C35.8,5.1,35.8,5.1,35.8,5.2C35.8,5.2,35.8,5.2,35.8,5.2L35.8,5.2C35.8,5.2,35.8,5.2,35.8,5.2z M36.3,4.5
				c0.1-0.1,0.2-0.2,0.2-0.2s0.1-0.2,0.1-0.4c-0.1,0.1-0.2,0.2-0.2,0.3S36.3,4.4,36.3,4.5z M36.9,3.3c0-0.1,0.1-0.1,0.1-0.2
				C37,3.1,37,3,36.9,3c0,0,0,0.1,0,0.2C36.8,3.2,36.9,3.3,36.9,3.3z"/>
		</g>
		<g class="st0">
			<path d="M41.7,6.4c0,0,0.1,0,0.1,0.1c0,0.1,0,0.1,0,0.2c0,0-0.1,0.1-0.2,0.3c-0.1,0.1-0.2,0.3-0.4,0.5s-0.3,0.3-0.4,0.5
				c-0.1,0.1-0.2,0.2-0.3,0.3s-0.2,0.1-0.3,0.1c-0.1,0-0.2,0-0.3,0s-0.2,0-0.2-0.1c-0.1,0-0.1-0.1-0.2-0.1c0-0.1-0.1-0.1-0.1-0.2
				c0-0.1,0-0.2-0.1-0.3c0-0.1,0-0.2,0-0.3L39,7.6c0,0-0.1,0-0.1,0c0,0-0.1,0-0.1,0c-0.1,0.1-0.2,0.1-0.3,0.2
				c-0.1,0-0.2,0.1-0.3,0.1c-0.1,0-0.2,0-0.4,0c-0.1,0-0.2-0.1-0.3-0.2s-0.2-0.1-0.3-0.2C37.1,7.5,37,7.4,37,7.2c0-0.2,0-0.3,0-0.5
				s0-0.3,0-0.5c0.1-0.3,0.2-0.5,0.4-0.7c0,0,0.1-0.1,0.1-0.1c0,0,0,0,0.1-0.1c0,0,0,0,0.1-0.1c0,0,0,0,0,0c0,0,0,0,0,0
				c0,0,0,0.1-0.1,0.1c0,0,0,0,0.1,0c0,0,0,0,0,0c0,0,0.1-0.1,0.1-0.1c0,0,0.1-0.1,0.1-0.1c0,0,0.1,0,0.1,0c0,0,0,0,0,0.1
				s-0.1,0-0.1,0.1c0,0,0,0,0,0h0c0,0,0.1-0.1,0.1-0.1c0,0,0-0.1,0-0.1c-0.1,0-0.2,0-0.3,0c0-0.1,0.1-0.1,0.2-0.1c0.1,0,0.2,0,0.3,0
				c0.1,0,0.2,0,0.3,0c0,0,0.1,0,0.1,0c0,0,0,0,0.1,0s0,0,0,0c0,0,0,0,0,0c0,0-0.1,0-0.1,0s-0.1,0-0.1,0s-0.1,0-0.1,0c0,0,0,0,0,0
				c0,0,0,0,0,0h0.1c0,0,0.1,0,0.2,0c0.1,0,0.2,0,0.3,0.1c0.1,0,0.2,0.1,0.3,0.1s0.2,0.1,0.2,0.2c0.1,0,0.1,0,0.1-0.1
				s0.1-0.1,0.1-0.2c0,0,0-0.1,0.1-0.1c0-0.1,0-0.1,0.1-0.1c0,0,0,0,0,0c0,0,0,0,0,0c0.1,0,0.2-0.1,0.3,0s0.2,0.1,0.3,0.2
				c0,0,0.1,0.1,0.1,0.1c0-0.1,0.1-0.1,0.1-0.2c0-0.1,0-0.1,0.1-0.2c0,0,0,0,0,0s0,0,0,0c0,0.1-0.1,0.3-0.1,0.4s-0.1,0.2-0.1,0.4
				c-0.1,0.2-0.1,0.3-0.2,0.5c-0.1,0.2-0.1,0.3-0.2,0.5c0,0.1-0.1,0.2-0.1,0.3c0,0.1,0,0.2-0.1,0.3c0,0.1,0,0.2,0,0.2
				c0,0.1,0,0.1,0,0.1c0-0.1,0-0.1,0.1-0.2c0-0.1,0-0.1,0.1-0.2c0,0,0-0.1,0-0.1c0,0,0-0.1,0-0.1c0,0,0,0,0,0c0,0,0,0,0,0v0l0.1-0.1
				c0-0.1,0.1-0.1,0.1-0.1c0,0,0,0,0,0.1s-0.1,0.1-0.1,0.2c0,0,0,0,0,0.1c0,0,0,0,0,0.1c0,0.1,0,0.1,0,0.2c0,0.1,0,0.1,0,0.1
				c0,0.1,0,0.1,0.1,0c0.1-0.1,0.2-0.2,0.4-0.3c0.1-0.1,0.3-0.2,0.4-0.4s0.2-0.2,0.3-0.3S41.7,6.4,41.7,6.4z M39.2,6.1
				c0,0,0.1-0.1,0.1-0.1c0,0,0.1-0.1,0.1-0.1c0,0-0.1-0.1-0.1-0.1c-0.1-0.1-0.3-0.1-0.4,0c-0.1,0.1-0.2,0.1-0.2,0.2
				c-0.1,0.1-0.1,0.1-0.2,0.2c-0.3,0.3-0.5,0.6-0.6,1c0,0,0,0.1,0,0.1c0.1,0,0.2-0.1,0.3-0.2C38.6,6.8,38.9,6.5,39.2,6.1z"/>
			<path d="M46.4,6.5c0,0,0,0-0.1,0.1c-0.1,0-0.1,0.1-0.1,0.1c0,0,0,0.1,0,0.1c0,0,0,0,0,0.1c0,0,0,0-0.1,0.1c0,0-0.1,0-0.1,0.1
				C46,7,46,7,45.9,7c-0.1,0-0.1,0.1-0.1,0.1c0,0,0,0-0.1,0.1c0,0-0.1,0-0.1,0.1c0,0-0.1,0-0.1,0.1c0,0,0,0,0,0s0,0,0.1,0
				c0,0,0.1-0.1,0.2-0.1c0.1,0,0.1-0.1,0.1-0.1c0,0,0.1,0,0.1,0c0,0-0.1,0.1-0.2,0.2c-0.1,0.1-0.2,0.2-0.4,0.3
				C45.2,7.8,45,7.9,44.9,8c-0.1,0.1-0.2,0.2-0.2,0.3c0,0.1-0.1,0.3-0.1,0.4c0,0.1-0.1,0.3-0.1,0.4c0,0.2-0.1,0.4-0.2,0.6
				c-0.1,0.2-0.1,0.4-0.2,0.6c0,0.1,0,0.1-0.1,0.2c0,0.1-0.1,0.2-0.1,0.3v-0.2c0-0.1,0-0.1,0.1-0.2c0-0.1,0-0.1,0-0.2
				c0,0-0.1,0-0.1,0.1c0,0,0,0.1,0,0.1c-0.1,0.2-0.1,0.3-0.2,0.5s-0.1,0.3-0.2,0.5c-0.1,0.1-0.1,0.3-0.2,0.4
				c-0.1,0.1-0.1,0.3-0.3,0.4c0,0,0,0-0.1,0c0,0,0,0-0.1,0c-0.1,0.1-0.1,0.1-0.2,0.2c-0.1,0.1-0.1,0.1-0.2,0.2
				c-0.1,0.1-0.2,0.2-0.3,0.3c-0.1,0.1-0.2,0.2-0.3,0.2c-0.1,0-0.2,0.1-0.2,0.1s-0.2,0-0.3,0c0,0-0.1,0-0.1,0c0,0,0,0,0,0s0,0,0,0
				c-0.2-0.1-0.3-0.2-0.4-0.3s-0.2-0.2-0.2-0.4c-0.1-0.2-0.1-0.3,0-0.5c0-0.1,0.1-0.2,0.1-0.3c0-0.1,0-0.2,0-0.2
				c0-0.1,0.1-0.1,0.1-0.2c0.2-0.3,0.4-0.6,0.6-0.9c0.2-0.3,0.5-0.6,0.8-0.8c0.1-0.1,0.1-0.1,0.2-0.2c0.1-0.1,0.1-0.1,0.2-0.2
				c0.1-0.1,0.2-0.2,0.3-0.2c0.1-0.1,0.2-0.2,0.3-0.2c0.1-0.1,0.2-0.2,0.3-0.3c0-0.1,0.1-0.3,0.1-0.4c0-0.1,0.1-0.2,0.1-0.4
				c0,0,0,0,0-0.1s0,0,0-0.1c0,0-0.1,0-0.1,0c0,0,0,0,0,0.1c0,0,0,0-0.1,0c0,0,0,0-0.1,0c0,0-0.1,0.1-0.1,0.1C43.2,7.9,43,8,42.9,8
				c-0.2,0.1-0.3,0.1-0.5,0.1c-0.2,0-0.3,0-0.4-0.1c-0.1-0.1-0.2-0.2-0.3-0.3c0,0,0-0.1-0.1-0.1c0,0,0-0.1-0.1-0.1
				c0-0.1,0-0.1,0-0.2c0-0.1,0-0.1,0-0.2s0-0.1,0-0.2c0,0,0,0,0,0c0,0,0,0,0,0c0,0,0-0.1,0.1-0.2s0.1-0.3,0.1-0.4s0.1-0.2,0.1-0.3
				s0.1-0.1,0.1-0.1c0,0,0,0.1,0,0.1c0,0.1,0,0.2,0,0.3s0,0.2,0,0.3s0,0.1,0,0.2c0,0,0,0,0-0.1c0-0.1,0-0.1,0-0.2c0-0.1,0-0.1,0-0.2
				c0,0,0-0.1,0-0.1C42,6,42.1,5.8,42.2,5.7c0.1-0.1,0.3-0.2,0.4-0.3c0,0,0.1-0.1,0.1-0.1c0.1,0,0.1-0.1,0.2-0.1
				c0.1,0,0.1-0.1,0.2-0.1c0.1,0,0.1,0,0.1,0s0,0-0.1,0.1c-0.1,0-0.2,0.1-0.3,0.2c0,0,0,0,0,0c0,0,0.1,0,0.1,0
				c0.3-0.1,0.6-0.1,0.9,0c0.1,0,0.2,0.1,0.3,0.1c0.1,0,0.2,0,0.3-0.1c0,0,0.1,0,0.1,0c0,0,0,0,0.1,0c0.1,0.1,0.2,0.1,0.2,0.3
				c0,0.2,0,0.4,0,0.6c0,0.2,0,0.4,0,0.6c0,0.1,0,0.3-0.1,0.4c0,0.1,0,0.3-0.1,0.4c0,0,0,0,0,0.1s0,0.1,0,0.1
				c0.1-0.1,0.1-0.1,0.1-0.2c0-0.1,0-0.1,0.1-0.2c0-0.1,0-0.1,0-0.2c0-0.1,0-0.1,0.1-0.2c0,0.1,0,0.2,0,0.3c0,0.1,0,0.2,0,0.2
				c0.1-0.1,0.2-0.2,0.4-0.3c0.1-0.1,0.3-0.2,0.4-0.3c0.1-0.1,0.3-0.2,0.4-0.3c0.1-0.1,0.2-0.1,0.2-0.1L46.4,6.5
				C46.4,6.5,46.4,6.5,46.4,6.5z M42.9,9.8C43,9.8,43,9.7,43,9.6c0-0.1,0.1-0.2,0.1-0.2c0,0,0,0,0-0.1c0,0,0,0,0-0.1
				c-0.1,0-0.1,0-0.1,0.1c0,0-0.1,0.1-0.1,0.1c-0.2,0.2-0.4,0.4-0.6,0.6c-0.2,0.2-0.4,0.5-0.6,0.7c-0.3,0.3-0.4,0.7-0.5,1.1
				c0,0.1,0,0.2,0,0.3c0,0.1,0.1,0.2,0.1,0.3c0,0,0.1-0.1,0.1-0.1c0,0,0.1-0.1,0.1-0.1c0.1-0.2,0.2-0.3,0.3-0.5
				c0.1-0.1,0.2-0.3,0.3-0.5c0.1-0.2,0.3-0.5,0.4-0.7C42.7,10.3,42.8,10.1,42.9,9.8z M43.8,6.2c0.1-0.1,0.1-0.2,0.1-0.3
				c0-0.1,0-0.1-0.1-0.2c-0.1,0-0.1,0-0.2,0.1c-0.1,0-0.1,0-0.2,0.1c-0.1,0-0.2,0.1-0.2,0.1c-0.2,0.2-0.5,0.4-0.6,0.7
				s-0.3,0.5-0.4,0.8c0,0,0,0,0,0c0,0,0,0,0,0c0.1,0,0.2,0,0.3-0.1c0.1,0,0.2-0.1,0.3-0.2c0.2-0.2,0.3-0.3,0.5-0.5
				C43.5,6.5,43.6,6.4,43.8,6.2z M43.1,11.9c0.1,0,0.1-0.1,0.1-0.1c0,0,0-0.1,0-0.2c0,0.1-0.1,0.1-0.1,0.1
				C43.1,11.8,43.1,11.8,43.1,11.9z M44.4,8.8C44.4,8.8,44.4,8.8,44.4,8.8c0-0.1,0-0.1-0.1-0.1c-0.1,0.2-0.1,0.4-0.2,0.6
				C44.1,9.6,44,9.8,44,10c0,0,0,0,0,0s0,0,0,0c0,0,0.1,0,0.1-0.1c0-0.1,0.1-0.2,0.1-0.3s0.1-0.2,0.1-0.3c0-0.1,0-0.2,0.1-0.3
				C44.4,9,44.4,8.9,44.4,8.8z"/>
			<path d="M49.2,6.4c0,0,0,0.1-0.1,0.2S49,6.8,48.9,6.9C48.9,7,48.8,7,48.8,7.1s-0.1,0.1-0.2,0.2c0,0-0.1,0.1-0.1,0.2
				c0,0.1-0.1,0.1-0.2,0.2c-0.2,0.3-0.5,0.5-0.8,0.6c-0.1,0.1-0.3,0.1-0.4,0.1c-0.2,0-0.3,0-0.5,0c0,0-0.1,0-0.1,0c0,0-0.1,0-0.1,0
				c-0.1-0.1-0.2-0.1-0.3-0.2C46,8,46,7.9,45.9,7.8c0,0-0.1-0.1-0.1-0.1c0,0,0-0.1,0-0.1c0-0.2,0-0.3,0-0.5c0-0.1,0-0.1,0-0.2
				c0-0.1,0-0.2,0-0.3c0-0.1,0.1-0.2,0.1-0.4s0.1-0.2,0.2-0.3c0,0.1,0,0.1-0.1,0.2c0,0.1-0.1,0.1-0.1,0.2c0,0.1,0,0.1-0.1,0.2
				c0,0.1,0,0.1,0,0.2c0.1-0.2,0.2-0.3,0.2-0.4s0.1-0.3,0.2-0.4c0.1-0.1,0.2-0.2,0.2-0.3c0.1-0.1,0.2-0.2,0.2-0.3c0,0,0.1,0,0.1,0
				c0,0,0.1,0,0.1,0C47.2,5.1,47.3,5,47.5,5c0.2,0,0.3-0.1,0.5-0.1c0.2,0,0.3,0,0.5,0.1c0,0,0.1,0,0.1,0c0,0,0.1,0,0.1,0.1
				c0,0,0.1,0,0.1,0.1s0,0,0,0.1c0.1,0.1,0.2,0.1,0.2,0.2s0,0.2,0,0.2c0,0.1-0.1,0.1-0.1,0.2c0,0.1-0.1,0.1-0.1,0.2
				c-0.1,0.1-0.2,0.2-0.3,0.3c-0.1,0.1-0.2,0.2-0.3,0.2c-0.2,0.1-0.4,0.2-0.6,0.2c-0.1,0-0.2,0-0.2,0c-0.1,0-0.1,0-0.1,0
				c0,0-0.1,0.1-0.1,0.1S47,6.9,47,7c0,0.1-0.1,0.2-0.1,0.3c0,0.1-0.1,0.2-0.1,0.3c0,0,0,0.1,0,0.1s0,0.1,0,0.1c0.1,0,0.2,0,0.2,0
				c0.1,0,0.1-0.1,0.2-0.1c0.1-0.1,0.2-0.1,0.4-0.2c0.1-0.1,0.2-0.1,0.4-0.2c0.2-0.1,0.3-0.2,0.5-0.4s0.3-0.3,0.5-0.4h0
				c0.1,0,0.1-0.1,0.1-0.1C49.1,6.4,49.2,6.4,49.2,6.4C49.2,6.4,49.2,6.4,49.2,6.4z M48,5.3c-0.3,0.2-0.5,0.5-0.6,0.8
				c0.1-0.1,0.3-0.2,0.4-0.2c0.1-0.1,0.2-0.2,0.3-0.3c0,0,0,0,0,0c0,0,0,0,0-0.1C48.1,5.4,48,5.3,48,5.3z"/>
		</g>
	</g>
	<g class="st0">
		<path d="M16.7,19.5c0.1,0,0.1,0.1,0.2,0.1c0.1,0,0.1,0.1,0.2,0.1c0.4,0,0.8,0.1,1.1,0.3s0.7,0.3,1.1,0.5c0.4,0.2,0.7,0.5,1,0.8
			s0.5,0.8,0.7,1.3c0.2,0.5,0.2,1,0.2,1.6c0,0.6-0.2,1.1-0.4,1.7c-0.3,0.6-0.7,1.2-1,1.7s-0.8,1-1.3,1.4c-1.4,1.2-2.8,2.2-4.2,3.1
			c-1.5,0.9-3,1.7-4.6,2.2c-1,0.4-2,0.6-3,0.7s-2,0.1-3,0C3.1,35,2.5,34.8,2,34.4c-0.6-0.3-1-0.8-1.4-1.6c-0.1-0.2-0.2-0.3-0.3-0.4
			c-0.1-0.1-0.2-0.2-0.2-0.4C0.1,32,0,31.9,0,31.8s0-0.2,0-0.4c0.1,0,0.3,0.1,0.5,0.2c0.2,0.1,0.5,0.1,0.7,0.2
			C1.5,31.9,1.7,31.9,2,32c0.2,0.1,0.4,0.1,0.6,0.2C2.1,31,2,29.8,2.3,28.8c0,0-0.1-0.1-0.1-0.2c0-0.1-0.1-0.1-0.2-0.2
			c0.4-0.9,0.9-1.9,1.4-2.9s1-2,1.5-3.1c0.5-1,1-2.1,1.5-3.1c0.5-1,0.9-2,1.4-2.9c-0.3,0.1-0.6,0.4-1,0.8s-0.8,1-1.1,1.6
			c-0.4,0.6-0.7,1.2-0.9,1.8c-0.3,0.6-0.4,1.1-0.4,1.5c-0.3,0.4-0.7,0.6-1,0.5c-0.4-0.1-0.7-0.2-1-0.4C2.1,22.3,2,22.2,1.9,22
			c-0.1-0.1-0.2-0.3-0.2-0.4c-0.1-0.4-0.2-0.8-0.1-1.1c0-0.4,0.1-0.7,0.4-1.1c0.3-0.5,0.7-1,1-1.4s0.8-0.8,1.3-1.2
			c0.3-0.2,0.6-0.5,1-0.8c0.3-0.3,0.7-0.5,1-0.8c0.3-0.2,0.6-0.4,0.9-0.5c0.3-0.1,0.6-0.3,1-0.4c0.1,0,0.2-0.1,0.4-0.1
			c0.4,0,0.6,0.1,0.7,0.2c0.1,0.1,0.2,0.5,0.3,1c0.8-1,1.8-1.8,2.8-2.4s2-1.1,3-1.4s1.9-0.4,2.8-0.3c0.9,0.1,1.6,0.4,2.2,1
			c0.4,0.4,0.7,0.8,0.9,1.2s0.1,0.8-0.1,1.4c-0.3,0.7-0.7,1.3-1.2,1.9s-1,1-1.6,1.4c-0.3,0.2-0.6,0.4-0.9,0.6
			c-0.3,0.2-0.5,0.4-0.8,0.6C16.6,19.4,16.7,19.5,16.7,19.5z M16.7,25.4c0,0-0.1,0.2-0.3,0.4c-0.2,0.2-0.3,0.4-0.5,0.7
			s-0.4,0.5-0.5,0.7c-0.2,0.2-0.2,0.3-0.3,0.4c0.2-0.1,0.4-0.2,0.6-0.4c0.2-0.2,0.4-0.4,0.6-0.6c0.2-0.2,0.4-0.5,0.6-0.7
			s0.3-0.5,0.4-0.7c0,0,0-0.1,0-0.1c0-0.1,0-0.1-0.1-0.2c0.1-0.2,0.3-0.4,0.4-0.5c0.1-0.2,0.3-0.3,0.4-0.5c0.3-0.4,0.4-0.9,0.4-1.5
			c0-0.1,0-0.1,0-0.2c0-0.1,0-0.1-0.1-0.2c-0.1-0.1-0.2-0.2-0.3-0.3c-0.1-0.1-0.2-0.2-0.4-0.3c-0.1-0.1-0.3-0.2-0.4-0.2
			c-0.1,0-0.3,0-0.5,0c-0.2,0-0.4,0.1-0.6,0c-0.2,0-0.4,0-0.6,0c-0.4,0-0.7,0-1.1,0.1s-0.7,0.2-1,0.4c-0.2,0.1-0.4,0.2-0.7,0.3
			c-0.2,0.1-0.4,0.1-0.6,0.2c-0.4,0.1-0.7-0.1-0.9-0.4c-0.1-0.2-0.3-0.4-0.4-0.6c-0.1-0.2-0.1-0.4,0-0.8c0.3-0.1,0.7-0.2,1-0.3
			c0.3-0.1,0.6-0.2,1-0.3c1.3-0.6,2.4-1.3,3.5-2.2c1.1-0.9,2.1-1.8,3-2.9c0.2-0.2,0.3-0.4,0.3-0.6c0-0.2,0.1-0.4,0-0.6
			c-1,0-2,0.1-2.9,0.4S15,14.5,14.2,15c-0.7,0.6-1.4,1.2-2,2c-0.6,0.8-1.2,1.6-1.7,2.4C10,20.3,9.5,21.1,9,22
			c-0.5,0.9-0.9,1.7-1.4,2.4c-0.7,1.2-1.3,2.3-1.8,3.6c-0.5,1.2-1.1,2.5-1.5,3.7c0,0.1-0.1,0.2-0.1,0.4c0,0.1-0.1,0.3-0.1,0.4
			c0.7,0.2,1.5,0.3,2.2,0.2c0.7-0.1,1.4-0.2,2.1-0.5c0.5-0.2,0.9-0.4,1.4-0.6s0.9-0.4,1.4-0.6c0.4-0.2,0.8-0.4,1.1-0.7
			c0.3-0.3,0.6-0.6,0.8-1c-0.2,0.1-0.4,0.2-0.5,0.3c-0.2,0.1-0.4,0.2-0.6,0.3c-0.2,0.1-0.4,0.3-0.5,0.4c-0.2,0.2-0.4,0.3-0.6,0.3
			c0.1-0.2,0.2-0.4,0.3-0.5s0.2-0.2,0.4-0.2c0.3-0.2,0.7-0.5,1-0.7s0.7-0.5,1-0.8c0.2-0.2,0.5-0.4,0.8-0.6c0.3-0.3,0.6-0.6,0.9-0.9
			c0.3-0.3,0.6-0.6,0.9-0.9C16.3,25.8,16.5,25.5,16.7,25.4z M4.5,23.8c0.3-0.4,0.6-0.8,0.9-1.4s0.6-1.1,0.9-1.7
			C6.6,20.2,6.9,19.6,7,19c0.2-0.6,0.3-1,0.3-1.4c-0.1,0.2-0.2,0.4-0.3,0.6c-0.1,0.1-0.2,0.3-0.2,0.5c0,0.3-0.1,0.7-0.2,0.9
			c-0.1,0.3-0.3,0.5-0.5,0.8c-0.3,0.5-0.6,1.1-0.9,1.6C5,22.6,4.8,23.2,4.5,23.8z M8,16.7C7.9,16.6,7.9,16.6,8,16.7
			c-0.1,0-0.1,0-0.1-0.1c-0.1,0-0.2,0.1-0.2,0.2c0,0,0,0.1,0.1,0.2c0-0.1,0.1-0.1,0.1-0.2C7.9,16.8,7.9,16.7,8,16.7z M19.5,22.3
			c0,0.2-0.1,0.5-0.1,0.6c0,0.2-0.1,0.3-0.2,0.5c0,0.2-0.1,0.4-0.2,0.5c-0.1,0.2-0.2,0.3-0.3,0.5c-0.1,0.2-0.1,0.3-0.2,0.4
			c-0.1,0.1-0.2,0.2-0.3,0.4c0.5-0.5,0.9-1,1.1-1.5C19.5,23.2,19.6,22.7,19.5,22.3z"/>
		<path d="M22.9,32.3c-0.2-0.1-0.4-0.4-0.6-0.7s-0.4-0.8-0.4-1.4c0-0.1,0-0.2,0-0.3s0-0.2,0.1-0.3c0.1-0.4,0.2-0.7,0.3-1.1
			c0.1-0.4,0.2-0.7,0.3-1.1c0.2-0.5,0.3-1,0.5-1.6c0.2-0.5,0.3-1.1,0.5-1.6c0-0.1,0.1-0.1,0.1-0.2c0-0.1,0-0.1,0.1-0.2
			c0.4-0.1,0.8-0.1,1.2-0.1c0.4,0,0.8,0.2,1.1,0.5c0.1,0.1,0.1,0.2,0.1,0.3c0,0.1,0,0.2-0.1,0.3c0,0.2-0.1,0.4-0.1,0.5
			s-0.1,0.4-0.1,0.5c0,0.1-0.1,0.2-0.1,0.3c0,0,0.1,0,0.1,0v-0.1c0,0,0,0,0,0c0.1-0.3,0.1-0.6,0.2-0.9c0.1-0.2,0.1-0.4,0.2-0.6
			c0-0.2,0.1-0.2,0.1-0.2c0,0,0,0.1-0.1,0.3s-0.1,0.4-0.2,0.6c-0.1,0.2-0.1,0.4-0.2,0.6s-0.1,0.3-0.1,0.3c0,0,0,0,0.1-0.1
			c0-0.1,0.1-0.2,0.1-0.3s0.1-0.2,0.2-0.3c0-0.1,0.1-0.1,0.1-0.1c0,0,0,0.2-0.2,0.6c-0.1,0.4-0.3,0.7-0.5,1.2
			c-0.2,0.5-0.4,1.1-0.7,1.7c-0.1,0.4-0.2,0.7-0.2,0.9c0,0.2-0.1,0.4-0.1,0.6c0,0.2,0,0.2,0.1,0.2c0,0,0-0.1,0-0.1c0,0,0-0.1,0-0.1
			c0-0.1,0.1-0.2,0.1-0.3c0-0.1,0.1-0.2,0.2-0.4v0.9c0.1,0,0.2,0,0.3,0c0.9-0.7,1.6-1.4,2.2-2.1c0.2-0.2,0.4-0.5,0.6-0.7
			c0.2-0.2,0.4-0.4,0.6-0.6c0,0,0.1,0,0.2-0.1c0.1-0.1,0.2-0.1,0.2-0.1c0,0,0,0.1-0.1,0.2c-0.1,0.1-0.1,0.3-0.2,0.5
			c-0.1,0.2-0.1,0.3-0.2,0.5c-0.1,0.1-0.1,0.2-0.2,0.3c0,0-0.2,0.2-0.4,0.5s-0.5,0.6-0.9,0.9c-0.4,0.4-0.8,0.8-1.2,1.3l-0.6,0.5
			c-0.2,0.1-0.3,0.2-0.5,0.3s-0.3,0.2-0.4,0.2c-0.2,0-0.5,0-0.9,0.1C23.3,32.5,23.1,32.4,22.9,32.3z M24.4,21.3
			c0.2,0,0.3-0.1,0.4-0.1c0.1,0,0.3,0,0.4,0c0.4,0,0.8,0.1,1.1,0.2c0.3,0.2,0.4,0.4,0.4,0.7c0,0.3-0.1,0.6-0.4,0.7
			C26,23,25.7,23,25.5,23c-0.3,0-0.6-0.1-0.9-0.2c-0.2,0-0.4-0.1-0.5-0.3C24,22.3,24,22.1,24,21.9C24.1,21.6,24.3,21.4,24.4,21.3z"
			/>
		<path d="M36.2,16.7c0,0.2,0,0.3,0,0.4c-0.1,0.1-0.1,0.2-0.2,0.4c-0.5,0.8-0.9,1.7-1.3,2.5c-0.4,0.9-0.8,1.7-1.1,2.6
			c-0.1,0.2-0.2,0.3-0.2,0.5c0,0.2-0.1,0.3-0.1,0.5c0.1,0.1,0.1,0.1,0.2,0.1c0,0,0.1-0.1,0.1-0.1c0.1,0,0.2-0.1,0.4-0.2
			s0.2-0.1,0.4-0.2c0.3-0.2,0.6-0.3,0.9-0.3s0.6,0,0.9,0c0.4,0,0.8,0.2,1.2,0.4c0.4,0.2,0.6,0.5,0.8,1c0,0.1,0.1,0.2,0.1,0.3
			s0.1,0.2,0.1,0.3c0.2-0.1,0.3-0.3,0.3-0.4s0-0.4,0.1-0.5c0.3,0.2,0.5,0.5,0.4,0.8c0,0.2,0,0.4,0,0.5c0,0.2,0,0.3-0.1,0.5
			c-0.1,0.5-0.2,0.9-0.2,1.4c0,0.5-0.1,0.9-0.3,1.3c0,0.1,0,0.2-0.1,0.2c0,0.1-0.1,0.1-0.2,0.2c0,0-0.1,0.1-0.1,0.2
			c0,0.1-0.1,0.2-0.1,0.3c-0.1,0.3-0.2,0.6-0.3,0.9c-0.1,0.3-0.2,0.6-0.3,0.9c0,0-0.1-0.1-0.1-0.1s-0.1-0.1-0.1-0.1
			c-0.2,0.1-0.3,0.3-0.4,0.4c-0.1,0.1-0.3,0.3-0.4,0.4c-0.3,0.2-0.7,0.3-1.1,0.4c-0.4,0.1-0.9,0.1-1.3,0.1c-0.5-0.1-0.9-0.3-1.3-0.5
			s-0.8-0.5-1.2-0.8c0,0-0.1,0-0.1-0.1c0,0-0.1,0-0.1-0.1h-0.1c-0.1,0.3-0.1,0.6-0.2,1C31.1,32,31,32.3,31,32.7c0,0.5-0.2,0.8-0.6,1
			c-0.4-0.2-0.7-0.4-1-0.6c-0.3-0.2-0.5-0.6-0.7-1c-0.2-0.5-0.3-0.9-0.3-1.2c0-0.3,0-0.8,0.1-1.4c0-0.3,0.1-0.6,0.1-0.9
			s0.1-0.6,0.1-0.9c0,0,0-0.1,0-0.2c-0.1-0.6,0-1.1,0.1-1.7c0.2-0.5,0.3-1.1,0.4-1.6c0.2-1,0.5-2,0.7-3c0.3-1,0.6-2,0.9-2.9
			c0.2-0.7,0.5-1.5,0.7-2.3c0.2-0.8,0.4-1.5,0.7-2.3c0.1-0.3,0.2-0.6,0.3-0.9c0.1-0.3,0.2-0.6,0.3-0.9c0-0.1,0.1-0.2,0.2-0.3
			c0.1-0.1,0.1-0.2,0.2-0.3c0.2,0.1,0.4,0.1,0.4,0c0.1-0.1,0.2-0.2,0.3-0.3c0,0.2-0.1,0.4-0.1,0.6s0,0.4-0.1,0.6c-0.1,0-0.2,0-0.2,0
			c-0.1,0.1-0.2,0.3-0.3,0.5c-0.1,0.2-0.1,0.5-0.1,0.7c0.4-0.4,0.5-0.8,0.5-1.3c0.1,0,0.2-0.1,0.2-0.2c0-0.1,0.1-0.1,0.1-0.2
			c0.1-0.2,0.2-0.4,0.3-0.6c0.1-0.2,0.2-0.4,0.3-0.6c0.2-0.3,0.4-0.5,0.7-0.6c0.8,0.1,1.6,0.3,2.3,0.5c0.1,0,0.3,0.1,0.4,0.1
			c0.1,0,0.2,0.1,0.4,0.1c0.1,0,0.2,0.1,0.2,0.2c0.1,0.1,0.1,0.1,0.2,0.2c-0.1,0.2-0.2,0.4-0.3,0.5c-0.1,0.2-0.2,0.3-0.4,0.5
			c-0.3,0.4-0.6,0.8-0.8,1.3c-0.2,0.5-0.4,0.9-0.7,1.4c-0.1,0.1-0.2,0.3-0.2,0.4s-0.1,0.3-0.2,0.4c-0.1,0.2-0.2,0.5-0.1,0.7
			C36.3,16.6,36.3,16.7,36.2,16.7z M33,13.6c-0.2,0.1-0.3,0.3-0.4,0.4s-0.2,0.4-0.2,0.6c-0.1,0.3-0.2,0.6-0.3,0.9
			c-0.1,0.3-0.2,0.6-0.3,0.9c-0.2,0.4-0.3,0.9-0.4,1.3c-0.1,0.4-0.2,0.9-0.4,1.3c0,0.1-0.1,0.2-0.1,0.2c0,0.1,0,0.1,0.1,0.2
			c0.1-0.2,0.3-0.6,0.5-1.2s0.4-1.1,0.6-1.7c0.2-0.6,0.4-1.2,0.5-1.7C32.8,14.3,32.9,13.9,33,13.6z M35.5,24.8c-0.1,0-0.2,0-0.2,0
			c-0.6,0.5-1.1,1.1-1.5,1.7s-0.9,1.2-1.3,1.9c0,0-0.1,0.1-0.1,0.2s0,0.2,0,0.2c0.1,0.2,0.1,0.4,0.2,0.6c0.1,0.2,0.1,0.4,0.2,0.6
			c0.2,0.5,0.4,0.7,0.8,0.7s0.6-0.1,0.9-0.3c0,0,0.1-0.1,0.2-0.3c0.1-0.2,0.3-0.4,0.4-0.7c0.1-0.2,0.2-0.4,0.2-0.7
			c0-0.1,0.1-0.3,0.1-0.4s0-0.2,0.1-0.3c0.2-0.2,0.3-0.4,0.2-0.6c0.1-0.1,0.2-0.2,0.2-0.3c0-0.1,0-0.2,0-0.4c0-0.2,0-0.5,0-0.8
			c0-0.3,0-0.6,0-0.8C35.7,25,35.6,24.9,35.5,24.8z"/>
		<path d="M49.7,10.9c0.2,0.2,0.3,0.4,0.1,0.7c0,0.1-0.1,0.1-0.1,0.2c-0.4,0.5-0.7,0.9-0.9,1.4c-0.2,0.5-0.5,1-0.7,1.5
			c-0.1,0.2-0.2,0.4-0.3,0.6c-0.1,0.2-0.2,0.4-0.3,0.6c-0.7,1.4-1.3,2.8-1.9,4.3c-0.2,0.5-0.4,0.9-0.5,1.3c-0.2,0.4-0.4,0.9-0.5,1.3
			c-0.2,0.6-0.4,1.2-0.7,1.8c-0.2,0.6-0.4,1.2-0.6,1.8c0,0.2,0,0.3,0,0.5c0.1,0.1,0.1,0.2,0.1,0.3c0,0.1,0,0.2-0.1,0.4
			c-0.1,0.2-0.2,0.5-0.2,0.8c-0.1,0.3-0.1,0.6-0.2,0.8c-0.1,0.2-0.2,0.4-0.2,0.6c0,0.2-0.1,0.3-0.1,0.5s0,0.2,0.1,0.3
			c0,0,0.2-0.1,0.6-0.4c0.3-0.3,0.7-0.6,1.1-1c0.4-0.4,0.9-0.8,1.5-1.4c0,0,0.2-0.1,0.4-0.4c0.1-0.1,0.2-0.2,0.3-0.4
			c0,0,0.1,0.1,0.1,0.2c0,0.2,0.1,0.3,0,0.4c0,0.1-0.2,0.3-0.5,0.8c-0.3,0.5-0.7,1-1.1,1.5c-0.4,0.6-0.8,1.1-1.2,1.6
			c-0.4,0.5-0.6,0.8-0.7,0.9c-0.4,0.3-0.9,0.6-1.5,0.7c-0.3,0.1-0.6,0.1-0.8,0c-0.1-0.1-0.2-0.1-0.4-0.2s-0.2-0.1-0.4-0.2
			c-0.4-0.2-0.6-0.5-0.6-1c0-0.2,0-0.3,0-0.4c0-0.1,0-0.3,0-0.4c0.1-0.5,0.2-0.9,0.3-1.3c0.1-0.4,0.2-0.9,0.3-1.3
			c0-0.2,0.1-0.4,0.1-0.6s0.1-0.3,0.1-0.5c0-0.1,0-0.2-0.1-0.4C40,26.6,40,26.4,40,26.3c0-0.2,0-0.3,0.1-0.5c0-0.1,0-0.3,0.1-0.5
			c0.1-0.3,0.2-0.6,0.3-0.9c0.1-0.3,0.2-0.6,0.3-0.9c0.1-0.3,0.2-0.5,0.2-0.5c0,0.1,0,0.3-0.1,0.5c-0.1,0.3-0.1,0.6-0.2,0.9
			c-0.1,0.3-0.2,0.6-0.2,0.9c-0.1,0.3-0.1,0.4-0.1,0.5c0.1,0,0.2-0.1,0.2-0.1s0-0.1,0.1-0.2c0.2-0.7,0.5-1.4,0.6-2.1
			c0.2-0.7,0.4-1.4,0.5-2.1c0.1-0.2,0.1-0.4,0.1-0.5s0-0.3,0.1-0.5c0,0,0.1,0,0.1,0c0,0,0,0-0.1,0c-0.1-0.2-0.1-0.5,0-0.7
			c0.1-0.2,0.2-0.4,0.3-0.6c0.1-0.3,0.2-0.6,0.3-0.9s0.2-0.6,0.3-0.9c0,0.4-0.1,0.8-0.2,1.2c-0.2,0.4-0.2,0.8-0.2,1.3
			c0.2-0.3,0.3-0.6,0.4-0.9s0.2-0.5,0.3-0.8c0.2-0.5,0.4-1,0.6-1.5c0.2-0.5,0.4-1,0.6-1.6c0.1-0.3,0.2-0.6,0.3-0.9s0.2-0.6,0.3-0.9
			c0.2-0.5,0.4-0.9,0.7-1.2c0.1-0.1,0.1-0.2,0.2-0.3c0-0.1,0.1-0.2,0.2-0.3c0.3-0.5,0.7-0.7,1.3-0.7c0.3,0,0.6,0,0.9,0
			c0.3,0,0.6,0,0.9,0C49.3,10.7,49.5,10.8,49.7,10.9z"/>
		<path d="M55.5,27.1c0,0.1,0,0.3-0.2,0.6s-0.4,0.6-0.7,0.9c-0.2,0.2-0.3,0.3-0.5,0.4c-0.1,0.1-0.3,0.3-0.5,0.5
			c-0.1,0.1-0.3,0.3-0.4,0.4c-0.1,0.2-0.3,0.3-0.4,0.5c-0.6,0.8-1.4,1.4-2.4,1.8c-0.4,0.2-0.8,0.3-1.3,0.3c-0.4,0-0.9,0-1.3,0
			c-0.1,0-0.2-0.1-0.3-0.1c-0.1,0-0.2-0.1-0.2-0.1c-0.2-0.2-0.5-0.4-0.7-0.5s-0.5-0.4-0.7-0.6c-0.1-0.1-0.1-0.2-0.2-0.3
			c0-0.1,0-0.2,0-0.3c-0.1-0.5-0.1-0.9,0-1.4c0.1-0.2,0.1-0.3,0-0.5c-0.1-0.2-0.1-0.6,0-1c0.1-0.3,0.3-0.7,0.4-1
			c0.2-0.3,0.4-0.7,0.6-1c-0.1,0.2-0.1,0.4-0.2,0.6c-0.1,0.2-0.2,0.4-0.2,0.6c0,0.2-0.1,0.3-0.2,0.5c-0.1,0.2-0.1,0.4-0.1,0.7
			c0.2-0.5,0.4-0.9,0.6-1.3s0.3-0.8,0.5-1.1c0.2-0.3,0.5-0.7,0.7-1c0.2-0.3,0.4-0.6,0.7-1c0.1-0.1,0.2-0.1,0.3-0.1
			c0.1,0,0.2,0,0.3,0c0.4-0.2,0.8-0.4,1.2-0.6c0.4-0.1,0.9-0.2,1.3-0.3c0.5-0.1,0.9-0.1,1.4,0.2c0.1,0,0.2,0.1,0.3,0.1
			c0.1,0.1,0.2,0.1,0.2,0.2c0.1,0,0.2,0.1,0.2,0.2c0,0.1,0.1,0.1,0.1,0.2c0.3,0.2,0.4,0.3,0.5,0.6c0,0.2,0,0.4-0.1,0.7
			c-0.1,0.2-0.2,0.4-0.3,0.6c-0.1,0.2-0.2,0.4-0.4,0.5c-0.2,0.3-0.5,0.5-0.8,0.8c-0.3,0.2-0.6,0.5-0.9,0.7c-0.5,0.3-1.1,0.4-1.6,0.4
			c-0.3,0-0.5,0-0.6,0c-0.2,0-0.3,0.1-0.4,0.1c-0.1,0.1-0.2,0.2-0.2,0.3c0,0.1-0.1,0.3-0.2,0.5c-0.1,0.3-0.2,0.6-0.3,0.9
			c-0.1,0.3-0.2,0.6-0.2,0.9c0,0.1-0.1,0.1,0,0.2c0,0.1,0,0.2,0,0.3c0.2,0,0.5,0,0.7-0.1c0.2-0.1,0.4-0.2,0.6-0.3
			c0.3-0.2,0.7-0.4,1-0.5c0.4-0.2,0.7-0.4,1-0.6c0.5-0.3,1-0.7,1.4-1c0.5-0.3,0.9-0.7,1.4-1.1h0c0.2-0.1,0.3-0.2,0.4-0.2
			c0.1,0,0.2-0.1,0.3-0.1S55.4,27,55.5,27.1z M51.9,24c-0.8,0.5-1.4,1.3-1.7,2.3c0.4-0.2,0.7-0.4,1-0.7s0.5-0.5,0.7-0.9
			c0,0,0.1-0.1,0.1-0.1c0-0.1,0-0.1,0.1-0.2C52.1,24.3,52.1,24.1,51.9,24z"/>
	</g>
</g>
</svg>
