<?xml version="1.0" encoding="utf-8"?>
<!-- Generator: Adobe Illustrator 27.7.0, SVG Export Plug-In . SVG Version: 6.00 Build 0)  -->
<svg version="1.1" id="Layer_2_00000144308043411576036420000005298440514542698386_"
	 xmlns="http://www.w3.org/2000/svg" xmlns:xlink="http://www.w3.org/1999/xlink" x="0px" y="0px" viewBox="0 0 13.1 23.8"
	 style="enable-background:new 0 0 13.1 23.8;" xml:space="preserve">
<style type="text/css">
	.st0{enable-background:new    ;}
</style>
<g id="Layer_1-2">
	<g class="st0">
		<path d="M10,2.1C9.9,2.2,9.8,2.2,9.8,2.3S9.7,2.4,9.7,2.4c0,0-0.1,0-0.1,0c0,0-0.1,0-0.2-0.1C9.2,2.2,9.1,2.2,8.9,2.1
			C8.8,2.1,8.7,2,8.5,2c-0.1,0-0.2,0-0.3-0.1c-0.1,0-0.2,0-0.3,0c0,0,0,0,0.1,0c0,0,0,0,0.1,0v0c-0.1,0-0.2-0.1-0.4-0.1
			S7.4,1.8,7.3,1.8c0.1,0,0.3,0,0.4,0.1C7.5,1.7,7.2,1.6,7,1.5C6.8,1.4,6.5,1.4,6.2,1.4c0,0,0.1,0,0.1,0.1c0,0,0.1,0,0.1,0.1
			C6.3,1.4,6.1,1.4,6,1.4c-0.2,0-0.3-0.1-0.5-0.1c0,0-0.1,0-0.1-0.1c-0.1,0-0.1,0-0.1,0c-0.1,0-0.1,0-0.2,0S4.9,1.1,4.8,1
			C4.8,1,4.7,1,4.6,1c-0.1,0-0.1,0-0.2-0.1c-0.1,0-0.1-0.1-0.1-0.1c0-0.1,0-0.1,0-0.2c0.1-0.2,0.3-0.3,0.5-0.3
			c0.3-0.1,0.6-0.1,0.9-0.1s0.6,0,0.8,0.1c0.3,0.1,0.6,0.1,0.9,0.2s0.6,0.2,0.8,0.4c0,0,0,0,0.1,0c0,0,0,0,0.1,0c0,0,0.1,0,0.1,0
			s0.1,0,0.1,0c0-0.1,0-0.2,0-0.2c0-0.1,0-0.2,0-0.2c0-0.1,0-0.2,0.1-0.2c0-0.1,0.1-0.1,0.2-0.2C8.9,0.1,9,0.2,9,0.3
			c0.1,0.1,0.1,0.2,0.2,0.3c0-0.1,0-0.1,0.1-0.1h0c0,0,0,0.1,0.1,0.1c0,0,0,0.1,0.1,0.2c0,0,0,0,0,0c0,0,0,0,0,0c0,0,0,0,0,0.1
			c0,0,0,0.1-0.1,0.1c0,0,0,0,0,0.1c0,0,0,0.1,0.1,0.1c0.1,0.2,0.1,0.3,0.2,0.4C9.8,1.8,9.9,2,10,2.1z"/>
		<path d="M6.4,11.7C6.4,11.6,6.4,11.6,6.4,11.7C6.4,11.6,6.4,11.6,6.4,11.7c-0.2-0.1-0.3-0.2-0.5-0.3c-0.1-0.1-0.3-0.2-0.4-0.3
			c-0.1-0.1-0.3-0.2-0.4-0.3c-0.1-0.1-0.2-0.2-0.3-0.3c0,0,0,0,0.1,0.1c0.1,0.1,0.2,0.1,0.2,0.2c0.1,0.1,0.2,0.1,0.2,0.1
			c0.1,0,0.1,0,0-0.2c0,0,0,0,0-0.1c0,0,0,0,0-0.1C5,10.4,4.8,10.2,4.6,10C4.4,9.7,4.3,9.5,4.1,9.2C4.1,9.1,4,9,4,8.9
			C3.9,8.8,3.9,8.7,3.8,8.6c0-0.1,0-0.2,0-0.3c0-0.2,0-0.3,0-0.5c0-0.2,0-0.3,0-0.5c0-0.2,0.1-0.4,0.2-0.5C4,6.7,4.1,6.6,4.2,6.5
			s0.3-0.2,0.4-0.2c0.2,0,0.3,0,0.5,0c0.2,0.1,0.5,0.2,0.7,0.3s0.4,0.3,0.6,0.4C6.7,7.2,6.8,7.4,7,7.5c0.1,0.1,0.2,0.3,0.3,0.4
			C7.3,8,7.3,8.1,7.4,8.2c0,0.1,0.1,0.1,0.1,0.2c0,0,0,0.1,0,0.1l0,0l0-0.2c0,0,0-0.1,0-0.1c0,0,0-0.1,0-0.1c0,0,0,0,0,0s0,0,0,0
			c0,0,0,0,0,0.1c0.1,0.2,0.1,0.3,0.2,0.5c0,0.2,0.1,0.3,0.1,0.5c0,0.1,0,0.3,0,0.3s0,0.1,0,0.1c0,0,0,0,0,0s0,0,0,0c0,0,0,0,0,0
			c0-0.1-0.1-0.1-0.1-0.2c0-0.1-0.1-0.1-0.1-0.2l0,0C7.1,9.1,7,9,7,8.9C6.9,8.9,6.9,8.8,6.8,8.7C6.6,8.5,6.4,8.3,6.2,8.1
			C5.9,7.9,5.7,7.7,5.4,7.5C5.3,7.4,5.1,7.4,5,7.3C4.9,7.2,4.7,7.2,4.5,7.2c-0.1,0-0.2,0-0.2,0c0,0-0.1,0.1,0,0.2
			c0,0.2,0.1,0.3,0.1,0.5C4.5,8,4.5,8.2,4.6,8.3c0,0.1,0.1,0.1,0.1,0.2s0.1,0.2,0.2,0.3C4.9,8.9,5,8.9,5,9c0,0.1,0.1,0.1,0.1,0.2
			c0.1,0.1,0.3,0.2,0.4,0.3C5.7,9.6,5.8,9.7,6,9.8c0.1,0.1,0.3,0.2,0.4,0.3c0.1,0.1,0.3,0.2,0.4,0.2c0.2,0.1,0.4,0.2,0.6,0.3
			s0.4,0.2,0.7,0.2c0,0,0.1,0.1,0.1,0.1c0,0,0.1,0,0.1,0c0,0,0,0-0.1-0.1c0,0,0,0-0.1-0.1c-0.1,0-0.1,0-0.2,0c0,0-0.1,0-0.2,0
			c-0.1,0-0.2-0.1-0.4-0.1s-0.3-0.1-0.4-0.2c0.1,0,0.3,0.1,0.4,0.1s0.3,0.1,0.5,0.1h0c0.1,0,0.1,0,0.2,0c0.1,0,0.1,0,0.2,0h0.1
			c0.2,0,0.4,0,0.5,0.1c0.2,0,0.3,0,0.4,0.1c0,0,0,0,0,0s0,0,0,0c0.4,0,0.8,0.1,1.2,0.1c0.4,0,0.8-0.1,1.1-0.3c0,0,0,0,0.1,0
			c0,0,0,0,0.1,0c0-0.1,0-0.2-0.1-0.3c0-0.1-0.1-0.2-0.2-0.3c-0.2-0.3-0.4-0.5-0.6-0.8s-0.4-0.5-0.7-0.7c-0.1-0.1-0.1-0.1-0.2-0.2
			c0-0.1-0.1-0.1-0.1-0.2c0-0.1,0-0.2,0-0.3c0-0.1,0.1-0.1,0.2,0c0.1,0,0.2,0.1,0.3,0.2C10.8,8,10.9,8,11,8.1
			c0.2,0.2,0.4,0.3,0.6,0.6c0.2,0.2,0.3,0.4,0.5,0.7c0.1,0.2,0.2,0.4,0.2,0.6c0,0.2,0,0.4,0,0.7c0,0.2-0.1,0.4-0.2,0.6
			c-0.1,0.2-0.2,0.4-0.4,0.5c0,0-0.1,0.1-0.1,0.1c0,0-0.1,0.1-0.1,0.1c0,0-0.1,0-0.1,0.1c0,0-0.1,0.1-0.1,0.1
			c-0.1,0-0.2,0.1-0.5,0.1c-0.2,0.1-0.5,0.1-0.9,0.1s-0.9,0-1.4-0.1c-0.6-0.1-1.2-0.3-2-0.5C6.5,11.7,6.5,11.7,6.4,11.7
			C6.5,11.7,6.5,11.7,6.4,11.7z M5.4,10.6c0,0.1,0.1,0.1,0.1,0.2s0.1,0.1,0.1,0.1c0,0,0.1,0,0.1,0s0.1,0,0.1,0
			c-0.1-0.1-0.2-0.1-0.2-0.2C5.5,10.7,5.5,10.7,5.4,10.6z M6.7,8.4C6.6,8.2,6.4,8.1,6.3,8C6.2,7.9,6,7.8,5.9,7.7c0,0,0,0,0,0
			C6,7.9,6.1,8,6.3,8.1C6.4,8.2,6.5,8.3,6.7,8.4C6.6,8.4,6.6,8.4,6.7,8.4C6.6,8.4,6.7,8.4,6.7,8.4z M6.8,10.3c0.1,0,0.1-0.1,0.1,0
			c0,0,0.1,0,0.1,0.1c0,0-0.1,0-0.1,0S6.9,10.3,6.8,10.3z M7.1,10.4L7.1,10.4L7.1,10.4C7.1,10.4,7.1,10.4,7.1,10.4
			C7.1,10.4,7.1,10.4,7.1,10.4L7.1,10.4L7.1,10.4z M8.4,10.8c0,0,0.1,0.1,0.1,0.1c0,0,0,0,0.1,0.1c0-0.1,0-0.1,0-0.1
			S8.5,10.8,8.4,10.8z M9.5,11c0,0.1,0,0.1,0.1,0.2c0,0,0.1,0,0.1,0c0.2,0,0.5,0,0.8,0c0.3,0,0.5-0.1,0.8-0.1c-0.3,0-0.5,0-0.8,0
			S9.8,10.9,9.5,11z"/>
		<path d="M6.6,15.8L6.6,15.8C6.6,15.9,6.6,15.9,6.6,15.8c-0.1,0.1-0.1,0-0.2-0.2c-0.1-0.1-0.1-0.3-0.1-0.5
			c-0.1-0.1-0.2-0.1-0.3-0.1c-0.2-0.1-0.3-0.2-0.5-0.4c-0.1-0.1-0.1-0.2-0.2-0.2c-0.1-0.1-0.1-0.2-0.2-0.2c-0.1-0.1-0.1-0.2-0.1-0.3
			C5,13.8,5,13.7,5,13.6c0,0,0-0.1,0-0.1c0,0,0-0.1,0-0.1c0,0,0-0.1,0.1-0.2c0-0.1,0-0.1,0.1-0.2c0,0,0.1-0.1,0.1-0.1
			c0,0,0.1-0.1,0.1-0.1c0-0.1,0.1-0.1,0.2-0.2c0.1-0.1,0.1-0.1,0.2-0.1c0,0,0.1,0,0.1,0c0,0,0.1,0,0.1-0.1c0.1-0.1,0.2-0.1,0.3-0.1
			c0.1,0,0.2,0,0.3,0s0.2,0,0.2,0c0.1,0,0.2,0.1,0.3,0.1c0.1,0,0.2,0,0.3,0.1c0.2,0,0.5,0.2,0.7,0.4l0,0c0,0,0,0,0,0
			c-0.1,0-0.2-0.1-0.3-0.1c-0.1-0.1-0.2-0.1-0.3-0.1h0c0,0,0.1,0,0.1,0.1c0.1,0,0.1,0.1,0.2,0.1c0.1,0,0.2,0.1,0.2,0.1
			s0.1,0.1,0.2,0.1c0,0,0.1,0.1,0.1,0.1c0,0,0,0,0,0c0,0-0.1,0-0.1,0c0,0-0.1,0-0.1,0c0,0-0.1,0-0.1-0.1c-0.1,0-0.1,0-0.2,0
			c0,0,0,0,0,0l0,0c0,0,0.1,0.1,0.1,0.1c0.1,0,0.1,0.1,0.1,0.1c0,0-0.1,0-0.1,0s-0.1,0-0.1,0c0.1,0.1,0.2,0.1,0.3,0.2
			c0.1,0.1,0.2,0.1,0.3,0.2c0,0.1,0,0.2,0.1,0.3c0,0.1,0.1,0.2,0.1,0.3c0,0.1,0,0.2,0,0.2c0,0.1,0,0.1-0.1,0.2c0,0,0,0.1,0,0.1
			c-0.1,0.1-0.1,0.2-0.3,0.3c-0.1,0.1-0.2,0.1-0.3,0.1c-0.2,0-0.3,0-0.5,0c-0.2,0-0.3,0-0.5,0l-0.2-0.1C6.6,15.5,6.6,15.7,6.6,15.8z
			 M6.2,14.6C6.2,14.6,6.3,14.6,6.2,14.6c0.1,0,0.1,0,0.1,0c0-0.1,0.1-0.1,0.1-0.2s0-0.1,0.1-0.2c0-0.1,0.1-0.1,0.1-0.2
			c0-0.1,0.1-0.1,0.1-0.2c-0.1-0.1-0.1-0.1-0.2-0.2c-0.1,0-0.2,0-0.2-0.1c-0.1,0-0.2-0.1-0.3-0.1c-0.1,0-0.2,0-0.4,0.1
			c0,0,0,0.1,0.1,0.1c0,0,0,0.1,0,0.1c0,0,0.1,0.1,0.1,0.1c0,0,0,0.1,0.1,0.1c0.1,0.1,0.1,0.2,0.2,0.3S6.1,14.5,6.2,14.6z M8.2,14.5
			C8.1,14.2,7.8,14,7.5,14c-0.1,0-0.1,0-0.2,0c-0.1,0-0.1,0-0.2,0C7.1,14,7,14,7,14c0,0-0.1,0.1-0.1,0.1c-0.1,0.1-0.1,0.2-0.2,0.2
			c0,0,0,0.1,0,0.1c0,0,0,0.1,0,0.1c0,0,0,0.1,0,0.1c0,0.1,0,0.2,0.1,0.2C7,14.9,7.1,15,7.2,15c0.1,0,0.3,0,0.4,0c0,0,0.1,0,0.1,0
			c0,0,0.1,0,0.1,0c0.1,0,0.3-0.1,0.3-0.2C8.3,14.7,8.3,14.6,8.2,14.5z"/>
		<path d="M5.9,16.5c-0.1,0-0.2,0-0.3-0.1c-0.1,0-0.2,0-0.3,0c-0.2,0-0.5-0.1-0.7-0.2c0,0,0-0.1,0-0.2c0-0.1,0.1-0.1,0.1-0.2
			c0-0.1,0.1-0.1,0.1-0.2c0-0.1,0.1-0.1,0.2-0.1c0.1,0,0.1,0,0.2,0c0.1,0,0.1,0,0.2,0c0.2,0,0.4,0.1,0.6,0.1c0.2,0,0.4,0.1,0.6,0.1
			c0.1,0,0.1,0,0.2,0c0.1,0,0.1,0,0.2,0C7.4,16,7.7,16,8.1,16.1c0.3,0.1,0.6,0.1,1,0.2c0,0,0.1,0,0.1,0c0.1,0,0.1,0,0.2,0
			c0.1,0,0.1,0,0.2,0.1c0.1,0,0.1,0,0.1,0.1l-0.4,0c0.1,0.1,0.2,0.1,0.3,0.1s0.2,0,0.3,0c0,0,0,0,0,0c0,0,0,0,0,0
			c0.1,0,0.2,0.1,0.3,0.1c0.1,0,0.2,0.1,0.3,0.1c0,0,0,0,0.1,0c0,0,0.1,0,0.1,0c0.4,0.1,0.7,0.2,1.1,0.3c0.1,0,0.1,0,0.2,0
			c0,0,0.1,0,0.2,0.1c-0.1,0-0.3,0-0.4-0.1s-0.3,0-0.4,0c0.1,0.1,0.1,0.1,0.2,0.1c0,0,0,0,0.1,0c0.2,0,0.4,0,0.5,0.1
			c0.1,0.1,0.3,0.2,0.5,0.2c0.1,0,0.1,0.1,0.1,0.2s0.1,0.2,0.1,0.3c0,0.1,0,0.2,0,0.4c0,0.1,0,0.2,0,0.3c0,0.1-0.1,0.2-0.2,0.1
			c0,0,0,0-0.1,0c0,0-0.1,0-0.1-0.1c-0.3-0.2-0.6-0.4-1-0.5s-0.8-0.3-1.1-0.4c-0.4-0.1-0.7-0.2-1.1-0.3c-0.3-0.1-0.6-0.2-0.9-0.3
			c0,0.1,0,0.1,0,0.1c0.1,0.1,0.1,0.3,0.1,0.4c0,0.1,0,0.3,0,0.5c0,0,0,0.1,0,0.1c0,0,0,0.1,0,0.1c0,0.1-0.1,0.1-0.1,0.2
			c0,0.1-0.1,0.1-0.2,0.1c0,0-0.1,0-0.1,0s-0.1,0-0.1,0c0,0,0,0,0,0.1c0,0,0,0,0,0.1c-0.1,0-0.1,0-0.2,0c0,0-0.1,0-0.1,0
			c-0.1,0-0.2-0.1-0.4-0.1c-0.1,0-0.2-0.1-0.4-0.1c-0.1,0-0.2-0.1-0.2-0.1s-0.2-0.1-0.2-0.1c-0.1,0-0.1,0-0.2-0.1
			c-0.1,0-0.1,0-0.2-0.1h0c-0.1,0-0.1,0-0.2-0.1c-0.1,0-0.1,0-0.2-0.1c0,0-0.1,0-0.1,0c0,0-0.1,0-0.1,0c0,0,0,0,0,0s0,0,0,0
			c0,0,0,0-0.1,0c0,0,0,0-0.1,0c0,0-0.1-0.1-0.1-0.1s-0.1,0-0.2,0v0c-0.1,0-0.1,0-0.2,0c0,0,0,0,0,0.1c0,0.1,0,0.1,0,0.2
			c0,0,0.1,0,0.2,0.1c0.1,0.1,0.2,0.2,0.4,0.3c0.1,0.1,0.3,0.2,0.5,0.3C5.9,19,6,19.1,6.2,19.2c0.1,0.1,0.3,0.2,0.5,0.3
			c0,0,0,0-0.1,0c-0.1,0-0.1-0.1-0.2-0.1c-0.1,0-0.2-0.1-0.3-0.2c0.1,0.1,0.1,0.1,0.2,0.1c0.1,0,0.1,0.1,0.2,0.1
			c0.1,0,0.1,0.1,0.1,0.1c0,0,0,0.1,0,0.1c0,0,0,0,0,0c0,0-0.1,0-0.2-0.1c-0.1-0.1-0.2-0.1-0.4-0.2c-0.2-0.1-0.3-0.2-0.5-0.3
			c-0.2-0.1-0.4-0.2-0.5-0.3c-0.2-0.1-0.3-0.2-0.4-0.3c-0.1-0.1-0.2-0.1-0.2-0.2c-0.1-0.1-0.1-0.2-0.1-0.3s0-0.1,0-0.2c0,0,0,0,0,0
			c0,0,0,0.1,0,0c0,0,0-0.1,0.1-0.4c0-0.1,0.1-0.1,0.1-0.2c0.1-0.1,0.1-0.1,0.2-0.2c0.1-0.1,0.1-0.1,0.2-0.1c0,0,0.1,0,0.1,0
			c0,0,0,0,0.1,0s0.1,0,0.2,0c0.1,0,0.1,0,0.2,0H5.1c0,0-0.1,0-0.1,0c0,0,0,0,0,0l0.3,0.1c0.1,0,0.2,0,0.2,0c0.1,0,0.1,0,0.1,0
			c0,0,0,0,0,0c0,0-0.1,0-0.1,0s-0.1,0-0.1,0c0,0,0,0,0,0c0.1,0,0.1,0,0.2,0c0,0,0.1,0,0.1,0s0.1,0,0.1,0c0,0,0,0,0,0h0
			c0.2,0,0.3,0,0.5,0.1s0.3,0.1,0.5,0.1c0,0,0.1,0,0.1,0s0.1,0,0.1,0c-0.1-0.1-0.1-0.2-0.2-0.2c-0.1-0.1-0.1-0.1-0.2-0.2
			c-0.1,0-0.2-0.1-0.2-0.2c-0.1-0.1-0.1-0.1-0.2-0.2c-0.1-0.1-0.1-0.1-0.2-0.2S6,16.5,5.9,16.5z"/>
		<path d="M8.3,23.5c-0.1,0.1-0.3,0.2-0.4,0.2c-0.1,0-0.3,0-0.5-0.1c-0.2-0.1-0.4-0.2-0.6-0.3c-0.2-0.1-0.4-0.2-0.6-0.3
			c-0.2-0.1-0.3-0.1-0.5-0.2c-0.1,0-0.3-0.1-0.4-0.1c-0.1,0-0.2,0-0.3,0c-0.1,0-0.2,0-0.3-0.1c0,0,0,0-0.1-0.1c0,0,0,0-0.1-0.1
			c0-0.1,0.1-0.2,0.2-0.3C4.8,22.1,4.9,22.1,5,22c0.1-0.1,0.2-0.1,0.3-0.1c0.2,0,0.5,0,0.7,0c0.2,0,0.5,0.1,0.7,0.2
			c0.1,0,0.3,0.1,0.4,0.1s0.3,0.1,0.4,0.1c0-0.1-0.1-0.2-0.2-0.3S7.1,21.9,7,21.9c-0.1-0.1-0.2-0.2-0.3-0.3s-0.2-0.2-0.3-0.3
			c0,0-0.1-0.1-0.1-0.1S6.2,21,6.1,21c-0.1-0.1-0.2-0.2-0.3-0.3s-0.2-0.2-0.3-0.3c-0.1-0.1-0.1-0.1-0.2-0.2
			c-0.1-0.1-0.1-0.1-0.2-0.2c0,0-0.1-0.1-0.1-0.1c0,0,0-0.1-0.1-0.1c-0.1-0.1-0.1-0.1-0.1-0.2c0-0.1,0-0.2,0-0.2
			c0-0.1,0.1-0.2,0.2-0.2c0.1,0,0.2,0,0.3,0c0.1,0,0.2,0,0.3,0c0.1,0,0.1,0,0.2,0c0,0,0.1,0,0.2,0c0.1,0,0.1,0,0.2,0
			c0.1,0,0.1,0,0.2,0c0.1,0,0.1,0,0.2,0c0.1,0,0.1,0,0.1,0.1c0.2,0.1,0.4,0.1,0.6,0.2c0.2,0,0.4,0.1,0.6,0.1c0.1,0,0.2,0,0.3,0.1
			c0.1,0,0.2,0.1,0.3,0.1c-0.1,0-0.1,0-0.2,0s-0.1-0.1-0.2,0c0.1,0.1,0.1,0.1,0.2,0.2C8.2,20,8.2,20,8.3,20.1c0,0,0,0,0.1,0
			c0.1,0.1,0.2,0.2,0.2,0.3c0,0,0,0.1,0,0.1c0,0,0,0.1,0,0.1c0,0.1,0,0.2,0,0.3s-0.1,0.2-0.2,0.2c-0.1,0.1-0.1,0.1-0.3,0.1
			c-0.2-0.1-0.4-0.1-0.6-0.2C7.3,21,7.2,20.9,7,20.8c0,0-0.1,0-0.1-0.1c0,0-0.1,0-0.1,0c0,0,0.1,0.1,0.1,0.1S6.9,21,7,21
			c0.1,0.1,0.2,0.1,0.2,0.2c0.1,0.1,0.1,0.1,0.2,0.2c0.2,0.1,0.3,0.3,0.4,0.5c0.1,0.2,0.2,0.3,0.4,0.5c0.1,0.2,0.2,0.3,0.2,0.5
			C8.4,23.1,8.4,23.3,8.3,23.5z M6.3,19.4c0.1,0,0.2,0.1,0.4,0.1c0.1,0.1,0.2,0.1,0.4,0.1c-0.1,0-0.3-0.1-0.4-0.1
			C6.5,19.3,6.4,19.3,6.3,19.4z M8,21.8c-0.1-0.1-0.1-0.1-0.2-0.2c0-0.1-0.1-0.1-0.1-0.2c0.1,0,0.1,0.1,0.2,0.2s0.2,0.2,0.2,0.3
			c0.1,0.1,0.1,0.2,0.2,0.4c0.1,0.1,0.1,0.2,0.1,0.4c0-0.1-0.1-0.1-0.1-0.2c0-0.1-0.1-0.1-0.1-0.2c0-0.1-0.1-0.1-0.1-0.2
			S8,21.9,8,21.8z M8,20.1c0.1,0,0.1,0,0.1,0c0,0,0.1,0,0.1,0c0,0,0,0,0,0s0,0,0,0c0,0-0.1,0-0.1,0S8.1,20,8,20.1L8,20.1z"/>
	</g>
</g>
</svg>
