<?xml version="1.0" encoding="utf-8"?>
<!-- Generator: Adobe Illustrator 27.7.0, SVG Export Plug-In . SVG Version: 6.00 Build 0)  -->
<svg version="1.1" id="Layer_2_00000121985326917022418600000004916700702315243452_"
	 xmlns="http://www.w3.org/2000/svg" xmlns:xlink="http://www.w3.org/1999/xlink" x="0px" y="0px" viewBox="0 0 13.1 35"
	 style="enable-background:new 0 0 13.1 35;" xml:space="preserve">
<style type="text/css">
	.st0{enable-background:new    ;}
</style>
<g id="Layer_1-2">
	<g class="st0">
		<path d="M4.9,3.9c0,0-0.1,0.1-0.1,0.1c0,0-0.1,0-0.1,0c0,0-0.1-0.1-0.1-0.1S4.5,3.8,4.5,3.8c0-0.2,0-0.4,0.1-0.6
			c0.1-0.3,0.1-0.6,0.1-0.9c0-0.3-0.1-0.6-0.1-0.8c0-0.1,0-0.2-0.1-0.4c0-0.1,0-0.2,0-0.4c0-0.2,0-0.3,0.1-0.4
			c0.1-0.1,0.2-0.2,0.3-0.2C5,0,5.1,0,5.2,0c0.1,0,0.2,0.1,0.3,0.1c0.1,0.1,0.2,0.1,0.3,0.2C6,0.4,6.1,0.5,6.2,0.6
			C6.4,0.8,6.6,1,6.8,1.2C7,1.5,7.2,1.7,7.4,1.9c0,0,0,0,0,0s0,0,0,0c0.2,0,0.3,0.1,0.4,0.2C7.9,2.3,8,2.4,8.1,2.5c0,0,0,0-0.1,0
			c0,0-0.1,0-0.1-0.1c0,0.1,0,0.1,0.1,0.1c0,0,0,0,0.1,0c0,0,0.1,0.1,0.1,0.1c0,0,0.1,0.1,0.2,0.1c0,0,0.1,0,0.1,0
			c0,0,0.1,0.1,0.1,0.1C8.6,3,8.7,3,8.7,3.1C8.8,3.2,8.9,3.2,9,3.3c0.1,0,0.2-0.1,0.2-0.1c0-0.1,0-0.2,0-0.3c0-0.1,0-0.2-0.1-0.2
			c0-0.1-0.1-0.1-0.1-0.2C9,2.3,9,2.2,8.9,2.1C8.9,2,8.8,1.9,8.8,1.7c0-0.1,0-0.2,0-0.3C8.9,1.3,9,1.2,9.1,1.2
			c0,0.1,0.1,0.1,0.1,0.2c0,0.1,0.1,0.1,0.1,0.2C9.5,1.8,9.6,2,9.7,2.2c0.1,0.2,0.2,0.5,0.2,0.7c0.1,0.4,0,0.8-0.3,1
			C9.4,4.1,9.3,4.2,9.1,4.2c-0.2,0-0.4,0-0.6-0.1C8.3,4,8.2,3.9,8.1,3.8C8,3.7,7.9,3.6,7.8,3.5C7.4,3.1,7,2.8,6.6,2.4
			c0,0-0.1-0.1-0.1-0.1c-0.1,0-0.1-0.1-0.1-0.1v0c0,0,0,0,0,0c0,0,0,0,0,0v0c0,0,0,0.1,0,0.1c0,0,0,0.1,0,0.1c0,0,0,0-0.1,0
			c0,0-0.1,0-0.1,0c0,0,0-0.1,0-0.1c0,0,0-0.1,0-0.1C6.3,2.1,6.2,2.1,6.1,2C6,2,5.9,1.9,5.9,1.9C5.9,1.9,5.9,2,6,2
			c0,0.1,0.1,0.1,0.1,0.1C6,2.2,6,2.1,5.9,2.1C5.8,2.1,5.8,2,5.8,1.9l0,0l0,0c-0.1,0-0.1,0-0.2-0.1s-0.2,0-0.2-0.1
			c0,0.1,0,0.2,0,0.3c0,0.1,0,0.2,0,0.2C5.3,2.5,5.2,2.8,5.2,3C5.1,3.3,5,3.5,5,3.8C5,3.8,5,3.8,4.9,3.9C5,3.8,4.9,3.9,4.9,3.9z
			 M7.3,3.4C7.1,3.2,7,3.1,6.9,3C6.8,2.9,6.6,2.8,6.5,2.6c0.1,0,0.3,0.1,0.4,0.2S7.1,3.1,7.3,3.4z M7.4,1.6C7.5,1.6,7.5,1.6,7.4,1.6
			L7.4,1.6C7.5,1.6,7.5,1.6,7.4,1.6C7.4,1.6,7.3,1.5,7.2,1.4C7.1,1.4,7.1,1.3,7.1,1.2c0.1,0.1,0.1,0.2,0.2,0.2
			C7.3,1.5,7.4,1.6,7.4,1.6z M7.7,1.9L7.7,1.9C7.8,1.9,7.7,1.9,7.7,1.9c-0.1,0-0.1-0.1-0.1-0.1c0,0-0.1-0.1-0.1-0.1
			c0,0,0.1,0.1,0.1,0.1S7.7,1.8,7.7,1.9z M7.5,3.6C7.6,3.6,7.6,3.6,7.5,3.6c0.1,0.1,0.1,0.2,0.1,0.2l0,0c0,0-0.1-0.1-0.1-0.1
			C7.5,3.7,7.5,3.6,7.5,3.6C7.5,3.6,7.5,3.6,7.5,3.6C7.5,3.6,7.5,3.6,7.5,3.6z M7.9,2C7.9,2,7.9,2,7.9,2C7.9,2,7.9,2,7.9,2L7.8,1.9
			c0,0,0,0,0.1,0C7.9,2,7.9,2,7.9,2z M9.4,3.2C9.3,3.3,9.3,3.3,9.2,3.3c0,0-0.1,0.1-0.1,0.1c0.1,0,0.1,0.1,0.1,0.1s0.1,0,0.2,0.1
			c0-0.1,0-0.1,0-0.2C9.4,3.4,9.4,3.3,9.4,3.2z"/>
	</g>
	<g class="st0">
		<path d="M10.1,11.8c0.2,0.4,0.4,0.7,0.7,1.1c0.2,0.4,0.5,0.7,0.8,1c0,0,0.1,0.1,0.2,0.2c0.1,0.1,0.1,0.1,0.2,0.2
			c0-0.2,0-0.3-0.1-0.5c0-0.1-0.1-0.3-0.1-0.4c-0.1-0.4-0.3-0.7-0.5-1s-0.4-0.6-0.6-0.9c-0.2-0.2-0.4-0.4-0.6-0.6
			c-0.2-0.2-0.4-0.3-0.7-0.4c0,0.1,0,0.2,0,0.2c0,0.1,0,0.2,0,0.2c0,0.3,0,0.5,0,0.8s0,0.5-0.1,0.8c-0.1,0.4-0.2,0.8-0.5,1.1
			c-0.2,0.1-0.3,0.2-0.5,0.2c0,0-0.1,0-0.1,0c0,0.1,0,0.1,0,0.2s0,0.1,0.1,0.2c0,0.1,0,0.1,0.1,0.2c0,0.1,0,0.1,0,0.2
			c-0.1-0.1-0.2-0.2-0.3-0.3C8,14.2,7.9,14.1,7.8,14c-0.1-0.1-0.1-0.2-0.2-0.2c-0.1-0.1-0.2-0.1-0.3-0.1c-0.8-0.3-1.5-0.7-2.1-1.2
			c0,0-0.1-0.1-0.1-0.1h0.3c-0.1-0.1-0.2-0.2-0.2-0.3C5.1,11.9,5,11.8,5,11.8c-0.1-0.1-0.2-0.2-0.3-0.3c-0.1-0.1-0.1-0.2-0.2-0.3
			c0,0,0-0.1,0-0.1c0,0,0,0,0-0.1c-0.1-0.2-0.2-0.3-0.3-0.5S4,10.1,3.9,10C3.8,9.8,3.8,9.6,3.8,9.5c0-0.2,0-0.3,0-0.5
			c0-0.2,0.1-0.4,0.2-0.5s0.2-0.2,0.4-0.3c0.1,0,0.1,0,0.2,0.1C4.7,8.4,4.8,8.5,5,8.6c0.1,0.1,0.2,0.2,0.3,0.4
			C5.6,9.3,5.8,9.6,6.1,10c0.2,0.4,0.5,0.7,0.7,1.1c0.1,0.2,0.2,0.4,0.3,0.6c0.1,0.2,0.2,0.4,0.3,0.6c0,0,0.1,0.1,0.1,0.1
			c0,0,0.1,0.1,0.1,0.1c0.1,0,0.3,0.1,0.4,0.2s0.3,0.1,0.4,0.2c0,0,0.1,0,0.2,0c0.2,0,0.3-0.1,0.3-0.3v-0.8c0-0.1,0-0.2,0-0.3
			s0-0.2,0-0.3c0-0.2,0-0.3,0-0.5c0-0.1,0-0.3,0.1-0.4C8.9,10,9,9.9,9.1,9.8c0.1-0.1,0.2-0.2,0.4-0.3c0.2-0.1,0.4,0,0.5,0.1
			c0.2,0.2,0.4,0.3,0.6,0.5s0.4,0.4,0.5,0.6c0,0,0,0.1,0.1,0.1c0,0,0.1,0.1,0.1,0.1c0-0.1-0.1-0.2-0.1-0.2c-0.1-0.1-0.2-0.2-0.3-0.3
			c-0.1-0.1-0.2-0.2-0.3-0.3c0,0-0.1-0.1-0.1-0.1c-0.1,0-0.1-0.1-0.2-0.1c0,0,0,0,0,0c0,0,0-0.1,0-0.1c0.1,0,0.1,0.1,0.2,0.1
			s0.1,0.1,0.2,0.2c0,0,0.1,0.1,0.1,0.1c0,0,0.1,0,0.2,0c0,0,0,0,0.1,0c0,0,0,0,0.1,0.1c0,0.1,0.1,0.1,0.1,0.2s0.1,0.2,0.2,0.3
			c0,0,0,0.1,0.1,0.1c0,0.1,0.1,0.1,0.1,0.1c0,0,0,0,0.1,0.1c0,0,0,0.1,0.1,0.1c0.1,0.3,0.3,0.6,0.4,0.9s0.2,0.6,0.3,0.9
			c0,0.1,0,0.1,0,0.2s0,0.1,0,0.2c0-0.1,0-0.1,0-0.2s0-0.2-0.1-0.3c0,0,0,0.1,0,0.1c0,0,0,0.1,0,0.1v0.1c-0.1,0-0.1,0-0.1,0.1
			c0,0,0,0.1,0,0.1c0,0,0,0.1,0,0.1s0,0.1,0,0.1c0,0.1,0,0.3,0,0.4c0,0.1,0,0.2-0.1,0.4c0,0.1,0,0.1-0.1,0.2c0,0.1,0,0.1-0.1,0.2
			c-0.1,0.2-0.3,0.3-0.5,0.1c-0.1-0.1-0.3-0.2-0.4-0.3c-0.1-0.1-0.2-0.2-0.3-0.4c-0.1-0.2-0.3-0.4-0.4-0.6c-0.1-0.2-0.3-0.4-0.4-0.6
			C10,13,9.9,12.9,9.9,12.7s-0.1-0.2-0.1-0.3c0-0.1-0.1-0.2-0.1-0.3c0-0.1,0-0.2,0-0.3c0-0.1,0-0.2,0.1-0.2c0,0,0.1,0,0.1,0
			C10,11.7,10,11.7,10.1,11.8z M5.7,11c0.1,0.1,0.2,0.3,0.4,0.4c0.1,0.1,0.2,0.3,0.3,0.4c0,0,0,0,0,0c0,0,0,0,0,0
			c0-0.1-0.1-0.1-0.1-0.2c-0.1-0.2-0.3-0.4-0.4-0.6s-0.3-0.4-0.4-0.6C5.3,9.9,5.1,9.6,4.8,9.3C4.7,9.2,4.6,9.2,4.5,9.1
			c0,0.1,0,0.2,0.1,0.3s0.1,0.2,0.2,0.2c0.1,0.1,0.1,0.2,0.2,0.2C5,10,5,10,5,10.1c0.2,0.1,0.3,0.2,0.4,0.4S5.6,10.8,5.7,11z
			 M4.8,11.8c-0.1,0-0.1-0.1-0.2-0.1c0-0.1-0.1-0.1-0.1-0.2c0,0,0.1,0.1,0.1,0.1C4.7,11.8,4.7,11.8,4.8,11.8z M4.9,12.1L4.9,12.1
			C5,12.1,5,12.1,4.9,12.1C5,12,5,12,4.9,12.1c0,0,0.1,0,0.1,0.1c0,0,0.1,0.1,0.1,0.1C5.1,12.2,5,12.1,4.9,12.1z M5.8,12.5
			C5.8,12.4,5.7,12.4,5.8,12.5c-0.1-0.1-0.2-0.1-0.2-0.1c0,0,0.1,0,0.1,0C5.7,12.4,5.7,12.5,5.8,12.5z M5.8,12.5
			C5.9,12.6,5.9,12.6,5.8,12.5C5.9,12.6,5.9,12.6,5.8,12.5C5.9,12.5,5.9,12.5,5.8,12.5C5.8,12.5,5.8,12.5,5.8,12.5
			C5.8,12.5,5.8,12.5,5.8,12.5C5.8,12.5,5.8,12.5,5.8,12.5z M11.5,11.2c0,0,0-0.1,0-0.1c0,0-0.1-0.1-0.2-0.1
			C11.4,11.1,11.4,11.1,11.5,11.2C11.5,11.2,11.5,11.2,11.5,11.2z M11.6,11.3c0,0,0,0.1,0,0.1c0,0,0,0.1,0,0.1c0,0,0,0,0.1,0
			c0,0-0.1,0-0.1-0.1C11.6,11.4,11.6,11.3,11.6,11.3z"/>
	</g>
	<g class="st0">
		<path d="M6.7,18.7c0,0,0,0.1-0.1,0.1c-0.1,0-0.1,0-0.2,0c0,0-0.1-0.1-0.3-0.2c-0.1-0.1-0.3-0.2-0.5-0.4c-0.2-0.1-0.3-0.3-0.5-0.4
			C5.1,17.7,5,17.6,5,17.5c0-0.1-0.1-0.2-0.1-0.3c0-0.1,0-0.2,0-0.3c0-0.1,0-0.2,0.1-0.2c0-0.1,0.1-0.1,0.1-0.2
			c0.1,0,0.1-0.1,0.2-0.1c0.1,0,0.2,0,0.3-0.1c0.1,0,0.2,0,0.3,0L5.6,16c0,0,0-0.1,0-0.1c0,0,0-0.1,0-0.1c-0.1-0.1-0.1-0.2-0.2-0.3
			c0-0.1-0.1-0.2-0.1-0.3c0-0.1,0-0.2,0-0.4c0-0.1,0.1-0.2,0.2-0.3c0.1-0.1,0.1-0.2,0.2-0.3c0.1-0.1,0.2-0.1,0.3-0.1
			c0.2,0,0.3,0,0.5,0s0.3,0,0.5,0c0.3,0.1,0.5,0.2,0.7,0.4c0,0,0.1,0.1,0.1,0.1c0,0,0,0,0.1,0.1s0,0,0.1,0.1c0,0,0,0,0,0
			c0,0,0,0,0,0c0,0-0.1,0-0.1-0.1c0,0,0,0,0,0.1c0,0,0,0,0,0c0,0,0.1,0.1,0.1,0.1c0,0,0.1,0.1,0.1,0.1c0,0,0,0.1,0,0.1
			c0,0,0,0-0.1,0c0,0,0-0.1-0.1-0.1c0,0,0,0,0,0v0c0,0,0.1,0.1,0.1,0.1c0,0,0.1,0,0.1,0c0-0.1,0-0.2,0-0.3c0.1,0,0.1,0.1,0.1,0.2
			c0,0.1,0,0.2,0,0.3s0,0.2,0,0.3c0,0,0,0.1,0,0.1c0,0,0,0,0,0.1c0,0,0,0,0,0c0,0,0,0,0,0c0,0,0-0.1,0-0.1s0-0.1,0-0.1s0-0.1,0-0.1
			c0,0,0,0,0,0c0,0,0,0,0,0v0.1c0,0,0,0.1,0,0.2c0,0.1,0,0.2-0.1,0.3c0,0.1-0.1,0.2-0.1,0.3c0,0.1-0.1,0.2-0.2,0.2
			c0,0.1,0,0.1,0.1,0.1c0,0,0.1,0.1,0.2,0.1c0,0,0.1,0,0.1,0.1s0.1,0,0.1,0.1c0,0,0,0,0,0c0,0,0,0,0,0c0,0.1,0.1,0.2,0,0.3
			c0,0.1-0.1,0.2-0.2,0.3c0,0-0.1,0.1-0.1,0.1c0.1,0,0.1,0.1,0.2,0.1c0.1,0,0.1,0,0.2,0.1c0,0,0,0,0,0c0,0,0,0,0,0
			c-0.1,0-0.3-0.1-0.4-0.1c-0.1,0-0.2-0.1-0.4-0.1c-0.2-0.1-0.3-0.1-0.5-0.2c-0.2-0.1-0.3-0.1-0.5-0.2c-0.1,0-0.2-0.1-0.3-0.1
			c-0.1,0-0.2,0-0.3-0.1s-0.2,0-0.2,0c-0.1,0-0.1,0-0.1,0c0.1,0,0.1,0,0.2,0.1c0.1,0,0.1,0,0.2,0.1c0,0,0.1,0,0.1,0c0,0,0.1,0,0.1,0
			c0,0,0,0,0,0c0,0,0,0,0,0h0l0.1,0.1c0.1,0,0.1,0.1,0.1,0.1c0,0,0,0-0.1,0s-0.1-0.1-0.2-0.1c0,0,0,0-0.1,0c0,0,0,0-0.1,0
			c-0.1,0-0.1,0-0.2,0s-0.1,0-0.1,0c-0.1,0-0.1,0,0,0.1c0.1,0.1,0.2,0.2,0.3,0.4c0.1,0.1,0.2,0.3,0.4,0.4s0.2,0.2,0.3,0.3
			S6.7,18.7,6.7,18.7z M7.1,16.2c0,0,0.1,0.1,0.1,0.1s0.1,0.1,0.1,0.1c0,0,0.1-0.1,0.1-0.1c0.1-0.1,0.1-0.3,0-0.4
			c-0.1-0.1-0.1-0.2-0.2-0.2c-0.1-0.1-0.1-0.1-0.2-0.2c-0.3-0.3-0.6-0.5-1-0.6c0,0-0.1,0-0.1,0c0,0.1,0.1,0.2,0.2,0.3
			C6.3,15.6,6.7,15.9,7.1,16.2z"/>
		<path d="M6.8,24.6C6.8,24.6,6.8,24.6,6.8,24.6C6.8,24.6,6.7,24.6,6.8,24.6c-0.1,0.1-0.1,0.1-0.2,0.1s-0.1,0-0.1,0
			c0,0-0.1-0.1-0.2-0.1c-0.1,0-0.1-0.1-0.2-0.1c0,0-0.1,0-0.1,0c0,0-0.1,0-0.1,0c0,0-0.1-0.1-0.1-0.1c0,0-0.1,0-0.1-0.1
			c0,0-0.1-0.1-0.1-0.1c0,0-0.1-0.1-0.1-0.1c-0.1-0.1-0.3-0.2-0.4-0.3c-0.1-0.1-0.2-0.2-0.3-0.3c-0.1-0.1-0.2-0.1-0.2-0.2
			c-0.1-0.1-0.1-0.1-0.2-0.2s-0.1-0.2,0-0.3c0-0.1,0-0.2,0.1-0.3s0.1-0.2,0.2-0.2c0.1-0.1,0.3-0.1,0.5,0c0.5,0.1,1,0.2,1.4,0.4
			s0.9,0.3,1.4,0.5c0-0.2-0.1-0.4-0.3-0.6c-0.2-0.1-0.3-0.3-0.5-0.4C7,22.2,6.9,22.1,6.7,22c-0.1,0-0.1-0.1-0.2-0.1
			s-0.1-0.1-0.2-0.1c-0.1,0-0.2-0.1-0.2-0.3s0-0.2,0-0.4c0.1-0.2,0.2-0.3,0.5-0.3c0.1,0,0.2,0,0.3,0c0.1,0,0.2,0,0.3,0.1
			c0.1,0,0.2,0,0.1,0c-0.1-0.1-0.1-0.2-0.3-0.3c-0.1-0.1-0.3-0.2-0.4-0.3c-0.1-0.1-0.2-0.2-0.3-0.2C6.3,20,6.2,19.9,6,19.8
			c-0.1-0.1-0.2-0.1-0.3-0.2c-0.1-0.1-0.3-0.1-0.4-0.2c-0.1-0.1-0.3-0.2-0.4-0.2c0,0,0-0.1,0-0.1c0-0.2,0-0.3,0.1-0.4
			c0.1-0.1,0.2-0.2,0.4-0.2c0.1,0,0.2,0,0.3,0c0.1,0,0.2,0,0.3,0c0,0,0,0,0,0l0,0c0-0.1,0.1-0.1,0.2-0.1c0.1,0,0.3,0.1,0.4,0.1
			c0.1,0,0.3,0.1,0.4,0.1c0.2,0,0.3,0.1,0.5,0.1s0.3,0.1,0.5,0.1c0.1,0,0.2,0.1,0.3,0.1S8.4,19,8.5,19c0,0,0,0,0.1,0
			c0,0,0.1,0,0.1,0.1c0,0-0.1,0-0.1,0c-0.2,0-0.3-0.1-0.5-0.1c-0.2-0.1-0.3-0.1-0.5-0.2c-0.1,0-0.3-0.1-0.4,0c0,0,0,0,0,0
			c0,0,0,0,0,0c0.2,0.1,0.4,0.1,0.6,0.2c0.2,0.1,0.4,0.2,0.6,0.3c0.1,0.1,0.2,0.2,0.3,0.3s0.1,0.3,0.1,0.5c0,0.1-0.1,0.2-0.3,0.3
			c-0.4-0.2-0.8-0.3-1.2-0.4c0,0,0,0,0,0.1c0,0,0,0,0,0.1c0.2,0.2,0.4,0.3,0.6,0.5c0.2,0.2,0.3,0.4,0.3,0.7c0,0.1,0,0.1,0,0.2
			c0,0.1,0,0.1-0.1,0.2c-0.1,0.1-0.1,0.1-0.2,0.1c-0.1,0-0.2,0-0.4-0.1c0,0,0,0,0,0s0,0,0,0c0,0,0,0,0,0.1c0.2,0.1,0.3,0.3,0.4,0.5
			c0.1,0.2,0.2,0.4,0.3,0.6c0,0.1,0.1,0.2,0.1,0.3s0,0.2,0,0.3c0,0.1,0,0.1-0.1,0.2s-0.1,0.1-0.1,0.1C8.1,23.9,8,23.9,7.9,24
			s-0.2,0-0.3,0c-0.2-0.1-0.4-0.1-0.6-0.2s-0.4-0.2-0.6-0.3c-0.2-0.1-0.4-0.2-0.6-0.2c-0.2-0.1-0.4-0.1-0.7-0.1
			c0.1,0.1,0.3,0.2,0.4,0.4s0.3,0.3,0.5,0.5s0.3,0.3,0.5,0.4C6.6,24.5,6.7,24.6,6.8,24.6z M6.5,18.7c0.1,0,0.2,0,0.4,0
			c0.1,0,0.1,0,0.2,0c0.1,0,0.1,0,0.2,0v0h0c-0.2-0.1-0.3-0.1-0.5-0.1c-0.2,0-0.3,0-0.5-0.1c0,0,0,0,0,0c0,0,0,0-0.1,0
			c0.1,0,0.1,0,0.2,0.1C6.4,18.7,6.4,18.7,6.5,18.7z"/>
		<path d="M6.7,28.5C6.8,28.5,6.7,28.5,6.7,28.5c-0.1,0.1-0.2,0.1-0.3,0.1c0,0-0.1-0.1-0.3-0.2c-0.1-0.1-0.2-0.2-0.4-0.3
			s-0.2-0.2-0.3-0.3c-0.1-0.1-0.2-0.2-0.2-0.2c0,0,0,0,0.1,0.1s0.1,0.1,0.2,0.2c0.1,0.1,0.1,0.1,0.2,0.2c0,0.1,0.1,0.1,0,0.1
			c0,0-0.1,0-0.2-0.1c-0.1-0.1-0.3-0.2-0.4-0.3c-0.1-0.1-0.3-0.2-0.4-0.4C4.5,27.1,4.4,27,4.4,27c-0.1-0.1-0.1-0.2-0.1-0.4
			c0-0.1,0.1-0.2,0.1-0.2c0-0.1,0.1-0.1,0.1-0.2c0-0.1,0.1-0.1,0.1-0.1c0.1-0.1,0.2-0.2,0.3-0.2c0.1,0,0.2-0.1,0.4-0.1
			c0.1,0,0.2,0,0.3,0s0.2,0,0.2,0H6c0,0,0,0,0-0.1c0,0,0,0,0-0.1c0,0-0.1-0.1-0.1-0.1c0,0-0.1-0.1-0.1-0.1c-0.1-0.1-0.1-0.3-0.1-0.4
			s0-0.3,0-0.4c0-0.1,0.1-0.1,0.1-0.2c0-0.1,0.1-0.1,0.1-0.1c0,0,0.1,0,0.1,0c0,0,0,0,0.1,0c0.1,0,0.3,0,0.4,0.1s0.3,0.1,0.4,0.1
			c0,0,0,0,0,0s0,0,0,0c0,0,0.1,0,0.1,0c0,0,0.1,0,0.1,0c0,0,0-0.1,0-0.1c0,0-0.1,0-0.1,0c-0.1,0-0.1,0-0.2-0.1c-0.1,0-0.1,0-0.2,0
			c0,0,0,0-0.1,0c0,0,0,0,0,0c0,0,0,0,0,0c0,0,0,0,0,0c0,0,0,0,0,0c0.1,0,0.3,0,0.4,0c0.1,0,0.3,0.1,0.4,0.1c0.1,0,0.2,0.1,0.3,0.2
			c0.1,0.1,0.2,0.1,0.3,0.1c0,0.1-0.1,0.1-0.1,0.1c-0.1,0-0.1,0-0.2,0c0,0,0,0-0.1,0c0,0,0,0,0,0.1c0.1,0,0.2,0.1,0.2,0.1
			c0.1,0,0.1,0.1,0.2,0.1c0,0,0,0.1,0,0.1c0,0.4-0.1,0.5-0.5,0.4c-0.1,0-0.1,0-0.2-0.1c-0.1,0-0.1-0.1-0.2-0.1
			c-0.1-0.1-0.3-0.1-0.4-0.2c-0.1,0-0.3-0.1-0.4-0.1c0,0,0,0,0,0s0,0,0,0v0c0,0,0.1,0.1,0.1,0.1c0,0,0.1,0.1,0.1,0.1
			c0.1,0.1,0.3,0.2,0.4,0.3c0.1,0.1,0.2,0.2,0.4,0.3C7.5,25.9,7.6,26,7.7,26s0.2,0.2,0.4,0.3c0,0,0,0,0.1,0.1s0.1,0,0.1,0.1
			c0,0,0,0.1,0,0.2s0,0.1,0,0.1c0,0.1,0,0.3,0,0.4s-0.1,0.2-0.1,0.3c0,0,0,0,0,0c0,0,0,0-0.1,0c0,0-0.1,0-0.1,0s-0.1,0-0.1,0
			c-0.2,0-0.4-0.1-0.5-0.2c-0.2-0.1-0.4-0.1-0.5-0.2c-0.1,0-0.2-0.1-0.3-0.1c-0.1,0-0.2,0-0.3-0.1c0,0-0.1,0-0.1,0
			c0,0-0.1,0-0.1,0.1c-0.1,0-0.2,0-0.3-0.1c-0.1,0-0.2,0-0.2-0.1c-0.1,0-0.2,0-0.3-0.1c0,0,0,0-0.1,0c0,0-0.1,0-0.1,0
			c0,0.1,0.1,0.1,0.1,0.1l0.7,0.7C6,27.8,6.2,28,6.3,28.2S6.6,28.4,6.7,28.5z M6.1,27.1L6.1,27.1L6.1,27.1c0.1,0,0.1,0,0.2,0
			c0.1,0,0.1,0,0.2,0.1C6.3,27.2,6.2,27.2,6.1,27.1z M6.5,27.3C6.5,27.2,6.5,27.2,6.5,27.3C6.5,27.2,6.5,27.2,6.5,27.3
			c0.1,0,0.3,0,0.4,0.1s0.2,0.1,0.4,0.1H7.2c-0.1,0-0.2-0.1-0.3-0.1C6.8,27.4,6.7,27.3,6.5,27.3C6.6,27.3,6.5,27.3,6.5,27.3z"/>
		<path d="M6.7,31.6c0,0-0.1,0-0.2-0.1c-0.1-0.1-0.2-0.1-0.3-0.3c-0.1-0.1-0.1-0.1-0.2-0.2C6,31.1,6,31.1,5.9,31
			c0,0-0.1-0.1-0.2-0.1c-0.1,0-0.1-0.1-0.2-0.1c-0.3-0.2-0.5-0.5-0.6-0.8c-0.1-0.1-0.1-0.3-0.1-0.4c0-0.2,0-0.3,0-0.5
			c0,0,0-0.1,0-0.1c0,0,0-0.1,0-0.1C5,28.7,5,28.6,5.1,28.5c0.1-0.1,0.1-0.2,0.2-0.2c0,0,0.1-0.1,0.1-0.1s0.1,0,0.1,0
			c0.2,0,0.3,0,0.5,0c0.1,0,0.1,0,0.2,0c0.1,0,0.2,0,0.3,0c0.1,0,0.2,0.1,0.4,0.1c0.1,0.1,0.2,0.1,0.3,0.2c-0.1,0-0.1-0.1-0.2-0.1
			c-0.1,0-0.1-0.1-0.2-0.1c-0.1,0-0.1,0-0.2-0.1c-0.1,0-0.1,0-0.2,0c0.2,0.1,0.3,0.2,0.4,0.2c0.1,0,0.3,0.1,0.4,0.2
			c0.1,0.1,0.2,0.2,0.3,0.2s0.2,0.2,0.3,0.2c0,0,0,0.1,0,0.1c0,0,0,0.1,0,0.1c0.1,0.1,0.2,0.3,0.2,0.4s0.1,0.3,0.1,0.5
			c0,0.2,0,0.3-0.1,0.5c0,0,0,0.1,0,0.1c0,0,0,0.1-0.1,0.1c0,0,0,0.1-0.1,0.1c0,0,0,0-0.1,0c-0.1,0.1-0.1,0.2-0.2,0.2s-0.2,0-0.2,0
			c-0.1,0-0.1-0.1-0.2-0.1c-0.1,0-0.1-0.1-0.2-0.1c-0.1-0.1-0.2-0.2-0.3-0.3c-0.1-0.1-0.2-0.2-0.2-0.3c-0.1-0.2-0.2-0.4-0.2-0.6
			c0-0.1,0-0.2,0-0.2c0-0.1,0-0.1,0-0.1c0,0-0.1-0.1-0.1-0.1c0,0-0.1,0-0.2-0.1c-0.1,0-0.2-0.1-0.3-0.1c-0.1,0-0.2-0.1-0.3-0.1
			c0,0-0.1,0-0.1,0s-0.1,0-0.1,0c0,0.1,0,0.2,0,0.2c0,0.1,0.1,0.1,0.1,0.2c0.1,0.1,0.1,0.2,0.2,0.4c0.1,0.1,0.1,0.2,0.2,0.4
			c0.1,0.2,0.2,0.3,0.4,0.5s0.3,0.3,0.4,0.5v0c0,0.1,0.1,0.1,0.1,0.1C6.7,31.5,6.7,31.5,6.7,31.6C6.8,31.6,6.8,31.6,6.7,31.6z
			 M7.8,30.4c-0.2-0.3-0.5-0.5-0.8-0.6c0.1,0.1,0.2,0.3,0.2,0.4c0.1,0.1,0.2,0.2,0.3,0.3c0,0,0,0,0,0c0,0,0,0,0.1,0
			C7.7,30.5,7.8,30.4,7.8,30.4z"/>
		<path d="M12.4,34.9c-0.1,0.1-0.1,0.1-0.3,0c0,0-0.1,0-0.1,0c-0.2-0.1-0.3-0.2-0.5-0.3s-0.4-0.2-0.5-0.3c-0.1,0-0.1-0.1-0.2-0.1
			c-0.1,0-0.1-0.1-0.2-0.1c-0.5-0.2-1-0.5-1.5-0.7c-0.2-0.1-0.3-0.1-0.5-0.2c-0.2-0.1-0.3-0.1-0.4-0.2C8,33,7.8,32.9,7.6,32.9
			c-0.2-0.1-0.4-0.1-0.6-0.2c-0.1,0-0.1,0-0.2,0c0,0-0.1,0-0.1,0c0,0-0.1,0-0.1,0c-0.1,0-0.2-0.1-0.3-0.1c-0.1,0-0.2-0.1-0.3-0.1
			c-0.1,0-0.2-0.1-0.2-0.1c-0.1,0-0.1,0-0.2,0s-0.1,0-0.1,0c0,0,0,0.1,0.2,0.2C5.8,32.7,5.9,32.9,6,33c0.1,0.1,0.3,0.3,0.5,0.5
			c0,0,0,0.1,0.1,0.1c0,0,0.1,0.1,0.1,0.1c0,0,0,0-0.1,0c-0.1,0-0.1,0-0.1,0c0,0-0.1-0.1-0.3-0.2s-0.3-0.3-0.5-0.4
			c-0.2-0.1-0.4-0.3-0.6-0.4s-0.3-0.2-0.3-0.3c-0.1-0.2-0.2-0.3-0.3-0.5c0-0.1,0-0.2,0-0.3c0,0,0-0.1,0.1-0.1c0,0,0-0.1,0.1-0.1
			c0.1-0.1,0.2-0.2,0.3-0.2c0.1,0,0.1,0,0.1,0s0.1,0,0.1,0c0.2,0,0.3,0.1,0.5,0.1c0.2,0,0.3,0.1,0.5,0.1c0.1,0,0.1,0,0.2,0
			c0.1,0,0.1,0,0.2,0c0,0,0.1,0,0.1,0c0,0,0.1,0,0.2,0s0.1,0,0.2,0c0,0,0.1,0,0.2,0c0.1,0,0.2,0.1,0.3,0.1c0.1,0,0.2,0.1,0.3,0.1
			c0.1,0,0.2,0.1,0.2,0.1c0,0-0.1,0-0.2,0c-0.1,0-0.2,0-0.3-0.1c-0.1,0-0.2-0.1-0.3-0.1s-0.2,0-0.2,0c0,0,0,0.1,0,0.1c0,0,0,0,0.1,0
			C7.5,31.8,7.8,31.9,8,32c0.2,0.1,0.5,0.1,0.7,0.2c0.1,0,0.1,0,0.2,0c0.1,0,0.1,0,0.2,0c0,0,0,0,0,0s0,0,0,0c0.1,0,0.2,0,0.2,0
			c0.1,0,0.1,0.1,0.2,0.1c0.1,0,0.2,0.1,0.3,0.1c0.1,0,0.2,0.1,0.3,0.1c-0.1,0-0.3,0-0.4-0.1c-0.1-0.1-0.3-0.1-0.5-0.1
			c0.1,0.1,0.2,0.1,0.3,0.1c0.1,0,0.2,0.1,0.3,0.1c0.2,0.1,0.3,0.2,0.5,0.2c0.2,0.1,0.4,0.1,0.6,0.2c0.1,0,0.2,0.1,0.3,0.1
			c0.1,0,0.2,0.1,0.3,0.1c0.2,0.1,0.3,0.1,0.4,0.3c0,0,0.1,0,0.1,0.1c0,0,0.1,0,0.1,0.1c0.2,0.1,0.3,0.2,0.3,0.5c0,0.1,0,0.2,0,0.3
			c0,0.1,0,0.2,0,0.3C12.5,34.8,12.5,34.9,12.4,34.9z"/>
	</g>
</g>
</svg>
