<?xml version="1.0" encoding="utf-8"?>
<!-- Generator: Adobe Illustrator 27.7.0, SVG Export Plug-In . SVG Version: 6.00 Build 0)  -->
<svg version="1.1" id="Layer_2_00000028307766561086784370000000678488478995083951_"
	 xmlns="http://www.w3.org/2000/svg" xmlns:xlink="http://www.w3.org/1999/xlink" x="0px" y="0px" viewBox="0 0 13.1 34.6"
	 style="enable-background:new 0 0 13.1 34.6;" xml:space="preserve">
<style type="text/css">
	.st0{enable-background:new    ;}
</style>
<g id="Layer_1-2">
	<g class="st0">
		<path d="M4.9,3.9c0,0-0.1,0.1-0.1,0.1c0,0-0.1,0-0.1,0c0,0-0.1-0.1-0.1-0.1S4.5,3.8,4.5,3.8c0-0.2,0-0.4,0.1-0.6
			c0.1-0.3,0.1-0.6,0.1-0.9c0-0.3-0.1-0.6-0.1-0.8c0-0.1,0-0.2-0.1-0.4c0-0.1,0-0.2,0-0.4c0-0.2,0-0.3,0.1-0.4
			c0.1-0.1,0.2-0.2,0.3-0.2C5,0,5.1,0,5.2,0c0.1,0,0.2,0.1,0.3,0.1c0.1,0.1,0.2,0.1,0.3,0.2C6,0.4,6.1,0.5,6.2,0.6
			C6.4,0.8,6.6,1,6.8,1.2C7,1.5,7.2,1.7,7.4,1.9c0,0,0,0,0,0s0,0,0,0c0.2,0,0.3,0.1,0.4,0.2C7.9,2.3,8,2.4,8.1,2.5c0,0,0,0-0.1,0
			c0,0-0.1,0-0.1-0.1c0,0.1,0,0.1,0.1,0.1c0,0,0,0,0.1,0c0,0,0.1,0.1,0.1,0.1c0,0,0.1,0.1,0.2,0.1c0,0,0.1,0,0.1,0
			c0,0,0.1,0.1,0.1,0.1C8.6,3,8.7,3,8.7,3.1C8.8,3.2,8.9,3.2,9,3.3c0.1,0,0.2-0.1,0.2-0.1c0-0.1,0-0.2,0-0.3c0-0.1,0-0.2-0.1-0.2
			c0-0.1-0.1-0.1-0.1-0.2C9,2.3,9,2.2,8.9,2.1C8.9,2,8.8,1.9,8.8,1.7c0-0.1,0-0.2,0-0.3C8.9,1.3,9,1.2,9.1,1.2
			c0,0.1,0.1,0.1,0.1,0.2c0,0.1,0.1,0.1,0.1,0.2C9.5,1.8,9.6,2,9.7,2.2c0.1,0.2,0.2,0.5,0.2,0.7c0.1,0.4,0,0.8-0.3,1
			C9.4,4.1,9.3,4.2,9.1,4.2c-0.2,0-0.4,0-0.6-0.1C8.3,4,8.2,3.9,8.1,3.8C8,3.7,7.9,3.6,7.8,3.5C7.4,3.1,7,2.8,6.6,2.4
			c0,0-0.1-0.1-0.1-0.1c-0.1,0-0.1-0.1-0.1-0.1v0c0,0,0,0,0,0c0,0,0,0,0,0v0c0,0,0,0.1,0,0.1c0,0,0,0.1,0,0.1c0,0,0,0-0.1,0
			c0,0-0.1,0-0.1,0c0,0,0-0.1,0-0.1c0,0,0-0.1,0-0.1C6.3,2.1,6.2,2.1,6.1,2C6,2,5.9,1.9,5.9,1.9C5.9,1.9,5.9,2,6,2
			c0,0.1,0.1,0.1,0.1,0.1C6,2.2,6,2.1,5.9,2.1C5.8,2.1,5.8,2,5.8,1.9l0,0l0,0c-0.1,0-0.1,0-0.2-0.1s-0.2,0-0.2-0.1
			c0,0.1,0,0.2,0,0.3c0,0.1,0,0.2,0,0.2C5.3,2.5,5.2,2.8,5.2,3C5.1,3.3,5,3.5,5,3.8C5,3.8,5,3.8,4.9,3.9C5,3.8,4.9,3.9,4.9,3.9z
			 M7.3,3.4C7.1,3.2,7,3.1,6.9,3C6.8,2.9,6.6,2.8,6.5,2.6c0.1,0,0.3,0.1,0.4,0.2S7.1,3.1,7.3,3.4z M7.4,1.6C7.5,1.6,7.5,1.6,7.4,1.6
			L7.4,1.6C7.5,1.6,7.5,1.6,7.4,1.6C7.4,1.6,7.3,1.5,7.2,1.4C7.1,1.4,7.1,1.3,7.1,1.2c0.1,0.1,0.1,0.2,0.2,0.2
			C7.3,1.5,7.4,1.6,7.4,1.6z M7.7,1.9L7.7,1.9C7.8,1.9,7.7,1.9,7.7,1.9c-0.1,0-0.1-0.1-0.1-0.1c0,0-0.1-0.1-0.1-0.1
			c0,0,0.1,0.1,0.1,0.1S7.7,1.8,7.7,1.9z M7.5,3.6C7.6,3.6,7.6,3.6,7.5,3.6c0.1,0.1,0.1,0.2,0.1,0.2l0,0c0,0-0.1-0.1-0.1-0.1
			C7.5,3.7,7.5,3.6,7.5,3.6C7.5,3.6,7.5,3.6,7.5,3.6C7.5,3.6,7.5,3.6,7.5,3.6z M7.9,2C7.9,2,7.9,2,7.9,2C7.9,2,7.9,2,7.9,2L7.8,1.9
			c0,0,0,0,0.1,0C7.9,2,7.9,2,7.9,2z M9.4,3.2C9.3,3.3,9.3,3.3,9.2,3.3c0,0-0.1,0.1-0.1,0.1c0.1,0,0.1,0.1,0.1,0.1s0.1,0,0.2,0.1
			c0-0.1,0-0.1,0-0.2C9.4,3.4,9.4,3.3,9.4,3.2z"/>
		<path d="M12.4,17.5c0,0.3-0.1,0.4-0.2,0.4c-0.2,0-0.3-0.1-0.3-0.4c0-0.2,0-0.3,0-0.5c0-0.2,0-0.3,0-0.5c0-0.3,0-0.7,0-1
			s0-0.6-0.1-1v0.6c-0.1-0.3-0.1-0.7-0.1-1c0-0.3-0.1-0.7-0.2-1c-0.1,0.2-0.1,0.3,0,0.4c0,0.1,0,0.3,0,0.4c0,0.2,0,0.3,0,0.4
			s0,0.3-0.1,0.4c0-0.1,0-0.1,0-0.2c0-0.1,0-0.1,0-0.2c0-0.2,0-0.4,0-0.6s0-0.4,0-0.6c0-0.1,0-0.1-0.1-0.2c0,0-0.1-0.1-0.2-0.1
			c-0.4-0.1-0.7-0.2-1.1-0.3c-0.3-0.1-0.7-0.2-1.1-0.3c-0.1,0-0.2-0.1-0.3-0.1s-0.2-0.1-0.3-0.1c-0.4-0.1-0.9-0.3-1.3-0.4
			c-0.4-0.1-0.9-0.3-1.3-0.4c-0.2-0.1-0.4-0.1-0.6-0.2c-0.2,0-0.4-0.1-0.6-0.1c-0.1,0-0.2-0.1-0.3-0.2c0-0.1,0-0.2,0.1-0.3
			c0.1-0.1,0.2-0.2,0.3-0.3s0.3-0.1,0.4-0.1c0.3,0,0.5,0,0.7,0s0.5,0.1,0.7,0.2c0.4,0.2,0.9,0.3,1.3,0.4C8.1,10.9,8.6,11,9,11.1
			c0,0,0.1,0,0.1,0s0.1,0,0.1,0c-0.1,0-0.2-0.1-0.2-0.1c-0.1,0-0.2-0.1-0.2-0.1c-0.1,0-0.1,0-0.2-0.1s-0.1,0-0.2-0.1
			c0.1,0,0.2,0,0.3,0s0.2,0,0.3,0C9.2,11,9.4,11,9.6,11.1c0.2,0.1,0.5,0.1,0.7,0.2c0,0,0.1,0,0.1,0.1s0.1,0.1,0.1,0.1
			c-0.1,0-0.2,0-0.3,0c-0.1,0-0.1-0.1-0.2-0.1c-0.1,0-0.1,0-0.2,0s-0.1,0-0.2,0c0.2,0.1,0.4,0.1,0.6,0.2c0.2,0.1,0.4,0.2,0.6,0.2
			c0-0.3-0.1-0.7-0.3-1s-0.3-0.6-0.4-0.9c0.1,0.1,0.2,0.1,0.2,0.2c0.1,0.1,0.1,0.1,0.1,0.2c0.1,0.2,0.1,0.4,0.2,0.6
			c0.1,0.2,0.1,0.4,0.2,0.6c0,0.1,0,0.1,0.1,0.2c0,0.1,0.1,0.1,0.2,0.2c0-0.1,0-0.1,0-0.2s0-0.1,0-0.1c-0.1-0.3-0.2-0.6-0.3-0.9
			c-0.1-0.3-0.2-0.6-0.3-0.9c0-0.1-0.1-0.2-0.1-0.2c0-0.1,0-0.1-0.1-0.2c-0.1-0.2-0.1-0.4,0-0.5s0.2-0.3,0.4-0.4
			c0.1,0,0.2,0,0.3-0.1c0.1,0,0.2,0,0.3-0.1c0.1,0.3,0.2,0.6,0.3,0.9s0.2,0.6,0.3,0.9c0.1,0.3,0.1,0.6,0.2,0.9
			c0.1,0.3,0.1,0.6,0.1,1c0,0.1,0,0.2,0.1,0.2c0,0,0.1,0,0.2,0.1c0.1,0,0.1,0,0.2,0c0,0,0.1,0,0.2,0c0,0,0.1,0,0.1,0s0.1,0,0.2,0
			c0,0.2,0,0.3-0.1,0.4s-0.2,0.2-0.3,0.3c-0.1,0.1-0.1,0.1-0.2,0.1c-0.1,0-0.2,0.1-0.2,0.2c0,0.1,0,0.1,0,0.2c0,0.5,0,1,0,1.5
			c0,0.5,0,1,0,1.5c0,0.2,0,0.3,0,0.5C12.4,17.2,12.4,17.4,12.4,17.5z M6.9,10.3c-0.1,0-0.2,0-0.3,0c-0.1,0-0.2-0.1-0.4-0.2
			c0.1,0,0.2,0.1,0.4,0.1C6.6,10.3,6.8,10.3,6.9,10.3z M8.1,10.8c0.1,0,0.2,0,0.3,0c-0.1,0-0.1,0-0.2,0C8.2,10.8,8.1,10.8,8.1,10.8z
			 M8.4,10.9L8.4,10.9C8.4,10.8,8.4,10.8,8.4,10.9C8.4,10.9,8.4,10.9,8.4,10.9L8.4,10.9L8.4,10.9L8.4,10.9z M11.5,14.2L11.5,14.2
			l0-0.1h0V14.2z"/>
		<path d="M4.9,12.5c0-0.1,0.1-0.1,0.3-0.2s0.3-0.1,0.5-0.1c0,0,0.1,0,0.1,0c0,0,0.1,0,0.1,0c0.1,0,0.3,0.1,0.4,0.1
			c0.1,0,0.2,0.1,0.4,0.1c0.2,0.1,0.4,0.1,0.6,0.2c0.2,0.1,0.4,0.1,0.6,0.2c0,0,0,0,0.1,0c0,0,0,0,0.1,0c0,0.2,0,0.3,0,0.4
			c0,0.1-0.1,0.3-0.2,0.4c0,0-0.1,0-0.1,0s-0.1,0-0.1,0c-0.1,0-0.1,0-0.2,0c-0.1,0-0.1,0-0.2,0c0,0-0.1,0-0.1,0c0,0,0,0,0,0h0
			c0,0,0,0,0,0c0.1,0,0.2,0.1,0.3,0.1c0.1,0,0.1,0,0.2,0.1c0.1,0,0.1,0,0.1,0c0,0,0,0-0.1,0c-0.1,0-0.1,0-0.2-0.1s-0.2,0-0.2-0.1
			c-0.1,0-0.1,0-0.1,0s0,0,0,0c0,0,0.1,0,0.1,0s0.1,0,0.1,0.1c0,0,0,0,0,0c0,0-0.1,0-0.2-0.1s-0.3-0.1-0.4-0.2
			c-0.2-0.1-0.4-0.2-0.6-0.2c-0.1,0-0.2-0.1-0.3-0.1c-0.1,0-0.2,0-0.2,0c-0.1,0-0.1,0-0.1,0c0,0,0,0,0,0c0,0,0,0,0,0
			c0,0,0.1,0,0.1,0s0.1,0,0.1,0.1H5.4c0,0,0,0.1,0,0.1c0.2,0.3,0.5,0.6,0.8,0.8c0.1,0.1,0.2,0.1,0.2,0.2c0.1,0.1,0.1,0.1,0.2,0.2
			c0,0,0,0,0,0.1s0,0.1,0,0.1c0,0,0,0-0.1,0c0,0-0.1,0-0.2-0.1c-0.1,0-0.1-0.1-0.2-0.1c-0.1,0-0.1,0-0.1-0.1c0,0-0.1-0.1-0.2-0.2
			c-0.1-0.1-0.2-0.2-0.3-0.3c-0.1-0.1-0.3-0.3-0.5-0.4L5,13.5c0-0.1-0.1-0.1-0.1-0.2c0-0.1-0.1-0.1-0.1-0.1c0-0.1,0-0.2,0-0.3
			C4.8,12.7,4.8,12.6,4.9,12.5z M8.8,13c0,0.1,0,0.1,0,0.2c0,0,0,0.1,0,0.1c0,0.2,0,0.3-0.1,0.4c-0.1,0.1-0.1,0.1-0.2,0.1
			c-0.1,0-0.2-0.1-0.3-0.2s-0.1-0.2,0-0.3c0-0.1,0-0.2,0.1-0.3c0-0.1,0-0.1,0.1-0.2s0.1,0,0.2,0C8.6,13,8.7,13,8.8,13z"/>
		<path d="M6.8,20.5C6.8,20.5,6.8,20.5,6.8,20.5C6.8,20.6,6.7,20.6,6.8,20.5c-0.1,0.1-0.1,0.1-0.2,0.1s-0.1,0-0.1,0
			c0,0-0.1-0.1-0.2-0.1c-0.1,0-0.1-0.1-0.2-0.1c0,0-0.1,0-0.1,0s-0.1,0-0.1,0c0,0-0.1-0.1-0.1-0.1c0,0-0.1,0-0.1-0.1
			c0,0-0.1-0.1-0.1-0.1c0,0-0.1-0.1-0.1-0.1c-0.1-0.1-0.3-0.2-0.4-0.3c-0.1-0.1-0.2-0.2-0.3-0.3c-0.1-0.1-0.2-0.1-0.2-0.2
			c-0.1-0.1-0.1-0.1-0.2-0.2s-0.1-0.2,0-0.3s0-0.2,0.1-0.3c0.1-0.1,0.1-0.2,0.2-0.2c0.1-0.1,0.3-0.1,0.5,0c0.5,0.1,1,0.2,1.4,0.4
			s0.9,0.3,1.4,0.5c0-0.2-0.1-0.4-0.3-0.6c-0.2-0.1-0.3-0.3-0.5-0.4C7,18.2,6.9,18.1,6.7,18c-0.1,0-0.1-0.1-0.2-0.1
			s-0.1-0.1-0.2-0.1c-0.1,0-0.2-0.1-0.2-0.3c0-0.1,0-0.2,0-0.4c0.1-0.2,0.2-0.3,0.5-0.3c0.1,0,0.2,0,0.3,0c0.1,0,0.2,0,0.3,0.1
			c0.1,0,0.2,0,0.1,0c-0.1-0.1-0.1-0.2-0.3-0.3s-0.3-0.2-0.4-0.3C6.5,16.1,6.4,16,6.4,16c-0.1-0.1-0.2-0.1-0.3-0.2
			c-0.1-0.1-0.2-0.1-0.3-0.2c-0.1-0.1-0.3-0.1-0.4-0.2c-0.1-0.1-0.3-0.2-0.4-0.2c0,0,0-0.1,0-0.1c0-0.2,0-0.3,0.1-0.4
			c0.1-0.1,0.2-0.2,0.4-0.2c0.1,0,0.2,0,0.3,0c0.1,0,0.2,0,0.3,0c0,0,0,0,0,0l0,0c0-0.1,0.1-0.1,0.2-0.1c0.1,0,0.3,0.1,0.4,0.1
			c0.1,0,0.3,0.1,0.4,0.1c0.2,0,0.3,0.1,0.5,0.1s0.3,0.1,0.5,0.1c0.1,0,0.2,0.1,0.3,0.1c0.1,0,0.2,0.1,0.3,0.1c0,0,0,0,0.1,0
			c0,0,0.1,0,0.1,0.1c0,0-0.1,0-0.1,0c-0.2,0-0.3-0.1-0.5-0.1c-0.2-0.1-0.3-0.1-0.5-0.2c-0.1,0-0.3-0.1-0.4,0c0,0,0,0,0,0
			c0,0,0,0,0,0c0.2,0.1,0.4,0.1,0.6,0.2c0.2,0.1,0.4,0.2,0.6,0.3c0.1,0.1,0.2,0.2,0.3,0.3s0.1,0.3,0.1,0.5c0,0.1-0.1,0.2-0.3,0.3
			c-0.4-0.2-0.8-0.3-1.2-0.4c0,0,0,0,0,0.1s0,0,0,0.1c0.2,0.2,0.4,0.3,0.6,0.5s0.3,0.4,0.3,0.7c0,0.1,0,0.1,0,0.2
			c0,0.1,0,0.1-0.1,0.2c-0.1,0.1-0.1,0.1-0.2,0.1c-0.1,0-0.2,0-0.4-0.1c0,0,0,0,0,0s0,0,0,0c0,0,0,0,0,0.1C7.7,18,7.9,18.2,8,18.3
			c0.1,0.2,0.2,0.4,0.3,0.6c0,0.1,0.1,0.2,0.1,0.3c0,0.1,0,0.2,0,0.3c0,0.1,0,0.1-0.1,0.2s-0.1,0.1-0.1,0.1
			c-0.1,0.1-0.1,0.1-0.3,0.1c-0.1,0-0.2,0-0.3,0c-0.2-0.1-0.4-0.1-0.6-0.2s-0.4-0.2-0.6-0.3c-0.2-0.1-0.4-0.2-0.6-0.2
			c-0.2-0.1-0.4-0.1-0.7-0.1c0.1,0.1,0.3,0.2,0.4,0.4c0.2,0.2,0.3,0.3,0.5,0.5c0.2,0.2,0.3,0.3,0.5,0.4C6.6,20.4,6.7,20.5,6.8,20.5z
			 M6.5,14.6c0.1,0,0.2,0,0.4,0c0.1,0,0.1,0,0.2,0c0.1,0,0.1,0,0.2,0v0h0c-0.2-0.1-0.3-0.1-0.5-0.1c-0.2,0-0.3,0-0.5-0.1
			c0,0,0,0,0,0c0,0,0,0-0.1,0c0.1,0,0.1,0,0.2,0.1C6.4,14.6,6.4,14.6,6.5,14.6z"/>
		<path d="M6.6,23.6L6.6,23.6C6.6,23.7,6.6,23.7,6.6,23.6c-0.1,0.1-0.1,0-0.2-0.1c-0.1-0.1-0.1-0.3-0.1-0.5C6.2,23,6.1,22.9,6,22.9
			c-0.2-0.1-0.3-0.2-0.5-0.4c-0.1-0.1-0.1-0.2-0.2-0.2c-0.1-0.1-0.1-0.2-0.2-0.2c-0.1-0.1-0.1-0.2-0.1-0.3S5,21.5,5,21.4
			c0,0,0-0.1,0-0.1s0-0.1,0-0.1c0,0,0-0.1,0.1-0.2c0-0.1,0-0.1,0.1-0.2c0,0,0.1-0.1,0.1-0.1c0,0,0.1-0.1,0.1-0.1
			c0-0.1,0.1-0.1,0.2-0.2c0.1-0.1,0.1-0.1,0.2-0.1c0,0,0.1,0,0.1,0c0,0,0.1,0,0.1-0.1c0.1-0.1,0.2-0.1,0.3-0.1c0.1,0,0.2,0,0.3,0
			s0.2,0,0.2,0c0.1,0,0.2,0.1,0.3,0.1c0.1,0,0.2,0,0.3,0.1c0.2,0,0.5,0.2,0.7,0.4l0,0c0,0,0,0,0,0c-0.1,0-0.2-0.1-0.3-0.1
			c-0.1-0.1-0.2-0.1-0.3-0.1h0c0,0,0.1,0,0.1,0.1c0.1,0,0.1,0.1,0.2,0.1c0.1,0,0.2,0.1,0.2,0.1s0.1,0.1,0.2,0.1s0.1,0,0.1,0.1
			c0,0,0,0,0,0c0,0-0.1,0-0.1,0C8,21,8,21,8,21c0,0-0.1,0-0.1-0.1c-0.1,0-0.1,0-0.2,0c0,0,0,0,0,0l0,0c0,0,0.1,0.1,0.1,0.1
			c0.1,0,0.1,0.1,0.1,0.1c0,0-0.1,0-0.1,0s-0.1,0-0.1,0c0.1,0.1,0.2,0.1,0.3,0.2s0.2,0.1,0.3,0.2c0,0.1,0,0.2,0.1,0.3
			c0,0.1,0.1,0.2,0.1,0.3c0,0.1,0,0.2,0,0.2c0,0.1,0,0.1-0.1,0.2c0,0,0,0.1,0,0.1c-0.1,0.1-0.1,0.2-0.3,0.3
			c-0.1,0.1-0.2,0.1-0.3,0.1c-0.2,0-0.3,0-0.5,0c-0.2,0-0.3,0-0.5,0l-0.2-0.1C6.6,23.3,6.6,23.5,6.6,23.6z M6.2,22.4
			C6.2,22.4,6.3,22.4,6.2,22.4c0.1,0,0.1,0,0.1,0c0-0.1,0.1-0.1,0.1-0.2c0-0.1,0-0.1,0.1-0.2c0-0.1,0.1-0.2,0.1-0.2
			c0-0.1,0.1-0.1,0.1-0.2c-0.1-0.1-0.1-0.1-0.2-0.2c-0.1,0-0.2,0-0.2-0.1c-0.1,0-0.2-0.1-0.3-0.1c-0.1,0-0.2,0-0.4,0.1
			c0,0,0,0.1,0.1,0.1s0,0.1,0,0.1c0,0,0.1,0.1,0.1,0.1c0,0,0,0.1,0.1,0.1c0.1,0.1,0.1,0.2,0.2,0.3C6,22.2,6.1,22.3,6.2,22.4z
			 M8.2,22.3c-0.2-0.3-0.4-0.4-0.7-0.5c-0.1,0-0.1,0-0.2,0c-0.1,0-0.1,0-0.2,0c-0.1,0-0.1,0-0.2,0c0,0-0.1,0.1-0.1,0.1
			c-0.1,0.1-0.1,0.2-0.2,0.2c0,0,0,0.1,0,0.1c0,0,0,0.1,0,0.1s0,0.1,0,0.1c0,0.1,0,0.2,0.1,0.2c0.1,0.1,0.3,0.1,0.4,0.1s0.3,0,0.4,0
			c0,0,0.1,0,0.1,0s0.1,0,0.1,0c0.1,0,0.3-0.1,0.3-0.2C8.3,22.5,8.3,22.4,8.2,22.3z"/>
		<path d="M6.7,26.8C6.7,26.9,6.7,26.9,6.7,26.8c-0.1,0.1-0.1,0.1-0.2,0.1c0,0-0.1-0.1-0.3-0.2s-0.3-0.3-0.5-0.5
			c-0.2-0.2-0.4-0.4-0.6-0.5c-0.2-0.2-0.3-0.3-0.4-0.4c-0.1-0.1-0.2-0.2-0.2-0.3c-0.1-0.1-0.1-0.1-0.1-0.2c0-0.1-0.1-0.1-0.1-0.2
			c0,0,0-0.1,0-0.1c0,0,0-0.1,0-0.2c0-0.1,0-0.2,0-0.2c0-0.1,0.1-0.1,0.2-0.2c0.2-0.2,0.5-0.4,0.9-0.4c0.2,0,0.4,0,0.6,0
			s0.4,0.1,0.6,0.1c0.3,0.1,0.6,0.2,0.9,0.3c0,0,0.1,0,0.1,0c0,0,0.1,0,0.1,0h0c0,0,0-0.1,0-0.1c0,0-0.1,0-0.2-0.1
			c-0.1,0-0.2,0-0.2-0.1c-0.1,0-0.2-0.1-0.3-0.1c0,0,0,0,0,0c0,0,0,0,0.1,0c0,0,0,0,0.1,0s0.1,0,0.1,0c0,0,0,0,0,0
			c0.1,0,0.1,0,0.2,0c0,0,0.1,0,0.1,0.1h0c0,0,0.1,0,0.2,0.1s0.3,0.1,0.4,0.1c0.2,0,0.3,0.1,0.4,0.1s0.2,0.1,0.2,0.1s0,0-0.1,0
			c-0.1,0-0.2,0-0.2-0.1C8.1,24,8,24,7.8,23.9c0,0,0,0,0,0C7.9,24,7.9,24,8,24s0.1,0,0.2,0.1c0.1,0,0.2,0.1,0.3,0.1
			c0.1,0,0.2,0.1,0.3,0.2c0,0,0,0,0.1,0c0,0,0,0,0.1,0c0,0,0,0,0-0.1c0,0,0,0,0,0c0,0,0,0,0,0c0,0,0,0,0-0.1C9,24.2,9,24.1,9,23.9
			c0-0.2,0.2-0.3,0.3-0.3c0.1,0.1,0.2,0.3,0.2,0.4c0.1,0.1,0.1,0.3,0.1,0.5c0,0.1,0.1,0.2,0.2,0.3c0,0,0,0-0.1,0c0,0,0,0-0.1,0.1
			c0,0,0,0,0,0.1C9.9,25,9.9,25,9.9,25c0,0,0,0,0.1,0c0,0,0.1,0,0.1,0c0,0,0,0,0,0.1c0,0,0,0,0.1,0.1c0,0,0,0,0.1,0c0,0,0,0-0.1,0
			c0,0-0.1,0-0.1,0c0,0-0.1,0-0.2-0.1c0,0,0,0,0.1,0c0,0,0.1,0,0.2,0c0.1,0,0.1,0,0.2,0c0.1,0,0.1,0,0.1,0c0,0,0.1,0,0.1,0h0
			c0,0,0,0,0,0c0,0,0,0,0.1,0.1s0.2,0.1,0.3,0.1c0.1,0.1,0.2,0.1,0.2,0.1s0.1,0.1,0.1,0.1c0,0,0,0-0.1,0c0,0-0.1,0-0.1-0.1
			c0,0-0.1,0-0.1-0.1c0,0-0.1,0-0.1,0c0,0-0.1,0-0.1,0s0,0-0.1,0c0,0,0,0-0.1,0c0,0,0,0,0-0.1c0,0-0.1,0-0.2,0c0,0,0,0-0.1,0
			c0,0,0,0.1,0,0.1c0,0,0.1,0,0.1,0c0.1,0.1,0.2,0.1,0.3,0.2c0.1,0.1,0.2,0.1,0.3,0.2c0.1,0.1,0.2,0.1,0.2,0.2c0,0.1,0,0.3,0,0.4
			s-0.1,0.3-0.3,0.4c-0.1,0-0.2,0-0.3-0.1c-0.1,0-0.2-0.1-0.3-0.1c-0.1,0-0.2-0.1-0.3-0.2c-0.1-0.1-0.2-0.1-0.3-0.1
			c0,0.1-0.1,0.1,0,0.2c0,0.1,0,0.1,0,0.2c0,0,0,0.1,0,0.1c0,0,0,0.1,0,0.1c0,0,0,0.1-0.1,0.1c0,0-0.1,0-0.1,0c0,0,0,0-0.1,0
			c0,0,0,0,0-0.1c0-0.1-0.1-0.1-0.1-0.2c0-0.1,0-0.1-0.1-0.2c0-0.1-0.1-0.1-0.1-0.2c0-0.1,0-0.2-0.1-0.2c-0.2-0.1-0.4-0.2-0.5-0.2
			s-0.3-0.2-0.5-0.2c-0.2-0.1-0.3-0.2-0.5-0.2c-0.2-0.1-0.4-0.1-0.5-0.2c-0.2-0.1-0.5-0.2-0.7-0.3c-0.2-0.1-0.5-0.1-0.7-0.2
			c-0.1,0-0.2,0-0.3-0.1c-0.1,0-0.2,0-0.3,0H5c-0.1,0-0.1,0.1-0.2,0.1c0,0,0,0.1,0,0.1c0,0,0,0.1,0,0.1c0,0,0,0.1,0.1,0.1
			C4.9,25,5,25,5,25.1c0.1,0.1,0.2,0.2,0.3,0.3c0.1,0.1,0.3,0.3,0.4,0.4c0.1,0.1,0.3,0.3,0.4,0.4s0.2,0.2,0.3,0.3S6.7,26.8,6.7,26.8
			z"/>
		<path d="M5.9,27.5c-0.1,0-0.2,0-0.3-0.1s-0.2,0-0.3,0c-0.2,0-0.5-0.1-0.7-0.2c0,0,0-0.1,0-0.2c0-0.1,0.1-0.1,0.1-0.2
			c0-0.1,0.1-0.1,0.1-0.2c0-0.1,0.1-0.1,0.2-0.1c0.1,0,0.1,0,0.2,0c0.1,0,0.1,0,0.2,0c0.2,0,0.4,0.1,0.6,0.1s0.4,0.1,0.6,0.1
			c0.1,0,0.1,0,0.2,0s0.1,0,0.2,0c0.3,0.1,0.6,0.2,0.9,0.2c0.3,0.1,0.6,0.1,1,0.2c0,0,0.1,0,0.1,0c0.1,0,0.1,0,0.2,0
			c0.1,0,0.1,0,0.2,0.1c0.1,0,0.1,0,0.1,0.1l-0.4,0c0.1,0.1,0.2,0.1,0.3,0.1s0.2,0,0.3,0c0,0,0,0,0,0c0,0,0,0,0,0
			c0.1,0,0.2,0.1,0.3,0.1c0.1,0,0.2,0.1,0.3,0.1c0,0,0,0,0.1,0c0,0,0.1,0,0.1,0c0.4,0.1,0.7,0.2,1.1,0.3c0.1,0,0.1,0,0.2,0
			c0,0,0.1,0,0.2,0.1c-0.1,0-0.3,0-0.4-0.1s-0.3,0-0.4,0c0.1,0.1,0.1,0.1,0.2,0.1c0,0,0,0,0.1,0c0.2,0,0.4,0,0.5,0.1
			c0.1,0.1,0.3,0.2,0.5,0.2c0.1,0,0.1,0.1,0.1,0.2c0,0.1,0.1,0.2,0.1,0.3c0,0.1,0,0.2,0,0.4c0,0.1,0,0.2,0,0.3
			c0,0.1-0.1,0.2-0.2,0.1c0,0,0,0-0.1,0c0,0-0.1,0-0.1-0.1c-0.3-0.2-0.6-0.4-1-0.5s-0.8-0.3-1.1-0.4c-0.4-0.1-0.7-0.2-1.1-0.3
			c-0.3-0.1-0.6-0.2-0.9-0.3c0,0.1,0,0.1,0,0.1c0.1,0.1,0.1,0.3,0.1,0.4c0,0.1,0,0.3,0,0.5c0,0,0,0.1,0,0.1c0,0,0,0.1,0,0.1
			c0,0.1-0.1,0.1-0.1,0.2c0,0.1-0.1,0.1-0.2,0.1c0,0-0.1,0-0.1,0s-0.1,0-0.1,0c0,0,0,0,0,0.1s0,0,0,0.1c-0.1,0-0.1,0-0.2,0
			c0,0-0.1,0-0.1,0c-0.1,0-0.2-0.1-0.4-0.1s-0.2-0.1-0.4-0.1c-0.1,0-0.2-0.1-0.2-0.1c-0.1,0-0.2-0.1-0.2-0.1c-0.1,0-0.1,0-0.2-0.1
			c-0.1,0-0.1,0-0.2-0.1h0c-0.1,0-0.1,0-0.2-0.1c-0.1,0-0.1,0-0.2-0.1c0,0-0.1,0-0.1,0c0,0-0.1,0-0.1,0c0,0,0,0,0,0c0,0,0,0,0,0
			c0,0,0,0-0.1,0c0,0,0,0-0.1,0c0,0-0.1,0-0.1-0.1s-0.1,0-0.2,0v0c-0.1,0-0.1,0-0.2,0c0,0,0,0,0,0.1c0,0.1,0,0.1,0,0.2
			c0,0,0.1,0,0.2,0.1c0.1,0.1,0.2,0.2,0.4,0.3c0.1,0.1,0.3,0.2,0.5,0.3C5.9,29.9,6,30,6.2,30.1c0.1,0.1,0.3,0.2,0.5,0.3
			c0,0,0,0-0.1,0c-0.1,0-0.1-0.1-0.2-0.1c-0.1,0-0.2-0.1-0.3-0.2c0.1,0.1,0.1,0.1,0.2,0.1c0.1,0,0.1,0.1,0.2,0.1
			c0.1,0,0.1,0.1,0.1,0.1c0,0,0,0.1,0,0.1c0,0,0,0,0,0c0,0-0.1,0-0.2-0.1c-0.1-0.1-0.2-0.1-0.4-0.2c-0.2-0.1-0.3-0.2-0.5-0.3
			c-0.2-0.1-0.4-0.2-0.5-0.3c-0.2-0.1-0.3-0.2-0.4-0.3c-0.1-0.1-0.2-0.1-0.2-0.2c-0.1-0.1-0.1-0.2-0.1-0.3c0-0.1,0-0.1,0-0.2
			c0,0,0,0,0,0c0,0,0,0.1,0,0c0,0,0-0.1,0.1-0.4c0-0.1,0.1-0.1,0.1-0.2c0.1-0.1,0.1-0.1,0.2-0.2c0.1-0.1,0.1-0.1,0.2-0.1
			s0.1,0,0.1,0c0,0,0,0,0.1,0s0.1,0,0.2,0c0.1,0,0.1,0,0.2,0H5.1c0,0-0.1,0-0.1,0c0,0,0,0,0,0l0.3,0.1c0.1,0,0.2,0,0.2,0
			c0.1,0,0.1,0,0.1,0c0,0,0,0,0,0c0,0-0.1,0-0.1,0c0,0-0.1,0-0.1,0c0,0,0,0,0,0c0.1,0,0.1,0,0.2,0s0.1,0,0.1,0c0,0,0.1,0,0.1,0
			c0,0,0,0,0,0h0c0.2,0,0.3,0,0.5,0.1c0.2,0,0.3,0.1,0.5,0.1c0,0,0.1,0,0.1,0s0.1,0,0.1,0c-0.1-0.1-0.1-0.2-0.2-0.2
			c-0.1-0.1-0.1-0.1-0.2-0.2c-0.1,0-0.2-0.1-0.2-0.1c-0.1-0.1-0.1-0.1-0.2-0.2c-0.1-0.1-0.1-0.1-0.2-0.1S6,27.5,5.9,27.5z"/>
		<path d="M5.7,33.5c0,0.1,0.1,0.2,0.2,0.3S6,34,6.1,34.1c0.1,0.1,0.2,0.2,0.3,0.2c0.1,0.1,0.1,0.1,0.1,0.1c0,0,0,0,0,0.1
			c0,0,0,0.1,0,0.1c0,0-0.1,0-0.1,0c-0.1,0-0.2,0-0.3-0.1c-0.2-0.1-0.3-0.2-0.5-0.4c-0.1-0.2-0.3-0.4-0.5-0.5
			c-0.2-0.2-0.4-0.2-0.6-0.3c-0.1,0-0.2,0-0.3-0.1s-0.2-0.1-0.3-0.1c0,0,0,0.1,0,0.1c0,0,0,0,0,0.1c-0.3-0.1-0.6-0.2-0.9-0.3
			c-0.3-0.1-0.6-0.2-0.9-0.3c-0.1,0-0.1-0.1-0.2-0.1c-0.1,0-0.1-0.1-0.2-0.1c-0.1,0-0.1-0.1-0.1-0.1c0,0,0-0.1,0.1-0.1
			c-0.1-0.1-0.2-0.1-0.2-0.2c-0.1-0.1-0.2-0.1-0.2-0.2c-0.2-0.1-0.3-0.2-0.4-0.4c-0.1-0.1-0.2-0.3-0.3-0.5c0-0.1-0.1-0.2-0.1-0.3
			s0-0.2,0-0.3c0-0.1,0.1-0.2,0.1-0.3C0.9,30,1,29.9,1.1,29.8c0.2-0.1,0.3-0.2,0.4-0.2c0.1,0,0.3,0,0.5,0.1c0.4,0.2,0.7,0.4,1.1,0.7
			S3.7,31,4,31.3c0.2,0.2,0.3,0.4,0.5,0.5C4.6,32,4.8,32.2,5,32.4c0.1,0.1,0.1,0.2,0.2,0.2c0.1,0.1,0.2,0.1,0.3,0.1
			c0.1,0,0.3,0,0.4,0.1c0.1,0,0.3,0.1,0.4,0.2c0-0.1-0.1-0.2-0.2-0.2c-0.1,0-0.1-0.1-0.2-0.1c-0.3-0.1-0.5-0.3-0.6-0.4
			c-0.2-0.2-0.3-0.4-0.5-0.6c-0.1-0.2-0.1-0.3-0.1-0.5s0.1-0.3,0.2-0.5c0.1-0.1,0.2-0.2,0.4-0.3c0.1-0.1,0.3-0.1,0.4-0.1
			c0.1,0,0.2,0,0.3,0s0.2,0,0.3,0c0.1,0,0.2,0,0.3,0.1c0.1,0.1,0.2,0.1,0.3,0.2c0,0-0.1,0-0.1,0c0,0-0.1,0-0.1,0v0.1
			c0.1,0.1,0.2,0.1,0.3,0.1c0.1,0,0.2,0.1,0.3,0.1c0,0,0,0,0,0c0,0,0,0,0,0c-0.1,0-0.1-0.1-0.2-0.1c-0.1,0-0.1-0.1-0.2-0.1
			c0,0,0.1,0,0.1,0c0.1,0,0.1,0,0.2,0c0,0,0.1,0,0.1,0.1s0.1,0.1,0.1,0.2c0,0,0,0,0,0c0,0,0.1,0,0.1,0C8.1,31,8.1,31.2,8,31.4
			c0,0.1,0,0.1,0,0.2c0,0.1-0.1,0.2-0.2,0.2c-0.1,0-0.2,0.1-0.3,0c-0.3-0.1-0.5-0.2-0.8-0.3c-0.3-0.1-0.5-0.2-0.8-0.3
			c-0.1,0-0.1,0-0.2,0c-0.1,0-0.1,0-0.2,0c0,0.1,0,0.1,0,0.1c0,0,0,0.1,0,0.1c0.1,0.2,0.3,0.4,0.4,0.5c0.2,0.2,0.3,0.3,0.5,0.4
			c0.2,0.1,0.3,0.2,0.5,0.3s0.3,0.2,0.5,0.3c0.1,0.1,0.2,0.2,0.3,0.3c0.1,0.1,0.2,0.2,0.3,0.3c0,0.1-0.1,0.2-0.1,0.2
			c-0.1,0-0.1,0-0.2,0c-0.3-0.1-0.6-0.1-0.9-0.1S6.2,33.6,6,33.6c0,0-0.1,0-0.1,0C5.8,33.5,5.7,33.5,5.7,33.5z M2.8,31.7
			C3,31.8,3.2,31.9,3.4,32c0.2,0.1,0.5,0.2,0.7,0.3c0,0,0-0.1-0.1-0.1c0,0,0,0,0,0c-0.3-0.3-0.6-0.6-0.9-0.9c-0.3-0.3-0.6-0.5-1-0.7
			c-0.1-0.1-0.2-0.1-0.4-0.2c-0.1-0.1-0.3-0.1-0.4-0.1c0,0,0,0.1,0,0.1s0,0.1,0,0.1c0.1,0.1,0.2,0.2,0.2,0.3
			c0.1,0.1,0.1,0.2,0.2,0.3c0.2,0.1,0.3,0.2,0.5,0.3C2.4,31.5,2.6,31.6,2.8,31.7z M1.9,32.3c0.1,0.1,0.2,0.2,0.3,0.3
			c0.1,0,0.3,0.1,0.4,0.1c-0.1-0.1-0.2-0.1-0.3-0.2C2.2,32.4,2,32.4,1.9,32.3z M2.7,32.7c0.1,0.1,0.1,0.1,0.2,0.1s0.2,0,0.3,0
			c-0.1,0-0.1-0.1-0.2-0.1S2.8,32.7,2.7,32.7z"/>
	</g>
</g>
</svg>
