<?xml version="1.0" encoding="utf-8"?>
<!-- Generator: Adobe Illustrator 27.7.0, SVG Export Plug-In . SVG Version: 6.00 Build 0)  -->
<svg version="1.1" id="Layer_2_00000031171504663733912430000014429910952453143743_"
	 xmlns="http://www.w3.org/2000/svg" xmlns:xlink="http://www.w3.org/1999/xlink" x="0px" y="0px" viewBox="0 0 13.1 19.6"
	 style="enable-background:new 0 0 13.1 19.6;" xml:space="preserve">
<style type="text/css">
	.st0{enable-background:new    ;}
</style>
<g id="Layer_1-2">
	<g class="st0">
		<path d="M8.5,7.2c-0.1,0-0.2,0-0.3-0.1S8,7.1,7.9,7.1c0,0.1,0,0.1-0.1,0.2c0,0.1,0,0.1-0.1,0.2c-0.1,0-0.1-0.1-0.2-0.1
			c0-0.1,0-0.1,0-0.2c0-0.2-0.1-0.2-0.2-0.3c-0.2,0-0.3-0.1-0.5-0.1c-0.2,0-0.3-0.1-0.5-0.1c-0.1,0-0.1,0-0.2-0.1
			c-0.1,0-0.1,0-0.2-0.1C6,6.5,5.9,6.4,5.8,6.4s-0.1,0-0.2,0c-0.1,0-0.1,0-0.2,0c-0.1,0-0.1,0-0.2,0c0,0,0,0-0.1-0.1
			c0,0-0.1-0.1-0.1-0.1c0.1,0,0.2,0,0.2,0c0.1,0,0.1,0,0.2,0C5.3,6.1,5.1,6,4.9,6C4.7,6,4.5,6,4.3,6C4.1,6,4,6,3.8,6S3.6,6,3.4,6
			c0,0,0,0-0.1,0c0,0,0,0-0.1,0c-0.1,0-0.1,0-0.1,0c0,0-0.1-0.1-0.1-0.1c0-0.1,0.1-0.2,0.2-0.3c0.2-0.1,0.3-0.1,0.5-0.2
			c0.2,0,0.3-0.1,0.5-0.1c0.5,0,1,0,1.5,0.1c0.5,0.1,1,0.2,1.5,0.3c0,0,0.1,0,0.1,0c0,0,0.1,0,0.1,0c0,0,0,0,0-0.1c0,0,0,0,0-0.1
			c0-0.2,0-0.4,0-0.5c0-0.2,0-0.4,0-0.5c0-0.2-0.1-0.3-0.2-0.4C7.1,4.1,7,3.9,6.8,3.8C6.7,3.7,6.5,3.6,6.3,3.5
			C6.3,3.4,6.2,3.3,6.1,3.2C6,3.2,5.9,3.1,5.8,3C5.7,3,5.6,2.9,5.6,2.8S5.4,2.7,5.3,2.6C5.1,2.5,4.9,2.3,4.8,2.2S4.4,1.8,4.3,1.7
			C4.2,1.5,4.1,1.4,4.1,1.2c0-0.2,0-0.3,0-0.5c0-0.2,0.1-0.3,0.3-0.5C4.5,0.1,4.7,0,4.9,0c0.3,0,0.6,0,0.9,0.1
			c0.3,0.1,0.6,0.1,0.9,0.3c0.3,0.1,0.6,0.3,0.9,0.5C8,1,8.2,1.3,8.4,1.6C8.6,1.8,8.6,2,8.7,2.2c0,0.2,0,0.4,0,0.6c0,0,0,0,0,0.1
			c0,0,0,0,0,0.1C8.6,3.1,8.5,3.2,8.5,3.2S8.4,3.1,8.3,3C8.2,2.9,8.2,2.8,8.1,2.7C8,2.6,7.9,2.5,7.9,2.4c0,0,0-0.1-0.1-0.1
			c0,0-0.1,0-0.1,0c0,0,0,0,0,0c0,0,0,0,0,0C7.5,2.1,7.4,2,7.2,1.9S6.9,1.7,6.8,1.6C6.7,1.5,6.6,1.5,6.4,1.4S6.2,1.3,6,1.2
			c0,0,0.1,0.1,0.1,0.1c0,0,0,0.1,0.1,0.1c0,0-0.1,0-0.1-0.1c0,0-0.1-0.1-0.1-0.1C5.8,1.2,5.7,1.1,5.6,1.1S5.3,0.9,5.2,0.9
			C5.1,0.9,5,0.9,5,0.8s-0.1,0-0.2-0.1c0,0,0,0-0.1,0c0,0-0.1,0-0.1,0c0,0.1,0.1,0.2,0.1,0.3C4.8,1.2,4.9,1.3,5,1.3
			c0.1,0.1,0.3,0.3,0.4,0.4C5.5,1.9,5.7,2,5.8,2.2c0.2,0.2,0.4,0.4,0.6,0.5C6.7,2.9,6.9,3,7.1,3.2c0,0,0.1,0.1,0.2,0.2
			c0-0.1,0-0.2,0-0.3c0-0.1,0-0.2,0-0.2c0-0.1,0-0.2,0-0.2c0-0.1,0.1-0.1,0.1-0.2c0.1,0.1,0.2,0.2,0.3,0.4c0,0.1,0.1,0.3,0.1,0.4
			c0,0.1,0.1,0.3,0.1,0.4C8,3.8,8,3.9,8.1,3.9s0.1,0.1,0.2,0.2c0.2,0.2,0.4,0.3,0.6,0.5c0.2,0.2,0.4,0.3,0.6,0.5
			c0.4,0.3,0.8,0.7,1.2,1c0.4,0.3,0.8,0.7,1.2,1.1c0.1,0.1,0.2,0.1,0.2,0.2c0.1,0.1,0.1,0.2,0.2,0.2c0.1,0.1,0.1,0.2,0,0.3
			c0,0,0,0.1-0.1,0.1c0,0,0,0.1-0.1,0.1c-0.1,0.2-0.2,0.3-0.3,0.3c-0.1,0-0.2,0-0.4,0c-0.1,0-0.3-0.1-0.4-0.1
			c-0.1,0-0.2-0.1-0.4-0.1c0,0,0,0,0,0s0,0,0,0.1c0,0,0,0,0,0c0,0,0,0,0,0h0c-0.1,0-0.2-0.1-0.3-0.1c-0.1,0-0.2-0.1-0.3-0.1
			c-0.1-0.1-0.3-0.1-0.4-0.2C9.7,7.8,9.5,7.7,9.4,7.6v0c0,0,0,0,0.1,0c0,0,0,0,0.1,0c0,0,0,0,0,0s0,0,0,0c0,0-0.1,0-0.1,0
			c-0.1,0-0.1,0-0.2,0c0,0-0.1,0-0.1,0C9,7.3,8.9,7.3,8.8,7.3c0,0-0.1,0-0.1-0.1C8.6,7.2,8.5,7.1,8.5,7.2C8.4,7.2,8.5,7.2,8.5,7.2
			L8.5,7.2z M5.6,6.3c0.1,0,0.2,0,0.2,0c0.1,0,0.1,0,0.2,0C6,6.3,5.9,6.3,5.8,6.3C5.8,6.3,5.7,6.3,5.6,6.3z M8,5.9
			c0.9,0.3,1.8,0.6,2.6,0.9c-0.1-0.1-0.1-0.2-0.2-0.3C10,6.2,9.7,5.9,9.3,5.7C9,5.4,8.6,5.1,8.3,4.9c0,0-0.1,0-0.1,0
			c0,0-0.1,0-0.1,0c0,0.2,0,0.4,0,0.5S8,5.7,8,5.9z"/>
		<path d="M6.8,13.6C6.8,13.6,6.8,13.7,6.8,13.6C6.8,13.7,6.7,13.7,6.8,13.6c-0.1,0.1-0.1,0.1-0.2,0.1s-0.1,0-0.1,0
			c0,0-0.1-0.1-0.2-0.1c-0.1,0-0.1-0.1-0.2-0.1c0,0-0.1,0-0.1,0s-0.1,0-0.1,0c0,0-0.1-0.1-0.1-0.1c0,0-0.1,0-0.1-0.1
			c0,0-0.1-0.1-0.1-0.1c0,0-0.1-0.1-0.1-0.1c-0.1-0.1-0.3-0.2-0.4-0.3c-0.1-0.1-0.2-0.2-0.3-0.3c-0.1-0.1-0.2-0.1-0.2-0.2
			c-0.1-0.1-0.1-0.1-0.2-0.2S4.3,12,4.3,12s0-0.2,0.1-0.3c0.1-0.1,0.1-0.2,0.2-0.2c0.1-0.1,0.3-0.1,0.5,0c0.5,0.1,1,0.2,1.4,0.4
			s0.9,0.3,1.4,0.5c0-0.2-0.1-0.4-0.3-0.6c-0.2-0.1-0.3-0.3-0.5-0.4c-0.2-0.1-0.3-0.2-0.5-0.3c-0.1,0-0.1-0.1-0.2-0.1
			s-0.1-0.1-0.2-0.1c-0.1,0-0.2-0.1-0.2-0.3c0-0.1,0-0.2,0-0.4C6.2,10,6.3,9.9,6.6,9.9c0.1,0,0.2,0,0.3,0c0.1,0,0.2,0,0.3,0.1
			c0.1,0,0.2,0,0.1,0C7.3,9.8,7.2,9.7,7.1,9.6S6.8,9.4,6.7,9.3C6.5,9.2,6.4,9.1,6.4,9.1C6.3,9,6.2,9,6,8.9C5.9,8.8,5.8,8.8,5.7,8.7
			C5.6,8.6,5.5,8.6,5.3,8.5C5.2,8.4,5,8.3,4.9,8.2c0,0,0-0.1,0-0.1c0-0.2,0-0.3,0.1-0.4C5,7.6,5.2,7.6,5.4,7.6c0.1,0,0.2,0,0.3,0
			c0.1,0,0.2,0,0.3,0c0,0,0,0,0,0l0,0c0-0.1,0.1-0.1,0.2-0.1c0.1,0,0.3,0.1,0.4,0.1c0.1,0,0.3,0.1,0.4,0.1c0.2,0,0.3,0.1,0.5,0.1
			s0.3,0.1,0.5,0.1C8,7.9,8.1,7.9,8.2,8c0.1,0,0.2,0.1,0.3,0.1c0,0,0,0,0.1,0c0,0,0.1,0,0.1,0.1c0,0-0.1,0-0.1,0
			C8.4,8.1,8.2,8.1,8.1,8C7.9,8,7.8,7.9,7.6,7.9c-0.1,0-0.3-0.1-0.4,0c0,0,0,0,0,0c0,0,0,0,0,0C7.5,7.9,7.7,8,7.9,8.1
			c0.2,0.1,0.4,0.2,0.6,0.3c0.1,0.1,0.2,0.2,0.3,0.3s0.1,0.3,0.1,0.5c0,0.1-0.1,0.2-0.3,0.3C8.2,9.3,7.8,9.2,7.4,9.1c0,0,0,0,0,0.1
			s0,0,0,0.1C7.6,9.4,7.8,9.6,8,9.8s0.3,0.4,0.3,0.7c0,0.1,0,0.1,0,0.2c0,0.1,0,0.1-0.1,0.2S8.1,11,8,11c-0.1,0-0.2,0-0.4-0.1
			c0,0,0,0,0,0s0,0,0,0c0,0,0,0,0,0.1c0.2,0.1,0.3,0.3,0.4,0.5c0.1,0.2,0.2,0.4,0.3,0.6c0,0.1,0.1,0.2,0.1,0.3c0,0.1,0,0.2,0,0.3
			c0,0.1,0,0.1-0.1,0.2s-0.1,0.1-0.1,0.1C8.1,13,8,13,7.9,13c-0.1,0-0.2,0-0.3,0C7.4,13,7.2,12.9,7,12.8s-0.4-0.2-0.6-0.3
			c-0.2-0.1-0.4-0.2-0.6-0.2c-0.2-0.1-0.4-0.1-0.7-0.1c0.1,0.1,0.3,0.2,0.4,0.4c0.2,0.2,0.3,0.3,0.5,0.5c0.2,0.2,0.3,0.3,0.5,0.4
			C6.6,13.6,6.7,13.6,6.8,13.6z M6.5,7.8c0.1,0,0.2,0,0.4,0c0.1,0,0.1,0,0.2,0c0.1,0,0.1,0,0.2,0v0h0C7,7.7,6.9,7.7,6.7,7.7
			c-0.2,0-0.3,0-0.5-0.1c0,0,0,0,0,0c0,0,0,0-0.1,0c0.1,0,0.1,0,0.2,0.1C6.4,7.7,6.4,7.7,6.5,7.8z"/>
		<path d="M6.6,16.7L6.6,16.7C6.6,16.8,6.6,16.9,6.6,16.7c-0.1,0.1-0.1,0-0.2-0.1c-0.1-0.1-0.1-0.3-0.1-0.5C6.2,16.1,6.1,16,6,16
			c-0.2-0.1-0.3-0.2-0.5-0.4c-0.1-0.1-0.1-0.2-0.2-0.2c-0.1-0.1-0.1-0.2-0.2-0.2c-0.1-0.1-0.1-0.2-0.1-0.3S5,14.6,5,14.5
			c0,0,0-0.1,0-0.1s0-0.1,0-0.1c0,0,0-0.1,0.1-0.2c0-0.1,0-0.1,0.1-0.2c0,0,0.1-0.1,0.1-0.1c0,0,0.1-0.1,0.1-0.1
			c0-0.1,0.1-0.1,0.2-0.2c0.1-0.1,0.1-0.1,0.2-0.1c0,0,0.1,0,0.1,0c0,0,0.1,0,0.1-0.1c0.1-0.1,0.2-0.1,0.3-0.1c0.1,0,0.2,0,0.3,0
			s0.2,0,0.2,0c0.1,0,0.2,0.1,0.3,0.1c0.1,0,0.2,0,0.3,0.1c0.2,0,0.5,0.2,0.7,0.4l0,0c0,0,0,0,0,0c-0.1,0-0.2-0.1-0.3-0.1
			c-0.1-0.1-0.2-0.1-0.3-0.1h0c0,0,0.1,0,0.1,0.1c0.1,0,0.1,0.1,0.2,0.1C7.8,14,7.9,14,8,14.1s0.1,0.1,0.2,0.1s0.1,0,0.1,0.1
			c0,0,0,0,0,0c0,0-0.1,0-0.1,0c0,0-0.1,0-0.1,0c0,0-0.1,0-0.1-0.1c-0.1,0-0.1,0-0.2,0c0,0,0,0,0,0l0,0c0,0,0.1,0.1,0.1,0.1
			c0.1,0,0.1,0.1,0.1,0.1c0,0-0.1,0-0.1,0s-0.1,0-0.1,0c0.1,0.1,0.2,0.1,0.3,0.2s0.2,0.1,0.3,0.2c0,0.1,0,0.2,0.1,0.3
			c0,0.1,0.1,0.2,0.1,0.3c0,0.1,0,0.2,0,0.2c0,0.1,0,0.1-0.1,0.2c0,0,0,0.1,0,0.1c-0.1,0.1-0.1,0.2-0.3,0.3
			c-0.1,0.1-0.2,0.1-0.3,0.1c-0.2,0-0.3,0-0.5,0c-0.2,0-0.3,0-0.5,0l-0.2-0.1C6.6,16.4,6.6,16.6,6.6,16.7z M6.2,15.5
			C6.2,15.5,6.3,15.5,6.2,15.5c0.1,0,0.1,0,0.1,0c0-0.1,0.1-0.1,0.1-0.2c0-0.1,0-0.1,0.1-0.2c0-0.1,0.1-0.2,0.1-0.2
			c0-0.1,0.1-0.1,0.1-0.2c-0.1-0.1-0.1-0.1-0.2-0.2c-0.1,0-0.2,0-0.2-0.1c-0.1,0-0.2-0.1-0.3-0.1c-0.1,0-0.2,0-0.4,0.1
			c0,0,0,0.1,0.1,0.1s0,0.1,0,0.1c0,0,0.1,0.1,0.1,0.1c0,0,0,0.1,0.1,0.1c0.1,0.1,0.1,0.2,0.2,0.3C6,15.3,6.1,15.4,6.2,15.5z
			 M8.2,15.4c-0.2-0.3-0.4-0.4-0.7-0.5c-0.1,0-0.1,0-0.2,0c-0.1,0-0.1,0-0.2,0c-0.1,0-0.1,0-0.2,0C7,15,7,15,6.9,15.1
			c-0.1,0.1-0.1,0.2-0.2,0.2c0,0,0,0.1,0,0.1c0,0,0,0.1,0,0.1s0,0.1,0,0.1c0,0.1,0,0.2,0.1,0.2c0.1,0.1,0.3,0.1,0.4,0.1s0.3,0,0.4,0
			c0,0,0.1,0,0.1,0s0.1,0,0.1,0c0.1,0,0.3-0.1,0.3-0.2C8.3,15.6,8.3,15.5,8.2,15.4z"/>
		<path d="M5.7,18.9c0,0.1,0,0.1,0,0.1c0,0,0,0.1-0.1,0c0,0-0.1,0-0.1,0c0,0,0,0-0.1,0c-0.1,0-0.2,0-0.3-0.1c0,0,0,0,0,0
			c0,0,0,0,0,0.1C5,19,4.9,18.9,4.7,18.8c-0.2-0.1-0.3-0.1-0.4-0.2c0,0-0.1,0-0.1-0.1c0,0,0-0.1-0.1-0.1c0,0,0-0.1,0-0.1
			c0,0,0,0,0-0.1c-0.1-0.1-0.2-0.1-0.2-0.2c0,0-0.1-0.1-0.1-0.2c0-0.1-0.1-0.1-0.1-0.2c0,0,0-0.1-0.1-0.1s-0.1-0.1-0.1-0.1
			c0,0-0.1-0.1-0.1-0.1c0,0,0-0.1,0-0.2c0,0,0,0,0-0.1c0,0,0-0.1,0-0.1c0-0.1-0.1-0.2,0-0.2c0,0,0.1,0,0.1,0.1s0,0.1,0,0.1
			c0,0,0,0.1,0.1,0.1c0,0,0,0.1,0.1,0.1c0,0,0,0.1,0.1,0.1c0,0,0.1,0.1,0.1,0.1c0,0,0-0.1,0-0.1c0,0,0,0,0-0.1
			c-0.1-0.1-0.1-0.2-0.2-0.3c0-0.1-0.1-0.2-0.1-0.3c-0.1-0.2-0.1-0.4-0.1-0.6c0-0.2,0.1-0.3,0.2-0.5c0-0.1,0.1-0.1,0.2-0.2
			c0.1-0.1,0.1-0.1,0.2-0.1h0.1c0.2,0,0.3,0,0.5,0.1c0.1,0.1,0.3,0.2,0.4,0.3c0.2,0.2,0.4,0.4,0.6,0.6c0.2,0.2,0.3,0.5,0.5,0.7
			c0,0.1,0,0.1,0.1,0.2c0,0,0,0.1,0,0.2c0,0.1,0,0.1-0.1,0.1c-0.1,0-0.2,0-0.3,0c-0.1-0.1-0.2-0.1-0.2-0.2C5.1,17.2,5.1,17.1,5,17
			c-0.2-0.2-0.3-0.3-0.5-0.4S4.2,16.4,4,16.3c0,0-0.1,0-0.1,0c0,0-0.1,0-0.1,0c0,0.1,0.1,0.2,0.1,0.3c0,0.1,0.1,0.2,0.2,0.3
			c0,0,0,0,0.1,0.1c0,0,0,0.1,0.1,0.1c0.2,0.2,0.3,0.4,0.5,0.5c0.2,0.1,0.4,0.2,0.6,0.3c0.1,0,0.2,0.1,0.2,0.1c0.1,0,0.2,0,0.2,0
			c0,0,0.1,0,0.1,0c0,0,0.1,0,0.1,0c0.1-0.1,0.1-0.1,0.1-0.2c0,0,0-0.1,0-0.1c0,0,0-0.1,0-0.1c0-0.1,0-0.2,0.1-0.4
			c0-0.1,0.1-0.2,0.2-0.3c0.1-0.2,0.2-0.2,0.3-0.3c0.1,0,0.2,0,0.3,0c0.1,0,0.2,0.1,0.3,0.2c0.1,0.1,0.2,0.1,0.3,0.2c0,0,0,0,0,0
			c0,0-0.1,0-0.1,0c0,0,0,0-0.1,0c0,0,0.1,0.1,0.1,0.1c0,0,0.1,0.1,0.1,0.1c0.1,0.1,0.2,0.1,0.3,0.2c0.1,0.1,0.1,0.2,0.2,0.3
			c0.1,0.1,0.1,0.3,0.2,0.4c0,0,0,0.1,0,0.1c0,0,0,0.1,0,0.1c0.1,0.3,0,0.5-0.1,0.7c0,0,0,0,0,0c0,0,0,0,0,0c0,0-0.1,0-0.1,0.1
			c0,0-0.1,0-0.1,0.1c-0.2,0-0.3-0.1-0.5-0.2c-0.1-0.1-0.3-0.3-0.4-0.4C7.1,18.5,7,18.4,7,18.3c0-0.1,0-0.1,0-0.2c0,0,0-0.1,0.1-0.2
			c0,0,0.1,0,0.1,0c0,0,0,0,0.1,0.1c0,0.1,0.1,0.1,0.2,0.2s0.1,0.1,0.2,0.2c0.1,0.1,0.2,0.1,0.3,0.2c0,0,0,0,0.1,0s0,0,0.1,0
			c0,0,0-0.1,0-0.1c0-0.1-0.1-0.1-0.1-0.1c0,0,0-0.1-0.1-0.1c-0.1-0.2-0.3-0.3-0.4-0.5c-0.1-0.1-0.3-0.3-0.5-0.3c0,0-0.1,0-0.1,0
			s-0.1,0-0.1,0c0,0,0,0.1,0,0.2c0,0.1,0,0.1,0,0.2c0,0.4-0.2,0.7-0.3,0.9C6.1,18.8,5.9,18.9,5.7,18.9z"/>
	</g>
</g>
</svg>
