<?xml version="1.0" encoding="utf-8"?>
<!-- Generator: Adobe Illustrator 27.7.0, SVG Export Plug-In . SVG Version: 6.00 Build 0)  -->
<svg version="1.1" id="Layer_2_00000088841244261753012160000000863953477030066090_"
	 xmlns="http://www.w3.org/2000/svg" xmlns:xlink="http://www.w3.org/1999/xlink" x="0px" y="0px" viewBox="0 0 13.1 22"
	 style="enable-background:new 0 0 13.1 22;" xml:space="preserve">
<style type="text/css">
	.st0{enable-background:new    ;}
</style>
<g id="Layer_1-2">
	<g class="st0">
		<path d="M12.2,7.4c-0.1,0-0.1,0-0.2,0c0,0-0.1-0.1-0.1-0.1c-0.2-0.2-0.2-0.4-0.3-0.7c0-0.2-0.1-0.5-0.1-0.7c0-0.2-0.1-0.5-0.1-0.7
			c0-0.1,0-0.3,0-0.4c0-0.1,0-0.3,0-0.4c0-0.2-0.1-0.3-0.2-0.4c-0.2-0.1-0.5-0.3-0.7-0.4c-0.2-0.1-0.5-0.2-0.7-0.3c0,0-0.1,0-0.1,0
			s-0.1,0-0.1,0c0,0.4,0.1,0.7,0.1,1s0.1,0.7,0.2,1c0,0-0.1,0-0.1,0c0,0-0.1,0-0.1,0C9.4,5.1,9.4,4.9,9.3,4.8
			C9.2,4.7,9.1,4.6,9.1,4.4C9,4.3,9,4.2,8.9,4.1c0-0.1,0-0.2-0.1-0.3c0-0.2-0.1-0.3-0.1-0.5c0-0.2-0.1-0.3-0.1-0.5
			c0,0,0-0.1-0.1-0.1S8.5,2.7,8.4,2.6c0,0,0,0,0,0c0,0,0,0,0.1-0.1C8.4,2.5,8.3,2.4,8.1,2.3C8,2.3,7.8,2.2,7.7,2.2
			C7.6,2.1,7.4,2.1,7.3,2.1h0h0h0c-0.1,0-0.1,0-0.2,0c-0.1,0-0.1,0-0.2,0C6.6,2,6.4,2,6.2,1.9C6,1.8,5.8,1.8,5.5,1.7c0,0,0,0-0.1,0
			c0,0-0.1,0-0.1,0c0,0,0,0-0.1,0c0,0,0-0.1,0-0.1c0,0,0,0,0,0c0,0,0,0-0.1,0c-0.1,0-0.2,0-0.2,0s-0.2,0-0.2,0
			c-0.2,0-0.2,0.1-0.2,0.3c0,0.2,0.1,0.3,0.1,0.5c0.1,0.2,0.1,0.3,0.2,0.4c0.2,0.5,0.5,0.9,0.8,1.3c0.3,0.4,0.6,0.8,0.9,1.2
			c0,0,0.1,0.1,0.1,0.1c0,0,0,0.1,0,0.1c-0.2,0-0.3-0.1-0.4-0.2C6,5.3,6,5.2,5.9,5.2C5.8,5.1,5.7,5.1,5.6,5c0,0,0,0-0.1,0
			s0,0-0.1-0.1C5.3,4.6,5,4.3,4.8,4C4.5,3.8,4.3,3.4,4.2,3.1C4,2.8,3.9,2.4,3.9,2c0-0.1,0-0.3,0.1-0.4C4,1.4,4.1,1.3,4.2,1.2
			C4.3,1,4.4,0.9,4.5,0.8c0.1-0.1,0.3-0.2,0.4-0.2c0.2-0.1,0.3-0.1,0.5-0.1c0.2,0,0.3,0,0.5,0c0.2,0,0.5,0.1,0.7,0.2
			C6.8,0.7,7,0.8,7.3,0.9C7.4,0.9,7.6,1,7.8,1s0.3,0.1,0.5,0.2c0,0,0-0.1,0-0.1c0,0,0,0,0,0c0,0,0,0-0.1,0c0,0,0,0,0-0.1
			c0,0,0,0,0.1,0c0,0,0.1,0,0.1,0c0-0.2,0-0.4,0.1-0.6S8.6,0.1,8.8,0c0,0.1,0,0.1,0,0.2c0,0,0,0.1,0,0.1c0,0.2,0.1,0.3,0.1,0.5
			C9,0.9,9,1,9,1.2c0,0.1,0.1,0.2,0.2,0.2c0.2,0.1,0.5,0.3,0.7,0.4c0.2,0.1,0.5,0.2,0.7,0.4c0.1,0.1,0.2,0.1,0.4,0.2
			s0.3,0.1,0.4,0.2c0,0,0.1-0.1,0.1-0.1s0.1-0.1,0.1-0.1c0,0.1,0.1,0.1,0.1,0.2c0,0.1,0,0.1,0.1,0.2c0,0,0.1,0.1,0.1,0.1
			c0.1,0,0.1,0.1,0.2,0.1h-0.4c0.1,0,0.1,0.1,0.1,0.1c0,0,0,0,0.1,0c0.1,0,0.1,0.1,0.2,0.1s0.1,0.1,0.2,0.1c0.2,0.1,0.2,0.3,0.1,0.5
			c0,0.1-0.1,0.1-0.2,0.2c-0.1,0-0.1,0.1-0.2,0.1c0,0-0.1,0.1-0.2,0.1c0,0.3,0,0.5,0,0.8c0,0.3,0,0.5,0.1,0.8c0,0.3,0,0.5,0,0.8
			C12.2,6.9,12.2,7.1,12.2,7.4z M6,1.7c0.3,0.1,0.6,0.2,0.9,0.3C6.8,1.8,6.6,1.8,6.4,1.7C6.3,1.7,6.1,1.6,6,1.7z M6.4,0.5
			c0.1-0.1,0.4-0.1,0.9,0.1c0.1,0,0.3,0.1,0.4,0.2C7.8,0.8,8,0.9,8.1,1c0,0-0.1,0-0.1,0c0,0-0.1,0-0.1,0C7.7,0.8,7.5,0.7,7.2,0.7
			C7,0.6,6.8,0.5,6.5,0.5C6.5,0.5,6.5,0.5,6.4,0.5C6.4,0.5,6.4,0.5,6.4,0.5z M7.7,2.2c0.1,0,0.1,0.1,0.2,0.1C8,2.4,8,2.4,8.1,2.4
			c0,0,0.1,0,0.1,0.1c0.1,0,0.1,0.1,0.2,0.1c-0.1,0-0.1,0-0.2-0.1c-0.1,0-0.1,0-0.2-0.1c-0.1,0-0.2-0.1-0.4-0.2S7.4,2.2,7.3,2.1
			C7.4,2.2,7.6,2.2,7.7,2.2L7.7,2.2L7.7,2.2z M8.1,1L8.1,1L8.1,1C8.1,1,8.1,1,8.1,1z M8.4,2.6C8.4,2.6,8.4,2.6,8.4,2.6L8.4,2.6
			L8.4,2.6z M9.7,1.8c-0.1,0-0.2-0.1-0.2-0.1c-0.1,0-0.1-0.1-0.2-0.1c0.1,0,0.1,0.1,0.1,0.1c0,0,0.1,0,0.1,0.1c0,0,0.1,0,0.1,0
			C9.6,1.8,9.6,1.8,9.7,1.8z M10.1,2c0.1,0.1,0.1,0.1,0.1,0.1c0,0,0.1,0,0.2,0c-0.1,0-0.1,0-0.2-0.1C10.2,2.1,10.2,2,10.1,2z"/>
		<path d="M5.7,8.2c0,0.1,0,0.1,0,0.1c0,0,0,0.1-0.1,0c0,0-0.1,0-0.1,0c0,0,0,0-0.1,0c-0.1,0-0.2,0-0.3-0.1c0,0,0,0,0,0s0,0,0,0.1
			C5,8.3,4.9,8.3,4.7,8.2C4.6,8.1,4.4,8,4.3,8c0,0-0.1,0-0.1-0.1c0,0,0-0.1-0.1-0.1c0,0,0-0.1,0-0.1c0,0,0,0,0-0.1
			C4,7.6,3.9,7.5,3.8,7.5c0,0-0.1-0.1-0.1-0.2S3.6,7.2,3.6,7.1c0,0,0-0.1-0.1-0.1c0,0-0.1-0.1-0.1-0.1c0,0-0.1-0.1-0.1-0.1
			c0,0,0-0.1,0-0.2c0,0,0,0,0-0.1c0,0,0-0.1,0-0.1c0-0.1-0.1-0.2,0-0.2c0,0,0.1,0,0.1,0.1c0,0,0,0.1,0,0.1c0,0,0,0.1,0.1,0.1
			c0,0,0,0.1,0.1,0.1c0,0,0,0.1,0.1,0.1c0,0,0.1,0.1,0.1,0.1c0,0,0-0.1,0-0.1c0,0,0,0,0-0.1C3.5,6.6,3.4,6.5,3.4,6.4S3.3,6.1,3.2,6
			C3.2,5.8,3.1,5.6,3.2,5.4S3.3,5.1,3.4,5c0-0.1,0.1-0.1,0.2-0.2s0.1-0.1,0.2-0.1h0.1c0.2,0,0.3,0,0.5,0.1c0.1,0.1,0.3,0.2,0.4,0.3
			C5,5.2,5.1,5.4,5.3,5.7s0.3,0.5,0.5,0.7c0,0.1,0,0.1,0.1,0.2c0,0,0,0.1,0,0.1c0,0.1,0,0.1-0.1,0.1c-0.1,0-0.2,0-0.3,0
			C5.4,6.7,5.3,6.7,5.2,6.6C5.1,6.5,5.1,6.5,5,6.4C4.8,6.2,4.7,6.1,4.5,6S4.2,5.7,4,5.7c0,0-0.1,0-0.1,0c0,0-0.1,0-0.1,0
			C3.9,5.8,3.9,5.9,4,6C4,6,4.1,6.1,4.2,6.2c0,0,0,0,0.1,0.1c0,0,0,0.1,0.1,0.1c0.2,0.2,0.3,0.4,0.5,0.5C5,7,5.2,7.1,5.4,7.2
			c0.1,0,0.2,0.1,0.2,0.1s0.2,0,0.2,0c0,0,0.1,0,0.1,0c0,0,0.1,0,0.1,0c0.1-0.1,0.1-0.1,0.1-0.2c0,0,0-0.1,0-0.1c0,0,0-0.1,0-0.1
			c0-0.1,0-0.2,0.1-0.4s0.1-0.2,0.2-0.3C6.5,6.1,6.6,6,6.7,6c0.1,0,0.2,0,0.3,0c0.1,0,0.2,0.1,0.3,0.2c0.1,0.1,0.2,0.1,0.3,0.2
			c0,0,0,0,0,0c0,0-0.1,0-0.1,0c0,0,0,0-0.1,0c0,0,0.1,0.1,0.1,0.1c0,0,0.1,0.1,0.1,0.1C7.8,6.6,7.9,6.7,8,6.8C8,6.9,8.1,7,8.2,7.1
			c0.1,0.1,0.1,0.3,0.2,0.4c0,0,0,0.1,0,0.1c0,0,0,0.1,0,0.1c0.1,0.3,0,0.5-0.1,0.7c0,0,0,0,0,0c0,0,0,0,0,0c0,0-0.1,0-0.1,0.1
			c0,0-0.1,0-0.1,0.1c-0.2,0-0.3-0.1-0.5-0.2C7.4,8.3,7.3,8.1,7.2,8C7.1,7.9,7,7.8,7,7.7c0-0.1,0-0.1,0-0.2c0,0,0-0.1,0.1-0.2
			c0,0,0.1,0,0.1,0c0,0,0,0,0.1,0.1c0,0.1,0.1,0.1,0.2,0.2c0.1,0.1,0.1,0.1,0.2,0.2C7.6,7.8,7.7,7.9,7.8,8c0,0,0,0,0.1,0s0,0,0.1,0
			c0,0,0-0.1,0-0.1c0-0.1-0.1-0.1-0.1-0.1c0,0,0-0.1-0.1-0.1C7.6,7.4,7.5,7.2,7.3,7.1C7.2,7,7,6.8,6.9,6.8c0,0-0.1,0-0.1,0
			s-0.1,0-0.1,0c0,0,0,0.1,0,0.2c0,0.1,0,0.1,0,0.2c0,0.4-0.2,0.7-0.3,0.9C6.1,8.2,5.9,8.3,5.7,8.2z"/>
		<path d="M6.7,12.2C6.7,12.3,6.7,12.3,6.7,12.2c-0.1,0.1-0.1,0.1-0.2,0.1c0,0-0.1-0.1-0.3-0.2c-0.2-0.1-0.3-0.3-0.5-0.5
			c-0.2-0.2-0.4-0.4-0.6-0.5c-0.2-0.2-0.3-0.3-0.4-0.4c-0.1-0.1-0.2-0.2-0.2-0.3c-0.1-0.1-0.1-0.1-0.1-0.2c0-0.1-0.1-0.1-0.1-0.2
			c0,0,0-0.1,0-0.1c0,0,0-0.1,0-0.2c0-0.1,0-0.2,0-0.2c0-0.1,0.1-0.1,0.2-0.2C4.6,9,4.8,8.9,5.2,8.8c0.2,0,0.4,0,0.6,0
			c0.2,0,0.4,0.1,0.6,0.1C6.7,9,7,9.1,7.3,9.2c0,0,0.1,0,0.1,0s0.1,0,0.1,0h0c0,0,0-0.1,0-0.1c0,0-0.1,0-0.2-0.1s-0.2,0-0.2-0.1
			C7,9.1,6.9,9,6.8,9c0,0,0,0,0,0c0,0,0,0,0.1,0c0,0,0,0,0.1,0S7,9,7,9c0,0,0,0,0,0c0.1,0,0.1,0,0.2,0c0,0,0.1,0,0.1,0.1h0
			c0,0,0.1,0,0.2,0.1S7.8,9.2,8,9.3c0.2,0,0.3,0.1,0.4,0.1s0.2,0.1,0.2,0.1c0,0,0,0-0.1,0s-0.2,0-0.2-0.1S8,9.4,7.8,9.3c0,0,0,0,0,0
			c0.1,0,0.1,0,0.2,0.1c0.1,0,0.1,0,0.2,0.1c0.1,0,0.2,0.1,0.3,0.1c0.1,0,0.2,0.1,0.3,0.2c0,0,0,0,0.1,0c0,0,0,0,0.1,0
			c0,0,0,0,0-0.1s0,0,0,0c0,0,0,0,0,0c0,0,0,0,0-0.1C9,9.5,9,9.4,9,9.3C9.1,9.1,9.2,9,9.4,9c0.1,0.1,0.2,0.3,0.2,0.4
			c0.1,0.1,0.1,0.3,0.1,0.5c0,0.1,0.1,0.2,0.2,0.3c0,0,0,0-0.1,0c0,0,0,0-0.1,0.1c0,0,0,0,0,0.1c0,0.1,0.1,0.1,0.1,0.1
			c0,0,0,0,0.1,0c0,0,0.1,0,0.1,0c0,0,0,0,0,0.1c0,0,0,0,0.1,0.1c0,0,0,0,0.1,0c0,0,0,0-0.1,0s-0.1,0-0.1,0c0,0-0.1,0-0.2-0.1
			c0,0,0,0,0.1,0c0,0,0.1,0,0.2,0s0.1,0,0.2,0c0.1,0,0.1,0,0.1,0c0,0,0.1,0,0.1,0h0c0,0,0,0,0,0c0,0,0,0,0.1,0.1s0.2,0.1,0.3,0.1
			c0.1,0.1,0.2,0.1,0.2,0.1s0.1,0.1,0.1,0.1c0,0,0,0-0.1,0c0,0-0.1,0-0.1-0.1s-0.1,0-0.1-0.1c0,0-0.1,0-0.1,0c0,0-0.1,0-0.1,0
			c0,0,0,0-0.1,0c0,0,0,0-0.1,0c0,0,0,0,0-0.1c0,0-0.1,0-0.2,0c0,0,0,0-0.1,0c0,0,0,0.1,0,0.1c0,0,0.1,0,0.1,0
			c0.1,0.1,0.2,0.1,0.3,0.2c0.1,0.1,0.2,0.1,0.3,0.2c0.1,0.1,0.2,0.1,0.2,0.2c0,0.1,0,0.3,0,0.4c0,0.1-0.1,0.3-0.3,0.4
			c-0.1,0-0.2,0-0.3-0.1c-0.1,0-0.2-0.1-0.3-0.1c-0.1,0-0.2-0.1-0.3-0.1c-0.1-0.1-0.2-0.1-0.3-0.1c0,0.1-0.1,0.1,0,0.2
			c0,0.1,0,0.1,0,0.2c0,0,0,0.1,0,0.1c0,0,0,0.1,0,0.1c0,0,0,0.1-0.1,0.1s-0.1,0-0.1,0c0,0,0,0-0.1,0c0,0,0,0,0-0.1
			c0-0.1-0.1-0.1-0.1-0.2c0-0.1,0-0.1-0.1-0.2c0-0.1-0.1-0.1-0.1-0.2c0-0.1,0-0.2-0.1-0.2c-0.2-0.1-0.4-0.2-0.5-0.2
			s-0.3-0.2-0.5-0.2c-0.2-0.1-0.3-0.2-0.5-0.2c-0.2-0.1-0.4-0.1-0.5-0.2c-0.2-0.1-0.5-0.2-0.7-0.3C6.3,10,6,10,5.8,9.9
			c-0.1,0-0.2,0-0.3-0.1c-0.1,0-0.2,0-0.3,0H5c-0.1,0-0.1,0.1-0.2,0.1c0,0,0,0.1,0,0.1c0,0,0,0.1,0,0.1c0,0,0,0.1,0.1,0.1
			c0,0,0.1,0.1,0.2,0.2c0.1,0.1,0.2,0.2,0.3,0.3c0.1,0.1,0.3,0.3,0.4,0.4c0.1,0.1,0.3,0.3,0.4,0.4s0.2,0.2,0.3,0.3
			C6.6,12.1,6.7,12.2,6.7,12.2z"/>
		<path d="M5.9,12.8c-0.1,0-0.2,0-0.3-0.1c-0.1,0-0.2,0-0.3,0c-0.2,0-0.5-0.1-0.7-0.2c0,0,0-0.1,0-0.2s0.1-0.1,0.1-0.2
			c0-0.1,0.1-0.1,0.1-0.2c0-0.1,0.1-0.1,0.2-0.1c0.1,0,0.1,0,0.2,0c0.1,0,0.1,0,0.2,0c0.2,0,0.4,0.1,0.6,0.1c0.2,0,0.4,0.1,0.6,0.1
			c0.1,0,0.1,0,0.2,0c0.1,0,0.1,0,0.2,0c0.3,0.1,0.6,0.2,0.9,0.2c0.3,0.1,0.6,0.1,1,0.2c0,0,0.1,0,0.1,0c0.1,0,0.1,0,0.2,0
			c0.1,0,0.1,0,0.2,0.1c0.1,0,0.1,0,0.1,0.1l-0.4,0c0.1,0.1,0.2,0.1,0.3,0.1s0.2,0,0.3,0c0,0,0,0,0,0c0,0,0,0,0,0
			c0.1,0,0.2,0.1,0.3,0.1c0.1,0,0.2,0.1,0.3,0.1c0,0,0,0,0.1,0c0,0,0.1,0,0.1,0c0.4,0.1,0.7,0.2,1.1,0.3c0.1,0,0.1,0,0.2,0
			c0,0,0.1,0,0.2,0.1c-0.1,0-0.3,0-0.4-0.1s-0.3,0-0.4,0c0.1,0.1,0.1,0.1,0.2,0.1c0,0,0,0,0.1,0c0.2,0,0.4,0,0.5,0.1
			c0.1,0.1,0.3,0.2,0.5,0.2c0.1,0,0.1,0.1,0.1,0.2s0.1,0.2,0.1,0.3c0,0.1,0,0.2,0,0.4c0,0.1,0,0.2,0,0.3c0,0.1-0.1,0.2-0.2,0.1
			c0,0,0,0-0.1,0c0,0-0.1,0-0.1-0.1c-0.3-0.2-0.6-0.4-1-0.5s-0.8-0.3-1.1-0.4C9.7,14,9.3,13.9,9,13.8c-0.3-0.1-0.6-0.2-0.9-0.3
			c0,0.1,0,0.1,0,0.1c0.1,0.1,0.1,0.3,0.1,0.4c0,0.1,0,0.3,0,0.5c0,0,0,0.1,0,0.1c0,0,0,0.1,0,0.1c0,0.1-0.1,0.1-0.1,0.2
			C8.1,14.9,8,15,7.9,15c0,0-0.1,0-0.1,0s-0.1,0-0.1,0c0,0,0,0,0,0.1c0,0,0,0,0,0.1c-0.1,0-0.1,0-0.2,0c0,0-0.1,0-0.1,0
			C7.4,15,7.3,15,7.1,15c-0.1,0-0.2-0.1-0.4-0.1c-0.1,0-0.2-0.1-0.2-0.1s-0.2-0.1-0.2-0.1c-0.1,0-0.1,0-0.2-0.1
			c-0.1,0-0.1,0-0.2-0.1h0c-0.1,0-0.1,0-0.2-0.1c-0.1,0-0.1,0-0.2-0.1c0,0-0.1,0-0.1,0c0,0-0.1,0-0.1,0c0,0,0,0,0,0s0,0,0,0
			c0,0,0,0-0.1,0c0,0,0,0-0.1,0c0,0-0.1-0.1-0.1-0.1s-0.1,0-0.2,0v0c-0.1,0-0.1,0-0.2,0c0,0,0,0,0,0.1c0,0.1,0,0.1,0,0.2
			c0,0,0.1,0,0.2,0.1c0.1,0.1,0.2,0.2,0.4,0.3c0.1,0.1,0.3,0.2,0.5,0.3c0.2,0.1,0.3,0.2,0.5,0.3c0.1,0.1,0.3,0.2,0.5,0.3
			c0,0,0,0-0.1,0c-0.1,0-0.1-0.1-0.2-0.1c-0.1,0-0.2-0.1-0.3-0.2c0.1,0.1,0.1,0.1,0.2,0.1c0.1,0,0.1,0.1,0.2,0.1
			c0.1,0,0.1,0.1,0.1,0.1c0,0,0,0.1,0,0.1c0,0,0,0,0,0c0,0-0.1,0-0.2-0.1c-0.1-0.1-0.2-0.1-0.4-0.2c-0.2-0.1-0.3-0.2-0.5-0.3
			c-0.2-0.1-0.4-0.2-0.5-0.3c-0.2-0.1-0.3-0.2-0.4-0.3c-0.1-0.1-0.2-0.1-0.2-0.2c-0.1-0.1-0.1-0.2-0.1-0.3s0-0.1,0-0.2c0,0,0,0,0,0
			c0,0,0,0.1,0,0c0,0,0-0.1,0.1-0.4c0-0.1,0.1-0.1,0.1-0.2c0.1-0.1,0.1-0.1,0.2-0.2c0.1-0.1,0.1-0.1,0.2-0.1c0,0,0.1,0,0.1,0
			c0,0,0,0,0.1,0s0.1,0,0.2,0c0.1,0,0.1,0,0.2,0H5.1c0,0-0.1,0-0.1,0c0,0,0,0,0,0l0.3,0.1c0.1,0,0.2,0,0.2,0c0.1,0,0.1,0,0.1,0
			c0,0,0,0,0,0c0,0-0.1,0-0.1,0s-0.1,0-0.1,0c0,0,0,0,0,0c0.1,0,0.1,0,0.2,0c0,0,0.1,0,0.1,0s0.1,0,0.1,0c0,0,0,0,0,0h0
			c0.2,0,0.3,0,0.5,0.1s0.3,0.1,0.5,0.1c0,0,0.1,0,0.1,0s0.1,0,0.1,0c-0.1-0.1-0.1-0.2-0.2-0.2c-0.1-0.1-0.1-0.1-0.2-0.2
			c-0.1,0-0.2-0.1-0.2-0.2c-0.1-0.1-0.1-0.1-0.2-0.2C6.3,13,6.2,13,6.2,12.9S6,12.9,5.9,12.8z"/>
		<path d="M6.7,19c0,0-0.1,0-0.2-0.1c-0.1-0.1-0.2-0.1-0.3-0.3c-0.1-0.1-0.1-0.1-0.2-0.2c0-0.1-0.1-0.1-0.2-0.2c0,0-0.1-0.1-0.2-0.1
			c-0.1,0-0.1-0.1-0.2-0.1c-0.3-0.2-0.5-0.5-0.6-0.8c-0.1-0.1-0.1-0.3-0.1-0.4c0-0.2,0-0.3,0-0.5c0,0,0-0.1,0-0.1c0,0,0-0.1,0-0.1
			C5,16,5,15.9,5.1,15.8c0.1-0.1,0.1-0.2,0.2-0.2c0,0,0.1-0.1,0.1-0.1s0.1,0,0.1,0c0.2,0,0.3,0,0.5,0c0.1,0,0.1,0,0.2,0
			c0.1,0,0.2,0,0.3,0c0.1,0,0.2,0.1,0.4,0.1c0.1,0.1,0.2,0.1,0.3,0.2c-0.1,0-0.1-0.1-0.2-0.1c-0.1,0-0.1-0.1-0.2-0.1
			c-0.1,0-0.1,0-0.2-0.1c-0.1,0-0.1,0-0.2,0c0.2,0.1,0.3,0.2,0.4,0.2c0.1,0,0.3,0.1,0.4,0.2c0.1,0.1,0.2,0.2,0.3,0.2
			s0.2,0.2,0.3,0.2c0,0,0,0.1,0,0.1c0,0,0,0.1,0,0.1c0.1,0.1,0.2,0.3,0.2,0.4s0.1,0.3,0.1,0.5c0,0.2,0,0.3-0.1,0.5c0,0,0,0.1,0,0.1
			c0,0,0,0.1-0.1,0.1c0,0,0,0.1-0.1,0.1c0,0,0,0-0.1,0c-0.1,0.1-0.1,0.2-0.2,0.2s-0.2,0-0.2,0c-0.1,0-0.1-0.1-0.2-0.1
			c-0.1,0-0.1-0.1-0.2-0.1c-0.1-0.1-0.2-0.2-0.3-0.3c-0.1-0.1-0.2-0.2-0.2-0.3c-0.1-0.2-0.2-0.4-0.2-0.6c0-0.1,0-0.2,0-0.2
			c0-0.1,0-0.1,0-0.1c0,0-0.1-0.1-0.1-0.1c0,0-0.1,0-0.2-0.1c-0.1,0-0.2-0.1-0.3-0.1c-0.1,0-0.2-0.1-0.3-0.1c0,0-0.1,0-0.1,0
			s-0.1,0-0.1,0c0,0.1,0,0.2,0,0.2c0,0.1,0.1,0.1,0.1,0.2c0.1,0.1,0.1,0.2,0.2,0.4c0.1,0.1,0.1,0.2,0.2,0.4C6,17.8,6.1,18,6.2,18.2
			s0.3,0.3,0.4,0.5v0c0,0.1,0.1,0.1,0.1,0.1C6.7,18.8,6.7,18.9,6.7,19C6.8,18.9,6.8,19,6.7,19z M7.8,17.7c-0.2-0.3-0.5-0.5-0.8-0.6
			c0.1,0.1,0.2,0.3,0.2,0.4c0.1,0.1,0.2,0.2,0.3,0.3c0,0,0,0,0,0c0,0,0,0,0.1,0C7.7,17.8,7.8,17.8,7.8,17.7z"/>
		<path d="M7.7,21.8c0,0-0.1,0-0.1,0c0,0-0.1,0-0.1-0.1c0,0,0-0.1,0-0.1s0-0.1,0-0.1c0,0,0-0.1,0-0.1s0-0.1,0-0.1
			c0-0.1,0-0.2-0.1-0.3c-0.1-0.1-0.1-0.2-0.2-0.3C7,20.6,7,20.5,6.9,20.4c-0.1-0.1-0.1-0.1-0.2-0.2c-0.2-0.2-0.4-0.3-0.7-0.4
			c-0.2,0-0.3-0.1-0.5-0.2c-0.2-0.1-0.4-0.1-0.6-0.1c-0.1,0-0.1,0-0.2,0c-0.1,0-0.1,0-0.2-0.1c0,0-0.1,0-0.1-0.1
			c-0.1-0.1-0.1-0.3,0-0.3c0-0.1,0.1-0.2,0.2-0.3c0,0,0.1-0.1,0.2-0.1c0.1,0,0.1,0,0.2-0.1c0.1,0,0.1,0,0.2,0c0.2,0,0.3,0.1,0.5,0.1
			s0.3,0.1,0.5,0.1c0,0,0,0,0,0c0,0,0,0,0-0.1c0.2,0.1,0.3,0.1,0.5,0.1c0.1,0,0.3,0.1,0.4,0.2c0.1,0.1,0.3,0.1,0.4,0.2
			s0.3,0.1,0.4,0.2c0,0,0.1,0,0.1,0.1c0,0.1,0.1,0.1,0.1,0.1c0,0,0,0.1,0,0.1c0,0,0,0.1,0,0.1c0,0.1,0,0.1,0,0.2
			c0,0.1,0,0.1-0.1,0.2c0,0,0,0.1-0.1,0.1c-0.1,0-0.1,0-0.2,0.1l0,0c0,0,0,0,0,0c0,0,0,0.1,0,0.1c0,0,0,0.1,0,0.1
			c0,0.1,0.1,0.2,0.1,0.3s0,0.2,0,0.3c0,0.1,0,0.1-0.1,0.2C7.8,21.6,7.8,21.6,7.7,21.8C7.7,21.7,7.7,21.7,7.7,21.8
			C7.7,21.7,7.7,21.8,7.7,21.8z M5.7,18.7C5.7,18.7,5.7,18.7,5.7,18.7C5.7,18.6,5.7,18.6,5.7,18.7c0-0.1,0.2-0.1,0.3-0.1
			c0.1,0,0.2,0.1,0.4,0.1c-0.1,0-0.3,0-0.4,0C5.9,18.7,5.8,18.7,5.7,18.7z"/>
	</g>
</g>
</svg>
