<?xml version="1.0" encoding="utf-8"?>
<!-- Generator: Adobe Illustrator 27.7.0, SVG Export Plug-In . SVG Version: 6.00 Build 0)  -->
<svg version="1.1" id="Layer_2_00000132063282997559552200000012302231813796361110_"
	 xmlns="http://www.w3.org/2000/svg" xmlns:xlink="http://www.w3.org/1999/xlink" x="0px" y="0px" viewBox="0 0 13.1 24.8"
	 style="enable-background:new 0 0 13.1 24.8;" xml:space="preserve">
<style type="text/css">
	.st0{enable-background:new    ;}
</style>
<g id="Layer_1-2">
	<g class="st0">
		<path d="M12,6.3c-0.2,0.2-0.4,0.3-0.6,0.2c-0.1,0-0.1,0-0.2,0c-0.1,0-0.1,0-0.2-0.1c-0.2-0.1-0.4-0.2-0.6-0.3
			C10.3,6,10.1,5.9,9.9,5.8C9.7,5.7,9.5,5.6,9.3,5.4C9.2,5.3,9,5.2,8.8,5C8.6,4.9,8.5,4.8,8.5,4.6s0-0.4,0.2-0.6c0,0,0.1,0,0.1,0.1
			s0.1,0,0.1,0.1c0.4,0.3,0.7,0.5,1.1,0.8c0.4,0.3,0.8,0.5,1.2,0.7c0.1,0,0.1,0.1,0.2,0.1s0.2,0,0.2,0.1c0.1,0,0.2,0,0.2-0.1
			c0.1-0.1,0.1-0.1,0.1-0.2c0-0.1,0-0.2-0.1-0.3c0-0.1-0.1-0.2-0.1-0.2c-0.1-0.2-0.3-0.4-0.4-0.7c-0.1-0.2-0.3-0.5-0.5-0.6
			c-0.3-0.3-0.6-0.6-0.9-0.8s-0.7-0.5-1-0.7c0,0,0,0-0.1,0c0,0-0.1,0-0.1,0C8.9,2.3,9,2.4,9.2,2.6s0.3,0.3,0.5,0.4
			c0.3,0.2,0.5,0.4,0.6,0.5c0.1,0.1,0.2,0.3,0.2,0.4c-0.4-0.4-0.7-0.8-1.2-1.1C8.9,2.4,8.4,2.1,8,1.8C7.7,1.7,7.4,1.5,7.1,1.4
			C6.8,1.2,6.4,1.1,6,1c-0.2-0.1-0.5-0.1-0.8,0C5,1,4.9,1.1,4.9,1.3c0,0.1,0,0.2,0,0.3S5,1.7,5.1,1.8C5.3,2.2,5.5,2.6,5.8,3
			s0.6,0.7,1,1l0.1,0c0-0.1,0-0.1,0-0.2s0-0.1,0-0.2c0-0.1,0.1-0.1,0.1-0.2c0,0,0.1-0.1,0.2-0.1c0.1,0.3,0.3,0.5,0.4,0.8
			C7.8,4.4,8,4.7,8.1,5c0.1,0.1,0.1,0.3,0.1,0.4c0,0.2-0.1,0.3-0.2,0.3c-0.1,0.1-0.2,0.1-0.4,0C7.4,5.6,7.1,5.5,6.8,5.4
			S6.2,5.3,5.9,5.3c-0.2,0-0.4,0-0.6-0.1c-0.2,0-0.4,0-0.6-0.1C4.5,5.1,4.3,5.1,4,5.1s-0.5,0-0.7,0.1c0-0.1,0-0.2,0.1-0.3
			c0.1-0.1,0.1-0.2,0.3-0.2c0.1,0,0.2-0.1,0.3-0.1c0.1,0,0.2-0.1,0.3-0.1c0.2,0,0.4,0,0.6,0c0.2,0,0.4,0,0.6,0h0.3
			C5.6,4.4,5.5,4.3,5.4,4.3c-0.1,0-0.1-0.1-0.1-0.1C5.1,4,5,3.9,4.8,3.8S4.5,3.5,4.3,3.4C4.2,3.3,4.2,3.2,4.1,3.2S4,3.1,4,3
			c0,0,0-0.1,0-0.2C4,2.8,4.1,2.9,4.2,3C4.2,3,4.3,3.1,4.4,3.1c0-0.1-0.1-0.2-0.1-0.3S4.2,2.6,4.2,2.4C4.1,2.3,4.1,2.1,4.1,1.9
			c0-0.2,0-0.4,0.1-0.6s0.2-0.4,0.3-0.5C4.6,0.6,4.8,0.4,5,0.3C5.2,0.2,5.5,0.1,5.7,0C6,0,6.3,0,6.5,0c0,0,0.1,0,0.1,0
			c0,0,0.1,0,0.1,0C6.9,0.1,7,0.2,7.2,0.2c0.2,0,0.3,0,0.5,0c0,0,0-0.1,0-0.1c0.2,0,0.3,0.1,0.4,0.1c0.1,0.1,0.2,0.1,0.4,0.2
			c0.2,0.1,0.5,0.2,0.7,0.4s0.4,0.3,0.6,0.5c0.2,0.2,0.5,0.4,0.7,0.6C10.7,2,11,2.2,11.2,2.4c0.2,0.1,0.3,0.3,0.4,0.4S11.9,3,12,3.2
			c0,0.1,0.1,0.2,0.2,0.3c0.1,0.1,0.1,0.2,0.2,0.3c0,0,0.1,0.1,0.1,0.2c0,0.1,0,0.1,0,0.2c-0.2-0.3-0.3-0.5-0.5-0.8
			c-0.2-0.2-0.5-0.4-0.7-0.6c0,0.1,0.1,0.2,0.1,0.3c0,0.1,0.1,0.2,0.2,0.2C11.8,3.4,12,3.7,12.1,4c0.1,0.1,0.1,0.3,0.2,0.4
			c0.1,0.1,0.1,0.3,0.1,0.5c0,0.2,0,0.4-0.1,0.6S12.2,5.8,12.1,6C12.1,6.1,12,6.2,12,6.3z M10.7,2.3c0,0,0.1,0.1,0.2,0.1
			c0.1,0,0.1,0,0.2,0C10.7,2,10.3,1.7,9.9,1.5C9.6,1.2,9.2,0.9,8.8,0.7C8.6,0.6,8.4,0.5,8.3,0.4C8.1,0.3,7.9,0.3,7.7,0.3
			C7.8,0.3,8,0.4,8.1,0.4c0.1,0.1,0.2,0.1,0.3,0.2c0.1,0.1,0.2,0.1,0.4,0.2S9,1,9.1,1.1c0.1,0,0.2,0.1,0.3,0.1
			c0.1,0.1,0.2,0.1,0.2,0.2c0.1,0,0.2,0.1,0.3,0.2c0,0,0.1,0,0.1,0.1c0,0,0.1,0,0.1,0.1C10.2,1.9,10.3,2,10.4,2
			C10.5,2.1,10.6,2.2,10.7,2.3z M8.4,2c0.1,0,0.1,0,0.1,0c0,0,0,0,0,0c0,0,0,0-0.1,0C8.5,2,8.4,1.9,8.4,2C8.4,1.9,8.4,2,8.4,2
			C8.4,2,8.4,2,8.4,2z M8.8,0.9c0,0.1,0,0.1,0,0.1c0,0,0.1,0,0.1,0.1C8.9,1,8.8,1,8.8,0.9z M9,1.1c0,0,0.1,0.1,0.1,0.1
			c0,0,0.1,0,0.1,0c0,0,0,0-0.1-0.1c0,0,0-0.1-0.1-0.1C9.1,1.1,9,1.1,9,1.1z M9.3,1.3c0,0.1,0.1,0.2,0.1,0.2c0.1,0,0.2,0.1,0.3,0.1
			c0,0,0,0,0-0.1c0,0,0,0,0-0.1c-0.1,0-0.1-0.1-0.2-0.1C9.4,1.3,9.3,1.3,9.3,1.3z M9.6,1.6c0,0.1,0.1,0.2,0.3,0.2V1.7
			c0,0-0.1,0-0.1,0S9.7,1.6,9.6,1.6z M9.9,1.8c0,0.1,0.1,0.1,0.2,0.1c0,0-0.1-0.1-0.1-0.1C10,1.8,10,1.8,9.9,1.8z"/>
		<path d="M6.7,9.5c0,0-0.1,0-0.2-0.1C6.4,9.3,6.3,9.3,6.2,9.2C6.2,9.1,6.1,9,6.1,9C6,8.9,6,8.9,5.9,8.8c0,0-0.1-0.1-0.2-0.1
			c-0.1,0-0.1-0.1-0.2-0.1C5.3,8.3,5.1,8,4.9,7.7C4.9,7.5,4.8,7.4,4.8,7.2s0-0.3,0-0.5c0,0,0-0.1,0-0.1c0,0,0-0.1,0-0.1
			C5,6.5,5,6.4,5.1,6.3c0.1-0.1,0.1-0.2,0.2-0.2c0,0,0.1-0.1,0.1-0.1c0,0,0.1,0,0.1,0C5.7,6,5.9,6,6,6c0.1,0,0.1,0,0.2,0
			c0.1,0,0.2,0,0.3,0c0.1,0,0.2,0.1,0.4,0.1C7,6.2,7.1,6.3,7.2,6.4C7.2,6.4,7.1,6.4,7,6.3C7,6.3,6.9,6.3,6.8,6.2
			c-0.1,0-0.1,0-0.2-0.1c-0.1,0-0.1,0-0.2,0c0.2,0.1,0.3,0.2,0.4,0.2c0.1,0,0.3,0.1,0.4,0.2c0.1,0.1,0.2,0.2,0.3,0.2
			C7.7,6.9,7.8,7,7.9,7c0,0,0,0.1,0,0.1c0,0,0,0.1,0,0.1c0.1,0.1,0.2,0.3,0.2,0.4c0,0.2,0.1,0.3,0.1,0.5c0,0.2,0,0.3-0.1,0.5
			c0,0,0,0.1,0,0.1c0,0,0,0.1-0.1,0.1c0,0,0,0.1-0.1,0.1c0,0,0,0-0.1,0C7.9,9,7.9,9.1,7.8,9.1s-0.2,0-0.2,0C7.5,9,7.4,9,7.4,9
			c-0.1,0-0.1-0.1-0.2-0.1C7.1,8.8,7,8.7,6.9,8.6S6.7,8.3,6.7,8.2C6.6,8,6.5,7.9,6.5,7.7c0-0.1,0-0.2,0-0.2c0-0.1,0-0.1,0-0.1
			c0,0-0.1-0.1-0.1-0.1c0,0-0.1,0-0.2-0.1C6,7.2,5.9,7.1,5.8,7.1C5.7,7.1,5.6,7,5.5,7c0,0-0.1,0-0.1,0S5.4,7,5.3,7
			c0,0.1,0,0.2,0,0.2c0,0.1,0.1,0.1,0.1,0.2c0.1,0.1,0.1,0.2,0.2,0.4C5.7,7.9,5.8,8,5.9,8.2C6,8.3,6.1,8.5,6.2,8.7S6.5,9,6.6,9.1v0
			c0,0.1,0.1,0.1,0.1,0.1C6.7,9.3,6.7,9.4,6.7,9.5C6.8,9.4,6.8,9.5,6.7,9.5z M7.8,8.2C7.6,7.9,7.4,7.7,7,7.6C7.1,7.7,7.1,7.9,7.2,8
			s0.2,0.2,0.3,0.3c0,0,0,0,0,0c0,0,0,0,0.1,0C7.7,8.3,7.8,8.3,7.8,8.2z"/>
		<path d="M8.3,13.4c-0.1,0.1-0.3,0.2-0.4,0.2c-0.1,0-0.3,0-0.5-0.1c-0.2-0.1-0.4-0.2-0.6-0.3c-0.2-0.1-0.4-0.2-0.6-0.3
			c-0.2-0.1-0.3-0.1-0.5-0.2c-0.1,0-0.3-0.1-0.4-0.1c-0.1,0-0.2,0-0.3,0s-0.2,0-0.3-0.1c0,0,0,0-0.1-0.1s0,0-0.1-0.1
			c0-0.1,0.1-0.2,0.2-0.3S4.9,12,5,11.9c0.1-0.1,0.2-0.1,0.3-0.1c0.2,0,0.5,0,0.7,0c0.2,0,0.5,0.1,0.7,0.2c0.1,0,0.3,0.1,0.4,0.1
			c0.1,0,0.3,0.1,0.4,0.1c0-0.1-0.1-0.2-0.2-0.3C7.1,12,7.1,11.9,7,11.8c-0.1-0.1-0.2-0.2-0.3-0.3s-0.2-0.2-0.3-0.3
			c0,0-0.1-0.1-0.1-0.1S6.2,11,6.1,10.9c-0.1-0.1-0.2-0.2-0.3-0.3s-0.2-0.2-0.3-0.3c-0.1-0.1-0.1-0.1-0.2-0.2S5.2,10,5.2,10
			c0,0-0.1-0.1-0.1-0.1c0,0,0-0.1-0.1-0.1C4.9,9.7,4.9,9.7,4.9,9.6c0-0.1,0-0.2,0-0.2c0-0.1,0.1-0.2,0.2-0.2c0.1,0,0.2,0,0.3,0
			s0.2,0,0.3,0c0.1,0,0.1,0,0.2,0c0,0,0.1,0,0.2,0c0.1,0,0.1,0,0.2,0c0.1,0,0.1,0,0.2,0c0.1,0,0.1,0,0.2,0c0.1,0,0.1,0,0.1,0.1
			C6.8,9.3,7,9.4,7.2,9.4c0.2,0,0.4,0.1,0.6,0.1c0.1,0,0.2,0,0.3,0.1c0.1,0,0.2,0.1,0.3,0.1c-0.1,0-0.1,0-0.2,0S8,9.7,7.9,9.7
			C8,9.8,8.1,9.8,8.1,9.9C8.2,9.9,8.2,10,8.3,10c0,0,0,0,0.1,0c0.1,0.1,0.2,0.2,0.2,0.3c0,0,0,0.1,0,0.1c0,0,0,0.1,0,0.1
			c0,0.1,0,0.2,0,0.3s-0.1,0.2-0.2,0.2c-0.1,0.1-0.1,0.1-0.3,0.1c-0.2-0.1-0.4-0.1-0.6-0.2c-0.2-0.1-0.4-0.2-0.6-0.2
			c0,0-0.1,0-0.1-0.1s-0.1,0-0.1,0c0,0,0.1,0.1,0.1,0.1S6.9,10.9,7,11C7,11,7.1,11.1,7.2,11.2c0.1,0.1,0.1,0.1,0.2,0.2
			c0.2,0.1,0.3,0.3,0.4,0.5c0.1,0.2,0.2,0.3,0.4,0.5c0.1,0.2,0.2,0.3,0.2,0.5C8.4,13.1,8.4,13.2,8.3,13.4z M6.3,9.3
			c0.1,0,0.2,0.1,0.4,0.1S6.9,9.5,7,9.5c-0.1,0-0.3-0.1-0.4-0.1S6.4,9.3,6.3,9.3z M8,11.8c-0.1-0.1-0.1-0.1-0.2-0.2
			c0-0.1-0.1-0.1-0.1-0.2c0.1,0,0.1,0.1,0.2,0.2s0.2,0.2,0.2,0.3c0.1,0.1,0.1,0.2,0.2,0.4c0.1,0.1,0.1,0.2,0.1,0.4
			c0-0.1-0.1-0.1-0.1-0.2c0-0.1-0.1-0.1-0.1-0.2c0-0.1-0.1-0.1-0.1-0.2S8,11.9,8,11.8z M8,10.1c0.1,0,0.1,0,0.1,0c0,0,0.1,0,0.1,0
			c0,0,0,0,0,0s0,0,0,0c0,0-0.1,0-0.1,0S8.1,10,8,10.1L8,10.1z"/>
		<path d="M6.7,17c0,0-0.1,0-0.2-0.1c-0.1-0.1-0.2-0.1-0.3-0.3c-0.1-0.1-0.1-0.1-0.2-0.2c0-0.1-0.1-0.1-0.2-0.2c0,0-0.1-0.1-0.2-0.1
			c-0.1,0-0.1-0.1-0.2-0.1c-0.3-0.2-0.5-0.5-0.6-0.8c-0.1-0.1-0.1-0.3-0.1-0.4c0-0.2,0-0.3,0-0.5c0,0,0-0.1,0-0.1c0,0,0-0.1,0-0.1
			C5,14,5,13.9,5.1,13.8c0.1-0.1,0.1-0.2,0.2-0.2c0,0,0.1-0.1,0.1-0.1c0,0,0.1,0,0.1,0c0.2,0,0.3,0,0.5,0c0.1,0,0.1,0,0.2,0
			c0.1,0,0.2,0,0.3,0c0.1,0,0.2,0.1,0.4,0.1c0.1,0.1,0.2,0.1,0.3,0.2c-0.1,0-0.1-0.1-0.2-0.1c-0.1,0-0.1-0.1-0.2-0.1
			c-0.1,0-0.1,0-0.2-0.1c-0.1,0-0.1,0-0.2,0c0.2,0.1,0.3,0.2,0.4,0.2C7,13.9,7.1,14,7.2,14c0.1,0.1,0.2,0.2,0.3,0.2s0.2,0.2,0.3,0.2
			c0,0,0,0.1,0,0.1c0,0,0,0.1,0,0.1c0.1,0.1,0.2,0.3,0.2,0.4s0.1,0.3,0.1,0.5c0,0.2,0,0.3-0.1,0.5c0,0,0,0.1,0,0.1
			c0,0,0,0.1-0.1,0.1c0,0,0,0.1-0.1,0.1c0,0,0,0-0.1,0c-0.1,0.1-0.1,0.2-0.2,0.2s-0.2,0-0.2,0c-0.1,0-0.1-0.1-0.2-0.1
			c-0.1,0-0.1-0.1-0.2-0.1c-0.1-0.1-0.2-0.2-0.3-0.3c-0.1-0.1-0.2-0.2-0.2-0.3c-0.1-0.2-0.2-0.4-0.2-0.6c0-0.1,0-0.2,0-0.2
			c0-0.1,0-0.1,0-0.1c0,0-0.1-0.1-0.1-0.1c0,0-0.1,0-0.2-0.1c-0.1,0-0.2-0.1-0.3-0.1c-0.1,0-0.2-0.1-0.3-0.1c0,0-0.1,0-0.1,0
			s-0.1,0-0.1,0c0,0.1,0,0.2,0,0.2c0,0.1,0.1,0.1,0.1,0.2c0.1,0.1,0.1,0.2,0.2,0.4c0.1,0.1,0.1,0.2,0.2,0.4C6,15.8,6.1,16,6.2,16.2
			c0.1,0.2,0.3,0.3,0.4,0.5v0c0,0.1,0.1,0.1,0.1,0.1C6.7,16.8,6.7,16.9,6.7,17C6.8,16.9,6.8,17,6.7,17z M7.8,15.7
			c-0.2-0.3-0.5-0.5-0.8-0.6c0.1,0.1,0.2,0.3,0.2,0.4c0.1,0.1,0.2,0.2,0.3,0.3c0,0,0,0,0,0c0,0,0,0,0.1,0
			C7.7,15.8,7.8,15.8,7.8,15.7z"/>
		<path d="M5.7,19c0,0.1,0,0.1,0,0.1c0,0,0,0.1-0.1,0c0,0-0.1,0-0.1,0c0,0,0,0-0.1,0c-0.1,0-0.2,0-0.3-0.1c0,0,0,0,0,0
			c0,0,0,0,0,0.1C5,19.1,4.9,19,4.7,19c-0.2-0.1-0.3-0.1-0.4-0.2c0,0-0.1,0-0.1-0.1c0,0,0-0.1-0.1-0.1c0,0,0-0.1,0-0.1
			c0,0,0,0,0-0.1c-0.1-0.1-0.2-0.1-0.2-0.2c0,0-0.1-0.1-0.1-0.2c0-0.1-0.1-0.1-0.1-0.2c0,0,0-0.1-0.1-0.1c0,0-0.1-0.1-0.1-0.1
			c0,0-0.1-0.1-0.1-0.1s0-0.1,0-0.2c0,0,0,0,0-0.1c0,0,0-0.1,0-0.1c0-0.1-0.1-0.2,0-0.2c0,0,0.1,0,0.1,0.1c0,0,0,0.1,0,0.1
			c0,0,0,0.1,0.1,0.1c0,0,0,0.1,0.1,0.1c0,0,0,0.1,0.1,0.1c0,0,0.1,0.1,0.1,0.1c0,0,0-0.1,0-0.1c0,0,0,0,0-0.1
			c-0.1-0.1-0.1-0.2-0.2-0.3c0-0.1-0.1-0.2-0.1-0.3c-0.1-0.2-0.1-0.4-0.1-0.6s0.1-0.3,0.2-0.5c0-0.1,0.1-0.1,0.2-0.2
			c0.1-0.1,0.1-0.1,0.2-0.2h0.1c0.2,0,0.3,0,0.5,0.1c0.1,0.1,0.3,0.2,0.4,0.3C5,16,5.1,16.2,5.3,16.4c0.2,0.2,0.3,0.5,0.5,0.7
			c0,0.1,0,0.1,0.1,0.2c0,0,0,0.1,0,0.1c0,0.1,0,0.1-0.1,0.1c-0.1,0-0.2,0-0.3,0c-0.1-0.1-0.2-0.1-0.2-0.2S5.1,17.2,5,17.2
			c-0.2-0.2-0.3-0.3-0.5-0.4S4.2,16.5,4,16.4c0,0-0.1,0-0.1,0c0,0-0.1,0-0.1,0c0,0.1,0.1,0.2,0.1,0.3c0,0.1,0.1,0.2,0.2,0.3
			c0,0,0,0,0.1,0.1c0,0,0,0.1,0.1,0.1c0.2,0.2,0.3,0.4,0.5,0.5C5,17.8,5.2,17.9,5.4,18c0.1,0,0.2,0.1,0.2,0.1c0.1,0,0.2,0,0.2,0
			c0,0,0.1,0,0.1,0c0,0,0.1,0,0.1,0C6.1,18,6.2,18,6.2,17.9c0,0,0-0.1,0-0.1s0-0.1,0-0.1c0-0.1,0-0.2,0.1-0.4c0-0.1,0.1-0.2,0.2-0.3
			c0.1-0.2,0.2-0.2,0.3-0.3c0.1,0,0.2,0,0.3,0c0.1,0,0.2,0.1,0.3,0.2s0.2,0.1,0.3,0.2c0,0,0,0,0,0c0,0-0.1,0-0.1,0c0,0,0,0-0.1,0
			c0,0,0.1,0.1,0.1,0.1c0,0,0.1,0.1,0.1,0.1c0.1,0.1,0.2,0.1,0.3,0.2c0.1,0.1,0.1,0.2,0.2,0.3c0.1,0.1,0.1,0.3,0.2,0.4
			c0,0,0,0.1,0,0.1s0,0.1,0,0.1c0.1,0.3,0,0.5-0.1,0.7c0,0,0,0,0,0s0,0,0,0c0,0-0.1,0-0.1,0.1c0,0-0.1,0-0.1,0.1
			c-0.2,0-0.3-0.1-0.5-0.2c-0.1-0.1-0.3-0.3-0.4-0.4C7.1,18.7,7,18.6,7,18.4c0-0.1,0-0.1,0-0.2c0,0,0-0.1,0.1-0.2c0,0,0.1,0,0.1,0
			s0,0,0.1,0.1c0,0.1,0.1,0.1,0.2,0.2c0.1,0.1,0.1,0.1,0.2,0.2c0.1,0.1,0.2,0.1,0.3,0.2c0,0,0,0,0.1,0s0,0,0.1,0c0,0,0-0.1,0-0.1
			c0-0.1-0.1-0.1-0.1-0.2c0,0,0-0.1-0.1-0.1c-0.1-0.2-0.3-0.3-0.4-0.4c-0.1-0.1-0.3-0.3-0.5-0.3c0,0-0.1,0-0.1,0s-0.1,0-0.1,0
			c0,0,0,0.1,0,0.2c0,0.1,0,0.1,0,0.2c0,0.4-0.2,0.7-0.3,0.9C6.1,18.9,5.9,19,5.7,19z"/>
		<path d="M4.9,19.8c0-0.1,0.1-0.1,0.3-0.2s0.3-0.1,0.5-0.1c0,0,0.1,0,0.1,0s0.1,0,0.1,0c0.1,0,0.3,0.1,0.4,0.1s0.2,0.1,0.4,0.1
			c0.2,0.1,0.4,0.1,0.6,0.2C7.4,20,7.5,20,7.7,20.1c0,0,0,0,0.1,0s0,0,0.1,0c0,0.2,0,0.3,0,0.4c0,0.1-0.1,0.3-0.2,0.4
			c0,0-0.1,0-0.1,0s-0.1,0-0.1,0c-0.1,0-0.1,0-0.2,0c-0.1,0-0.1,0-0.2,0c0,0-0.1,0-0.1,0c0,0,0,0,0,0h0c0,0,0,0,0,0
			c0.1,0,0.2,0.1,0.3,0.1c0.1,0,0.1,0,0.2,0.1c0.1,0,0.1,0,0.1,0c0,0,0,0-0.1,0c-0.1,0-0.1,0-0.2-0.1c-0.1,0-0.2,0-0.2-0.1
			c-0.1,0-0.1,0-0.1,0s0,0,0,0c0,0,0.1,0,0.1,0c0,0,0.1,0,0.1,0.1c0,0,0,0,0,0c0,0-0.1,0-0.2-0.1s-0.3-0.1-0.4-0.2
			c-0.2-0.1-0.4-0.2-0.6-0.2c-0.1,0-0.2-0.1-0.3-0.1c-0.1,0-0.2,0-0.2,0c-0.1,0-0.1,0-0.1,0c0,0,0,0,0,0c0,0,0,0,0,0
			c0,0,0.1,0,0.1,0c0,0,0.1,0,0.1,0.1H5.4c0,0,0,0.1,0,0.1c0.2,0.3,0.5,0.6,0.8,0.8c0.1,0.1,0.2,0.1,0.2,0.2
			c0.1,0.1,0.1,0.1,0.2,0.2c0,0,0,0,0,0.1s0,0.1,0,0.1c0,0,0,0-0.1,0c0,0-0.1,0-0.2-0.1s-0.1,0-0.2-0.1s-0.1,0-0.1-0.1
			c0,0-0.1-0.1-0.2-0.2s-0.2-0.2-0.3-0.3c-0.1-0.1-0.3-0.3-0.5-0.4L5,20.8c0-0.1-0.1-0.1-0.1-0.2c0-0.1-0.1-0.1-0.1-0.1
			c0-0.1,0-0.2,0-0.3C4.8,20,4.8,19.9,4.9,19.8z M8.8,20.4c0,0.1,0,0.1,0,0.2s0,0.1,0,0.1c0,0.2,0,0.3-0.1,0.4
			c-0.1,0.1-0.1,0.1-0.2,0.1c-0.1,0-0.2-0.1-0.3-0.2c-0.1-0.1-0.1-0.2,0-0.3c0-0.1,0-0.2,0.1-0.3c0-0.1,0-0.1,0.1-0.2s0.1,0,0.2,0
			C8.6,20.3,8.7,20.3,8.8,20.4z"/>
		<path d="M5.7,24.1c0,0.1,0,0.1,0,0.1c0,0,0,0.1-0.1,0c0,0-0.1,0-0.1,0c0,0,0,0-0.1,0c-0.1,0-0.2,0-0.3-0.1c0,0,0,0,0,0
			c0,0,0,0,0,0.1C5,24.2,4.9,24.1,4.7,24c-0.2-0.1-0.3-0.1-0.4-0.2c0,0-0.1,0-0.1-0.1c0,0,0-0.1-0.1-0.1c0,0,0-0.1,0-0.1
			c0,0,0,0,0-0.1c-0.1-0.1-0.2-0.1-0.2-0.2c0,0-0.1-0.1-0.1-0.2c0-0.1-0.1-0.1-0.1-0.2c0,0,0-0.1-0.1-0.1c0,0-0.1-0.1-0.1-0.1
			c0,0-0.1-0.1-0.1-0.1s0-0.1,0-0.2c0,0,0,0,0-0.1c0,0,0-0.1,0-0.1c0-0.1-0.1-0.2,0-0.2c0,0,0.1,0,0.1,0.1c0,0,0,0.1,0,0.1
			c0,0,0,0.1,0.1,0.1c0,0,0,0.1,0.1,0.1c0,0,0,0.1,0.1,0.1c0,0,0.1,0.1,0.1,0.1c0,0,0-0.1,0-0.1c0,0,0,0,0-0.1
			c-0.1-0.1-0.1-0.2-0.2-0.3c0-0.1-0.1-0.2-0.1-0.3c-0.1-0.2-0.1-0.4-0.1-0.6s0.1-0.3,0.2-0.5c0-0.1,0.1-0.1,0.2-0.2
			c0.1-0.1,0.1-0.1,0.2-0.2h0.1c0.2,0,0.3,0,0.5,0.1c0.1,0.1,0.3,0.2,0.4,0.3c0.2,0.2,0.4,0.4,0.6,0.6c0.2,0.2,0.3,0.5,0.5,0.7
			c0,0.1,0,0.1,0.1,0.2c0,0,0,0.1,0,0.1c0,0.1,0,0.1-0.1,0.1c-0.1,0-0.2,0-0.3,0c-0.1-0.1-0.2-0.1-0.2-0.2S5.1,22.3,5,22.2
			c-0.2-0.2-0.3-0.3-0.5-0.4S4.2,21.6,4,21.5c0,0-0.1,0-0.1,0c0,0-0.1,0-0.1,0c0,0.1,0.1,0.2,0.1,0.3C4,21.9,4.1,22,4.2,22
			c0,0,0,0,0.1,0.1c0,0,0,0.1,0.1,0.1c0.2,0.2,0.3,0.4,0.5,0.5C5,22.8,5.2,23,5.4,23c0.1,0,0.2,0.1,0.2,0.1c0.1,0,0.2,0,0.2,0
			c0,0,0.1,0,0.1,0c0,0,0.1,0,0.1,0c0.1-0.1,0.1-0.1,0.1-0.2c0,0,0-0.1,0-0.1s0-0.1,0-0.1c0-0.1,0-0.2,0.1-0.4
			c0-0.1,0.1-0.2,0.2-0.3c0.1-0.2,0.2-0.2,0.3-0.3c0.1,0,0.2,0,0.3,0c0.1,0,0.2,0.1,0.3,0.2s0.2,0.1,0.3,0.2c0,0,0,0,0,0
			c0,0-0.1,0-0.1,0c0,0,0,0-0.1,0c0,0,0.1,0.1,0.1,0.1c0,0,0.1,0.1,0.1,0.1c0.1,0.1,0.2,0.1,0.3,0.2c0.1,0.1,0.1,0.2,0.2,0.3
			c0.1,0.1,0.1,0.3,0.2,0.4c0,0,0,0.1,0,0.1s0,0.1,0,0.1c0.1,0.3,0,0.5-0.1,0.7c0,0,0,0,0,0s0,0,0,0c0,0-0.1,0-0.1,0.1
			c0,0-0.1,0-0.1,0.1c-0.2,0-0.3-0.1-0.5-0.2c-0.1-0.1-0.3-0.3-0.4-0.4C7.1,23.7,7,23.6,7,23.5c0-0.1,0-0.1,0-0.2c0,0,0-0.1,0.1-0.2
			c0,0,0.1,0,0.1,0s0,0,0.1,0.1c0,0.1,0.1,0.1,0.2,0.2c0.1,0.1,0.1,0.1,0.2,0.2c0.1,0.1,0.2,0.1,0.3,0.2c0,0,0,0,0.1,0s0,0,0.1,0
			c0,0,0-0.1,0-0.1c0-0.1-0.1-0.1-0.1-0.2c0,0,0-0.1-0.1-0.1c-0.1-0.2-0.3-0.3-0.4-0.4c-0.1-0.1-0.3-0.3-0.5-0.3c0,0-0.1,0-0.1,0
			s-0.1,0-0.1,0c0,0,0,0.1,0,0.2c0,0.1,0,0.1,0,0.2c0,0.4-0.2,0.7-0.3,0.9C6.1,24,5.9,24.1,5.7,24.1z"/>
	</g>
</g>
</svg>
