<?xml version="1.0" encoding="utf-8"?>
<!-- Generator: Adobe Illustrator 27.7.0, SVG Export Plug-In . SVG Version: 6.00 Build 0)  -->
<svg version="1.1" id="Layer_2_00000173844660663204224310000008452958761579080873_"
	 xmlns="http://www.w3.org/2000/svg" xmlns:xlink="http://www.w3.org/1999/xlink" x="0px" y="0px" viewBox="0 0 13.1 27.4"
	 style="enable-background:new 0 0 13.1 27.4;" xml:space="preserve">
<style type="text/css">
	.st0{enable-background:new    ;}
</style>
<g id="Layer_1-2">
	<g class="st0">
		<path d="M12.1,6.7c0,0.1,0,0.2,0,0.3s0,0.3,0,0.4c0,0.1,0,0.2-0.1,0.3c0,0.1-0.1,0.1-0.2,0.1c-0.3-0.1-0.5-0.2-0.8-0.3
			s-0.5-0.2-0.8-0.2C10,7.2,9.7,7.1,9.5,7.1S9,6.9,8.7,6.9C8.1,6.7,7.5,6.5,6.9,6.4C6.3,6.2,5.7,6,5.1,5.9C5,5.9,4.8,5.8,4.7,5.8
			S4.3,5.7,4.2,5.7c-0.2,0-0.3,0-0.5,0c-0.2,0-0.3,0.1-0.3,0.2C3.3,5.8,3.2,5.6,3.2,5.5c0-0.1,0-0.3,0.1-0.4C3.4,5,3.4,5,3.5,4.9
			c0.1-0.1,0.2-0.1,0.3-0.1c0.2,0,0.5,0,0.7,0c0.2,0,0.5,0.1,0.7,0.1c0.1,0,0.2,0,0.3,0.1c0.1,0,0.2,0,0.3-0.1c0,0,0,0,0.1,0
			c0,0,0.1,0,0.1,0C6.3,4.9,6.6,4.9,6.8,5C7,5,7.3,5.1,7.5,5.1c0.1,0,0.2,0,0.3,0c0,0,0-0.1,0-0.1c0,0,0-0.1,0-0.1
			c0-0.4-0.1-0.7-0.1-1s-0.1-0.7-0.2-1c0-0.1,0-0.2-0.1-0.3S7.4,2.4,7.4,2.3c0-0.1-0.1-0.2-0.3-0.3C7.1,2,7,2,6.9,2
			c-0.1,0-0.2,0-0.3-0.1C6.3,1.8,6,1.7,5.6,1.6C5.3,1.5,5,1.4,4.6,1.3c0,0-0.1,0-0.1,0c-0.1,0-0.1,0-0.2,0S4.3,1.2,4.3,1.1
			c0-0.1,0-0.1,0-0.2s0.1-0.1,0.1-0.1c0.1-0.1,0.3-0.2,0.5-0.2s0.3-0.1,0.5,0c0.1,0,0.3,0,0.4,0.1s0.3,0.1,0.4,0.1
			c0.1,0,0.2,0,0.2,0.1c0.1,0,0.2,0,0.3,0.1C6.7,0.7,6.7,0.6,6.7,0.4c0-0.1,0.1-0.2,0.3-0.3C7.2,0,7.3,0,7.5,0.2
			c0.1,0.1,0.1,0.2,0.2,0.3s0.1,0.2,0.2,0.3C7.9,1,8,1,8.1,1.1c0.4,0.1,0.8,0.2,1.1,0.3s0.8,0.2,1.1,0.3c0.1,0,0.1,0,0.2,0.1
			c0.1,0,0.1,0.1,0.2,0.1c0.2,0,0.3,0,0.5,0s0.3,0.1,0.5,0.2c-0.1,0-0.2,0-0.2,0c-0.1,0-0.2,0-0.2,0c0.1,0.1,0.2,0.1,0.3,0.2
			c0.1,0.1,0.2,0.1,0.3,0.1c0.1,0,0.2,0,0.2,0.1c0.1,0,0.1,0.1,0.2,0.1c0.1,0,0.1,0.1,0.1,0.3c0,0.2,0,0.3,0,0.5s0,0.3-0.1,0.4
			s-0.1,0.2-0.2,0.2c-0.1-0.1-0.3-0.1-0.6-0.2c-0.2-0.1-0.5-0.2-0.7-0.3s-0.5-0.2-0.7-0.3C9.9,3,9.7,2.9,9.6,2.9
			C9.4,2.8,9.2,2.8,9,2.7C8.9,2.6,8.7,2.6,8.5,2.5c0,0.2,0.1,0.3,0.1,0.5c0,0.2,0.1,0.3,0.1,0.5v0c0,0,0,0.1,0,0.1c0,0,0,0.1,0,0.1
			c0,0.2,0,0.3,0,0.5c0,0.2,0,0.3,0,0.5c0,0.1,0,0.3-0.1,0.4c-0.1,0.1-0.1,0.2,0,0.3s0.1,0.1,0.3,0.1c0.2,0,0.3,0.1,0.5,0.1
			c0.2,0,0.3,0.1,0.5,0.1c0,0,0.1,0,0.1,0c0,0,0.1,0,0.2,0.1c-0.2,0-0.5-0.1-0.7-0.1c-0.2,0-0.5-0.1-0.7-0.1l0,0.1c0,0,0.1,0,0.1,0
			c0,0,0.1,0,0.1,0c0.1,0,0.3,0.1,0.4,0.1c0.1,0,0.3,0.1,0.4,0.1c0.3,0.1,0.6,0.1,0.9,0.2s0.6,0.2,0.9,0.2c0.1,0,0.1,0,0.2,0
			c0.1,0,0.1,0,0.2,0C12,6.4,12.1,6.5,12.1,6.7z M6.3,5c0.2,0.1,0.5,0.1,0.7,0.2s0.5,0.1,0.8,0.2C7.8,5.3,7.7,5.2,7.6,5.2
			c-0.1,0-0.2,0-0.3-0.1c-0.1,0-0.2-0.1-0.3-0.1c-0.1,0-0.2,0-0.3,0c-0.1,0-0.2,0-0.2,0S6.4,5,6.3,5z M8.7,3.5
			c0,0.1,0.1,0.3,0.1,0.4c0,0.1,0.1,0.3,0.1,0.4C8.8,4.2,8.8,4,8.8,3.9S8.7,3.6,8.7,3.5z M8.9,4.4C8.9,4.4,8.9,4.4,8.9,4.4
			C8.9,4.4,8.9,4.3,8.9,4.4C8.9,4.3,8.9,4.3,8.9,4.4C8.9,4.3,8.9,4.3,8.9,4.4C8.9,4.3,8.9,4.3,8.9,4.4C8.9,4.3,8.9,4.4,8.9,4.4z
			 M9.1,5.2L9.1,5.2C9,5.1,9,5,9,4.8c0-0.1,0-0.3,0-0.4C8.9,4.5,9,4.6,9,4.8C9,4.9,9.1,5,9.1,5.2z M9.5,1.7c0.1,0,0.2,0.1,0.3,0.1
			s0.2,0.1,0.3,0.1c0,0,0-0.1,0-0.1c-0.1,0-0.2-0.1-0.3-0.1S9.7,1.7,9.5,1.7C9.5,1.6,9.5,1.7,9.5,1.7z"/>
		<path d="M6.7,11.8c0,0,0,0.1-0.1,0.1c-0.1,0-0.1,0-0.2,0c0,0-0.1-0.1-0.3-0.2c-0.1-0.1-0.3-0.2-0.5-0.4c-0.2-0.1-0.3-0.3-0.5-0.4
			C5.1,10.8,5,10.7,5,10.6c0-0.1-0.1-0.2-0.1-0.3c0-0.1,0-0.2,0-0.3c0-0.1,0-0.2,0.1-0.2C4.9,9.7,5,9.7,5,9.6c0.1,0,0.1-0.1,0.2-0.1
			c0.1,0,0.2,0,0.3-0.1c0.1,0,0.2,0,0.3,0L5.6,9.1c0,0,0-0.1,0-0.1c0,0,0-0.1,0-0.1C5.4,8.8,5.3,8.7,5.3,8.6c0-0.1-0.1-0.2-0.1-0.3
			c0-0.1,0-0.2,0-0.4c0-0.1,0.1-0.2,0.2-0.3c0.1-0.1,0.1-0.2,0.2-0.3c0.1-0.1,0.2-0.1,0.3-0.1c0.2,0,0.3,0,0.5,0s0.3,0,0.5,0
			c0.3,0.1,0.5,0.2,0.7,0.4c0,0,0.1,0.1,0.1,0.1c0,0,0,0,0.1,0.1s0,0,0.1,0.1c0,0,0,0,0,0c0,0,0,0,0,0c0,0-0.1,0-0.1-0.1
			c0,0,0,0,0,0.1c0,0,0,0,0,0c0,0,0.1,0.1,0.1,0.1C7.8,8,7.9,8,7.9,8c0,0,0,0.1,0,0.1c0,0,0,0-0.1,0c0,0,0-0.1-0.1-0.1c0,0,0,0,0,0
			v0c0,0,0.1,0.1,0.1,0.1c0,0,0.1,0,0.1,0C8,8.1,8,8,8,7.9C8,8,8.1,8,8.1,8.1c0,0.1,0,0.2,0,0.3s0,0.2,0,0.3c0,0,0,0.1,0,0.1
			c0,0,0,0,0,0.1c0,0,0,0,0,0c0,0,0,0,0,0c0,0,0-0.1,0-0.1s0-0.1,0-0.1s0-0.1,0-0.1c0,0,0,0,0,0c0,0,0,0,0,0v0.1c0,0,0,0.1,0,0.2
			c0,0.1,0,0.2-0.1,0.3c0,0.1-0.1,0.2-0.1,0.3c0,0.1-0.1,0.2-0.2,0.2c0,0.1,0,0.1,0.1,0.1c0,0,0.1,0.1,0.2,0.1c0,0,0.1,0,0.1,0.1
			S8,10,8.1,10c0,0,0,0,0,0c0,0,0,0,0,0c0,0.1,0.1,0.2,0,0.3c0,0.1-0.1,0.2-0.2,0.3c0,0-0.1,0.1-0.1,0.1c0.1,0,0.1,0.1,0.2,0.1
			c0.1,0,0.1,0,0.2,0.1c0,0,0,0,0,0c0,0,0,0,0,0c-0.1,0-0.3-0.1-0.4-0.1c-0.1,0-0.2-0.1-0.4-0.1c-0.2-0.1-0.3-0.1-0.5-0.2
			c-0.2-0.1-0.3-0.1-0.5-0.2c-0.1,0-0.2-0.1-0.3-0.1c-0.1,0-0.2,0-0.3-0.1s-0.2,0-0.2,0c-0.1,0-0.1,0-0.1,0c0.1,0,0.1,0,0.2,0.1
			c0.1,0,0.1,0,0.2,0.1c0,0,0.1,0,0.1,0c0,0,0.1,0,0.1,0c0,0,0,0,0,0c0,0,0,0,0,0h0l0.1,0.1c0.1,0,0.1,0.1,0.1,0.1c0,0,0,0-0.1,0
			s-0.1-0.1-0.2-0.1c0,0,0,0-0.1,0c0,0,0,0-0.1,0c-0.1,0-0.1,0-0.2,0s-0.1,0-0.1,0c-0.1,0-0.1,0,0,0.1C5.7,10.7,5.8,10.8,6,11
			c0.1,0.1,0.2,0.3,0.4,0.4s0.2,0.2,0.3,0.3S6.7,11.8,6.7,11.8z M7.1,9.3c0,0,0.1,0.1,0.1,0.1s0.1,0.1,0.1,0.1c0,0,0.1-0.1,0.1-0.1
			c0.1-0.1,0.1-0.3,0-0.4C7.3,8.9,7.2,8.9,7.1,8.8C7.1,8.7,7,8.6,6.9,8.6C6.7,8.2,6.4,8,6,8c0,0-0.1,0-0.1,0c0,0.1,0.1,0.2,0.2,0.3
			C6.3,8.7,6.7,9,7.1,9.3z"/>
		<path d="M6.6,16.5c0,0,0,0-0.1-0.1c0-0.1-0.1-0.1-0.1-0.1c0,0-0.1,0-0.1,0c0,0,0,0-0.1,0c0,0,0,0-0.1-0.1c0,0,0-0.1-0.1-0.1
			c0,0,0-0.1-0.1-0.1C6.1,16,6,15.9,6,15.9c0,0,0,0-0.1-0.1c0,0,0-0.1-0.1-0.1c0,0,0-0.1-0.1-0.1c0,0,0,0,0,0s0,0,0,0.1
			c0,0,0.1,0.1,0.1,0.2c0,0.1,0.1,0.1,0.1,0.1c0,0,0,0.1,0,0.1c0,0-0.1-0.1-0.2-0.2c-0.1-0.1-0.2-0.2-0.3-0.4
			c-0.1-0.1-0.2-0.3-0.3-0.4c-0.1-0.1-0.2-0.2-0.3-0.2c-0.1,0-0.3-0.1-0.4-0.1c-0.1,0-0.3-0.1-0.4-0.1c-0.2,0-0.4-0.1-0.6-0.2
			s-0.4-0.1-0.6-0.2c-0.1,0-0.1,0-0.2-0.1c-0.1,0-0.2-0.1-0.3-0.1h0.2c0.1,0,0.1,0,0.2,0.1c0.1,0,0.1,0,0.2,0c0,0,0-0.1-0.1-0.1
			c0,0-0.1,0-0.1,0c-0.2-0.1-0.3-0.1-0.5-0.2c-0.2-0.1-0.3-0.1-0.5-0.2c-0.1-0.1-0.3-0.1-0.4-0.2c-0.1-0.1-0.3-0.1-0.4-0.3
			c0,0,0,0,0-0.1s0,0,0-0.1C1,13,0.9,12.9,0.9,12.9c-0.1-0.1-0.1-0.1-0.2-0.2c-0.1-0.1-0.2-0.2-0.3-0.3s-0.2-0.2-0.2-0.3
			C0.1,12.1,0,12,0,11.9c0-0.1,0-0.2,0-0.3c0,0,0-0.1,0-0.1c0,0,0,0,0,0c0,0,0,0,0,0c0.1-0.2,0.2-0.3,0.3-0.4
			c0.1-0.1,0.2-0.2,0.4-0.2c0.2-0.1,0.3-0.1,0.5,0c0.1,0,0.2,0.1,0.3,0.1c0.1,0,0.2,0,0.2,0s0.1,0.1,0.2,0.1
			c0.3,0.2,0.6,0.4,0.9,0.6s0.6,0.5,0.8,0.8c0.1,0.1,0.1,0.1,0.2,0.2C3.9,12.6,4,12.7,4,12.8c0.1,0.1,0.2,0.2,0.2,0.3
			c0.1,0.1,0.2,0.2,0.2,0.3c0.1,0.1,0.2,0.2,0.3,0.3c0.1,0,0.3,0.1,0.4,0.1c0.1,0,0.2,0.1,0.4,0.1c0,0,0,0,0.1,0s0,0,0.1,0
			c0,0,0-0.1,0-0.1c0,0,0,0-0.1,0c0,0,0,0,0-0.1s0,0,0-0.1c0,0-0.1-0.1-0.1-0.1c-0.1-0.1-0.2-0.3-0.3-0.4C5,12.9,5,12.7,5,12.5
			c0-0.2,0-0.3,0.1-0.4c0.1-0.1,0.2-0.2,0.3-0.3c0,0,0.1,0,0.1-0.1c0,0,0.1,0,0.1-0.1c0.1,0,0.1,0,0.2,0c0.1,0,0.1,0,0.2,0
			c0.1,0,0.1,0,0.2,0c0,0,0,0,0,0c0,0,0,0,0,0c0,0,0.1,0,0.2,0.1c0.1,0,0.3,0.1,0.4,0.1s0.2,0.1,0.3,0.1C7.3,12,7.3,12,7.3,12
			c0,0-0.1,0-0.1,0s-0.2,0-0.3,0c-0.1,0-0.2,0-0.3,0c-0.1,0-0.1,0-0.2,0c0,0,0,0,0.1,0c0.1,0,0.1,0,0.2,0c0.1,0,0.1,0,0.2,0
			c0,0,0.1,0,0.1,0c0.2,0.1,0.4,0.2,0.5,0.3c0.1,0.1,0.2,0.3,0.3,0.4c0,0,0.1,0.1,0.1,0.1c0,0.1,0.1,0.1,0.1,0.2S8,13.2,8,13.3
			c0,0.1,0,0.1,0,0.1s0,0-0.1-0.1c0-0.1-0.1-0.2-0.2-0.3c0,0,0,0,0,0c0,0,0,0.1,0,0.1c0.1,0.3,0.1,0.6,0,0.9c0,0.1-0.1,0.2-0.1,0.3
			s0,0.2,0.1,0.3c0,0,0,0.1,0,0.1s0,0,0,0.1c-0.1,0.1-0.1,0.2-0.3,0.2c-0.2,0-0.4,0-0.6,0c-0.2,0-0.4,0-0.6,0c-0.1,0-0.3,0-0.4-0.1
			c-0.1,0-0.3-0.1-0.4-0.1c0,0,0,0-0.1,0s-0.1,0-0.1,0c0.1,0.1,0.1,0.1,0.2,0.1c0.1,0,0.1,0,0.2,0.1c0.1,0,0.1,0,0.2,0
			C6,15,6.1,15,6.2,15c-0.1,0-0.2,0-0.3,0c-0.1,0-0.2,0-0.2,0c0.1,0.1,0.2,0.2,0.3,0.4c0.1,0.1,0.2,0.3,0.3,0.4
			c0.1,0.1,0.2,0.3,0.3,0.4c0.1,0.1,0.1,0.2,0.1,0.2L6.6,16.5C6.6,16.5,6.6,16.5,6.6,16.5z M3.3,13c0.1,0,0.1,0.1,0.2,0.1
			s0.2,0.1,0.2,0.1c0,0,0,0,0.1,0c0,0,0,0,0.1,0c0-0.1,0-0.1-0.1-0.1c0,0-0.1-0.1-0.1-0.1c-0.2-0.2-0.4-0.4-0.6-0.6
			c-0.2-0.2-0.5-0.4-0.7-0.6c-0.3-0.3-0.7-0.4-1.1-0.5c-0.1,0-0.2,0-0.3,0s-0.2,0.1-0.3,0.1c0,0,0.1,0.1,0.1,0.1
			c0,0,0.1,0.1,0.1,0.1c0.2,0.1,0.3,0.2,0.5,0.3c0.1,0.1,0.3,0.2,0.5,0.3c0.2,0.1,0.5,0.3,0.7,0.4S3,12.9,3.3,13z M1.3,13.2
			c0,0.1,0.1,0.1,0.1,0.1c0,0,0.1,0,0.2,0c-0.1,0-0.1-0.1-0.1-0.1C1.4,13.2,1.3,13.2,1.3,13.2z M4.3,14.6
			C4.3,14.6,4.3,14.6,4.3,14.6c0.1,0,0.1,0,0.1-0.1c-0.2-0.1-0.4-0.1-0.6-0.2s-0.4-0.1-0.6-0.2c0,0,0,0,0,0c0,0,0,0,0,0
			c0,0,0,0.1,0.1,0.1c0.1,0,0.2,0.1,0.3,0.1c0.1,0,0.2,0.1,0.3,0.1c0.1,0,0.2,0,0.3,0.1C4.1,14.5,4.2,14.5,4.3,14.6z M6.9,13.9
			C7,14,7.1,14,7.2,14c0.1,0,0.1,0,0.2-0.1c0-0.1,0-0.1-0.1-0.2c0-0.1,0-0.1-0.1-0.2c0-0.1-0.1-0.2-0.1-0.2C7,13.2,6.7,13,6.5,12.8
			c-0.2-0.2-0.5-0.3-0.8-0.4c0,0,0,0,0,0c0,0,0,0,0,0c0,0.1,0,0.2,0.1,0.3c0,0.1,0.1,0.2,0.2,0.3c0.2,0.2,0.3,0.3,0.5,0.5
			C6.6,13.6,6.8,13.8,6.9,13.9z"/>
		<path d="M6.6,20.9c0,0,0,0-0.1-0.1c0-0.1-0.1-0.1-0.1-0.1c0,0-0.1,0-0.1,0c0,0,0,0-0.1,0c0,0,0,0-0.1-0.1c0,0,0-0.1-0.1-0.1
			c0,0,0-0.1-0.1-0.1c0-0.1-0.1-0.1-0.1-0.1c0,0,0,0-0.1-0.1c0,0,0-0.1-0.1-0.1c0,0,0-0.1-0.1-0.1s0,0,0,0c0,0,0,0,0,0.1
			c0,0,0.1,0.1,0.1,0.2c0,0.1,0.1,0.1,0.1,0.1c0,0,0,0.1,0,0.1c0,0-0.1-0.1-0.2-0.2s-0.2-0.2-0.3-0.4c-0.1-0.1-0.2-0.3-0.3-0.4
			c-0.1-0.1-0.2-0.2-0.3-0.2c-0.1,0-0.3-0.1-0.4-0.1s-0.3-0.1-0.4-0.1c-0.2,0-0.4-0.1-0.6-0.2c-0.2-0.1-0.4-0.1-0.6-0.2
			c-0.1,0-0.1,0-0.2-0.1c-0.1,0-0.2-0.1-0.3-0.1h0.2c0.1,0,0.1,0,0.2,0.1c0.1,0,0.1,0,0.2,0c0,0,0-0.1-0.1-0.1c0,0-0.1,0-0.1,0
			c-0.2-0.1-0.3-0.1-0.5-0.2C2.2,18.1,2,18,1.8,18c-0.1-0.1-0.3-0.1-0.4-0.2S1.2,17.7,1,17.6c0,0,0,0,0-0.1c0,0,0,0,0-0.1
			c-0.1-0.1-0.1-0.1-0.2-0.2c-0.1-0.1-0.1-0.1-0.2-0.2c-0.1-0.1-0.2-0.2-0.3-0.3c-0.1-0.1-0.2-0.2-0.2-0.3c0-0.1-0.1-0.2-0.1-0.2
			c0-0.1,0-0.2,0-0.3c0,0,0-0.1,0-0.1c0,0,0,0,0,0c0,0,0,0,0,0c0.1-0.2,0.2-0.3,0.3-0.4c0.1-0.1,0.2-0.2,0.4-0.2
			c0.2-0.1,0.3-0.1,0.5,0c0.1,0,0.2,0.1,0.3,0.1c0.1,0,0.2,0,0.2,0c0.1,0,0.1,0.1,0.2,0.1c0.3,0.2,0.6,0.4,0.9,0.6
			c0.3,0.2,0.6,0.5,0.8,0.8c0.1,0.1,0.1,0.1,0.2,0.2C3.9,17,4,17.1,4,17.1c0.1,0.1,0.2,0.2,0.2,0.3s0.2,0.2,0.2,0.3
			c0.1,0.1,0.2,0.2,0.3,0.3C4.9,18,5,18,5.2,18s0.2,0.1,0.4,0.1c0,0,0,0,0.1,0s0,0,0.1,0c0,0,0-0.1,0-0.1c0,0,0,0-0.1,0
			c0,0,0,0,0-0.1c0,0,0,0,0-0.1c0,0-0.1-0.1-0.1-0.1c-0.1-0.1-0.2-0.3-0.3-0.4C5,17.2,5,17.1,5,16.9c0-0.2,0-0.3,0.1-0.4
			c0.1-0.1,0.2-0.2,0.3-0.3c0,0,0.1,0,0.1-0.1c0,0,0.1,0,0.1-0.1c0.1,0,0.1,0,0.2,0c0.1,0,0.1,0,0.2,0c0.1,0,0.1,0,0.2,0
			c0,0,0,0,0,0c0,0,0,0,0,0c0,0,0.1,0,0.2,0.1c0.1,0,0.3,0.1,0.4,0.1s0.2,0.1,0.3,0.1c0.1,0,0.1,0.1,0.1,0.1c0,0-0.1,0-0.1,0
			c-0.1,0-0.2,0-0.3,0c-0.1,0-0.2,0-0.3,0c-0.1,0-0.1,0-0.2,0c0,0,0,0,0.1,0s0.1,0,0.2,0s0.1,0,0.2,0s0.1,0,0.1,0
			c0.2,0.1,0.4,0.2,0.5,0.3c0.1,0.1,0.2,0.3,0.3,0.4c0,0,0.1,0.1,0.1,0.1c0,0.1,0.1,0.1,0.1,0.2c0,0.1,0.1,0.1,0.1,0.2
			c0,0.1,0,0.1,0,0.1s0,0-0.1-0.1s-0.1-0.2-0.2-0.3c0,0,0,0,0,0c0,0,0,0.1,0,0.1c0.1,0.3,0.1,0.6,0,0.9c0,0.1-0.1,0.2-0.1,0.3
			c0,0.1,0,0.2,0.1,0.3c0,0,0,0.1,0,0.1c0,0,0,0,0,0.1c-0.1,0.1-0.1,0.2-0.3,0.2c-0.2,0-0.4,0-0.6,0c-0.2,0-0.4,0-0.6,0
			c-0.1,0-0.3,0-0.4-0.1c-0.1,0-0.3-0.1-0.4-0.1c0,0,0,0-0.1,0s-0.1,0-0.1,0c0.1,0.1,0.1,0.1,0.2,0.1c0.1,0,0.1,0,0.2,0.1
			c0.1,0,0.1,0,0.2,0c0.1,0,0.1,0,0.2,0.1c-0.1,0-0.2,0-0.3,0s-0.2,0-0.2,0c0.1,0.1,0.2,0.2,0.3,0.4C6,19.8,6.1,20,6.2,20.1
			c0.1,0.1,0.2,0.3,0.3,0.4c0.1,0.1,0.1,0.2,0.1,0.2L6.6,20.9C6.6,20.8,6.6,20.9,6.6,20.9z M3.3,17.4c0.1,0,0.1,0.1,0.2,0.1
			c0.1,0,0.2,0.1,0.2,0.1c0,0,0,0,0.1,0c0,0,0,0,0.1,0c0-0.1,0-0.1-0.1-0.1c0,0-0.1-0.1-0.1-0.1c-0.2-0.2-0.4-0.4-0.6-0.6
			c-0.2-0.2-0.5-0.4-0.7-0.6c-0.3-0.3-0.7-0.4-1.1-0.5c-0.1,0-0.2,0-0.3,0c-0.1,0-0.2,0.1-0.3,0.1c0,0,0.1,0.1,0.1,0.1
			s0.1,0.1,0.1,0.1c0.2,0.1,0.3,0.2,0.5,0.3c0.1,0.1,0.3,0.2,0.5,0.3c0.2,0.1,0.5,0.3,0.7,0.4C2.8,17.1,3,17.3,3.3,17.4z M1.3,17.5
			c0,0.1,0.1,0.1,0.1,0.1c0,0,0.1,0,0.2,0c-0.1,0-0.1-0.1-0.1-0.1C1.4,17.6,1.3,17.6,1.3,17.5z M4.3,18.9
			C4.3,18.9,4.3,18.9,4.3,18.9c0.1,0,0.1,0,0.1-0.1c-0.2-0.1-0.4-0.1-0.6-0.2c-0.2-0.1-0.4-0.1-0.6-0.2c0,0,0,0,0,0c0,0,0,0,0,0
			c0,0,0,0.1,0.1,0.1c0.1,0,0.2,0.1,0.3,0.1c0.1,0,0.2,0.1,0.3,0.1c0.1,0,0.2,0,0.3,0.1S4.2,18.9,4.3,18.9z M6.9,18.3
			c0.1,0.1,0.2,0.1,0.3,0.1c0.1,0,0.1,0,0.2-0.1c0-0.1,0-0.1-0.1-0.2c0-0.1,0-0.1-0.1-0.2c0-0.1-0.1-0.2-0.1-0.2
			c-0.2-0.2-0.4-0.5-0.7-0.6C6.3,17,6,16.9,5.7,16.8c0,0,0,0,0,0c0,0,0,0,0,0c0,0.1,0,0.2,0.1,0.3s0.1,0.2,0.2,0.3
			c0.2,0.2,0.3,0.3,0.5,0.5C6.6,18,6.8,18.1,6.9,18.3z"/>
		<path d="M6.7,25.1c0,0,0,0.1-0.1,0.1c-0.1,0-0.1,0-0.2,0c0,0-0.1-0.1-0.3-0.2c-0.1-0.1-0.3-0.2-0.5-0.4s-0.3-0.3-0.5-0.4
			C5.1,24.1,5,24,5,23.9s-0.1-0.2-0.1-0.3c0-0.1,0-0.2,0-0.3s0-0.2,0.1-0.2C4.9,23,5,23,5,22.9c0.1,0,0.1-0.1,0.2-0.1
			c0.1,0,0.2,0,0.3-0.1c0.1,0,0.2,0,0.3,0l-0.3-0.4c0,0,0-0.1,0-0.1c0,0,0-0.1,0-0.1c-0.1-0.1-0.1-0.2-0.2-0.3
			c0-0.1-0.1-0.2-0.1-0.3c0-0.1,0-0.2,0-0.4c0-0.1,0.1-0.2,0.2-0.3s0.1-0.2,0.2-0.3c0.1-0.1,0.2-0.1,0.3-0.1c0.2,0,0.3,0,0.5,0
			s0.3,0,0.5,0c0.3,0.1,0.5,0.2,0.7,0.4c0,0,0.1,0.1,0.1,0.1c0,0,0,0,0.1,0.1c0,0,0,0,0.1,0.1c0,0,0,0,0,0c0,0,0,0,0,0
			c0,0-0.1,0-0.1-0.1c0,0,0,0,0,0.1c0,0,0,0,0,0c0,0,0.1,0.1,0.1,0.1c0,0,0.1,0.1,0.1,0.1c0,0,0,0.1,0,0.1c0,0,0,0-0.1,0
			s0-0.1-0.1-0.1c0,0,0,0,0,0v0c0,0,0.1,0.1,0.1,0.1c0,0,0.1,0,0.1,0c0-0.1,0-0.2,0-0.3c0.1,0,0.1,0.1,0.1,0.2c0,0.1,0,0.2,0,0.3
			c0,0.1,0,0.2,0,0.3c0,0,0,0.1,0,0.1c0,0,0,0,0,0.1s0,0,0,0c0,0,0,0,0,0c0,0,0-0.1,0-0.1s0-0.1,0-0.1s0-0.1,0-0.1c0,0,0,0,0,0
			c0,0,0,0,0,0v0.1c0,0,0,0.1,0,0.2c0,0.1,0,0.2-0.1,0.3c0,0.1-0.1,0.2-0.1,0.3S7.6,23,7.5,23c0,0.1,0,0.1,0.1,0.1s0.1,0.1,0.2,0.1
			c0,0,0.1,0,0.1,0.1c0.1,0,0.1,0,0.1,0.1c0,0,0,0,0,0c0,0,0,0,0,0c0,0.1,0.1,0.2,0,0.3S8,23.9,7.9,24c0,0-0.1,0.1-0.1,0.1
			c0.1,0,0.1,0.1,0.2,0.1c0.1,0,0.1,0,0.2,0.1c0,0,0,0,0,0s0,0,0,0c-0.1,0-0.3-0.1-0.4-0.1s-0.2-0.1-0.4-0.1C7.2,24,7,24,6.9,23.9
			c-0.2-0.1-0.3-0.1-0.5-0.2c-0.1,0-0.2-0.1-0.3-0.1c-0.1,0-0.2,0-0.3-0.1c-0.1,0-0.2,0-0.2,0c-0.1,0-0.1,0-0.1,0
			c0.1,0,0.1,0,0.2,0.1c0.1,0,0.1,0,0.2,0.1c0,0,0.1,0,0.1,0c0,0,0.1,0,0.1,0c0,0,0,0,0,0c0,0,0,0,0,0h0l0.1,0.1
			c0.1,0,0.1,0.1,0.1,0.1c0,0,0,0-0.1,0s-0.1-0.1-0.2-0.1c0,0,0,0-0.1,0c0,0,0,0-0.1,0c-0.1,0-0.1,0-0.2,0c-0.1,0-0.1,0-0.1,0
			c-0.1,0-0.1,0,0,0.1C5.7,24,5.8,24.1,6,24.3c0.1,0.1,0.2,0.3,0.4,0.4s0.2,0.2,0.3,0.3S6.7,25.1,6.7,25.1z M7.1,22.6
			c0,0,0.1,0.1,0.1,0.1c0,0,0.1,0.1,0.1,0.1c0,0,0.1-0.1,0.1-0.1c0.1-0.1,0.1-0.3,0-0.4c-0.1-0.1-0.1-0.2-0.2-0.2
			C7.1,22,7,21.9,6.9,21.9c-0.3-0.3-0.6-0.5-1-0.6c0,0-0.1,0-0.1,0c0,0.1,0.1,0.2,0.2,0.3C6.3,22,6.7,22.3,7.1,22.6z"/>
		<path d="M4.9,25.2C4.9,25.1,5,25,5.1,25s0.3-0.1,0.5-0.1c0,0,0.1,0,0.1,0s0.1,0,0.1,0c0.1,0,0.3,0.1,0.4,0.1s0.2,0.1,0.4,0.1
			c0.2,0.1,0.4,0.1,0.6,0.2c0.2,0.1,0.4,0.1,0.6,0.2c0,0,0,0,0.1,0s0,0,0.1,0c0,0.2,0,0.3,0,0.4c0,0.1-0.1,0.3-0.2,0.4
			c0,0-0.1,0-0.1,0s-0.1,0-0.1,0c-0.1,0-0.1,0-0.2,0c-0.1,0-0.1,0-0.2,0c0,0-0.1,0-0.1,0c0,0,0,0,0,0h0c0,0,0,0,0,0
			c0.1,0,0.2,0.1,0.3,0.1c0.1,0,0.1,0,0.2,0.1c0.1,0,0.1,0,0.1,0c0,0,0,0-0.1,0c-0.1,0-0.1,0-0.2-0.1c-0.1,0-0.2,0-0.2-0.1
			c-0.1,0-0.1,0-0.1,0s0,0,0,0c0,0,0.1,0,0.1,0c0,0,0.1,0,0.1,0.1c0,0,0,0,0,0c0,0-0.1,0-0.2-0.1s-0.3-0.1-0.4-0.2
			C6.4,26.1,6.2,26,6,25.9c-0.1,0-0.2-0.1-0.3-0.1c-0.1,0-0.2,0-0.2,0c-0.1,0-0.1,0-0.1,0c0,0,0,0,0,0c0,0,0,0,0,0c0,0,0.1,0,0.1,0
			c0,0,0.1,0,0.1,0.1H5.4c0,0,0,0.1,0,0.1c0.2,0.3,0.5,0.6,0.8,0.8c0.1,0.1,0.2,0.1,0.2,0.2c0.1,0.1,0.1,0.1,0.2,0.2c0,0,0,0,0,0.1
			s0,0.1,0,0.1c0,0,0,0-0.1,0c0,0-0.1,0-0.2-0.1s-0.1,0-0.2-0.1s-0.1,0-0.1-0.1c0,0-0.1-0.1-0.2-0.2s-0.2-0.2-0.3-0.3
			c-0.1-0.1-0.3-0.3-0.5-0.4L5,26.1C5,26,4.9,26,4.9,25.9c0-0.1-0.1-0.1-0.1-0.1c0-0.1,0-0.2,0-0.3C4.8,25.3,4.8,25.2,4.9,25.2z
			 M8.8,25.7c0,0.1,0,0.1,0,0.2s0,0.1,0,0.1c0,0.2,0,0.3-0.1,0.4c-0.1,0.1-0.1,0.1-0.2,0.1c-0.1,0-0.2-0.1-0.3-0.2
			c-0.1-0.1-0.1-0.2,0-0.3c0-0.1,0-0.2,0.1-0.3c0-0.1,0-0.1,0.1-0.2s0.1,0,0.2,0C8.6,25.6,8.7,25.7,8.8,25.7z"/>
	</g>
</g>
</svg>
