<?xml version="1.0" encoding="utf-8"?>
<!-- Generator: Adobe Illustrator 27.7.0, SVG Export Plug-In . SVG Version: 6.00 Build 0)  -->
<svg version="1.1" id="Layer_2_00000118394393899144144900000009756832549179363261_"
	 xmlns="http://www.w3.org/2000/svg" xmlns:xlink="http://www.w3.org/1999/xlink" x="0px" y="0px" viewBox="0 0 13.1 21.3"
	 style="enable-background:new 0 0 13.1 21.3;" xml:space="preserve">
<style type="text/css">
	.st0{enable-background:new    ;}
</style>
<g id="Layer_1-2">
	<g class="st0">
		<path d="M12.1,6.7c0,0.1,0,0.2,0,0.3s0,0.3,0,0.4c0,0.1,0,0.2-0.1,0.3c0,0.1-0.1,0.1-0.2,0.1c-0.3-0.1-0.5-0.2-0.8-0.3
			s-0.5-0.2-0.8-0.2C10,7.2,9.7,7.1,9.5,7.1S9,6.9,8.7,6.9C8.1,6.7,7.5,6.5,6.9,6.4C6.3,6.2,5.7,6,5.1,5.9C5,5.9,4.8,5.8,4.7,5.8
			S4.3,5.7,4.2,5.7c-0.2,0-0.3,0-0.5,0c-0.2,0-0.3,0.1-0.3,0.2C3.3,5.8,3.2,5.6,3.2,5.5c0-0.1,0-0.3,0.1-0.4C3.4,5,3.4,5,3.5,4.9
			c0.1-0.1,0.2-0.1,0.3-0.1c0.2,0,0.5,0,0.7,0c0.2,0,0.5,0.1,0.7,0.1c0.1,0,0.2,0,0.3,0.1c0.1,0,0.2,0,0.3-0.1c0,0,0,0,0.1,0
			c0,0,0.1,0,0.1,0C6.3,4.9,6.6,4.9,6.8,5C7,5,7.3,5.1,7.5,5.1c0.1,0,0.2,0,0.3,0c0,0,0-0.1,0-0.1c0,0,0-0.1,0-0.1
			c0-0.4-0.1-0.7-0.1-1s-0.1-0.7-0.2-1c0-0.1,0-0.2-0.1-0.3S7.4,2.4,7.4,2.3c0-0.1-0.1-0.2-0.3-0.3C7.1,2,7,2,6.9,2
			c-0.1,0-0.2,0-0.3-0.1C6.3,1.8,6,1.7,5.6,1.6C5.3,1.5,5,1.4,4.6,1.3c0,0-0.1,0-0.1,0c-0.1,0-0.1,0-0.2,0S4.3,1.2,4.3,1.1
			c0-0.1,0-0.1,0-0.2s0.1-0.1,0.1-0.1c0.1-0.1,0.3-0.2,0.5-0.2s0.3-0.1,0.5,0c0.1,0,0.3,0,0.4,0.1s0.3,0.1,0.4,0.1
			c0.1,0,0.2,0,0.2,0.1c0.1,0,0.2,0,0.3,0.1C6.7,0.7,6.7,0.6,6.7,0.4c0-0.1,0.1-0.2,0.3-0.3C7.2,0,7.3,0,7.5,0.2
			c0.1,0.1,0.1,0.2,0.2,0.3s0.1,0.2,0.2,0.3C7.9,1,8,1,8.1,1.1c0.4,0.1,0.8,0.2,1.1,0.3s0.8,0.2,1.1,0.3c0.1,0,0.1,0,0.2,0.1
			c0.1,0,0.1,0.1,0.2,0.1c0.2,0,0.3,0,0.5,0s0.3,0.1,0.5,0.2c-0.1,0-0.2,0-0.2,0c-0.1,0-0.2,0-0.2,0c0.1,0.1,0.2,0.1,0.3,0.2
			c0.1,0.1,0.2,0.1,0.3,0.1c0.1,0,0.2,0,0.2,0.1c0.1,0,0.1,0.1,0.2,0.1c0.1,0,0.1,0.1,0.1,0.3c0,0.2,0,0.3,0,0.5s0,0.3-0.1,0.4
			s-0.1,0.2-0.2,0.2c-0.1-0.1-0.3-0.1-0.6-0.2c-0.2-0.1-0.5-0.2-0.7-0.3s-0.5-0.2-0.7-0.3C9.9,3,9.7,2.9,9.6,2.9
			C9.4,2.8,9.2,2.8,9,2.7C8.9,2.6,8.7,2.6,8.5,2.5c0,0.2,0.1,0.3,0.1,0.5c0,0.2,0.1,0.3,0.1,0.5v0c0,0,0,0.1,0,0.1c0,0,0,0.1,0,0.1
			c0,0.2,0,0.3,0,0.5c0,0.2,0,0.3,0,0.5c0,0.1,0,0.3-0.1,0.4c-0.1,0.1-0.1,0.2,0,0.3s0.1,0.1,0.3,0.1c0.2,0,0.3,0.1,0.5,0.1
			c0.2,0,0.3,0.1,0.5,0.1c0,0,0.1,0,0.1,0c0,0,0.1,0,0.2,0.1c-0.2,0-0.5-0.1-0.7-0.1c-0.2,0-0.5-0.1-0.7-0.1l0,0.1c0,0,0.1,0,0.1,0
			c0,0,0.1,0,0.1,0c0.1,0,0.3,0.1,0.4,0.1c0.1,0,0.3,0.1,0.4,0.1c0.3,0.1,0.6,0.1,0.9,0.2s0.6,0.2,0.9,0.2c0.1,0,0.1,0,0.2,0
			c0.1,0,0.1,0,0.2,0C12,6.4,12.1,6.5,12.1,6.7z M6.3,5c0.2,0.1,0.5,0.1,0.7,0.2s0.5,0.1,0.8,0.2C7.8,5.3,7.7,5.2,7.6,5.2
			c-0.1,0-0.2,0-0.3-0.1c-0.1,0-0.2-0.1-0.3-0.1c-0.1,0-0.2,0-0.3,0c-0.1,0-0.2,0-0.2,0S6.4,5,6.3,5z M8.7,3.5
			c0,0.1,0.1,0.3,0.1,0.4c0,0.1,0.1,0.3,0.1,0.4C8.8,4.2,8.8,4,8.8,3.9S8.7,3.6,8.7,3.5z M8.9,4.4C8.9,4.4,8.9,4.4,8.9,4.4
			C8.9,4.4,8.9,4.3,8.9,4.4C8.9,4.3,8.9,4.3,8.9,4.4C8.9,4.3,8.9,4.3,8.9,4.4C8.9,4.3,8.9,4.3,8.9,4.4C8.9,4.3,8.9,4.4,8.9,4.4z
			 M9.1,5.2L9.1,5.2C9,5.1,9,5,9,4.8c0-0.1,0-0.3,0-0.4C8.9,4.5,9,4.6,9,4.8C9,4.9,9.1,5,9.1,5.2z M9.5,1.7c0.1,0,0.2,0.1,0.3,0.1
			s0.2,0.1,0.3,0.1c0,0,0-0.1,0-0.1c-0.1,0-0.2-0.1-0.3-0.1S9.7,1.7,9.5,1.7C9.5,1.6,9.5,1.7,9.5,1.7z"/>
		<path d="M6.6,10.5L6.6,10.5C6.6,10.6,6.6,10.6,6.6,10.5c-0.1,0.1-0.1,0-0.2-0.1c-0.1-0.1-0.1-0.3-0.1-0.5C6.2,9.8,6.1,9.8,6,9.8
			C5.8,9.7,5.7,9.6,5.5,9.4C5.5,9.3,5.4,9.2,5.4,9.1C5.3,9.1,5.2,9,5.2,8.9C5.1,8.8,5.1,8.7,5.1,8.6C5,8.5,5,8.4,5,8.3
			c0,0,0-0.1,0-0.1c0,0,0-0.1,0-0.1C5,8.1,5,8,5.1,8c0-0.1,0-0.1,0.1-0.2c0,0,0.1-0.1,0.1-0.1c0,0,0.1-0.1,0.1-0.1
			c0-0.1,0.1-0.1,0.2-0.2c0.1-0.1,0.1-0.1,0.2-0.1c0,0,0.1,0,0.1,0s0.1,0,0.1-0.1C6,7.1,6.1,7.1,6.1,7.1s0.2,0,0.3,0s0.2,0,0.2,0
			c0.1,0,0.2,0.1,0.3,0.1s0.2,0,0.3,0.1c0.2,0,0.5,0.2,0.7,0.4l0,0c0,0,0,0,0,0c-0.1,0-0.2-0.1-0.3-0.1C7.6,7.6,7.5,7.5,7.4,7.5h0
			c0,0,0.1,0,0.1,0.1c0.1,0,0.1,0.1,0.2,0.1c0.1,0,0.2,0.1,0.2,0.1s0.1,0.1,0.2,0.1C8.2,8,8.2,8,8.2,8c0,0,0,0,0,0c0,0-0.1,0-0.1,0
			S8,7.9,8,7.9c0,0-0.1,0-0.1-0.1c-0.1,0-0.1,0-0.2,0c0,0,0,0,0,0l0,0c0,0,0.1,0.1,0.1,0.1C7.9,8,7.9,8.1,8,8.1c0,0-0.1,0-0.1,0
			s-0.1,0-0.1,0C7.9,8.2,8,8.3,8.1,8.3c0.1,0.1,0.2,0.1,0.3,0.2c0,0.1,0,0.2,0.1,0.3S8.5,9,8.5,9.1c0,0.1,0,0.2,0,0.2
			c0,0.1,0,0.1-0.1,0.2c0,0,0,0.1,0,0.1C8.4,9.8,8.3,9.9,8.2,10c-0.1,0.1-0.2,0.1-0.3,0.1c-0.2,0-0.3,0-0.5,0c-0.2,0-0.3,0-0.5,0
			L6.6,10C6.6,10.2,6.6,10.4,6.6,10.5z M6.2,9.3C6.2,9.3,6.3,9.3,6.2,9.3c0.1,0,0.1,0,0.1,0c0-0.1,0.1-0.1,0.1-0.2
			c0-0.1,0-0.1,0.1-0.2c0-0.1,0.1-0.1,0.1-0.2s0.1-0.1,0.1-0.2C6.6,8.4,6.5,8.3,6.4,8.3s-0.2,0-0.2-0.1c-0.1,0-0.2-0.1-0.3-0.1
			c-0.1,0-0.2,0-0.4,0.1c0,0,0,0.1,0.1,0.1c0,0,0,0.1,0,0.1c0,0,0.1,0.1,0.1,0.1c0,0,0,0.1,0.1,0.1C5.8,8.8,5.9,8.9,5.9,9
			C6,9.1,6.1,9.2,6.2,9.3z M8.2,9.2C8.1,8.9,7.8,8.7,7.5,8.7c-0.1,0-0.1,0-0.2,0c-0.1,0-0.1,0-0.2,0c-0.1,0-0.1,0-0.2,0
			S7,8.8,6.9,8.8C6.8,8.9,6.8,9,6.8,9.1c0,0,0,0.1,0,0.1c0,0,0,0.1,0,0.1c0,0,0,0.1,0,0.1c0,0.1,0,0.2,0.1,0.2
			C7,9.6,7.1,9.7,7.2,9.7c0.1,0,0.3,0,0.4,0c0,0,0.1,0,0.1,0c0,0,0.1,0,0.1,0c0.1,0,0.3-0.1,0.3-0.2C8.3,9.4,8.3,9.3,8.2,9.2z"/>
		<path d="M5.7,12.6c0,0.1,0,0.1,0,0.1c0,0,0,0.1-0.1,0c0,0-0.1,0-0.1,0c0,0,0,0-0.1,0c-0.1,0-0.2,0-0.3-0.1c0,0,0,0,0,0
			c0,0,0,0,0,0.1c-0.2-0.1-0.3-0.2-0.5-0.2c-0.2-0.1-0.3-0.1-0.4-0.2c0,0-0.1,0-0.1-0.1c0,0,0-0.1-0.1-0.1c0,0,0-0.1,0-0.1
			c0,0,0,0,0-0.1C4,12,3.9,11.9,3.8,11.8c0,0-0.1-0.1-0.1-0.2s-0.1-0.1-0.1-0.2c0,0,0-0.1-0.1-0.1c0,0-0.1-0.1-0.1-0.1
			c0,0-0.1-0.1-0.1-0.1c0,0,0-0.1,0-0.2c0,0,0,0,0-0.1c0,0,0-0.1,0-0.1c0-0.1-0.1-0.2,0-0.2c0,0,0.1,0,0.1,0.1c0,0,0,0.1,0,0.1
			c0,0,0,0.1,0.1,0.1c0,0,0,0.1,0.1,0.1c0,0,0,0.1,0.1,0.1c0,0,0.1,0.1,0.1,0.1c0,0,0-0.1,0-0.1c0,0,0,0,0-0.1
			c-0.1-0.1-0.1-0.2-0.2-0.3s-0.1-0.2-0.1-0.3C3.2,10.2,3.1,10,3.2,9.8s0.1-0.3,0.2-0.5c0-0.1,0.1-0.1,0.2-0.2S3.6,9.1,3.7,9h0.1
			c0.2,0,0.3,0,0.5,0.1c0.1,0.1,0.3,0.2,0.4,0.3C5,9.6,5.1,9.8,5.3,10.1s0.3,0.5,0.5,0.7c0,0.1,0,0.1,0.1,0.2c0,0,0,0.1,0,0.1
			c0,0.1,0,0.1-0.1,0.1c-0.1,0-0.2,0-0.3,0c-0.1-0.1-0.2-0.1-0.2-0.2c-0.1-0.1-0.2-0.1-0.2-0.2c-0.2-0.2-0.3-0.3-0.5-0.4
			S4.2,10.1,4,10.1c0,0-0.1,0-0.1,0c0,0-0.1,0-0.1,0c0,0.1,0.1,0.2,0.1,0.3c0,0.1,0.1,0.2,0.2,0.3c0,0,0,0,0.1,0.1
			c0,0,0,0.1,0.1,0.1c0.2,0.2,0.3,0.4,0.5,0.5c0.2,0.1,0.4,0.2,0.6,0.3c0.1,0,0.2,0.1,0.2,0.1s0.2,0,0.2,0c0,0,0.1,0,0.1,0
			c0,0,0.1,0,0.1,0c0.1-0.1,0.1-0.1,0.1-0.2c0,0,0-0.1,0-0.1c0,0,0-0.1,0-0.1c0-0.1,0-0.2,0.1-0.4s0.1-0.2,0.2-0.3
			c0.1-0.2,0.2-0.2,0.3-0.3c0.1,0,0.2,0,0.3,0c0.1,0,0.2,0.1,0.3,0.2c0.1,0.1,0.2,0.1,0.3,0.2c0,0,0,0,0,0c0,0-0.1,0-0.1,0
			c0,0,0,0-0.1,0c0,0,0.1,0.1,0.1,0.1c0,0,0.1,0.1,0.1,0.1C7.8,11,7.9,11.1,8,11.2c0.1,0.1,0.1,0.2,0.2,0.3c0.1,0.1,0.1,0.3,0.2,0.4
			c0,0,0,0.1,0,0.1s0,0.1,0,0.1c0.1,0.3,0,0.5-0.1,0.7c0,0,0,0,0,0s0,0,0,0c0,0-0.1,0-0.1,0.1c0,0-0.1,0-0.1,0.1
			c-0.2,0-0.3-0.1-0.5-0.2c-0.1-0.1-0.3-0.3-0.4-0.4C7.1,12.3,7,12.2,7,12.1c0-0.1,0-0.1,0-0.2c0,0,0-0.1,0.1-0.2c0,0,0.1,0,0.1,0
			c0,0,0,0,0.1,0.1c0,0.1,0.1,0.1,0.2,0.2c0.1,0.1,0.1,0.1,0.2,0.2c0.1,0.1,0.2,0.1,0.3,0.2c0,0,0,0,0.1,0s0,0,0.1,0
			c0,0,0-0.1,0-0.1c0-0.1-0.1-0.1-0.1-0.2c0,0,0-0.1-0.1-0.1c-0.1-0.2-0.3-0.3-0.4-0.4c-0.1-0.1-0.3-0.3-0.5-0.3c0,0-0.1,0-0.1,0
			s-0.1,0-0.1,0c0,0,0,0.1,0,0.2c0,0.1,0,0.1,0,0.2c0,0.4-0.2,0.7-0.3,0.9C6.1,12.5,5.9,12.6,5.7,12.6z"/>
		<path d="M6.7,16.6c0,0-0.1,0-0.2-0.1c-0.1-0.1-0.2-0.1-0.3-0.3c-0.1-0.1-0.1-0.1-0.2-0.2C6,16.1,6,16,5.9,15.9
			c0,0-0.1-0.1-0.2-0.1c-0.1,0-0.1-0.1-0.2-0.1c-0.3-0.2-0.5-0.5-0.6-0.8c-0.1-0.1-0.1-0.3-0.1-0.4c0-0.2,0-0.3,0-0.5
			c0,0,0-0.1,0-0.1c0,0,0-0.1,0-0.1C5,13.7,5,13.6,5.1,13.5c0.1-0.1,0.1-0.2,0.2-0.2c0,0,0.1-0.1,0.1-0.1s0.1,0,0.1,0
			c0.2,0,0.3,0,0.5,0c0.1,0,0.1,0,0.2,0c0.1,0,0.2,0,0.3,0c0.1,0,0.2,0.1,0.4,0.1c0.1,0.1,0.2,0.1,0.3,0.2c-0.1,0-0.1-0.1-0.2-0.1
			c-0.1,0-0.1-0.1-0.2-0.1c-0.1,0-0.1,0-0.2-0.1c-0.1,0-0.1,0-0.2,0c0.2,0.1,0.3,0.2,0.4,0.2c0.1,0,0.3,0.1,0.4,0.2
			c0.1,0.1,0.2,0.2,0.3,0.2s0.2,0.2,0.3,0.2c0,0,0,0.1,0,0.1c0,0,0,0.1,0,0.1c0.1,0.1,0.2,0.3,0.2,0.4s0.1,0.3,0.1,0.5
			c0,0.2,0,0.3-0.1,0.5c0,0,0,0.1,0,0.1c0,0,0,0.1-0.1,0.1c0,0,0,0.1-0.1,0.1c0,0,0,0-0.1,0c-0.1,0.1-0.1,0.2-0.2,0.2s-0.2,0-0.2,0
			c-0.1,0-0.1-0.1-0.2-0.1c-0.1,0-0.1-0.1-0.2-0.1c-0.1-0.1-0.2-0.2-0.3-0.3c-0.1-0.1-0.2-0.2-0.2-0.3c-0.1-0.2-0.2-0.4-0.2-0.6
			c0-0.1,0-0.2,0-0.2c0-0.1,0-0.1,0-0.1c0,0-0.1-0.1-0.1-0.1c0,0-0.1,0-0.2-0.1c-0.1,0-0.2-0.1-0.3-0.1c-0.1,0-0.2-0.1-0.3-0.1
			c0,0-0.1,0-0.1,0s-0.1,0-0.1,0c0,0.1,0,0.2,0,0.2c0,0.1,0.1,0.1,0.1,0.2c0.1,0.1,0.1,0.2,0.2,0.4c0.1,0.1,0.1,0.2,0.2,0.4
			c0.1,0.2,0.2,0.3,0.4,0.5s0.3,0.3,0.4,0.5v0c0,0.1,0.1,0.1,0.1,0.1C6.7,16.5,6.7,16.5,6.7,16.6C6.8,16.6,6.8,16.6,6.7,16.6z
			 M7.8,15.3C7.6,15,7.4,14.8,7,14.7c0.1,0.1,0.2,0.3,0.2,0.4c0.1,0.1,0.2,0.2,0.3,0.3c0,0,0,0,0,0c0,0,0,0,0.1,0
			C7.7,15.4,7.8,15.4,7.8,15.3z"/>
		<path d="M6.7,21.1c0,0,0,0.1-0.1,0.1c-0.1,0-0.1,0-0.2,0c0,0-0.1-0.1-0.3-0.2c-0.1-0.1-0.3-0.2-0.5-0.4s-0.3-0.3-0.5-0.4
			C5.1,20.1,5,20,5,19.9s-0.1-0.2-0.1-0.3c0-0.1,0-0.2,0-0.3s0-0.2,0.1-0.2C4.9,19,5,19,5,18.9c0.1,0,0.1-0.1,0.2-0.1
			c0.1,0,0.2,0,0.3-0.1c0.1,0,0.2,0,0.3,0l-0.3-0.4c0,0,0-0.1,0-0.1c0,0,0-0.1,0-0.1c-0.1-0.1-0.1-0.2-0.2-0.3
			c0-0.1-0.1-0.2-0.1-0.3c0-0.1,0-0.2,0-0.4c0-0.1,0.1-0.2,0.2-0.3s0.1-0.2,0.2-0.3c0.1-0.1,0.2-0.1,0.3-0.1c0.2,0,0.3,0,0.5,0
			s0.3,0,0.5,0c0.3,0.1,0.5,0.2,0.7,0.4c0,0,0.1,0.1,0.1,0.1c0,0,0,0,0.1,0.1c0,0,0,0,0.1,0.1c0,0,0,0,0,0c0,0,0,0,0,0
			c0,0-0.1,0-0.1-0.1c0,0,0,0,0,0.1c0,0,0,0,0,0c0,0,0.1,0.1,0.1,0.1c0,0,0.1,0.1,0.1,0.1c0,0,0,0.1,0,0.1c0,0,0,0-0.1,0
			s0-0.1-0.1-0.1c0,0,0,0,0,0v0c0,0,0.1,0.1,0.1,0.1c0,0,0.1,0,0.1,0c0-0.1,0-0.2,0-0.3c0.1,0,0.1,0.1,0.1,0.2c0,0.1,0,0.2,0,0.3
			c0,0.1,0,0.2,0,0.3c0,0,0,0.1,0,0.1c0,0,0,0,0,0.1s0,0,0,0c0,0,0,0,0,0c0,0,0-0.1,0-0.1s0-0.1,0-0.1s0-0.1,0-0.1c0,0,0,0,0,0
			c0,0,0,0,0,0v0.1c0,0,0,0.1,0,0.2c0,0.1,0,0.2-0.1,0.3c0,0.1-0.1,0.2-0.1,0.3S7.6,19,7.5,19c0,0.1,0,0.1,0.1,0.1s0.1,0.1,0.2,0.1
			c0,0,0.1,0,0.1,0.1c0.1,0,0.1,0,0.1,0.1c0,0,0,0,0,0c0,0,0,0,0,0c0,0.1,0.1,0.2,0,0.3S8,19.9,7.9,20c0,0-0.1,0.1-0.1,0.1
			c0.1,0,0.1,0.1,0.2,0.1c0.1,0,0.1,0,0.2,0.1c0,0,0,0,0,0s0,0,0,0c-0.1,0-0.3-0.1-0.4-0.1s-0.2-0.1-0.4-0.1C7.2,20,7,20,6.9,19.9
			c-0.2-0.1-0.3-0.1-0.5-0.2c-0.1,0-0.2-0.1-0.3-0.1c-0.1,0-0.2,0-0.3-0.1c-0.1,0-0.2,0-0.2,0c-0.1,0-0.1,0-0.1,0
			c0.1,0,0.1,0,0.2,0.1c0.1,0,0.1,0,0.2,0.1c0,0,0.1,0,0.1,0c0,0,0.1,0,0.1,0c0,0,0,0,0,0c0,0,0,0,0,0h0l0.1,0.1
			c0.1,0,0.1,0.1,0.1,0.1c0,0,0,0-0.1,0s-0.1-0.1-0.2-0.1c0,0,0,0-0.1,0c0,0,0,0-0.1,0c-0.1,0-0.1,0-0.2,0c-0.1,0-0.1,0-0.1,0
			c-0.1,0-0.1,0,0,0.1C5.7,20,5.8,20.1,6,20.3c0.1,0.1,0.2,0.3,0.4,0.4s0.2,0.2,0.3,0.3S6.7,21.1,6.7,21.1z M7.1,18.6
			c0,0,0.1,0.1,0.1,0.1c0,0,0.1,0.1,0.1,0.1c0,0,0.1-0.1,0.1-0.1c0.1-0.1,0.1-0.3,0-0.4c-0.1-0.1-0.1-0.2-0.2-0.2
			C7.1,18,7,17.9,6.9,17.9c-0.3-0.3-0.6-0.5-1-0.6c0,0-0.1,0-0.1,0c0,0.1,0.1,0.2,0.2,0.3C6.3,18,6.7,18.3,7.1,18.6z"/>
	</g>
</g>
</svg>
