<?xml version="1.0" encoding="utf-8"?>
<!-- Generator: Adobe Illustrator 27.7.0, SVG Export Plug-In . SVG Version: 6.00 Build 0)  -->
<svg version="1.1" id="Layer_2_00000176028978266252011880000016959674626387341222_"
	 xmlns="http://www.w3.org/2000/svg" xmlns:xlink="http://www.w3.org/1999/xlink" x="0px" y="0px" viewBox="0 0 13.1 16.1"
	 style="enable-background:new 0 0 13.1 16.1;" xml:space="preserve">
<style type="text/css">
	.st0{enable-background:new    ;}
</style>
<g id="Layer_1-2">
	<g class="st0">
		<path d="M6.4,5.4C6.4,5.4,6.4,5.3,6.4,5.4C6.4,5.3,6.4,5.3,6.4,5.4C6.3,5.3,6.1,5.2,6,5.1C5.8,5,5.7,4.9,5.5,4.8
			C5.4,4.7,5.3,4.6,5.1,4.5C5,4.3,4.9,4.2,4.8,4.2c0,0,0,0,0.1,0.1C5,4.3,5.1,4.4,5.2,4.4s0.2,0.1,0.2,0.1c0.1,0,0.1,0,0-0.2
			c0,0,0,0,0-0.1c0,0,0,0,0-0.1C5,4.1,4.8,3.9,4.6,3.7S4.3,3.2,4.1,2.9C4.1,2.8,4,2.7,4,2.6C3.9,2.5,3.9,2.4,3.8,2.3
			c0-0.1,0-0.2,0-0.3c0-0.2,0-0.3,0-0.5c0-0.2,0-0.3,0-0.5c0-0.2,0.1-0.4,0.2-0.5C4,0.5,4.1,0.3,4.2,0.2C4.4,0.1,4.5,0,4.7,0
			s0.3,0,0.5,0c0.2,0.1,0.5,0.2,0.7,0.3s0.4,0.3,0.6,0.4C6.7,0.9,6.8,1.1,7,1.2c0.1,0.1,0.2,0.3,0.3,0.4c0.1,0.1,0.1,0.2,0.2,0.3
			C7.4,2,7.4,2,7.4,2.1c0,0,0,0.1,0,0.1l0,0l0-0.2c0,0,0-0.1,0-0.1c0,0,0-0.1,0-0.1c0,0,0,0,0,0s0,0,0,0c0,0,0,0,0,0.1
			C7.3,2,7.4,2.2,7.4,2.4c0,0.2,0.1,0.3,0.1,0.5c0,0.1,0,0.3,0,0.3s0,0.1,0,0.1c0,0,0,0,0,0s0,0,0,0c0,0,0,0,0,0
			c0-0.1-0.1-0.1-0.1-0.2S7.2,2.9,7.2,2.9l0,0C7.1,2.8,7,2.7,7,2.7C6.9,2.6,6.9,2.5,6.8,2.5C6.6,2.2,6.4,2,6.2,1.8
			C5.9,1.6,5.7,1.4,5.4,1.2C5.3,1.1,5.1,1.1,5,1C4.9,0.9,4.7,0.9,4.5,0.9c-0.1,0-0.2,0-0.2,0c0,0-0.1,0.1,0,0.2
			c0,0.2,0.1,0.3,0.1,0.5S4.5,1.9,4.6,2c0,0.1,0.1,0.1,0.1,0.2s0.1,0.2,0.2,0.3C4.9,2.6,5,2.7,5,2.7c0,0.1,0.1,0.1,0.1,0.2
			C5.3,3,5.4,3.1,5.6,3.2C5.7,3.3,5.8,3.4,6,3.6c0.1,0.1,0.3,0.2,0.4,0.3C6.5,4,6.6,4,6.8,4.1C7,4.2,7.2,4.3,7.4,4.3
			c0.2,0.1,0.4,0.2,0.7,0.2c0,0,0.1,0.1,0.1,0.1c0,0,0.1,0,0.1,0c0,0,0,0-0.1-0.1c0,0,0,0-0.1-0.1c-0.1,0-0.1,0-0.2,0
			c0,0-0.1,0-0.2,0c-0.1,0-0.2-0.1-0.4-0.1S7.3,4.2,7.1,4.1c0.1,0,0.3,0.1,0.4,0.1S7.8,4.3,8,4.3h0c0.1,0,0.1,0,0.2,0
			c0.1,0,0.1,0,0.2,0h0.1c0.2,0,0.4,0,0.5,0.1s0.3,0,0.4,0.1c0,0,0,0,0,0c0,0,0,0,0,0c0.4,0,0.8,0.1,1.2,0.1c0.4,0,0.8-0.1,1.1-0.3
			c0,0,0,0,0.1,0c0,0,0,0,0.1,0c0-0.1,0-0.2-0.1-0.3c0-0.1-0.1-0.2-0.2-0.3c-0.2-0.3-0.4-0.6-0.6-0.8s-0.4-0.5-0.7-0.7
			c-0.1-0.1-0.1-0.1-0.2-0.2c0-0.1-0.1-0.1-0.1-0.2c0-0.1,0-0.2,0-0.3s0.1-0.1,0.2,0c0.1,0,0.2,0.1,0.3,0.2c0.1,0.1,0.2,0.1,0.3,0.2
			c0.2,0.2,0.4,0.3,0.6,0.6c0.2,0.2,0.3,0.4,0.5,0.7c0.1,0.2,0.2,0.4,0.2,0.6c0,0.2,0,0.4,0,0.7c0,0.2-0.1,0.4-0.2,0.6
			S12,5.3,11.8,5.5c0,0-0.1,0.1-0.1,0.1c0,0-0.1,0.1-0.1,0.1c0,0-0.1,0-0.1,0.1c0,0-0.1,0.1-0.1,0.1c-0.1,0-0.2,0.1-0.5,0.1
			S10.3,6,9.9,6S9.1,6,8.5,5.9C8,5.8,7.3,5.6,6.6,5.4C6.5,5.4,6.5,5.4,6.4,5.4C6.5,5.4,6.5,5.4,6.4,5.4z M5.4,4.4
			c0,0.1,0.1,0.1,0.1,0.2c0,0,0.1,0.1,0.1,0.1s0.1,0,0.1,0s0.1,0,0.1,0C5.7,4.6,5.7,4.6,5.6,4.5C5.5,4.5,5.5,4.4,5.4,4.4z M6.7,2.1
			C6.6,1.9,6.4,1.8,6.3,1.7S6,1.5,5.9,1.4c0,0,0,0,0,0C6,1.6,6.1,1.7,6.3,1.8S6.5,2,6.7,2.1C6.6,2.1,6.6,2.1,6.7,2.1
			C6.6,2.1,6.7,2.1,6.7,2.1z M6.8,4C6.9,4,6.9,4,7,4C7,4,7,4,7.1,4.1c0,0-0.1,0-0.1,0S6.9,4,6.8,4z M7.1,4.1L7.1,4.1L7.1,4.1
			C7.1,4.1,7.1,4.1,7.1,4.1C7.1,4.1,7.1,4.1,7.1,4.1L7.1,4.1L7.1,4.1z M8.4,4.6c0,0,0.1,0.1,0.1,0.1c0,0,0,0,0.1,0.1
			c0-0.1,0-0.1,0-0.1C8.6,4.6,8.5,4.6,8.4,4.6z M9.5,4.7c0,0.1,0,0.1,0.1,0.2c0,0,0.1,0,0.1,0c0.2,0,0.5,0,0.8,0
			c0.3,0,0.5-0.1,0.8-0.1c-0.3,0-0.5,0-0.8,0S9.8,4.6,9.5,4.7z"/>
		<path d="M6.6,9.5L6.6,9.5C6.6,9.6,6.6,9.6,6.6,9.5c-0.1,0.1-0.1,0-0.2-0.2C6.3,9.2,6.3,9.1,6.3,8.9C6.2,8.9,6.1,8.8,6,8.8
			C5.8,8.7,5.7,8.6,5.5,8.4C5.5,8.3,5.4,8.3,5.4,8.2C5.3,8.1,5.2,8,5.2,7.9C5.1,7.8,5.1,7.7,5.1,7.6C5,7.5,5,7.4,5,7.3
			c0,0,0-0.1,0-0.1c0,0,0-0.1,0-0.1C5,7.1,5,7,5.1,7c0-0.1,0-0.1,0.1-0.2c0,0,0.1-0.1,0.1-0.1c0,0,0.1-0.1,0.1-0.1
			c0-0.1,0.1-0.1,0.2-0.2c0.1-0.1,0.1-0.1,0.2-0.1c0,0,0.1,0,0.1,0s0.1,0,0.1-0.1C6,6.1,6.1,6.1,6.1,6.1s0.2,0,0.3,0s0.2,0,0.2,0
			c0.1,0,0.2,0.1,0.3,0.1s0.2,0,0.3,0.1c0.2,0,0.5,0.2,0.7,0.4l0,0c0,0,0,0,0,0c-0.1,0-0.2-0.1-0.3-0.1C7.6,6.6,7.5,6.5,7.4,6.5h0
			c0,0,0.1,0,0.1,0.1c0.1,0,0.1,0.1,0.2,0.1c0.1,0,0.2,0.1,0.2,0.1S8.1,6.9,8.1,7C8.2,7,8.2,7,8.2,7c0,0,0,0,0,0c0,0-0.1,0-0.1,0
			S8,6.9,8,6.9c0,0-0.1,0-0.1-0.1c-0.1,0-0.1,0-0.2,0c0,0,0,0,0,0l0,0c0,0,0.1,0.1,0.1,0.1c0.1,0,0.1,0.1,0.1,0.1c0,0-0.1,0-0.1,0
			s-0.1,0-0.1,0C7.9,7.2,8,7.3,8.1,7.3c0.1,0.1,0.2,0.1,0.3,0.2c0,0.1,0,0.2,0.1,0.3S8.5,8,8.5,8.2c0,0.1,0,0.2,0,0.2
			c0,0.1,0,0.1-0.1,0.2c0,0,0,0.1,0,0.1C8.4,8.8,8.3,9,8.2,9C8.1,9.1,8,9.1,7.8,9.1c-0.2,0-0.3,0-0.5,0c-0.2,0-0.3,0-0.5,0L6.6,9
			C6.6,9.2,6.6,9.4,6.6,9.5z M6.2,8.3C6.2,8.3,6.3,8.3,6.2,8.3c0.1,0,0.1,0,0.1,0c0-0.1,0.1-0.1,0.1-0.2c0-0.1,0-0.1,0.1-0.2
			c0-0.1,0.1-0.1,0.1-0.2s0.1-0.1,0.1-0.2C6.6,7.4,6.5,7.3,6.4,7.3s-0.2,0-0.2-0.1c-0.1,0-0.2-0.1-0.3-0.1c-0.1,0-0.2,0-0.4,0.1
			c0,0,0,0.1,0.1,0.1c0,0,0,0.1,0,0.1c0,0,0.1,0.1,0.1,0.1c0,0,0,0.1,0.1,0.1C5.8,7.8,5.9,7.9,5.9,8C6,8.1,6.1,8.2,6.2,8.3z
			 M8.2,8.2C8.1,7.9,7.8,7.7,7.5,7.7c-0.1,0-0.1,0-0.2,0c-0.1,0-0.1,0-0.2,0c-0.1,0-0.1,0-0.2,0S7,7.8,6.9,7.9
			C6.8,7.9,6.8,8,6.8,8.1c0,0,0,0.1,0,0.1c0,0,0,0.1,0,0.1c0,0,0,0.1,0,0.1c0,0.1,0,0.2,0.1,0.2C7,8.7,7.1,8.7,7.2,8.7
			c0.1,0,0.3,0,0.4,0c0,0,0.1,0,0.1,0c0,0,0.1,0,0.1,0c0.1,0,0.3-0.1,0.3-0.2C8.3,8.4,8.3,8.3,8.2,8.2z"/>
		<path d="M6.7,12.7c0,0-0.1,0-0.2-0.1s-0.2-0.1-0.3-0.3c-0.1-0.1-0.1-0.1-0.2-0.2S6,12.2,5.9,12.1c0,0-0.1-0.1-0.2-0.1
			c-0.1,0-0.1-0.1-0.2-0.2c-0.3-0.2-0.5-0.5-0.6-0.8c-0.1-0.1-0.1-0.3-0.1-0.4c0-0.2,0-0.3,0-0.5c0,0,0-0.1,0-0.1c0,0,0-0.1,0-0.1
			C5,9.8,5,9.7,5.1,9.6c0.1-0.1,0.1-0.2,0.2-0.2c0,0,0.1-0.1,0.1-0.1c0,0,0.1,0,0.1,0c0.2,0,0.3,0,0.5,0c0.1,0,0.1,0,0.2,0
			c0.1,0,0.2,0,0.3,0c0.1,0,0.2,0.1,0.4,0.1s0.2,0.1,0.3,0.2c-0.1,0-0.1,0-0.2-0.1C7,9.6,6.9,9.5,6.8,9.5c-0.1,0-0.1,0-0.2-0.1
			c-0.1,0-0.1,0-0.2,0c0.2,0.1,0.3,0.2,0.4,0.2s0.3,0.1,0.4,0.2c0.1,0.1,0.2,0.2,0.3,0.2c0.1,0.1,0.2,0.2,0.3,0.2c0,0,0,0.1,0,0.1
			c0,0,0,0.1,0,0.1c0.1,0.1,0.2,0.3,0.2,0.4c0,0.2,0.1,0.3,0.1,0.5c0,0.2,0,0.3-0.1,0.5c0,0,0,0.1,0,0.1c0,0,0,0.1-0.1,0.1
			c0,0,0,0.1-0.1,0.1s0,0-0.1,0c-0.1,0.1-0.1,0.2-0.2,0.2s-0.2,0-0.2,0c-0.1,0-0.1-0.1-0.2-0.1c-0.1,0-0.1-0.1-0.2-0.1
			C7.1,12,7,11.9,6.9,11.8c-0.1-0.1-0.2-0.2-0.2-0.3c-0.1-0.2-0.2-0.4-0.2-0.6c0-0.1,0-0.2,0-0.2c0-0.1,0-0.1,0-0.1
			c0,0-0.1-0.1-0.1-0.1s-0.1,0-0.2-0.1c-0.1,0-0.2-0.1-0.3-0.1c-0.1,0-0.2-0.1-0.3-0.1c0,0-0.1,0-0.1,0s-0.1,0-0.1,0
			c0,0.1,0,0.2,0,0.2c0,0.1,0.1,0.1,0.1,0.2c0.1,0.1,0.1,0.2,0.2,0.4c0.1,0.1,0.1,0.2,0.2,0.4c0.1,0.2,0.2,0.3,0.4,0.5
			s0.3,0.3,0.4,0.5v0c0,0.1,0.1,0.1,0.1,0.1C6.7,12.6,6.7,12.6,6.7,12.7C6.8,12.7,6.8,12.7,6.7,12.7z M7.8,11.5
			C7.6,11.2,7.4,11,7,10.9c0.1,0.1,0.2,0.3,0.2,0.4c0.1,0.1,0.2,0.2,0.3,0.3c0,0,0,0,0,0c0,0,0,0,0.1,0C7.7,11.6,7.8,11.5,7.8,11.5z
			"/>
		<path d="M12.4,16c-0.1,0.1-0.1,0.1-0.3,0c0,0-0.1,0-0.1,0c-0.2-0.1-0.3-0.2-0.5-0.3s-0.4-0.2-0.5-0.3c-0.1,0-0.1-0.1-0.2-0.1
			c-0.1,0-0.1-0.1-0.2-0.1c-0.5-0.2-1-0.5-1.5-0.7c-0.2-0.1-0.3-0.1-0.5-0.2c-0.2-0.1-0.3-0.1-0.4-0.2C8,14.1,7.8,14,7.6,14
			c-0.2-0.1-0.4-0.2-0.6-0.2c-0.1,0-0.1,0-0.2,0c0,0-0.1,0-0.1,0s-0.1,0-0.1,0c-0.1,0-0.2-0.1-0.3-0.1c-0.1,0-0.2-0.1-0.3-0.1
			c-0.1,0-0.2-0.1-0.2-0.1c-0.1,0-0.1,0-0.2,0s-0.1,0-0.1,0c0,0,0,0.1,0.2,0.2C5.8,13.8,5.9,14,6,14.1c0.1,0.1,0.3,0.3,0.5,0.5
			c0,0,0,0.1,0.1,0.1c0,0,0.1,0.1,0.1,0.1c0,0,0,0-0.1,0c-0.1,0-0.1,0-0.1,0c0,0-0.1-0.1-0.3-0.2s-0.3-0.3-0.5-0.4
			c-0.2-0.1-0.4-0.3-0.6-0.4c-0.2-0.1-0.3-0.2-0.3-0.3c-0.1-0.2-0.2-0.3-0.3-0.5c0-0.1,0-0.2,0-0.3c0,0,0-0.1,0.1-0.1
			c0,0,0-0.1,0.1-0.1c0.1-0.1,0.2-0.2,0.3-0.2c0.1,0,0.1,0,0.1,0c0,0,0.1,0,0.1,0c0.2,0,0.3,0.1,0.5,0.1c0.2,0,0.3,0.1,0.5,0.1
			c0.1,0,0.1,0,0.2,0c0.1,0,0.1,0,0.2,0c0,0,0.1,0,0.1,0c0,0,0.1,0,0.2,0s0.1,0,0.2,0c0,0,0.1,0,0.2,0s0.2,0.1,0.3,0.1
			c0.1,0,0.2,0.1,0.3,0.1c0.1,0,0.2,0.1,0.2,0.1c0,0-0.1,0-0.2,0c-0.1,0-0.2,0-0.3-0.1c-0.1,0-0.2-0.1-0.3-0.1c-0.1,0-0.2,0-0.2,0
			c0,0,0,0.1,0,0.1c0,0,0,0,0.1,0C7.5,12.9,7.8,13,8,13.1c0.2,0.1,0.5,0.1,0.7,0.2c0.1,0,0.1,0,0.2,0c0.1,0,0.1,0,0.2,0c0,0,0,0,0,0
			s0,0,0,0c0.1,0,0.2,0,0.2,0c0.1,0,0.1,0.1,0.2,0.1c0.1,0,0.2,0.1,0.3,0.1c0.1,0,0.2,0.1,0.3,0.1c-0.1,0-0.3,0-0.4-0.1
			c-0.1-0.1-0.3-0.1-0.5-0.1c0.1,0.1,0.2,0.1,0.3,0.1c0.1,0,0.2,0.1,0.3,0.1c0.2,0.1,0.3,0.2,0.5,0.2c0.2,0.1,0.4,0.1,0.6,0.2
			c0.1,0,0.2,0.1,0.3,0.1c0.1,0,0.2,0.1,0.3,0.1c0.2,0.1,0.3,0.1,0.4,0.3c0,0,0.1,0,0.1,0.1s0.1,0,0.1,0.1c0.2,0.1,0.3,0.2,0.3,0.5
			c0,0.1,0,0.2,0,0.3s0,0.2,0,0.3C12.5,15.9,12.5,16,12.4,16z"/>
	</g>
</g>
</svg>
