<?xml version="1.0" encoding="utf-8"?>
<!-- Generator: Adobe Illustrator 27.7.0, SVG Export Plug-In . SVG Version: 6.00 Build 0)  -->
<svg version="1.1" id="Layer_2_00000018229430516267257930000017371150863923237777_"
	 xmlns="http://www.w3.org/2000/svg" xmlns:xlink="http://www.w3.org/1999/xlink" x="0px" y="0px" viewBox="0 0 13.1 47.7"
	 style="enable-background:new 0 0 13.1 47.7;" xml:space="preserve">
<style type="text/css">
	.st0{enable-background:new    ;}
</style>
<g id="Layer_1-2">
	<g class="st0">
		<path d="M4.8,5.9c0-0.1,0-0.2,0-0.2s0-0.1,0.1-0.2c-0.1,0-0.1,0-0.1,0c0,0-0.1,0-0.1,0c0-0.1,0-0.2,0-0.3s0-0.2,0-0.3
			c0.1,0,0.1,0,0.1,0.1s0,0.1,0,0.2C5,4.9,5,4.7,5,4.5C5,4.3,5,4.1,4.9,4c0,0.1,0,0.2,0,0.2c0,0.1,0,0.1-0.1,0.2c0-0.1,0-0.3,0-0.4
			c0-0.1,0-0.3,0-0.4c0,0,0-0.1,0-0.1c0-0.1,0-0.1,0-0.1L4.6,3.8c0-0.1,0-0.2,0-0.3c0-0.1,0-0.2,0-0.3c0-0.4,0-0.7-0.1-1.1
			c-0.1-0.3-0.2-0.7-0.4-1C4.1,1,4,0.8,4.1,0.7c0-0.1,0-0.2,0.1-0.3c0.1-0.1,0.2-0.2,0.3-0.2c0.1-0.1,0.2-0.1,0.3-0.1
			C4.9,0,5,0,5.1,0c0.2,0,0.3,0.1,0.5,0.1s0.3,0.1,0.5,0.2c0.2,0.1,0.4,0.2,0.6,0.3c0.2,0.1,0.4,0.2,0.7,0.3c0,0,0,0,0-0.1
			c0,0,0-0.1,0-0.1c0,0,0.1,0,0.1,0c0,0,0,0,0.1,0c0.2,0.1,0.3,0.1,0.4,0.2C8.2,1,8.4,1.1,8.5,1.2c-0.1,0-0.1,0-0.2,0
			c-0.1,0-0.1,0-0.2,0c0.2,0.1,0.3,0.2,0.5,0.2c0-0.1-0.1-0.1-0.1-0.1c0.1,0,0.1-0.1,0.2-0.1c0.1,0,0.1,0,0.2,0
			c0.2,0.1,0.4,0.1,0.6,0.2c0.2,0.1,0.4,0.1,0.6,0.2l0.1,0.1c-0.1,0-0.2-0.1-0.4-0.1c-0.1,0-0.3-0.1-0.4-0.1c0,0.1,0.1,0.1,0.1,0.1
			c0,0-0.1,0-0.1,0c0,0-0.1,0-0.1,0c0.2,0.1,0.4,0.2,0.6,0.2c0.2,0.1,0.4,0.2,0.6,0.3c0,0,0.1,0,0.1,0c0,0,0.1,0,0.1,0
			c0.2,0.1,0.4,0.2,0.6,0.3c0,0,0.1,0,0.1,0c0.1,0,0.1,0,0.2,0c0,0,0.1,0.1,0.1,0.1c0,0,0.1,0,0.1,0.1c0,0,0.1,0,0.2,0.1
			s0.1,0.1,0.2,0.1c0,0,0.1,0.1,0.1,0.1c0.1,0,0.1,0.1,0.2,0.1s0.1,0.1,0.1,0.1c0.1,0.1,0.1,0.2-0.1,0.4c-0.1,0.1-0.1,0.1-0.2,0.2
			S12,3.7,11.9,3.7c-0.1,0.1-0.3,0.2-0.4,0.3c-0.1,0-0.3,0-0.4-0.1c-0.3-0.1-0.5-0.3-0.7-0.4S9.9,3.2,9.6,3.1
			C9.2,2.9,8.8,2.7,8.3,2.5C7.9,2.3,7.5,2.1,7,1.9C6.9,1.8,6.8,1.8,6.7,1.7c-0.1,0-0.3-0.1-0.4-0.1c-0.1,0-0.1,0-0.2-0.1
			C6.1,1.5,6,1.5,6,1.5L4.8,1.1C4.9,1.2,4.9,1.4,5,1.6C5.1,1.8,5.2,2,5.3,2.2S5.4,2.7,5.5,3c0.1,0.3,0.2,0.6,0.2,0.8
			c0.1,0.3,0.1,0.5,0.2,0.7S6,5,6,5.1c0,0.3-0.1,0.5-0.2,0.6S5.5,6,5.3,6.1C5.2,6.1,5,6.1,4.9,6.1c-0.1,0-0.2,0-0.2,0
			c0,0,0-0.1,0-0.1C4.7,6,4.7,6,4.8,5.9C4.8,5.9,4.8,5.9,4.8,5.9z M4.6,4.5c0,0.1,0,0.2,0,0.3C4.6,4.9,4.5,5,4.5,5.1
			c0-0.1,0-0.2,0.1-0.3C4.6,4.7,4.6,4.6,4.6,4.5L4.6,4.5L4.6,4.5L4.6,4.5z M10.2,2.3L10.2,2.3L10.2,2.3L10.2,2.3L10.2,2.3z
			 M10.7,2.4c-0.1,0-0.1,0-0.2,0s-0.2,0-0.2-0.1C10.3,2.4,10.5,2.4,10.7,2.4z M10.7,2.8c0.1,0,0.1,0,0.2,0c-0.1-0.1-0.2-0.1-0.3-0.1
			c-0.1,0-0.2-0.1-0.3-0.1c0,0,0.1,0.1,0.1,0.1c0,0,0.1,0.1,0.1,0.1C10.6,2.7,10.7,2.8,10.7,2.8z M11.3,2.7c0.1,0,0.1,0.1,0.2,0.1
			c0.1,0,0.1,0,0.2,0.1c0,0-0.1-0.1-0.1-0.1C11.5,2.7,11.4,2.7,11.3,2.7L11.3,2.7z M11.7,2.9L11.7,2.9L11.7,2.9L11.7,2.9L11.7,2.9
			C11.7,2.9,11.7,2.9,11.7,2.9z M12,3c0,0-0.1,0-0.1,0c0,0-0.1,0-0.1,0c0,0,0.1,0,0.1,0.1C11.9,3,11.9,3,12,3L12,3z"/>
		<path d="M6.7,11c0,0,0,0.1-0.1,0.1c-0.1,0-0.1,0-0.2,0c0,0-0.1-0.1-0.3-0.2c-0.1-0.1-0.3-0.2-0.5-0.4c-0.2-0.1-0.3-0.3-0.5-0.4
			C5.1,10,5,9.9,5,9.8c0-0.1-0.1-0.2-0.1-0.3c0-0.1,0-0.2,0-0.3c0-0.1,0-0.2,0.1-0.2C4.9,8.9,5,8.9,5,8.8c0.1,0,0.1-0.1,0.2-0.1
			c0.1,0,0.2,0,0.3-0.1c0.1,0,0.2,0,0.3,0L5.6,8.3c0,0,0-0.1,0-0.1c0,0,0-0.1,0-0.1C5.4,8,5.3,7.9,5.3,7.8c0-0.1-0.1-0.2-0.1-0.3
			c0-0.1,0-0.2,0-0.4c0-0.1,0.1-0.2,0.2-0.3c0.1-0.1,0.1-0.2,0.2-0.3c0.1-0.1,0.2-0.1,0.3-0.1c0.2,0,0.3,0,0.5,0s0.3,0,0.5,0
			c0.3,0.1,0.5,0.2,0.7,0.4c0,0,0.1,0.1,0.1,0.1c0,0,0,0,0.1,0.1s0,0,0.1,0.1c0,0,0,0,0,0c0,0,0,0,0,0c0,0-0.1,0-0.1-0.1
			c0,0,0,0,0,0.1c0,0,0,0,0,0c0,0,0.1,0.1,0.1,0.1c0,0,0.1,0.1,0.1,0.1c0,0,0,0.1,0,0.1c0,0,0,0-0.1,0c0,0,0-0.1-0.1-0.1
			c0,0,0,0,0,0v0c0,0,0.1,0.1,0.1,0.1c0,0,0.1,0,0.1,0c0-0.1,0-0.2,0-0.3c0.1,0,0.1,0.1,0.1,0.2c0,0.1,0,0.2,0,0.3S8,7.9,8,8
			c0,0,0,0.1,0,0.1c0,0,0,0,0,0.1c0,0,0,0,0,0c0,0,0,0,0,0c0,0,0-0.1,0-0.1s0-0.1,0-0.1s0-0.1,0-0.1c0,0,0,0,0,0c0,0,0,0,0,0V8
			c0,0,0,0.1,0,0.2c0,0.1,0,0.2-0.1,0.3c0,0.1-0.1,0.2-0.1,0.3c0,0.1-0.1,0.2-0.2,0.2C7.6,9,7.6,9,7.6,9c0,0,0.1,0.1,0.2,0.1
			c0,0,0.1,0,0.1,0.1s0.1,0,0.1,0.1c0,0,0,0,0,0c0,0,0,0,0,0c0,0.1,0.1,0.2,0,0.3c0,0.1-0.1,0.2-0.2,0.3c0,0-0.1,0.1-0.1,0.1
			C7.9,10,7.9,10,8,10.1c0.1,0,0.1,0,0.2,0.1c0,0,0,0,0,0c0,0,0,0,0,0c-0.1,0-0.3-0.1-0.4-0.1C7.6,10,7.4,10,7.3,10
			C7.2,9.9,7,9.9,6.9,9.8C6.7,9.8,6.5,9.7,6.4,9.6c-0.1,0-0.2-0.1-0.3-0.1C6,9.5,6,9.5,5.9,9.5s-0.2,0-0.2,0c-0.1,0-0.1,0-0.1,0
			c0.1,0,0.1,0,0.2,0.1c0.1,0,0.1,0,0.2,0.1c0,0,0.1,0,0.1,0c0,0,0.1,0,0.1,0c0,0,0,0,0,0c0,0,0,0,0,0h0l0.1,0.1
			c0.1,0,0.1,0.1,0.1,0.1c0,0,0,0-0.1,0S6.2,9.8,6.2,9.8c0,0,0,0-0.1,0c0,0,0,0-0.1,0c-0.1,0-0.1,0-0.2,0s-0.1,0-0.1,0
			c-0.1,0-0.1,0,0,0.1C5.7,9.9,5.8,10,6,10.2c0.1,0.1,0.2,0.3,0.4,0.4s0.2,0.2,0.3,0.3S6.7,11,6.7,11z M7.1,8.5c0,0,0.1,0.1,0.1,0.1
			s0.1,0.1,0.1,0.1c0,0,0.1-0.1,0.1-0.1c0.1-0.1,0.1-0.3,0-0.4C7.3,8.1,7.2,8.1,7.1,8C7.1,7.9,7,7.8,6.9,7.8C6.7,7.4,6.4,7.2,6,7.2
			c0,0-0.1,0-0.1,0c0,0.1,0.1,0.2,0.2,0.3C6.3,7.9,6.7,8.2,7.1,8.5z"/>
		<path d="M6.8,16.9C6.8,16.9,6.8,16.9,6.8,16.9C6.8,16.9,6.7,16.9,6.8,16.9C6.7,17,6.6,17,6.6,17s-0.1,0-0.1,0c0,0-0.1-0.1-0.2-0.1
			c-0.1,0-0.1-0.1-0.2-0.1c0,0-0.1,0-0.1,0c0,0-0.1,0-0.1,0c0,0-0.1-0.1-0.1-0.1c0,0-0.1,0-0.1-0.1c0,0-0.1-0.1-0.1-0.1
			c0,0-0.1-0.1-0.1-0.1c-0.1-0.1-0.3-0.2-0.4-0.3C5,16.1,4.8,16,4.7,15.9c-0.1-0.1-0.2-0.1-0.2-0.2c-0.1-0.1-0.1-0.1-0.2-0.2
			s-0.1-0.2,0-0.3c0-0.1,0-0.2,0.1-0.3c0.1-0.1,0.1-0.2,0.2-0.2c0.1-0.1,0.3-0.1,0.5,0c0.5,0.1,1,0.2,1.4,0.4s0.9,0.3,1.4,0.5
			c0-0.2-0.1-0.4-0.3-0.6c-0.2-0.1-0.3-0.3-0.5-0.4c-0.2-0.1-0.3-0.2-0.5-0.3c-0.1,0-0.1-0.1-0.2-0.1s-0.1-0.1-0.2-0.1
			c-0.1,0-0.2-0.1-0.2-0.3c0-0.1,0-0.2,0-0.4c0.1-0.2,0.2-0.3,0.5-0.3c0.1,0,0.2,0,0.3,0c0.1,0,0.2,0,0.3,0.1c0.1,0,0.2,0,0.1,0
			c-0.1-0.1-0.1-0.2-0.3-0.3s-0.3-0.2-0.4-0.3c-0.1-0.1-0.2-0.2-0.3-0.2c-0.1-0.1-0.2-0.1-0.3-0.2C5.9,12.1,5.8,12,5.7,12
			c-0.1-0.1-0.3-0.1-0.4-0.2c-0.1-0.1-0.3-0.2-0.4-0.2c0,0,0-0.1,0-0.1c0-0.2,0-0.3,0.1-0.4c0.1-0.1,0.2-0.2,0.4-0.2
			c0.1,0,0.2,0,0.3,0c0.1,0,0.2,0,0.3,0c0,0,0,0,0,0l0,0c0-0.1,0.1-0.1,0.2-0.1c0.1,0,0.3,0.1,0.4,0.1c0.1,0,0.3,0.1,0.4,0.1
			c0.2,0,0.3,0.1,0.5,0.1s0.3,0.1,0.5,0.1c0.1,0,0.2,0.1,0.3,0.1c0.1,0,0.2,0.1,0.3,0.1c0,0,0,0,0.1,0c0,0,0.1,0,0.1,0.1
			c0,0-0.1,0-0.1,0c-0.2,0-0.3-0.1-0.5-0.1c-0.2-0.1-0.3-0.1-0.5-0.2c-0.1,0-0.3-0.1-0.4,0c0,0,0,0,0,0c0,0,0,0,0,0
			c0.2,0.1,0.4,0.1,0.6,0.2c0.2,0.1,0.4,0.2,0.6,0.3c0.1,0.1,0.2,0.2,0.3,0.3s0.1,0.3,0.1,0.5c0,0.1-0.1,0.2-0.3,0.3
			c-0.4-0.2-0.8-0.3-1.2-0.4c0,0,0,0,0,0.1s0,0,0,0.1C7.6,12.6,7.8,12.8,8,13s0.3,0.4,0.3,0.7c0,0.1,0,0.1,0,0.2
			c0,0.1,0,0.1-0.1,0.2c-0.1,0.1-0.1,0.1-0.2,0.1c-0.1,0-0.2,0-0.4-0.1c0,0,0,0,0,0s0,0,0,0c0,0,0,0,0,0.1c0.2,0.1,0.3,0.3,0.4,0.5
			c0.1,0.2,0.2,0.4,0.3,0.6c0,0.1,0.1,0.2,0.1,0.3c0,0.1,0,0.2,0,0.3c0,0.1,0,0.1-0.1,0.2c0,0-0.1,0.1-0.1,0.1
			c-0.1,0.1-0.1,0.1-0.3,0.1c-0.1,0-0.2,0-0.3,0c-0.2-0.1-0.4-0.1-0.6-0.2c-0.2-0.1-0.4-0.2-0.6-0.3c-0.2-0.1-0.4-0.2-0.6-0.2
			s-0.4-0.1-0.7-0.1c0.1,0.1,0.3,0.2,0.4,0.4c0.2,0.2,0.3,0.3,0.5,0.5c0.2,0.2,0.3,0.3,0.5,0.4S6.7,16.9,6.8,16.9z M6.5,11
			c0.1,0,0.2,0,0.4,0C6.9,11,7,11,7,11c0.1,0,0.1,0,0.2,0v0h0C7,11,6.9,10.9,6.7,10.9c-0.2,0-0.3,0-0.5-0.1c0,0,0,0,0,0
			c0,0,0,0-0.1,0c0.1,0,0.1,0,0.2,0.1C6.4,11,6.4,11,6.5,11z"/>
		<path d="M6.7,19.9c0,0-0.1,0-0.2-0.1c-0.1-0.1-0.2-0.1-0.3-0.3c-0.1-0.1-0.1-0.1-0.2-0.2c0-0.1-0.1-0.1-0.2-0.2
			c0,0-0.1-0.1-0.2-0.1c-0.1,0-0.1-0.1-0.2-0.1c-0.3-0.2-0.5-0.5-0.6-0.8c-0.1-0.1-0.1-0.3-0.1-0.4s0-0.3,0-0.5c0,0,0-0.1,0-0.1
			c0,0,0-0.1,0-0.1C5,17,5,16.9,5.1,16.8c0.1-0.1,0.1-0.2,0.2-0.2c0,0,0.1-0.1,0.1-0.1c0,0,0.1,0,0.1,0c0.2,0,0.3,0,0.5,0
			c0.1,0,0.1,0,0.2,0c0.1,0,0.2,0,0.3,0c0.1,0,0.2,0.1,0.4,0.1c0.1,0.1,0.2,0.1,0.3,0.2c-0.1,0-0.1-0.1-0.2-0.1
			c-0.1,0-0.1-0.1-0.2-0.1c-0.1,0-0.1,0-0.2-0.1c-0.1,0-0.1,0-0.2,0c0.2,0.1,0.3,0.2,0.4,0.2c0.1,0,0.3,0.1,0.4,0.2
			c0.1,0.1,0.2,0.2,0.3,0.2c0.1,0.1,0.2,0.2,0.3,0.2c0,0,0,0.1,0,0.1c0,0,0,0.1,0,0.1c0.1,0.1,0.2,0.3,0.2,0.4
			c0,0.2,0.1,0.3,0.1,0.5c0,0.2,0,0.3-0.1,0.5c0,0,0,0.1,0,0.1c0,0,0,0.1-0.1,0.1c0,0,0,0.1-0.1,0.1c0,0,0,0-0.1,0
			c-0.1,0.1-0.1,0.2-0.2,0.2s-0.2,0-0.2,0c-0.1,0-0.1-0.1-0.2-0.1c-0.1,0-0.1-0.1-0.2-0.1C7.1,19.2,7,19.1,6.9,19s-0.2-0.2-0.2-0.3
			c-0.1-0.2-0.2-0.4-0.2-0.6c0-0.1,0-0.2,0-0.2c0-0.1,0-0.1,0-0.1c0,0-0.1-0.1-0.1-0.1c0,0-0.1,0-0.2-0.1c-0.1,0-0.2-0.1-0.3-0.1
			c-0.1,0-0.2-0.1-0.3-0.1c0,0-0.1,0-0.1,0s-0.1,0-0.1,0c0,0.1,0,0.2,0,0.2c0,0.1,0.1,0.1,0.1,0.2c0.1,0.1,0.1,0.2,0.2,0.4
			c0.1,0.1,0.1,0.2,0.2,0.4c0.1,0.2,0.2,0.3,0.4,0.5s0.3,0.3,0.4,0.5v0c0,0.1,0.1,0.1,0.1,0.1C6.7,19.8,6.7,19.8,6.7,19.9
			C6.8,19.9,6.8,19.9,6.7,19.9z M7.8,18.6C7.6,18.3,7.4,18.1,7,18c0.1,0.1,0.2,0.3,0.2,0.4s0.2,0.2,0.3,0.3c0,0,0,0,0,0
			c0,0,0,0,0.1,0C7.7,18.7,7.8,18.7,7.8,18.6z"/>
		<path d="M8.3,23.9C8.1,24,8,24,7.9,24c-0.1,0-0.3,0-0.5-0.1c-0.2-0.1-0.4-0.2-0.6-0.3c-0.2-0.1-0.4-0.2-0.6-0.3
			c-0.2-0.1-0.3-0.1-0.5-0.2c-0.1,0-0.3-0.1-0.4-0.1c-0.1,0-0.2,0-0.3,0S4.9,23,4.8,23c0,0,0,0-0.1-0.1s0,0-0.1-0.1
			c0-0.1,0.1-0.2,0.2-0.3s0.2-0.1,0.2-0.2c0.1-0.1,0.2-0.1,0.3-0.1c0.2,0,0.5,0,0.7,0c0.2,0,0.5,0.1,0.7,0.2c0.1,0,0.3,0.1,0.4,0.1
			c0.1,0,0.3,0.1,0.4,0.1c0-0.1-0.1-0.2-0.2-0.3c-0.1-0.1-0.2-0.2-0.3-0.2c-0.1-0.1-0.2-0.2-0.3-0.3s-0.2-0.2-0.3-0.3
			c0,0-0.1-0.1-0.1-0.1s-0.1-0.1-0.1-0.1c-0.1-0.1-0.2-0.2-0.3-0.3s-0.2-0.2-0.3-0.3c-0.1-0.1-0.1-0.1-0.2-0.2s-0.1-0.1-0.2-0.2
			c0,0-0.1-0.1-0.1-0.1c0,0,0-0.1-0.1-0.1c-0.1-0.1-0.1-0.1-0.1-0.2c0-0.1,0-0.2,0-0.2c0-0.1,0.1-0.2,0.2-0.2c0.1,0,0.2,0,0.3,0
			s0.2,0,0.3,0c0.1,0,0.1,0,0.2,0c0,0,0.1,0,0.2,0c0.1,0,0.1,0,0.2,0c0.1,0,0.1,0,0.2,0c0.1,0,0.1,0,0.2,0c0.1,0,0.1,0,0.1,0.1
			c0.2,0.1,0.4,0.1,0.6,0.2c0.2,0,0.4,0.1,0.6,0.1c0.1,0,0.2,0,0.3,0.1c0.1,0,0.2,0.1,0.3,0.1c-0.1,0-0.1,0-0.2,0s-0.1-0.1-0.2,0
			c0.1,0.1,0.1,0.1,0.2,0.2c0.1,0.1,0.1,0.1,0.2,0.1c0,0,0,0,0.1,0c0.1,0.1,0.2,0.2,0.2,0.3c0,0,0,0.1,0,0.1c0,0,0,0.1,0,0.1
			c0,0.1,0,0.2,0,0.3s-0.1,0.2-0.2,0.2c-0.1,0.1-0.1,0.1-0.3,0.1c-0.2-0.1-0.4-0.1-0.6-0.2c-0.2-0.1-0.4-0.2-0.6-0.2
			c0,0-0.1,0-0.1-0.1s-0.1,0-0.1,0c0,0,0.1,0.1,0.1,0.1s0.1,0.1,0.1,0.1c0.1,0.1,0.2,0.1,0.2,0.2c0.1,0.1,0.1,0.1,0.2,0.2
			c0.2,0.1,0.3,0.3,0.4,0.5c0.1,0.2,0.2,0.3,0.4,0.5c0.1,0.2,0.2,0.3,0.2,0.5C8.4,23.5,8.4,23.7,8.3,23.9z M6.3,19.8
			c0.1,0,0.2,0.1,0.4,0.1s0.2,0.1,0.4,0.1c-0.1,0-0.3-0.1-0.4-0.1S6.4,19.7,6.3,19.8z M8,22.2c-0.1-0.1-0.1-0.1-0.2-0.2
			c0-0.1-0.1-0.1-0.1-0.2c0.1,0,0.1,0.1,0.2,0.2s0.2,0.2,0.2,0.3c0.1,0.1,0.1,0.2,0.2,0.4c0.1,0.1,0.1,0.2,0.1,0.4
			c0-0.1-0.1-0.1-0.1-0.2c0-0.1-0.1-0.1-0.1-0.2c0-0.1-0.1-0.1-0.1-0.2S8,22.3,8,22.2z M8,20.5c0.1,0,0.1,0,0.1,0c0,0,0.1,0,0.1,0
			c0,0,0,0,0,0s0,0,0,0c0,0-0.1,0-0.1,0S8.1,20.4,8,20.5L8,20.5z"/>
		<path d="M6.7,27.4C6.7,27.5,6.7,27.5,6.7,27.4c-0.1,0.1-0.1,0.1-0.2,0.1c0,0-0.1-0.1-0.3-0.2C6,27.2,5.9,27,5.7,26.8
			c-0.2-0.2-0.4-0.4-0.6-0.5c-0.2-0.2-0.3-0.3-0.4-0.4c-0.1-0.1-0.2-0.2-0.2-0.3c-0.1-0.1-0.1-0.1-0.1-0.2c0-0.1-0.1-0.1-0.1-0.2
			c0,0,0-0.1,0-0.1c0,0,0-0.1,0-0.2c0-0.1,0-0.2,0-0.2c0-0.1,0.1-0.1,0.2-0.2c0.2-0.2,0.5-0.4,0.9-0.4c0.2,0,0.4,0,0.6,0
			c0.2,0,0.4,0.1,0.6,0.1c0.3,0.1,0.6,0.2,0.9,0.3c0,0,0.1,0,0.1,0s0.1,0,0.1,0h0c0,0,0-0.1,0-0.1c0,0-0.1,0-0.2-0.1s-0.2,0-0.2-0.1
			c-0.1,0-0.2-0.1-0.3-0.1c0,0,0,0,0,0c0,0,0,0,0.1,0c0,0,0,0,0.1,0s0.1,0,0.1,0c0,0,0,0,0,0c0.1,0,0.1,0,0.2,0c0,0,0.1,0,0.1,0.1h0
			c0,0,0.1,0,0.2,0.1s0.3,0.1,0.4,0.1c0.2,0,0.3,0.1,0.4,0.1s0.2,0.1,0.2,0.1c0,0,0,0-0.1,0s-0.2,0-0.2-0.1S8,24.6,7.8,24.5
			c0,0,0,0,0,0c0.1,0,0.1,0,0.2,0.1c0.1,0,0.1,0,0.2,0.1c0.1,0,0.2,0.1,0.3,0.1c0.1,0,0.2,0.1,0.3,0.2c0,0,0,0,0.1,0c0,0,0,0,0.1,0
			c0,0,0,0,0-0.1c0,0,0,0,0,0c0,0,0,0,0,0c0,0,0,0,0-0.1C9,24.7,9,24.6,9,24.5c0-0.2,0.2-0.3,0.3-0.3c0.1,0.1,0.2,0.3,0.2,0.4
			c0.1,0.1,0.1,0.3,0.1,0.5c0,0.1,0.1,0.2,0.2,0.3c0,0,0,0-0.1,0c0,0,0,0-0.1,0.1c0,0,0,0,0,0.1c0,0.1,0.1,0.1,0.1,0.1
			c0,0,0,0,0.1,0c0,0,0.1,0,0.1,0c0,0,0,0,0,0.1c0,0,0,0,0.1,0.1c0,0,0,0,0.1,0c0,0,0,0-0.1,0c0,0-0.1,0-0.1,0c0,0-0.1,0-0.2-0.1
			c0,0,0,0,0.1,0c0,0,0.1,0,0.2,0c0.1,0,0.1,0,0.2,0s0.1,0,0.1,0c0,0,0.1,0,0.1,0h0c0,0,0,0,0,0c0,0,0,0,0.1,0.1s0.2,0.1,0.3,0.1
			s0.2,0.1,0.2,0.1s0.1,0.1,0.1,0.1c0,0,0,0-0.1,0s-0.1,0-0.1-0.1c0,0-0.1,0-0.1-0.1c0,0-0.1,0-0.1,0c0,0-0.1,0-0.1,0c0,0,0,0-0.1,0
			c0,0,0,0-0.1,0c0,0,0,0,0-0.1c0,0-0.1,0-0.2,0c0,0,0,0-0.1,0c0,0,0,0.1,0,0.1c0,0,0.1,0,0.1,0c0.1,0.1,0.2,0.1,0.3,0.2
			s0.2,0.1,0.3,0.2c0.1,0.1,0.2,0.1,0.2,0.2c0,0.1,0,0.3,0,0.4c0,0.1-0.1,0.3-0.3,0.4c-0.1,0-0.2,0-0.3-0.1c-0.1,0-0.2-0.1-0.3-0.1
			c-0.1,0-0.2-0.1-0.3-0.1c-0.1-0.1-0.2-0.1-0.3-0.1c0,0.1-0.1,0.1,0,0.2s0,0.1,0,0.2c0,0,0,0.1,0,0.1c0,0,0,0.1,0,0.1
			c0,0,0,0.1-0.1,0.1s-0.1,0-0.1,0c0,0,0,0-0.1,0c0,0,0,0,0-0.1c0-0.1-0.1-0.1-0.1-0.2c0-0.1,0-0.1-0.1-0.2c0-0.1-0.1-0.1-0.1-0.2
			c0-0.1,0-0.2-0.1-0.2c-0.2-0.1-0.4-0.2-0.5-0.2S8.4,26.1,8.2,26c-0.2-0.1-0.3-0.2-0.5-0.2c-0.2-0.1-0.4-0.1-0.5-0.2
			c-0.2-0.1-0.5-0.2-0.7-0.3c-0.2-0.1-0.5-0.1-0.7-0.2c-0.1,0-0.2,0-0.3-0.1c-0.1,0-0.2,0-0.3,0H5c-0.1,0-0.1,0.1-0.2,0.1
			c0,0,0,0.1,0,0.1c0,0,0,0.1,0,0.1c0,0,0,0.1,0.1,0.1c0,0,0.1,0.1,0.2,0.2c0.1,0.1,0.2,0.2,0.3,0.3s0.3,0.3,0.4,0.4
			c0.1,0.1,0.3,0.3,0.4,0.4s0.2,0.2,0.3,0.3C6.6,27.3,6.7,27.4,6.7,27.4z"/>
		<path d="M6.7,32c0,0,0,0.1-0.1,0.1c-0.1,0-0.1,0-0.2,0c0,0-0.1-0.1-0.3-0.2c-0.1-0.1-0.3-0.2-0.5-0.4S5.4,31.2,5.2,31
			C5.1,30.9,5,30.8,5,30.7s-0.1-0.2-0.1-0.3c0-0.1,0-0.2,0-0.3s0-0.2,0.1-0.2c0-0.1,0.1-0.1,0.1-0.2c0.1,0,0.1-0.1,0.2-0.1
			c0.1,0,0.2,0,0.3-0.1c0.1,0,0.2,0,0.3,0l-0.3-0.4c0,0,0-0.1,0-0.1c0,0,0-0.1,0-0.1c-0.1-0.1-0.1-0.2-0.2-0.3
			c0-0.1-0.1-0.2-0.1-0.3c0-0.1,0-0.2,0-0.4c0-0.1,0.1-0.2,0.2-0.3s0.1-0.2,0.2-0.3c0.1-0.1,0.2-0.1,0.3-0.1c0.2,0,0.3,0,0.5,0
			s0.3,0,0.5,0c0.3,0.1,0.5,0.2,0.7,0.4c0,0,0.1,0.1,0.1,0.1c0,0,0,0,0.1,0.1c0,0,0,0,0.1,0.1c0,0,0,0,0,0c0,0,0,0,0,0
			c0,0-0.1,0-0.1-0.1c0,0,0,0,0,0.1c0,0,0,0,0,0c0,0,0.1,0.1,0.1,0.1c0,0,0.1,0.1,0.1,0.1c0,0,0,0.1,0,0.1c0,0,0,0-0.1,0
			s0-0.1-0.1-0.1c0,0,0,0,0,0v0c0,0,0.1,0.1,0.1,0.1c0,0,0.1,0,0.1,0c0-0.1,0-0.2,0-0.3c0.1,0,0.1,0.1,0.1,0.2c0,0.1,0,0.2,0,0.3
			c0,0.1,0,0.2,0,0.3c0,0,0,0.1,0,0.1c0,0,0,0,0,0.1s0,0,0,0c0,0,0,0,0,0c0,0,0-0.1,0-0.1s0-0.1,0-0.1s0-0.1,0-0.1c0,0,0,0,0,0
			c0,0,0,0,0,0v0.1c0,0,0,0.1,0,0.2c0,0.1,0,0.2-0.1,0.3c0,0.1-0.1,0.2-0.1,0.3s-0.1,0.2-0.2,0.2c0,0.1,0,0.1,0.1,0.1S7.7,30,7.8,30
			c0,0,0.1,0,0.1,0.1c0.1,0,0.1,0,0.1,0.1c0,0,0,0,0,0c0,0,0,0,0,0c0,0.1,0.1,0.2,0,0.3S8,30.7,7.9,30.8c0,0-0.1,0.1-0.1,0.1
			C7.9,30.9,7.9,31,8,31c0.1,0,0.1,0,0.2,0.1c0,0,0,0,0,0s0,0,0,0c-0.1,0-0.3-0.1-0.4-0.1s-0.2-0.1-0.4-0.1
			c-0.2-0.1-0.3-0.1-0.5-0.2c-0.2-0.1-0.3-0.1-0.5-0.2c-0.1,0-0.2-0.1-0.3-0.1c-0.1,0-0.2,0-0.3-0.1c-0.1,0-0.2,0-0.2,0
			c-0.1,0-0.1,0-0.1,0c0.1,0,0.1,0,0.2,0.1c0.1,0,0.1,0,0.2,0.1c0,0,0.1,0,0.1,0c0,0,0.1,0,0.1,0c0,0,0,0,0,0c0,0,0,0,0,0h0l0.1,0.1
			c0.1,0,0.1,0.1,0.1,0.1c0,0,0,0-0.1,0s-0.1-0.1-0.2-0.1c0,0,0,0-0.1,0c0,0,0,0-0.1,0c-0.1,0-0.1,0-0.2,0c-0.1,0-0.1,0-0.1,0
			c-0.1,0-0.1,0,0,0.1C5.7,30.8,5.8,31,6,31.1c0.1,0.1,0.2,0.3,0.4,0.4s0.2,0.2,0.3,0.3S6.7,32,6.7,32z M7.1,29.5
			c0,0,0.1,0.1,0.1,0.1c0,0,0.1,0.1,0.1,0.1c0,0,0.1-0.1,0.1-0.1c0.1-0.1,0.1-0.3,0-0.4c-0.1-0.1-0.1-0.2-0.2-0.2
			c-0.1-0.1-0.1-0.1-0.2-0.2c-0.3-0.3-0.6-0.5-1-0.6c0,0-0.1,0-0.1,0c0,0.1,0.1,0.2,0.2,0.3C6.3,28.8,6.7,29.2,7.1,29.5z"/>
		<path d="M6.7,35.1C6.7,35.2,6.7,35.2,6.7,35.1c-0.1,0.1-0.1,0.1-0.2,0.1c0,0-0.1-0.1-0.3-0.2c-0.2-0.1-0.3-0.3-0.5-0.5
			c-0.2-0.2-0.4-0.4-0.6-0.5c-0.2-0.2-0.3-0.3-0.4-0.4c-0.1-0.1-0.2-0.2-0.2-0.3c-0.1-0.1-0.1-0.1-0.1-0.2c0-0.1-0.1-0.1-0.1-0.2
			c0,0,0-0.1,0-0.1c0,0,0-0.1,0-0.2c0-0.1,0-0.2,0-0.2s0.1-0.1,0.2-0.2c0.2-0.2,0.5-0.4,0.9-0.4c0.2,0,0.4,0,0.6,0
			c0.2,0,0.4,0.1,0.6,0.1C6.7,31.9,7,32,7.3,32.2c0,0,0.1,0,0.1,0c0,0,0.1,0,0.1,0h0c0,0,0-0.1,0-0.1c0,0-0.1,0-0.2-0.1
			c-0.1,0-0.2,0-0.2-0.1C7,32,6.9,32,6.8,31.9c0,0,0,0,0,0c0,0,0,0,0.1,0c0,0,0,0,0.1,0s0.1,0,0.1,0c0,0,0,0,0,0c0.1,0,0.1,0,0.2,0
			c0,0,0.1,0,0.1,0.1h0c0,0,0.1,0,0.2,0.1s0.3,0.1,0.4,0.1c0.2,0,0.3,0.1,0.4,0.1s0.2,0.1,0.2,0.1c0,0,0,0-0.1,0
			c-0.1,0-0.2,0-0.2-0.1c-0.1,0-0.2-0.1-0.4-0.1c0,0,0,0,0,0c0.1,0,0.1,0,0.2,0.1c0.1,0,0.1,0,0.2,0.1c0.1,0,0.2,0.1,0.3,0.1
			c0.1,0,0.2,0.1,0.3,0.2c0,0,0,0,0.1,0c0,0,0,0,0.1,0c0,0,0,0,0-0.1c0,0,0,0,0,0c0,0,0,0,0,0c0,0,0,0,0-0.1C9,32.5,9,32.4,9,32.2
			c0-0.2,0.2-0.3,0.3-0.3c0.1,0.1,0.2,0.3,0.2,0.4c0.1,0.1,0.1,0.3,0.1,0.5c0,0.1,0.1,0.2,0.2,0.3c0,0,0,0-0.1,0c0,0,0,0-0.1,0.1
			c0,0,0,0,0,0.1c0,0.1,0.1,0.1,0.1,0.1c0,0,0,0,0.1,0c0,0,0.1,0,0.1,0c0,0,0,0,0,0.1c0,0,0,0,0.1,0.1c0,0,0,0,0.1,0c0,0,0,0-0.1,0
			c0,0-0.1,0-0.1,0c0,0-0.1,0-0.2-0.1c0,0,0,0,0.1,0c0,0,0.1,0,0.2,0c0.1,0,0.1,0,0.2,0s0.1,0,0.1,0c0,0,0.1,0,0.1,0h0c0,0,0,0,0,0
			c0,0,0,0,0.1,0.1s0.2,0.1,0.3,0.1s0.2,0.1,0.2,0.1s0.1,0.1,0.1,0.1c0,0,0,0-0.1,0s-0.1,0-0.1-0.1c0,0-0.1,0-0.1-0.1
			c0,0-0.1,0-0.1,0c0,0-0.1,0-0.1,0c0,0,0,0-0.1,0c0,0,0,0-0.1,0c0,0,0,0,0-0.1c0,0-0.1,0-0.2,0c0,0,0,0-0.1,0c0,0,0,0.1,0,0.1
			c0,0,0.1,0,0.1,0c0.1,0.1,0.2,0.1,0.3,0.2s0.2,0.1,0.3,0.2c0.1,0.1,0.2,0.1,0.2,0.2c0,0.1,0,0.3,0,0.4c0,0.1-0.1,0.3-0.3,0.4
			c-0.1,0-0.2,0-0.3-0.1c-0.1,0-0.2-0.1-0.3-0.1c-0.1,0-0.2-0.1-0.3-0.1c-0.1-0.1-0.2-0.1-0.3-0.1c0,0.1-0.1,0.1,0,0.2s0,0.1,0,0.2
			c0,0,0,0.1,0,0.1c0,0,0,0.1,0,0.1c0,0,0,0.1-0.1,0.1s-0.1,0-0.1,0c0,0,0,0-0.1,0c0,0,0,0,0-0.1c0-0.1-0.1-0.1-0.1-0.2
			c0-0.1,0-0.1-0.1-0.2c0-0.1-0.1-0.1-0.1-0.2c0-0.1,0-0.2-0.1-0.2c-0.2-0.1-0.4-0.2-0.5-0.2s-0.3-0.2-0.5-0.2
			c-0.2-0.1-0.3-0.2-0.5-0.2c-0.2-0.1-0.4-0.1-0.5-0.2C7,33.2,6.7,33.1,6.5,33C6.3,33,6,32.9,5.8,32.9c-0.1,0-0.2,0-0.3-0.1
			c-0.1,0-0.2,0-0.3,0H5c-0.1,0-0.1,0.1-0.2,0.1c0,0,0,0.1,0,0.1c0,0,0,0.1,0,0.1c0,0,0,0.1,0.1,0.1c0,0,0.1,0.1,0.2,0.2
			c0.1,0.1,0.2,0.2,0.3,0.3s0.3,0.3,0.4,0.4c0.1,0.1,0.3,0.3,0.4,0.4s0.2,0.2,0.3,0.3C6.6,35,6.7,35.1,6.7,35.1z"/>
		<path d="M4.9,35.1c0-0.1,0.1-0.1,0.3-0.2s0.3-0.1,0.5-0.1c0,0,0.1,0,0.1,0s0.1,0,0.1,0c0.1,0,0.3,0.1,0.4,0.1S6.5,35,6.6,35
			c0.2,0.1,0.4,0.1,0.6,0.2c0.2,0.1,0.4,0.1,0.6,0.2c0,0,0,0,0.1,0s0,0,0.1,0c0,0.2,0,0.3,0,0.4c0,0.1-0.1,0.3-0.2,0.4
			c0,0-0.1,0-0.1,0s-0.1,0-0.1,0c-0.1,0-0.1,0-0.2,0c-0.1,0-0.1,0-0.2,0c0,0-0.1,0-0.1,0c0,0,0,0,0,0h0c0,0,0,0,0,0
			c0.1,0,0.2,0.1,0.3,0.1c0.1,0,0.1,0,0.2,0.1c0.1,0,0.1,0,0.1,0c0,0,0,0-0.1,0c-0.1,0-0.1,0-0.2-0.1c-0.1,0-0.2,0-0.2-0.1
			c-0.1,0-0.1,0-0.1,0s0,0,0,0c0,0,0.1,0,0.1,0c0,0,0.1,0,0.1,0.1c0,0,0,0,0,0c0,0-0.1,0-0.2-0.1s-0.3-0.1-0.4-0.2
			C6.4,36.1,6.2,36,6,35.9c-0.1,0-0.2-0.1-0.3-0.1c-0.1,0-0.2,0-0.2,0c-0.1,0-0.1,0-0.1,0c0,0,0,0,0,0c0,0,0,0,0,0c0,0,0.1,0,0.1,0
			c0,0,0.1,0,0.1,0.1H5.4c0,0,0,0.1,0,0.1c0.2,0.3,0.5,0.6,0.8,0.8C6.2,36.9,6.3,37,6.4,37c0.1,0.1,0.1,0.1,0.2,0.2c0,0,0,0,0,0.1
			s0,0.1,0,0.1c0,0,0,0-0.1,0c0,0-0.1,0-0.2-0.1s-0.1,0-0.2-0.1s-0.1,0-0.1-0.1c0,0-0.1-0.1-0.2-0.2s-0.2-0.2-0.3-0.3
			c-0.1-0.1-0.3-0.3-0.5-0.4L5,36.1C5,36,4.9,36,4.9,35.9c0-0.1-0.1-0.1-0.1-0.1c0-0.1,0-0.2,0-0.3C4.8,35.3,4.8,35.2,4.9,35.1z
			 M8.8,35.7c0,0.1,0,0.1,0,0.2s0,0.1,0,0.1c0,0.2,0,0.3-0.1,0.4c-0.1,0.1-0.1,0.1-0.2,0.1c-0.1,0-0.2-0.1-0.3-0.2
			c-0.1-0.1-0.1-0.2,0-0.3c0-0.1,0-0.2,0.1-0.3c0-0.1,0-0.1,0.1-0.2s0.1,0,0.2,0C8.6,35.6,8.7,35.6,8.8,35.7z"/>
		<path d="M6.6,40.5L6.6,40.5C6.6,40.6,6.6,40.7,6.6,40.5c-0.1,0.1-0.1,0-0.2-0.1c-0.1-0.1-0.1-0.3-0.1-0.5
			c-0.1-0.1-0.2-0.1-0.3-0.1c-0.2-0.1-0.3-0.2-0.5-0.4c-0.1-0.1-0.1-0.2-0.2-0.2c-0.1-0.1-0.1-0.2-0.2-0.2c-0.1-0.1-0.1-0.2-0.1-0.3
			S5,38.4,5,38.4c0,0,0-0.1,0-0.1s0-0.1,0-0.1c0,0,0-0.1,0.1-0.2c0-0.1,0-0.1,0.1-0.2c0,0,0.1-0.1,0.1-0.1c0,0,0.1-0.1,0.1-0.1
			c0-0.1,0.1-0.1,0.2-0.2c0.1-0.1,0.1-0.1,0.2-0.1c0,0,0.1,0,0.1,0c0,0,0.1,0,0.1-0.1c0.1-0.1,0.2-0.1,0.3-0.1c0.1,0,0.2,0,0.3,0
			s0.2,0,0.2,0c0.1,0,0.2,0.1,0.3,0.1c0.1,0,0.2,0,0.3,0.1c0.2,0,0.5,0.2,0.7,0.4l0,0c0,0,0,0,0,0c-0.1,0-0.2-0.1-0.3-0.1
			c-0.1-0.1-0.2-0.1-0.3-0.1h0c0,0,0.1,0,0.1,0.1c0.1,0,0.1,0.1,0.2,0.1c0.1,0,0.2,0.1,0.2,0.1s0.1,0.1,0.2,0.1s0.1,0,0.1,0.1
			c0,0,0,0,0,0c0,0-0.1,0-0.1,0c0,0-0.1,0-0.1,0c0,0-0.1,0-0.1-0.1c-0.1,0-0.1,0-0.2,0c0,0,0,0,0,0l0,0c0,0,0.1,0.1,0.1,0.1
			c0.1,0,0.1,0.1,0.1,0.1c0,0-0.1,0-0.1,0s-0.1,0-0.1,0c0.1,0.1,0.2,0.1,0.3,0.2s0.2,0.1,0.3,0.2c0,0.1,0,0.2,0.1,0.3
			c0,0.1,0.1,0.2,0.1,0.3c0,0.1,0,0.2,0,0.2c0,0.1,0,0.1-0.1,0.2c0,0,0,0.1,0,0.1C8.4,39.9,8.3,40,8.2,40c-0.1,0.1-0.2,0.1-0.3,0.1
			c-0.2,0-0.3,0-0.5,0c-0.2,0-0.3,0-0.5,0l-0.2-0.1C6.6,40.2,6.6,40.4,6.6,40.5z M6.2,39.3C6.2,39.3,6.3,39.3,6.2,39.3
			c0.1,0,0.1,0,0.1,0c0-0.1,0.1-0.1,0.1-0.2c0-0.1,0-0.1,0.1-0.2c0-0.1,0.1-0.2,0.1-0.2c0-0.1,0.1-0.1,0.1-0.2
			c-0.1-0.1-0.1-0.1-0.2-0.2c-0.1,0-0.2,0-0.2-0.1c-0.1,0-0.2-0.1-0.3-0.1c-0.1,0-0.2,0-0.4,0.1c0,0,0,0.1,0.1,0.1s0,0.1,0,0.1
			c0,0,0.1,0.1,0.1,0.1c0,0,0,0.1,0.1,0.1c0.1,0.1,0.1,0.2,0.2,0.3C6,39.2,6.1,39.2,6.2,39.3z M8.2,39.2c-0.2-0.3-0.4-0.4-0.7-0.5
			c-0.1,0-0.1,0-0.2,0c-0.1,0-0.1,0-0.2,0c-0.1,0-0.1,0-0.2,0c0,0-0.1,0.1-0.1,0.1C6.8,39,6.8,39,6.8,39.1c0,0,0,0.1,0,0.1
			c0,0,0,0.1,0,0.1s0,0.1,0,0.1c0,0.1,0,0.2,0.1,0.2c0.1,0.1,0.3,0.1,0.4,0.1s0.3,0,0.4,0c0,0,0.1,0,0.1,0s0.1,0,0.1,0
			c0.1,0,0.3-0.1,0.3-0.2C8.3,39.4,8.3,39.3,8.2,39.2z"/>
		<path d="M8.3,44.6c-0.1,0.1-0.3,0.2-0.4,0.2c-0.1,0-0.3,0-0.5-0.1c-0.2-0.1-0.4-0.2-0.6-0.3c-0.2-0.1-0.4-0.2-0.6-0.3
			C6.1,44.1,5.9,44,5.8,44c-0.1,0-0.3-0.1-0.4-0.1c-0.1,0-0.2,0-0.3,0c-0.1,0-0.2,0-0.3-0.1c0,0,0,0-0.1-0.1c0,0,0,0-0.1-0.1
			c0-0.1,0.1-0.2,0.2-0.3c0.1-0.1,0.2-0.1,0.2-0.2C5.1,43,5.2,43,5.3,43c0.2,0,0.5,0,0.7,0c0.2,0,0.5,0.1,0.7,0.2
			c0.1,0,0.3,0.1,0.4,0.1s0.3,0.1,0.4,0.1c0-0.1-0.1-0.2-0.2-0.3S7.1,43.1,7,43c-0.1-0.1-0.2-0.2-0.3-0.3s-0.2-0.2-0.3-0.3
			c0,0-0.1-0.1-0.1-0.1s-0.1-0.1-0.1-0.2C6,42,5.9,41.9,5.9,41.8s-0.2-0.2-0.3-0.3c-0.1-0.1-0.1-0.1-0.2-0.2
			c-0.1-0.1-0.1-0.1-0.2-0.2c0,0-0.1-0.1-0.1-0.1C5.1,41,5,41,5,41c-0.1-0.1-0.1-0.1-0.1-0.2c0-0.1,0-0.2,0-0.2
			c0-0.1,0.1-0.2,0.2-0.2c0.1,0,0.2,0,0.3,0c0.1,0,0.2,0,0.3,0c0.1,0,0.1,0,0.2,0c0,0,0.1,0,0.2,0c0.1,0,0.1,0,0.2,0
			c0.1,0,0.1,0,0.2,0c0.1,0,0.1,0,0.2,0c0.1,0,0.1,0,0.1,0.1c0.2,0.1,0.4,0.1,0.6,0.2c0.2,0,0.4,0.1,0.6,0.1c0.1,0,0.2,0,0.3,0.1
			c0.1,0,0.2,0.1,0.3,0.1c-0.1,0-0.1,0-0.2,0s-0.1-0.1-0.2,0C8,40.9,8.1,41,8.1,41c0.1,0.1,0.1,0.1,0.2,0.1c0,0,0,0,0.1,0
			c0.1,0.1,0.2,0.2,0.2,0.3c0,0,0,0.1,0,0.1c0,0,0,0.1,0,0.1c0,0.1,0,0.2,0,0.3s-0.1,0.2-0.2,0.2c-0.1,0.1-0.1,0.1-0.3,0.1
			c-0.2-0.1-0.4-0.1-0.6-0.2C7.3,42.1,7.2,42,7,41.9c0,0-0.1,0-0.1-0.1c0,0-0.1,0-0.1,0c0,0,0.1,0.1,0.1,0.1s0.1,0.1,0.1,0.1
			c0.1,0.1,0.2,0.1,0.2,0.2c0.1,0.1,0.1,0.1,0.2,0.2c0.2,0.1,0.3,0.3,0.4,0.5c0.1,0.2,0.2,0.3,0.4,0.5c0.1,0.2,0.2,0.3,0.2,0.5
			C8.4,44.2,8.4,44.4,8.3,44.6z M6.3,40.5c0.1,0,0.2,0.1,0.4,0.1c0.1,0.1,0.2,0.1,0.4,0.1c-0.1,0-0.3-0.1-0.4-0.1
			C6.5,40.4,6.4,40.4,6.3,40.5z M8,42.9c-0.1-0.1-0.1-0.1-0.2-0.2c0-0.1-0.1-0.1-0.1-0.2c0.1,0,0.1,0.1,0.2,0.2s0.2,0.2,0.2,0.3
			c0.1,0.1,0.1,0.2,0.2,0.4c0.1,0.1,0.1,0.2,0.1,0.4c0-0.1-0.1-0.1-0.1-0.2c0-0.1-0.1-0.1-0.1-0.2c0-0.1-0.1-0.1-0.1-0.2
			S8,43,8,42.9z M8,41.2c0.1,0,0.1,0,0.1,0c0,0,0.1,0,0.1,0c0,0,0,0,0,0s0,0,0,0c0,0-0.1,0-0.1,0S8.1,41.2,8,41.2L8,41.2z"/>
		<path d="M5.7,47c0,0.1,0,0.1,0,0.1c0,0,0,0.1-0.1,0c0,0-0.1,0-0.1,0c0,0,0,0-0.1,0c-0.1,0-0.2,0-0.3-0.1c0,0,0,0,0,0
			c0,0,0,0,0,0.1C5,47.1,4.9,47.1,4.7,47c-0.2-0.1-0.3-0.1-0.4-0.2c0,0-0.1,0-0.1-0.1c0,0,0-0.1-0.1-0.1c0,0,0-0.1,0-0.1
			c0,0,0,0,0-0.1c-0.1-0.1-0.2-0.1-0.2-0.2c0,0-0.1-0.1-0.1-0.2c0-0.1-0.1-0.1-0.1-0.2c0,0,0-0.1-0.1-0.1c0,0-0.1-0.1-0.1-0.1
			c0,0-0.1-0.1-0.1-0.1s0-0.1,0-0.2c0,0,0,0,0-0.1c0,0,0-0.1,0-0.1c0-0.1-0.1-0.2,0-0.2c0,0,0.1,0,0.1,0.1c0,0,0,0.1,0,0.1
			c0,0,0,0.1,0.1,0.1c0,0,0,0.1,0.1,0.1c0,0,0,0.1,0.1,0.1c0,0,0.1,0.1,0.1,0.1c0,0,0-0.1,0-0.1c0,0,0,0,0-0.1
			c-0.1-0.1-0.1-0.2-0.2-0.3c0-0.1-0.1-0.2-0.1-0.3c-0.1-0.2-0.1-0.4-0.1-0.6s0.1-0.3,0.2-0.5c0-0.1,0.1-0.1,0.2-0.2
			c0.1-0.1,0.1-0.1,0.2-0.2h0.1c0.2,0,0.3,0,0.5,0.1c0.1,0.1,0.3,0.2,0.4,0.3C5,44,5.1,44.2,5.3,44.5c0.2,0.2,0.3,0.5,0.5,0.7
			c0,0.1,0,0.1,0.1,0.2c0,0,0,0.1,0,0.1c0,0.1,0,0.1-0.1,0.1c-0.1,0-0.2,0-0.3,0c-0.1-0.1-0.2-0.1-0.2-0.2S5.1,45.3,5,45.2
			c-0.2-0.2-0.3-0.3-0.5-0.4S4.2,44.5,4,44.5c0,0-0.1,0-0.1,0c0,0-0.1,0-0.1,0c0,0.1,0.1,0.2,0.1,0.3c0,0.1,0.1,0.2,0.2,0.3
			c0,0,0,0,0.1,0.1c0,0,0,0.1,0.1,0.1c0.2,0.2,0.3,0.4,0.5,0.5C5,45.8,5.2,45.9,5.4,46c0.1,0,0.2,0.1,0.2,0.1c0.1,0,0.2,0,0.2,0
			c0,0,0.1,0,0.1,0c0,0,0.1,0,0.1,0C6.1,46,6.2,46,6.2,45.9c0,0,0-0.1,0-0.1s0-0.1,0-0.1c0-0.1,0-0.2,0.1-0.4c0-0.1,0.1-0.2,0.2-0.3
			c0.1-0.2,0.2-0.2,0.3-0.3c0.1,0,0.2,0,0.3,0c0.1,0,0.2,0.1,0.3,0.2s0.2,0.1,0.3,0.2c0,0,0,0,0,0c0,0-0.1,0-0.1,0c0,0,0,0-0.1,0
			c0,0,0.1,0.1,0.1,0.1c0,0,0.1,0.1,0.1,0.1c0.1,0.1,0.2,0.1,0.3,0.2c0.1,0.1,0.1,0.2,0.2,0.3c0.1,0.1,0.1,0.3,0.2,0.4
			c0,0,0,0.1,0,0.1s0,0.1,0,0.1c0.1,0.3,0,0.5-0.1,0.7c0,0,0,0,0,0s0,0,0,0c0,0-0.1,0-0.1,0.1c0,0-0.1,0-0.1,0.1
			c-0.2,0-0.3-0.1-0.5-0.2c-0.1-0.1-0.3-0.3-0.4-0.4C7.1,46.7,7,46.6,7,46.5c0-0.1,0-0.1,0-0.2c0,0,0-0.1,0.1-0.2c0,0,0.1,0,0.1,0
			s0,0,0.1,0.1c0,0.1,0.1,0.1,0.2,0.2c0.1,0.1,0.1,0.1,0.2,0.2c0.1,0.1,0.2,0.1,0.3,0.2c0,0,0,0,0.1,0s0,0,0.1,0c0,0,0-0.1,0-0.1
			c0-0.1-0.1-0.1-0.1-0.2c0,0,0-0.1-0.1-0.1c-0.1-0.2-0.3-0.3-0.4-0.4c-0.1-0.1-0.3-0.3-0.5-0.3c0,0-0.1,0-0.1,0s-0.1,0-0.1,0
			c0,0,0,0.1,0,0.2c0,0.1,0,0.1,0,0.2c0,0.4-0.2,0.7-0.3,0.9C6.1,47,5.9,47.1,5.7,47z"/>
	</g>
</g>
</svg>
