<?xml version="1.0" encoding="utf-8"?>
<!-- Generator: Adobe Illustrator 27.7.0, SVG Export Plug-In . SVG Version: 6.00 Build 0)  -->
<svg version="1.1" id="Layer_2_00000177468643192472046820000009439584982298686384_"
	 xmlns="http://www.w3.org/2000/svg" xmlns:xlink="http://www.w3.org/1999/xlink" x="0px" y="0px" viewBox="0 0 13.1 17.5"
	 style="enable-background:new 0 0 13.1 17.5;" xml:space="preserve">
<style type="text/css">
	.st0{enable-background:new    ;}
</style>
<g id="Layer_1-2">
	<g class="st0">
		<path d="M4.8,5.9c0-0.1,0-0.2,0-0.2s0-0.1,0.1-0.2c-0.1,0-0.1,0-0.1,0c0,0-0.1,0-0.1,0c0-0.1,0-0.2,0-0.3s0-0.2,0-0.3
			c0.1,0,0.1,0,0.1,0.1s0,0.1,0,0.2C5,4.9,5,4.7,5,4.5C5,4.3,5,4.1,4.9,4c0,0.1,0,0.2,0,0.2c0,0.1,0,0.1-0.1,0.2c0-0.1,0-0.3,0-0.4
			c0-0.1,0-0.3,0-0.4c0,0,0-0.1,0-0.1c0-0.1,0-0.1,0-0.1L4.6,3.8c0-0.1,0-0.2,0-0.3c0-0.1,0-0.2,0-0.3c0-0.4,0-0.7-0.1-1.1
			c-0.1-0.3-0.2-0.7-0.4-1C4.1,1,4,0.8,4.1,0.7c0-0.1,0-0.2,0.1-0.3c0.1-0.1,0.2-0.2,0.3-0.2c0.1-0.1,0.2-0.1,0.3-0.1
			C4.9,0,5,0,5.1,0c0.2,0,0.3,0.1,0.5,0.1s0.3,0.1,0.5,0.2c0.2,0.1,0.4,0.2,0.6,0.3c0.2,0.1,0.4,0.2,0.7,0.3c0,0,0,0,0-0.1
			c0,0,0-0.1,0-0.1c0,0,0.1,0,0.1,0c0,0,0,0,0.1,0c0.2,0.1,0.3,0.1,0.4,0.2C8.2,1,8.4,1.1,8.5,1.2c-0.1,0-0.1,0-0.2,0
			c-0.1,0-0.1,0-0.2,0c0.2,0.1,0.3,0.2,0.5,0.2c0-0.1-0.1-0.1-0.1-0.1c0.1,0,0.1-0.1,0.2-0.1c0.1,0,0.1,0,0.2,0
			c0.2,0.1,0.4,0.1,0.6,0.2c0.2,0.1,0.4,0.1,0.6,0.2l0.1,0.1c-0.1,0-0.2-0.1-0.4-0.1c-0.1,0-0.3-0.1-0.4-0.1c0,0.1,0.1,0.1,0.1,0.1
			c0,0-0.1,0-0.1,0c0,0-0.1,0-0.1,0c0.2,0.1,0.4,0.2,0.6,0.2c0.2,0.1,0.4,0.2,0.6,0.3c0,0,0.1,0,0.1,0c0,0,0.1,0,0.1,0
			c0.2,0.1,0.4,0.2,0.6,0.3c0,0,0.1,0,0.1,0c0.1,0,0.1,0,0.2,0c0,0,0.1,0.1,0.1,0.1c0,0,0.1,0,0.1,0.1c0,0,0.1,0,0.2,0.1
			s0.1,0.1,0.2,0.1c0,0,0.1,0.1,0.1,0.1c0.1,0,0.1,0.1,0.2,0.1s0.1,0.1,0.1,0.1c0.1,0.1,0.1,0.2-0.1,0.4c-0.1,0.1-0.1,0.1-0.2,0.2
			S12,3.7,11.9,3.7c-0.1,0.1-0.3,0.2-0.4,0.3c-0.1,0-0.3,0-0.4-0.1c-0.3-0.1-0.5-0.3-0.7-0.4S9.9,3.2,9.6,3.1
			C9.2,2.9,8.8,2.7,8.3,2.5C7.9,2.3,7.5,2.1,7,1.9C6.9,1.8,6.8,1.8,6.7,1.7c-0.1,0-0.3-0.1-0.4-0.1c-0.1,0-0.1,0-0.2-0.1
			C6.1,1.5,6,1.5,6,1.5L4.8,1.1C4.9,1.2,4.9,1.4,5,1.6C5.1,1.8,5.2,2,5.3,2.2S5.4,2.7,5.5,3c0.1,0.3,0.2,0.6,0.2,0.8
			c0.1,0.3,0.1,0.5,0.2,0.7S6,5,6,5.1c0,0.3-0.1,0.5-0.2,0.6S5.5,6,5.3,6.1C5.2,6.1,5,6.1,4.9,6.1c-0.1,0-0.2,0-0.2,0
			c0,0,0-0.1,0-0.1C4.7,6,4.7,6,4.8,5.9C4.8,5.9,4.8,5.9,4.8,5.9z M4.6,4.5c0,0.1,0,0.2,0,0.3C4.6,4.9,4.5,5,4.5,5.1
			c0-0.1,0-0.2,0.1-0.3C4.6,4.7,4.6,4.6,4.6,4.5L4.6,4.5L4.6,4.5L4.6,4.5z M10.2,2.3L10.2,2.3L10.2,2.3L10.2,2.3L10.2,2.3z
			 M10.7,2.4c-0.1,0-0.1,0-0.2,0s-0.2,0-0.2-0.1C10.3,2.4,10.5,2.4,10.7,2.4z M10.7,2.8c0.1,0,0.1,0,0.2,0c-0.1-0.1-0.2-0.1-0.3-0.1
			c-0.1,0-0.2-0.1-0.3-0.1c0,0,0.1,0.1,0.1,0.1c0,0,0.1,0.1,0.1,0.1C10.6,2.7,10.7,2.8,10.7,2.8z M11.3,2.7c0.1,0,0.1,0.1,0.2,0.1
			c0.1,0,0.1,0,0.2,0.1c0,0-0.1-0.1-0.1-0.1C11.5,2.7,11.4,2.7,11.3,2.7L11.3,2.7z M11.7,2.9L11.7,2.9L11.7,2.9L11.7,2.9L11.7,2.9
			C11.7,2.9,11.7,2.9,11.7,2.9z M12,3c0,0-0.1,0-0.1,0c0,0-0.1,0-0.1,0c0,0,0.1,0,0.1,0.1C11.9,3,11.9,3,12,3L12,3z"/>
		<path d="M6.7,10.5C6.8,10.5,6.7,10.6,6.7,10.5c-0.1,0.1-0.2,0.1-0.3,0.1c0,0-0.1-0.1-0.3-0.2c-0.1-0.1-0.2-0.2-0.4-0.3
			S5.5,9.8,5.4,9.7C5.3,9.6,5.2,9.6,5.2,9.6c0,0,0,0,0.1,0.1c0,0.1,0.1,0.1,0.2,0.2C5.5,9.9,5.5,10,5.6,10c0,0.1,0.1,0.1,0,0.1
			c0,0-0.1,0-0.2-0.1C5.3,9.9,5.2,9.8,5,9.6C4.9,9.5,4.7,9.4,4.6,9.3C4.5,9.2,4.4,9.1,4.4,9C4.4,8.9,4.3,8.8,4.3,8.7
			c0-0.1,0.1-0.2,0.1-0.2c0-0.1,0.1-0.1,0.1-0.2s0.1-0.1,0.1-0.1C4.7,8,4.8,7.9,4.9,7.9c0.1,0,0.2-0.1,0.4-0.1c0.1,0,0.2,0,0.3,0
			s0.2,0,0.2,0H6c0,0,0,0,0-0.1s0,0,0-0.1c0,0-0.1-0.1-0.1-0.1c0,0-0.1-0.1-0.1-0.1C5.6,7.3,5.6,7.2,5.6,7s0-0.3,0-0.4
			c0-0.1,0.1-0.1,0.1-0.2s0.1-0.1,0.1-0.1c0,0,0.1,0,0.1,0c0,0,0,0,0.1,0c0.1,0,0.3,0,0.4,0.1s0.3,0.1,0.4,0.1c0,0,0,0,0,0s0,0,0,0
			c0,0,0.1,0,0.1,0c0,0,0.1,0,0.1,0c0,0,0-0.1,0-0.1c0,0-0.1,0-0.1,0c-0.1,0-0.1,0-0.2-0.1c-0.1,0-0.1,0-0.2,0c0,0,0,0-0.1,0
			c0,0,0,0,0,0c0,0,0,0,0,0c0,0,0,0,0,0c0,0,0,0,0,0c0.1,0,0.3,0,0.4,0c0.1,0,0.3,0.1,0.4,0.1c0.1,0,0.2,0.1,0.3,0.2
			c0.1,0.1,0.2,0.1,0.3,0.1C8,6.7,8,6.7,7.9,6.7c-0.1,0-0.1,0-0.2,0c0,0,0,0-0.1,0s0,0,0,0.1c0.1,0,0.2,0.1,0.2,0.1
			C7.9,6.9,8,6.9,8.1,7c0,0,0,0.1,0,0.1c0,0.4-0.1,0.5-0.5,0.4c-0.1,0-0.1,0-0.2-0.1c-0.1,0-0.1-0.1-0.2-0.1C7.1,7.3,7,7.2,6.8,7.2
			C6.7,7.1,6.6,7.1,6.4,7c0,0,0,0,0,0s0,0,0,0v0c0,0,0.1,0.1,0.1,0.1c0,0,0.1,0.1,0.1,0.1c0.1,0.1,0.3,0.2,0.4,0.3
			c0.1,0.1,0.2,0.2,0.4,0.3C7.5,7.9,7.6,8,7.7,8.1S8,8.3,8.1,8.4c0,0,0,0,0.1,0.1c0,0,0.1,0,0.1,0.1c0,0,0,0.1,0,0.1
			c0,0.1,0,0.1,0,0.1c0,0.1,0,0.3,0,0.4c0,0.1-0.1,0.2-0.1,0.3c0,0,0,0,0,0c0,0,0,0-0.1,0c0,0-0.1,0-0.1,0s-0.1,0-0.1,0
			c-0.2,0-0.4-0.1-0.5-0.2C7.1,9.3,6.9,9.2,6.7,9.2c-0.1,0-0.2-0.1-0.3-0.1C6.4,9.1,6.3,9,6.2,9c0,0-0.1,0-0.1,0c0,0-0.1,0-0.1,0.1
			c-0.1,0-0.2,0-0.3-0.1C5.7,9,5.6,9,5.5,9s-0.2,0-0.3-0.1c0,0,0,0-0.1,0c0,0-0.1,0-0.1,0C5.1,9,5.2,9,5.2,9l0.7,0.7
			C6,9.9,6.2,10,6.3,10.2S6.6,10.5,6.7,10.5z M6.1,9.1L6.1,9.1L6.1,9.1c0.1,0,0.1,0,0.2,0c0.1,0,0.1,0,0.2,0.1
			C6.3,9.2,6.2,9.2,6.1,9.1z M6.5,9.3C6.5,9.3,6.5,9.2,6.5,9.3C6.5,9.2,6.5,9.2,6.5,9.3c0.1,0,0.3,0,0.4,0.1s0.2,0.1,0.4,0.1H7.2
			C7,9.5,6.9,9.4,6.9,9.4S6.7,9.4,6.5,9.3C6.6,9.3,6.5,9.3,6.5,9.3z"/>
		<path d="M6.7,14.4C6.7,14.4,6.7,14.4,6.7,14.4c-0.1,0.1-0.1,0-0.2,0c-0.1,0-0.2-0.1-0.3-0.1c-0.1-0.1-0.2-0.1-0.4-0.2
			c-0.1-0.1-0.2-0.1-0.3-0.2c0,0-0.1-0.1-0.1-0.1c0,0-0.1,0-0.1-0.1c-0.2-0.1-0.3-0.3-0.4-0.5c0-0.1,0-0.2,0-0.3
			c0-0.1,0.1-0.2,0.1-0.3c0.1-0.1,0.1-0.2,0.2-0.3c0.1-0.1,0.1-0.1,0.2-0.2C5.5,12.1,5.6,12,5.7,12c0.1-0.1,0.3-0.1,0.4-0.2
			c0.1-0.1,0.2-0.1,0.4-0.2c0.1,0,0.1-0.1,0.2-0.1c0.1,0,0.1-0.1,0.2-0.1c0,0-0.1,0-0.1,0c0,0-0.1,0-0.1,0c-0.1,0-0.2,0-0.3,0
			c-0.1,0-0.2,0-0.3,0c-0.1,0-0.1,0-0.2,0c-0.1,0-0.2,0-0.4,0c-0.1,0-0.2,0-0.4-0.1C5,11,5,10.9,5.1,10.7c0.1-0.2,0.2-0.3,0.3-0.3
			c0.1,0,0.2,0,0.2,0s0.2,0,0.2,0c0.1,0,0.2,0,0.3,0c0.1,0,0.2,0,0.3,0c0.1,0,0.1,0,0.2,0c0.1,0,0.2,0,0.2,0c0.1,0,0.2,0,0.3,0
			c0.1,0,0.2,0,0.3,0v0c0,0-0.1,0-0.1,0c0,0-0.1,0-0.2,0c0.2,0,0.3,0.1,0.4,0.1c0.1,0,0.3,0.1,0.4,0.1c0,0,0,0,0,0c0,0-0.1,0-0.1,0
			s-0.1,0-0.2,0c-0.1,0-0.1,0-0.2,0s-0.1,0-0.1,0v0v0c0,0,0,0,0,0c0,0,0.1,0,0.2,0c0.1,0,0.2,0.1,0.3,0.1s0.3,0.1,0.4,0.1
			c0.1,0,0.3,0.1,0.4,0.1C9,10.9,9,10.9,9,10.9s0,0-0.1,0c-0.1,0-0.1,0-0.2,0c-0.1,0-0.1,0-0.2,0c-0.1,0-0.1,0-0.1,0c0,0,0,0,0,0
			s0.1,0.1,0.1,0.1c0.1,0,0.2,0.1,0.3,0.1c0.1,0,0.2,0.1,0.4,0.1c0.4,0.1,0.8,0.2,1.3,0.4c0.1,0,0.1,0,0.2,0.1c0.1,0,0.2,0,0.2,0.1
			c0,0,0,0,0,0s0,0,0,0.1c0.1,0,0.2,0,0.3,0.1c0,0-0.1,0-0.1,0s-0.1,0-0.1,0c0,0,0.1,0,0.1,0c0,0,0.1,0,0.1,0
			c0.2,0.1,0.4,0.2,0.5,0.2c0.1,0,0.2,0,0.3,0.1s0.2,0.1,0.3,0.1c0.1,0.1,0.1,0.2,0.1,0.3v0.6c0,0,0,0.1,0,0.1c0,0,0,0.1,0,0.1
			c0,0.1-0.1,0.2-0.1,0.2s-0.1,0-0.2,0c0,0-0.1,0-0.1,0c-0.1,0-0.1,0-0.2-0.1c-0.3-0.2-0.6-0.3-0.8-0.4c-0.3-0.1-0.6-0.3-0.9-0.4
			c-0.1-0.1-0.2-0.1-0.3-0.1c-0.1,0-0.2-0.1-0.3-0.1c0,0,0,0.1,0,0.1c0,0,0,0,0,0.1c0,0,0,0.1,0,0.1c0,0,0,0.1,0.1,0.2
			c0,0-0.1-0.1-0.1-0.1s-0.1-0.1-0.1-0.1c0,0,0,0-0.1,0c0,0,0,0.1,0,0.1c0,0,0,0.1,0,0.1c0,0,0,0.1,0,0.1s0,0.1,0,0.1
			c0,0,0,0.1,0,0.1c0,0,0,0.1,0,0.1c0,0.1,0,0.2,0,0.3c0,0.2-0.1,0.4-0.3,0.6c-0.1,0.1-0.2,0.1-0.3,0C8.8,14,8.7,14,8.6,14
			c-0.2-0.1-0.4-0.3-0.6-0.4c-0.2-0.2-0.3-0.4-0.5-0.6c0,0-0.1-0.1-0.1-0.1c-0.1-0.1-0.1-0.2-0.2-0.3s-0.1-0.2-0.1-0.3
			c0,0,0-0.1,0-0.1c0,0,0,0,0-0.1c-0.1,0-0.2,0-0.3,0.1c-0.4,0.2-0.8,0.4-1.1,0.6c-0.2,0.1-0.3,0.2-0.4,0.4c0,0,0,0,0,0s0,0.1,0,0.1
			c0,0,0.1,0.1,0.2,0.2c0.1,0.1,0.3,0.2,0.4,0.3s0.3,0.2,0.4,0.3C6.6,14.3,6.7,14.4,6.7,14.4z M7.6,11.9C7.6,12,7.6,12,7.6,11.9
			c0,0.1,0,0.1,0,0.1c0.1,0.2,0.2,0.3,0.2,0.4s0.2,0.2,0.3,0.4c0,0,0.1,0.1,0.1,0.1c0,0,0.1,0.1,0.1,0.1c0,0.1,0.1,0.1,0.1,0.1
			c0.1,0,0.1,0,0.1,0c0,0,0,0,0.1,0c0,0,0,0,0.1,0c0,0,0.1,0,0.1,0.1c0,0,0.1,0,0.1,0.1c0,0,0,0,0,0c0,0,0,0,0,0
			C9,13.3,9,13.2,8.8,13c-0.1-0.1-0.3-0.3-0.4-0.4c-0.1-0.1-0.3-0.3-0.4-0.4C7.9,12.1,7.7,12,7.6,11.9z M9.3,11
			C9.3,11,9.3,11,9.3,11c-0.1,0-0.1-0.1-0.2-0.1C9.2,10.9,9.2,10.9,9.3,11C9.3,10.9,9.3,10.9,9.3,11C9.4,10.9,9.4,10.9,9.3,11
			L9.3,11L9.3,11C9.3,11,9.3,11,9.3,11z M9.9,11.1L9.9,11.1C9.9,11.1,9.9,11.1,9.9,11.1c0.1,0,0.1,0,0.2,0c0.1,0,0.1,0,0.2,0.1
			c0,0,0,0-0.1,0c0,0-0.1,0-0.1,0C10,11.2,9.9,11.2,9.9,11.1z"/>
		<path d="M6.7,17.5c0,0-0.1,0-0.2-0.1s-0.2-0.1-0.3-0.3c-0.1-0.1-0.1-0.1-0.2-0.2S6,16.9,5.9,16.9c0,0-0.1-0.1-0.2-0.1
			c-0.1,0-0.1-0.1-0.2-0.2c-0.3-0.2-0.5-0.5-0.6-0.8c-0.1-0.1-0.1-0.3-0.1-0.4c0-0.2,0-0.3,0-0.5c0,0,0-0.1,0-0.1c0,0,0-0.1,0-0.1
			C5,14.6,5,14.5,5.1,14.4c0.1-0.1,0.1-0.2,0.2-0.2c0,0,0.1-0.1,0.1-0.1c0,0,0.1,0,0.1,0c0.2,0,0.3,0,0.5,0c0.1,0,0.1,0,0.2,0
			c0.1,0,0.2,0,0.3,0c0.1,0,0.2,0.1,0.4,0.1s0.2,0.1,0.3,0.2c-0.1,0-0.1,0-0.2-0.1c-0.1,0-0.1-0.1-0.2-0.1c-0.1,0-0.1,0-0.2-0.1
			c-0.1,0-0.1,0-0.2,0c0.2,0.1,0.3,0.2,0.4,0.2s0.3,0.1,0.4,0.2c0.1,0.1,0.2,0.2,0.3,0.2c0.1,0.1,0.2,0.2,0.3,0.2c0,0,0,0.1,0,0.1
			c0,0,0,0.1,0,0.1c0.1,0.1,0.2,0.3,0.2,0.4c0,0.2,0.1,0.3,0.1,0.5c0,0.2,0,0.3-0.1,0.5c0,0,0,0.1,0,0.1c0,0,0,0.1-0.1,0.1
			c0,0,0,0.1-0.1,0.1s0,0-0.1,0c-0.1,0.1-0.1,0.2-0.2,0.2s-0.2,0-0.2,0c-0.1,0-0.1-0.1-0.2-0.1c-0.1,0-0.1-0.1-0.2-0.1
			c-0.1-0.1-0.2-0.2-0.3-0.3c-0.1-0.1-0.2-0.2-0.2-0.3c-0.1-0.2-0.2-0.4-0.2-0.6c0-0.1,0-0.2,0-0.2c0-0.1,0-0.1,0-0.1
			c0,0-0.1-0.1-0.1-0.1s-0.1,0-0.2-0.1c-0.1,0-0.2-0.1-0.3-0.1c-0.1,0-0.2-0.1-0.3-0.1c0,0-0.1,0-0.1,0s-0.1,0-0.1,0
			c0,0.1,0,0.2,0,0.2c0,0.1,0.1,0.1,0.1,0.2c0.1,0.1,0.1,0.2,0.2,0.4c0.1,0.1,0.1,0.2,0.2,0.4c0.1,0.2,0.2,0.3,0.4,0.5
			s0.3,0.3,0.4,0.5v0c0,0.1,0.1,0.1,0.1,0.1C6.7,17.4,6.7,17.4,6.7,17.5C6.8,17.5,6.8,17.5,6.7,17.5z M7.8,16.3
			C7.6,16,7.4,15.8,7,15.7c0.1,0.1,0.2,0.3,0.2,0.4c0.1,0.1,0.2,0.2,0.3,0.3c0,0,0,0,0,0c0,0,0,0,0.1,0C7.7,16.4,7.8,16.3,7.8,16.3z
			"/>
	</g>
</g>
</svg>
