<?xml version="1.0" encoding="utf-8"?>
<!-- Generator: Adobe Illustrator 27.7.0, SVG Export Plug-In . SVG Version: 6.00 Build 0)  -->
<svg version="1.1" id="Layer_2_00000097478435774362689590000015463651748240335492_"
	 xmlns="http://www.w3.org/2000/svg" xmlns:xlink="http://www.w3.org/1999/xlink" x="0px" y="0px" viewBox="0 0 13.1 22.9"
	 style="enable-background:new 0 0 13.1 22.9;" xml:space="preserve">
<style type="text/css">
	.st0{enable-background:new    ;}
</style>
<g id="Layer_1-2">
	<g class="st0">
		<path d="M11.8,8.6c-0.1,0-0.3,0-0.4,0c-0.6,0-1.2-0.1-1.8-0.3C9.1,8.2,8.5,8.1,8,7.9C7.5,7.8,7.1,7.7,6.7,7.6S5.8,7.3,5.4,7.2
			C5.1,7.1,4.9,7.1,4.6,7S4,6.8,3.8,6.7c-0.1,0-0.2,0-0.2,0c-0.1,0-0.2,0-0.3,0c-0.1,0-0.2,0-0.3-0.1c-0.1,0-0.2-0.1-0.3-0.1
			c0,0,0,0-0.1,0c0,0,0,0-0.1,0c0,0,0,0,0,0v0C2.6,6.2,2.7,6.1,2.9,6C3,5.9,3.1,5.9,3.3,5.9c0.3,0,0.6,0,0.9,0c0.3,0,0.6,0,0.9,0
			C5.3,5.9,5.6,6,5.9,6c0.3,0,0.6,0.1,0.9,0.2c0.3,0.1,0.5,0.1,0.8,0.2c0.3,0.1,0.5,0.2,0.8,0.3C8.8,6.8,9.2,6.9,9.6,7
			s0.8,0.2,1.2,0.3c0.1,0,0.2,0,0.3,0s0.2,0,0.3,0.1c-0.2-0.2-0.4-0.4-0.6-0.5c-0.2-0.1-0.4-0.3-0.6-0.4C9.7,6.3,9.4,6,9,5.8
			S8.2,5.4,7.8,5.1C7.4,4.9,7,4.6,6.6,4.2C6.5,4.1,6.4,4,6.4,3.8C6.3,3.7,6.3,3.6,6.3,3.4c0-0.2,0.1-0.4,0.2-0.5
			c0.1-0.1,0.3-0.2,0.5-0.1c0.1,0,0.1,0,0.2,0c0.1,0,0.1,0,0.2,0C7.3,2.7,7.2,2.6,7,2.5C6.9,2.4,6.8,2.3,6.6,2.2
			C6.3,2.1,6,1.9,5.7,1.8c-0.3-0.1-0.6-0.3-1-0.5c0,0-0.1,0-0.1-0.1s-0.1,0-0.1-0.1C4.4,1.1,4.4,1.1,4.4,1c0,0-0.1-0.1-0.1-0.1
			c0,0,0-0.1,0-0.1c0,0,0-0.1,0-0.2c0-0.1,0.1-0.2,0.2-0.3c0.1-0.1,0.2-0.1,0.3-0.1c0.2,0,0.4,0,0.7,0c0.2,0,0.5,0.1,0.7,0.1
			c0.2,0,0.5,0.1,0.7,0.1c0.1,0,0.1,0,0.2,0s0.1,0,0.1,0c0.1,0,0.2,0,0.2,0c0,0,0.1,0,0.1-0.1c0.1,0,0.1,0,0.1,0
			c0.2,0,0.3,0,0.5,0.1c0.2,0,0.3,0.1,0.5,0.1c0,0,0,0,0.1,0c0,0,0,0,0.1,0.1c-0.1,0-0.3,0-0.4-0.1S8.1,0.4,8,0.4c0,0,0,0,0,0
			s0,0,0,0c0.1,0,0.2,0.1,0.3,0.1s0.2,0.1,0.3,0.1C8.7,0.8,9,0.8,9.3,0.9C9.5,1,9.8,1,10.1,1.1c0,0,0,0,0.1,0c0,0,0.1,0,0.1,0
			c0,0,0,0,0.1,0c0,0,0,0,0.1,0c0.1,0.1,0.2,0.2,0.4,0.2c0.1,0,0.3,0.1,0.4,0.1c0.1,0.1,0.1,0.1,0,0.2c0,0-0.1,0-0.1,0
			c0,0-0.1,0-0.1,0v0.1c0.1,0,0.2,0.1,0.3,0.1c0.1,0,0.2,0.1,0.2,0.1c0.1,0,0.1,0,0.2,0.1c0.1,0,0.1,0,0.2,0.1
			c0.2,0.1,0.3,0.2,0.3,0.3c0,0.1,0,0.3-0.1,0.5c0,0,0,0.1,0,0.1c-0.1,0.2-0.2,0.3-0.3,0.3s-0.2,0-0.4,0c-0.4-0.1-0.7-0.3-1-0.5
			s-0.7-0.3-1-0.5C8.9,2.1,8.6,1.9,8.2,1.8S7.5,1.5,7.1,1.4C6.9,1.3,6.6,1.2,6.4,1.2C6.2,1.1,6,1,5.8,1c0,0-0.1,0-0.3,0
			C5.7,1.1,5.8,1.2,6,1.2s0.3,0.2,0.4,0.2c0.4,0.2,0.9,0.4,1.3,0.6c0.4,0.2,0.8,0.5,1.2,0.7C9,2.8,9.1,2.9,9.2,3
			c0.1,0.1,0.2,0.2,0.4,0.3c0.1,0.1,0.2,0.2,0.2,0.4c0,0.3-0.1,0.6-0.2,0.9C9.2,4.5,9,4.4,8.7,4.4C8.5,4.3,8.2,4.3,7.9,4.2
			C8,4.3,8,4.3,8.1,4.4s0.1,0.1,0.2,0.1c0.1,0,0.2,0.1,0.3,0.1c0.1,0,0.2,0.1,0.2,0.1c0.1,0.1,0.2,0.2,0.3,0.2s0.2,0,0.4,0
			c-0.1,0-0.1-0.1-0.2-0.1S9.1,4.8,9,4.8c0,0,0,0,0.1,0c0,0,0,0,0,0C9.3,4.8,9.5,4.8,9.7,5C10,5,10.2,5.2,10.4,5.3c0,0,0,0,0,0.1
			c0,0,0,0,0,0.1C10.2,5.2,10,5.1,9.8,5.1c0,0-0.1,0-0.2,0S9.5,5,9.5,5c0,0,0,0,0,0c0,0,0,0,0.1,0c0.2,0.1,0.4,0.2,0.6,0.3
			c0.2,0.1,0.4,0.2,0.6,0.3c0.1,0.1,0.2,0.1,0.3,0.2s0.2,0.1,0.3,0.2c0.1,0,0.2,0.1,0.3,0.1c0.1,0.1,0.1,0.1,0.2,0.2
			c-0.1-0.1-0.3-0.2-0.4-0.4C11.2,6.1,11.1,6,11,6c-0.1-0.1-0.2-0.1-0.3-0.2h0c0,0,0,0,0,0c0,0,0.1,0.1,0.1,0.1
			c0.2,0.2,0.4,0.4,0.7,0.6c0.2,0.2,0.4,0.4,0.7,0.6c0.3,0.2,0.4,0.5,0.3,0.9C12.3,8.4,12.1,8.6,11.8,8.6z M7.4,0.2
			c-0.1,0-0.2,0.1-0.3,0.1s-0.2,0-0.3,0c-0.1,0-0.2-0.1-0.3-0.1c-0.1,0-0.2-0.1-0.3-0.1c0.2,0,0.4,0,0.5,0C7,0.1,7.2,0.1,7.4,0.2z
			 M8.8,0.6L8.8,0.6C8.8,0.5,8.8,0.5,8.8,0.6C8.8,0.5,8.8,0.5,8.8,0.6z M9.1,0.6L9.1,0.6c0,0-0.1,0-0.2,0s-0.1,0-0.1,0
			c0,0,0.1,0,0.1,0S9,0.6,9.1,0.6z M9.5,5.2c0.1,0.1,0.3,0.1,0.4,0.2s0.3,0.1,0.4,0.2v0c0,0,0,0,0,0c-0.1-0.1-0.3-0.1-0.4-0.2
			C9.8,5.3,9.7,5.2,9.5,5.2C9.5,5.2,9.5,5.2,9.5,5.2C9.5,5.2,9.5,5.2,9.5,5.2z M10.7,1.5c-0.2-0.1-0.4-0.1-0.5-0.2
			c-0.2-0.1-0.3-0.1-0.5-0.1c0.1,0.1,0.3,0.1,0.5,0.2C10.3,1.4,10.5,1.5,10.7,1.5C10.7,1.5,10.7,1.5,10.7,1.5
			C10.7,1.5,10.7,1.5,10.7,1.5L10.7,1.5z M11.8,6.3c0,0-0.1-0.1-0.1-0.1c0,0-0.1-0.1-0.1-0.1c0.1,0,0.2,0.1,0.2,0.1
			C11.9,6.2,12,6.3,12,6.4c0,0,0,0,0,0.1c0,0,0,0,0,0.1c0.1,0.1,0.1,0.1,0.2,0.2c0,0,0.1,0.1,0.2,0.2c0,0,0,0,0.1,0.1
			c0,0,0,0.1,0,0.1c-0.1-0.1-0.2-0.2-0.3-0.3c-0.1-0.1-0.2-0.2-0.3-0.3H12c0,0-0.1-0.1-0.1-0.1C11.9,6.4,11.8,6.3,11.8,6.3z"/>
		<path d="M4.9,8.5c0-0.1,0.1-0.1,0.3-0.2s0.3-0.1,0.5-0.1c0,0,0.1,0,0.1,0c0,0,0.1,0,0.1,0c0.1,0,0.3,0.1,0.4,0.1
			c0.1,0,0.2,0.1,0.4,0.1C6.8,8.5,7,8.5,7.2,8.6c0.2,0.1,0.4,0.1,0.6,0.2c0,0,0,0,0.1,0c0,0,0,0,0.1,0c0,0.2,0,0.3,0,0.4
			c0,0.1-0.1,0.3-0.2,0.4c0,0-0.1,0-0.1,0s-0.1,0-0.1,0c-0.1,0-0.1,0-0.2,0c-0.1,0-0.1,0-0.2,0c0,0-0.1,0-0.1,0c0,0,0,0,0,0h0
			c0,0,0,0,0,0c0.1,0,0.2,0.1,0.3,0.1c0.1,0,0.1,0,0.2,0.1c0.1,0,0.1,0,0.1,0c0,0,0,0-0.1,0c-0.1,0-0.1,0-0.2-0.1S7.1,9.6,7,9.6
			c-0.1,0-0.1,0-0.1,0s0,0,0,0c0,0,0.1,0,0.1,0s0.1,0,0.1,0.1c0,0,0,0,0,0c0,0-0.1,0-0.2-0.1S6.7,9.6,6.6,9.5C6.4,9.4,6.2,9.4,6,9.3
			c-0.1,0-0.2-0.1-0.3-0.1c-0.1,0-0.2,0-0.2,0c-0.1,0-0.1,0-0.1,0c0,0,0,0,0,0c0,0,0,0,0,0c0,0,0.1,0,0.1,0s0.1,0,0.1,0.1H5.4
			c0,0,0,0.1,0,0.1c0.2,0.3,0.5,0.6,0.8,0.8c0.1,0.1,0.2,0.1,0.2,0.2c0.1,0.1,0.1,0.1,0.2,0.2c0,0,0,0,0,0.1s0,0.1,0,0.1
			c0,0,0,0-0.1,0c0,0-0.1,0-0.2-0.1c-0.1,0-0.1-0.1-0.2-0.1c-0.1,0-0.1,0-0.1-0.1c0,0-0.1-0.1-0.2-0.2c-0.1-0.1-0.2-0.2-0.3-0.3
			C5.5,10,5.3,9.8,5.2,9.7L5,9.4c0-0.1-0.1-0.1-0.1-0.2c0-0.1-0.1-0.1-0.1-0.1c0-0.1,0-0.2,0-0.3C4.8,8.7,4.8,8.6,4.9,8.5z M8.8,9
			c0,0.1,0,0.1,0,0.2c0,0,0,0.1,0,0.1c0,0.2,0,0.3-0.1,0.4C8.6,9.8,8.6,9.9,8.5,9.9c-0.1,0-0.2-0.1-0.3-0.2s-0.1-0.2,0-0.3
			c0-0.1,0-0.2,0.1-0.3c0-0.1,0-0.1,0.1-0.2s0.1,0,0.2,0C8.6,8.9,8.7,9,8.8,9z"/>
		<path d="M7.6,11C7.6,11,7.6,11,7.6,11c-0.1,0-0.2,0-0.2,0c0,0,0,0,0,0c0,0,0,0,0,0c0.2,0.1,0.4,0.3,0.5,0.5c0,0,0.1,0.1,0.1,0.1
			c0,0,0.1,0.1,0.1,0.1C8.3,11.9,8.3,12,8.3,12c0,0,0,0.1,0,0.1c0,0.2,0.1,0.3,0.1,0.5c0,0-0.1-0.1-0.1-0.1c0,0-0.1-0.1-0.1-0.1
			c-0.1,0-0.1,0.1,0,0.1c0,0,0,0.1,0,0.1c0,0,0,0.1,0,0.1c0,0,0,0.1-0.1,0c0,0,0,0,0,0.1c0,0,0,0,0,0.1c0,0.1,0,0.2-0.1,0.3
			C8,13.4,8,13.5,8,13.6c0,0.1-0.1,0.1-0.1,0.2s-0.1,0.1-0.2,0.1c0,0-0.1,0-0.1,0c-0.1,0-0.1-0.1-0.1-0.1c0-0.1-0.1-0.1-0.1-0.2
			c0-0.1,0-0.1,0.1-0.2c0-0.1,0.1-0.1,0.1-0.1c0,0,0.1-0.1,0.1-0.1c0-0.1,0-0.2-0.1-0.3c-0.1-0.1-0.1-0.2-0.2-0.3
			c-0.2-0.2-0.3-0.3-0.5-0.5c-0.2-0.2-0.4-0.3-0.6-0.4c-0.1-0.1-0.2-0.1-0.3-0.1c-0.1,0-0.2-0.1-0.3-0.1c0,0-0.1,0-0.1,0
			c-0.1,0-0.1,0-0.2,0c-0.1,0-0.1,0-0.2,0.1s0,0.1,0,0.2c0,0.1,0,0.1,0.1,0.2c0.1,0.2,0.2,0.3,0.3,0.5c0.1,0.2,0.3,0.4,0.4,0.6
			c0.1,0.2,0.3,0.4,0.4,0.6c0.1,0.1,0.2,0.2,0.2,0.4c0.1,0.1,0.2,0.2,0.2,0.4c0,0,0,0,0,0.1s0,0.1,0,0.1c0,0,0,0.1,0,0.1
			c0,0,0,0,0,0c0,0,0,0,0,0c0,0,0,0,0,0c-0.2-0.1-0.3-0.3-0.4-0.4C6.1,14,6,13.9,5.9,13.7c-0.1-0.1-0.3-0.2-0.4-0.4
			c-0.1-0.1-0.2-0.3-0.3-0.4C5,12.8,5,12.7,4.9,12.6c-0.1-0.1-0.1-0.2-0.2-0.3c0,0-0.1-0.1-0.1-0.1s0-0.1,0-0.1c0-0.2,0-0.3,0-0.5
			c0-0.1,0.1-0.3,0.2-0.4C4.8,11,4.9,10.9,5,10.8c0.1-0.1,0.2-0.1,0.3-0.2c0.2-0.1,0.4-0.1,0.6-0.1c0,0,0,0,0.1,0c0,0,0,0,0.1,0
			c0.2,0,0.3,0,0.5,0s0.3,0.1,0.5,0.2c0.1,0,0.2,0.1,0.3,0.1C7.4,10.9,7.5,11,7.6,11z"/>
		<path d="M6.7,19c0,0,0,0.1-0.1,0.1c-0.1,0-0.1,0-0.2,0c0,0-0.1-0.1-0.3-0.2c-0.1-0.1-0.3-0.2-0.5-0.4s-0.3-0.3-0.5-0.4
			C5.1,18,5,17.8,5,17.8s-0.1-0.2-0.1-0.3c0-0.1,0-0.2,0-0.3s0-0.2,0.1-0.2c0-0.1,0.1-0.1,0.1-0.2c0.1,0,0.1-0.1,0.2-0.1
			c0.1,0,0.2,0,0.3-0.1c0.1,0,0.2,0,0.3,0l-0.3-0.4c0,0,0-0.1,0-0.1c0,0,0-0.1,0-0.1c-0.1-0.1-0.1-0.2-0.2-0.3
			c0-0.1-0.1-0.2-0.1-0.3c0-0.1,0-0.2,0-0.4c0-0.1,0.1-0.2,0.2-0.3s0.1-0.2,0.2-0.3c0.1-0.1,0.2-0.1,0.3-0.1c0.2,0,0.3,0,0.5,0
			s0.3,0,0.5,0c0.3,0.1,0.5,0.2,0.7,0.4c0,0,0.1,0.1,0.1,0.1c0,0,0,0,0.1,0.1c0,0,0,0,0.1,0.1c0,0,0,0,0,0c0,0,0,0,0,0
			c0,0-0.1,0-0.1-0.1c0,0,0,0,0,0.1c0,0,0,0,0,0c0,0,0.1,0.1,0.1,0.1c0,0,0.1,0.1,0.1,0.1c0,0,0,0.1,0,0.1c0,0,0,0-0.1,0
			s0-0.1-0.1-0.1c0,0,0,0,0,0v0c0,0,0.1,0.1,0.1,0.1c0,0,0.1,0,0.1,0c0-0.1,0-0.2,0-0.3c0.1,0,0.1,0.1,0.1,0.2c0,0.1,0,0.2,0,0.3
			c0,0.1,0,0.2,0,0.3c0,0,0,0.1,0,0.1c0,0,0,0,0,0.1s0,0,0,0c0,0,0,0,0,0c0,0,0-0.1,0-0.1c0,0,0-0.1,0-0.1s0-0.1,0-0.1c0,0,0,0,0,0
			c0,0,0,0,0,0v0.1c0,0,0,0.1,0,0.2c0,0.1,0,0.2-0.1,0.3c0,0.1-0.1,0.2-0.1,0.3s-0.1,0.2-0.2,0.2c0,0.1,0,0.1,0.1,0.1
			s0.1,0.1,0.2,0.1c0,0,0.1,0,0.1,0.1c0.1,0,0.1,0,0.1,0.1c0,0,0,0,0,0c0,0,0,0,0,0c0,0.1,0.1,0.2,0,0.3S8,17.8,7.9,17.8
			c0,0-0.1,0.1-0.1,0.1C7.9,18,7.9,18,8,18c0.1,0,0.1,0,0.2,0.1c0,0,0,0,0,0s0,0,0,0c-0.1,0-0.3-0.1-0.4-0.1S7.4,18,7.3,17.9
			c-0.2-0.1-0.3-0.1-0.5-0.2c-0.2-0.1-0.3-0.1-0.5-0.2c-0.1,0-0.2-0.1-0.3-0.1c-0.1,0-0.2,0-0.3-0.1c-0.1,0-0.2,0-0.2,0
			c-0.1,0-0.1,0-0.1,0c0.1,0,0.1,0,0.2,0.1c0.1,0,0.1,0,0.2,0.1c0,0,0.1,0,0.1,0c0,0,0.1,0,0.1,0c0,0,0,0,0,0c0,0,0,0,0,0h0l0.1,0.1
			c0.1,0,0.1,0.1,0.1,0.1c0,0,0,0-0.1,0s-0.1-0.1-0.2-0.1c0,0,0,0-0.1,0c0,0,0,0-0.1,0c-0.1,0-0.1,0-0.2,0c-0.1,0-0.1,0-0.1,0
			c-0.1,0-0.1,0,0,0.1C5.7,17.9,5.8,18,6,18.1c0.1,0.1,0.2,0.3,0.4,0.4s0.2,0.2,0.3,0.3S6.7,19,6.7,19z M7.1,16.5
			c0,0,0.1,0.1,0.1,0.1c0,0,0.1,0.1,0.1,0.1c0,0,0.1-0.1,0.1-0.1c0.1-0.1,0.1-0.3,0-0.4c-0.1-0.1-0.1-0.2-0.2-0.2
			c-0.1-0.1-0.1-0.1-0.2-0.2c-0.3-0.3-0.6-0.5-1-0.6c0,0-0.1,0-0.1,0c0,0.1,0.1,0.2,0.2,0.3C6.3,15.9,6.7,16.2,7.1,16.5z"/>
		<path d="M5.9,19.7c-0.1,0-0.2,0-0.3-0.1c-0.1,0-0.2,0-0.3,0c-0.2,0-0.5-0.1-0.7-0.2c0,0,0-0.1,0-0.2S4.7,19,4.7,19
			c0-0.1,0.1-0.1,0.1-0.2c0-0.1,0.1-0.1,0.2-0.1c0.1,0,0.1,0,0.2,0c0.1,0,0.1,0,0.2,0c0.2,0,0.4,0.1,0.6,0.1c0.2,0,0.4,0.1,0.6,0.1
			c0.1,0,0.1,0,0.2,0C7,19,7,19,7.1,19c0.3,0.1,0.6,0.2,0.9,0.2c0.3,0.1,0.6,0.1,1,0.2c0,0,0.1,0,0.1,0c0.1,0,0.1,0,0.2,0
			c0.1,0,0.1,0,0.2,0.1c0.1,0,0.1,0,0.1,0.1l-0.4,0c0.1,0.1,0.2,0.1,0.3,0.1s0.2,0,0.3,0c0,0,0,0,0,0c0,0,0,0,0,0
			c0.1,0,0.2,0.1,0.3,0.1c0.1,0,0.2,0.1,0.3,0.1c0,0,0,0,0.1,0c0,0,0.1,0,0.1,0c0.4,0.1,0.7,0.2,1.1,0.3c0.1,0,0.1,0,0.2,0
			c0,0,0.1,0,0.2,0.1c-0.1,0-0.3,0-0.4-0.1s-0.3,0-0.4,0c0.1,0.1,0.1,0.1,0.2,0.1c0,0,0,0,0.1,0c0.2,0,0.4,0,0.5,0.1
			c0.1,0.1,0.3,0.2,0.5,0.2c0.1,0,0.1,0.1,0.1,0.2s0.1,0.2,0.1,0.3c0,0.1,0,0.2,0,0.4c0,0.1,0,0.2,0,0.3c0,0.1-0.1,0.2-0.2,0.1
			c0,0,0,0-0.1,0c0,0-0.1,0-0.1-0.1c-0.3-0.2-0.6-0.4-1-0.5S10.4,21.1,10,21c-0.4-0.1-0.7-0.2-1.1-0.3c-0.3-0.1-0.6-0.2-0.9-0.3
			c0,0.1,0,0.1,0,0.1c0.1,0.1,0.1,0.3,0.1,0.4c0,0.1,0,0.3,0,0.5c0,0,0,0.1,0,0.1c0,0,0,0.1,0,0.1c0,0.1-0.1,0.1-0.1,0.2
			c0,0.1-0.1,0.1-0.2,0.1c0,0-0.1,0-0.1,0s-0.1,0-0.1,0c0,0,0,0,0,0.1c0,0,0,0,0,0.1c-0.1,0-0.1,0-0.2,0c0,0-0.1,0-0.1,0
			c-0.1,0-0.2-0.1-0.4-0.1c-0.1,0-0.2-0.1-0.4-0.1c-0.1,0-0.2-0.1-0.2-0.1s-0.2-0.1-0.2-0.1c-0.1,0-0.1,0-0.2-0.1
			c-0.1,0-0.1,0-0.2-0.1h0c-0.1,0-0.1,0-0.2-0.1c-0.1,0-0.1,0-0.2-0.1c0,0-0.1,0-0.1,0c0,0-0.1,0-0.1,0c0,0,0,0,0,0s0,0,0,0
			c0,0,0,0-0.1,0c0,0,0,0-0.1,0c0,0-0.1-0.1-0.1-0.1s-0.1,0-0.2,0v0c-0.1,0-0.1,0-0.2,0c0,0,0,0,0,0.1c0,0.1,0,0.1,0,0.2
			c0,0,0.1,0,0.2,0.1c0.1,0.1,0.2,0.2,0.4,0.3c0.1,0.1,0.3,0.2,0.5,0.3c0.2,0.1,0.3,0.2,0.5,0.3c0.1,0.1,0.3,0.2,0.5,0.3
			c0,0,0,0-0.1,0c-0.1,0-0.1-0.1-0.2-0.1c-0.1,0-0.2-0.1-0.3-0.2c0.1,0.1,0.1,0.1,0.2,0.1c0.1,0,0.1,0.1,0.2,0.1
			c0.1,0,0.1,0.1,0.1,0.1c0,0,0,0.1,0,0.1c0,0,0,0,0,0c0,0-0.1,0-0.2-0.1c-0.1-0.1-0.2-0.1-0.4-0.2c-0.2-0.1-0.3-0.2-0.5-0.3
			c-0.2-0.1-0.4-0.2-0.5-0.3c-0.2-0.1-0.3-0.2-0.4-0.3c-0.1-0.1-0.2-0.1-0.2-0.2c-0.1-0.1-0.1-0.2-0.1-0.3s0-0.1,0-0.2c0,0,0,0,0,0
			c0,0,0,0.1,0,0c0,0,0-0.1,0.1-0.4c0-0.1,0.1-0.1,0.1-0.2c0.1-0.1,0.1-0.1,0.2-0.2c0.1-0.1,0.1-0.1,0.2-0.1c0,0,0.1,0,0.1,0
			c0,0,0,0,0.1,0s0.1,0,0.2,0c0.1,0,0.1,0,0.2,0H5.1c0,0-0.1,0-0.1,0c0,0,0,0,0,0l0.3,0.1c0.1,0,0.2,0,0.2,0c0.1,0,0.1,0,0.1,0
			c0,0,0,0,0,0c0,0-0.1,0-0.1,0s-0.1,0-0.1,0c0,0,0,0,0,0c0.1,0,0.1,0,0.2,0c0,0,0.1,0,0.1,0s0.1,0,0.1,0c0,0,0,0,0,0h0
			c0.2,0,0.3,0,0.5,0.1s0.3,0.1,0.5,0.1c0,0,0.1,0,0.1,0s0.1,0,0.1,0c-0.1-0.1-0.1-0.2-0.2-0.2c-0.1-0.1-0.1-0.1-0.2-0.2
			c-0.1,0-0.2-0.1-0.2-0.2C6.5,20,6.4,20,6.4,19.9c-0.1-0.1-0.1-0.1-0.2-0.2S6,19.7,5.9,19.7z"/>
	</g>
</g>
</svg>
