<?xml version="1.0" encoding="utf-8"?>
<!-- Generator: Adobe Illustrator 27.7.0, SVG Export Plug-In . SVG Version: 6.00 Build 0)  -->
<svg version="1.1" id="Layer_2_00000000195738324622847010000011888372752325722553_"
	 xmlns="http://www.w3.org/2000/svg" xmlns:xlink="http://www.w3.org/1999/xlink" x="0px" y="0px" viewBox="0 0 13.1 25"
	 style="enable-background:new 0 0 13.1 25;" xml:space="preserve">
<style type="text/css">
	.st0{enable-background:new    ;}
</style>
<g id="Layer_1-2">
	<g class="st0">
		<path d="M12.8,6.9c0,0.2,0,0.3-0.1,0.4c-0.1,0.1-0.2,0.1-0.4,0.1c-0.1,0-0.2,0-0.2,0s-0.1,0-0.2-0.1c-0.6-0.2-1.2-0.4-1.9-0.6
			C9.3,6.5,8.7,6.4,8.1,6.2C7.8,6.1,7.4,6,7.1,5.9S6.4,5.8,6,5.7c-0.1,0-0.2,0-0.4,0s-0.2,0-0.4,0c-0.2,0-0.4,0-0.6,0
			c-0.2,0-0.4,0.1-0.6,0.2c0,0-0.1,0.1-0.2,0.1c-0.1,0-0.1,0-0.2-0.1c0,0-0.1-0.1-0.1-0.2s0-0.1,0.1-0.2C3.9,5.3,4,5.2,4.1,5.1
			C4.2,5,4.3,4.9,4.5,4.8c0.4-0.1,0.9-0.2,1.3-0.2c0.4,0,0.9,0.1,1.3,0.2c0.1,0,0.2,0,0.4,0.1S7.7,5,7.8,5.1C7.8,5,7.7,4.9,7.6,4.9
			c-0.1,0-0.1-0.1-0.2-0.1c-0.1,0-0.1,0-0.2,0c-0.1,0-0.1,0-0.2,0c-0.1,0-0.1,0-0.1,0C6.8,4.6,6.7,4.5,6.6,4.5s-0.2,0-0.3,0
			c-0.1,0-0.2,0-0.3-0.1c0.1,0,0.1-0.1,0.2-0.1c0.3,0,0.5,0,0.8,0.1s0.5,0.1,0.8,0.2c0.2,0,0.3,0.1,0.5,0.1c0.2,0,0.3,0.1,0.5,0.1
			C8.9,4.9,9.1,5,9.3,5c0.2,0.1,0.4,0.1,0.6,0.2c0.4,0.2,0.7,0.3,1.1,0.4c0.1,0,0.2,0.1,0.3,0.1c-0.1-0.2-0.2-0.3-0.3-0.4
			c-0.1-0.1-0.2-0.2-0.3-0.3c-0.2-0.2-0.4-0.4-0.6-0.5C9.8,4.3,9.6,4.1,9.5,3.9C9,3.5,8.6,3.1,8.1,2.7c-0.5-0.4-1-0.7-1.5-1
			C6.5,1.7,6.4,1.6,6.2,1.6C6.1,1.5,6,1.5,5.8,1.4C5.6,1.3,5.4,1.3,5.2,1.2C5,1.1,4.8,1,4.5,0.9c0,0-0.1,0-0.1,0c0,0-0.1,0-0.1-0.1
			C4,0.6,3.9,0.3,4.2,0c0,0,0,0,0,0c0,0,0,0,0,0c0,0,0,0,0,0c0.8,0.2,1.5,0.4,2.3,0.6s1.5,0.4,2.3,0.6v0c0,0-0.1,0-0.1-0.1
			c0,0-0.1,0-0.1-0.1C8.4,0.9,8.2,0.9,8,0.8C7.9,0.7,7.7,0.7,7.4,0.7C7.3,0.6,7.2,0.5,7,0.5c-0.2,0-0.3-0.1-0.5-0.1c0,0-0.1,0-0.1,0
			c0,0,0,0-0.1,0c0.1,0,0.1-0.1,0.2-0.1s0.1,0,0.2,0c0.5,0.1,1,0.2,1.5,0.4c0.5,0.1,1,0.3,1.5,0.5c0.1,0,0.1,0.1,0.1,0.1
			c-0.1,0-0.1-0.1-0.2-0.1c-0.1,0-0.1,0-0.2,0c0.1,0.1,0.3,0.2,0.4,0.3c0.1,0.1,0.3,0.1,0.4,0.2c0.4,0.1,0.9,0.3,1.3,0.5
			c0.1,0,0.2,0.1,0.2,0.2c0,0.1,0,0.2,0,0.3c0,0,0,0,0,0c0,0,0,0,0,0c-0.1,0.1-0.1,0.2-0.2,0.3c0,0.1-0.1,0.1-0.1,0.2
			c-0.1,0-0.1,0-0.2,0S11.1,3.1,10.9,3c-0.4-0.2-0.9-0.3-1.3-0.5C9.2,2.4,8.8,2.3,8.3,2.1c0,0-0.1,0-0.1,0s-0.1,0-0.1,0
			c0.1,0.1,0.2,0.1,0.2,0.2c0.1,0.1,0.2,0.1,0.2,0.2C9,2.8,9.5,3.2,9.9,3.6c0.4,0.4,0.9,0.8,1.4,1.1c0.2,0.2,0.4,0.4,0.5,0.6
			c0.2,0.2,0.4,0.4,0.6,0.6c0.1,0.1,0.2,0.3,0.3,0.5S12.8,6.7,12.8,6.9z M8,5.1h0.2c0,0-0.1,0-0.1-0.1C8.1,5,8.1,5,8,5.1z M8.3,5.1
			c0.1,0,0.1,0.1,0.2,0.1c0.1,0,0.1,0,0.2,0c-0.1,0-0.1,0-0.2,0C8.4,5.1,8.3,5.1,8.3,5.1z M9.2,5.4c0.1,0.1,0.2,0.2,0.4,0.2
			s0.3,0.1,0.5,0.1C10,5.6,9.8,5.5,9.6,5.4S9.3,5.4,9.2,5.4z M10.3,1.4c-0.1,0-0.1-0.1-0.2-0.1l0,0C10.2,1.3,10.3,1.3,10.3,1.4
			C10.3,1.3,10.3,1.4,10.3,1.4C10.4,1.4,10.3,1.4,10.3,1.4z M10.2,5.7c0.1,0.1,0.1,0.1,0.2,0.1s0.1,0,0.2,0c0-0.1-0.1-0.2-0.1-0.2
			c0,0-0.1,0-0.2,0.1C10.3,5.7,10.2,5.7,10.2,5.7z M11.3,6c0.1,0,0.1,0,0.2,0c0,0,0.1,0,0.2,0.1c0-0.1-0.1-0.1-0.1-0.1
			C11.4,5.9,11.3,5.9,11.3,6z"/>
		<path d="M6.7,11.4c0,0,0,0.1-0.1,0.1c-0.1,0-0.1,0-0.2,0c0,0-0.1-0.1-0.3-0.2c-0.1-0.1-0.3-0.2-0.5-0.4c-0.2-0.1-0.3-0.3-0.5-0.4
			C5.1,10.4,5,10.3,5,10.2c0-0.1-0.1-0.2-0.1-0.3c0-0.1,0-0.2,0-0.3c0-0.1,0-0.2,0.1-0.2C4.9,9.3,5,9.3,5,9.2c0.1,0,0.1-0.1,0.2-0.1
			c0.1,0,0.2,0,0.3-0.1c0.1,0,0.2,0,0.3,0L5.6,8.7c0,0,0-0.1,0-0.1c0,0,0-0.1,0-0.1C5.4,8.4,5.3,8.3,5.3,8.2c0-0.1-0.1-0.2-0.1-0.3
			c0-0.1,0-0.2,0-0.4c0-0.1,0.1-0.2,0.2-0.3C5.5,7.1,5.5,7,5.6,6.9c0.1-0.1,0.2-0.1,0.3-0.1c0.2,0,0.3,0,0.5,0s0.3,0,0.5,0
			C7.1,6.9,7.4,7,7.6,7.2c0,0,0.1,0.1,0.1,0.1c0,0,0,0,0.1,0.1s0,0,0.1,0.1c0,0,0,0,0,0c0,0,0,0,0,0c0,0-0.1,0-0.1-0.1
			c0,0,0,0,0,0.1c0,0,0,0,0,0c0,0,0.1,0.1,0.1,0.1c0,0,0.1,0.1,0.1,0.1c0,0,0,0.1,0,0.1c0,0,0,0-0.1,0c0,0,0-0.1-0.1-0.1
			c0,0,0,0,0,0v0c0,0,0.1,0.1,0.1,0.1c0,0,0.1,0,0.1,0c0-0.1,0-0.2,0-0.3c0.1,0,0.1,0.1,0.1,0.2C8,7.8,8,7.9,8,8s0,0.2,0,0.3
			c0,0,0,0.1,0,0.1c0,0,0,0,0,0.1c0,0,0,0,0,0c0,0,0,0,0,0c0,0,0-0.1,0-0.1s0-0.1,0-0.1s0-0.1,0-0.1c0,0,0,0,0,0c0,0,0,0,0,0v0.1
			c0,0,0,0.1,0,0.2c0,0.1,0,0.2-0.1,0.3c0,0.1-0.1,0.2-0.1,0.3c0,0.1-0.1,0.2-0.2,0.2c0,0.1,0,0.1,0.1,0.1c0,0,0.1,0.1,0.2,0.1
			c0,0,0.1,0,0.1,0.1s0.1,0,0.1,0.1c0,0,0,0,0,0c0,0,0,0,0,0c0,0.1,0.1,0.2,0,0.3c0,0.1-0.1,0.2-0.2,0.3c0,0-0.1,0.1-0.1,0.1
			c0.1,0,0.1,0.1,0.2,0.1c0.1,0,0.1,0,0.2,0.1c0,0,0,0,0,0c0,0,0,0,0,0c-0.1,0-0.3-0.1-0.4-0.1c-0.1,0-0.2-0.1-0.4-0.1
			c-0.2-0.1-0.3-0.1-0.5-0.2c-0.2-0.1-0.3-0.1-0.5-0.2C6.3,10,6.2,10,6.1,10C6,9.9,6,9.9,5.9,9.9s-0.2,0-0.2,0c-0.1,0-0.1,0-0.1,0
			c0.1,0,0.1,0,0.2,0.1C5.8,10,5.9,10,6,10c0,0,0.1,0,0.1,0c0,0,0.1,0,0.1,0c0,0,0,0,0,0c0,0,0,0,0,0h0l0.1,0.1
			c0.1,0,0.1,0.1,0.1,0.1c0,0,0,0-0.1,0s-0.1-0.1-0.2-0.1c0,0,0,0-0.1,0c0,0,0,0-0.1,0c-0.1,0-0.1,0-0.2,0s-0.1,0-0.1,0
			c-0.1,0-0.1,0,0,0.1c0.1,0.1,0.2,0.2,0.3,0.4c0.1,0.1,0.2,0.3,0.4,0.4s0.2,0.2,0.3,0.3S6.7,11.4,6.7,11.4z M7.1,8.9
			C7.1,9,7.1,9,7.2,9s0.1,0.1,0.1,0.1c0,0,0.1-0.1,0.1-0.1c0.1-0.1,0.1-0.3,0-0.4C7.3,8.5,7.2,8.4,7.1,8.4C7.1,8.3,7,8.2,6.9,8.1
			C6.7,7.8,6.4,7.6,6,7.6c0,0-0.1,0-0.1,0c0,0.1,0.1,0.2,0.2,0.3C6.3,8.3,6.7,8.6,7.1,8.9z"/>
		<path d="M5.9,12.1c-0.1,0-0.2,0-0.3-0.1c-0.1,0-0.2,0-0.3,0c-0.2,0-0.5-0.1-0.7-0.2c0,0,0-0.1,0-0.2c0-0.1,0.1-0.1,0.1-0.2
			s0.1-0.1,0.1-0.2c0-0.1,0.1-0.1,0.2-0.1c0.1,0,0.1,0,0.2,0c0.1,0,0.1,0,0.2,0c0.2,0,0.4,0.1,0.6,0.1c0.2,0,0.4,0.1,0.6,0.1
			c0.1,0,0.1,0,0.2,0c0.1,0,0.1,0,0.2,0c0.3,0.1,0.6,0.2,0.9,0.2c0.3,0.1,0.6,0.1,1,0.2c0,0,0.1,0,0.1,0c0.1,0,0.1,0,0.2,0
			c0.1,0,0.1,0,0.2,0.1c0.1,0,0.1,0,0.1,0.1l-0.4,0c0.1,0.1,0.2,0.1,0.3,0.1s0.2,0,0.3,0c0,0,0,0,0,0s0,0,0,0c0.1,0,0.2,0.1,0.3,0.1
			c0.1,0,0.2,0.1,0.3,0.1c0,0,0,0,0.1,0c0,0,0.1,0,0.1,0c0.4,0.1,0.7,0.2,1.1,0.3c0.1,0,0.1,0,0.2,0c0,0,0.1,0,0.2,0.1
			c-0.1,0-0.3,0-0.4-0.1s-0.3,0-0.4,0c0.1,0.1,0.1,0.1,0.2,0.1c0,0,0,0,0.1,0c0.2,0,0.4,0,0.5,0.1c0.1,0.1,0.3,0.2,0.5,0.2
			c0.1,0,0.1,0.1,0.1,0.2c0,0.1,0.1,0.2,0.1,0.3c0,0.1,0,0.2,0,0.4c0,0.1,0,0.2,0,0.3c0,0.1-0.1,0.2-0.2,0.1c0,0,0,0-0.1,0
			c0,0-0.1,0-0.1-0.1c-0.3-0.2-0.6-0.4-1-0.5s-0.8-0.3-1.1-0.4C9.7,13.2,9.3,13.1,9,13c-0.3-0.1-0.6-0.2-0.9-0.3c0,0.1,0,0.1,0,0.1
			c0.1,0.1,0.1,0.3,0.1,0.4c0,0.1,0,0.3,0,0.5c0,0,0,0.1,0,0.1c0,0,0,0.1,0,0.1c0,0.1-0.1,0.1-0.1,0.2c0,0.1-0.1,0.1-0.2,0.1
			c0,0-0.1,0-0.1,0s-0.1,0-0.1,0c0,0,0,0,0,0.1c0,0,0,0,0,0.1c-0.1,0-0.1,0-0.2,0c0,0-0.1,0-0.1,0c-0.1,0-0.2-0.1-0.4-0.1
			c-0.1,0-0.2-0.1-0.4-0.1c-0.1,0-0.2-0.1-0.2-0.1s-0.2-0.1-0.2-0.1c-0.1,0-0.1,0-0.2-0.1c-0.1,0-0.1,0-0.2-0.1h0
			c-0.1,0-0.1,0-0.2-0.1c-0.1,0-0.1,0-0.2-0.1c0,0-0.1,0-0.1,0c0,0-0.1,0-0.1,0c0,0,0,0,0,0c0,0,0,0,0,0c0,0,0,0-0.1,0
			c0,0,0,0-0.1,0c0,0-0.1-0.1-0.1-0.1s-0.1,0-0.2,0v0c-0.1,0-0.1,0-0.2,0c0,0,0,0,0,0.1s0,0.1,0,0.2c0,0,0.1,0,0.2,0.1
			C5,13.9,5.1,14,5.3,14.1c0.1,0.1,0.3,0.2,0.5,0.3c0.2,0.1,0.3,0.2,0.5,0.3c0.1,0.1,0.3,0.2,0.5,0.3c0,0,0,0-0.1,0
			C6.5,15,6.5,15,6.4,15c-0.1,0-0.2-0.1-0.3-0.2c0.1,0.1,0.1,0.1,0.2,0.1c0.1,0,0.1,0.1,0.2,0.1c0.1,0,0.1,0.1,0.1,0.1
			c0,0,0,0.1,0,0.1c0,0,0,0,0,0c0,0-0.1,0-0.2-0.1C6.2,15.1,6.1,15,6,14.9c-0.2-0.1-0.3-0.2-0.5-0.3c-0.2-0.1-0.4-0.2-0.5-0.3
			c-0.2-0.1-0.3-0.2-0.4-0.3C4.4,14,4.3,14,4.3,13.9c-0.1-0.1-0.1-0.2-0.1-0.3c0-0.1,0-0.1,0-0.2c0,0,0,0,0,0c0,0,0,0.1,0,0
			c0,0,0-0.1,0.1-0.4c0-0.1,0.1-0.1,0.1-0.2c0.1-0.1,0.1-0.1,0.2-0.2c0.1-0.1,0.1-0.1,0.2-0.1c0,0,0.1,0,0.1,0c0,0,0,0,0.1,0
			s0.1,0,0.2,0c0.1,0,0.1,0,0.2,0H5.1c0,0-0.1,0-0.1,0c0,0,0,0,0,0l0.3,0.1c0.1,0,0.2,0,0.2,0c0.1,0,0.1,0,0.1,0c0,0,0,0,0,0
			c0,0-0.1,0-0.1,0c0,0-0.1,0-0.1,0c0,0,0,0,0,0c0.1,0,0.1,0,0.2,0c0,0,0.1,0,0.1,0c0,0,0.1,0,0.1,0c0,0,0,0,0,0h0
			c0.2,0,0.3,0,0.5,0.1c0.2,0,0.3,0.1,0.5,0.1c0,0,0.1,0,0.1,0s0.1,0,0.1,0C7.1,13,7.1,12.9,7,12.8c-0.1-0.1-0.1-0.1-0.2-0.2
			c-0.1,0-0.2-0.1-0.2-0.1c-0.1-0.1-0.1-0.1-0.2-0.2c-0.1-0.1-0.1-0.1-0.2-0.1S6,12.1,5.9,12.1z"/>
		<path d="M6.7,19.1C6.8,19.1,6.7,19.2,6.7,19.1c-0.1,0.1-0.2,0.1-0.3,0.1c0,0-0.1-0.1-0.3-0.2c-0.1-0.1-0.2-0.2-0.4-0.3
			s-0.2-0.2-0.3-0.3c-0.1-0.1-0.2-0.2-0.2-0.2c0,0,0,0,0.1,0.1s0.1,0.1,0.2,0.2c0.1,0.1,0.1,0.1,0.2,0.2c0,0.1,0.1,0.1,0,0.1
			c0,0-0.1,0-0.2-0.1c-0.1-0.1-0.3-0.2-0.4-0.3c-0.1-0.1-0.3-0.2-0.4-0.4c-0.1-0.1-0.2-0.2-0.2-0.2c-0.1-0.1-0.1-0.2-0.1-0.4
			c0-0.1,0.1-0.2,0.1-0.2c0-0.1,0.1-0.1,0.1-0.2c0-0.1,0.1-0.1,0.1-0.1c0.1-0.1,0.2-0.2,0.3-0.2c0.1,0,0.2-0.1,0.4-0.1
			c0.1,0,0.2,0,0.3,0s0.2,0,0.2,0H6c0,0,0,0,0-0.1c0,0,0,0,0-0.1c0,0-0.1-0.1-0.1-0.1c0,0-0.1-0.1-0.1-0.1c-0.1-0.1-0.1-0.3-0.1-0.4
			s0-0.3,0-0.4c0-0.1,0.1-0.1,0.1-0.2c0-0.1,0.1-0.1,0.1-0.1c0,0,0.1,0,0.1,0c0,0,0,0,0.1,0c0.1,0,0.3,0,0.4,0.1s0.3,0.1,0.4,0.1
			c0,0,0,0,0,0s0,0,0,0c0,0,0.1,0,0.1,0c0,0,0.1,0,0.1,0c0,0,0-0.1,0-0.1c0,0-0.1,0-0.1,0c-0.1,0-0.1,0-0.2-0.1c-0.1,0-0.1,0-0.2,0
			c0,0,0,0-0.1,0c0,0,0,0,0,0c0,0,0,0,0,0c0,0,0,0,0,0c0,0,0,0,0,0c0.1,0,0.3,0,0.4,0c0.1,0,0.3,0.1,0.4,0.1c0.1,0,0.2,0.1,0.3,0.2
			c0.1,0.1,0.2,0.1,0.3,0.1c0,0.1-0.1,0.1-0.1,0.1c-0.1,0-0.1,0-0.2,0c0,0,0,0-0.1,0c0,0,0,0,0,0.1c0.1,0,0.2,0.1,0.2,0.1
			c0.1,0,0.1,0.1,0.2,0.1c0,0,0,0.1,0,0.1C8.1,16,8,16.1,7.6,16c-0.1,0-0.1,0-0.2-0.1c-0.1,0-0.1-0.1-0.2-0.1
			c-0.1-0.1-0.3-0.1-0.4-0.2c-0.1,0-0.3-0.1-0.4-0.1c0,0,0,0,0,0s0,0,0,0v0c0,0,0.1,0.1,0.1,0.1c0,0,0.1,0.1,0.1,0.1
			c0.1,0.1,0.3,0.2,0.4,0.3c0.1,0.1,0.2,0.2,0.4,0.3c0.1,0.1,0.3,0.2,0.4,0.3S8,16.9,8.1,17c0,0,0,0,0.1,0.1s0.1,0,0.1,0.1
			c0,0,0,0.1,0,0.2s0,0.1,0,0.1c0,0.1,0,0.3,0,0.4S8.2,18,8.1,18.1c0,0,0,0,0,0c0,0,0,0-0.1,0c0,0-0.1,0-0.1,0s-0.1,0-0.1,0
			c-0.2,0-0.4-0.1-0.5-0.2c-0.2-0.1-0.4-0.1-0.5-0.2c-0.1,0-0.2-0.1-0.3-0.1c-0.1,0-0.2,0-0.3-0.1c0,0-0.1,0-0.1,0
			c0,0-0.1,0-0.1,0.1c-0.1,0-0.2,0-0.3-0.1c-0.1,0-0.2,0-0.2-0.1c-0.1,0-0.2,0-0.3-0.1c0,0,0,0-0.1,0c0,0-0.1,0-0.1,0
			c0,0.1,0.1,0.1,0.1,0.1l0.7,0.7c0.2,0.2,0.3,0.3,0.5,0.5S6.6,19,6.7,19.1z M6.1,17.7L6.1,17.7L6.1,17.7c0.1,0,0.1,0,0.2,0
			c0.1,0,0.1,0,0.2,0.1C6.3,17.8,6.2,17.8,6.1,17.7z M6.5,17.9C6.5,17.9,6.5,17.8,6.5,17.9C6.5,17.8,6.5,17.8,6.5,17.9
			c0.1,0,0.3,0,0.4,0.1s0.2,0.1,0.4,0.1H7.2C7,18.1,6.9,18,6.9,18C6.8,18,6.7,18,6.5,17.9C6.6,17.9,6.5,17.9,6.5,17.9z"/>
		<path d="M6.8,24.9C6.8,24.9,6.8,25,6.8,24.9C6.8,25,6.7,25,6.8,24.9C6.7,25,6.6,25,6.6,25s-0.1,0-0.1,0c0,0-0.1-0.1-0.2-0.1
			c-0.1,0-0.1-0.1-0.2-0.1c0,0-0.1,0-0.1,0s-0.1,0-0.1,0c0,0-0.1-0.1-0.1-0.1c0,0-0.1,0-0.1-0.1c0,0-0.1-0.1-0.1-0.1
			c0,0-0.1-0.1-0.1-0.1c-0.1-0.1-0.3-0.2-0.4-0.3C5,24.1,4.8,24,4.7,23.9c-0.1-0.1-0.2-0.1-0.2-0.2c-0.1-0.1-0.1-0.1-0.2-0.2
			s-0.1-0.2,0-0.3s0-0.2,0.1-0.3c0.1-0.1,0.1-0.2,0.2-0.2c0.1-0.1,0.3-0.1,0.5,0c0.5,0.1,1,0.2,1.4,0.4s0.9,0.3,1.4,0.5
			c0-0.2-0.1-0.4-0.3-0.6c-0.2-0.1-0.3-0.3-0.5-0.4c-0.2-0.1-0.3-0.2-0.5-0.3c-0.1,0-0.1-0.1-0.2-0.1s-0.1-0.1-0.2-0.1
			c-0.1,0-0.2-0.1-0.2-0.3c0-0.1,0-0.2,0-0.4c0.1-0.2,0.2-0.3,0.5-0.3c0.1,0,0.2,0,0.3,0c0.1,0,0.2,0,0.3,0.1c0.1,0,0.2,0,0.1,0
			c-0.1-0.1-0.1-0.2-0.3-0.3c-0.1-0.1-0.3-0.2-0.4-0.3c-0.1-0.1-0.2-0.2-0.3-0.2c-0.1-0.1-0.2-0.1-0.3-0.2c-0.1-0.1-0.2-0.1-0.3-0.2
			c-0.1-0.1-0.3-0.2-0.4-0.2c-0.1-0.1-0.3-0.2-0.4-0.2c0,0,0-0.1,0-0.1c0-0.2,0-0.3,0.1-0.4c0.1-0.1,0.2-0.2,0.4-0.2
			c0.1,0,0.2,0,0.3,0c0.1,0,0.2,0,0.3,0c0,0,0,0,0,0l0,0c0-0.1,0.1-0.1,0.2-0.1c0.1,0,0.3,0.1,0.4,0.1s0.3,0.1,0.4,0.1
			c0.2,0,0.3,0.1,0.5,0.1s0.3,0.1,0.5,0.1c0.1,0,0.2,0.1,0.3,0.1c0.1,0,0.2,0.1,0.3,0.1c0,0,0,0,0.1,0c0,0,0.1,0,0.1,0.1
			c0,0-0.1,0-0.1,0c-0.2,0-0.3-0.1-0.5-0.1c-0.2-0.1-0.3-0.1-0.5-0.2c-0.1,0-0.3-0.1-0.4,0c0,0,0,0,0,0c0,0,0,0,0,0
			c0.2,0.1,0.4,0.1,0.6,0.2s0.4,0.2,0.6,0.3c0.1,0.1,0.2,0.2,0.3,0.3s0.1,0.3,0.1,0.5c0,0.1-0.1,0.2-0.3,0.3
			c-0.4-0.2-0.8-0.3-1.2-0.4c0,0,0,0,0,0.1c0,0,0,0,0,0.1c0.2,0.2,0.4,0.3,0.6,0.5c0.2,0.2,0.3,0.4,0.3,0.7c0,0.1,0,0.1,0,0.2
			c0,0.1,0,0.1-0.1,0.2S8.1,22.3,8,22.3c-0.1,0-0.2,0-0.4-0.1c0,0,0,0,0,0s0,0,0,0c0,0,0,0,0,0.1c0.2,0.1,0.3,0.3,0.4,0.5
			c0.1,0.2,0.2,0.4,0.3,0.6c0,0.1,0.1,0.2,0.1,0.3c0,0.1,0,0.2,0,0.3c0,0.1,0,0.1-0.1,0.2s-0.1,0.1-0.1,0.1
			c-0.1,0.1-0.1,0.1-0.3,0.1c-0.1,0-0.2,0-0.3,0c-0.2-0.1-0.4-0.1-0.6-0.2s-0.4-0.2-0.6-0.3c-0.2-0.1-0.4-0.2-0.6-0.2
			c-0.2-0.1-0.4-0.1-0.7-0.1c0.1,0.1,0.3,0.2,0.4,0.4c0.2,0.2,0.3,0.3,0.5,0.5c0.2,0.2,0.3,0.3,0.5,0.4C6.6,24.9,6.7,24.9,6.8,24.9z
			 M6.5,19.1c0.1,0,0.2,0,0.4,0c0.1,0,0.1,0,0.2,0c0.1,0,0.1,0,0.2,0v0h0C7,19,6.9,19,6.7,19c-0.2,0-0.3,0-0.5-0.1c0,0,0,0,0,0
			c0,0,0,0-0.1,0c0.1,0,0.1,0,0.2,0.1C6.4,19,6.4,19,6.5,19.1z"/>
	</g>
</g>
</svg>
