<?xml version="1.0" encoding="utf-8"?>
<!-- Generator: Adobe Illustrator 27.7.0, SVG Export Plug-In . SVG Version: 6.00 Build 0)  -->
<svg version="1.1" id="Layer_2_00000000919894843427881850000004461207208150722492_"
	 xmlns="http://www.w3.org/2000/svg" xmlns:xlink="http://www.w3.org/1999/xlink" x="0px" y="0px" viewBox="0 0 13.1 29.6"
	 style="enable-background:new 0 0 13.1 29.6;" xml:space="preserve">
<style type="text/css">
	.st0{enable-background:new    ;}
</style>
<g id="Layer_1-2">
	<g class="st0">
		<path d="M12.8,6.9c0,0.2,0,0.3-0.1,0.4c-0.1,0.1-0.2,0.1-0.4,0.1c-0.1,0-0.2,0-0.2,0s-0.1,0-0.2-0.1c-0.6-0.2-1.2-0.4-1.9-0.6
			C9.3,6.5,8.7,6.4,8.1,6.2C7.8,6.1,7.4,6,7.1,5.9S6.4,5.8,6,5.7c-0.1,0-0.2,0-0.4,0s-0.2,0-0.4,0c-0.2,0-0.4,0-0.6,0
			c-0.2,0-0.4,0.1-0.6,0.2c0,0-0.1,0.1-0.2,0.1c-0.1,0-0.1,0-0.2-0.1c0,0-0.1-0.1-0.1-0.2s0-0.1,0.1-0.2C3.9,5.3,4,5.2,4.1,5.1
			C4.2,5,4.3,4.9,4.5,4.8c0.4-0.1,0.9-0.2,1.3-0.2c0.4,0,0.9,0.1,1.3,0.2c0.1,0,0.2,0,0.4,0.1S7.7,5,7.8,5.1C7.8,5,7.7,4.9,7.6,4.9
			c-0.1,0-0.1-0.1-0.2-0.1c-0.1,0-0.1,0-0.2,0c-0.1,0-0.1,0-0.2,0c-0.1,0-0.1,0-0.1,0C6.8,4.6,6.7,4.5,6.6,4.5s-0.2,0-0.3,0
			c-0.1,0-0.2,0-0.3-0.1c0.1,0,0.1-0.1,0.2-0.1c0.3,0,0.5,0,0.8,0.1s0.5,0.1,0.8,0.2c0.2,0,0.3,0.1,0.5,0.1c0.2,0,0.3,0.1,0.5,0.1
			C8.9,4.9,9.1,5,9.3,5c0.2,0.1,0.4,0.1,0.6,0.2c0.4,0.2,0.7,0.3,1.1,0.4c0.1,0,0.2,0.1,0.3,0.1c-0.1-0.2-0.2-0.3-0.3-0.4
			c-0.1-0.1-0.2-0.2-0.3-0.3c-0.2-0.2-0.4-0.4-0.6-0.5C9.8,4.3,9.6,4.1,9.5,3.9C9,3.5,8.6,3.1,8.1,2.7c-0.5-0.4-1-0.7-1.5-1
			C6.5,1.7,6.4,1.6,6.2,1.6C6.1,1.5,6,1.5,5.8,1.4C5.6,1.3,5.4,1.3,5.2,1.2C5,1.1,4.8,1,4.5,0.9c0,0-0.1,0-0.1,0c0,0-0.1,0-0.1-0.1
			C4,0.6,3.9,0.3,4.2,0c0,0,0,0,0,0c0,0,0,0,0,0c0,0,0,0,0,0c0.8,0.2,1.5,0.4,2.3,0.6s1.5,0.4,2.3,0.6v0c0,0-0.1,0-0.1-0.1
			c0,0-0.1,0-0.1-0.1C8.4,0.9,8.2,0.9,8,0.8C7.9,0.7,7.7,0.7,7.4,0.7C7.3,0.6,7.2,0.5,7,0.5c-0.2,0-0.3-0.1-0.5-0.1c0,0-0.1,0-0.1,0
			c0,0,0,0-0.1,0c0.1,0,0.1-0.1,0.2-0.1s0.1,0,0.2,0c0.5,0.1,1,0.2,1.5,0.4c0.5,0.1,1,0.3,1.5,0.5c0.1,0,0.1,0.1,0.1,0.1
			c-0.1,0-0.1-0.1-0.2-0.1c-0.1,0-0.1,0-0.2,0c0.1,0.1,0.3,0.2,0.4,0.3c0.1,0.1,0.3,0.1,0.4,0.2c0.4,0.1,0.9,0.3,1.3,0.5
			c0.1,0,0.2,0.1,0.2,0.2c0,0.1,0,0.2,0,0.3c0,0,0,0,0,0c0,0,0,0,0,0c-0.1,0.1-0.1,0.2-0.2,0.3c0,0.1-0.1,0.1-0.1,0.2
			c-0.1,0-0.1,0-0.2,0S11.1,3.1,10.9,3c-0.4-0.2-0.9-0.3-1.3-0.5C9.2,2.4,8.8,2.3,8.3,2.1c0,0-0.1,0-0.1,0s-0.1,0-0.1,0
			c0.1,0.1,0.2,0.1,0.2,0.2c0.1,0.1,0.2,0.1,0.2,0.2C9,2.8,9.5,3.2,9.9,3.6c0.4,0.4,0.9,0.8,1.4,1.1c0.2,0.2,0.4,0.4,0.5,0.6
			c0.2,0.2,0.4,0.4,0.6,0.6c0.1,0.1,0.2,0.3,0.3,0.5S12.8,6.7,12.8,6.9z M8,5.1h0.2c0,0-0.1,0-0.1-0.1C8.1,5,8.1,5,8,5.1z M8.3,5.1
			c0.1,0,0.1,0.1,0.2,0.1c0.1,0,0.1,0,0.2,0c-0.1,0-0.1,0-0.2,0C8.4,5.1,8.3,5.1,8.3,5.1z M9.2,5.4c0.1,0.1,0.2,0.2,0.4,0.2
			s0.3,0.1,0.5,0.1C10,5.6,9.8,5.5,9.6,5.4S9.3,5.4,9.2,5.4z M10.3,1.4c-0.1,0-0.1-0.1-0.2-0.1l0,0C10.2,1.3,10.3,1.3,10.3,1.4
			C10.3,1.3,10.3,1.4,10.3,1.4C10.4,1.4,10.3,1.4,10.3,1.4z M10.2,5.7c0.1,0.1,0.1,0.1,0.2,0.1s0.1,0,0.2,0c0-0.1-0.1-0.2-0.1-0.2
			c0,0-0.1,0-0.2,0.1C10.3,5.7,10.2,5.7,10.2,5.7z M11.3,6c0.1,0,0.1,0,0.2,0c0,0,0.1,0,0.2,0.1c0-0.1-0.1-0.1-0.1-0.1
			C11.4,5.9,11.3,5.9,11.3,6z"/>
		<path d="M6.7,10.9C6.8,10.9,6.7,11,6.7,10.9C6.6,11,6.4,11,6.3,11c0,0-0.1-0.1-0.3-0.2s-0.2-0.2-0.4-0.3c-0.1-0.1-0.2-0.2-0.3-0.3
			C5.3,10,5.2,10,5.2,10c0,0,0,0,0.1,0.1c0,0.1,0.1,0.1,0.2,0.2c0.1,0.1,0.1,0.1,0.2,0.2s0.1,0.1,0,0.1c0,0-0.1,0-0.2-0.1
			C5.3,10.3,5.2,10.2,5,10C4.9,9.9,4.7,9.8,4.6,9.7C4.5,9.5,4.4,9.5,4.4,9.4C4.4,9.3,4.3,9.2,4.3,9c0-0.1,0.1-0.2,0.1-0.2
			c0-0.1,0.1-0.1,0.1-0.2s0.1-0.1,0.1-0.1c0.1-0.1,0.2-0.2,0.3-0.2c0.1,0,0.2-0.1,0.4-0.1c0.1,0,0.2,0,0.3,0s0.2,0,0.2,0H6
			c0,0,0,0,0-0.1s0,0,0-0.1c0,0-0.1-0.1-0.1-0.1c0,0-0.1-0.1-0.1-0.1C5.6,7.7,5.6,7.6,5.6,7.4s0-0.3,0-0.4c0-0.1,0.1-0.1,0.1-0.2
			s0.1-0.1,0.1-0.1c0,0,0.1,0,0.1,0c0,0,0,0,0.1,0c0.1,0,0.3,0,0.4,0.1s0.3,0.1,0.4,0.1c0,0,0,0,0,0s0,0,0,0c0,0,0.1,0,0.1,0
			c0,0,0.1,0,0.1,0c0,0,0-0.1,0-0.1c0,0-0.1,0-0.1,0c-0.1,0-0.1,0-0.2-0.1c-0.1,0-0.1,0-0.2,0c0,0,0,0-0.1,0c0,0,0,0,0,0
			c0,0,0,0,0,0c0,0,0,0,0,0c0,0,0,0,0,0c0.1,0,0.3,0,0.4,0c0.1,0,0.3,0.1,0.4,0.1c0.1,0,0.2,0.1,0.3,0.2C7.8,6.9,7.9,7,8.1,7
			C8,7.1,8,7.1,7.9,7.1c-0.1,0-0.1,0-0.2,0c0,0,0,0-0.1,0s0,0,0,0.1c0.1,0,0.2,0.1,0.2,0.1c0.1,0,0.1,0.1,0.2,0.1c0,0,0,0.1,0,0.1
			c0,0.4-0.1,0.5-0.5,0.4c-0.1,0-0.1,0-0.2-0.1c-0.1,0-0.1-0.1-0.2-0.1C7.1,7.6,7,7.6,6.8,7.5c-0.1,0-0.3-0.1-0.4-0.1c0,0,0,0,0,0
			s0,0,0,0v0c0,0,0.1,0.1,0.1,0.1c0,0,0.1,0.1,0.1,0.1c0.1,0.1,0.3,0.2,0.4,0.3C7.1,8,7.2,8.1,7.3,8.2c0.1,0.1,0.3,0.2,0.4,0.3
			S8,8.7,8.1,8.8c0,0,0,0,0.1,0.1c0,0,0.1,0,0.1,0.1c0,0,0,0.1,0,0.1c0,0.1,0,0.1,0,0.1c0,0.1,0,0.3,0,0.4c0,0.1-0.1,0.2-0.1,0.3
			c0,0,0,0,0,0c0,0,0,0-0.1,0c0,0-0.1,0-0.1,0s-0.1,0-0.1,0c-0.2,0-0.4-0.1-0.5-0.2C7.1,9.7,6.9,9.6,6.7,9.6c-0.1,0-0.2-0.1-0.3-0.1
			c-0.1,0-0.2,0-0.3-0.1c0,0-0.1,0-0.1,0c0,0-0.1,0-0.1,0.1c-0.1,0-0.2,0-0.3-0.1c-0.1,0-0.2,0-0.2-0.1s-0.2,0-0.3-0.1
			c0,0,0,0-0.1,0c0,0-0.1,0-0.1,0c0,0.1,0.1,0.1,0.1,0.1l0.7,0.7c0.2,0.2,0.3,0.3,0.5,0.5C6.5,10.7,6.6,10.8,6.7,10.9z M6.1,9.5
			L6.1,9.5L6.1,9.5c0.1,0,0.1,0,0.2,0c0.1,0,0.1,0,0.2,0.1C6.3,9.6,6.2,9.6,6.1,9.5z M6.5,9.7C6.5,9.7,6.5,9.6,6.5,9.7
			C6.5,9.6,6.5,9.6,6.5,9.7c0.1,0,0.3,0,0.4,0.1s0.2,0.1,0.4,0.1H7.2C7,9.9,6.9,9.8,6.9,9.8S6.7,9.7,6.5,9.7
			C6.6,9.7,6.5,9.7,6.5,9.7z"/>
		<path d="M6.8,16.7C6.8,16.7,6.8,16.7,6.8,16.7C6.8,16.8,6.7,16.8,6.8,16.7c-0.1,0.1-0.1,0.1-0.2,0.1s-0.1,0-0.1,0
			c0,0-0.1-0.1-0.2-0.1c-0.1,0-0.1-0.1-0.2-0.1c0,0-0.1,0-0.1,0c0,0-0.1,0-0.1,0c0,0-0.1-0.1-0.1-0.1c0,0-0.1,0-0.1-0.1
			c0,0-0.1-0.1-0.1-0.1c0,0-0.1-0.1-0.1-0.1c-0.1-0.1-0.3-0.2-0.4-0.3c-0.1-0.1-0.2-0.2-0.3-0.3c-0.1-0.1-0.2-0.1-0.2-0.2
			c-0.1-0.1-0.1-0.1-0.2-0.2s-0.1-0.2,0-0.3c0-0.1,0-0.2,0.1-0.3c0.1-0.1,0.1-0.2,0.2-0.2c0.1-0.1,0.3-0.1,0.5,0
			c0.5,0.1,1,0.2,1.4,0.4s0.9,0.3,1.4,0.5c0-0.2-0.1-0.4-0.3-0.6c-0.2-0.1-0.3-0.3-0.5-0.4c-0.2-0.1-0.3-0.2-0.5-0.3
			c-0.1,0-0.1-0.1-0.2-0.1S6.4,14,6.3,13.9c-0.1,0-0.2-0.1-0.2-0.3c0-0.1,0-0.2,0-0.4C6.2,13.1,6.3,13,6.6,13c0.1,0,0.2,0,0.3,0
			C7,13,7.1,13,7.2,13c0.1,0,0.2,0,0.1,0c-0.1-0.1-0.1-0.2-0.3-0.3s-0.3-0.2-0.4-0.3c-0.1-0.1-0.2-0.2-0.3-0.2C6.3,12.1,6.2,12,6,12
			c-0.1-0.1-0.2-0.1-0.3-0.2c-0.1-0.1-0.3-0.1-0.4-0.2c-0.1-0.1-0.3-0.2-0.4-0.2c0,0,0-0.1,0-0.1c0-0.2,0-0.3,0.1-0.4
			c0.1-0.1,0.2-0.2,0.4-0.2c0.1,0,0.2,0,0.3,0c0.1,0,0.2,0,0.3,0c0,0,0,0,0,0l0,0c0-0.1,0.1-0.1,0.2-0.1c0.1,0,0.3,0.1,0.4,0.1
			c0.1,0,0.3,0.1,0.4,0.1c0.2,0,0.3,0.1,0.5,0.1s0.3,0.1,0.5,0.1C8,11,8.1,11,8.2,11.1c0.1,0,0.2,0.1,0.3,0.1c0,0,0,0,0.1,0
			c0,0,0.1,0,0.1,0.1c0,0-0.1,0-0.1,0c-0.2,0-0.3-0.1-0.5-0.1C7.9,11.1,7.8,11,7.6,11c-0.1,0-0.3-0.1-0.4,0c0,0,0,0,0,0c0,0,0,0,0,0
			c0.2,0.1,0.4,0.1,0.6,0.2c0.2,0.1,0.4,0.2,0.6,0.3c0.1,0.1,0.2,0.2,0.3,0.3s0.1,0.3,0.1,0.5c0,0.1-0.1,0.2-0.3,0.3
			c-0.4-0.2-0.8-0.3-1.2-0.4c0,0,0,0,0,0.1s0,0,0,0.1c0.2,0.2,0.4,0.3,0.6,0.5s0.3,0.4,0.3,0.7c0,0.1,0,0.1,0,0.2
			c0,0.1,0,0.1-0.1,0.2C8.2,14,8.1,14,8,14.1c-0.1,0-0.2,0-0.4-0.1c0,0,0,0,0,0s0,0,0,0c0,0,0,0,0,0.1c0.2,0.1,0.3,0.3,0.4,0.5
			c0.1,0.2,0.2,0.4,0.3,0.6c0,0.1,0.1,0.2,0.1,0.3c0,0.1,0,0.2,0,0.3c0,0.1,0,0.1-0.1,0.2c0,0-0.1,0.1-0.1,0.1
			c-0.1,0.1-0.1,0.1-0.3,0.1s-0.2,0-0.3,0C7.4,16.1,7.2,16,7,15.9c-0.2-0.1-0.4-0.2-0.6-0.3c-0.2-0.1-0.4-0.2-0.6-0.2
			s-0.4-0.1-0.7-0.1c0.1,0.1,0.3,0.2,0.4,0.4c0.2,0.2,0.3,0.3,0.5,0.5s0.3,0.3,0.5,0.4C6.6,16.7,6.7,16.7,6.8,16.7z M6.5,10.8
			c0.1,0,0.2,0,0.4,0c0.1,0,0.1,0,0.2,0c0.1,0,0.1,0,0.2,0v0h0c-0.2-0.1-0.3-0.1-0.5-0.1c-0.2,0-0.3,0-0.5-0.1c0,0,0,0,0,0
			c0,0,0,0-0.1,0c0.1,0,0.1,0,0.2,0.1C6.4,10.8,6.4,10.8,6.5,10.8z"/>
		<path d="M10.4,19.1c-0.1,0-0.1,0-0.2,0c0,0-0.1,0-0.1-0.1c-0.3-0.2-0.6-0.3-0.9-0.5c-0.3-0.1-0.6-0.3-0.9-0.4
			c-0.1,0-0.1-0.1-0.2-0.1c-0.1,0-0.1,0-0.2,0c0,0,0,0,0,0.1c0,0,0,0,0,0c0,0,0,0.1,0.1,0.1c0,0,0,0.1,0.1,0.1
			c0.1,0.1,0.1,0.2,0.1,0.3c0,0.1,0,0.2,0,0.3c0,0.2-0.1,0.3-0.1,0.4s-0.2,0.2-0.3,0.3c0,0-0.1,0-0.1,0c0,0-0.1,0-0.1,0
			c0,0.1,0.1,0.1,0.2,0.1s0.1,0,0.2,0c-0.1,0.1-0.2,0.2-0.3,0.1c-0.1,0-0.1,0-0.2,0s-0.1,0-0.2,0c-0.2,0-0.3-0.1-0.5-0.1
			c-0.2,0-0.3,0-0.5-0.1c0,0-0.1,0-0.1,0c0,0,0,0-0.1-0.1c0,0,0,0-0.1,0c0,0-0.1,0-0.1,0c-0.1,0-0.2-0.1-0.3-0.1
			c-0.1,0-0.2-0.1-0.3-0.1c0,0,0,0,0,0c0,0,0,0,0,0c0-0.1-0.1-0.1-0.2-0.2s-0.1-0.1-0.1-0.1C5.1,19.1,5,19,5,18.9c0-0.2,0-0.3,0-0.4
			c0-0.2,0.1-0.3,0.2-0.5c0.1-0.1,0.2-0.3,0.3-0.4c0,0,0,0,0,0c0,0,0,0,0,0v0c-0.1,0-0.2,0-0.3-0.1s-0.2,0-0.4,0
			c-0.2,0-0.3-0.1-0.3-0.2c0.1-0.1,0.1-0.2,0.2-0.3c0.1-0.1,0.2-0.2,0.3-0.2c0.2-0.1,0.3-0.1,0.4-0.1s0.3,0,0.5,0c0.1,0,0.2,0,0.3,0
			c0.1,0,0.2,0,0.3,0c0,0,0,0,0.1,0c0.2,0,0.4,0,0.6,0c0.2,0.1,0.4,0.1,0.6,0.1c0.4,0.1,0.7,0.2,1,0.3c0.3,0.1,0.7,0.2,1,0.3
			c0.3,0.1,0.5,0.2,0.8,0.2c0.3,0.1,0.5,0.1,0.8,0.2c0.1,0,0.2,0.1,0.3,0.1c0.1,0,0.2,0.1,0.3,0.1c0,0,0.1,0,0.1,0.1
			c0,0,0.1,0,0.1,0.1c0,0.1,0,0.1,0,0.2c0,0,0.1,0.1,0.1,0.1c-0.1,0-0.1,0-0.2,0c-0.1,0-0.1,0-0.2,0c0,0,0-0.1,0-0.1
			c0,0-0.1-0.1-0.2-0.1c-0.1,0-0.2,0-0.3,0c0.1,0.1,0.3,0.2,0.4,0.2c0,0,0,0.1,0.1,0.1c0,0,0,0,0.1,0c0.1,0,0.1,0.1,0.2,0.1
			c0.1,0,0.1,0.1,0.2,0.1c0.1,0.1,0.2,0.1,0.2,0.2c0,0.3-0.1,0.6-0.2,0.8c0,0,0,0.1,0,0.1c0,0,0,0.1,0,0.1c0,0,0,0.1-0.1,0.1
			c0,0,0,0-0.1,0.1c-0.1,0-0.1-0.1-0.2-0.1c-0.1,0-0.1-0.1-0.2-0.1c-0.1-0.1-0.3-0.2-0.5-0.3c-0.2-0.1-0.3-0.2-0.5-0.2
			c0,0-0.1-0.1-0.1-0.1c-0.1,0-0.1,0-0.2-0.1C10.6,19.1,10.5,19.1,10.4,19.1C10.4,19.1,10.4,19.1,10.4,19.1z M7.5,18.9
			C7.5,18.8,7.5,18.8,7.5,18.9c-0.2-0.3-0.4-0.5-0.6-0.6s-0.4-0.3-0.7-0.5c0,0,0,0-0.1,0c0,0-0.1,0-0.1,0c-0.1,0-0.1,0-0.2,0.1
			s-0.1,0.1-0.2,0.1c-0.2,0.1-0.2,0.2-0.2,0.3c0,0.1,0,0.2,0.1,0.3c0,0,0,0,0.1,0.1c0.1,0,0.2,0.1,0.2,0.1c0.1,0,0.2,0.1,0.2,0.1
			c0,0,0.1,0,0.1,0s0.1,0,0.1,0c0.1,0.1,0.1,0.1,0.2,0.1c0,0,0.1,0.1,0.1,0.1s0.1,0,0.1,0c0.1,0,0.2,0,0.3,0c0.1,0,0.2,0,0.3,0
			C7.4,18.9,7.5,18.9,7.5,18.9z M11.5,18c0-0.1-0.1-0.1-0.2-0.1c-0.1,0-0.1-0.1-0.2-0.1c-0.1,0-0.2-0.1-0.3-0.1
			c-0.1,0-0.2-0.1-0.3-0.1c-0.2-0.1-0.3-0.1-0.5-0.2c-0.2,0-0.3-0.1-0.5-0.1c0,0-0.1,0-0.1,0s0,0-0.1,0c0.1,0,0.2,0.1,0.4,0.2
			c0.2,0.1,0.4,0.1,0.6,0.2c0.2,0.1,0.4,0.1,0.6,0.2S11.4,18,11.5,18z"/>
		<path d="M6.7,23.7c0,0-0.1,0-0.2-0.1c-0.1-0.1-0.2-0.1-0.3-0.3c-0.1-0.1-0.1-0.1-0.2-0.2c0-0.1-0.1-0.1-0.2-0.2
			c0,0-0.1-0.1-0.2-0.1c-0.1,0-0.1-0.1-0.2-0.1c-0.3-0.2-0.5-0.5-0.6-0.8c-0.1-0.1-0.1-0.3-0.1-0.4c0-0.2,0-0.3,0-0.5
			c0,0,0-0.1,0-0.1c0,0,0-0.1,0-0.1C5,20.8,5,20.7,5.1,20.6c0.1-0.1,0.1-0.2,0.2-0.2c0,0,0.1-0.1,0.1-0.1s0.1,0,0.1,0
			c0.2,0,0.3,0,0.5,0c0.1,0,0.1,0,0.2,0c0.1,0,0.2,0,0.3,0c0.1,0,0.2,0.1,0.4,0.1c0.1,0.1,0.2,0.1,0.3,0.2c-0.1,0-0.1-0.1-0.2-0.1
			c-0.1,0-0.1-0.1-0.2-0.1c-0.1,0-0.1,0-0.2-0.1c-0.1,0-0.1,0-0.2,0c0.2,0.1,0.3,0.2,0.4,0.2c0.1,0,0.3,0.1,0.4,0.2
			C7.4,20.9,7.5,21,7.6,21s0.2,0.2,0.3,0.2c0,0,0,0.1,0,0.1c0,0,0,0.1,0,0.1c0.1,0.1,0.2,0.3,0.2,0.4s0.1,0.3,0.1,0.5
			c0,0.2,0,0.3-0.1,0.5c0,0,0,0.1,0,0.1c0,0,0,0.1-0.1,0.1c0,0,0,0.1-0.1,0.1c0,0,0,0-0.1,0c-0.1,0.1-0.1,0.2-0.2,0.2s-0.2,0-0.2,0
			c-0.1,0-0.1-0.1-0.2-0.1c-0.1,0-0.1-0.1-0.2-0.1C7.1,23,7,22.9,6.9,22.8c-0.1-0.1-0.2-0.2-0.2-0.3c-0.1-0.2-0.2-0.4-0.2-0.6
			c0-0.1,0-0.2,0-0.2c0-0.1,0-0.1,0-0.1c0,0-0.1-0.1-0.1-0.1c0,0-0.1,0-0.2-0.1c-0.1,0-0.2-0.1-0.3-0.1c-0.1,0-0.2-0.1-0.3-0.1
			c0,0-0.1,0-0.1,0s-0.1,0-0.1,0c0,0.1,0,0.2,0,0.2c0,0.1,0.1,0.1,0.1,0.2c0.1,0.1,0.1,0.2,0.2,0.4c0.1,0.1,0.1,0.2,0.2,0.4
			c0.1,0.2,0.2,0.3,0.4,0.5s0.3,0.3,0.4,0.5v0c0,0.1,0.1,0.1,0.1,0.1C6.7,23.6,6.7,23.6,6.7,23.7C6.8,23.7,6.8,23.7,6.7,23.7z
			 M7.8,22.4c-0.2-0.3-0.5-0.5-0.8-0.6c0.1,0.1,0.2,0.3,0.2,0.4c0.1,0.1,0.2,0.2,0.3,0.3c0,0,0,0,0,0c0,0,0,0,0.1,0
			C7.7,22.5,7.8,22.5,7.8,22.4z"/>
		<path d="M7.7,26.5c0,0-0.1,0-0.1,0c0,0-0.1,0-0.1-0.1c0,0,0-0.1,0-0.1s0-0.1,0-0.1c0,0,0-0.1,0-0.1s0-0.1,0-0.1
			c0-0.1,0-0.2-0.1-0.3c-0.1-0.1-0.1-0.2-0.2-0.3C7,25.3,7,25.2,6.9,25.2c-0.1-0.1-0.1-0.1-0.2-0.2c-0.2-0.2-0.4-0.3-0.7-0.4
			c-0.2,0-0.3-0.1-0.5-0.2c-0.2-0.1-0.4-0.1-0.6-0.1c-0.1,0-0.1,0-0.2,0c-0.1,0-0.1,0-0.2-0.1c0,0-0.1,0-0.1-0.1
			c-0.1-0.1-0.1-0.3,0-0.3c0-0.1,0.1-0.2,0.2-0.3c0,0,0.1-0.1,0.2-0.1c0.1,0,0.1,0,0.2-0.1c0.1,0,0.1,0,0.2,0c0.2,0,0.3,0.1,0.5,0.1
			s0.3,0.1,0.5,0.1c0,0,0,0,0,0c0,0,0,0,0-0.1c0.2,0.1,0.3,0.1,0.5,0.1c0.1,0,0.3,0.1,0.4,0.2c0.1,0.1,0.3,0.1,0.4,0.2
			s0.3,0.1,0.4,0.2c0,0,0.1,0,0.1,0.1c0,0.1,0.1,0.1,0.1,0.1c0,0,0,0.1,0,0.1c0,0,0,0.1,0,0.1c0,0.1,0,0.1,0,0.2
			c0,0.1,0,0.1-0.1,0.2c0,0,0,0.1-0.1,0.1c-0.1,0-0.1,0-0.2,0.1l0,0c0,0,0,0,0,0c0,0,0,0.1,0,0.1c0,0,0,0.1,0,0.1
			c0,0.1,0.1,0.2,0.1,0.3s0,0.2,0,0.3c0,0.1,0,0.1-0.1,0.2C7.8,26.3,7.8,26.4,7.7,26.5C7.7,26.4,7.7,26.5,7.7,26.5
			C7.7,26.5,7.7,26.5,7.7,26.5z M5.7,23.4C5.7,23.4,5.7,23.4,5.7,23.4C5.7,23.4,5.7,23.4,5.7,23.4c0-0.1,0.2-0.1,0.3-0.1
			c0.1,0,0.2,0.1,0.4,0.1c-0.1,0-0.3,0-0.4,0C5.9,23.4,5.8,23.4,5.7,23.4z"/>
		<path d="M5.7,28.9c0,0.1,0,0.1,0,0.1c0,0,0,0.1-0.1,0c0,0-0.1,0-0.1,0c0,0,0,0-0.1,0c-0.1,0-0.2,0-0.3-0.1c0,0,0,0,0,0
			c0,0,0,0,0,0.1C5,29,4.9,28.9,4.7,28.9c-0.2-0.1-0.3-0.1-0.4-0.2c0,0-0.1,0-0.1-0.1c0,0,0-0.1-0.1-0.1c0,0,0-0.1,0-0.1
			c0,0,0,0,0-0.1c-0.1-0.1-0.2-0.1-0.2-0.2c0,0-0.1-0.1-0.1-0.2c0-0.1-0.1-0.1-0.1-0.2c0,0,0-0.1-0.1-0.1s-0.1-0.1-0.1-0.1
			c0,0-0.1-0.1-0.1-0.1c0,0,0-0.1,0-0.2c0,0,0,0,0-0.1c0,0,0-0.1,0-0.1c0-0.1-0.1-0.2,0-0.2c0,0,0.1,0,0.1,0.1s0,0.1,0,0.1
			c0,0,0,0.1,0.1,0.1c0,0,0,0.1,0.1,0.1c0,0,0,0.1,0.1,0.1c0,0,0.1,0.1,0.1,0.1c0,0,0-0.1,0-0.1c0,0,0,0,0-0.1
			c-0.1-0.1-0.1-0.2-0.2-0.3c0-0.1-0.1-0.2-0.1-0.3c-0.1-0.2-0.1-0.4-0.1-0.6s0.1-0.3,0.2-0.5c0-0.1,0.1-0.1,0.2-0.2
			c0.1-0.1,0.1-0.1,0.2-0.1h0.1c0.2,0,0.3,0,0.5,0.1c0.1,0.1,0.3,0.2,0.4,0.3c0.2,0.2,0.4,0.4,0.6,0.6c0.2,0.2,0.3,0.5,0.5,0.7
			c0,0.1,0,0.1,0.1,0.2c0,0,0,0.1,0,0.2c0,0.1,0,0.1-0.1,0.1c-0.1,0-0.2,0-0.3,0c-0.1-0.1-0.2-0.1-0.2-0.2c-0.1-0.1-0.2-0.1-0.2-0.2
			c-0.2-0.2-0.3-0.3-0.5-0.4S4.2,26.4,4,26.3c0,0-0.1,0-0.1,0c0,0-0.1,0-0.1,0c0,0.1,0.1,0.2,0.1,0.3c0,0.1,0.1,0.2,0.2,0.3
			c0,0,0,0,0.1,0.1c0,0,0,0.1,0.1,0.1c0.2,0.2,0.3,0.4,0.5,0.5c0.2,0.1,0.4,0.2,0.6,0.3c0.1,0,0.2,0.1,0.2,0.1c0.1,0,0.2,0,0.2,0
			c0,0,0.1,0,0.1,0C6,28,6,28,6,28c0.1-0.1,0.1-0.1,0.1-0.2c0,0,0-0.1,0-0.1c0,0,0-0.1,0-0.1c0-0.1,0-0.2,0.1-0.4
			c0-0.1,0.1-0.2,0.2-0.3c0.1-0.2,0.2-0.2,0.3-0.3c0.1,0,0.2,0,0.3,0c0.1,0,0.2,0.1,0.3,0.2c0.1,0.1,0.2,0.1,0.3,0.2c0,0,0,0,0,0
			c0,0-0.1,0-0.1,0c0,0,0,0-0.1,0c0,0,0.1,0.1,0.1,0.1c0,0,0.1,0.1,0.1,0.1c0.1,0.1,0.2,0.1,0.3,0.2c0.1,0.1,0.1,0.2,0.2,0.3
			c0.1,0.1,0.1,0.3,0.2,0.4c0,0,0,0.1,0,0.1c0,0,0,0.1,0,0.1c0.1,0.3,0,0.5-0.1,0.7c0,0,0,0,0,0c0,0,0,0,0,0c0,0-0.1,0-0.1,0.1
			c0,0-0.1,0-0.1,0.1c-0.2,0-0.3-0.1-0.5-0.2c-0.1-0.1-0.3-0.3-0.4-0.4C7.1,28.6,7,28.5,7,28.3c0-0.1,0-0.1,0-0.2c0,0,0-0.1,0.1-0.2
			c0,0,0.1,0,0.1,0c0,0,0,0,0.1,0.1c0,0.1,0.1,0.1,0.2,0.2s0.1,0.1,0.2,0.2c0.1,0.1,0.2,0.1,0.3,0.2c0,0,0,0,0.1,0s0,0,0.1,0
			c0,0,0-0.1,0-0.1c0-0.1-0.1-0.1-0.1-0.1c0,0,0-0.1-0.1-0.1c-0.1-0.2-0.3-0.3-0.4-0.5c-0.1-0.1-0.3-0.3-0.5-0.3c0,0-0.1,0-0.1,0
			s-0.1,0-0.1,0c0,0,0,0.1,0,0.2c0,0.1,0,0.1,0,0.2c0,0.4-0.2,0.7-0.3,0.9C6.1,28.8,5.9,28.9,5.7,28.9z"/>
	</g>
</g>
</svg>
