<?xml version="1.0" encoding="utf-8"?>
<!-- Generator: Adobe Illustrator 27.7.0, SVG Export Plug-In . SVG Version: 6.00 Build 0)  -->
<svg version="1.1" id="Layer_2_00000129184034023004270550000007049531638934015125_"
	 xmlns="http://www.w3.org/2000/svg" xmlns:xlink="http://www.w3.org/1999/xlink" x="0px" y="0px" viewBox="0 0 13.1 30.2"
	 style="enable-background:new 0 0 13.1 30.2;" xml:space="preserve">
<style type="text/css">
	.st0{enable-background:new    ;}
</style>
<g id="Layer_1-2">
	<g class="st0">
		<path d="M9.5,6.6c-0.2,0-0.4,0-0.6,0s-0.4,0-0.6-0.1c-0.5,0-0.9-0.1-1.3-0.3C6.5,6.2,6.2,6,5.8,5.7C5.6,5.6,5.5,5.5,5.3,5.3
			C5.1,5.2,4.9,5,4.7,4.9C4.6,4.8,4.5,4.6,4.4,4.4C4.3,4.4,4.3,4.3,4.2,4.2C4.1,4.1,4.1,3.9,4,3.8C4,3.7,4,3.5,4,3.4
			c0-0.1,0-0.3-0.1-0.4c0-0.3,0-0.7,0.1-1c0.2-0.5,0.5-0.9,1.1-1.3C5.4,0.5,5.7,0.4,6,0.3s0.6-0.2,0.9-0.2c0.2,0,0.4-0.1,0.6-0.1
			C7.7,0,7.9,0,8.1,0c0.1,0,0.2,0,0.3,0c0.1,0,0.2,0,0.3,0c0.4,0.1,0.8,0.2,1.1,0.4c0.3,0.2,0.6,0.3,0.9,0.5c0,0,0,0,0,0.1
			c0,0-0.1,0-0.1,0c0,0-0.1,0-0.1,0c0,0.1,0.1,0.1,0.1,0.2c0.1,0,0.1,0.1,0.2,0.1c0,0,0,0,0-0.1s0,0-0.1-0.1h0.1
			c0.2,0.1,0.4,0.3,0.5,0.4c0.2,0.1,0.3,0.3,0.5,0.5c0,0,0,0.1,0,0.1c0,0-0.1,0-0.1-0.1c0,0-0.1-0.1-0.1-0.1c0-0.1-0.1-0.1-0.1-0.2
			s-0.1-0.1-0.2-0.1c0,0.1,0.1,0.2,0.2,0.2s0.1,0.1,0.1,0.2c0,0,0,0,0,0s0,0,0,0c0,0-0.1-0.1-0.1-0.1c0,0-0.1-0.1-0.1-0.1
			c0,0-0.1-0.1-0.1-0.1S11.1,1.5,11,1.4c0,0,0,0.1,0,0.1s0,0,0,0c0,0,0,0,0,0c0,0,0,0,0,0.1c0,0.1,0.1,0.1,0.1,0.2
			c0,0.1,0.1,0.1,0.1,0.2c0.1,0.1,0.1,0.1,0.2,0.1c0.1,0,0.1,0.1,0.2,0.1c0.2,0.2,0.3,0.3,0.4,0.6c0.1,0.2,0.2,0.4,0.3,0.7
			c0,0.1,0,0.1,0,0.2c0,0,0,0.1,0,0.1c0.1,0.2,0.1,0.4,0,0.7c-0.1,0.2-0.1,0.5-0.3,0.7c0,0,0,0.1-0.1,0.1c0,0,0,0,0,0.1
			c-0.3,0.3-0.5,0.5-0.8,0.7c-0.3,0.2-0.6,0.3-1,0.4c-0.1,0-0.2,0-0.3,0.1C9.7,6.6,9.6,6.6,9.5,6.6z M9.2,6c0.2,0,0.3,0,0.5,0
			c0.2,0,0.3,0,0.4,0c0.2,0,0.4,0,0.6-0.1c0.2,0,0.4-0.1,0.6-0.2c0.3-0.2,0.5-0.4,0.6-0.7c0-0.1,0-0.3,0.1-0.4c0-0.1,0-0.2,0-0.4
			c0-0.2-0.1-0.4-0.2-0.6c-0.1-0.2-0.2-0.3-0.3-0.5c-0.1-0.1-0.3-0.3-0.5-0.4c-0.1,0.1-0.1,0.1-0.2,0.2c-0.1,0-0.1,0.1-0.2,0.1
			c0,0-0.1-0.1-0.1-0.1c0,0,0,0,0-0.1c0-0.1,0-0.2-0.1-0.3s-0.2-0.1-0.3-0.1c-0.3,0-0.5,0-0.8,0c-0.3,0-0.6,0.1-0.9,0.1
			C8.3,2.8,8.1,2.9,7.9,3C7.7,3,7.5,3.1,7.3,3.2C7.2,3.3,7,3.4,6.9,3.5C6.8,3.6,6.7,3.7,6.7,3.9c0,0-0.1,0.1-0.1,0.1
			C6.5,4,6.5,4,6.4,4c0,0-0.1-0.1-0.1-0.1s0-0.1,0-0.2c0.1-0.2,0.2-0.4,0.4-0.6s0.4-0.3,0.6-0.5c0.3-0.2,0.6-0.4,1-0.5
			C8.7,2.1,9,2,9.3,2c0,0,0.1,0,0.2,0c0.1,0,0.1,0,0.2,0c0,0-0.1-0.1-0.1-0.1C9.5,1.7,9.4,1.7,9.3,1.6C9.3,1.6,9.2,1.5,9.1,1.5
			C9.1,1.4,9,1.4,9,1.4c-0.2,0-0.3-0.1-0.5-0.1c-0.2,0-0.3-0.1-0.4-0.1C7.6,1.1,7.1,1,6.5,1C6.4,1,6.2,1,6,1c-0.2,0-0.4,0.1-0.5,0.1
			c-0.1,0-0.1,0.1-0.2,0.1S5.1,1.3,5,1.3C4.7,1.5,4.5,1.7,4.5,1.9c0,0.2,0,0.5,0,0.7c0,0.2,0.1,0.4,0.2,0.6C5,3.5,5.2,3.7,5.4,3.9
			s0.5,0.4,0.7,0.6c0.3,0.3,0.7,0.5,1.1,0.6c0.1,0,0.1,0.1,0.2,0.1s0.1,0,0.2,0.1c0,0-0.1,0-0.1,0c0,0,0,0-0.1,0
			c0.3,0.2,0.7,0.3,1.1,0.2c-0.1,0-0.1,0-0.2,0c0,0-0.1,0-0.2,0C8.1,5.5,8,5.5,7.9,5.4S7.7,5.4,7.6,5.3c0.1,0,0.3,0,0.4,0
			s0.3,0,0.4,0.1c0.1,0,0.1,0,0.2,0.1s0.2,0,0.2,0c0.2,0,0.3,0,0.5,0c0.2,0,0.3,0,0.5,0c0.2,0,0.4,0,0.6-0.1c0.2,0,0.4-0.1,0.6-0.2
			c-0.1,0.1-0.2,0.2-0.3,0.2c-0.1,0-0.2,0.1-0.3,0.1c0,0,0.1,0,0.1,0c0,0,0,0,0.1,0c-0.3,0-0.5,0.1-0.7,0.1C9.7,5.9,9.4,5.9,9.2,6z
			 M8.7,5.6c0.1,0.1,0.1,0.1,0.2,0.1c0,0,0.1,0.1,0.1,0.1c0.1,0,0.1,0,0.2,0c0.1,0,0.2,0,0.3-0.1c-0.1,0-0.3,0-0.4-0.1
			S8.8,5.7,8.7,5.6z M9.8,0.5c0.1,0.1,0.1,0.1,0.2,0.2s0.1,0.1,0.3,0.1c0-0.1-0.1-0.1-0.2-0.2S9.9,0.5,9.8,0.5z M10.5,0.9
			C10.4,0.8,10.4,0.8,10.5,0.9c-0.1-0.1-0.2-0.1-0.3-0.1C10.3,0.8,10.4,0.9,10.5,0.9z"/>
		<path d="M10.4,9.7c-0.1,0-0.1,0-0.2,0s-0.1,0-0.1-0.1C9.8,9.4,9.5,9.3,9.2,9.1C8.9,9,8.6,8.9,8.3,8.7c-0.1,0-0.1-0.1-0.2-0.1
			c-0.1,0-0.1,0-0.2,0c0,0,0,0,0,0.1c0,0,0,0,0,0c0,0,0,0.1,0.1,0.1c0,0,0,0.1,0.1,0.1c0.1,0.1,0.1,0.2,0.1,0.3c0,0.1,0,0.2,0,0.3
			c0,0.2-0.1,0.3-0.1,0.4s-0.2,0.2-0.3,0.3c0,0-0.1,0-0.1,0c0,0-0.1,0-0.1,0c0,0.1,0.1,0.1,0.2,0.1s0.1,0,0.2,0
			c-0.1,0.1-0.2,0.2-0.3,0.1c-0.1,0-0.1,0-0.2,0c-0.1,0-0.1,0-0.2,0c-0.2,0-0.3-0.1-0.5-0.1s-0.3,0-0.5-0.1c0,0-0.1,0-0.1,0
			c0,0,0,0-0.1-0.1c0,0,0,0-0.1,0s-0.1,0-0.1,0c-0.1,0-0.2-0.1-0.3-0.1c-0.1,0-0.2-0.1-0.3-0.1c0,0,0,0,0,0c0,0,0,0,0,0
			c0-0.1-0.1-0.1-0.2-0.1c-0.1,0-0.1-0.1-0.1-0.1C5.1,9.7,5,9.6,5,9.4C5,9.3,5,9.1,5,9c0-0.2,0.1-0.3,0.2-0.5s0.2-0.3,0.3-0.4
			c0,0,0,0,0,0c0,0,0,0,0,0v0c-0.1,0-0.2,0-0.3-0.1c-0.1,0-0.2,0-0.4,0c-0.2,0-0.3-0.1-0.3-0.2c0.1-0.1,0.1-0.2,0.2-0.3
			C4.7,7.2,4.8,7.1,5,7C5.1,7,5.3,6.9,5.4,6.9c0.1,0,0.3,0,0.5,0C6,7,6.1,7,6.2,7c0.1,0,0.2,0,0.3,0c0,0,0,0,0.1,0
			c0.2,0,0.4,0,0.6,0c0.2,0.1,0.4,0.1,0.6,0.1c0.4,0.1,0.7,0.2,1,0.3c0.3,0.1,0.7,0.2,1,0.3c0.3,0.1,0.5,0.2,0.8,0.2
			c0.3,0.1,0.5,0.1,0.8,0.2c0.1,0,0.2,0.1,0.3,0.1c0.1,0,0.2,0.1,0.3,0.1c0,0,0.1,0,0.1,0.1c0,0,0.1,0,0.1,0.1c0,0.1,0,0.1,0,0.2
			c0,0,0.1,0.1,0.1,0.1c-0.1,0-0.1,0-0.2,0c-0.1,0-0.1,0-0.2,0c0,0,0-0.1,0-0.1c0,0-0.1-0.1-0.2-0.1c-0.1,0-0.2,0-0.3,0
			c0.1,0.1,0.3,0.2,0.4,0.2c0,0,0,0.1,0.1,0.1c0,0,0,0,0.1,0c0.1,0,0.1,0.1,0.2,0.1c0.1,0,0.1,0.1,0.2,0.1c0.1,0.1,0.2,0.1,0.2,0.2
			c0,0.3-0.1,0.6-0.2,0.8c0,0,0,0.1,0,0.1c0,0,0,0.1,0,0.1c0,0,0,0.1-0.1,0.1s0,0-0.1,0.1c-0.1,0-0.1-0.1-0.2-0.1
			c-0.1,0-0.1-0.1-0.2-0.1c-0.1-0.1-0.3-0.2-0.5-0.3S11.1,10,11,9.9c0,0-0.1-0.1-0.1-0.1c-0.1,0-0.1,0-0.2-0.1
			C10.6,9.7,10.5,9.7,10.4,9.7C10.4,9.7,10.4,9.7,10.4,9.7z M7.5,9.4C7.5,9.4,7.5,9.3,7.5,9.4C7.3,9.1,7.1,9,6.9,8.8
			S6.5,8.5,6.3,8.3c0,0,0,0-0.1,0c0,0-0.1,0-0.1,0C6,8.3,6,8.4,5.9,8.4c-0.1,0-0.1,0.1-0.2,0.1C5.5,8.5,5.4,8.6,5.4,8.7
			c0,0.1,0,0.2,0.1,0.3c0,0,0,0,0.1,0.1c0.1,0,0.2,0.1,0.2,0.1C6,9.3,6,9.3,6.1,9.3c0,0,0.1,0,0.1,0s0.1,0,0.1,0
			c0.1,0.1,0.1,0.1,0.2,0.1c0,0,0.1,0.1,0.1,0.1s0.1,0,0.1,0c0.1,0,0.2,0,0.3,0c0.1,0,0.2,0,0.3,0C7.4,9.5,7.5,9.5,7.5,9.4z
			 M11.5,8.5c0-0.1-0.1-0.1-0.2-0.1c-0.1,0-0.1-0.1-0.2-0.1c-0.1,0-0.2-0.1-0.3-0.1c-0.1,0-0.2-0.1-0.3-0.1C10.3,8.1,10.2,8,10,8
			c-0.2,0-0.3-0.1-0.5-0.1c0,0-0.1,0-0.1,0c0,0,0,0-0.1,0C9.5,7.9,9.6,8,9.8,8c0.2,0.1,0.4,0.1,0.6,0.2c0.2,0.1,0.4,0.1,0.6,0.2
			C11.2,8.5,11.4,8.5,11.5,8.5z"/>
		<path d="M6.7,15.7c0,0,0,0.1-0.1,0.1c-0.1,0-0.1,0-0.2,0c0,0-0.1-0.1-0.3-0.2c-0.1-0.1-0.3-0.2-0.5-0.4c-0.2-0.1-0.3-0.3-0.5-0.4
			C5.1,14.6,5,14.5,5,14.4c0-0.1-0.1-0.2-0.1-0.3c0-0.1,0-0.2,0-0.3c0-0.1,0-0.2,0.1-0.2c0-0.1,0.1-0.1,0.1-0.2
			c0.1,0,0.1-0.1,0.2-0.1c0.1,0,0.2,0,0.3-0.1c0.1,0,0.2,0,0.3,0l-0.3-0.4c0,0,0-0.1,0-0.1c0,0,0-0.1,0-0.1
			c-0.1-0.1-0.1-0.2-0.2-0.3c0-0.1-0.1-0.2-0.1-0.3c0-0.1,0-0.2,0-0.4c0-0.1,0.1-0.2,0.2-0.3c0.1-0.1,0.1-0.2,0.2-0.3
			C5.7,11,5.8,11,5.9,11c0.2,0,0.3,0,0.5,0s0.3,0,0.5,0c0.3,0.1,0.5,0.2,0.7,0.4c0,0,0.1,0.1,0.1,0.1c0,0,0,0,0.1,0.1s0,0,0.1,0.1
			c0,0,0,0,0,0c0,0,0,0,0,0c0,0-0.1,0-0.1-0.1c0,0,0,0,0,0.1c0,0,0,0,0,0c0,0,0.1,0.1,0.1,0.1c0,0,0.1,0.1,0.1,0.1c0,0,0,0.1,0,0.1
			c0,0,0,0-0.1,0c0,0,0-0.1-0.1-0.1c0,0,0,0,0,0v0c0,0,0.1,0.1,0.1,0.1c0,0,0.1,0,0.1,0c0-0.1,0-0.2,0-0.3c0.1,0,0.1,0.1,0.1,0.2
			c0,0.1,0,0.2,0,0.3s0,0.2,0,0.3c0,0,0,0.1,0,0.1c0,0,0,0,0,0.1c0,0,0,0,0,0c0,0,0,0,0,0c0,0,0-0.1,0-0.1s0-0.1,0-0.1s0-0.1,0-0.1
			c0,0,0,0,0,0c0,0,0,0,0,0v0.1c0,0,0,0.1,0,0.2c0,0.1,0,0.2-0.1,0.3c0,0.1-0.1,0.2-0.1,0.3c0,0.1-0.1,0.2-0.2,0.2
			c0,0.1,0,0.1,0.1,0.1c0,0,0.1,0.1,0.2,0.1c0,0,0.1,0,0.1,0.1s0.1,0,0.1,0.1c0,0,0,0,0,0c0,0,0,0,0,0c0,0.1,0.1,0.2,0,0.3
			c0,0.1-0.1,0.2-0.2,0.3c0,0-0.1,0.1-0.1,0.1c0.1,0,0.1,0.1,0.2,0.1c0.1,0,0.1,0,0.2,0.1c0,0,0,0,0,0c0,0,0,0,0,0
			c-0.1,0-0.3-0.1-0.4-0.1c-0.1,0-0.2-0.1-0.4-0.1c-0.2-0.1-0.3-0.1-0.5-0.2c-0.2-0.1-0.3-0.1-0.5-0.2c-0.1,0-0.2-0.1-0.3-0.1
			c-0.1,0-0.2,0-0.3-0.1s-0.2,0-0.2,0c-0.1,0-0.1,0-0.1,0c0.1,0,0.1,0,0.2,0.1c0.1,0,0.1,0,0.2,0.1c0,0,0.1,0,0.1,0c0,0,0.1,0,0.1,0
			c0,0,0,0,0,0c0,0,0,0,0,0h0l0.1,0.1c0.1,0,0.1,0.1,0.1,0.1c0,0,0,0-0.1,0s-0.1-0.1-0.2-0.1c0,0,0,0-0.1,0c0,0,0,0-0.1,0
			c-0.1,0-0.1,0-0.2,0s-0.1,0-0.1,0c-0.1,0-0.1,0,0,0.1c0.1,0.1,0.2,0.2,0.3,0.4c0.1,0.1,0.2,0.3,0.4,0.4s0.2,0.2,0.3,0.3
			S6.7,15.7,6.7,15.7z M7.1,13.2c0,0,0.1,0.1,0.1,0.1s0.1,0.1,0.1,0.1c0,0,0.1-0.1,0.1-0.1c0.1-0.1,0.1-0.3,0-0.4
			c-0.1-0.1-0.1-0.2-0.2-0.2c-0.1-0.1-0.1-0.1-0.2-0.2c-0.3-0.3-0.6-0.5-1-0.6c0,0-0.1,0-0.1,0c0,0.1,0.1,0.2,0.2,0.3
			C6.3,12.5,6.7,12.9,7.1,13.2z"/>
		<path d="M13,20.9c0,0.1-0.1,0.2-0.2,0.2s-0.1,0-0.2-0.1c-0.1-0.1-0.3-0.1-0.4-0.2s-0.3-0.2-0.4-0.2c-0.2-0.1-0.3-0.2-0.5-0.2
			s-0.3-0.2-0.5-0.2c-0.1-0.1-0.3-0.1-0.4-0.2s-0.3-0.1-0.4-0.2c-0.1,0-0.2-0.1-0.3-0.1c-0.2-0.1-0.5-0.1-0.7-0.2
			c-0.2-0.1-0.5-0.1-0.7-0.2c-0.2,0-0.4-0.1-0.6-0.1c-0.2,0-0.4-0.1-0.6-0.1c-0.2,0-0.3-0.1-0.5-0.1s-0.4-0.1-0.5-0.1
			c-0.2,0-0.3,0-0.5,0c-0.2,0-0.3,0-0.5,0.1c-0.1,0-0.1,0.1-0.2,0.1c-0.1,0-0.1,0-0.2,0c-0.1,0-0.2,0-0.2-0.1
			c-0.1-0.1-0.1-0.2,0-0.3c0-0.1,0.1-0.2,0.2-0.2c0.2-0.1,0.3-0.2,0.5-0.3s0.3-0.1,0.5-0.2c0.1,0,0.1,0,0.1,0c0,0,0.1,0,0.1,0
			c0,0-0.1-0.1-0.1-0.1c0,0-0.1-0.1-0.1-0.1c-0.1,0-0.1-0.1-0.2-0.1c-0.1,0-0.1-0.1-0.2-0.1c-0.1-0.1-0.2-0.1-0.2-0.2
			C5.2,17.1,5.1,17.1,5,17l-0.1-0.1c-0.1-0.1-0.2-0.2-0.2-0.4c0-0.1,0-0.3,0-0.4c0,0,0,0,0-0.1c0,0,0,0,0-0.1
			c0.1-0.1,0.1-0.1,0.2-0.2C5,15.7,5,15.6,5.1,15.6c0.1-0.1,0.2-0.1,0.3-0.1c0.1,0,0.2,0,0.3,0c0.1,0,0.2,0,0.3,0
			c0.5,0.1,0.9,0.2,1.3,0.4c0,0,0,0,0.1,0c0,0,0,0,0,0c0,0.1,0.1,0.2,0.2,0.2c0.1,0,0.1,0.1,0.2,0.2c0,0,0.1,0.1,0.1,0.1
			c0,0,0,0.1,0,0.1c0,0,0,0.1,0,0.1c0,0,0,0.1,0,0.1C8,16.8,8,16.9,8,16.9c0,0.1,0,0.2,0.1,0.3c0.1,0.2,0,0.4-0.1,0.6
			c0,0-0.1,0.1-0.1,0.2c0,0,0.1,0,0.1,0c0,0,0.1,0,0.1,0c0.3,0.1,0.6,0.2,0.9,0.2c0.3,0.1,0.6,0.2,0.9,0.3c0.1,0,0.1,0,0.2,0
			c0.1,0,0.1,0,0.2,0.1c0,0,0,0,0,0c0,0,0,0,0,0.1c0.1,0,0.1,0.1,0.2,0.1c0.1,0,0.1,0,0.2,0.1h0c-0.2-0.1-0.3-0.1-0.4-0.2
			c0.1-0.1,0.2-0.1,0.4,0c0.1,0,0.2,0.1,0.3,0.1c0.1,0,0.2,0.1,0.3,0.1c0,0,0-0.1,0-0.1c0,0,0.1,0,0.1,0c0,0,0.1,0,0.1,0
			c0.3,0.1,0.6,0.2,0.8,0.2c0.1,0,0.3,0,0.4,0.1c0,0,0,0-0.1,0c-0.1,0-0.2,0-0.3-0.1c-0.1,0-0.2,0-0.3,0c-0.1,0-0.2,0-0.2,0
			c0.2,0.1,0.3,0.1,0.4,0.1c0.1,0,0.2,0.1,0.3,0.1c0.1,0,0.2,0,0.2,0.1c0.1,0.1,0.2,0.2,0.3,0.3c0.1,0.1,0.1,0.2,0.1,0.4
			c0,0.2,0,0.4,0,0.6C13.1,20.8,13.1,20.8,13,20.9C13,20.9,13,20.9,13,20.9z M6.5,17.3c0.1,0.1,0.2,0.1,0.2,0.2
			c0.1,0.1,0.2,0.1,0.3,0.1c0.1,0,0.3-0.1,0.4-0.2s0.2-0.2,0.3-0.3c0-0.1-0.1-0.2-0.2-0.3c-0.1-0.1-0.2-0.1-0.3-0.2
			c-0.4-0.2-0.9-0.4-1.3-0.5c-0.1,0-0.2,0-0.3,0c0,0,0,0-0.1,0s-0.1,0-0.1,0c0.2,0.2,0.3,0.4,0.5,0.6S6.3,17.1,6.5,17.3z M8.9,18.2
			C8.9,18.2,8.9,18.2,8.9,18.2C8.9,18.2,8.9,18.2,8.9,18.2c0-0.1,0.1,0,0.1,0s0.1,0,0.1,0c0,0,0.1,0,0.1,0c0.1,0,0.1,0,0.2,0.1
			c0.1,0,0.1,0,0.2,0.1c0.1,0,0.1,0,0.1,0c0,0-0.1,0.1-0.1,0c0,0-0.1,0-0.1,0c0,0-0.1,0-0.1,0c-0.1,0-0.1,0-0.2-0.1
			c-0.1,0-0.1,0-0.2-0.1C9,18.3,9,18.2,8.9,18.2z M11.1,19c0,0.1,0.1,0.1,0.1,0.1c0,0,0.1,0,0.2,0l0,0h0c0,0-0.1,0-0.1,0
			S11.1,19,11.1,19z"/>
		<path d="M4.9,19.7c0-0.1,0.1-0.1,0.3-0.2s0.3-0.1,0.5-0.1c0,0,0.1,0,0.1,0c0,0,0.1,0,0.1,0c0.1,0,0.3,0.1,0.4,0.1
			c0.1,0,0.2,0.1,0.4,0.1c0.2,0.1,0.4,0.1,0.6,0.2c0.2,0.1,0.4,0.1,0.6,0.2c0,0,0,0,0.1,0c0,0,0,0,0.1,0c0,0.2,0,0.3,0,0.4
			c0,0.1-0.1,0.3-0.2,0.4c0,0-0.1,0-0.1,0s-0.1,0-0.1,0c-0.1,0-0.1,0-0.2,0c-0.1,0-0.1,0-0.2,0c0,0-0.1,0-0.1,0c0,0,0,0,0,0h0
			c0,0,0,0,0,0c0.1,0,0.2,0.1,0.3,0.1c0.1,0,0.1,0,0.2,0.1c0.1,0,0.1,0,0.1,0c0,0,0,0-0.1,0c-0.1,0-0.1,0-0.2-0.1
			c-0.1,0-0.2,0-0.2-0.1c-0.1,0-0.1,0-0.1,0s0,0,0,0c0,0,0.1,0,0.1,0c0,0,0.1,0,0.1,0.1c0,0,0,0,0,0c0,0-0.1,0-0.2-0.1
			s-0.3-0.1-0.4-0.2c-0.2-0.1-0.4-0.2-0.6-0.2c-0.1,0-0.2-0.1-0.3-0.1c-0.1,0-0.2,0-0.2,0s-0.1,0-0.1,0c0,0,0,0,0,0s0,0,0,0
			c0,0,0.1,0,0.1,0c0,0,0.1,0,0.1,0.1H5.4c0,0,0,0.1,0,0.1c0.2,0.3,0.5,0.6,0.8,0.8c0.1,0.1,0.2,0.1,0.2,0.2
			c0.1,0.1,0.1,0.1,0.2,0.2c0,0,0,0,0,0.1s0,0.1,0,0.1c0,0,0,0-0.1,0s-0.1,0-0.2-0.1c-0.1,0-0.1-0.1-0.2-0.1c-0.1,0-0.1,0-0.1-0.1
			c0,0-0.1-0.1-0.2-0.2c-0.1-0.1-0.2-0.2-0.3-0.3c-0.1-0.1-0.3-0.3-0.5-0.4L5,20.6c0-0.1-0.1-0.1-0.1-0.2c0-0.1-0.1-0.1-0.1-0.1
			c0-0.1,0-0.2,0-0.3C4.8,19.8,4.8,19.7,4.9,19.7z M8.8,20.2c0,0.1,0,0.1,0,0.2c0,0,0,0.1,0,0.1c0,0.2,0,0.3-0.1,0.4
			C8.6,20.9,8.6,21,8.5,21c-0.1,0-0.2-0.1-0.3-0.2c-0.1-0.1-0.1-0.2,0-0.3c0-0.1,0-0.2,0.1-0.3c0-0.1,0-0.1,0.1-0.2s0.1,0,0.2,0
			C8.6,20.1,8.7,20.1,8.8,20.2z"/>
		<path d="M6.7,26.4c0,0,0,0.1-0.1,0.1c-0.1,0-0.1,0-0.2,0c0,0-0.1-0.1-0.3-0.2C6,26.2,5.9,26,5.7,25.9s-0.3-0.3-0.5-0.4
			C5.1,25.3,5,25.2,5,25.1S4.9,25,4.9,24.9c0-0.1,0-0.2,0-0.3s0-0.2,0.1-0.2c0-0.1,0.1-0.1,0.1-0.2c0.1,0,0.1-0.1,0.2-0.1
			c0.1,0,0.2,0,0.3-0.1c0.1,0,0.2,0,0.3,0l-0.3-0.4c0,0,0-0.1,0-0.1c0,0,0-0.1,0-0.1c-0.1-0.1-0.1-0.2-0.2-0.3
			c0-0.1-0.1-0.2-0.1-0.3c0-0.1,0-0.2,0-0.4c0-0.1,0.1-0.2,0.2-0.3s0.1-0.2,0.2-0.3c0.1-0.1,0.2-0.1,0.3-0.1c0.2,0,0.3,0,0.5,0
			s0.3,0,0.5,0c0.3,0.1,0.5,0.2,0.7,0.4c0,0,0.1,0.1,0.1,0.1c0,0,0,0,0.1,0.1c0,0,0,0,0.1,0.1c0,0,0,0,0,0c0,0,0,0,0,0
			c0,0-0.1,0-0.1-0.1c0,0,0,0,0,0.1c0,0,0,0,0,0c0,0,0.1,0.1,0.1,0.1c0,0,0.1,0.1,0.1,0.1c0,0,0,0.1,0,0.1c0,0,0,0-0.1,0
			s0-0.1-0.1-0.1c0,0,0,0,0,0v0c0,0,0.1,0.1,0.1,0.1c0,0,0.1,0,0.1,0c0-0.1,0-0.2,0-0.3c0.1,0,0.1,0.1,0.1,0.2c0,0.1,0,0.2,0,0.3
			c0,0.1,0,0.2,0,0.3c0,0,0,0.1,0,0.1c0,0,0,0,0,0.1s0,0,0,0c0,0,0,0,0,0c0,0,0-0.1,0-0.1s0-0.1,0-0.1s0-0.1,0-0.1c0,0,0,0,0,0
			c0,0,0,0,0,0v0.1c0,0,0,0.1,0,0.2c0,0.1,0,0.2-0.1,0.3c0,0.1-0.1,0.2-0.1,0.3s-0.1,0.2-0.2,0.2c0,0.1,0,0.1,0.1,0.1
			s0.1,0.1,0.2,0.1c0,0,0.1,0,0.1,0.1c0.1,0,0.1,0,0.1,0.1c0,0,0,0,0,0c0,0,0,0,0,0c0,0.1,0.1,0.2,0,0.3S8,25.1,7.9,25.2
			c0,0-0.1,0.1-0.1,0.1c0.1,0,0.1,0.1,0.2,0.1c0.1,0,0.1,0,0.2,0.1c0,0,0,0,0,0s0,0,0,0c-0.1,0-0.3-0.1-0.4-0.1s-0.2-0.1-0.4-0.1
			c-0.2-0.1-0.3-0.1-0.5-0.2C6.7,25.1,6.5,25,6.4,25c-0.1,0-0.2-0.1-0.3-0.1c-0.1,0-0.2,0-0.3-0.1c-0.1,0-0.2,0-0.2,0
			c-0.1,0-0.1,0-0.1,0c0.1,0,0.1,0,0.2,0.1c0.1,0,0.1,0,0.2,0.1c0,0,0.1,0,0.1,0c0,0,0.1,0,0.1,0c0,0,0,0,0,0c0,0,0,0,0,0h0l0.1,0.1
			c0.1,0,0.1,0.1,0.1,0.1c0,0,0,0-0.1,0s-0.1-0.1-0.2-0.1c0,0,0,0-0.1,0c0,0,0,0-0.1,0c-0.1,0-0.1,0-0.2,0c-0.1,0-0.1,0-0.1,0
			c-0.1,0-0.1,0,0,0.1c0.1,0.1,0.2,0.2,0.3,0.4c0.1,0.1,0.2,0.3,0.4,0.4s0.2,0.2,0.3,0.3S6.7,26.4,6.7,26.4z M7.1,23.9
			c0,0,0.1,0.1,0.1,0.1c0,0,0.1,0.1,0.1,0.1c0,0,0.1-0.1,0.1-0.1c0.1-0.1,0.1-0.3,0-0.4c-0.1-0.1-0.1-0.2-0.2-0.2
			c-0.1-0.1-0.1-0.1-0.2-0.2c-0.3-0.3-0.6-0.5-1-0.6c0,0-0.1,0-0.1,0c0,0.1,0.1,0.2,0.2,0.3C6.3,23.2,6.7,23.6,7.1,23.9z"/>
		<path d="M5.9,27.1c-0.1,0-0.2,0-0.3-0.1s-0.2,0-0.3,0c-0.2,0-0.5-0.1-0.7-0.2c0,0,0-0.1,0-0.2c0-0.1,0.1-0.1,0.1-0.2
			c0-0.1,0.1-0.1,0.1-0.2c0-0.1,0.1-0.1,0.2-0.1c0.1,0,0.1,0,0.2,0c0.1,0,0.1,0,0.2,0c0.2,0,0.4,0.1,0.6,0.1s0.4,0.1,0.6,0.1
			c0.1,0,0.1,0,0.2,0s0.1,0,0.2,0c0.3,0.1,0.6,0.2,0.9,0.2c0.3,0.1,0.6,0.1,1,0.2c0,0,0.1,0,0.1,0c0.1,0,0.1,0,0.2,0
			c0.1,0,0.1,0,0.2,0.1c0.1,0,0.1,0,0.1,0.1l-0.4,0c0.1,0.1,0.2,0.1,0.3,0.1s0.2,0,0.3,0c0,0,0,0,0,0c0,0,0,0,0,0
			c0.1,0,0.2,0.1,0.3,0.1c0.1,0,0.2,0.1,0.3,0.1c0,0,0,0,0.1,0c0,0,0.1,0,0.1,0c0.4,0.1,0.7,0.2,1.1,0.3c0.1,0,0.1,0,0.2,0
			c0,0,0.1,0,0.2,0.1c-0.1,0-0.3,0-0.4-0.1s-0.3,0-0.4,0c0.1,0.1,0.1,0.1,0.2,0.1c0,0,0,0,0.1,0c0.2,0,0.4,0,0.5,0.1
			c0.1,0.1,0.3,0.2,0.5,0.2c0.1,0,0.1,0.1,0.1,0.2c0,0.1,0.1,0.2,0.1,0.3c0,0.1,0,0.2,0,0.4c0,0.1,0,0.2,0,0.3
			c0,0.1-0.1,0.2-0.2,0.1c0,0,0,0-0.1,0c0,0-0.1,0-0.1-0.1c-0.3-0.2-0.6-0.4-1-0.5s-0.8-0.3-1.1-0.4C9.7,28.2,9.3,28.1,9,28
			c-0.3-0.1-0.6-0.2-0.9-0.3c0,0.1,0,0.1,0,0.1c0.1,0.1,0.1,0.3,0.1,0.4c0,0.1,0,0.3,0,0.5c0,0,0,0.1,0,0.1c0,0,0,0.1,0,0.1
			c0,0.1-0.1,0.1-0.1,0.2c0,0.1-0.1,0.1-0.2,0.1c0,0-0.1,0-0.1,0s-0.1,0-0.1,0c0,0,0,0,0,0.1s0,0,0,0.1c-0.1,0-0.1,0-0.2,0
			c0,0-0.1,0-0.1,0c-0.1,0-0.2-0.1-0.4-0.1S6.9,29.1,6.8,29C6.7,29,6.6,29,6.5,29c-0.1,0-0.2-0.1-0.2-0.1c-0.1,0-0.1,0-0.2-0.1
			c-0.1,0-0.1,0-0.2-0.1h0c-0.1,0-0.1,0-0.2-0.1c-0.1,0-0.1,0-0.2-0.1c0,0-0.1,0-0.1,0c0,0-0.1,0-0.1,0c0,0,0,0,0,0c0,0,0,0,0,0
			c0,0,0,0-0.1,0c0,0,0,0-0.1,0c0,0-0.1,0-0.1-0.1s-0.1,0-0.2,0v0c-0.1,0-0.1,0-0.2,0c0,0,0,0,0,0.1c0,0.1,0,0.1,0,0.2
			c0,0,0.1,0,0.2,0.1C5,28.9,5.1,29,5.3,29.1c0.1,0.1,0.3,0.2,0.5,0.3c0.2,0.1,0.3,0.2,0.5,0.3c0.1,0.1,0.3,0.2,0.5,0.3
			c0,0,0,0-0.1,0c-0.1,0-0.1-0.1-0.2-0.1c-0.1,0-0.2-0.1-0.3-0.2c0.1,0.1,0.1,0.1,0.2,0.1C6.4,30,6.4,30,6.5,30
			c0.1,0,0.1,0.1,0.1,0.1c0,0,0,0.1,0,0.1c0,0,0,0,0,0c0,0-0.1,0-0.2-0.1C6.2,30.1,6.1,30,6,29.9c-0.2-0.1-0.3-0.2-0.5-0.3
			c-0.2-0.1-0.4-0.2-0.5-0.3c-0.2-0.1-0.3-0.2-0.4-0.3c-0.1-0.1-0.2-0.1-0.2-0.2c-0.1-0.1-0.1-0.2-0.1-0.3c0-0.1,0-0.1,0-0.2
			c0,0,0,0,0,0c0,0,0,0.1,0,0c0,0,0-0.1,0.1-0.4c0-0.1,0.1-0.1,0.1-0.2c0.1-0.1,0.1-0.1,0.2-0.2c0.1-0.1,0.1-0.1,0.2-0.1
			s0.1,0,0.1,0c0,0,0,0,0.1,0s0.1,0,0.2,0c0.1,0,0.1,0,0.2,0H5.1c0,0-0.1,0-0.1,0c0,0,0,0,0,0l0.3,0.1c0.1,0,0.2,0,0.2,0
			c0.1,0,0.1,0,0.1,0c0,0,0,0,0,0c0,0-0.1,0-0.1,0c0,0-0.1,0-0.1,0c0,0,0,0,0,0c0.1,0,0.1,0,0.2,0s0.1,0,0.1,0c0,0,0.1,0,0.1,0
			c0,0,0,0,0,0h0c0.2,0,0.3,0,0.5,0.1C6.6,28,6.8,28,6.9,28c0,0,0.1,0,0.1,0s0.1,0,0.1,0c-0.1-0.1-0.1-0.2-0.2-0.2
			c-0.1-0.1-0.1-0.1-0.2-0.2c-0.1,0-0.2-0.1-0.2-0.1c-0.1-0.1-0.1-0.1-0.2-0.2c-0.1-0.1-0.1-0.1-0.2-0.1S6,27.1,5.9,27.1z"/>
	</g>
</g>
</svg>
