<?xml version="1.0" encoding="utf-8"?>
<!-- Generator: Adobe Illustrator 27.7.0, SVG Export Plug-In . SVG Version: 6.00 Build 0)  -->
<svg version="1.1" id="Layer_2_00000165229919506561565000000012868799547083484320_"
	 xmlns="http://www.w3.org/2000/svg" xmlns:xlink="http://www.w3.org/1999/xlink" x="0px" y="0px" viewBox="0 0 13.1 60.8"
	 style="enable-background:new 0 0 13.1 60.8;" xml:space="preserve">
<style type="text/css">
	.st0{enable-background:new    ;}
</style>
<g id="Layer_1-2">
	<g class="st0">
		<path d="M10.1,3.5c0.2,0.4,0.4,0.7,0.7,1.1c0.2,0.4,0.5,0.7,0.8,1c0,0,0.1,0.1,0.2,0.2C11.8,5.9,11.8,6,11.9,6
			c0-0.2,0-0.3-0.1-0.5c0-0.1-0.1-0.3-0.1-0.4c-0.1-0.4-0.3-0.7-0.5-1s-0.4-0.6-0.6-0.9C10.4,3,10.2,2.8,10,2.7
			C9.8,2.5,9.6,2.3,9.3,2.2c0,0.1,0,0.2,0,0.2c0,0.1,0,0.2,0,0.2c0,0.3,0,0.5,0,0.8s0,0.5-0.1,0.8C9.2,4.7,9,5.1,8.8,5.3
			C8.6,5.5,8.4,5.6,8.2,5.5c0,0-0.1,0-0.1,0c0,0.1,0,0.1,0,0.2s0,0.1,0.1,0.2c0,0.1,0,0.1,0.1,0.2c0,0.1,0,0.1,0,0.2
			C8.2,6.2,8.1,6.1,8,6C8,5.9,7.9,5.8,7.8,5.7C7.8,5.6,7.7,5.5,7.7,5.5C7.6,5.4,7.5,5.4,7.4,5.3C6.6,5.1,5.9,4.7,5.3,4.1
			c0,0-0.1-0.1-0.1-0.1h0.3C5.4,3.9,5.3,3.8,5.2,3.8C5.1,3.7,5,3.6,5,3.5C4.9,3.4,4.8,3.3,4.7,3.3C4.6,3.2,4.6,3.1,4.5,2.9
			c0,0,0-0.1,0-0.1c0,0,0,0,0-0.1C4.3,2.6,4.2,2.5,4.1,2.3S4,1.9,3.9,1.7C3.8,1.6,3.8,1.4,3.8,1.2c0-0.2,0-0.3,0-0.5
			c0-0.2,0.1-0.4,0.2-0.5S4.2,0.1,4.3,0c0.1,0,0.1,0,0.2,0.1C4.7,0.1,4.8,0.2,5,0.3c0.1,0.1,0.2,0.2,0.3,0.4C5.6,1,5.8,1.4,6.1,1.7
			c0.2,0.4,0.5,0.7,0.7,1.1C6.9,3,7,3.2,7.1,3.4C7.2,3.6,7.3,3.8,7.4,4c0,0,0.1,0.1,0.1,0.1c0,0,0.1,0.1,0.1,0.1
			c0.1,0,0.3,0.1,0.4,0.2s0.3,0.1,0.4,0.2c0,0,0.1,0,0.2,0c0.2,0,0.3-0.1,0.3-0.3V3.5c0-0.1,0-0.2,0-0.3s0-0.2,0-0.3
			c0-0.2,0-0.3,0-0.5c0-0.1,0-0.3,0.1-0.4c0-0.2,0.1-0.3,0.2-0.4c0.1-0.1,0.2-0.2,0.4-0.3c0.2-0.1,0.4,0,0.5,0.1
			c0.2,0.2,0.4,0.3,0.6,0.5s0.4,0.4,0.5,0.6c0,0,0,0.1,0.1,0.1c0,0,0.1,0.1,0.1,0.1c0-0.1-0.1-0.2-0.1-0.2C11.1,2.4,11,2.3,11,2.2
			c-0.1-0.1-0.2-0.2-0.3-0.3c0,0-0.1-0.1-0.1-0.1c-0.1,0-0.1-0.1-0.2-0.1c0,0,0,0,0,0c0,0,0-0.1,0-0.1c0.1,0,0.1,0.1,0.2,0.1
			s0.1,0.1,0.2,0.2c0,0,0.1,0.1,0.1,0.1c0,0,0.1,0,0.2,0c0,0,0,0,0.1,0c0,0,0,0,0.1,0.1c0,0.1,0.1,0.1,0.1,0.2s0.1,0.2,0.2,0.3
			c0,0,0,0.1,0.1,0.1c0,0.1,0.1,0.1,0.1,0.1c0,0,0,0,0.1,0.1c0,0,0,0.1,0.1,0.1c0.1,0.3,0.3,0.6,0.4,0.9s0.2,0.6,0.3,0.9
			c0,0.1,0,0.1,0,0.2s0,0.1,0,0.2c0-0.1,0-0.1,0-0.2s0-0.2-0.1-0.3c0,0,0,0.1,0,0.1c0,0,0,0.1,0,0.1V5c-0.1,0-0.1,0-0.1,0.1
			c0,0,0,0.1,0,0.1c0,0,0,0.1,0,0.1s0,0.1,0,0.1c0,0.1,0,0.3,0,0.4c0,0.1,0,0.2-0.1,0.4c0,0.1,0,0.1-0.1,0.2c0,0.1,0,0.1-0.1,0.2
			c-0.1,0.2-0.3,0.3-0.5,0.1c-0.1-0.1-0.3-0.2-0.4-0.3C11,6.2,10.9,6.1,10.8,6c-0.1-0.2-0.3-0.4-0.4-0.6c-0.1-0.2-0.3-0.4-0.4-0.6
			C10,4.7,9.9,4.6,9.9,4.5S9.8,4.3,9.8,4.2c0-0.1-0.1-0.2-0.1-0.3c0-0.1,0-0.2,0-0.3c0-0.1,0-0.2,0.1-0.2c0,0,0.1,0,0.1,0
			C10,3.4,10,3.5,10.1,3.5z M5.7,2.7C5.8,2.8,6,3,6.1,3.1c0.1,0.1,0.2,0.3,0.3,0.4c0,0,0,0,0,0c0,0,0,0,0,0c0-0.1-0.1-0.1-0.1-0.2
			C6.2,3,6.1,2.8,6,2.6S5.7,2.2,5.6,2C5.3,1.7,5.1,1.4,4.8,1.1C4.7,1,4.6,0.9,4.5,0.9c0,0.1,0,0.2,0.1,0.3s0.1,0.2,0.2,0.2
			c0.1,0.1,0.1,0.2,0.2,0.2C5,1.7,5,1.8,5,1.9C5.2,2,5.3,2.1,5.4,2.3S5.6,2.6,5.7,2.7z M4.8,3.6c-0.1,0-0.1-0.1-0.2-0.1
			c0-0.1-0.1-0.1-0.1-0.2c0,0,0.1,0.1,0.1,0.1C4.7,3.5,4.7,3.6,4.8,3.6z M4.9,3.8L4.9,3.8C5,3.8,5,3.8,4.9,3.8C5,3.8,5,3.8,4.9,3.8
			c0,0,0.1,0,0.1,0.1c0,0,0.1,0.1,0.1,0.1C5.1,4,5,3.9,4.9,3.8z M5.8,4.2C5.8,4.2,5.7,4.2,5.8,4.2C5.6,4.2,5.6,4.1,5.6,4.1
			c0,0,0.1,0,0.1,0C5.7,4.2,5.7,4.2,5.8,4.2z M5.8,4.3C5.9,4.4,5.9,4.4,5.8,4.3C5.9,4.4,5.9,4.3,5.8,4.3C5.9,4.3,5.9,4.3,5.8,4.3
			C5.8,4.3,5.8,4.3,5.8,4.3C5.8,4.3,5.8,4.3,5.8,4.3C5.8,4.3,5.8,4.3,5.8,4.3z M11.5,3c0,0,0-0.1,0-0.1c0,0-0.1-0.1-0.2-0.1
			C11.4,2.9,11.4,2.9,11.5,3C11.5,3,11.5,3,11.5,3z M11.6,3c0,0,0,0.1,0,0.1c0,0,0,0.1,0,0.1c0,0,0,0,0.1,0c0,0-0.1,0-0.1-0.1
			C11.6,3.1,11.6,3.1,11.6,3z"/>
		<path d="M6.6,9.4L6.6,9.4C6.6,9.5,6.6,9.5,6.6,9.4c-0.1,0.1-0.1,0-0.2-0.1C6.3,9.1,6.3,8.9,6.3,8.8C6.2,8.7,6.1,8.7,6,8.6
			C5.8,8.5,5.7,8.4,5.5,8.3C5.5,8.2,5.4,8.1,5.4,8C5.3,7.9,5.2,7.9,5.2,7.8C5.1,7.7,5.1,7.6,5.1,7.5C5,7.4,5,7.3,5,7.2
			c0,0,0-0.1,0-0.1C5,7,5,7,5,7c0,0,0-0.1,0.1-0.2c0-0.1,0-0.1,0.1-0.2c0,0,0.1-0.1,0.1-0.1c0,0,0.1-0.1,0.1-0.1
			c0-0.1,0.1-0.1,0.2-0.2c0.1-0.1,0.1-0.1,0.2-0.1c0,0,0.1,0,0.1,0s0.1,0,0.1-0.1C6,6,6.1,6,6.1,6s0.2,0,0.3,0s0.2,0,0.2,0
			c0.1,0,0.2,0.1,0.3,0.1s0.2,0,0.3,0.1c0.2,0,0.5,0.2,0.7,0.4l0,0c0,0,0,0,0,0c-0.1,0-0.2-0.1-0.3-0.1C7.6,6.4,7.5,6.4,7.4,6.4h0
			c0,0,0.1,0,0.1,0.1c0.1,0,0.1,0.1,0.2,0.1c0.1,0,0.2,0.1,0.2,0.1s0.1,0.1,0.2,0.1c0,0,0.1,0.1,0.1,0.1c0,0,0,0,0,0
			c0,0-0.1,0-0.1,0S8,6.8,8,6.8c0,0-0.1,0-0.1-0.1c-0.1,0-0.1,0-0.2,0c0,0,0,0,0,0l0,0c0,0,0.1,0.1,0.1,0.1C7.9,6.9,7.9,7,8,7
			c0,0-0.1,0-0.1,0S7.8,7,7.8,7C7.9,7.1,8,7.1,8.1,7.2c0.1,0.1,0.2,0.1,0.3,0.2c0,0.1,0,0.2,0.1,0.3S8.5,7.9,8.5,8
			c0,0.1,0,0.2,0,0.2c0,0.1,0,0.1-0.1,0.2c0,0,0,0.1,0,0.1C8.4,8.7,8.3,8.8,8.2,8.9C8.1,8.9,8,9,7.8,9C7.7,9,7.5,9,7.4,9
			C7.2,9,7,9,6.9,9L6.6,8.9C6.6,9.1,6.6,9.2,6.6,9.4z M6.2,8.2C6.2,8.2,6.3,8.2,6.2,8.2c0.1,0,0.1,0,0.1,0C6.4,8.1,6.4,8,6.4,8
			c0-0.1,0-0.1,0.1-0.2c0-0.1,0.1-0.1,0.1-0.2s0.1-0.1,0.1-0.2C6.6,7.2,6.5,7.2,6.4,7.2s-0.2,0-0.2-0.1C6.1,7.1,5.9,7.1,5.8,7
			C5.7,7,5.6,7,5.5,7.1c0,0,0,0.1,0.1,0.1c0,0,0,0.1,0,0.1c0,0,0.1,0.1,0.1,0.1c0,0,0,0.1,0.1,0.1c0.1,0.1,0.1,0.2,0.2,0.3
			C6,8,6.1,8.1,6.2,8.2z M8.2,8C8.1,7.7,7.8,7.6,7.5,7.6c-0.1,0-0.1,0-0.2,0c-0.1,0-0.1,0-0.2,0c-0.1,0-0.1,0-0.2,0S7,7.6,6.9,7.7
			C6.8,7.8,6.8,7.9,6.8,8c0,0,0,0.1,0,0.1c0,0,0,0.1,0,0.1c0,0,0,0.1,0,0.1c0,0.1,0,0.2,0.1,0.2C7,8.5,7.1,8.5,7.2,8.5
			c0.1,0,0.3,0,0.4,0c0,0,0.1,0,0.1,0c0,0,0.1,0,0.1,0c0.1,0,0.3-0.1,0.3-0.2C8.3,8.2,8.3,8.1,8.2,8z"/>
		<path d="M8.3,13.4c-0.1,0.1-0.3,0.2-0.4,0.2c-0.1,0-0.3,0-0.5-0.1c-0.2-0.1-0.4-0.2-0.6-0.3c-0.2-0.1-0.4-0.2-0.6-0.3
			c-0.2-0.1-0.3-0.1-0.5-0.2c-0.1,0-0.3-0.1-0.4-0.1c-0.1,0-0.2,0-0.3,0s-0.2,0-0.3-0.1c0,0,0,0-0.1-0.1s0,0-0.1-0.1
			c0-0.1,0.1-0.2,0.2-0.3S4.9,12,5,11.9c0.1-0.1,0.2-0.1,0.3-0.1c0.2,0,0.5,0,0.7,0c0.2,0,0.5,0.1,0.7,0.2c0.1,0,0.3,0.1,0.4,0.1
			c0.1,0,0.3,0.1,0.4,0.1c0-0.1-0.1-0.2-0.2-0.3C7.1,12,7.1,11.9,7,11.8c-0.1-0.1-0.2-0.2-0.3-0.3s-0.2-0.2-0.3-0.3
			c0,0-0.1-0.1-0.1-0.1S6.2,11,6.1,10.9c-0.1-0.1-0.2-0.2-0.3-0.3s-0.2-0.2-0.3-0.3c-0.1-0.1-0.1-0.1-0.2-0.2S5.2,10,5.2,10
			c0,0-0.1-0.1-0.1-0.1c0,0,0-0.1-0.1-0.1C4.9,9.7,4.9,9.7,4.9,9.6c0-0.1,0-0.2,0-0.2c0-0.1,0.1-0.2,0.2-0.2c0.1,0,0.2,0,0.3,0
			s0.2,0,0.3,0c0.1,0,0.1,0,0.2,0c0,0,0.1,0,0.2,0c0.1,0,0.1,0,0.2,0c0.1,0,0.1,0,0.2,0c0.1,0,0.1,0,0.2,0c0.1,0,0.1,0,0.1,0.1
			C6.8,9.3,7,9.4,7.2,9.4c0.2,0,0.4,0.1,0.6,0.1c0.1,0,0.2,0,0.3,0.1c0.1,0,0.2,0.1,0.3,0.1c-0.1,0-0.1,0-0.2,0S8,9.7,7.9,9.7
			C8,9.8,8.1,9.8,8.1,9.9C8.2,9.9,8.2,10,8.3,10c0,0,0,0,0.1,0c0.1,0.1,0.2,0.2,0.2,0.3c0,0,0,0.1,0,0.1c0,0,0,0.1,0,0.1
			c0,0.1,0,0.2,0,0.3s-0.1,0.2-0.2,0.2c-0.1,0.1-0.1,0.1-0.3,0.1c-0.2-0.1-0.4-0.1-0.6-0.2c-0.2-0.1-0.4-0.2-0.6-0.2
			c0,0-0.1,0-0.1-0.1s-0.1,0-0.1,0c0,0,0.1,0.1,0.1,0.1S6.9,10.9,7,11C7,11,7.1,11.1,7.2,11.2c0.1,0.1,0.1,0.1,0.2,0.2
			c0.2,0.1,0.3,0.3,0.4,0.5c0.1,0.2,0.2,0.3,0.4,0.5c0.1,0.2,0.2,0.3,0.2,0.5C8.4,13.1,8.4,13.2,8.3,13.4z M6.3,9.3
			c0.1,0,0.2,0.1,0.4,0.1S6.9,9.5,7,9.5c-0.1,0-0.3-0.1-0.4-0.1S6.4,9.3,6.3,9.3z M8,11.8c-0.1-0.1-0.1-0.1-0.2-0.2
			c0-0.1-0.1-0.1-0.1-0.2c0.1,0,0.1,0.1,0.2,0.2s0.2,0.2,0.2,0.3c0.1,0.1,0.1,0.2,0.2,0.4c0.1,0.1,0.1,0.2,0.1,0.4
			c0-0.1-0.1-0.1-0.1-0.2c0-0.1-0.1-0.1-0.1-0.2c0-0.1-0.1-0.1-0.1-0.2S8,11.8,8,11.8z M8,10c0.1,0,0.1,0,0.1,0c0,0,0.1,0,0.1,0
			c0,0,0,0,0,0s0,0,0,0c0,0-0.1,0-0.1,0S8.1,10,8,10L8,10z"/>
		<path d="M6.6,18.5c0,0,0,0-0.1-0.1c0-0.1-0.1-0.1-0.1-0.1c0,0-0.1,0-0.1,0c0,0,0,0-0.1,0c0,0,0,0-0.1-0.1c0,0,0-0.1-0.1-0.1
			c0,0,0-0.1-0.1-0.1c0-0.1-0.1-0.1-0.1-0.1c0,0,0,0-0.1-0.1c0,0,0-0.1-0.1-0.1c0,0,0-0.1-0.1-0.1c0,0,0,0,0,0c0,0,0,0,0,0.1
			c0,0,0.1,0.1,0.1,0.2c0,0.1,0.1,0.1,0.1,0.1c0,0,0,0.1,0,0.1c0,0-0.1-0.1-0.2-0.2c-0.1-0.1-0.2-0.2-0.3-0.4
			c-0.1-0.1-0.2-0.3-0.3-0.4c-0.1-0.1-0.2-0.2-0.3-0.2c-0.1,0-0.3-0.1-0.4-0.1c-0.1,0-0.3-0.1-0.4-0.1c-0.2,0-0.4-0.1-0.6-0.2
			s-0.4-0.1-0.6-0.2c-0.1,0-0.1,0-0.2-0.1c-0.1,0-0.2-0.1-0.3-0.1h0.2c0.1,0,0.1,0,0.2,0.1c0.1,0,0.1,0,0.2,0C3,16,3,16,2.9,16
			c0,0-0.1,0-0.1,0c-0.2-0.1-0.3-0.1-0.5-0.2c-0.2-0.1-0.3-0.1-0.5-0.2c-0.1-0.1-0.3-0.1-0.4-0.2c-0.1-0.1-0.3-0.1-0.4-0.3
			c0,0,0,0,0-0.1s0,0,0-0.1c-0.1-0.1-0.1-0.1-0.2-0.2c-0.1-0.1-0.1-0.1-0.2-0.2c-0.1-0.1-0.2-0.2-0.3-0.3s-0.2-0.2-0.2-0.3
			C0.1,14,0,13.9,0,13.8c0-0.1,0-0.2,0-0.3c0,0,0-0.1,0-0.1c0,0,0,0,0,0c0,0,0,0,0,0c0.1-0.2,0.2-0.3,0.3-0.4
			c0.1-0.1,0.2-0.2,0.4-0.2c0.2-0.1,0.3-0.1,0.5,0c0.1,0,0.2,0.1,0.3,0.1c0.1,0,0.2,0,0.2,0S1.8,13,1.9,13c0.3,0.2,0.6,0.4,0.9,0.6
			s0.6,0.5,0.8,0.8c0.1,0.1,0.1,0.1,0.2,0.2C3.9,14.6,4,14.6,4,14.7c0.1,0.1,0.2,0.2,0.2,0.3c0.1,0.1,0.2,0.2,0.2,0.3
			c0.1,0.1,0.2,0.2,0.3,0.3c0.1,0,0.3,0.1,0.4,0.1c0.1,0,0.2,0.1,0.4,0.1c0,0,0,0,0.1,0s0,0,0.1,0c0,0,0-0.1,0-0.1c0,0,0,0-0.1,0
			c0,0,0,0,0-0.1s0,0,0-0.1c0,0-0.1-0.1-0.1-0.1c-0.1-0.1-0.2-0.3-0.3-0.4C5,14.8,5,14.6,5,14.5c0-0.2,0-0.3,0.1-0.4
			c0.1-0.1,0.2-0.2,0.3-0.3c0,0,0.1,0,0.1-0.1c0,0,0.1,0,0.1-0.1c0.1,0,0.1,0,0.2,0c0.1,0,0.1,0,0.2,0c0.1,0,0.1,0,0.2,0
			c0,0,0,0,0,0c0,0,0,0,0,0c0,0,0.1,0,0.2,0.1c0.1,0,0.3,0.1,0.4,0.1s0.2,0.1,0.3,0.1c0.1,0,0.1,0.1,0.1,0.1c0,0-0.1,0-0.1,0
			s-0.2,0-0.3,0c-0.1,0-0.2,0-0.3,0c-0.1,0-0.1,0-0.2,0c0,0,0,0,0.1,0c0.1,0,0.1,0,0.2,0c0.1,0,0.1,0,0.2,0c0,0,0.1,0,0.1,0
			c0.2,0.1,0.4,0.2,0.5,0.3c0.1,0.1,0.2,0.3,0.3,0.4c0,0,0.1,0.1,0.1,0.1c0,0.1,0.1,0.1,0.1,0.2S8,15.2,8,15.2c0,0.1,0,0.1,0,0.1
			s0,0-0.1-0.1c0-0.1-0.1-0.2-0.2-0.3c0,0,0,0,0,0c0,0,0,0.1,0,0.1c0.1,0.3,0.1,0.6,0,0.9c0,0.1-0.1,0.2-0.1,0.3s0,0.2,0.1,0.3
			c0,0,0,0.1,0,0.1s0,0,0,0.1c-0.1,0.1-0.1,0.2-0.3,0.2c-0.2,0-0.4,0-0.6,0c-0.2,0-0.4,0-0.6,0c-0.1,0-0.3,0-0.4-0.1
			c-0.1,0-0.3-0.1-0.4-0.1c0,0,0,0-0.1,0s-0.1,0-0.1,0c0.1,0.1,0.1,0.1,0.2,0.1c0.1,0,0.1,0,0.2,0.1s0.1,0,0.2,0
			c0.1,0,0.1,0,0.2,0.1c-0.1,0-0.2,0-0.3,0c-0.1,0-0.2,0-0.2,0c0.1,0.1,0.2,0.2,0.3,0.4s0.2,0.3,0.3,0.4c0.1,0.1,0.2,0.3,0.3,0.4
			c0.1,0.1,0.1,0.2,0.1,0.2L6.6,18.5C6.6,18.4,6.6,18.5,6.6,18.5z M3.3,15c0.1,0,0.1,0.1,0.2,0.1s0.2,0.1,0.2,0.1c0,0,0,0,0.1,0
			c0,0,0,0,0.1,0c0-0.1,0-0.1-0.1-0.1c0,0-0.1-0.1-0.1-0.1c-0.2-0.2-0.4-0.4-0.6-0.6c-0.2-0.2-0.5-0.4-0.7-0.6
			c-0.3-0.3-0.7-0.4-1.1-0.5c-0.1,0-0.2,0-0.3,0s-0.2,0.1-0.3,0.1c0,0,0.1,0.1,0.1,0.1c0,0,0.1,0.1,0.1,0.1c0.2,0.1,0.3,0.2,0.5,0.3
			c0.1,0.1,0.3,0.2,0.5,0.3c0.2,0.1,0.5,0.3,0.7,0.4S3,14.9,3.3,15z M1.3,15.1c0,0.1,0.1,0.1,0.1,0.1c0,0,0.1,0,0.2,0
			c-0.1,0-0.1-0.1-0.1-0.1C1.4,15.2,1.3,15.1,1.3,15.1z M4.3,16.5C4.3,16.5,4.3,16.5,4.3,16.5c0.1,0,0.1,0,0.1-0.1
			c-0.2-0.1-0.4-0.1-0.6-0.2S3.4,16.1,3.1,16c0,0,0,0,0,0c0,0,0,0,0,0c0,0,0,0.1,0.1,0.1c0.1,0,0.2,0.1,0.3,0.1
			c0.1,0,0.2,0.1,0.3,0.1c0.1,0,0.2,0,0.3,0.1C4.1,16.5,4.2,16.5,4.3,16.5z M6.9,15.8C7,15.9,7.1,16,7.2,16c0.1,0,0.1,0,0.2-0.1
			c0-0.1,0-0.1-0.1-0.2c0-0.1,0-0.1-0.1-0.2c0-0.1-0.1-0.2-0.1-0.2c-0.2-0.2-0.4-0.5-0.7-0.6c-0.2-0.2-0.5-0.3-0.8-0.4c0,0,0,0,0,0
			c0,0,0,0,0,0c0,0.1,0,0.2,0.1,0.3c0,0.1,0.1,0.2,0.2,0.3c0.2,0.2,0.3,0.3,0.5,0.5C6.6,15.6,6.8,15.7,6.9,15.8z"/>
		<path d="M6.6,25.2L6.6,25.2C6.6,25.3,6.6,25.3,6.6,25.2c-0.1,0.1-0.1,0-0.2-0.1c-0.1-0.1-0.1-0.3-0.1-0.5
			c-0.1-0.1-0.2-0.1-0.3-0.1c-0.2-0.1-0.3-0.2-0.5-0.4c-0.1-0.1-0.1-0.2-0.2-0.2c-0.1-0.1-0.1-0.2-0.2-0.2c-0.1-0.1-0.1-0.2-0.1-0.3
			C5,23.2,5,23.1,5,23c0,0,0-0.1,0-0.1c0,0,0-0.1,0-0.1c0,0,0-0.1,0.1-0.2c0-0.1,0-0.1,0.1-0.2c0,0,0.1-0.1,0.1-0.1
			c0,0,0.1-0.1,0.1-0.1c0-0.1,0.1-0.1,0.2-0.2C5.5,22.1,5.6,22,5.7,22c0,0,0.1,0,0.1,0s0.1,0,0.1-0.1c0.1-0.1,0.2-0.1,0.3-0.1
			s0.2,0,0.3,0s0.2,0,0.2,0c0.1,0,0.2,0.1,0.3,0.1s0.2,0,0.3,0.1c0.2,0,0.5,0.2,0.7,0.4l0,0c0,0,0,0,0,0c-0.1,0-0.2-0.1-0.3-0.1
			c-0.1-0.1-0.2-0.1-0.3-0.1h0c0,0,0.1,0,0.1,0.1c0.1,0,0.1,0.1,0.2,0.1c0.1,0,0.2,0.1,0.2,0.1s0.1,0.1,0.2,0.1c0,0,0.1,0.1,0.1,0.1
			c0,0,0,0,0,0c0,0-0.1,0-0.1,0s-0.1,0-0.1,0c0,0-0.1,0-0.1-0.1c-0.1,0-0.1,0-0.2,0c0,0,0,0,0,0l0,0c0,0,0.1,0.1,0.1,0.1
			c0.1,0,0.1,0.1,0.1,0.1c0,0-0.1,0-0.1,0s-0.1,0-0.1,0C7.9,22.9,8,23,8.1,23c0.1,0.1,0.2,0.1,0.3,0.2c0,0.1,0,0.2,0.1,0.3
			s0.1,0.2,0.1,0.3c0,0.1,0,0.2,0,0.2c0,0.1,0,0.1-0.1,0.2c0,0,0,0.1,0,0.1c-0.1,0.1-0.1,0.2-0.3,0.3c-0.1,0.1-0.2,0.1-0.3,0.1
			c-0.2,0-0.3,0-0.5,0c-0.2,0-0.3,0-0.5,0l-0.2-0.1C6.6,24.9,6.6,25.1,6.6,25.2z M6.2,24C6.2,24,6.3,24,6.2,24c0.1,0,0.1,0,0.1,0
			c0-0.1,0.1-0.1,0.1-0.2c0-0.1,0-0.1,0.1-0.2c0-0.1,0.1-0.1,0.1-0.2s0.1-0.1,0.1-0.2C6.6,23.1,6.5,23,6.4,23S6.2,23,6.2,23
			c-0.1,0-0.2-0.1-0.3-0.1c-0.1,0-0.2,0-0.4,0.1c0,0,0,0.1,0.1,0.1c0,0,0,0.1,0,0.1c0,0,0.1,0.1,0.1,0.1c0,0,0,0.1,0.1,0.1
			c0.1,0.1,0.1,0.2,0.2,0.3C6,23.8,6.1,23.9,6.2,24z M8.2,23.9c-0.2-0.3-0.4-0.4-0.7-0.5c-0.1,0-0.1,0-0.2,0c-0.1,0-0.1,0-0.2,0
			c-0.1,0-0.1,0-0.2,0S7,23.5,6.9,23.6c-0.1,0.1-0.1,0.2-0.2,0.2c0,0,0,0.1,0,0.1c0,0,0,0.1,0,0.1c0,0,0,0.1,0,0.1
			c0,0.1,0,0.2,0.1,0.2c0.1,0.1,0.3,0.1,0.4,0.1c0.1,0,0.3,0,0.4,0c0,0,0.1,0,0.1,0c0,0,0.1,0,0.1,0c0.1,0,0.3-0.1,0.3-0.2
			C8.3,24.1,8.3,24,8.2,23.9z"/>
		<path d="M8.5,27.7c-0.1,0-0.3-0.1-0.4-0.2c-0.1-0.1-0.3-0.1-0.4-0.2c0,0-0.1,0-0.1,0c0,0-0.1,0-0.1,0c0,0,0,0.1,0,0.1
			c0,0,0,0.1,0,0.1c0,0.1,0,0.2,0,0.3s0,0.2,0,0.3c0,0.1,0,0.2,0,0.3c0,0.1-0.1,0.2-0.1,0.3c0,0,0,0.1-0.1,0.1s-0.1,0-0.1,0
			c0,0,0,0,0,0c0,0,0,0,0,0c0-0.1,0-0.1,0-0.2c0-0.1,0-0.1,0-0.2c0-0.2,0-0.4-0.1-0.6c0-0.2-0.1-0.4-0.1-0.6c0,0,0,0-0.1,0
			c0,0,0,0-0.1,0c-0.2-0.1-0.4-0.2-0.7-0.3c-0.2-0.1-0.4-0.2-0.7-0.3c-0.2-0.1-0.4-0.2-0.6-0.2c-0.2-0.1-0.4-0.1-0.6-0.2
			c-0.2,0-0.3-0.1-0.5-0.1c-0.2,0-0.3-0.1-0.5-0.1c-0.1,0-0.3-0.1-0.4-0.1c-0.1,0-0.2-0.1-0.4-0.1c-0.2,0-0.2-0.2-0.2-0.3
			c0-0.1,0.1-0.2,0.2-0.3c0.1-0.1,0.2-0.1,0.4-0.1c0,0,0.1,0,0.1,0c0,0,0.1,0,0.1,0c0.2,0,0.3,0,0.5,0.1s0.3,0,0.5,0.1
			c0.1,0,0.2,0,0.3,0c0.1,0,0.2,0,0.3,0.1c0.1,0,0.3,0.1,0.4,0.1c0.1,0,0.3,0.1,0.4,0.1c0.1,0,0.3,0.1,0.4,0.1
			c0.1,0,0.3,0.1,0.4,0.1c0,0-0.1,0-0.1,0c0,0,0,0-0.1,0c0.1,0,0.2,0,0.2,0c0.1,0,0.1,0,0.2-0.1c0-0.1,0-0.2,0.1-0.3
			c0-0.1,0.1-0.2,0.2-0.3c0.1-0.1,0.1-0.1,0.1,0c0,0.1,0.1,0.1,0.1,0.1c0,0,0,0,0,0c0,0,0,0,0,0s0,0,0-0.1c0,0,0,0,0,0
			c0,0,0,0.1,0,0.2s0,0.2,0,0.3c0,0.1,0,0.2,0,0.2c0,0,0,0.1,0,0.1c0,0,0.1,0.1,0.1,0.1c0,0,0.1,0,0.1,0.1c0.2,0.1,0.4,0.1,0.6,0.2
			c0.2,0.1,0.4,0.2,0.6,0.2c0.1,0,0.1,0.1,0.2,0.1c0.1,0,0.1,0.1,0.2,0.1c0,0,0,0,0.1,0c0,0,0,0,0.1,0c0.1,0.1,0.2,0.1,0.3,0.2
			c0.1,0.1,0.2,0.1,0.3,0.2c0,0,0.1,0,0.1,0.1c0,0,0,0,0.1,0.1c-0.1,0-0.1,0-0.1,0c0,0-0.1,0-0.1,0c0.1,0.1,0.1,0.1,0.2,0.2
			c0.1,0.1,0.2,0.1,0.2,0.2c0,0,0.1,0,0.1,0.1c0,0,0.1,0,0.1,0.1c0,0,0.1,0.1,0.1,0.1c0,0.1,0.1,0.2,0.1,0.2s0.1,0.2,0.1,0.2
			c0,0.1,0,0.1,0,0.2c0,0.1,0,0.2,0,0.3c0,0.1-0.1,0.1-0.1,0.2S10.2,29,10.1,29c-0.1,0-0.1,0-0.2,0c-0.1,0-0.1,0-0.2-0.1
			c0,0,0,0,0-0.1c0,0,0-0.1,0-0.1c0-0.1,0-0.1,0-0.2c0-0.1-0.1-0.1-0.1-0.2C9.4,28.3,9.2,28.1,9,28C8.9,27.9,8.7,27.8,8.5,27.7z
			 M8.9,26.6C8.9,26.6,8.9,26.6,8.9,26.6C8.9,26.5,8.9,26.5,8.9,26.6c0.1-0.1,0.2,0,0.3,0c0.1,0.1,0.2,0.1,0.3,0.2S9.8,27,9.9,27
			c0.1,0.1,0.2,0.1,0.2,0.1c0,0,0.1,0.1,0.1,0.1c0,0,0,0.1,0,0.1c0,0-0.1,0-0.1,0c0,0-0.1-0.1-0.1-0.2c0,0-0.1-0.1-0.2-0.1
			c-0.1-0.1-0.2-0.1-0.3-0.2C9.2,26.8,9,26.7,8.9,26.6z"/>
		<path d="M10.1,36.2c0.2,0.4,0.4,0.7,0.7,1.1s0.5,0.7,0.8,1c0,0,0.1,0.1,0.2,0.2c0.1,0.1,0.1,0.1,0.2,0.2c0-0.2,0-0.3-0.1-0.5
			c0-0.1-0.1-0.3-0.1-0.4c-0.1-0.4-0.3-0.7-0.5-1c-0.2-0.3-0.4-0.6-0.6-0.9c-0.2-0.2-0.4-0.4-0.6-0.6c-0.2-0.2-0.4-0.3-0.7-0.4
			c0,0.1,0,0.2,0,0.2s0,0.2,0,0.2c0,0.3,0,0.5,0,0.8c0,0.3,0,0.5-0.1,0.8C9.2,37.4,9,37.7,8.8,38c-0.2,0.1-0.3,0.2-0.5,0.2
			c0,0-0.1,0-0.1,0c0,0.1,0,0.1,0,0.2c0,0.1,0,0.1,0.1,0.2c0,0.1,0,0.1,0.1,0.2c0,0.1,0,0.1,0,0.2c-0.1-0.1-0.2-0.2-0.3-0.3
			c-0.1-0.1-0.1-0.2-0.2-0.3s-0.1-0.2-0.2-0.2C7.6,38.1,7.5,38,7.4,38c-0.8-0.3-1.5-0.7-2.1-1.2c0,0-0.1-0.1-0.1-0.1h0.3
			c-0.1-0.1-0.2-0.2-0.2-0.3C5.1,36.3,5,36.3,5,36.2c-0.1-0.1-0.2-0.2-0.3-0.3s-0.1-0.2-0.2-0.3c0,0,0-0.1,0-0.1c0,0,0,0,0-0.1
			c-0.1-0.2-0.2-0.3-0.3-0.5c-0.1-0.2-0.2-0.4-0.2-0.6c-0.1-0.2-0.1-0.3-0.1-0.5c0-0.2,0-0.3,0-0.5c0-0.2,0.1-0.4,0.2-0.5
			c0.1-0.1,0.2-0.2,0.4-0.3c0.1,0,0.1,0,0.2,0.1C4.7,32.8,4.8,32.9,5,33c0.1,0.1,0.2,0.2,0.3,0.4c0.3,0.3,0.5,0.7,0.8,1.1
			c0.2,0.4,0.5,0.7,0.7,1.1c0.1,0.2,0.2,0.4,0.3,0.6s0.2,0.4,0.3,0.6c0,0,0.1,0.1,0.1,0.1c0,0,0.1,0.1,0.1,0.1
			c0.1,0,0.3,0.1,0.4,0.2c0.1,0.1,0.3,0.1,0.4,0.2c0,0,0.1,0,0.2,0c0.2,0,0.3-0.1,0.3-0.3v-0.8c0-0.1,0-0.2,0-0.3c0-0.1,0-0.2,0-0.3
			c0-0.2,0-0.3,0-0.5c0-0.1,0-0.3,0.1-0.4c0-0.2,0.1-0.3,0.2-0.4C9.2,34.1,9.3,34,9.5,34c0.2-0.1,0.4,0,0.5,0.1
			c0.2,0.2,0.4,0.3,0.6,0.5c0.2,0.2,0.4,0.4,0.5,0.6c0,0,0,0.1,0.1,0.1c0,0,0.1,0.1,0.1,0.1c0-0.1-0.1-0.2-0.1-0.2
			C11.1,35,11,34.9,11,34.8c-0.1-0.1-0.2-0.2-0.3-0.3c0,0-0.1-0.1-0.1-0.1c-0.1,0-0.1-0.1-0.2-0.1c0,0,0,0,0,0c0,0,0-0.1,0-0.2
			c0.1,0,0.1,0.1,0.2,0.2c0.1,0.1,0.1,0.1,0.2,0.2c0,0,0.1,0.1,0.1,0.1c0,0,0.1,0,0.2,0c0,0,0,0,0.1,0c0,0,0,0,0.1,0.1
			c0,0.1,0.1,0.1,0.1,0.2s0.1,0.2,0.2,0.3c0,0,0,0.1,0.1,0.1c0,0.1,0.1,0.1,0.1,0.1c0,0,0,0,0.1,0.1c0,0,0,0.1,0.1,0.1
			c0.1,0.3,0.3,0.6,0.4,0.9c0.1,0.3,0.2,0.6,0.3,0.9c0,0.1,0,0.1,0,0.2c0,0.1,0,0.1,0,0.2c0-0.1,0-0.1,0-0.2s0-0.2-0.1-0.3
			c0,0,0,0.1,0,0.1c0,0,0,0.1,0,0.1v0.1c-0.1,0-0.1,0-0.1,0.1c0,0,0,0.1,0,0.1c0,0,0,0.1,0,0.1s0,0.1,0,0.1c0,0.1,0,0.3,0,0.4
			c0,0.1,0,0.2-0.1,0.4c0,0.1,0,0.1-0.1,0.2c0,0.1,0,0.1-0.1,0.2c-0.1,0.2-0.3,0.3-0.5,0.1c-0.1-0.1-0.3-0.2-0.4-0.3
			c-0.1-0.1-0.2-0.2-0.3-0.4c-0.1-0.2-0.3-0.4-0.4-0.6c-0.1-0.2-0.3-0.4-0.4-0.6c-0.1-0.1-0.1-0.2-0.2-0.3c0-0.1-0.1-0.2-0.1-0.3
			c0-0.1-0.1-0.2-0.1-0.3c0-0.1,0-0.2,0-0.3c0-0.1,0-0.2,0.1-0.2c0,0,0.1,0,0.1,0C10,36.1,10,36.1,10.1,36.2z M5.7,35.4
			c0.1,0.1,0.2,0.3,0.4,0.4c0.1,0.1,0.2,0.3,0.3,0.4c0,0,0,0,0,0c0,0,0,0,0,0c0-0.1-0.1-0.1-0.1-0.2c-0.1-0.2-0.3-0.4-0.4-0.6
			s-0.3-0.4-0.4-0.6c-0.2-0.3-0.5-0.6-0.7-0.9c-0.1-0.1-0.2-0.2-0.3-0.2c0,0.1,0,0.2,0.1,0.3s0.1,0.2,0.2,0.2
			c0.1,0.1,0.1,0.2,0.2,0.2C5,34.4,5,34.5,5,34.5c0.2,0.1,0.3,0.2,0.4,0.4C5.5,35.1,5.6,35.2,5.7,35.4z M4.8,36.3
			c-0.1,0-0.1-0.1-0.2-0.1S4.5,36.1,4.5,36c0,0,0.1,0.1,0.1,0.1C4.7,36.2,4.7,36.2,4.8,36.3z M4.9,36.5L4.9,36.5
			C5,36.5,5,36.5,4.9,36.5C5,36.5,5,36.5,4.9,36.5c0,0,0.1,0,0.1,0.1c0,0,0.1,0.1,0.1,0.1C5.1,36.6,5,36.6,4.9,36.5z M5.8,36.9
			C5.8,36.8,5.7,36.8,5.8,36.9c-0.1-0.1-0.2-0.1-0.2-0.1c0,0,0.1,0,0.1,0C5.7,36.9,5.7,36.9,5.8,36.9z M5.8,37
			C5.9,37,5.9,37.1,5.8,37C5.9,37,5.9,37,5.8,37C5.9,37,5.9,36.9,5.8,37C5.8,36.9,5.8,36.9,5.8,37C5.8,36.9,5.8,36.9,5.8,37
			C5.8,37,5.8,37,5.8,37z M11.5,35.7c0,0,0-0.1,0-0.1c0,0-0.1-0.1-0.2-0.1C11.4,35.5,11.4,35.6,11.5,35.7
			C11.5,35.6,11.5,35.6,11.5,35.7z M11.6,35.7c0,0,0,0.1,0,0.1s0,0.1,0,0.1c0,0,0,0,0.1,0c0,0-0.1,0-0.1-0.1
			C11.6,35.8,11.6,35.7,11.6,35.7z"/>
		<path d="M6.6,42L6.6,42C6.6,42.1,6.6,42.1,6.6,42c-0.1,0.1-0.1,0-0.2-0.2c-0.1-0.1-0.1-0.3-0.1-0.5c-0.1-0.1-0.2-0.1-0.3-0.1
			c-0.2-0.1-0.3-0.2-0.5-0.4c-0.1-0.1-0.1-0.2-0.2-0.2c-0.1-0.1-0.1-0.2-0.2-0.2c-0.1-0.1-0.1-0.2-0.1-0.3C5,40,5,39.9,5,39.8
			c0,0,0-0.1,0-0.1c0,0,0-0.1,0-0.1c0,0,0-0.1,0.1-0.2c0-0.1,0-0.1,0.1-0.2c0,0,0.1-0.1,0.1-0.1c0,0,0.1-0.1,0.1-0.1
			c0-0.1,0.1-0.1,0.2-0.2c0.1-0.1,0.1-0.1,0.2-0.1c0,0,0.1,0,0.1,0c0,0,0.1,0,0.1-0.1c0.1-0.1,0.2-0.1,0.3-0.1c0.1,0,0.2,0,0.3,0
			s0.2,0,0.2,0c0.1,0,0.2,0.1,0.3,0.1c0.1,0,0.2,0,0.3,0.1c0.2,0,0.5,0.2,0.7,0.4l0,0c0,0,0,0,0,0c-0.1,0-0.2-0.1-0.3-0.1
			C7.6,39.1,7.5,39,7.4,39h0c0,0,0.1,0,0.1,0.1c0.1,0,0.1,0.1,0.2,0.1c0.1,0,0.2,0.1,0.2,0.1s0.1,0.1,0.2,0.1c0,0,0.1,0.1,0.1,0.1
			c0,0,0,0,0,0c0,0-0.1,0-0.1,0c0,0-0.1,0-0.1,0c0,0-0.1,0-0.1-0.1c-0.1,0-0.1,0-0.2,0c0,0,0,0,0,0l0,0c0,0,0.1,0.1,0.1,0.1
			c0.1,0,0.1,0.1,0.1,0.1c0,0-0.1,0-0.1,0s-0.1,0-0.1,0c0.1,0.1,0.2,0.1,0.3,0.2C8.1,39.9,8.3,40,8.4,40c0,0.1,0,0.2,0.1,0.3
			c0,0.1,0.1,0.2,0.1,0.3c0,0.1,0,0.2,0,0.2c0,0.1,0,0.1-0.1,0.2c0,0,0,0.1,0,0.1c-0.1,0.1-0.1,0.2-0.3,0.3
			c-0.1,0.1-0.2,0.1-0.3,0.1c-0.2,0-0.3,0-0.5,0c-0.2,0-0.3,0-0.5,0l-0.2-0.1C6.6,41.7,6.6,41.9,6.6,42z M6.2,40.8
			C6.2,40.8,6.3,40.8,6.2,40.8c0.1,0,0.1,0,0.1,0c0-0.1,0.1-0.1,0.1-0.2s0-0.1,0.1-0.2c0-0.1,0.1-0.1,0.1-0.2c0-0.1,0.1-0.1,0.1-0.2
			c-0.1-0.1-0.1-0.1-0.2-0.2c-0.1,0-0.2,0-0.2-0.1c-0.1,0-0.2-0.1-0.3-0.1c-0.1,0-0.2,0-0.4,0.1c0,0,0,0.1,0.1,0.1c0,0,0,0.1,0,0.1
			c0,0,0.1,0.1,0.1,0.1c0,0,0,0.1,0.1,0.1c0.1,0.1,0.1,0.2,0.2,0.3S6.1,40.7,6.2,40.8z M8.2,40.7c-0.2-0.3-0.4-0.4-0.7-0.5
			c-0.1,0-0.1,0-0.2,0c-0.1,0-0.1,0-0.2,0c-0.1,0-0.1,0-0.2,0c0,0-0.1,0.1-0.1,0.1c-0.1,0.1-0.1,0.2-0.2,0.2c0,0,0,0.1,0,0.1
			c0,0,0,0.1,0,0.1c0,0,0,0.1,0,0.1c0,0.1,0,0.2,0.1,0.2c0.1,0.1,0.3,0.1,0.4,0.1c0.1,0,0.3,0,0.4,0c0,0,0.1,0,0.1,0
			c0,0,0.1,0,0.1,0c0.1,0,0.3-0.1,0.3-0.2C8.3,40.9,8.3,40.8,8.2,40.7z"/>
		<path d="M12.4,45.4c-0.1,0.1-0.1,0.1-0.3,0c0,0-0.1,0-0.1,0c-0.2-0.1-0.3-0.2-0.5-0.3s-0.4-0.2-0.5-0.3c-0.1,0-0.1-0.1-0.2-0.1
			c-0.1,0-0.1-0.1-0.2-0.1c-0.5-0.2-1-0.5-1.5-0.7c-0.2-0.1-0.3-0.1-0.5-0.2c-0.2-0.1-0.3-0.1-0.4-0.2c-0.2-0.1-0.4-0.2-0.6-0.2
			c-0.2-0.1-0.4-0.2-0.6-0.2c-0.1,0-0.1,0-0.2,0c0,0-0.1,0-0.1,0s-0.1,0-0.1,0c-0.1,0-0.2-0.1-0.3-0.1C6.2,43,6.1,43,6,42.9
			c-0.1,0-0.2-0.1-0.2-0.1c-0.1,0-0.1,0-0.2,0s-0.1,0-0.1,0c0,0,0,0.1,0.2,0.2c0.1,0.1,0.2,0.2,0.3,0.4c0.1,0.1,0.3,0.3,0.5,0.5
			c0,0,0,0.1,0.1,0.1c0,0,0.1,0.1,0.1,0.1c0,0,0,0-0.1,0c-0.1,0-0.1,0-0.1,0c0,0-0.1-0.1-0.3-0.2s-0.3-0.3-0.5-0.4
			c-0.2-0.1-0.4-0.3-0.6-0.4C5,43.1,4.9,43.1,4.9,43c-0.1-0.2-0.2-0.3-0.3-0.5c0-0.1,0-0.2,0-0.3c0,0,0-0.1,0.1-0.1
			c0,0,0-0.1,0.1-0.1c0.1-0.1,0.2-0.2,0.3-0.2c0.1,0,0.1,0,0.1,0c0,0,0.1,0,0.1,0c0.2,0,0.3,0.1,0.5,0.1c0.2,0,0.3,0.1,0.5,0.1
			c0.1,0,0.1,0,0.2,0c0.1,0,0.1,0,0.2,0c0,0,0.1,0,0.1,0c0,0,0.1,0,0.2,0s0.1,0,0.2,0c0,0,0.1,0,0.2,0s0.2,0.1,0.3,0.1
			c0.1,0,0.2,0.1,0.3,0.1c0.1,0,0.2,0.1,0.2,0.1c0,0-0.1,0-0.2,0c-0.1,0-0.2,0-0.3-0.1c-0.1,0-0.2-0.1-0.3-0.1c-0.1,0-0.2,0-0.2,0
			c0,0,0,0.1,0,0.1c0,0,0,0,0.1,0c0.2,0.1,0.5,0.2,0.7,0.2c0.2,0.1,0.5,0.1,0.7,0.2c0.1,0,0.1,0,0.2,0c0.1,0,0.1,0,0.2,0
			c0,0,0,0,0,0s0,0,0,0c0.1,0,0.2,0,0.2,0c0.1,0,0.1,0.1,0.2,0.1c0.1,0,0.2,0.1,0.3,0.1c0.1,0,0.2,0.1,0.3,0.1c-0.1,0-0.3,0-0.4-0.1
			c-0.1-0.1-0.3-0.1-0.5-0.1c0.1,0.1,0.2,0.1,0.3,0.1c0.1,0,0.2,0.1,0.3,0.1c0.2,0.1,0.3,0.2,0.5,0.2c0.2,0.1,0.4,0.1,0.6,0.2
			c0.1,0,0.2,0.1,0.3,0.1c0.1,0,0.2,0.1,0.3,0.1c0.2,0.1,0.3,0.1,0.4,0.3c0,0,0.1,0,0.1,0.1s0.1,0,0.1,0.1c0.2,0.1,0.3,0.2,0.3,0.5
			c0,0.1,0,0.2,0,0.3s0,0.2,0,0.3C12.5,45.2,12.5,45.3,12.4,45.4z"/>
		<path d="M6.6,47.5L6.6,47.5C6.6,47.6,6.6,47.6,6.6,47.5c-0.1,0.1-0.1,0-0.2-0.1c-0.1-0.1-0.1-0.3-0.1-0.5
			c-0.1-0.1-0.2-0.1-0.3-0.1c-0.2-0.1-0.3-0.2-0.5-0.4c-0.1-0.1-0.1-0.2-0.2-0.2c-0.1-0.1-0.1-0.2-0.2-0.2c-0.1-0.1-0.1-0.2-0.1-0.3
			S5,45.4,5,45.3c0,0,0-0.1,0-0.1s0-0.1,0-0.1c0,0,0-0.1,0.1-0.2c0-0.1,0-0.1,0.1-0.2c0,0,0.1-0.1,0.1-0.1c0,0,0.1-0.1,0.1-0.1
			c0-0.1,0.1-0.1,0.2-0.2c0.1-0.1,0.1-0.1,0.2-0.1c0,0,0.1,0,0.1,0c0,0,0.1,0,0.1-0.1c0.1-0.1,0.2-0.1,0.3-0.1c0.1,0,0.2,0,0.3,0
			s0.2,0,0.2,0c0.1,0,0.2,0.1,0.3,0.1c0.1,0,0.2,0,0.3,0.1c0.2,0,0.5,0.2,0.7,0.4l0,0c0,0,0,0,0,0c-0.1,0-0.2-0.1-0.3-0.1
			c-0.1-0.1-0.2-0.1-0.3-0.1h0c0,0,0.1,0,0.1,0.1c0.1,0,0.1,0.1,0.2,0.1c0.1,0,0.2,0.1,0.2,0.1s0.1,0.1,0.2,0.1s0.1,0,0.1,0.1
			c0,0,0,0,0,0c0,0-0.1,0-0.1,0c0,0-0.1,0-0.1,0c0,0-0.1,0-0.1-0.1c-0.1,0-0.1,0-0.2,0c0,0,0,0,0,0l0,0c0,0,0.1,0.1,0.1,0.1
			c0.1,0,0.1,0.1,0.1,0.1c0,0-0.1,0-0.1,0s-0.1,0-0.1,0c0.1,0.1,0.2,0.1,0.3,0.2s0.2,0.1,0.3,0.2c0,0.1,0,0.2,0.1,0.3
			c0,0.1,0.1,0.2,0.1,0.3c0,0.1,0,0.2,0,0.2c0,0.1,0,0.1-0.1,0.2c0,0,0,0.1,0,0.1c-0.1,0.1-0.1,0.2-0.3,0.3
			c-0.1,0.1-0.2,0.1-0.3,0.1c-0.2,0-0.3,0-0.5,0c-0.2,0-0.3,0-0.5,0L6.6,47C6.6,47.2,6.6,47.4,6.6,47.5z M6.2,46.3
			C6.2,46.3,6.3,46.3,6.2,46.3c0.1,0,0.1,0,0.1,0c0-0.1,0.1-0.1,0.1-0.2c0-0.1,0-0.1,0.1-0.2c0-0.1,0.1-0.2,0.1-0.2
			c0-0.1,0.1-0.1,0.1-0.2c-0.1-0.1-0.1-0.1-0.2-0.2c-0.1,0-0.2,0-0.2-0.1c-0.1,0-0.2-0.1-0.3-0.1c-0.1,0-0.2,0-0.4,0.1
			c0,0,0,0.1,0.1,0.1s0,0.1,0,0.1c0,0,0.1,0.1,0.1,0.1c0,0,0,0.1,0.1,0.1c0.1,0.1,0.1,0.2,0.2,0.3C6,46.1,6.1,46.2,6.2,46.3z
			 M8.2,46.2c-0.2-0.3-0.4-0.4-0.7-0.5c-0.1,0-0.1,0-0.2,0c-0.1,0-0.1,0-0.2,0c-0.1,0-0.1,0-0.2,0c0,0-0.1,0.1-0.1,0.1
			c-0.1,0.1-0.1,0.2-0.2,0.2c0,0,0,0.1,0,0.1c0,0,0,0.1,0,0.1s0,0.1,0,0.1c0,0.1,0,0.2,0.1,0.2c0.1,0.1,0.3,0.1,0.4,0.1s0.3,0,0.4,0
			c0,0,0.1,0,0.1,0s0.1,0,0.1,0c0.1,0,0.3-0.1,0.3-0.2C8.3,46.4,8.3,46.3,8.2,46.2z"/>
		<path d="M6.8,53.4C6.8,53.4,6.8,53.4,6.8,53.4C6.8,53.4,6.7,53.5,6.8,53.4c-0.1,0.1-0.1,0.1-0.2,0.1s-0.1,0-0.1,0
			c0,0-0.1-0.1-0.2-0.1c-0.1,0-0.1-0.1-0.2-0.1c0,0-0.1,0-0.1,0s-0.1,0-0.1,0c0,0-0.1-0.1-0.1-0.1c0,0-0.1,0-0.1-0.1
			c0,0-0.1-0.1-0.1-0.1c0,0-0.1-0.1-0.1-0.1c-0.1-0.1-0.3-0.2-0.4-0.3c-0.1-0.1-0.2-0.2-0.3-0.3c-0.1-0.1-0.2-0.1-0.2-0.2
			c-0.1-0.1-0.1-0.1-0.2-0.2s-0.1-0.2,0-0.3s0-0.2,0.1-0.3c0.1-0.1,0.1-0.2,0.2-0.2c0.1-0.1,0.3-0.1,0.5,0c0.5,0.1,1,0.2,1.4,0.4
			s0.9,0.3,1.4,0.5c0-0.2-0.1-0.4-0.3-0.6c-0.2-0.1-0.3-0.3-0.5-0.4C7,51,6.9,50.9,6.7,50.8c-0.1,0-0.1-0.1-0.2-0.1
			s-0.1-0.1-0.2-0.1c-0.1,0-0.2-0.1-0.2-0.3c0-0.1,0-0.2,0-0.4c0.1-0.2,0.2-0.3,0.5-0.3c0.1,0,0.2,0,0.3,0c0.1,0,0.2,0,0.3,0.1
			c0.1,0,0.2,0,0.1,0c-0.1-0.1-0.1-0.2-0.3-0.3c-0.1-0.1-0.3-0.2-0.4-0.3c-0.1-0.1-0.2-0.2-0.3-0.2c-0.1-0.1-0.2-0.1-0.3-0.2
			c-0.1-0.1-0.2-0.1-0.3-0.2c-0.1-0.1-0.3-0.2-0.4-0.2C5.2,48.1,5,48.1,4.9,48c0,0,0-0.1,0-0.1c0-0.2,0-0.3,0.1-0.4
			c0.1-0.1,0.2-0.2,0.4-0.2c0.1,0,0.2,0,0.3,0c0.1,0,0.2,0,0.3,0c0,0,0,0,0,0l0,0c0-0.1,0.1-0.1,0.2-0.1c0.1,0,0.3,0.1,0.4,0.1
			s0.3,0.1,0.4,0.1c0.2,0,0.3,0.1,0.5,0.1s0.3,0.1,0.5,0.1c0.1,0,0.2,0.1,0.3,0.1c0.1,0,0.2,0.1,0.3,0.1c0,0,0,0,0.1,0
			c0,0,0.1,0,0.1,0.1c0,0-0.1,0-0.1,0c-0.2,0-0.3-0.1-0.5-0.1c-0.2-0.1-0.3-0.1-0.5-0.2c-0.1,0-0.3-0.1-0.4,0c0,0,0,0,0,0
			c0,0,0,0,0,0c0.2,0.1,0.4,0.1,0.6,0.2s0.4,0.2,0.6,0.3c0.1,0.1,0.2,0.2,0.3,0.3s0.1,0.3,0.1,0.5c0,0.1-0.1,0.2-0.3,0.3
			c-0.4-0.2-0.8-0.3-1.2-0.4c0,0,0,0,0,0.1c0,0,0,0,0,0.1c0.2,0.2,0.4,0.3,0.6,0.5c0.2,0.2,0.3,0.4,0.3,0.7c0,0.1,0,0.1,0,0.2
			c0,0.1,0,0.1-0.1,0.2S8.1,50.7,8,50.7c-0.1,0-0.2,0-0.4-0.1c0,0,0,0,0,0s0,0,0,0c0,0,0,0,0,0.1C7.7,50.9,7.9,51,8,51.2
			c0.1,0.2,0.2,0.4,0.3,0.6c0,0.1,0.1,0.2,0.1,0.3c0,0.1,0,0.2,0,0.3c0,0.1,0,0.1-0.1,0.2s-0.1,0.1-0.1,0.1
			c-0.1,0.1-0.1,0.1-0.3,0.1c-0.1,0-0.2,0-0.3,0c-0.2-0.1-0.4-0.1-0.6-0.2s-0.4-0.2-0.6-0.3c-0.2-0.1-0.4-0.2-0.6-0.2
			C5.6,52,5.3,52,5.1,52c0.1,0.1,0.3,0.2,0.4,0.4c0.2,0.2,0.3,0.3,0.5,0.5c0.2,0.2,0.3,0.3,0.5,0.4C6.6,53.3,6.7,53.4,6.8,53.4z
			 M6.5,47.5c0.1,0,0.2,0,0.4,0c0.1,0,0.1,0,0.2,0c0.1,0,0.1,0,0.2,0v0h0c-0.2-0.1-0.3-0.1-0.5-0.1c-0.2,0-0.3,0-0.5-0.1
			c0,0,0,0,0,0c0,0,0,0-0.1,0c0.1,0,0.1,0,0.2,0.1C6.4,47.5,6.4,47.5,6.5,47.5z"/>
		<path d="M6.6,56.5L6.6,56.5C6.6,56.6,6.6,56.6,6.6,56.5c-0.1,0.1-0.1,0-0.2-0.1c-0.1-0.1-0.1-0.3-0.1-0.5
			c-0.1-0.1-0.2-0.1-0.3-0.1c-0.2-0.1-0.3-0.2-0.5-0.4c-0.1-0.1-0.1-0.2-0.2-0.2c-0.1-0.1-0.1-0.2-0.2-0.2c-0.1-0.1-0.1-0.2-0.1-0.3
			S5,54.4,5,54.3c0,0,0-0.1,0-0.1s0-0.1,0-0.1c0,0,0-0.1,0.1-0.2c0-0.1,0-0.1,0.1-0.2c0,0,0.1-0.1,0.1-0.1c0,0,0.1-0.1,0.1-0.1
			c0-0.1,0.1-0.1,0.2-0.2c0.1-0.1,0.1-0.1,0.2-0.1c0,0,0.1,0,0.1,0c0,0,0.1,0,0.1-0.1c0.1-0.1,0.2-0.1,0.3-0.1c0.1,0,0.2,0,0.3,0
			s0.2,0,0.2,0c0.1,0,0.2,0.1,0.3,0.1c0.1,0,0.2,0,0.3,0.1c0.2,0,0.5,0.2,0.7,0.4l0,0c0,0,0,0,0,0c-0.1,0-0.2-0.1-0.3-0.1
			c-0.1-0.1-0.2-0.1-0.3-0.1h0c0,0,0.1,0,0.1,0.1c0.1,0,0.1,0.1,0.2,0.1c0.1,0,0.2,0.1,0.2,0.1s0.1,0.1,0.2,0.1s0.1,0,0.1,0.1
			c0,0,0,0,0,0c0,0-0.1,0-0.1,0c0,0-0.1,0-0.1,0c0,0-0.1,0-0.1-0.1c-0.1,0-0.1,0-0.2,0c0,0,0,0,0,0l0,0c0,0,0.1,0.1,0.1,0.1
			c0.1,0,0.1,0.1,0.1,0.1c0,0-0.1,0-0.1,0s-0.1,0-0.1,0c0.1,0.1,0.2,0.1,0.3,0.2s0.2,0.1,0.3,0.2c0,0.1,0,0.2,0.1,0.3
			c0,0.1,0.1,0.2,0.1,0.3c0,0.1,0,0.2,0,0.2c0,0.1,0,0.1-0.1,0.2c0,0,0,0.1,0,0.1c-0.1,0.1-0.1,0.2-0.3,0.3
			c-0.1,0.1-0.2,0.1-0.3,0.1c-0.2,0-0.3,0-0.5,0c-0.2,0-0.3,0-0.5,0L6.6,56C6.6,56.2,6.6,56.4,6.6,56.5z M6.2,55.3
			C6.2,55.3,6.3,55.3,6.2,55.3c0.1,0,0.1,0,0.1,0c0-0.1,0.1-0.1,0.1-0.2c0-0.1,0-0.1,0.1-0.2c0-0.1,0.1-0.2,0.1-0.2
			c0-0.1,0.1-0.1,0.1-0.2c-0.1-0.1-0.1-0.1-0.2-0.2c-0.1,0-0.2,0-0.2-0.1c-0.1,0-0.2-0.1-0.3-0.1c-0.1,0-0.2,0-0.4,0.1
			c0,0,0,0.1,0.1,0.1s0,0.1,0,0.1c0,0,0.1,0.1,0.1,0.1c0,0,0,0.1,0.1,0.1c0.1,0.1,0.1,0.2,0.2,0.3C6,55.1,6.1,55.2,6.2,55.3z
			 M8.2,55.1c-0.2-0.3-0.4-0.4-0.7-0.5c-0.1,0-0.1,0-0.2,0c-0.1,0-0.1,0-0.2,0c-0.1,0-0.1,0-0.2,0c0,0-0.1,0.1-0.1,0.1
			c-0.1,0.1-0.1,0.2-0.2,0.2c0,0,0,0.1,0,0.1c0,0,0,0.1,0,0.1s0,0.1,0,0.1c0,0.1,0,0.2,0.1,0.2c0.1,0.1,0.3,0.1,0.4,0.1s0.3,0,0.4,0
			c0,0,0.1,0,0.1,0s0.1,0,0.1,0c0.1,0,0.3-0.1,0.3-0.2C8.3,55.4,8.3,55.3,8.2,55.1z"/>
		<path d="M8.3,60.5c-0.1,0.1-0.3,0.2-0.4,0.2c-0.1,0-0.3,0-0.5-0.1c-0.2-0.1-0.4-0.2-0.6-0.3s-0.4-0.2-0.6-0.3
			C6.1,60,5.9,60,5.8,59.9c-0.1,0-0.3-0.1-0.4-0.1c-0.1,0-0.2,0-0.3,0c-0.1,0-0.2,0-0.3-0.1c0,0,0,0-0.1-0.1c0,0,0,0-0.1-0.1
			c0-0.1,0.1-0.2,0.2-0.3C4.8,59.2,4.9,59.1,5,59C5.1,59,5.2,59,5.3,59c0.2,0,0.5,0,0.7,0s0.5,0.1,0.7,0.2c0.1,0,0.3,0.1,0.4,0.1
			c0.1,0,0.3,0.1,0.4,0.1c0-0.1-0.1-0.2-0.2-0.3C7.1,59.1,7.1,59,7,58.9c-0.1-0.1-0.2-0.2-0.3-0.3s-0.2-0.2-0.3-0.3
			c0,0-0.1-0.1-0.1-0.1s-0.1-0.1-0.1-0.1c-0.1-0.1-0.2-0.2-0.3-0.3s-0.2-0.2-0.3-0.3c-0.1-0.1-0.1-0.1-0.2-0.2
			c-0.1-0.1-0.1-0.1-0.2-0.2c0,0-0.1-0.1-0.1-0.1c0,0,0-0.1-0.1-0.1c-0.1-0.1-0.1-0.1-0.1-0.2c0-0.1,0-0.2,0-0.2
			c0-0.1,0.1-0.2,0.2-0.2c0.1,0,0.2,0,0.3,0c0.1,0,0.2,0,0.3,0c0.1,0,0.1,0,0.2,0s0.1,0,0.2,0c0.1,0,0.1,0,0.2,0c0.1,0,0.1,0,0.2,0
			c0.1,0,0.1,0,0.2,0c0.1,0,0.1,0,0.1,0.1c0.2,0.1,0.4,0.1,0.6,0.2c0.2,0,0.4,0.1,0.6,0.1c0.1,0,0.2,0,0.3,0.1
			c0.1,0,0.2,0.1,0.3,0.1c-0.1,0-0.1,0-0.2,0s-0.1-0.1-0.2,0C8,56.9,8.1,56.9,8.1,57c0.1,0.1,0.1,0.1,0.2,0.1c0,0,0,0,0.1,0
			c0.1,0.1,0.2,0.2,0.2,0.3c0,0,0,0.1,0,0.1s0,0.1,0,0.1c0,0.1,0,0.2,0,0.3s-0.1,0.2-0.2,0.2c-0.1,0.1-0.1,0.1-0.3,0.1
			c-0.2-0.1-0.4-0.1-0.6-0.2C7.3,58,7.2,57.9,7,57.9c0,0-0.1,0-0.1-0.1c0,0-0.1,0-0.1,0c0,0,0.1,0.1,0.1,0.1S6.9,58,7,58.1
			c0.1,0.1,0.2,0.1,0.2,0.2s0.1,0.1,0.2,0.2c0.2,0.1,0.3,0.3,0.4,0.5s0.2,0.3,0.4,0.5c0.1,0.2,0.2,0.3,0.2,0.5
			C8.4,60.2,8.4,60.4,8.3,60.5z M6.3,56.4c0.1,0,0.2,0.1,0.4,0.1c0.1,0.1,0.2,0.1,0.4,0.1c-0.1,0-0.3-0.1-0.4-0.2
			C6.5,56.4,6.4,56.4,6.3,56.4z M8,58.9c-0.1-0.1-0.1-0.1-0.2-0.2s-0.1-0.1-0.1-0.2c0.1,0,0.1,0.1,0.2,0.2s0.2,0.2,0.2,0.3
			s0.1,0.2,0.2,0.4c0.1,0.1,0.1,0.2,0.1,0.4c0-0.1-0.1-0.1-0.1-0.2c0-0.1-0.1-0.1-0.1-0.2c0-0.1-0.1-0.1-0.1-0.2S8,59,8,58.9z
			 M8,57.2c0.1,0,0.1,0,0.1,0s0.1,0,0.1,0c0,0,0,0,0,0s0,0,0,0c0,0-0.1,0-0.1,0S8.1,57.1,8,57.2L8,57.2z"/>
	</g>
</g>
</svg>
