<?xml version="1.0" encoding="utf-8"?>
<!-- Generator: Adobe Illustrator 27.7.0, SVG Export Plug-In . SVG Version: 6.00 Build 0)  -->
<svg version="1.1" id="Layer_2_00000075130492299761380760000009316315926014093750_"
	 xmlns="http://www.w3.org/2000/svg" xmlns:xlink="http://www.w3.org/1999/xlink" x="0px" y="0px" viewBox="0 0 13.1 16.4"
	 style="enable-background:new 0 0 13.1 16.4;" xml:space="preserve">
<style type="text/css">
	.st0{enable-background:new    ;}
</style>
<g id="Layer_1-2">
	<g class="st0">
		<path d="M12.4,9.3c0,0.3-0.1,0.4-0.2,0.4c-0.2,0-0.3-0.1-0.3-0.4c0-0.2,0-0.3,0-0.5c0-0.2,0-0.3,0-0.5c0-0.3,0-0.7,0-1
			s0-0.6-0.1-1v0.6c-0.1-0.3-0.1-0.7-0.1-1c0-0.3-0.1-0.7-0.2-1c-0.1,0.2-0.1,0.3,0,0.4c0,0.1,0,0.3,0,0.4c0,0.2,0,0.3,0,0.4
			s0,0.3-0.1,0.4c0-0.1,0-0.1,0-0.2c0-0.1,0-0.1,0-0.2c0-0.2,0-0.4,0-0.6s0-0.4,0-0.6c0-0.1,0-0.1-0.1-0.2c0,0-0.1-0.1-0.2-0.1
			c-0.4-0.1-0.7-0.2-1.1-0.3C9.6,4.3,9.2,4.2,8.9,4.1C8.7,4.1,8.6,4,8.5,4S8.3,3.9,8.2,3.9C7.7,3.7,7.3,3.6,6.9,3.5
			C6.5,3.3,6,3.2,5.6,3.1C5.4,3,5.2,2.9,5,2.9c-0.2,0-0.4-0.1-0.6-0.1C4.2,2.7,4.1,2.7,4,2.6c0-0.1,0-0.2,0.1-0.3
			C4.2,2.2,4.3,2.1,4.5,2C4.6,2,4.7,1.9,4.9,1.9c0.3,0,0.5,0,0.7,0s0.5,0.1,0.7,0.2c0.4,0.2,0.9,0.3,1.3,0.4C8.1,2.6,8.6,2.8,9,2.9
			c0,0,0.1,0,0.1,0s0.1,0,0.1,0C9.1,2.9,9.1,2.9,9,2.8c-0.1,0-0.2-0.1-0.2-0.1c-0.1,0-0.1,0-0.2-0.1s-0.1,0-0.2-0.1
			c0.1,0,0.2,0,0.3,0s0.2,0,0.3,0c0.2,0.1,0.5,0.1,0.7,0.2C9.9,2.9,10.1,3,10.3,3c0,0,0.1,0,0.1,0.1s0.1,0.1,0.1,0.1
			c-0.1,0-0.2,0-0.3,0c-0.1,0-0.1-0.1-0.2-0.1c-0.1,0-0.1,0-0.2,0s-0.1,0-0.2,0c0.2,0.1,0.4,0.1,0.6,0.2c0.2,0.1,0.4,0.2,0.6,0.2
			c0-0.3-0.1-0.7-0.3-1S10.3,2,10.2,1.7c0.1,0.1,0.2,0.1,0.2,0.2c0.1,0.1,0.1,0.1,0.1,0.2c0.1,0.2,0.1,0.4,0.2,0.6
			c0.1,0.2,0.1,0.4,0.2,0.6c0,0.1,0,0.1,0.1,0.2c0,0.1,0.1,0.1,0.2,0.2c0-0.1,0-0.1,0-0.2s0-0.1,0-0.1C11,3,10.9,2.7,10.8,2.4
			c-0.1-0.3-0.2-0.6-0.3-0.9c0-0.1-0.1-0.2-0.1-0.2c0-0.1,0-0.1-0.1-0.2c-0.1-0.2-0.1-0.4,0-0.5s0.2-0.3,0.4-0.4
			c0.1,0,0.2,0,0.3-0.1c0.1,0,0.2,0,0.3-0.1c0.1,0.3,0.2,0.6,0.3,0.9s0.2,0.6,0.3,0.9C12,2.1,12,2.5,12.1,2.8c0.1,0.3,0.1,0.6,0.1,1
			c0,0.1,0,0.2,0.1,0.2c0,0,0.1,0,0.2,0.1c0.1,0,0.1,0,0.2,0c0,0,0.1,0,0.2,0c0,0,0.1,0,0.1,0s0.1,0,0.2,0c0,0.2,0,0.3-0.1,0.4
			s-0.2,0.2-0.3,0.3c-0.1,0.1-0.1,0.1-0.2,0.1c-0.1,0-0.2,0.1-0.2,0.2c0,0.1,0,0.1,0,0.2c0,0.5,0,1,0,1.5c0,0.5,0,1,0,1.5
			c0,0.2,0,0.3,0,0.5C12.4,8.9,12.4,9.1,12.4,9.3z M6.9,2.1c-0.1,0-0.2,0-0.3,0C6.4,2,6.3,2,6.2,1.9c0.1,0,0.2,0.1,0.4,0.1
			C6.6,2,6.8,2,6.9,2.1z M8.1,2.5c0.1,0,0.2,0,0.3,0c-0.1,0-0.1,0-0.2,0C8.2,2.5,8.1,2.5,8.1,2.5z M8.4,2.6L8.4,2.6
			C8.4,2.6,8.4,2.6,8.4,2.6C8.4,2.6,8.4,2.6,8.4,2.6L8.4,2.6L8.4,2.6L8.4,2.6z M11.5,5.9L11.5,5.9l0-0.1h0V5.9z"/>
		<path d="M4.9,4.3C4.9,4.2,5,4.1,5.1,4s0.3-0.1,0.5-0.1c0,0,0.1,0,0.1,0c0,0,0.1,0,0.1,0C6,4,6.1,4,6.2,4c0.1,0,0.2,0.1,0.4,0.1
			C6.8,4.2,7,4.3,7.2,4.3c0.2,0.1,0.4,0.1,0.6,0.2c0,0,0,0,0.1,0c0,0,0,0,0.1,0c0,0.2,0,0.3,0,0.4c0,0.1-0.1,0.3-0.2,0.4
			c0,0-0.1,0-0.1,0s-0.1,0-0.1,0c-0.1,0-0.1,0-0.2,0c-0.1,0-0.1,0-0.2,0c0,0-0.1,0-0.1,0c0,0,0,0,0,0h0c0,0,0,0,0,0
			c0.1,0,0.2,0.1,0.3,0.1c0.1,0,0.1,0,0.2,0.1c0.1,0,0.1,0,0.1,0c0,0,0,0-0.1,0c-0.1,0-0.1,0-0.2-0.1S7.1,5.4,7,5.4
			c-0.1,0-0.1,0-0.1,0s0,0,0,0c0,0,0.1,0,0.1,0s0.1,0,0.1,0.1c0,0,0,0,0,0c0,0-0.1,0-0.2-0.1S6.7,5.3,6.6,5.3C6.4,5.2,6.2,5.1,6,5
			C5.8,5,5.7,5,5.6,4.9c-0.1,0-0.2,0-0.2,0c-0.1,0-0.1,0-0.1,0c0,0,0,0,0,0c0,0,0,0,0,0c0,0,0.1,0,0.1,0s0.1,0,0.1,0.1H5.4
			c0,0,0,0.1,0,0.1c0.2,0.3,0.5,0.6,0.8,0.8C6.2,6,6.3,6.1,6.4,6.2c0.1,0.1,0.1,0.1,0.2,0.2c0,0,0,0,0,0.1s0,0.1,0,0.1
			c0,0,0,0-0.1,0c0,0-0.1,0-0.2-0.1c-0.1,0-0.1-0.1-0.2-0.1c-0.1,0-0.1,0-0.1-0.1c0,0-0.1-0.1-0.2-0.2C5.9,6.1,5.8,6,5.6,5.8
			C5.5,5.7,5.3,5.6,5.2,5.4L5,5.2C5,5.1,4.9,5.1,4.9,5c0-0.1-0.1-0.1-0.1-0.1c0-0.1,0-0.2,0-0.3C4.8,4.4,4.8,4.3,4.9,4.3z M8.8,4.8
			c0,0.1,0,0.1,0,0.2c0,0,0,0.1,0,0.1c0,0.2,0,0.3-0.1,0.4C8.6,5.6,8.6,5.6,8.5,5.6c-0.1,0-0.2-0.1-0.3-0.2s-0.1-0.2,0-0.3
			c0-0.1,0-0.2,0.1-0.3c0-0.1,0-0.1,0.1-0.2s0.1,0,0.2,0C8.6,4.7,8.7,4.7,8.8,4.8z"/>
		<path d="M6.7,9.6C6.7,9.6,6.7,9.7,6.7,9.6C6.6,9.6,6.5,9.6,6.5,9.7c0,0-0.1-0.1-0.3-0.2S5.9,9.2,5.7,9C5.5,8.8,5.3,8.6,5.1,8.4
			C4.9,8.3,4.7,8.1,4.7,8C4.6,7.9,4.5,7.8,4.4,7.8C4.4,7.7,4.3,7.6,4.3,7.6c0-0.1-0.1-0.1-0.1-0.2c0,0,0-0.1,0-0.1c0,0,0-0.1,0-0.2
			c0-0.1,0-0.2,0-0.2c0-0.1,0.1-0.1,0.2-0.2c0.2-0.2,0.5-0.4,0.9-0.4c0.2,0,0.4,0,0.6,0c0.2,0,0.4,0.1,0.6,0.1
			C6.7,6.4,7,6.5,7.3,6.6c0,0,0.1,0,0.1,0s0.1,0,0.1,0h0c0,0,0-0.1,0-0.1c0,0-0.1,0-0.2-0.1s-0.2,0-0.2-0.1C7,6.4,6.9,6.4,6.8,6.4
			c0,0,0,0,0,0c0,0,0,0,0.1,0c0,0,0,0,0.1,0s0.1,0,0.1,0c0,0,0,0,0,0c0.1,0,0.1,0,0.2,0c0,0,0.1,0,0.1,0.1h0c0,0,0.1,0,0.2,0.1
			S7.8,6.6,8,6.7c0.2,0,0.3,0.1,0.4,0.1s0.2,0.1,0.2,0.1c0,0,0,0-0.1,0s-0.2,0-0.2-0.1S8,6.7,7.8,6.7c0,0,0,0,0,0
			c0.1,0,0.1,0,0.2,0.1c0.1,0,0.1,0,0.2,0.1c0.1,0,0.2,0.1,0.3,0.1c0.1,0,0.2,0.1,0.3,0.2c0,0,0,0,0.1,0c0,0,0,0,0.1,0
			c0,0,0,0,0-0.1s0,0,0,0c0,0,0,0,0,0c0,0,0,0,0-0.1C9,6.9,9,6.8,9,6.7c0-0.2,0.2-0.3,0.3-0.3c0.1,0.1,0.2,0.3,0.2,0.4
			c0.1,0.1,0.1,0.3,0.1,0.5c0,0.1,0.1,0.2,0.2,0.3c0,0,0,0-0.1,0c0,0,0,0-0.1,0.1c0,0,0,0,0,0.1c0,0.1,0.1,0.1,0.1,0.1
			c0,0,0,0,0.1,0c0,0,0.1,0,0.1,0c0,0,0,0,0,0.1c0,0,0,0,0.1,0.1c0,0,0,0,0.1,0c0,0,0,0-0.1,0s-0.1,0-0.1,0c0,0-0.1,0-0.2-0.1
			c0,0,0,0,0.1,0c0,0,0.1,0,0.2,0s0.1,0,0.2,0c0.1,0,0.1,0,0.1,0c0,0,0.1,0,0.1,0h0c0,0,0,0,0,0c0,0,0,0,0.1,0.1S10.9,8,11,8
			c0.1,0.1,0.2,0.1,0.2,0.1s0.1,0.1,0.1,0.1c0,0,0,0-0.1,0c0,0-0.1,0-0.1-0.1S11,8.1,11,8.1c0,0-0.1,0-0.1,0c0,0-0.1,0-0.1,0
			c0,0,0,0-0.1,0c0,0,0,0-0.1,0c0,0,0,0,0-0.1c0,0-0.1,0-0.2,0c0,0,0,0-0.1,0c0,0,0,0.1,0,0.1c0,0,0.1,0,0.1,0
			c0.1,0.1,0.2,0.1,0.3,0.2c0.1,0.1,0.2,0.1,0.3,0.2c0.1,0.1,0.2,0.1,0.2,0.2c0,0.1,0,0.3,0,0.4s-0.1,0.3-0.3,0.4
			c-0.1,0-0.2,0-0.3-0.1c-0.1,0-0.2-0.1-0.3-0.1c-0.1,0-0.2-0.1-0.3-0.2C10.2,9.1,10.1,9,10,9c0,0.1-0.1,0.1,0,0.2
			c0,0.1,0,0.1,0,0.2c0,0,0,0.1,0,0.1c0,0,0,0.1,0,0.1c0,0,0,0.1-0.1,0.1c0,0-0.1,0-0.1,0c0,0,0,0-0.1,0c0,0,0,0,0-0.1
			c0-0.1-0.1-0.1-0.1-0.2c0-0.1,0-0.1-0.1-0.2c0-0.1-0.1-0.1-0.1-0.2c0-0.1,0-0.2-0.1-0.2C9.1,8.6,8.9,8.5,8.8,8.4S8.4,8.3,8.2,8.2
			C8.1,8.1,7.9,8,7.7,8C7.6,7.9,7.4,7.8,7.2,7.7C7,7.7,6.7,7.6,6.5,7.5C6.3,7.4,6,7.3,5.8,7.3c-0.1,0-0.2,0-0.3-0.1
			c-0.1,0-0.2,0-0.3,0H5c-0.1,0-0.1,0.1-0.2,0.1c0,0,0,0.1,0,0.1c0,0,0,0.1,0,0.1c0,0,0,0.1,0.1,0.1c0,0,0.1,0.1,0.2,0.2
			C5.1,7.9,5.2,8,5.4,8.2c0.1,0.1,0.3,0.3,0.4,0.4C5.9,8.7,6.1,8.9,6.2,9s0.2,0.2,0.3,0.3S6.7,9.5,6.7,9.6z"/>
		<path d="M6.7,13.6C6.8,13.6,6.7,13.7,6.7,13.6c-0.1,0.1-0.2,0.1-0.3,0.1c0,0-0.1-0.1-0.3-0.2c-0.1-0.1-0.2-0.2-0.4-0.3
			c-0.1-0.1-0.2-0.2-0.3-0.3c-0.1-0.1-0.2-0.2-0.2-0.2c0,0,0,0,0.1,0.1c0,0.1,0.1,0.1,0.2,0.2s0.1,0.1,0.2,0.2c0,0.1,0.1,0.1,0,0.1
			c0,0-0.1,0-0.2-0.1C5.3,13,5.2,12.9,5,12.7c-0.1-0.1-0.3-0.2-0.4-0.4c-0.1-0.1-0.2-0.2-0.2-0.2c-0.1-0.1-0.1-0.2-0.1-0.4
			c0-0.1,0.1-0.2,0.1-0.2c0-0.1,0.1-0.1,0.1-0.2c0-0.1,0.1-0.1,0.1-0.1C4.7,11.1,4.8,11,4.9,11c0.1,0,0.2-0.1,0.4-0.1
			c0.1,0,0.2,0,0.3,0s0.2,0,0.2,0H6c0,0,0,0,0-0.1c0,0,0,0,0-0.1c0,0-0.1-0.1-0.1-0.1c0,0-0.1-0.1-0.1-0.1c-0.1-0.1-0.1-0.3-0.1-0.4
			s0-0.3,0-0.4c0-0.1,0.1-0.1,0.1-0.2c0-0.1,0.1-0.1,0.1-0.1c0,0,0.1,0,0.1,0c0,0,0,0,0.1,0c0.1,0,0.3,0,0.4,0.1s0.3,0.1,0.4,0.1
			c0,0,0,0,0,0s0,0,0,0c0,0,0.1,0,0.1,0s0.1,0,0.1,0c0,0,0-0.1,0-0.1c0,0-0.1,0-0.1,0c-0.1,0-0.1,0-0.2-0.1c-0.1,0-0.1,0-0.2,0
			c0,0,0,0-0.1,0c0,0,0,0,0,0c0,0,0,0,0,0c0,0,0,0,0,0s0,0,0,0c0.1,0,0.3,0,0.4,0c0.1,0,0.3,0.1,0.4,0.1c0.1,0,0.2,0.1,0.3,0.2
			c0.1,0.1,0.2,0.1,0.3,0.1C8,9.8,8,9.8,7.9,9.8c-0.1,0-0.1,0-0.2,0c0,0,0,0-0.1,0c0,0,0,0,0,0.1c0.1,0,0.2,0.1,0.2,0.1
			C7.9,10,8,10,8.1,10.1c0,0,0,0.1,0,0.1c0,0.4-0.1,0.5-0.5,0.4c-0.1,0-0.1,0-0.2-0.1c-0.1,0-0.1-0.1-0.2-0.1
			c-0.1-0.1-0.3-0.1-0.4-0.2c-0.1,0-0.3-0.1-0.4-0.1c0,0,0,0,0,0s0,0,0,0v0c0,0,0.1,0.1,0.1,0.1c0,0,0.1,0.1,0.1,0.1
			c0.1,0.1,0.3,0.2,0.4,0.3c0.1,0.1,0.2,0.2,0.4,0.3c0.1,0.1,0.3,0.2,0.4,0.3s0.2,0.2,0.4,0.3c0,0,0,0,0.1,0.1c0,0,0.1,0,0.1,0.1
			c0,0,0,0.1,0,0.1c0,0.1,0,0.1,0,0.1c0,0.1,0,0.3,0,0.4c0,0.1-0.1,0.2-0.1,0.3c0,0,0,0,0,0c0,0,0,0-0.1,0c0,0-0.1,0-0.1,0
			s-0.1,0-0.1,0c-0.2,0-0.4-0.1-0.5-0.2c-0.2-0.1-0.4-0.1-0.5-0.2c-0.1,0-0.2-0.1-0.3-0.1c-0.1,0-0.2,0-0.3-0.1c0,0-0.1,0-0.1,0
			c0,0-0.1,0-0.1,0.1c-0.1,0-0.2,0-0.3-0.1c-0.1,0-0.2,0-0.2-0.1c-0.1,0-0.2,0-0.3-0.1c0,0,0,0-0.1,0c0,0-0.1,0-0.1,0
			c0,0.1,0.1,0.1,0.1,0.1l0.7,0.7C6,13,6.2,13.1,6.3,13.3C6.5,13.5,6.6,13.6,6.7,13.6z M6.1,12.2L6.1,12.2L6.1,12.2
			c0.1,0,0.1,0,0.2,0c0.1,0,0.1,0,0.2,0.1C6.3,12.3,6.2,12.3,6.1,12.2z M6.5,12.4C6.5,12.4,6.5,12.3,6.5,12.4
			C6.5,12.3,6.5,12.3,6.5,12.4c0.1,0,0.3,0,0.4,0.1s0.2,0.1,0.4,0.2H7.2c-0.1,0-0.2-0.1-0.3-0.1C6.8,12.5,6.7,12.5,6.5,12.4
			C6.6,12.4,6.5,12.4,6.5,12.4z"/>
		<path d="M5.7,15.7c0,0.1,0,0.1,0,0.1c0,0,0,0.1-0.1,0c0,0-0.1,0-0.1,0c0,0,0,0-0.1,0c-0.1,0-0.2,0-0.3-0.1c0,0,0,0,0,0
			c0,0,0,0,0,0.1c-0.2-0.1-0.3-0.2-0.5-0.2c-0.2-0.1-0.3-0.1-0.4-0.2c0,0-0.1,0-0.1-0.1c0,0,0-0.1-0.1-0.1c0,0,0-0.1,0-0.1
			c0,0,0,0,0-0.1C4,15,3.9,14.9,3.8,14.9c0,0-0.1-0.1-0.1-0.2c0-0.1-0.1-0.1-0.1-0.2c0,0,0-0.1-0.1-0.1c0,0-0.1-0.1-0.1-0.1
			c0,0-0.1-0.1-0.1-0.1s0-0.1,0-0.2c0,0,0,0,0-0.1c0,0,0-0.1,0-0.1c0-0.1-0.1-0.2,0-0.2c0,0,0.1,0,0.1,0.1c0,0,0,0.1,0,0.1
			c0,0,0,0.1,0.1,0.1c0,0,0,0.1,0.1,0.1c0,0,0,0.1,0.1,0.1c0,0,0.1,0.1,0.1,0.1c0,0,0-0.1,0-0.1c0,0,0,0,0-0.1
			c-0.1-0.1-0.1-0.2-0.2-0.3c0-0.1-0.1-0.2-0.1-0.3c-0.1-0.2-0.1-0.4-0.1-0.6s0.1-0.3,0.2-0.5c0-0.1,0.1-0.1,0.2-0.2
			c0.1-0.1,0.1-0.1,0.2-0.2h0.1c0.2,0,0.3,0,0.5,0.1c0.1,0.1,0.3,0.2,0.4,0.3c0.2,0.2,0.4,0.4,0.6,0.6c0.2,0.2,0.3,0.5,0.5,0.7
			c0,0.1,0,0.1,0.1,0.2c0,0,0,0.1,0,0.1c0,0.1,0,0.1-0.1,0.1c-0.1,0-0.2,0-0.3,0c-0.1-0.1-0.2-0.1-0.2-0.2S5.1,13.9,5,13.8
			c-0.2-0.2-0.3-0.3-0.5-0.4S4.2,13.2,4,13.1c0,0-0.1,0-0.1,0c0,0-0.1,0-0.1,0c0,0.1,0.1,0.2,0.1,0.3c0,0.1,0.1,0.2,0.2,0.3
			c0,0,0,0,0.1,0.1c0,0,0,0.1,0.1,0.1c0.2,0.2,0.3,0.4,0.5,0.5c0.2,0.1,0.4,0.2,0.6,0.3c0.1,0,0.2,0.1,0.2,0.1c0.1,0,0.2,0,0.2,0
			c0,0,0.1,0,0.1,0c0,0,0.1,0,0.1,0c0.1-0.1,0.1-0.1,0.1-0.2c0,0,0-0.1,0-0.1s0-0.1,0-0.1c0-0.1,0-0.2,0.1-0.4
			c0-0.1,0.1-0.2,0.2-0.3c0.1-0.2,0.2-0.2,0.3-0.3c0.1,0,0.2,0,0.3,0c0.1,0,0.2,0.1,0.3,0.2s0.2,0.1,0.3,0.2c0,0,0,0,0,0
			c0,0-0.1,0-0.1,0c0,0,0,0-0.1,0c0,0,0.1,0.1,0.1,0.1c0,0,0.1,0.1,0.1,0.1c0.1,0.1,0.2,0.1,0.3,0.2c0.1,0.1,0.1,0.2,0.2,0.3
			c0.1,0.1,0.1,0.3,0.2,0.4c0,0,0,0.1,0,0.1s0,0.1,0,0.1c0.1,0.3,0,0.5-0.1,0.7c0,0,0,0,0,0s0,0,0,0c0,0-0.1,0-0.1,0.1
			c0,0-0.1,0-0.1,0.1c-0.2,0-0.3-0.1-0.5-0.2c-0.1-0.1-0.3-0.3-0.4-0.4C7.1,15.4,7,15.2,7,15.1C7,15,7,15,7,14.9c0,0,0-0.1,0.1-0.2
			c0,0,0.1,0,0.1,0s0,0,0.1,0.1c0,0.1,0.1,0.1,0.2,0.2c0.1,0.1,0.1,0.1,0.2,0.2c0.1,0.1,0.2,0.1,0.3,0.2c0,0,0,0,0.1,0s0,0,0.1,0
			c0,0,0-0.1,0-0.1c0-0.1-0.1-0.1-0.1-0.2c0,0,0-0.1-0.1-0.1c-0.1-0.2-0.3-0.3-0.4-0.4c-0.1-0.1-0.3-0.3-0.5-0.3c0,0-0.1,0-0.1,0
			s-0.1,0-0.1,0c0,0,0,0.1,0,0.2c0,0.1,0,0.1,0,0.2c0,0.4-0.2,0.7-0.3,0.9C6.1,15.6,5.9,15.7,5.7,15.7z"/>
	</g>
</g>
</svg>
